<?xml version="1.0" encoding="UTF-8"?>
<svg id="_レイヤー_1" data-name="レイヤー_1" xmlns="http://www.w3.org/2000/svg" version="1.1" viewBox="0 0 800 500">
  <!-- Generator: Adobe Illustrator 30.1.0, SVG Export Plug-In . SVG Version: 2.1.1 Build 136)  -->
  <defs>
    <style>
      .st0 {
        fill: #7b2621;
      }

      .st1 {
        fill: #2c4a96;
      }

      .st2 {
        fill: #d3cc91;
      }

      .st3 {
        fill: #af4252;
      }

      .st4 {
        fill: #f1f1d8;
      }

      .st5 {
        fill: #edb98e;
      }

      .st6 {
        fill: #f08734;
      }

      .st7 {
        fill: #a2936a;
      }

      .st8 {
        fill: #7a311f;
      }

      .st9 {
        fill: #fff;
      }

      .st10 {
        fill: #f4e53d;
      }

      .st11 {
        fill: #d9a28f;
      }

      .st12 {
        fill: #297e47;
      }

      .st13 {
        fill: #ae2f23;
      }

      .st14 {
        fill: #d79b87;
      }

      .st15 {
        fill: #faf4b8;
      }

      .st16 {
        stroke: #fff;
        stroke-width: 5px;
      }

      .st16, .st17, .st18 {
        fill: none;
        stroke-linecap: round;
        stroke-linejoin: round;
      }

      .st19 {
        fill: #4b4f88;
      }

      .st20 {
        fill: #a16960;
      }

      .st21 {
        fill: #2b539c;
      }

      .st22 {
        fill: #189b4b;
      }

      .st23 {
        fill: #f6eed5;
      }

      .st24 {
        fill: #f8eddb;
      }

      .st17 {
        stroke: #a16960;
      }

      .st17, .st18 {
        stroke-width: 6px;
      }

      .st25 {
        fill: #f8e6d0;
      }

      .st26 {
        fill: #e94859;
      }

      .st18 {
        stroke: #e1aca0;
      }
    </style>
  </defs>
  <rect class="st22" width="800" height="500"/>
  <rect class="st19" y="64.49" width="800" height="56.45"/>
  <rect class="st12" y="120.94" width="800" height="16.92"/>
  <rect class="st7" width="800" height="64.49"/>
  <rect class="st13" y="377.95" width="800" height="78.36"/>
  <rect class="st9" y="383.36" width="800" height="4.02"/>
  <rect class="st9" y="445.08" width="800" height="4.02"/>
  <polygon class="st9" points="315.23 445.08 305.38 445.08 256.98 387.38 266.83 387.38 315.23 445.08"/>
  <rect class="st13" y="280.86" width="800" height="78.36"/>
  <ellipse cx="181.25" cy="329.68" rx="37.73" ry="9.15"/>
  <ellipse cx="247.82" cy="428.16" rx="37.73" ry="9.15"/>
  <rect class="st13" y="151.73" width="800" height="20.39"/>
  <rect class="st9" y="154.65" width="800" height="1.25"/>
  <rect class="st9" y="160.19" width="800" height="1.25"/>
  <rect class="st9" y="165.74" width="800" height="1.25"/>
  <rect class="st9" y="286.27" width="800" height="4.02"/>
  <rect class="st9" y="347.99" width="800" height="4.02"/>
  <polygon class="st9" points="241.31 347.99 231.46 347.99 183.05 290.29 192.9 290.29 241.31 347.99"/>
  <rect class="st26" x="90.26" y="279.33" width="28.16" height="43.55"/>
  <polygon class="st0" points="136.59 344.66 108.43 344.66 90.26 322.88 118.28 322.88 136.59 344.66"/>
  <rect class="st3" x="104.27" y="279.33" width="14.01" height="43.55"/>
  <rect class="st26" x="131.87" y="376.42" width="28.16" height="43.55"/>
  <polygon class="st0" points="178.2 441.75 150.04 441.75 131.87 419.97 159.89 419.97 178.2 441.75"/>
  <rect class="st3" x="145.88" y="376.42" width="14.01" height="43.55"/>
  <rect class="st12" y="219.83" width="800" height="31.62"/>
  <rect class="st12" y="185.16" width="800" height="15.81"/>
  <rect class="st2" x="232.01" y="235.23" width="119.28" height="25.52"/>
  <polygon class="st12" points="368.07 280.86 248.79 280.86 232.01 260.75 351.29 260.75 368.07 280.86"/>
  <rect class="st15" x="232.01" y="227.88" width="119.28" height="7.35"/>
  <rect class="st2" x="533.95" y="235.23" width="119.28" height="25.52"/>
  <polygon class="st12" points="670.15 280.86 550.88 280.86 533.95 260.75 653.37 260.75 670.15 280.86"/>
  <rect class="st15" x="533.95" y="227.88" width="119.28" height="7.35"/>
  <circle class="st5" cx="99.14" cy="45.63" r="8.18"/>
  <circle class="st5" cx="120.22" cy="45.63" r="8.18"/>
  <circle class="st5" cx="140.75" cy="45.63" r="8.18"/>
  <circle class="st5" cx="161.83" cy="45.63" r="8.18"/>
  <circle class="st5" cx="182.36" cy="45.63" r="8.18"/>
  <circle class="st5" cx="203.44" cy="45.63" r="8.18"/>
  <circle class="st5" cx="223.97" cy="45.63" r="8.18"/>
  <circle class="st5" cx="245.05" cy="45.63" r="8.18" transform="translate(157.59 279.05) rotate(-80.01)"/>
  <circle class="st5" cx="89.43" cy="22.05" r="8.18"/>
  <circle class="st5" cx="110.51" cy="22.05" r="8.18"/>
  <circle class="st5" cx="131.04" cy="22.05" r="8.18"/>
  <circle class="st5" cx="152.12" cy="22.05" r="8.18"/>
  <circle class="st5" cx="172.65" cy="22.05" r="8.18"/>
  <circle class="st5" cx="193.73" cy="22.05" r="8.18"/>
  <circle class="st5" cx="214.26" cy="22.05" r="8.18"/>
  <circle class="st5" cx="235.34" cy="22.05" r="8.18"/>
  <circle class="st5" cx="336.31" cy="45.63" r="8.18"/>
  <circle class="st5" cx="357.39" cy="45.63" r="8.18"/>
  <circle class="st5" cx="377.92" cy="45.63" r="8.18"/>
  <circle class="st5" cx="399" cy="45.63" r="8.18"/>
  <circle class="st5" cx="419.53" cy="45.63" r="8.18" transform="translate(227.78 421.56) rotate(-69.18)"/>
  <circle class="st5" cx="440.61" cy="45.63" r="8.18"/>
  <circle class="st5" cx="461.14" cy="45.63" r="8.18"/>
  <circle class="st5" cx="482.22" cy="45.63" r="8.18"/>
  <circle class="st5" cx="326.6" cy="22.05" r="8.18"/>
  <circle class="st5" cx="347.69" cy="22.05" r="8.18"/>
  <circle class="st5" cx="368.21" cy="22.05" r="8.18"/>
  <circle class="st5" cx="389.29" cy="22.05" r="8.18"/>
  <circle class="st5" cx="409.82" cy="22.05" r="8.18"/>
  <circle class="st5" cx="430.9" cy="22.05" r="8.18"/>
  <circle class="st5" cx="451.43" cy="22.05" r="8.18"/>
  <circle class="st5" cx="472.51" cy="22.05" r="8.18"/>
  <circle class="st5" cx="556.84" cy="45.63" r="8.18"/>
  <circle class="st5" cx="577.92" cy="45.63" r="8.18"/>
  <circle class="st5" cx="598.59" cy="45.63" r="8.18"/>
  <circle class="st5" cx="619.53" cy="45.63" r="8.18"/>
  <circle class="st5" cx="640.2" cy="45.63" r="8.18"/>
  <circle class="st5" cx="661.14" cy="45.63" r="8.18"/>
  <circle class="st5" cx="681.8" cy="45.63" r="8.18"/>
  <circle class="st5" cx="702.75" cy="45.63" r="8.18"/>
  <circle class="st5" cx="547.13" cy="22.05" r="8.18"/>
  <circle class="st5" cx="568.21" cy="22.05" r="8.18"/>
  <circle class="st5" cx="588.88" cy="22.05" r="8.18"/>
  <circle class="st5" cx="609.82" cy="22.05" r="8.18"/>
  <circle class="st5" cx="630.49" cy="22.05" r="8.18"/>
  <circle class="st5" cx="651.43" cy="22.05" r="8.18"/>
  <circle class="st5" cx="672.1" cy="22.05" r="8.18"/>
  <circle class="st5" cx="693.04" cy="22.05" r="8.18"/>
  <rect class="st24" x="246.3" y="214.84" width="10.82" height="23.99"/>
  <rect class="st11" x="246.3" y="236.2" width="10.82" height="6.8"/>
  <rect class="st21" x="267.93" y="232.04" width="12.21" height="40.92"/>
  <rect class="st21" x="253.09" y="232.04" width="12.21" height="40.92"/>
  <rect class="st24" x="253.09" y="212.48" width="27.18" height="23.58"/>
  <polygon class="st21" points="257.81 212.48 257.81 220.67 264.88 212.62 271.4 220.67 271.4 212.21 257.81 212.48"/>
  <circle class="st11" cx="265.44" cy="200.69" r="13.45"/>
  <path class="st23" d="M251.98,200.69c0-7.49,5.96-13.45,13.45-13.45s13.45,5.96,13.45,13.45"/>
  <rect class="st24" x="274.04" y="188.63" width="11.1" height="25.24"/>
  <rect class="st4" x="249.07" y="266.85" width="16.23" height="6.1"/>
  <rect class="st4" x="267.93" y="266.85" width="16.23" height="6.1"/>
  <rect x="272.1" y="167.55" width="6.8" height="16.09"/>
  <circle class="st11" cx="279.17" cy="185.58" r="7.07"/>
  <rect class="st21" x="257.12" y="236.06" width="16.92" height="6.24"/>
  <polyline class="st17" points="173.62 308.04 175.56 327.05 150.6 320.53"/>
  <line class="st16" x1="150.6" y1="320.53" x2="150.6" y2="327.74"/>
  <ellipse class="st20" cx="214.12" cy="278.12" rx="9.99" ry="10.26" transform="translate(-132.84 331.19) rotate(-61.11)"/>
  <circle class="st20" cx="221.89" cy="286.15" r="3.61" transform="translate(-135.85 342.15) rotate(-61.11)"/>
  <polygon class="st8" points="210.38 265.19 219.25 264.63 229.52 277.95 210.65 275.17 202.61 279.33 200.53 268.38 204.13 269.21 204.41 259.36 210.38 265.19"/>
  <path class="st6" d="M180.83,306.93c-5.69,3.19-12.76,1.11-15.95-4.44h0c-3.19-5.69-1.11-12.76,4.44-15.95l16.09-9.02c5.69-3.19,12.76-1.11,15.95,4.44h0c3.19,5.69,1.11,12.76-4.44,15.95l-16.09,9.02Z"/>
  <path class="st10" d="M188.88,302.36c-4.44,2.5-10.54,0-13.73-5.69h0c-3.19-5.69-2.08-12.21,2.22-14.7l12.62-7.07c4.44-2.5,10.54,0,13.73,5.69h0c3.19,5.69,2.08,12.21-2.22,14.7l-12.62,7.07Z"/>
  <polyline class="st17" points="200.53 288.21 202.89 310.4 206.22 327.05"/>
  <polyline class="st17" points="184.58 304.3 198.59 308.46 189.71 324.13"/>
  <line class="st16" x1="196.92" y1="327.05" x2="189.71" y2="327.05"/>
  <polyline class="st18" points="242.97 406.52 244.91 425.52 219.95 419"/>
  <line class="st16" x1="219.95" y1="419" x2="219.95" y2="426.35"/>
  <ellipse class="st14" cx="283.47" cy="376.59" rx="9.99" ry="10.26" transform="translate(-183.21 442.8) rotate(-61.11)"/>
  <circle class="st14" cx="291.24" cy="384.62" r="3.61"/>
  <polygon class="st8" points="279.72 363.66 288.6 363.25 298.86 376.42 280 373.65 271.96 377.81 269.88 366.85 273.48 367.68 273.76 357.84 279.72 363.66"/>
  <path class="st1" d="M250.18,405.41c-5.69,3.19-12.76,1.11-15.95-4.44h0c-3.19-5.69-1.11-12.76,4.44-15.95l16.09-9.02c5.69-3.19,12.76-1.11,15.95,4.44h0c3.19,5.69,1.11,12.76-4.44,15.95l-16.09,9.02Z"/>
  <path class="st25" d="M258.23,400.83c-4.44,2.5-10.54,0-13.73-5.69h0c-3.19-5.69-2.08-12.21,2.22-14.7l12.62-7.07c4.44-2.5,10.54,0,13.73,5.69h0c3.19,5.69,2.08,12.21-2.22,14.7l-12.62,7.07Z"/>
  <polyline class="st18" points="269.88 386.69 272.23 408.88 275.56 425.52"/>
  <polyline class="st18" points="253.93 402.77 267.93 406.93 259.06 422.61"/>
  <line class="st16" x1="266.41" y1="425.52" x2="259.06" y2="425.52"/>
</svg>