<?xml version="1.0" encoding="UTF-8"?>
<svg id="_レイヤー_1" data-name="レイヤー_1" xmlns="http://www.w3.org/2000/svg" version="1.1" viewBox="0 0 800 500">
  <!-- Generator: Adobe Illustrator 30.1.0, SVG Export Plug-In . SVG Version: 2.1.1 Build 136)  -->
  <defs>
    <style>
      .st0 {
        fill: #dbdc47;
      }

      .st1 {
        fill: #42250f;
      }

      .st2 {
        fill: #a75696;
      }

      .st3 {
        fill: #974823;
      }

      .st4 {
        fill: #f6b267;
      }

      .st5 {
        fill: #bcbc43;
      }

      .st6, .st7, .st8, .st9, .st10, .st11, .st12, .st13 {
        stroke-miterlimit: 10;
      }

      .st6, .st9, .st10 {
        stroke: #040000;
      }

      .st6, .st9, .st11, .st12, .st13 {
        fill: none;
      }

      .st14 {
        fill: #512375;
      }

      .st15 {
        fill: #244793;
      }

      .st7 {
        fill: #f0a128;
      }

      .st7, .st8, .st11 {
        stroke: #221f20;
      }

      .st7, .st11 {
        stroke-width: 1.2px;
      }

      .st16 {
        fill: #ead934;
      }

      .st17 {
        fill: #d0a03c;
      }

      .st18 {
        fill: #592e15;
      }

      .st19 {
        fill: #a73524;
      }

      .st20 {
        fill: #307dad;
      }

      .st21 {
        fill: #e18b37;
      }

      .st22 {
        fill: #0d4b84;
      }

      .st23 {
        fill: #985b24;
      }

      .st24 {
        fill: #f2c089;
      }

      .st25 {
        fill: #c8c9c8;
      }

      .st26 {
        fill: #e78249;
      }

      .st8, .st27 {
        fill: #fff;
      }

      .st28 {
        fill: #231815;
      }

      .st29 {
        fill: #1b2d58;
      }

      .st30 {
        fill: #d68a19;
      }

      .st31 {
        fill: #812d1f;
      }

      .st9, .st12 {
        stroke-linecap: round;
      }

      .st32 {
        fill: #1b2f84;
      }

      .st33 {
        fill: #2c190a;
      }

      .st34 {
        fill: #0f4266;
      }

      .st35 {
        fill: #3a211a;
      }

      .st10 {
        fill: #5e4a42;
      }

      .st36 {
        fill: #6e451f;
      }

      .st37 {
        fill: #f5ad6b;
      }

      .st38 {
        fill: #834b22;
      }

      .st39 {
        fill: #221f20;
      }

      .st40 {
        fill: #eadf37;
      }

      .st41 {
        fill: #243554;
      }

      .st42 {
        fill: #f39f66;
      }

      .st43 {
        fill: #c1a51e;
      }

      .st44 {
        fill: #bb7134;
      }

      .st12, .st13 {
        stroke: #fff;
        stroke-width: 2px;
      }

      .st45 {
        fill: #6d411f;
      }

      .st46 {
        fill: #15619e;
      }

      .st47 {
        fill: #81301f;
      }

      .st48 {
        fill: #582c15;
      }

      .st49 {
        fill: #0d398a;
      }
    </style>
  </defs>
  <path class="st22" d="M31.63,536.47V-46.23h762.89v582.71H31.63Z"/>
  <path class="st12" d="M174.21,247.81h452.47"/>
  <path class="st46" d="M31.63,173.96v-97.48h761.95v97.48H31.63Z"/>
  <g>
    <path class="st20" d="M231.95,228.07c0-1.34,1.07-2.42,2.42-2.42s2.42,1.07,2.42,2.42-1.07,2.42-2.42,2.42-2.42-.94-2.42-2.42Z"/>
    <path class="st20" d="M258.4,228.07c0-1.34,1.07-2.42,2.42-2.42s2.42,1.07,2.42,2.42-1.07,2.42-2.42,2.42-2.42-.94-2.42-2.42Z"/>
    <path class="st20" d="M284.85,228.07c0-1.34,1.07-2.42,2.42-2.42s2.42,1.07,2.42,2.42-1.07,2.42-2.42,2.42-2.42-.94-2.42-2.42Z"/>
    <path class="st20" d="M311.3,228.07c0-1.34,1.07-2.42,2.42-2.42s2.42,1.07,2.42,2.42-1.07,2.42-2.42,2.42-2.42-.94-2.42-2.42Z"/>
    <path class="st20" d="M337.75,228.07c0-1.34,1.07-2.42,2.42-2.42s2.42,1.07,2.42,2.42-1.07,2.42-2.42,2.42c-1.21.13-2.42-.94-2.42-2.42Z"/>
    <path class="st20" d="M364.2,228.07c0-1.34,1.07-2.42,2.42-2.42s2.42,1.07,2.42,2.42-1.07,2.42-2.42,2.42-2.42-.94-2.42-2.42Z"/>
    <path class="st20" d="M390.78,228.07c0-1.34,1.07-2.42,2.42-2.42s2.42,1.07,2.42,2.42-1.07,2.42-2.42,2.42-2.42-.94-2.42-2.42Z"/>
    <path class="st20" d="M417.23,228.07c0-1.34,1.07-2.42,2.42-2.42s2.42,1.07,2.42,2.42-1.07,2.42-2.42,2.42-2.42-.94-2.42-2.42Z"/>
    <path class="st20" d="M443.68,228.07c0-1.34,1.07-2.42,2.42-2.42s2.42,1.07,2.42,2.42-1.07,2.42-2.42,2.42-2.42-.94-2.42-2.42Z"/>
    <path class="st20" d="M470.13,228.07c0-1.34,1.07-2.42,2.42-2.42s2.42,1.07,2.42,2.42-1.07,2.42-2.42,2.42-2.42-.94-2.42-2.42Z"/>
    <path class="st20" d="M496.58,228.07c0-1.34,1.07-2.42,2.42-2.42s2.42,1.07,2.42,2.42-1.07,2.42-2.42,2.42-2.42-.94-2.42-2.42Z"/>
    <path class="st20" d="M523.03,228.07c0-1.34,1.07-2.42,2.42-2.42s2.42,1.07,2.42,2.42-1.07,2.42-2.42,2.42-2.42-.94-2.42-2.42Z"/>
    <path class="st20" d="M549.48,228.07c0-1.34,1.07-2.42,2.42-2.42s2.42,1.07,2.42,2.42-1.07,2.42-2.42,2.42-2.42-.94-2.42-2.42Z"/>
    <path class="st20" d="M575.93,228.07c0-1.34,1.07-2.42,2.42-2.42s2.42,1.07,2.42,2.42-1.07,2.42-2.42,2.42-2.42-.94-2.42-2.42Z"/>
    <path class="st20" d="M231.95,201.22c0-1.34,1.07-2.42,2.42-2.42s2.42,1.07,2.42,2.42-1.07,2.42-2.42,2.42-2.42-.94-2.42-2.42Z"/>
    <path class="st20" d="M258.4,201.22c0-1.34,1.07-2.42,2.42-2.42s2.42,1.07,2.42,2.42-1.07,2.42-2.42,2.42-2.42-.94-2.42-2.42Z"/>
    <path class="st20" d="M284.85,201.22c0-1.34,1.07-2.42,2.42-2.42s2.42,1.07,2.42,2.42-1.07,2.42-2.42,2.42-2.42-.94-2.42-2.42Z"/>
    <path class="st20" d="M311.3,201.22c0-1.34,1.07-2.42,2.42-2.42s2.42,1.07,2.42,2.42-1.07,2.42-2.42,2.42-2.42-.94-2.42-2.42Z"/>
    <path class="st20" d="M337.75,201.22c0-1.34,1.07-2.42,2.42-2.42s2.42,1.07,2.42,2.42-1.07,2.42-2.42,2.42c-1.21.13-2.42-.94-2.42-2.42Z"/>
    <path class="st20" d="M364.2,201.22c0-1.34,1.07-2.42,2.42-2.42s2.42,1.07,2.42,2.42-1.07,2.42-2.42,2.42-2.42-.94-2.42-2.42Z"/>
    <path class="st20" d="M390.78,201.22c0-1.34,1.07-2.42,2.42-2.42s2.42,1.07,2.42,2.42-1.07,2.42-2.42,2.42-2.42-.94-2.42-2.42Z"/>
    <path class="st20" d="M417.23,201.22c0-1.34,1.07-2.42,2.42-2.42s2.42,1.07,2.42,2.42-1.07,2.42-2.42,2.42-2.42-.94-2.42-2.42Z"/>
    <path class="st20" d="M443.68,201.22c0-1.34,1.07-2.42,2.42-2.42s2.42,1.07,2.42,2.42-1.07,2.42-2.42,2.42-2.42-.94-2.42-2.42Z"/>
    <path class="st20" d="M470.13,201.22c0-1.34,1.07-2.42,2.42-2.42s2.42,1.07,2.42,2.42-1.07,2.42-2.42,2.42-2.42-.94-2.42-2.42Z"/>
    <path class="st20" d="M496.58,201.22c0-1.34,1.07-2.42,2.42-2.42s2.42,1.07,2.42,2.42-1.07,2.42-2.42,2.42-2.42-.94-2.42-2.42Z"/>
    <path class="st20" d="M523.03,201.22c0-1.34,1.07-2.42,2.42-2.42s2.42,1.07,2.42,2.42-1.07,2.42-2.42,2.42-2.42-.94-2.42-2.42Z"/>
    <path class="st20" d="M549.48,201.22c0-1.34,1.07-2.42,2.42-2.42s2.42,1.07,2.42,2.42-1.07,2.42-2.42,2.42-2.42-.94-2.42-2.42Z"/>
    <path class="st20" d="M575.93,201.22c0-1.34,1.07-2.42,2.42-2.42s2.42,1.07,2.42,2.42-1.07,2.42-2.42,2.42-2.42-.94-2.42-2.42Z"/>
    <path class="st20" d="M231.95,174.36c0-1.34,1.07-2.42,2.42-2.42s2.42,1.07,2.42,2.42-1.07,2.42-2.42,2.42-2.42-.94-2.42-2.42Z"/>
    <path class="st20" d="M258.4,174.36c0-1.34,1.07-2.42,2.42-2.42s2.42,1.07,2.42,2.42-1.07,2.42-2.42,2.42-2.42-.94-2.42-2.42Z"/>
    <path class="st20" d="M284.85,174.36c0-1.34,1.07-2.42,2.42-2.42s2.42,1.07,2.42,2.42-1.07,2.42-2.42,2.42-2.42-.94-2.42-2.42Z"/>
    <path class="st20" d="M311.3,174.36c0-1.34,1.07-2.42,2.42-2.42s2.42,1.07,2.42,2.42-1.07,2.42-2.42,2.42-2.42-.94-2.42-2.42Z"/>
    <path class="st20" d="M337.75,174.36c0-1.34,1.07-2.42,2.42-2.42s2.42,1.07,2.42,2.42-1.07,2.42-2.42,2.42c-1.21.13-2.42-.94-2.42-2.42Z"/>
    <path class="st20" d="M364.2,174.36c0-1.34,1.07-2.42,2.42-2.42s2.42,1.07,2.42,2.42-1.07,2.42-2.42,2.42-2.42-.94-2.42-2.42Z"/>
    <path class="st20" d="M390.78,174.36c0-1.34,1.07-2.42,2.42-2.42s2.42,1.07,2.42,2.42-1.07,2.42-2.42,2.42-2.42-.94-2.42-2.42Z"/>
    <path class="st20" d="M417.23,174.36c0-1.34,1.07-2.42,2.42-2.42s2.42,1.07,2.42,2.42-1.07,2.42-2.42,2.42-2.42-.94-2.42-2.42Z"/>
    <path class="st20" d="M443.68,174.36c0-1.34,1.07-2.42,2.42-2.42s2.42,1.07,2.42,2.42-1.07,2.42-2.42,2.42-2.42-.94-2.42-2.42Z"/>
    <path class="st20" d="M470.13,174.36c0-1.34,1.07-2.42,2.42-2.42s2.42,1.07,2.42,2.42-1.07,2.42-2.42,2.42-2.42-.94-2.42-2.42Z"/>
    <path class="st20" d="M496.58,174.36c0-1.34,1.07-2.42,2.42-2.42s2.42,1.07,2.42,2.42-1.07,2.42-2.42,2.42-2.42-.94-2.42-2.42Z"/>
    <path class="st20" d="M523.03,174.36c0-1.34,1.07-2.42,2.42-2.42s2.42,1.07,2.42,2.42-1.07,2.42-2.42,2.42-2.42-.94-2.42-2.42Z"/>
    <path class="st20" d="M549.48,174.36c0-1.34,1.07-2.42,2.42-2.42s2.42,1.07,2.42,2.42-1.07,2.42-2.42,2.42-2.42-.94-2.42-2.42Z"/>
    <path class="st20" d="M575.93,174.36c0-1.34,1.07-2.42,2.42-2.42s2.42,1.07,2.42,2.42-1.07,2.42-2.42,2.42-2.42-.94-2.42-2.42Z"/>
    <path class="st20" d="M231.95,147.51c0-1.34,1.07-2.42,2.42-2.42s2.42,1.07,2.42,2.42-1.07,2.42-2.42,2.42-2.42-.94-2.42-2.42Z"/>
    <path class="st20" d="M258.4,147.51c0-1.34,1.07-2.42,2.42-2.42s2.42,1.07,2.42,2.42-1.07,2.42-2.42,2.42-2.42-.94-2.42-2.42Z"/>
    <path class="st20" d="M284.85,147.51c0-1.34,1.07-2.42,2.42-2.42s2.42,1.07,2.42,2.42-1.07,2.42-2.42,2.42-2.42-.94-2.42-2.42Z"/>
    <path class="st20" d="M311.3,147.51c0-1.34,1.07-2.42,2.42-2.42s2.42,1.07,2.42,2.42-1.07,2.42-2.42,2.42-2.42-.94-2.42-2.42Z"/>
    <path class="st20" d="M337.75,147.51c0-1.34,1.07-2.42,2.42-2.42s2.42,1.07,2.42,2.42-1.07,2.42-2.42,2.42c-1.21.13-2.42-.94-2.42-2.42Z"/>
    <path class="st20" d="M364.2,147.51c0-1.34,1.07-2.42,2.42-2.42s2.42,1.07,2.42,2.42-1.07,2.42-2.42,2.42-2.42-.94-2.42-2.42Z"/>
    <path class="st20" d="M390.78,147.51c0-1.34,1.07-2.42,2.42-2.42s2.42,1.07,2.42,2.42-1.07,2.42-2.42,2.42-2.42-.94-2.42-2.42Z"/>
    <path class="st20" d="M417.23,147.51c0-1.34,1.07-2.42,2.42-2.42s2.42,1.07,2.42,2.42-1.07,2.42-2.42,2.42-2.42-.94-2.42-2.42Z"/>
    <path class="st20" d="M443.68,147.51c0-1.34,1.07-2.42,2.42-2.42s2.42,1.07,2.42,2.42-1.07,2.42-2.42,2.42-2.42-.94-2.42-2.42Z"/>
    <path class="st20" d="M470.13,147.51c0-1.34,1.07-2.42,2.42-2.42s2.42,1.07,2.42,2.42-1.07,2.42-2.42,2.42-2.42-.94-2.42-2.42Z"/>
    <path class="st20" d="M496.58,147.51c0-1.34,1.07-2.42,2.42-2.42s2.42,1.07,2.42,2.42-1.07,2.42-2.42,2.42-2.42-.94-2.42-2.42Z"/>
    <path class="st20" d="M523.03,147.51c0-1.34,1.07-2.42,2.42-2.42s2.42,1.07,2.42,2.42-1.07,2.42-2.42,2.42-2.42-.94-2.42-2.42Z"/>
    <path class="st20" d="M549.48,147.51c0-1.34,1.07-2.42,2.42-2.42s2.42,1.07,2.42,2.42-1.07,2.42-2.42,2.42-2.42-.94-2.42-2.42Z"/>
    <path class="st20" d="M575.93,147.51c0-1.34,1.07-2.42,2.42-2.42s2.42,1.07,2.42,2.42-1.07,2.42-2.42,2.42-2.42-.94-2.42-2.42Z"/>
    <path class="st20" d="M231.95,120.66c0-1.34,1.07-2.42,2.42-2.42s2.42,1.07,2.42,2.42-1.07,2.42-2.42,2.42-2.42-.94-2.42-2.42Z"/>
    <path class="st20" d="M258.4,120.66c0-1.34,1.07-2.42,2.42-2.42s2.42,1.07,2.42,2.42-1.07,2.42-2.42,2.42-2.42-.94-2.42-2.42Z"/>
    <path class="st20" d="M284.85,120.66c0-1.34,1.07-2.42,2.42-2.42s2.42,1.07,2.42,2.42-1.07,2.42-2.42,2.42-2.42-.94-2.42-2.42Z"/>
    <path class="st20" d="M311.3,120.66c0-1.34,1.07-2.42,2.42-2.42s2.42,1.07,2.42,2.42-1.07,2.42-2.42,2.42-2.42-.94-2.42-2.42Z"/>
    <path class="st20" d="M337.75,120.66c0-1.34,1.07-2.42,2.42-2.42s2.42,1.07,2.42,2.42-1.07,2.42-2.42,2.42c-1.21.13-2.42-.94-2.42-2.42Z"/>
    <path class="st20" d="M364.2,120.66c0-1.34,1.07-2.42,2.42-2.42s2.42,1.07,2.42,2.42-1.07,2.42-2.42,2.42-2.42-.94-2.42-2.42Z"/>
    <path class="st20" d="M390.78,120.66c0-1.34,1.07-2.42,2.42-2.42s2.42,1.07,2.42,2.42-1.07,2.42-2.42,2.42-2.42-.94-2.42-2.42Z"/>
    <path class="st20" d="M417.23,120.66c0-1.34,1.07-2.42,2.42-2.42s2.42,1.07,2.42,2.42-1.07,2.42-2.42,2.42-2.42-.94-2.42-2.42Z"/>
    <path class="st20" d="M443.68,120.66c0-1.34,1.07-2.42,2.42-2.42s2.42,1.07,2.42,2.42-1.07,2.42-2.42,2.42-2.42-.94-2.42-2.42Z"/>
    <path class="st20" d="M470.13,120.66c0-1.34,1.07-2.42,2.42-2.42s2.42,1.07,2.42,2.42-1.07,2.42-2.42,2.42-2.42-.94-2.42-2.42Z"/>
    <path class="st20" d="M496.58,120.66c0-1.34,1.07-2.42,2.42-2.42s2.42,1.07,2.42,2.42-1.07,2.42-2.42,2.42-2.42-.94-2.42-2.42Z"/>
    <path class="st20" d="M523.03,120.66c0-1.34,1.07-2.42,2.42-2.42s2.42,1.07,2.42,2.42-1.07,2.42-2.42,2.42-2.42-.94-2.42-2.42Z"/>
    <path class="st20" d="M549.48,120.66c0-1.34,1.07-2.42,2.42-2.42s2.42,1.07,2.42,2.42-1.07,2.42-2.42,2.42-2.42-.94-2.42-2.42Z"/>
    <path class="st20" d="M575.93,120.66c0-1.34,1.07-2.42,2.42-2.42s2.42,1.07,2.42,2.42-1.07,2.42-2.42,2.42-2.42-.94-2.42-2.42Z"/>
    <path class="st20" d="M231.95,93.8c0-1.34,1.07-2.42,2.42-2.42s2.42,1.07,2.42,2.42-1.07,2.42-2.42,2.42-2.42-.94-2.42-2.42Z"/>
    <path class="st20" d="M258.4,93.8c0-1.34,1.07-2.42,2.42-2.42s2.42,1.07,2.42,2.42-1.07,2.42-2.42,2.42-2.42-.94-2.42-2.42Z"/>
    <path class="st20" d="M284.85,93.8c0-1.34,1.07-2.42,2.42-2.42s2.42,1.07,2.42,2.42-1.07,2.42-2.42,2.42-2.42-.94-2.42-2.42Z"/>
    <path class="st20" d="M311.3,93.8c0-1.34,1.07-2.42,2.42-2.42s2.42,1.07,2.42,2.42-1.07,2.42-2.42,2.42-2.42-.94-2.42-2.42Z"/>
    <path class="st20" d="M337.75,93.8c0-1.34,1.07-2.42,2.42-2.42s2.42,1.07,2.42,2.42-1.07,2.42-2.42,2.42c-1.21.13-2.42-.94-2.42-2.42Z"/>
    <path class="st20" d="M364.2,93.8c0-1.34,1.07-2.42,2.42-2.42s2.42,1.07,2.42,2.42-1.07,2.42-2.42,2.42-2.42-.94-2.42-2.42Z"/>
    <path class="st20" d="M390.78,93.8c0-1.34,1.07-2.42,2.42-2.42s2.42,1.07,2.42,2.42-1.07,2.42-2.42,2.42-2.42-.94-2.42-2.42Z"/>
    <path class="st20" d="M417.23,93.8c0-1.34,1.07-2.42,2.42-2.42s2.42,1.07,2.42,2.42-1.07,2.42-2.42,2.42-2.42-.94-2.42-2.42Z"/>
    <path class="st20" d="M443.68,93.8c0-1.34,1.07-2.42,2.42-2.42s2.42,1.07,2.42,2.42-1.07,2.42-2.42,2.42-2.42-.94-2.42-2.42Z"/>
    <path class="st20" d="M470.13,93.8c0-1.34,1.07-2.42,2.42-2.42s2.42,1.07,2.42,2.42-1.07,2.42-2.42,2.42-2.42-.94-2.42-2.42Z"/>
    <path class="st20" d="M496.58,93.8c0-1.34,1.07-2.42,2.42-2.42s2.42,1.07,2.42,2.42-1.07,2.42-2.42,2.42-2.42-.94-2.42-2.42Z"/>
    <path class="st20" d="M523.03,93.8c0-1.34,1.07-2.42,2.42-2.42s2.42,1.07,2.42,2.42-1.07,2.42-2.42,2.42-2.42-.94-2.42-2.42Z"/>
    <path class="st20" d="M549.48,93.8c0-1.34,1.07-2.42,2.42-2.42s2.42,1.07,2.42,2.42-1.07,2.42-2.42,2.42-2.42-.94-2.42-2.42Z"/>
    <path class="st20" d="M575.93,93.8c0-1.34,1.07-2.42,2.42-2.42s2.42,1.07,2.42,2.42-1.07,2.42-2.42,2.42-2.42-.94-2.42-2.42Z"/>
    <path class="st20" d="M231.95,66.95c0-1.34,1.07-2.42,2.42-2.42s2.42,1.07,2.42,2.42-1.07,2.42-2.42,2.42-2.42-.94-2.42-2.42Z"/>
    <path class="st20" d="M258.4,66.95c0-1.34,1.07-2.42,2.42-2.42s2.42,1.07,2.42,2.42-1.07,2.42-2.42,2.42-2.42-.94-2.42-2.42Z"/>
    <path class="st20" d="M284.85,66.95c0-1.34,1.07-2.42,2.42-2.42s2.42,1.07,2.42,2.42-1.07,2.42-2.42,2.42-2.42-.94-2.42-2.42Z"/>
    <path class="st20" d="M311.3,66.95c0-1.34,1.07-2.42,2.42-2.42s2.42,1.07,2.42,2.42-1.07,2.42-2.42,2.42-2.42-.94-2.42-2.42Z"/>
    <path class="st20" d="M337.75,66.95c0-1.34,1.07-2.42,2.42-2.42s2.42,1.07,2.42,2.42-1.07,2.42-2.42,2.42c-1.21.13-2.42-.94-2.42-2.42Z"/>
    <path class="st20" d="M364.2,66.95c0-1.34,1.07-2.42,2.42-2.42s2.42,1.07,2.42,2.42-1.07,2.42-2.42,2.42-2.42-.94-2.42-2.42Z"/>
    <path class="st20" d="M390.78,66.95c0-1.34,1.07-2.42,2.42-2.42s2.42,1.07,2.42,2.42-1.07,2.42-2.42,2.42-2.42-.94-2.42-2.42Z"/>
    <path class="st20" d="M417.23,66.95c0-1.34,1.07-2.42,2.42-2.42s2.42,1.07,2.42,2.42-1.07,2.42-2.42,2.42-2.42-.94-2.42-2.42Z"/>
    <path class="st20" d="M443.68,66.95c0-1.34,1.07-2.42,2.42-2.42s2.42,1.07,2.42,2.42-1.07,2.42-2.42,2.42-2.42-.94-2.42-2.42Z"/>
    <path class="st20" d="M470.13,66.95c0-1.34,1.07-2.42,2.42-2.42s2.42,1.07,2.42,2.42-1.07,2.42-2.42,2.42-2.42-.94-2.42-2.42Z"/>
    <path class="st20" d="M496.58,66.95c0-1.34,1.07-2.42,2.42-2.42s2.42,1.07,2.42,2.42-1.07,2.42-2.42,2.42-2.42-.94-2.42-2.42Z"/>
    <path class="st20" d="M523.03,66.95c0-1.34,1.07-2.42,2.42-2.42s2.42,1.07,2.42,2.42-1.07,2.42-2.42,2.42-2.42-.94-2.42-2.42Z"/>
    <path class="st20" d="M549.48,66.95c0-1.34,1.07-2.42,2.42-2.42s2.42,1.07,2.42,2.42-1.07,2.42-2.42,2.42-2.42-.94-2.42-2.42Z"/>
    <path class="st20" d="M575.93,66.95c0-1.34,1.07-2.42,2.42-2.42s2.42,1.07,2.42,2.42-1.07,2.42-2.42,2.42-2.42-.94-2.42-2.42Z"/>
    <path class="st20" d="M231.95,40.1c0-1.34,1.07-2.42,2.42-2.42s2.42,1.07,2.42,2.42-1.07,2.42-2.42,2.42-2.42-.94-2.42-2.42Z"/>
    <path class="st20" d="M258.4,40.1c0-1.34,1.07-2.42,2.42-2.42s2.42,1.07,2.42,2.42-1.07,2.42-2.42,2.42-2.42-.94-2.42-2.42Z"/>
    <path class="st20" d="M284.85,40.1c0-1.34,1.07-2.42,2.42-2.42s2.42,1.07,2.42,2.42-1.07,2.42-2.42,2.42-2.42-.94-2.42-2.42Z"/>
    <path class="st20" d="M311.3,40.1c0-1.34,1.07-2.42,2.42-2.42s2.42,1.07,2.42,2.42-1.07,2.42-2.42,2.42-2.42-.94-2.42-2.42Z"/>
    <path class="st20" d="M337.75,40.1c0-1.34,1.07-2.42,2.42-2.42s2.42,1.07,2.42,2.42-1.07,2.42-2.42,2.42c-1.21.13-2.42-.94-2.42-2.42Z"/>
    <path class="st20" d="M364.2,40.1c0-1.34,1.07-2.42,2.42-2.42s2.42,1.07,2.42,2.42-1.07,2.42-2.42,2.42-2.42-.94-2.42-2.42Z"/>
    <path class="st20" d="M390.78,40.1c0-1.34,1.07-2.42,2.42-2.42s2.42,1.07,2.42,2.42-1.07,2.42-2.42,2.42-2.42-.94-2.42-2.42Z"/>
    <path class="st20" d="M417.23,40.1c0-1.34,1.07-2.42,2.42-2.42s2.42,1.07,2.42,2.42-1.07,2.42-2.42,2.42-2.42-.94-2.42-2.42Z"/>
    <path class="st20" d="M443.68,40.1c0-1.34,1.07-2.42,2.42-2.42s2.42,1.07,2.42,2.42-1.07,2.42-2.42,2.42-2.42-.94-2.42-2.42Z"/>
    <path class="st20" d="M470.13,40.1c0-1.34,1.07-2.42,2.42-2.42s2.42,1.07,2.42,2.42-1.07,2.42-2.42,2.42-2.42-.94-2.42-2.42Z"/>
    <path class="st20" d="M496.58,40.1c0-1.34,1.07-2.42,2.42-2.42s2.42,1.07,2.42,2.42-1.07,2.42-2.42,2.42-2.42-.94-2.42-2.42Z"/>
    <path class="st20" d="M523.03,40.1c0-1.34,1.07-2.42,2.42-2.42s2.42,1.07,2.42,2.42-1.07,2.42-2.42,2.42-2.42-.94-2.42-2.42Z"/>
    <path class="st20" d="M549.48,40.1c0-1.34,1.07-2.42,2.42-2.42s2.42,1.07,2.42,2.42-1.07,2.42-2.42,2.42-2.42-.94-2.42-2.42Z"/>
    <path class="st20" d="M575.93,40.1c0-1.34,1.07-2.42,2.42-2.42s2.42,1.07,2.42,2.42-1.07,2.42-2.42,2.42-2.42-.94-2.42-2.42Z"/>
  </g>
  <path class="st46" d="M31.63,423.69v-97.48h762.89v97.48H31.63Z"/>
  <g>
    <path class="st20" d="M231.95,456.32c0-1.34,1.07-2.42,2.42-2.42s2.42,1.07,2.42,2.42-1.07,2.42-2.42,2.42-2.42-.94-2.42-2.42Z"/>
    <path class="st20" d="M258.4,456.32c0-1.34,1.07-2.42,2.42-2.42s2.42,1.07,2.42,2.42-1.07,2.42-2.42,2.42-2.42-.94-2.42-2.42Z"/>
    <path class="st20" d="M284.85,456.32c0-1.34,1.07-2.42,2.42-2.42s2.42,1.07,2.42,2.42-1.07,2.42-2.42,2.42-2.42-.94-2.42-2.42Z"/>
    <path class="st20" d="M311.3,456.32c0-1.34,1.07-2.42,2.42-2.42s2.42,1.07,2.42,2.42-1.07,2.42-2.42,2.42-2.42-.94-2.42-2.42Z"/>
    <path class="st20" d="M337.75,456.32c0-1.34,1.07-2.42,2.42-2.42s2.42,1.07,2.42,2.42-1.07,2.42-2.42,2.42c-1.21.13-2.42-.94-2.42-2.42Z"/>
    <path class="st20" d="M364.2,456.32c0-1.34,1.07-2.42,2.42-2.42s2.42,1.07,2.42,2.42-1.07,2.42-2.42,2.42-2.42-.94-2.42-2.42Z"/>
    <path class="st20" d="M390.78,456.32c0-1.34,1.07-2.42,2.42-2.42s2.42,1.07,2.42,2.42-1.07,2.42-2.42,2.42-2.42-.94-2.42-2.42Z"/>
    <path class="st20" d="M417.23,456.32c0-1.34,1.07-2.42,2.42-2.42s2.42,1.07,2.42,2.42-1.07,2.42-2.42,2.42-2.42-.94-2.42-2.42Z"/>
    <path class="st20" d="M443.68,456.32c0-1.34,1.07-2.42,2.42-2.42s2.42,1.07,2.42,2.42-1.07,2.42-2.42,2.42-2.42-.94-2.42-2.42Z"/>
    <path class="st20" d="M470.13,456.32c0-1.34,1.07-2.42,2.42-2.42s2.42,1.07,2.42,2.42-1.07,2.42-2.42,2.42-2.42-.94-2.42-2.42Z"/>
    <path class="st20" d="M496.58,456.32c0-1.34,1.07-2.42,2.42-2.42s2.42,1.07,2.42,2.42-1.07,2.42-2.42,2.42-2.42-.94-2.42-2.42Z"/>
    <path class="st20" d="M523.03,456.32c0-1.34,1.07-2.42,2.42-2.42s2.42,1.07,2.42,2.42-1.07,2.42-2.42,2.42-2.42-.94-2.42-2.42Z"/>
    <path class="st20" d="M549.48,456.32c0-1.34,1.07-2.42,2.42-2.42s2.42,1.07,2.42,2.42-1.07,2.42-2.42,2.42-2.42-.94-2.42-2.42Z"/>
    <path class="st20" d="M575.93,456.32c0-1.34,1.07-2.42,2.42-2.42s2.42,1.07,2.42,2.42-1.07,2.42-2.42,2.42-2.42-.94-2.42-2.42Z"/>
    <path class="st20" d="M231.95,429.46c0-1.34,1.07-2.42,2.42-2.42s2.42,1.07,2.42,2.42-1.07,2.42-2.42,2.42-2.42-.94-2.42-2.42Z"/>
    <path class="st20" d="M258.4,429.46c0-1.34,1.07-2.42,2.42-2.42s2.42,1.07,2.42,2.42-1.07,2.42-2.42,2.42-2.42-.94-2.42-2.42Z"/>
    <path class="st20" d="M284.85,429.46c0-1.34,1.07-2.42,2.42-2.42s2.42,1.07,2.42,2.42-1.07,2.42-2.42,2.42-2.42-.94-2.42-2.42Z"/>
    <path class="st20" d="M311.3,429.46c0-1.34,1.07-2.42,2.42-2.42s2.42,1.07,2.42,2.42-1.07,2.42-2.42,2.42-2.42-.94-2.42-2.42Z"/>
    <path class="st20" d="M337.75,429.46c0-1.34,1.07-2.42,2.42-2.42s2.42,1.07,2.42,2.42-1.07,2.42-2.42,2.42c-1.21.13-2.42-.94-2.42-2.42Z"/>
    <path class="st20" d="M364.2,429.46c0-1.34,1.07-2.42,2.42-2.42s2.42,1.07,2.42,2.42-1.07,2.42-2.42,2.42-2.42-.94-2.42-2.42Z"/>
    <path class="st20" d="M390.78,429.46c0-1.34,1.07-2.42,2.42-2.42s2.42,1.07,2.42,2.42-1.07,2.42-2.42,2.42-2.42-.94-2.42-2.42Z"/>
    <path class="st20" d="M417.23,429.46c0-1.34,1.07-2.42,2.42-2.42s2.42,1.07,2.42,2.42-1.07,2.42-2.42,2.42-2.42-.94-2.42-2.42Z"/>
    <path class="st20" d="M443.68,429.46c0-1.34,1.07-2.42,2.42-2.42s2.42,1.07,2.42,2.42-1.07,2.42-2.42,2.42-2.42-.94-2.42-2.42Z"/>
    <path class="st20" d="M470.13,429.46c0-1.34,1.07-2.42,2.42-2.42s2.42,1.07,2.42,2.42-1.07,2.42-2.42,2.42-2.42-.94-2.42-2.42Z"/>
    <path class="st20" d="M496.58,429.46c0-1.34,1.07-2.42,2.42-2.42s2.42,1.07,2.42,2.42-1.07,2.42-2.42,2.42-2.42-.94-2.42-2.42Z"/>
    <path class="st20" d="M523.03,429.46c0-1.34,1.07-2.42,2.42-2.42s2.42,1.07,2.42,2.42-1.07,2.42-2.42,2.42-2.42-.94-2.42-2.42Z"/>
    <path class="st20" d="M549.48,429.46c0-1.34,1.07-2.42,2.42-2.42s2.42,1.07,2.42,2.42-1.07,2.42-2.42,2.42-2.42-.94-2.42-2.42Z"/>
    <path class="st20" d="M575.93,429.46c0-1.34,1.07-2.42,2.42-2.42s2.42,1.07,2.42,2.42-1.07,2.42-2.42,2.42-2.42-.94-2.42-2.42Z"/>
    <path class="st20" d="M231.95,402.61c0-1.34,1.07-2.42,2.42-2.42s2.42,1.07,2.42,2.42-1.07,2.42-2.42,2.42-2.42-.94-2.42-2.42Z"/>
    <path class="st20" d="M258.4,402.61c0-1.34,1.07-2.42,2.42-2.42s2.42,1.07,2.42,2.42-1.07,2.42-2.42,2.42-2.42-.94-2.42-2.42Z"/>
    <path class="st20" d="M284.85,402.61c0-1.34,1.07-2.42,2.42-2.42s2.42,1.07,2.42,2.42-1.07,2.42-2.42,2.42-2.42-.94-2.42-2.42Z"/>
    <path class="st20" d="M311.3,402.61c0-1.34,1.07-2.42,2.42-2.42s2.42,1.07,2.42,2.42-1.07,2.42-2.42,2.42-2.42-.94-2.42-2.42Z"/>
    <path class="st20" d="M337.75,402.61c0-1.34,1.07-2.42,2.42-2.42s2.42,1.07,2.42,2.42-1.07,2.42-2.42,2.42c-1.21.13-2.42-.94-2.42-2.42Z"/>
    <path class="st20" d="M364.2,402.61c0-1.34,1.07-2.42,2.42-2.42s2.42,1.07,2.42,2.42-1.07,2.42-2.42,2.42-2.42-.94-2.42-2.42Z"/>
    <path class="st20" d="M390.78,402.61c0-1.34,1.07-2.42,2.42-2.42s2.42,1.07,2.42,2.42-1.07,2.42-2.42,2.42-2.42-.94-2.42-2.42Z"/>
    <path class="st20" d="M417.23,402.61c0-1.34,1.07-2.42,2.42-2.42s2.42,1.07,2.42,2.42-1.07,2.42-2.42,2.42-2.42-.94-2.42-2.42Z"/>
    <path class="st20" d="M443.68,402.61c0-1.34,1.07-2.42,2.42-2.42s2.42,1.07,2.42,2.42-1.07,2.42-2.42,2.42-2.42-.94-2.42-2.42Z"/>
    <path class="st20" d="M470.13,402.61c0-1.34,1.07-2.42,2.42-2.42s2.42,1.07,2.42,2.42-1.07,2.42-2.42,2.42-2.42-.94-2.42-2.42Z"/>
    <path class="st20" d="M496.58,402.61c0-1.34,1.07-2.42,2.42-2.42s2.42,1.07,2.42,2.42-1.07,2.42-2.42,2.42-2.42-.94-2.42-2.42Z"/>
    <path class="st20" d="M523.03,402.61c0-1.34,1.07-2.42,2.42-2.42s2.42,1.07,2.42,2.42-1.07,2.42-2.42,2.42-2.42-.94-2.42-2.42Z"/>
    <path class="st20" d="M549.48,402.61c0-1.34,1.07-2.42,2.42-2.42s2.42,1.07,2.42,2.42-1.07,2.42-2.42,2.42-2.42-.94-2.42-2.42Z"/>
    <path class="st20" d="M575.93,402.61c0-1.34,1.07-2.42,2.42-2.42s2.42,1.07,2.42,2.42-1.07,2.42-2.42,2.42-2.42-.94-2.42-2.42Z"/>
    <path class="st20" d="M231.95,375.76c0-1.34,1.07-2.42,2.42-2.42s2.42,1.07,2.42,2.42-1.07,2.42-2.42,2.42-2.42-.94-2.42-2.42Z"/>
    <path class="st20" d="M258.4,375.76c0-1.34,1.07-2.42,2.42-2.42s2.42,1.07,2.42,2.42-1.07,2.42-2.42,2.42-2.42-.94-2.42-2.42Z"/>
    <path class="st20" d="M284.85,375.76c0-1.34,1.07-2.42,2.42-2.42s2.42,1.07,2.42,2.42-1.07,2.42-2.42,2.42-2.42-.94-2.42-2.42Z"/>
    <path class="st20" d="M311.3,375.76c0-1.34,1.07-2.42,2.42-2.42s2.42,1.07,2.42,2.42-1.07,2.42-2.42,2.42-2.42-.94-2.42-2.42Z"/>
    <path class="st20" d="M337.75,375.76c0-1.34,1.07-2.42,2.42-2.42s2.42,1.07,2.42,2.42-1.07,2.42-2.42,2.42c-1.21.13-2.42-.94-2.42-2.42Z"/>
    <path class="st20" d="M364.2,375.76c0-1.34,1.07-2.42,2.42-2.42s2.42,1.07,2.42,2.42-1.07,2.42-2.42,2.42-2.42-.94-2.42-2.42Z"/>
    <path class="st20" d="M390.78,375.76c0-1.34,1.07-2.42,2.42-2.42s2.42,1.07,2.42,2.42-1.07,2.42-2.42,2.42-2.42-.94-2.42-2.42Z"/>
    <path class="st20" d="M417.23,375.76c0-1.34,1.07-2.42,2.42-2.42s2.42,1.07,2.42,2.42-1.07,2.42-2.42,2.42-2.42-.94-2.42-2.42Z"/>
    <path class="st20" d="M443.68,375.76c0-1.34,1.07-2.42,2.42-2.42s2.42,1.07,2.42,2.42-1.07,2.42-2.42,2.42-2.42-.94-2.42-2.42Z"/>
    <path class="st20" d="M470.13,375.76c0-1.34,1.07-2.42,2.42-2.42s2.42,1.07,2.42,2.42-1.07,2.42-2.42,2.42-2.42-.94-2.42-2.42Z"/>
    <path class="st20" d="M496.58,375.76c0-1.34,1.07-2.42,2.42-2.42s2.42,1.07,2.42,2.42-1.07,2.42-2.42,2.42-2.42-.94-2.42-2.42Z"/>
    <path class="st20" d="M523.03,375.76c0-1.34,1.07-2.42,2.42-2.42s2.42,1.07,2.42,2.42-1.07,2.42-2.42,2.42-2.42-.94-2.42-2.42Z"/>
    <path class="st20" d="M549.48,375.76c0-1.34,1.07-2.42,2.42-2.42s2.42,1.07,2.42,2.42-1.07,2.42-2.42,2.42-2.42-.94-2.42-2.42Z"/>
    <path class="st20" d="M575.93,375.76c0-1.34,1.07-2.42,2.42-2.42s2.42,1.07,2.42,2.42-1.07,2.42-2.42,2.42-2.42-.94-2.42-2.42Z"/>
    <path class="st20" d="M231.95,348.91c0-1.34,1.07-2.42,2.42-2.42s2.42,1.07,2.42,2.42-1.07,2.42-2.42,2.42-2.42-.94-2.42-2.42Z"/>
    <path class="st20" d="M258.4,348.91c0-1.34,1.07-2.42,2.42-2.42s2.42,1.07,2.42,2.42-1.07,2.42-2.42,2.42-2.42-.94-2.42-2.42Z"/>
    <path class="st20" d="M284.85,348.91c0-1.34,1.07-2.42,2.42-2.42s2.42,1.07,2.42,2.42-1.07,2.42-2.42,2.42-2.42-.94-2.42-2.42Z"/>
    <path class="st20" d="M311.3,348.91c0-1.34,1.07-2.42,2.42-2.42s2.42,1.07,2.42,2.42-1.07,2.42-2.42,2.42-2.42-.94-2.42-2.42Z"/>
    <path class="st20" d="M337.75,348.91c0-1.34,1.07-2.42,2.42-2.42s2.42,1.07,2.42,2.42-1.07,2.42-2.42,2.42c-1.21.13-2.42-.94-2.42-2.42Z"/>
    <path class="st20" d="M364.2,348.91c0-1.34,1.07-2.42,2.42-2.42s2.42,1.07,2.42,2.42-1.07,2.42-2.42,2.42-2.42-.94-2.42-2.42Z"/>
    <path class="st20" d="M390.78,348.91c0-1.34,1.07-2.42,2.42-2.42s2.42,1.07,2.42,2.42-1.07,2.42-2.42,2.42-2.42-.94-2.42-2.42Z"/>
    <path class="st20" d="M417.23,348.91c0-1.34,1.07-2.42,2.42-2.42s2.42,1.07,2.42,2.42-1.07,2.42-2.42,2.42-2.42-.94-2.42-2.42Z"/>
    <path class="st20" d="M443.68,348.91c0-1.34,1.07-2.42,2.42-2.42s2.42,1.07,2.42,2.42-1.07,2.42-2.42,2.42-2.42-.94-2.42-2.42Z"/>
    <path class="st20" d="M470.13,348.91c0-1.34,1.07-2.42,2.42-2.42s2.42,1.07,2.42,2.42-1.07,2.42-2.42,2.42-2.42-.94-2.42-2.42Z"/>
    <path class="st20" d="M496.58,348.91c0-1.34,1.07-2.42,2.42-2.42s2.42,1.07,2.42,2.42-1.07,2.42-2.42,2.42-2.42-.94-2.42-2.42Z"/>
    <path class="st20" d="M523.03,348.91c0-1.34,1.07-2.42,2.42-2.42s2.42,1.07,2.42,2.42-1.07,2.42-2.42,2.42-2.42-.94-2.42-2.42Z"/>
    <path class="st20" d="M549.48,348.91c0-1.34,1.07-2.42,2.42-2.42s2.42,1.07,2.42,2.42-1.07,2.42-2.42,2.42-2.42-.94-2.42-2.42Z"/>
    <path class="st20" d="M575.93,348.91c0-1.34,1.07-2.42,2.42-2.42s2.42,1.07,2.42,2.42-1.07,2.42-2.42,2.42-2.42-.94-2.42-2.42Z"/>
    <path class="st20" d="M231.95,322.05c0-1.34,1.07-2.42,2.42-2.42s2.42,1.07,2.42,2.42-1.07,2.42-2.42,2.42-2.42-.94-2.42-2.42Z"/>
    <path class="st20" d="M258.4,322.05c0-1.34,1.07-2.42,2.42-2.42s2.42,1.07,2.42,2.42-1.07,2.42-2.42,2.42-2.42-.94-2.42-2.42Z"/>
    <path class="st20" d="M284.85,322.05c0-1.34,1.07-2.42,2.42-2.42s2.42,1.07,2.42,2.42-1.07,2.42-2.42,2.42-2.42-.94-2.42-2.42Z"/>
    <path class="st20" d="M311.3,322.05c0-1.34,1.07-2.42,2.42-2.42s2.42,1.07,2.42,2.42-1.07,2.42-2.42,2.42-2.42-.94-2.42-2.42Z"/>
    <path class="st20" d="M337.75,322.05c0-1.34,1.07-2.42,2.42-2.42s2.42,1.07,2.42,2.42-1.07,2.42-2.42,2.42c-1.21.13-2.42-.94-2.42-2.42Z"/>
    <path class="st20" d="M364.2,322.05c0-1.34,1.07-2.42,2.42-2.42s2.42,1.07,2.42,2.42-1.07,2.42-2.42,2.42-2.42-.94-2.42-2.42Z"/>
    <path class="st20" d="M390.78,322.05c0-1.34,1.07-2.42,2.42-2.42s2.42,1.07,2.42,2.42-1.07,2.42-2.42,2.42-2.42-.94-2.42-2.42Z"/>
    <path class="st20" d="M417.23,322.05c0-1.34,1.07-2.42,2.42-2.42s2.42,1.07,2.42,2.42-1.07,2.42-2.42,2.42-2.42-.94-2.42-2.42Z"/>
    <path class="st20" d="M443.68,322.05c0-1.34,1.07-2.42,2.42-2.42s2.42,1.07,2.42,2.42-1.07,2.42-2.42,2.42-2.42-.94-2.42-2.42Z"/>
    <path class="st20" d="M470.13,322.05c0-1.34,1.07-2.42,2.42-2.42s2.42,1.07,2.42,2.42-1.07,2.42-2.42,2.42-2.42-.94-2.42-2.42Z"/>
    <path class="st20" d="M496.58,322.05c0-1.34,1.07-2.42,2.42-2.42s2.42,1.07,2.42,2.42-1.07,2.42-2.42,2.42-2.42-.94-2.42-2.42Z"/>
    <path class="st20" d="M523.03,322.05c0-1.34,1.07-2.42,2.42-2.42s2.42,1.07,2.42,2.42-1.07,2.42-2.42,2.42-2.42-.94-2.42-2.42Z"/>
    <path class="st20" d="M549.48,322.05c0-1.34,1.07-2.42,2.42-2.42s2.42,1.07,2.42,2.42-1.07,2.42-2.42,2.42-2.42-.94-2.42-2.42Z"/>
    <path class="st20" d="M575.93,322.05c0-1.34,1.07-2.42,2.42-2.42s2.42,1.07,2.42,2.42-1.07,2.42-2.42,2.42-2.42-.94-2.42-2.42Z"/>
    <path class="st20" d="M231.95,295.2c0-1.34,1.07-2.42,2.42-2.42s2.42,1.07,2.42,2.42-1.07,2.42-2.42,2.42-2.42-.94-2.42-2.42Z"/>
    <path class="st20" d="M258.4,295.2c0-1.34,1.07-2.42,2.42-2.42s2.42,1.07,2.42,2.42-1.07,2.42-2.42,2.42-2.42-.94-2.42-2.42Z"/>
    <path class="st20" d="M284.85,295.2c0-1.34,1.07-2.42,2.42-2.42s2.42,1.07,2.42,2.42-1.07,2.42-2.42,2.42-2.42-.94-2.42-2.42Z"/>
    <path class="st20" d="M311.3,295.2c0-1.34,1.07-2.42,2.42-2.42s2.42,1.07,2.42,2.42-1.07,2.42-2.42,2.42-2.42-.94-2.42-2.42Z"/>
    <path class="st20" d="M337.75,295.2c0-1.34,1.07-2.42,2.42-2.42s2.42,1.07,2.42,2.42-1.07,2.42-2.42,2.42c-1.21.13-2.42-.94-2.42-2.42Z"/>
    <path class="st20" d="M364.2,295.2c0-1.34,1.07-2.42,2.42-2.42s2.42,1.07,2.42,2.42-1.07,2.42-2.42,2.42-2.42-.94-2.42-2.42Z"/>
    <path class="st20" d="M390.78,295.2c0-1.34,1.07-2.42,2.42-2.42s2.42,1.07,2.42,2.42-1.07,2.42-2.42,2.42-2.42-.94-2.42-2.42Z"/>
    <path class="st20" d="M417.23,295.2c0-1.34,1.07-2.42,2.42-2.42s2.42,1.07,2.42,2.42-1.07,2.42-2.42,2.42-2.42-.94-2.42-2.42Z"/>
    <path class="st20" d="M443.68,295.2c0-1.34,1.07-2.42,2.42-2.42s2.42,1.07,2.42,2.42-1.07,2.42-2.42,2.42-2.42-.94-2.42-2.42Z"/>
    <path class="st20" d="M470.13,295.2c0-1.34,1.07-2.42,2.42-2.42s2.42,1.07,2.42,2.42-1.07,2.42-2.42,2.42-2.42-.94-2.42-2.42Z"/>
    <path class="st20" d="M496.58,295.2c0-1.34,1.07-2.42,2.42-2.42s2.42,1.07,2.42,2.42-1.07,2.42-2.42,2.42-2.42-.94-2.42-2.42Z"/>
    <path class="st20" d="M523.03,295.2c0-1.34,1.07-2.42,2.42-2.42s2.42,1.07,2.42,2.42-1.07,2.42-2.42,2.42-2.42-.94-2.42-2.42Z"/>
    <path class="st20" d="M549.48,295.2c0-1.34,1.07-2.42,2.42-2.42s2.42,1.07,2.42,2.42-1.07,2.42-2.42,2.42-2.42-.94-2.42-2.42Z"/>
    <path class="st20" d="M575.93,295.2c0-1.34,1.07-2.42,2.42-2.42s2.42,1.07,2.42,2.42-1.07,2.42-2.42,2.42-2.42-.94-2.42-2.42Z"/>
    <path class="st20" d="M231.95,268.35c0-1.34,1.07-2.42,2.42-2.42s2.42,1.07,2.42,2.42-1.07,2.42-2.42,2.42-2.42-.94-2.42-2.42Z"/>
    <path class="st20" d="M258.4,268.35c0-1.34,1.07-2.42,2.42-2.42s2.42,1.07,2.42,2.42-1.07,2.42-2.42,2.42-2.42-.94-2.42-2.42Z"/>
    <path class="st20" d="M284.85,268.35c0-1.34,1.07-2.42,2.42-2.42s2.42,1.07,2.42,2.42-1.07,2.42-2.42,2.42-2.42-.94-2.42-2.42Z"/>
    <path class="st20" d="M311.3,268.35c0-1.34,1.07-2.42,2.42-2.42s2.42,1.07,2.42,2.42-1.07,2.42-2.42,2.42-2.42-.94-2.42-2.42Z"/>
    <path class="st20" d="M337.75,268.35c0-1.34,1.07-2.42,2.42-2.42s2.42,1.07,2.42,2.42-1.07,2.42-2.42,2.42c-1.21.13-2.42-.94-2.42-2.42Z"/>
    <path class="st20" d="M364.2,268.35c0-1.34,1.07-2.42,2.42-2.42s2.42,1.07,2.42,2.42-1.07,2.42-2.42,2.42-2.42-.94-2.42-2.42Z"/>
    <path class="st20" d="M390.78,268.35c0-1.34,1.07-2.42,2.42-2.42s2.42,1.07,2.42,2.42-1.07,2.42-2.42,2.42-2.42-.94-2.42-2.42Z"/>
    <path class="st20" d="M417.23,268.35c0-1.34,1.07-2.42,2.42-2.42s2.42,1.07,2.42,2.42-1.07,2.42-2.42,2.42-2.42-.94-2.42-2.42Z"/>
    <path class="st20" d="M443.68,268.35c0-1.34,1.07-2.42,2.42-2.42s2.42,1.07,2.42,2.42-1.07,2.42-2.42,2.42-2.42-.94-2.42-2.42Z"/>
    <path class="st20" d="M470.13,268.35c0-1.34,1.07-2.42,2.42-2.42s2.42,1.07,2.42,2.42-1.07,2.42-2.42,2.42-2.42-.94-2.42-2.42Z"/>
    <path class="st20" d="M496.58,268.35c0-1.34,1.07-2.42,2.42-2.42s2.42,1.07,2.42,2.42-1.07,2.42-2.42,2.42-2.42-.94-2.42-2.42Z"/>
    <path class="st20" d="M523.03,268.35c0-1.34,1.07-2.42,2.42-2.42s2.42,1.07,2.42,2.42-1.07,2.42-2.42,2.42-2.42-.94-2.42-2.42Z"/>
    <path class="st20" d="M549.48,268.35c0-1.34,1.07-2.42,2.42-2.42s2.42,1.07,2.42,2.42-1.07,2.42-2.42,2.42-2.42-.94-2.42-2.42Z"/>
    <path class="st20" d="M575.93,268.35c0-1.34,1.07-2.42,2.42-2.42s2.42,1.07,2.42,2.42-1.07,2.42-2.42,2.42-2.42-.94-2.42-2.42Z"/>
  </g>
  <path class="st13" d="M206.3,481.69V10.43h397.42v471.27H206.3Z"/>
  <path class="st13" d="M448.11,10.16c0,30.34-24.7,55.05-55.05,55.05s-55.05-24.7-55.05-55.05h0"/>
  <path class="st28" d="M415.62,44.53c0-9.94,8.06-17.99,17.99-17.99s17.99,8.06,17.99,17.99-8.06,17.99-17.99,17.99-17.99-8.06-17.99-17.99Z"/>
  <path class="st4" d="M415.62,40.23c0-9.94,8.06-17.99,17.99-17.99s17.99,8.06,17.99,17.99-8.06,17.99-17.99,17.99c-9.94-.13-17.99-8.19-17.99-17.99Z"/>
  <path class="st44" d="M420.32,40.23c0-7.19,6.07-13.02,13.56-13.02s13.56,5.83,13.56,13.02-6.07,13.02-13.56,13.02-13.56-5.83-13.56-13.02Z"/>
  <path class="st21" d="M426.9,40.37c0-3.76,3.09-6.85,6.85-6.85s6.85,3.09,6.85,6.85-3.09,6.85-6.85,6.85-6.85-3.09-6.85-6.85Z"/>
  <path class="st28" d="M399.51,247.13c0-8.06,6.44-14.5,14.5-14.5s14.5,6.44,14.5,14.5-6.44,14.5-14.5,14.5-14.5-6.44-14.5-14.5Z"/>
  <path class="st27" d="M399.51,243.51c0-8.06,6.44-14.5,14.5-14.5s14.5,6.44,14.5,14.5-6.44,14.5-14.5,14.5c-8.06.13-14.5-6.44-14.5-14.5Z"/>
  <path class="st21" d="M426.9,41.04v-7.52h13.56v7.52h-13.56Z"/>
  <path class="st37" d="M426.9,33.79c0-3.76,3.09-6.85,6.85-6.85s6.85,3.09,6.85,6.85-3.09,6.85-6.85,6.85-6.85-3.09-6.85-6.85Z"/>
  <path class="st25" d="M401.93,242.97c0-6.38,5.41-11.55,12.08-11.55s12.08,5.17,12.08,11.55-5.41,11.55-12.08,11.55-12.08-5.17-12.08-11.55h0Z"/>
  <path class="st27" d="M402.46,244.18c0-6.38,5.17-11.55,11.55-11.55s11.55,5.17,11.55,11.55-5.17,11.55-11.55,11.55-11.55-5.17-11.55-11.55Z"/>
  <path class="st13" d="M338.02,245.12c0-30.34,24.7-55.05,55.05-55.05s55.05,24.7,55.05,55.05-24.7,55.05-55.05,55.05-55.05-24.7-55.05-55.05Z"/>
  <path class="st13" d="M338.02,481.43h0c0-30.34,24.7-55.05,55.05-55.05s55.05,24.7,55.05,55.05"/>
  <path class="st41" d="M805.39-3.67v501.61h-174.81V-3.67h174.81Z"/>
  <path class="st34" d="M630.71-3.67v501.61h-16.25V-3.67h16.25Z"/>
  <g>
    <path class="st26" d="M701.87,470.01c0,5.24-4.16,9.4-9.4,9.4s-9.4-4.16-9.4-9.4,4.16-9.4,9.4-9.4,9.4,4.16,9.4,9.4Z"/>
    <path class="st42" d="M675.02,463.3c0,5.24-4.16,9.4-9.4,9.4s-9.4-4.16-9.4-9.4,4.16-9.4,9.4-9.4,9.4,4.16,9.4,9.4Z"/>
    <path class="st42" d="M701.87,440.47c0,5.24-4.16,9.4-9.4,9.4s-9.4-4.16-9.4-9.4,4.16-9.4,9.4-9.4,9.4,4.16,9.4,9.4Z"/>
    <path class="st3" d="M675.02,433.76c0,5.24-4.16,9.4-9.4,9.4s-9.4-4.16-9.4-9.4,4.16-9.4,9.4-9.4,9.4,4.16,9.4,9.4Z"/>
    <path class="st3" d="M701.87,412.28c0,5.24-4.16,9.4-9.4,9.4s-9.4-4.16-9.4-9.4,4.16-9.4,9.4-9.4,9.4,4.16,9.4,9.4Z"/>
    <path class="st42" d="M675.02,405.57c0,5.24-4.16,9.4-9.4,9.4s-9.4-4.16-9.4-9.4,4.16-9.4,9.4-9.4,9.4,4.16,9.4,9.4Z"/>
    <path class="st24" d="M701.87,382.74c0,5.24-4.16,9.4-9.4,9.4s-9.4-4.16-9.4-9.4,4.16-9.4,9.4-9.4,9.4,4.16,9.4,9.4Z"/>
    <path class="st42" d="M675.02,376.03c0,5.24-4.16,9.4-9.4,9.4s-9.4-4.16-9.4-9.4,4.16-9.4,9.4-9.4,9.4,4.16,9.4,9.4Z"/>
    <path class="st24" d="M700.53,354.55c0,5.24-4.16,9.4-9.4,9.4s-9.4-4.16-9.4-9.4,4.16-9.4,9.4-9.4,9.4,4.16,9.4,9.4h0Z"/>
    <path class="st42" d="M673.68,347.83c0,5.24-4.16,9.4-9.4,9.4s-9.4-4.16-9.4-9.4,4.16-9.4,9.4-9.4,9.4,4.16,9.4,9.4Z"/>
    <path class="st24" d="M700.53,325.01c0,5.24-4.16,9.4-9.4,9.4s-9.4-4.16-9.4-9.4,4.16-9.4,9.4-9.4,9.4,4.16,9.4,9.4Z"/>
    <path class="st3" d="M673.68,318.29c0,5.24-4.16,9.4-9.4,9.4s-9.4-4.16-9.4-9.4,4.16-9.4,9.4-9.4,9.4,4.16,9.4,9.4Z"/>
    <path class="st24" d="M700.53,296.81c0,5.24-4.16,9.4-9.4,9.4s-9.4-4.16-9.4-9.4,4.16-9.4,9.4-9.4,9.4,4.16,9.4,9.4Z"/>
    <path class="st3" d="M673.68,290.1c0,5.24-4.16,9.4-9.4,9.4s-9.4-4.16-9.4-9.4,4.16-9.4,9.4-9.4,9.4,4.16,9.4,9.4Z"/>
    <path class="st42" d="M700.53,267.27c0,5.24-4.16,9.4-9.4,9.4s-9.4-4.16-9.4-9.4,4.16-9.4,9.4-9.4,9.4,4.16,9.4,9.4Z"/>
    <path class="st42" d="M673.68,260.56c0,5.24-4.16,9.4-9.4,9.4s-9.4-4.16-9.4-9.4,4.16-9.4,9.4-9.4,9.4,4.16,9.4,9.4Z"/>
    <path class="st42" d="M700.53,241.76c0,5.24-4.16,9.4-9.4,9.4s-9.4-4.16-9.4-9.4,4.16-9.4,9.4-9.4,9.4,4.16,9.4,9.4Z"/>
    <path class="st42" d="M673.68,235.05c0,5.24-4.16,9.4-9.4,9.4s-9.4-4.16-9.4-9.4,4.16-9.4,9.4-9.4,9.4,4.16,9.4,9.4Z"/>
    <path class="st42" d="M700.53,212.23c0,5.24-4.16,9.4-9.4,9.4s-9.4-4.16-9.4-9.4,4.16-9.4,9.4-9.4,9.4,4.16,9.4,9.4Z"/>
    <path class="st42" d="M673.68,205.51c0,5.24-4.16,9.4-9.4,9.4s-9.4-4.16-9.4-9.4,4.16-9.4,9.4-9.4,9.4,4.16,9.4,9.4Z"/>
    <path class="st3" d="M700.53,184.03c0,5.24-4.16,9.4-9.4,9.4s-9.4-4.16-9.4-9.4,4.16-9.4,9.4-9.4,9.4,4.16,9.4,9.4Z"/>
    <path class="st3" d="M673.68,177.32c0,5.24-4.16,9.4-9.4,9.4s-9.4-4.16-9.4-9.4,4.16-9.4,9.4-9.4,9.4,4.16,9.4,9.4Z"/>
    <path class="st42" d="M700.53,154.49c0,5.24-4.16,9.4-9.4,9.4s-9.4-4.16-9.4-9.4,4.16-9.4,9.4-9.4,9.4,4.16,9.4,9.4Z"/>
    <path class="st24" d="M673.68,147.78c0,5.24-4.16,9.4-9.4,9.4s-9.4-4.16-9.4-9.4,4.16-9.4,9.4-9.4,9.4,4.16,9.4,9.4Z"/>
    <path class="st24" d="M699.19,126.3c0,5.24-4.16,9.4-9.4,9.4s-9.4-4.16-9.4-9.4,4.16-9.4,9.4-9.4,9.4,4.16,9.4,9.4Z"/>
    <path class="st42" d="M672.34,119.58c0,5.24-4.16,9.4-9.4,9.4s-9.4-4.16-9.4-9.4,4.16-9.4,9.4-9.4,9.4,4.16,9.4,9.4Z"/>
    <path class="st42" d="M699.19,96.76c0,5.24-4.16,9.4-9.4,9.4s-9.4-4.16-9.4-9.4,4.16-9.4,9.4-9.4,9.4,4.16,9.4,9.4Z"/>
    <path class="st42" d="M672.34,90.04c0,5.24-4.16,9.4-9.4,9.4s-9.4-4.16-9.4-9.4,4.16-9.4,9.4-9.4,9.4,4.16,9.4,9.4Z"/>
    <path class="st3" d="M699.19,68.56c0,5.24-4.16,9.4-9.4,9.4s-9.4-4.16-9.4-9.4,4.16-9.4,9.4-9.4,9.4,4.16,9.4,9.4Z"/>
    <path class="st42" d="M672.34,61.85c0,5.24-4.16,9.4-9.4,9.4s-9.4-4.16-9.4-9.4,4.16-9.4,9.4-9.4,9.4,4.16,9.4,9.4Z"/>
    <path class="st24" d="M699.19,39.02c0,5.24-4.16,9.4-9.4,9.4s-9.4-4.16-9.4-9.4,4.16-9.4,9.4-9.4,9.4,4.16,9.4,9.4Z"/>
    <path class="st26" d="M672.34,32.31c0,5.24-4.16,9.4-9.4,9.4s-9.4-4.16-9.4-9.4,4.16-9.4,9.4-9.4,9.4,4.16,9.4,9.4Z"/>
  </g>
  <path class="st28" d="M641.6-3.76v501.88h-10.88V-3.76h10.88Z"/>
  <g>
    <path class="st17" d="M312.51,523.18v-46.46h161.25v46.46h-161.25Z"/>
    <path class="st16" d="M312.51,483.44v-6.71h161.25v6.71h-161.25Z"/>
  </g>
  <g>
    <path class="st17" d="M476.73-30.02V16.44h-161.25V-30.02h161.25Z"/>
    <path class="st16" d="M476.73,9.65v6.71h-161.25v-6.71h161.25Z"/>
  </g>
  <g>
    <path class="st28" d="M684.82,180.4c0-1.63.72-2.95,1.61-2.95s1.61,1.32,1.61,2.95-.72,2.95-1.61,2.95-1.61-1.32-1.61-2.95Z"/>
    <path class="st28" d="M684.82,187.92c0-1.63.72-2.95,1.61-2.95s1.61,1.32,1.61,2.95-.72,2.95-1.61,2.95-1.61-1.32-1.61-2.95Z"/>
  </g>
  <path class="st2" d="M691.13,41.71v-5.5h13.02v5.5h-13.02Z"/>
  <path class="st28" d="M656.22,28.42c0-.67.42-1.21.94-1.21s.94.54.94,1.21-.42,1.21-.94,1.21-.94-.54-.94-1.21Z"/>
  <path class="st28" d="M656.22,36.74c0-.67.42-1.21.94-1.21s.94.54.94,1.21-.42,1.21-.94,1.21-.94-.54-.94-1.21Z"/>
  <path class="st49" d="M683.08,35.13c0-.67.42-1.21.94-1.21s.94.54.94,1.21-.42,1.21-.94,1.21-.94-.54-.94-1.21Z"/>
  <path class="st49" d="M683.08,43.46c0-.67.42-1.21.94-1.21s.94.54.94,1.21-.42,1.21-.94,1.21-.94-.54-.94-1.21Z"/>
  <path class="st28" d="M683.08,64.67c0-.67.42-1.21.94-1.21s.94.54.94,1.21-.42,1.21-.94,1.21-.94-.54-.94-1.21Z"/>
  <path class="st28" d="M683.08,72.99c0-.67.42-1.21.94-1.21s.94.54.94,1.21-.42,1.21-.94,1.21-.94-.54-.94-1.21Z"/>
  <path class="st28" d="M683.08,92.86c0-.67.42-1.21.94-1.21s.94.54.94,1.21-.42,1.21-.94,1.21-.94-.54-.94-1.21Z"/>
  <path class="st28" d="M683.08,101.19c0-.67.42-1.21.94-1.21s.94.54.94,1.21-.42,1.21-.94,1.21-.94-.54-.94-1.21Z"/>
  <path class="st15" d="M683.08,122.4c0-.67.42-1.21.94-1.21s.94.54.94,1.21-.42,1.21-.94,1.21-.94-.54-.94-1.21Z"/>
  <path class="st15" d="M683.08,130.73c0-.67.42-1.21.94-1.21s.94.54.94,1.21-.42,1.21-.94,1.21-.94-.54-.94-1.21Z"/>
  <path class="st28" d="M683.08,150.6c0-.67.42-1.21.94-1.21s.94.54.94,1.21-.42,1.21-.94,1.21-.94-.54-.94-1.21Z"/>
  <path class="st28" d="M683.08,158.92c0-.67.42-1.21.94-1.21s.94.54.94,1.21-.42,1.21-.94,1.21-.94-.54-.94-1.21Z"/>
  <path class="st28" d="M656.22,57.96c0-.67.42-1.21.94-1.21s.94.54.94,1.21-.42,1.21-.94,1.21-.94-.54-.94-1.21Z"/>
  <path class="st28" d="M656.22,66.28c0-.67.42-1.21.94-1.21s.94.54.94,1.21-.42,1.21-.94,1.21-.94-.54-.94-1.21Z"/>
  <path class="st28" d="M656.22,86.15c0-.67.42-1.21.94-1.21s.94.54.94,1.21-.42,1.21-.94,1.21-.94-.54-.94-1.21Z"/>
  <path class="st28" d="M656.22,94.48c0-.67.42-1.21.94-1.21s.94.54.94,1.21-.42,1.21-.94,1.21-.94-.54-.94-1.21Z"/>
  <path class="st28" d="M656.22,115.69c0-.67.42-1.21.94-1.21s.94.54.94,1.21-.42,1.21-.94,1.21-.94-.54-.94-1.21Z"/>
  <path class="st28" d="M656.22,124.01c0-.67.42-1.21.94-1.21s.94.54.94,1.21-.42,1.21-.94,1.21-.94-.54-.94-1.21Z"/>
  <path class="st31" d="M656.22,143.88c0-.67.42-1.21.94-1.21s.94.54.94,1.21-.42,1.21-.94,1.21-.94-.54-.94-1.21Z"/>
  <path class="st31" d="M656.22,152.21c0-.67.42-1.21.94-1.21s.94.54.94,1.21-.42,1.21-.94,1.21-.94-.54-.94-1.21Z"/>
  <path class="st31" d="M656.22,201.62c0-.67.42-1.21.94-1.21s.94.54.94,1.21-.42,1.21-.94,1.21-.94-.54-.94-1.21Z"/>
  <path class="st31" d="M656.22,209.94c0-.67.42-1.21.94-1.21s.94.54.94,1.21-.42,1.21-.94,1.21-.94-.54-.94-1.21Z"/>
  <path class="st33" d="M683.08,208.33c0-.67.42-1.21.94-1.21s.94.54.94,1.21-.42,1.21-.94,1.21-.94-.54-.94-1.21Z"/>
  <path class="st33" d="M683.08,216.66c0-.67.42-1.21.94-1.21s.94.54.94,1.21-.42,1.21-.94,1.21-.94-.54-.94-1.21Z"/>
  <path class="st33" d="M683.08,237.87c0-.67.42-1.21.94-1.21s.94.54.94,1.21-.42,1.21-.94,1.21-.94-.54-.94-1.21Z"/>
  <path class="st33" d="M683.08,246.19c0-.67.42-1.21.94-1.21s.94.54.94,1.21-.42,1.21-.94,1.21-.94-.54-.94-1.21Z"/>
  <path class="st33" d="M656.22,231.16c0-.67.42-1.21.94-1.21s.94.54.94,1.21-.42,1.21-.94,1.21-.94-.54-.94-1.21Z"/>
  <path class="st33" d="M656.22,239.48c0-.67.42-1.21.94-1.21s.94.54.94,1.21-.42,1.21-.94,1.21-.94-.54-.94-1.21Z"/>
  <path class="st33" d="M656.22,256.67c0-.67.42-1.21.94-1.21s.94.54.94,1.21-.42,1.21-.94,1.21-.94-.54-.94-1.21Z"/>
  <path class="st33" d="M656.22,264.99c0-.67.42-1.21.94-1.21s.94.54.94,1.21-.42,1.21-.94,1.21-.94-.54-.94-1.21Z"/>
  <path class="st33" d="M683.08,263.38c0-.67.42-1.21.94-1.21s.94.54.94,1.21-.42,1.21-.94,1.21-.94-.54-.94-1.21Z"/>
  <path class="st33" d="M683.08,271.7c0-.67.42-1.21.94-1.21s.94.54.94,1.21-.42,1.21-.94,1.21-.94-.54-.94-1.21Z"/>
  <path class="st32" d="M683.08,292.92c0-.67.42-1.21.94-1.21s.94.54.94,1.21-.42,1.21-.94,1.21-.94-.54-.94-1.21Z"/>
  <path class="st32" d="M683.08,301.24c0-.67.42-1.21.94-1.21s.94.54.94,1.21-.42,1.21-.94,1.21-.94-.54-.94-1.21Z"/>
  <path class="st1" d="M656.22,286.2c0-.67.42-1.21.94-1.21s.94.54.94,1.21-.42,1.21-.94,1.21-.94-.54-.94-1.21Z"/>
  <path class="st1" d="M656.22,294.53c0-.67.42-1.21.94-1.21s.94.54.94,1.21-.42,1.21-.94,1.21-.94-.54-.94-1.21Z"/>
  <path class="st1" d="M656.22,314.4c0-.67.42-1.21.94-1.21s.94.54.94,1.21-.42,1.21-.94,1.21-.94-.54-.94-1.21Z"/>
  <path class="st1" d="M656.22,322.72c0-.67.42-1.21.94-1.21s.94.54.94,1.21-.42,1.21-.94,1.21-.94-.54-.94-1.21Z"/>
  <path class="st1" d="M683.08,350.65c0-.67.42-1.21.94-1.21s.94.54.94,1.21-.42,1.21-.94,1.21-.94-.54-.94-1.21Z"/>
  <path class="st1" d="M683.08,358.98c0-.67.42-1.21.94-1.21s.94.54.94,1.21-.42,1.21-.94,1.21-.94-.54-.94-1.21Z"/>
  <path class="st1" d="M684.42,378.85c0-.67.42-1.21.94-1.21s.94.54.94,1.21-.42,1.21-.94,1.21-.94-.54-.94-1.21Z"/>
  <path class="st1" d="M684.42,387.17c0-.67.42-1.21.94-1.21s.94.54.94,1.21-.42,1.21-.94,1.21-.94-.54-.94-1.21Z"/>
  <path class="st1" d="M657.57,372.13c0-.67.42-1.21.94-1.21s.94.54.94,1.21-.42,1.21-.94,1.21-.94-.54-.94-1.21Z"/>
  <path class="st1" d="M657.57,380.46c0-.67.42-1.21.94-1.21s.94.54.94,1.21-.42,1.21-.94,1.21-.94-.54-.94-1.21Z"/>
  <path class="st1" d="M657.57,401.67c0-.67.42-1.21.94-1.21s.94.54.94,1.21-.42,1.21-.94,1.21-.94-.54-.94-1.21Z"/>
  <path class="st1" d="M657.57,410c0-.67.42-1.21.94-1.21s.94.54.94,1.21-.42,1.21-.94,1.21-.94-.54-.94-1.21Z"/>
  <path class="st1" d="M687.1,408.39c0-.67.42-1.21.94-1.21s.94.54.94,1.21-.42,1.21-.94,1.21-.94-.54-.94-1.21Z"/>
  <path class="st1" d="M687.1,416.71c0-.67.42-1.21.94-1.21s.94.54.94,1.21-.42,1.21-.94,1.21-.94-.54-.94-1.21Z"/>
  <path class="st1" d="M684.42,436.58c0-.67.42-1.21.94-1.21s.94.54.94,1.21-.42,1.21-.94,1.21-.94-.54-.94-1.21Z"/>
  <path class="st1" d="M684.42,444.91c0-.67.42-1.21.94-1.21s.94.54.94,1.21-.42,1.21-.94,1.21-.94-.54-.94-1.21Z"/>
  <path class="st1" d="M657.57,429.87c0-.67.42-1.21.94-1.21s.94.54.94,1.21-.42,1.21-.94,1.21-.94-.54-.94-1.21Z"/>
  <path class="st1" d="M657.57,438.19c0-.67.42-1.21.94-1.21s.94.54.94,1.21-.42,1.21-.94,1.21-.94-.54-.94-1.21Z"/>
  <path class="st1" d="M657.57,459.41c0-.67.42-1.21.94-1.21s.94.54.94,1.21-.42,1.21-.94,1.21-.94-.54-.94-1.21Z"/>
  <path class="st1" d="M657.57,467.73c0-.67.42-1.21.94-1.21s.94.54.94,1.21-.42,1.21-.94,1.21-.94-.54-.94-1.21Z"/>
  <path class="st1" d="M684.42,466.12c0-.67.42-1.21.94-1.21s.94.54.94,1.21-.42,1.21-.94,1.21-.94-.54-.94-1.21Z"/>
  <path class="st1" d="M684.42,474.44c0-.67.42-1.21.94-1.21s.94.54.94,1.21-.42,1.21-.94,1.21-.94-.54-.94-1.21Z"/>
  <path class="st29" d="M683.08,321.11c0-.67.42-1.21.94-1.21s.94.54.94,1.21-.42,1.21-.94,1.21-.94-.54-.94-1.21Z"/>
  <path class="st29" d="M683.08,329.44c0-.67.42-1.21.94-1.21s.94.54.94,1.21-.42,1.21-.94,1.21-.94-.54-.94-1.21Z"/>
  <path class="st35" d="M658.24,32.31c0-5.19,3.49-9.4,7.79-9.4s7.79,4.21,7.79,9.4-3.49,9.4-7.79,9.4-7.79-4.21-7.79-9.4Z"/>
  <path class="st18" d="M658.24,61.85c0-5.19,3.49-9.4,7.79-9.4s7.79,4.21,7.79,9.4-3.49,9.4-7.79,9.4-7.79-4.21-7.79-9.4Z"/>
  <path class="st18" d="M685.09,68.56c0-5.19,3.49-9.4,7.79-9.4s7.79,4.21,7.79,9.4-3.49,9.4-7.79,9.4-7.79-4.21-7.79-9.4Z"/>
  <path class="st43" d="M658.24,90.04c0-5.19,3.49-9.4,7.79-9.4s7.79,4.21,7.79,9.4-3.49,9.4-7.79,9.4-7.79-4.21-7.79-9.4Z"/>
  <path class="st18" d="M658.24,119.58c0-5.19,3.49-9.4,7.79-9.4s7.79,4.21,7.79,9.4-3.49,9.4-7.79,9.4-7.79-4.21-7.79-9.4Z"/>
  <path class="st18" d="M658.24,176.91c0-5.19,3.85-9.4,8.59-9.4s8.59,4.21,8.59,9.4-3.85,9.4-8.59,9.4-8.59-4.21-8.59-9.4Z"/>
  <path class="st19" d="M658.24,147.51c0-5.19,3.85-9.4,8.59-9.4s8.59,4.21,8.59,9.4-3.85,9.4-8.59,9.4-8.59-4.21-8.59-9.4Z"/>
  <path class="st19" d="M684.82,154.49c0-5.19,3.85-9.4,8.59-9.4s8.59,4.21,8.59,9.4-3.85,9.4-8.59,9.4-8.59-4.21-8.59-9.4Z"/>
  <path class="st18" d="M658.24,234.65c0-5.19,3.85-9.4,8.59-9.4s8.59,4.21,8.59,9.4-3.85,9.4-8.59,9.4-8.59-4.21-8.59-9.4Z"/>
  <path class="st5" d="M686.57,296.81c0-5.19,3.19-9.4,7.12-9.4s7.12,4.21,7.12,9.4-3.19,9.4-7.12,9.4-7.12-4.21-7.12-9.4h0Z"/>
  <path class="st0" d="M685.63,126.3c0-5.19,3.19-9.4,7.12-9.4s7.12,4.21,7.12,9.4-3.19,9.4-7.12,9.4-7.12-4.21-7.12-9.4Z"/>
  <path class="st28" d="M681.06,186.85v-4.56h2.69v4.56h-2.69Z"/>
  <path class="st30" d="M687.78,325.28c0-5.26,3.73-9.53,8.32-9.53s8.32,4.27,8.32,9.53-3.73,9.53-8.32,9.53-8.32-4.27-8.32-9.53Z"/>
  <path class="st30" d="M681.87,316.15c0-2.22,3.85-4.03,8.59-4.03s8.59,1.8,8.59,4.03-3.85,4.03-8.59,4.03-8.59-1.8-8.59-4.03Z"/>
  <path class="st30" d="M681.87,334.81c0-2.22,3.85-4.03,8.59-4.03s8.59,1.8,8.59,4.03-3.85,4.03-8.59,4.03-8.59-1.8-8.59-4.03Z"/>
  <path class="st45" d="M661.73,375.62c0-5.26,3.73-9.53,8.32-9.53s8.32,4.27,8.32,9.53-3.73,9.53-8.32,9.53-8.32-4.27-8.32-9.53Z"/>
  <path class="st45" d="M655.82,366.63c0-2.22,3.85-4.03,8.59-4.03s8.59,1.8,8.59,4.03-3.85,4.03-8.59,4.03-8.59-1.8-8.59-4.03Z"/>
  <path class="st45" d="M655.82,385.16c0-2.22,3.85-4.03,8.59-4.03s8.59,1.8,8.59,4.03-3.85,4.03-8.59,4.03-8.59-1.8-8.59-4.03Z"/>
  <path class="st38" d="M690.06,266.19c-3.46-3.46-4.48-8.05-2.28-10.25s6.79-1.18,10.25,2.28c3.46,3.46,4.48,8.05,2.28,10.25-2.2,2.2-6.79,1.18-10.25-2.28Z"/>
  <path class="st38" d="M688.08,277.39c-1.89-1.89-.82-6.01,2.37-9.21s7.32-4.26,9.21-2.37c1.89,1.89.82,6.01-2.37,9.21s-7.32,4.26-9.21,2.37Z"/>
  <path class="st14" d="M664.2,288.42c-3.46-3.46-4.48-8.05-2.28-10.25s6.79-1.18,10.25,2.28c3.46,3.46,4.48,8.05,2.28,10.25-2.2,2.2-6.79,1.18-10.25-2.28Z"/>
  <path class="st14" d="M662.12,299.53c-1.89-1.89-.82-6.01,2.37-9.21,3.2-3.2,7.32-4.26,9.21-2.37,1.89,1.89.82,6.01-2.37,9.21s-7.32,4.26-9.21,2.37Z"/>
  <path class="st47" d="M690.46,356.29v-12.22h10.34v12.22h-10.34Z"/>
  <path class="st47" d="M690.46,365.69v-8.46h10.34v8.46h-10.34Z"/>
  <path class="st40" d="M658.77,463.17c0-5.78,4.09-10.47,9.13-10.47s9.13,4.69,9.13,10.47-4.09,10.47-9.13,10.47-9.13-4.69-9.13-10.47Z"/>
  <path class="st36" d="M692.61,469.21c0-2.67,2.83-4.83,6.31-4.83s6.31,2.16,6.31,4.83-2.83,4.83-6.31,4.83-6.31-2.16-6.31-4.83Z"/>
  <path class="st43" d="M660.25,81.85c0-2.15,1.74-3.89,3.89-3.89s3.89,1.74,3.89,3.89-1.74,3.89-3.89,3.89-3.89-1.74-3.89-3.89Z"/>
  <path class="st43" d="M654.48,81.85c0-2.15,1.74-3.89,3.89-3.89s3.89,1.74,3.89,3.89-1.74,3.89-3.89,3.89-3.89-1.74-3.89-3.89Z"/>
  <path class="st43" d="M647.9,81.85c0-2.15,1.74-3.89,3.89-3.89s3.89,1.74,3.89,3.89-1.74,3.89-3.89,3.89-3.89-1.74-3.89-3.89Z"/>
  <path class="st43" d="M660.25,98.1c0-2.15,1.74-3.89,3.89-3.89s3.89,1.74,3.89,3.89-1.74,3.89-3.89,3.89-3.89-1.74-3.89-3.89Z"/>
  <path class="st43" d="M654.48,98.1c0-2.15,1.74-3.89,3.89-3.89s3.89,1.74,3.89,3.89-1.74,3.89-3.89,3.89-3.89-1.74-3.89-3.89Z"/>
  <path class="st43" d="M647.9,98.1c0-2.15,1.74-3.89,3.89-3.89s3.89,1.74,3.89,3.89-1.74,3.89-3.89,3.89-3.89-1.74-3.89-3.89Z"/>
  <path class="st47" d="M691.4,97.16v-12.22h10.34v12.22h-10.34Z"/>
  <path class="st47" d="M691.4,106.56v-8.46h10.34v8.46h-10.34Z"/>
  <path class="st36" d="M661.86,260.69c0-2.67,2.83-4.83,6.31-4.83s6.31,2.16,6.31,4.83-2.83,4.83-6.31,4.83-6.31-2.16-6.31-4.83Z"/>
  <path class="st33" d="M685.63,212.23c0-5.19,3.85-9.4,8.59-9.4s8.59,4.21,8.59,9.4-3.85,9.4-8.59,9.4-8.59-4.21-8.59-9.4Z"/>
  <path class="st23" d="M685.63,241.76c0-5.19,3.85-9.4,8.59-9.4s8.59,4.21,8.59,9.4-3.85,9.4-8.59,9.4-8.59-4.21-8.59-9.4Z"/>
  <path class="st33" d="M661.73,313.86c0-3.86,3.13-6.98,6.98-6.98s6.98,3.13,6.98,6.98-3.13,6.98-6.98,6.98-6.98-3.13-6.98-6.98h0Z"/>
  <path class="st33" d="M661.86,322.86c0-3.63,2.95-6.58,6.58-6.58s6.58,2.95,6.58,6.58-2.95,6.58-6.58,6.58-6.58-2.95-6.58-6.58Z"/>
  <path class="st33" d="M692.07,407.98c0-3.86,3.13-6.98,6.98-6.98s6.98,3.13,6.98,6.98-3.13,6.98-6.98,6.98-6.98-3.13-6.98-6.98Z"/>
  <path class="st33" d="M692.21,416.84c0-3.63,2.95-6.58,6.58-6.58s6.58,2.95,6.58,6.58-2.95,6.58-6.58,6.58-6.58-2.95-6.58-6.58Z"/>
  <path class="st19" d="M662.4,201.22c0-3.86,3.13-6.98,6.98-6.98s6.98,3.13,6.98,6.98-3.13,6.98-6.98,6.98-6.98-3.13-6.98-6.98Z"/>
  <path class="st19" d="M662.4,210.08c0-3.63,2.95-6.58,6.58-6.58s6.58,2.95,6.58,6.58-2.95,6.58-6.58,6.58-6.58-2.95-6.58-6.58Z"/>
  <path class="st19" d="M686.97,382.74c0-5.19,3.85-9.4,8.59-9.4s8.59,4.21,8.59,9.4-3.85,9.4-8.59,9.4-8.59-4.21-8.59-9.4Z"/>
  <path class="st48" d="M692.01,439.47c-3.23-3.48-4.04-7.97-1.81-10.04,2.23-2.07,6.65-.93,9.88,2.55,3.23,3.48,4.04,7.97,1.81,10.04-2.23,2.07-6.65.93-9.88-2.55Z"/>
  <path class="st48" d="M688.92,450.84c-1.68-2.54.17-6.71,4.13-9.33,3.96-2.62,8.53-2.69,10.2-.15,1.68,2.54-.17,6.71-4.13,9.33-3.96,2.62-8.53,2.69-10.2.15Z"/>
  <path class="st19" d="M662.67,405.57c0-5.19,3.19-9.4,7.12-9.4s7.12,4.21,7.12,9.4-3.19,9.4-7.12,9.4-7.12-4.21-7.12-9.4Z"/>
  <path class="st14" d="M662.67,433.76c0-5.19,3.19-9.4,7.12-9.4s7.12,4.21,7.12,9.4-3.19,9.4-7.12,9.4-7.12-4.21-7.12-9.4Z"/>
  <path class="st28" d="M684.15,414.56v-4.56h2.69v4.56h-2.69Z"/>
  <path class="st28" d="M655.28,173.69c0-1.41.66-2.55,1.48-2.55s1.48,1.14,1.48,2.55-.66,2.55-1.48,2.55-1.48-1.14-1.48-2.55Z"/>
  <path class="st28" d="M655.28,181.48c0-1.41.66-2.55,1.48-2.55s1.48,1.14,1.48,2.55-.66,2.55-1.48,2.55-1.48-1.14-1.48-2.55Z"/>
  <g>
    <g id="Layer_2">
      <path class="st7" d="M663.88,338.7c.54,0,1.75-.13,2.28-.13,1.61.13,3.22.67,3.22.67l4.56-2.95-.81,6.58c-.27-.27,3.76,4.56,1.21,8.46-2.55,3.89-7.79,5.77-14.37,4.56-6.58-1.34-8.19-5.1-7.79-7.12s2.95-2.69,2.95-2.69c0,0,0-1.61,1.21-3.49.67-1.21,2.95-2.82,2.95-2.82l1.07-4.03,2.69,2.55.81.4Z"/>
      <path class="st27" d="M655.55,345.95l.94-.67,3.22.94s0,1.21,1.61,1.61c1.61.4,3.89-.81,3.89-.81l2.69,1.21s2.95.27,3.09,2.15c.27,4.03-4.7,5.64-6.58,5.77-1.07.13-2.82-.13-4.3-.4-6.31-1.07-7.92-4.83-7.52-6.85s2.82-2.55,2.82-2.55l.13-.4Z"/>
      <path class="st11" d="M678.65,349.85s-1.48.13-2.15.13-1.88-.27-1.88-.27"/>
      <path class="st11" d="M653.67,347.97s-1.61-.27-2.42-.54c-.94-.27-1.61-.94-1.61-.94"/>
      <path class="st11" d="M674.62,348.37s.81-.67,2.15-1.21c1.48-.67,2.28-.81,2.28-.81"/>
      <path class="st11" d="M653.54,349.98s-.94.4-1.88.54-1.61,0-1.61,0"/>
      <path class="st9" d="M662.67,339.24s.4-.27,1.34-.54"/>
      <path class="st6" d="M670.46,338.43l-2.15,1.61"/>
    </g>
    <g id="Layer_5">
      <path class="st8" d="M660.79,340.85c.94.67.94,2.42-.13,4.03-1.07,1.61-2.69,2.42-3.63,1.75-.94-.67-.94-2.42.13-4.03,1.07-1.61,2.69-2.42,3.63-1.75Z"/>
      <path class="st39" d="M657.43,345.15c0-.4.27-.67.67-.67s.67.27.67.67-.27.67-.67.67-.67-.27-.67-.67"/>
    </g>
    <g id="Layer_7">
      <path class="st8" d="M669.65,342.19c1.21.67,1.34,2.55.27,4.16-1.07,1.61-2.82,2.28-4.03,1.48-1.21-.67-1.34-2.55-.27-4.16.94-1.48,2.82-2.15,4.03-1.48Z"/>
      <path class="st39" d="M666.16,345.82c0-.4.27-.67.67-.67s.67.27.67.67-.27.67-.67.67-.67-.27-.67-.67"/>
    </g>
    <path class="st10" d="M662.94,347.43c0,.54-1.61,1.34-2.15,1.34s-1.07-1.21-1.07-1.48c0-.4.94-.27,1.61-.27s1.61-.27,1.61.4h0Z"/>
    <g id="Layer_4">
      <path class="st11" d="M663.07,354.14c-3.22.94-6.04-2.69-6.04-2.69,0,0,2.55-.27,3.89-.54,1.34-.27,4.97-1.34,4.97-1.34.54,1.61.67,3.76-2.82,4.56h0Z"/>
    </g>
  </g>
  <path class="st41" d="M175.29-3.67v501.61H.48V-3.67h174.81Z"/>
  <path class="st34" d="M191.4-3.67v501.61h-16.25V-3.67h16.25Z"/>
  <g>
    <path class="st26" d="M113.39,460.61c5.24,0,9.4,4.16,9.4,9.4s-4.16,9.4-9.4,9.4-9.4-4.16-9.4-9.4,4.16-9.4,9.4-9.4Z"/>
    <path class="st42" d="M140.25,453.9c5.24,0,9.4,4.16,9.4,9.4s-4.16,9.4-9.4,9.4-9.4-4.16-9.4-9.4,4.16-9.4,9.4-9.4Z"/>
    <path class="st42" d="M113.39,431.08c5.24,0,9.4,4.16,9.4,9.4s-4.16,9.4-9.4,9.4-9.4-4.16-9.4-9.4,4.16-9.4,9.4-9.4Z"/>
    <path class="st3" d="M140.25,424.36c5.24,0,9.4,4.16,9.4,9.4s-4.16,9.4-9.4,9.4-9.4-4.16-9.4-9.4,4.16-9.4,9.4-9.4Z"/>
    <path class="st3" d="M113.39,402.88c5.24,0,9.4,4.16,9.4,9.4s-4.16,9.4-9.4,9.4-9.4-4.16-9.4-9.4,4.16-9.4,9.4-9.4Z"/>
    <path class="st42" d="M140.25,396.17c5.24,0,9.4,4.16,9.4,9.4s-4.16,9.4-9.4,9.4-9.4-4.16-9.4-9.4,4.16-9.4,9.4-9.4Z"/>
    <path class="st24" d="M113.39,373.34c5.24,0,9.4,4.16,9.4,9.4s-4.16,9.4-9.4,9.4-9.4-4.16-9.4-9.4,4.16-9.4,9.4-9.4Z"/>
    <path class="st42" d="M140.25,366.63c5.24,0,9.4,4.16,9.4,9.4s-4.16,9.4-9.4,9.4-9.4-4.16-9.4-9.4,4.16-9.4,9.4-9.4Z"/>
    <path class="st24" d="M114.74,345.15c5.24,0,9.4,4.16,9.4,9.4s-4.16,9.4-9.4,9.4-9.4-4.16-9.4-9.4,4.16-9.4,9.4-9.4h0Z"/>
    <path class="st42" d="M141.59,338.43c5.24,0,9.4,4.16,9.4,9.4s-4.16,9.4-9.4,9.4-9.4-4.16-9.4-9.4,4.16-9.4,9.4-9.4h0Z"/>
    <path class="st24" d="M114.74,315.61c5.24,0,9.4,4.16,9.4,9.4s-4.16,9.4-9.4,9.4-9.4-4.16-9.4-9.4,4.16-9.4,9.4-9.4Z"/>
    <path class="st3" d="M141.59,308.9c5.24,0,9.4,4.16,9.4,9.4s-4.16,9.4-9.4,9.4-9.4-4.16-9.4-9.4,4.16-9.4,9.4-9.4Z"/>
    <path class="st24" d="M114.74,287.41c5.24,0,9.4,4.16,9.4,9.4s-4.16,9.4-9.4,9.4-9.4-4.16-9.4-9.4,4.16-9.4,9.4-9.4Z"/>
    <path class="st3" d="M141.59,280.7c5.24,0,9.4,4.16,9.4,9.4s-4.16,9.4-9.4,9.4-9.4-4.16-9.4-9.4,4.16-9.4,9.4-9.4Z"/>
    <path class="st42" d="M114.74,257.88c5.24,0,9.4,4.16,9.4,9.4s-4.16,9.4-9.4,9.4-9.4-4.16-9.4-9.4,4.16-9.4,9.4-9.4Z"/>
    <path class="st42" d="M141.59,251.16c5.24,0,9.4,4.16,9.4,9.4s-4.16,9.4-9.4,9.4-9.4-4.16-9.4-9.4,4.16-9.4,9.4-9.4Z"/>
    <path class="st42" d="M114.74,232.36c5.24,0,9.4,4.16,9.4,9.4s-4.16,9.4-9.4,9.4-9.4-4.16-9.4-9.4,4.16-9.4,9.4-9.4Z"/>
    <path class="st42" d="M141.59,225.65c5.24,0,9.4,4.16,9.4,9.4s-4.16,9.4-9.4,9.4-9.4-4.16-9.4-9.4,4.16-9.4,9.4-9.4Z"/>
    <path class="st42" d="M114.74,202.83c5.24,0,9.4,4.16,9.4,9.4s-4.16,9.4-9.4,9.4-9.4-4.16-9.4-9.4,4.16-9.4,9.4-9.4Z"/>
    <path class="st42" d="M141.59,196.11c5.24,0,9.4,4.16,9.4,9.4s-4.16,9.4-9.4,9.4-9.4-4.16-9.4-9.4,4.16-9.4,9.4-9.4Z"/>
    <path class="st3" d="M114.74,174.63c5.24,0,9.4,4.16,9.4,9.4s-4.16,9.4-9.4,9.4-9.4-4.16-9.4-9.4,4.16-9.4,9.4-9.4Z"/>
    <path class="st3" d="M141.59,167.92c5.24,0,9.4,4.16,9.4,9.4s-4.16,9.4-9.4,9.4-9.4-4.16-9.4-9.4,4.16-9.4,9.4-9.4Z"/>
    <path class="st42" d="M114.74,145.09c5.24,0,9.4,4.16,9.4,9.4s-4.16,9.4-9.4,9.4-9.4-4.16-9.4-9.4,4.16-9.4,9.4-9.4Z"/>
    <path class="st24" d="M141.59,138.38c5.24,0,9.4,4.16,9.4,9.4s-4.16,9.4-9.4,9.4-9.4-4.16-9.4-9.4,4.16-9.4,9.4-9.4Z"/>
    <path class="st24" d="M116.08,116.9c5.24,0,9.4,4.16,9.4,9.4s-4.16,9.4-9.4,9.4-9.4-4.16-9.4-9.4,4.16-9.4,9.4-9.4Z"/>
    <path class="st42" d="M142.93,110.18c5.24,0,9.4,4.16,9.4,9.4s-4.16,9.4-9.4,9.4-9.4-4.16-9.4-9.4,4.16-9.4,9.4-9.4Z"/>
    <path class="st42" d="M116.08,87.36c5.24,0,9.4,4.16,9.4,9.4s-4.16,9.4-9.4,9.4-9.4-4.16-9.4-9.4,4.16-9.4,9.4-9.4Z"/>
    <path class="st42" d="M142.93,80.65c5.24,0,9.4,4.16,9.4,9.4s-4.16,9.4-9.4,9.4-9.4-4.16-9.4-9.4,4.16-9.4,9.4-9.4Z"/>
    <path class="st3" d="M116.08,59.16c5.24,0,9.4,4.16,9.4,9.4s-4.16,9.4-9.4,9.4-9.4-4.16-9.4-9.4,4.16-9.4,9.4-9.4Z"/>
    <path class="st42" d="M142.93,52.45c5.24,0,9.4,4.16,9.4,9.4s-4.16,9.4-9.4,9.4-9.4-4.16-9.4-9.4,4.16-9.4,9.4-9.4Z"/>
    <path class="st24" d="M116.08,29.63c5.24,0,9.4,4.16,9.4,9.4s-4.16,9.4-9.4,9.4-9.4-4.16-9.4-9.4,4.16-9.4,9.4-9.4Z"/>
    <path class="st26" d="M142.93,22.91c5.24,0,9.4,4.16,9.4,9.4s-4.16,9.4-9.4,9.4-9.4-4.16-9.4-9.4,4.16-9.4,9.4-9.4Z"/>
  </g>
  <path class="st28" d="M164.28,498.21V-3.67h10.88v501.88h-10.88Z"/>
  <g>
    <path class="st28" d="M117.82,180.4c0-1.63.72-2.95,1.61-2.95s1.61,1.32,1.61,2.95-.72,2.95-1.61,2.95-1.61-1.32-1.61-2.95Z"/>
    <path class="st28" d="M117.82,187.92c0-1.63.72-2.95,1.61-2.95s1.61,1.32,1.61,2.95-.72,2.95-1.61,2.95-1.61-1.32-1.61-2.95Z"/>
  </g>
  <path class="st2" d="M114.72,36.18v5.5h-13.02v-5.5h13.02Z"/>
  <path class="st28" d="M147.76,28.42c0-.67.42-1.21.94-1.21s.94.54.94,1.21-.42,1.21-.94,1.21-.94-.54-.94-1.21Z"/>
  <path class="st28" d="M147.76,36.74c0-.67.42-1.21.94-1.21s.94.54.94,1.21-.42,1.21-.94,1.21-.94-.54-.94-1.21Z"/>
  <path class="st49" d="M120.91,35.13c0-.67.42-1.21.94-1.21s.94.54.94,1.21-.42,1.21-.94,1.21-.94-.54-.94-1.21Z"/>
  <path class="st49" d="M120.91,43.46c0-.67.42-1.21.94-1.21s.94.54.94,1.21-.42,1.21-.94,1.21-.94-.54-.94-1.21Z"/>
  <path class="st28" d="M120.91,64.67c0-.67.42-1.21.94-1.21s.94.54.94,1.21-.42,1.21-.94,1.21-.94-.54-.94-1.21Z"/>
  <path class="st28" d="M120.91,72.99c0-.67.42-1.21.94-1.21s.94.54.94,1.21-.42,1.21-.94,1.21-.94-.54-.94-1.21Z"/>
  <path class="st28" d="M120.91,92.86c0-.67.42-1.21.94-1.21s.94.54.94,1.21-.42,1.21-.94,1.21-.94-.54-.94-1.21Z"/>
  <path class="st28" d="M120.91,101.19c0-.67.42-1.21.94-1.21s.94.54.94,1.21-.42,1.21-.94,1.21-.94-.54-.94-1.21Z"/>
  <path class="st15" d="M120.91,122.4c0-.67.42-1.21.94-1.21s.94.54.94,1.21-.42,1.21-.94,1.21-.94-.54-.94-1.21Z"/>
  <path class="st15" d="M120.91,130.73c0-.67.42-1.21.94-1.21s.94.54.94,1.21-.42,1.21-.94,1.21-.94-.54-.94-1.21Z"/>
  <path class="st28" d="M120.91,150.6c0-.67.42-1.21.94-1.21s.94.54.94,1.21-.42,1.21-.94,1.21-.94-.54-.94-1.21Z"/>
  <path class="st28" d="M120.91,158.92c0-.67.42-1.21.94-1.21s.94.54.94,1.21-.42,1.21-.94,1.21-.94-.54-.94-1.21Z"/>
  <path class="st28" d="M147.76,57.96c0-.67.42-1.21.94-1.21s.94.54.94,1.21-.42,1.21-.94,1.21-.94-.54-.94-1.21Z"/>
  <path class="st28" d="M147.76,66.28c0-.67.42-1.21.94-1.21s.94.54.94,1.21-.42,1.21-.94,1.21-.94-.54-.94-1.21Z"/>
  <path class="st28" d="M147.76,86.15c0-.67.42-1.21.94-1.21s.94.54.94,1.21-.42,1.21-.94,1.21-.94-.54-.94-1.21Z"/>
  <path class="st28" d="M147.76,94.48c0-.67.42-1.21.94-1.21s.94.54.94,1.21-.42,1.21-.94,1.21-.94-.54-.94-1.21Z"/>
  <path class="st28" d="M147.76,115.69c0-.67.42-1.21.94-1.21s.94.54.94,1.21-.42,1.21-.94,1.21-.94-.54-.94-1.21Z"/>
  <path class="st28" d="M147.76,124.01c0-.67.42-1.21.94-1.21s.94.54.94,1.21-.42,1.21-.94,1.21-.94-.54-.94-1.21Z"/>
  <path class="st31" d="M147.76,143.88c0-.67.42-1.21.94-1.21s.94.54.94,1.21-.42,1.21-.94,1.21-.94-.54-.94-1.21Z"/>
  <path class="st31" d="M147.76,152.21c0-.67.42-1.21.94-1.21s.94.54.94,1.21-.42,1.21-.94,1.21-.94-.54-.94-1.21Z"/>
  <path class="st31" d="M147.76,201.62c0-.67.42-1.21.94-1.21s.94.54.94,1.21-.42,1.21-.94,1.21-.94-.54-.94-1.21Z"/>
  <path class="st31" d="M147.76,209.94c0-.67.42-1.21.94-1.21s.94.54.94,1.21-.42,1.21-.94,1.21-.94-.54-.94-1.21Z"/>
  <path class="st33" d="M120.91,208.33c0-.67.42-1.21.94-1.21s.94.54.94,1.21-.42,1.21-.94,1.21-.94-.54-.94-1.21Z"/>
  <path class="st33" d="M120.91,216.66c0-.67.42-1.21.94-1.21s.94.54.94,1.21-.42,1.21-.94,1.21-.94-.54-.94-1.21Z"/>
  <path class="st33" d="M120.91,237.87c0-.67.42-1.21.94-1.21s.94.54.94,1.21-.42,1.21-.94,1.21-.94-.54-.94-1.21Z"/>
  <path class="st33" d="M120.91,246.19c0-.67.42-1.21.94-1.21s.94.54.94,1.21-.42,1.21-.94,1.21-.94-.54-.94-1.21Z"/>
  <path class="st33" d="M147.76,231.16c0-.67.42-1.21.94-1.21s.94.54.94,1.21-.42,1.21-.94,1.21-.94-.54-.94-1.21Z"/>
  <path class="st33" d="M147.76,239.48c0-.67.42-1.21.94-1.21s.94.54.94,1.21-.42,1.21-.94,1.21-.94-.54-.94-1.21Z"/>
  <path class="st33" d="M147.76,256.67c0-.67.42-1.21.94-1.21s.94.54.94,1.21-.42,1.21-.94,1.21-.94-.54-.94-1.21Z"/>
  <path class="st33" d="M147.76,264.99c0-.67.42-1.21.94-1.21s.94.54.94,1.21-.42,1.21-.94,1.21-.94-.54-.94-1.21Z"/>
  <path class="st33" d="M120.91,263.38c0-.67.42-1.21.94-1.21s.94.54.94,1.21-.42,1.21-.94,1.21-.94-.54-.94-1.21Z"/>
  <path class="st33" d="M120.91,271.7c0-.67.42-1.21.94-1.21s.94.54.94,1.21-.42,1.21-.94,1.21-.94-.54-.94-1.21Z"/>
  <path class="st32" d="M120.91,292.92c0-.67.42-1.21.94-1.21s.94.54.94,1.21-.42,1.21-.94,1.21-.94-.54-.94-1.21Z"/>
  <path class="st32" d="M120.91,301.24c0-.67.42-1.21.94-1.21s.94.54.94,1.21-.42,1.21-.94,1.21-.94-.54-.94-1.21Z"/>
  <path class="st1" d="M147.76,286.2c0-.67.42-1.21.94-1.21s.94.54.94,1.21-.42,1.21-.94,1.21-.94-.54-.94-1.21Z"/>
  <path class="st1" d="M147.76,294.53c0-.67.42-1.21.94-1.21s.94.54.94,1.21-.42,1.21-.94,1.21-.94-.54-.94-1.21Z"/>
  <path class="st1" d="M147.76,314.4c0-.67.42-1.21.94-1.21s.94.54.94,1.21-.42,1.21-.94,1.21-.94-.54-.94-1.21Z"/>
  <path class="st1" d="M147.76,322.72c0-.67.42-1.21.94-1.21s.94.54.94,1.21-.42,1.21-.94,1.21-.94-.54-.94-1.21Z"/>
  <path class="st1" d="M120.91,350.65c0-.67.42-1.21.94-1.21s.94.54.94,1.21-.42,1.21-.94,1.21-.94-.54-.94-1.21Z"/>
  <path class="st1" d="M120.91,358.98c0-.67.42-1.21.94-1.21s.94.54.94,1.21-.42,1.21-.94,1.21-.94-.54-.94-1.21Z"/>
  <path class="st1" d="M119.57,378.85c0-.67.42-1.21.94-1.21s.94.54.94,1.21-.42,1.21-.94,1.21-.94-.54-.94-1.21Z"/>
  <path class="st1" d="M119.57,387.17c0-.67.42-1.21.94-1.21s.94.54.94,1.21-.42,1.21-.94,1.21-.94-.54-.94-1.21Z"/>
  <path class="st1" d="M146.42,372.13c0-.67.42-1.21.94-1.21s.94.54.94,1.21-.42,1.21-.94,1.21-.94-.54-.94-1.21Z"/>
  <path class="st1" d="M146.42,380.46c0-.67.42-1.21.94-1.21s.94.54.94,1.21-.42,1.21-.94,1.21-.94-.54-.94-1.21Z"/>
  <path class="st1" d="M146.42,401.67c0-.67.42-1.21.94-1.21s.94.54.94,1.21-.42,1.21-.94,1.21-.94-.54-.94-1.21Z"/>
  <path class="st1" d="M146.42,410c0-.67.42-1.21.94-1.21s.94.54.94,1.21-.42,1.21-.94,1.21-.94-.54-.94-1.21Z"/>
  <path class="st1" d="M116.88,408.39c0-.67.42-1.21.94-1.21s.94.54.94,1.21-.42,1.21-.94,1.21-.94-.54-.94-1.21Z"/>
  <path class="st1" d="M116.88,416.71c0-.67.42-1.21.94-1.21s.94.54.94,1.21-.42,1.21-.94,1.21-.94-.54-.94-1.21Z"/>
  <path class="st1" d="M119.57,436.58c0-.67.42-1.21.94-1.21s.94.54.94,1.21-.42,1.21-.94,1.21-.94-.54-.94-1.21Z"/>
  <path class="st1" d="M119.57,444.91c0-.67.42-1.21.94-1.21s.94.54.94,1.21-.42,1.21-.94,1.21-.94-.54-.94-1.21Z"/>
  <path class="st1" d="M146.42,429.87c0-.67.42-1.21.94-1.21s.94.54.94,1.21-.42,1.21-.94,1.21-.94-.54-.94-1.21Z"/>
  <path class="st1" d="M146.42,438.19c0-.67.42-1.21.94-1.21s.94.54.94,1.21-.42,1.21-.94,1.21-.94-.54-.94-1.21Z"/>
  <path class="st1" d="M146.42,459.41c0-.67.42-1.21.94-1.21s.94.54.94,1.21-.42,1.21-.94,1.21-.94-.54-.94-1.21Z"/>
  <path class="st1" d="M146.42,467.73c0-.67.42-1.21.94-1.21s.94.54.94,1.21-.42,1.21-.94,1.21-.94-.54-.94-1.21Z"/>
  <path class="st1" d="M119.57,466.12c0-.67.42-1.21.94-1.21s.94.54.94,1.21-.42,1.21-.94,1.21-.94-.54-.94-1.21Z"/>
  <path class="st1" d="M119.57,474.44c0-.67.42-1.21.94-1.21s.94.54.94,1.21-.42,1.21-.94,1.21-.94-.54-.94-1.21Z"/>
  <path class="st29" d="M120.91,321.11c0-.67.42-1.21.94-1.21s.94.54.94,1.21-.42,1.21-.94,1.21-.94-.54-.94-1.21Z"/>
  <path class="st29" d="M120.91,329.44c0-.67.42-1.21.94-1.21s.94.54.94,1.21-.42,1.21-.94,1.21-.94-.54-.94-1.21Z"/>
  <path class="st35" d="M132.06,32.31c0-5.19,3.49-9.4,7.79-9.4s7.79,4.21,7.79,9.4-3.49,9.4-7.79,9.4-7.79-4.21-7.79-9.4Z"/>
  <path class="st18" d="M132.06,61.85c0-5.19,3.49-9.4,7.79-9.4s7.79,4.21,7.79,9.4-3.49,9.4-7.79,9.4-7.79-4.21-7.79-9.4Z"/>
  <path class="st18" d="M105.2,68.56c0-5.19,3.49-9.4,7.79-9.4s7.79,4.21,7.79,9.4-3.49,9.4-7.79,9.4-7.79-4.21-7.79-9.4Z"/>
  <path class="st43" d="M132.06,90.04c0-5.19,3.49-9.4,7.79-9.4s7.79,4.21,7.79,9.4-3.49,9.4-7.79,9.4-7.79-4.21-7.79-9.4Z"/>
  <path class="st18" d="M132.06,119.58c0-5.19,3.49-9.4,7.79-9.4s7.79,4.21,7.79,9.4-3.49,9.4-7.79,9.4-7.79-4.21-7.79-9.4Z"/>
  <path class="st18" d="M130.44,176.91c0-5.19,3.85-9.4,8.59-9.4s8.59,4.21,8.59,9.4-3.85,9.4-8.59,9.4-8.59-4.21-8.59-9.4Z"/>
  <path class="st19" d="M130.44,147.51c0-5.19,3.85-9.4,8.59-9.4s8.59,4.21,8.59,9.4-3.85,9.4-8.59,9.4-8.59-4.21-8.59-9.4Z"/>
  <path class="st19" d="M103.86,154.49c0-5.19,3.85-9.4,8.59-9.4s8.59,4.21,8.59,9.4-3.85,9.4-8.59,9.4-8.59-4.21-8.59-9.4Z"/>
  <path class="st18" d="M130.44,234.65c0-5.19,3.85-9.4,8.59-9.4s8.59,4.21,8.59,9.4-3.85,9.4-8.59,9.4-8.59-4.21-8.59-9.4Z"/>
  <path class="st5" d="M105.07,296.81c0-5.19,3.19-9.4,7.12-9.4s7.12,4.21,7.12,9.4-3.19,9.4-7.12,9.4-7.12-4.21-7.12-9.4Z"/>
  <path class="st0" d="M106.01,126.3c0-5.19,3.19-9.4,7.12-9.4s7.12,4.21,7.12,9.4-3.19,9.4-7.12,9.4-7.12-4.21-7.12-9.4Z"/>
  <path class="st28" d="M124.8,182.22v4.56h-2.69v-4.56h2.69Z"/>
  <path class="st30" d="M101.44,325.28c0-5.26,3.73-9.53,8.32-9.53s8.32,4.27,8.32,9.53-3.73,9.53-8.32,9.53-8.32-4.27-8.32-9.53Z"/>
  <path class="st30" d="M106.81,316.15c0-2.22,3.85-4.03,8.59-4.03s8.59,1.8,8.59,4.03-3.85,4.03-8.59,4.03-8.59-1.8-8.59-4.03Z"/>
  <path class="st30" d="M106.81,334.81c0-2.22,3.85-4.03,8.59-4.03s8.59,1.8,8.59,4.03-3.85,4.03-8.59,4.03-8.59-1.8-8.59-4.03Z"/>
  <path class="st45" d="M127.49,375.62c0-5.26,3.73-9.53,8.32-9.53s8.32,4.27,8.32,9.53-3.73,9.53-8.32,9.53-8.32-4.27-8.32-9.53Z"/>
  <path class="st45" d="M132.86,366.63c0-2.22,3.85-4.03,8.59-4.03s8.59,1.8,8.59,4.03-3.85,4.03-8.59,4.03-8.59-1.8-8.59-4.03Z"/>
  <path class="st45" d="M132.86,385.16c0-2.22,3.85-4.03,8.59-4.03s8.59,1.8,8.59,4.03-3.85,4.03-8.59,4.03-8.59-1.8-8.59-4.03Z"/>
  <path class="st38" d="M105.47,268.44c-2.2-2.2-1.18-6.79,2.28-10.25,3.46-3.46,8.05-4.48,10.25-2.28s1.18,6.79-2.28,10.25c-3.46,3.46-8.05,4.48-10.25,2.28Z"/>
  <path class="st38" d="M108.65,274.93c-3.2-3.2-4.26-7.32-2.37-9.21,1.89-1.89,6.01-.82,9.21,2.37s4.26,7.32,2.37,9.21c-1.89,1.89-6.01.82-9.21-2.37Z"/>
  <path class="st14" d="M131.46,290.73c-2.2-2.2-1.18-6.79,2.28-10.25,3.46-3.46,8.05-4.48,10.25-2.28s1.18,6.79-2.28,10.25c-3.46,3.46-8.05,4.48-10.25,2.28Z"/>
  <path class="st14" d="M134.55,297.12c-3.2-3.2-4.26-7.32-2.37-9.21,1.89-1.89,6.01-.82,9.21,2.37s4.26,7.32,2.37,9.21c-1.89,1.89-6.01.82-9.21-2.37Z"/>
  <path class="st47" d="M115.53,344.03v12.22h-10.34v-12.22h10.34Z"/>
  <path class="st47" d="M115.53,357.13v8.46h-10.34v-8.46h10.34Z"/>
  <path class="st40" d="M128.83,463.17c0-5.78,4.09-10.47,9.13-10.47s9.13,4.69,9.13,10.47-4.09,10.47-9.13,10.47-9.13-4.69-9.13-10.47Z"/>
  <path class="st36" d="M100.64,469.21c0-2.67,2.83-4.83,6.31-4.83s6.31,2.16,6.31,4.83-2.83,4.83-6.31,4.83-6.31-2.16-6.31-4.83Z"/>
  <path class="st43" d="M137.83,81.85c0-2.15,1.74-3.89,3.89-3.89s3.89,1.74,3.89,3.89-1.74,3.89-3.89,3.89-3.89-1.74-3.89-3.89Z"/>
  <path class="st43" d="M143.6,81.85c0-2.15,1.74-3.89,3.89-3.89s3.89,1.74,3.89,3.89-1.74,3.89-3.89,3.89-3.89-1.74-3.89-3.89Z"/>
  <path class="st43" d="M150.18,81.85c0-2.15,1.74-3.89,3.89-3.89s3.89,1.74,3.89,3.89-1.74,3.89-3.89,3.89-3.89-1.74-3.89-3.89Z"/>
  <path class="st43" d="M137.83,98.1c0-2.15,1.74-3.89,3.89-3.89s3.89,1.74,3.89,3.89-1.74,3.89-3.89,3.89-3.89-1.74-3.89-3.89Z"/>
  <path class="st43" d="M143.6,98.1c0-2.15,1.74-3.89,3.89-3.89s3.89,1.74,3.89,3.89-1.74,3.89-3.89,3.89-3.89-1.74-3.89-3.89Z"/>
  <path class="st43" d="M150.18,98.1c0-2.15,1.74-3.89,3.89-3.89s3.89,1.74,3.89,3.89-1.74,3.89-3.89,3.89-3.89-1.74-3.89-3.89Z"/>
  <path class="st47" d="M114.54,84.96v12.22h-10.34v-12.22h10.34Z"/>
  <path class="st47" d="M114.54,98.06v8.46h-10.34v-8.46h10.34Z"/>
  <path class="st36" d="M131.38,260.69c0-2.67,2.83-4.83,6.31-4.83s6.31,2.16,6.31,4.83-2.83,4.83-6.31,4.83-6.31-2.16-6.31-4.83Z"/>
  <path class="st33" d="M103.05,212.23c0-5.19,3.85-9.4,8.59-9.4s8.59,4.21,8.59,9.4-3.85,9.4-8.59,9.4-8.59-4.21-8.59-9.4Z"/>
  <path class="st23" d="M103.05,241.76c0-5.19,3.85-9.4,8.59-9.4s8.59,4.21,8.59,9.4-3.85,9.4-8.59,9.4-8.59-4.21-8.59-9.4Z"/>
  <path class="st33" d="M130.18,313.86c0-3.86,3.13-6.98,6.98-6.98s6.98,3.13,6.98,6.98-3.13,6.98-6.98,6.98-6.98-3.13-6.98-6.98h0Z"/>
  <path class="st33" d="M130.85,322.86c0-3.63,2.95-6.58,6.58-6.58s6.58,2.95,6.58,6.58-2.95,6.58-6.58,6.58-6.58-2.95-6.58-6.58Z"/>
  <path class="st33" d="M99.83,407.98c0-3.86,3.13-6.98,6.98-6.98s6.98,3.13,6.98,6.98-3.13,6.98-6.98,6.98-6.98-3.13-6.98-6.98Z"/>
  <path class="st33" d="M100.5,416.84c0-3.63,2.95-6.58,6.58-6.58s6.58,2.95,6.58,6.58-2.95,6.58-6.58,6.58-6.58-2.95-6.58-6.58Z"/>
  <path class="st19" d="M129.5,201.22c0-3.86,3.13-6.98,6.98-6.98s6.98,3.13,6.98,6.98-3.13,6.98-6.98,6.98-6.98-3.13-6.98-6.98Z"/>
  <path class="st19" d="M130.31,210.08c0-3.63,2.95-6.58,6.58-6.58s6.58,2.95,6.58,6.58-2.95,6.58-6.58,6.58-6.58-2.95-6.58-6.58Z"/>
  <path class="st19" d="M101.71,382.74c0-5.19,3.85-9.4,8.59-9.4s8.59,4.21,8.59,9.4-3.85,9.4-8.59,9.4-8.59-4.21-8.59-9.4Z"/>
  <path class="st48" d="M103.91,442.12c-2.23-2.07-1.42-6.56,1.81-10.04,3.23-3.48,7.65-4.62,9.88-2.55,2.23,2.07,1.42,6.56-1.81,10.04-3.23,3.48-7.65,4.62-9.88,2.55Z"/>
  <path class="st48" d="M106.76,450.73c-3.96-2.62-5.81-6.8-4.13-9.33s6.25-2.47,10.2.15c3.96,2.62,5.81,6.8,4.13,9.33s-6.25,2.47-10.2-.15Z"/>
  <path class="st19" d="M128.97,405.57c0-5.19,3.19-9.4,7.12-9.4s7.12,4.21,7.12,9.4-3.19,9.4-7.12,9.4-7.12-4.21-7.12-9.4Z"/>
  <path class="st14" d="M128.97,433.76c0-5.19,3.19-9.4,7.12-9.4s7.12,4.21,7.12,9.4-3.19,9.4-7.12,9.4-7.12-4.21-7.12-9.4Z"/>
  <path class="st28" d="M121.65,409.92v4.56h-2.69v-4.56h2.69Z"/>
  <path class="st28" d="M147.63,173.69c0-1.41.66-2.55,1.48-2.55s1.48,1.14,1.48,2.55-.66,2.55-1.48,2.55-1.48-1.14-1.48-2.55Z"/>
  <path class="st28" d="M147.63,181.48c0-1.41.66-2.55,1.48-2.55s1.48,1.14,1.48,2.55-.66,2.55-1.48,2.55-1.48-1.14-1.48-2.55Z"/>
  <g>
    <g id="Layer_21" data-name="Layer_2">
      <path class="st7" d="M142.8,338.3l2.69-2.55,1.07,4.03s2.28,1.61,2.95,2.82c1.21,1.88,1.21,3.49,1.21,3.49,0,0,2.55.67,2.95,2.69.4,2.01-1.21,5.77-7.79,7.12-6.58,1.21-11.82-.54-14.37-4.56-2.55-3.89,1.48-8.73,1.21-8.46l-.81-6.58,4.56,2.95s1.61-.54,3.22-.67c.54,0,1.75.13,2.28.13l.81-.4Z"/>
      <path class="st27" d="M150.45,346.36s2.42.54,2.82,2.55c.4,2.01-1.21,5.77-7.52,6.85-1.48.27-3.22.54-4.3.4-1.88-.13-6.85-1.75-6.58-5.77.13-1.88,3.09-2.15,3.09-2.15l2.69-1.21s2.28,1.21,3.89.81c1.61-.4,1.61-1.61,1.61-1.61l3.22-.94.94.67.13.4Z"/>
      <path class="st11" d="M131.25,349.71s-1.21.27-1.88.27-2.15-.13-2.15-.13"/>
      <path class="st11" d="M156.22,346.49s-.67.67-1.61.94c-.81.27-2.42.54-2.42.54"/>
      <path class="st11" d="M126.82,346.36s.81.13,2.28.81c1.34.54,2.15,1.21,2.15,1.21"/>
      <path class="st11" d="M155.82,350.52s-.67.13-1.61,0c-.94-.13-1.88-.54-1.88-.54"/>
      <path class="st9" d="M141.86,338.7c.94.27,1.34.54,1.34.54"/>
      <path class="st6" d="M135.41,338.43l2.15,1.61"/>
    </g>
    <g id="Layer_51" data-name="Layer_5">
      <path class="st8" d="M148.7,342.6c1.07,1.61,1.07,3.36.13,4.03-.94.67-2.55-.13-3.63-1.75-1.07-1.61-1.07-3.36-.13-4.03.94-.67,2.55.13,3.63,1.75Z"/>
      <path class="st39" d="M148.44,345.15c0,.4-.27.67-.67.67s-.67-.27-.67-.67.27-.67.67-.67.67.27.67.67"/>
    </g>
    <g id="Layer_71" data-name="Layer_7">
      <path class="st8" d="M140.25,343.67c1.07,1.61.94,3.49-.27,4.16-1.21.81-2.95.13-4.03-1.48-1.07-1.61-.94-3.49.27-4.16,1.34-.67,3.09,0,4.03,1.48Z"/>
      <path class="st39" d="M139.71,345.82c0,.4-.27.67-.67.67s-.67-.27-.67-.67.27-.67.67-.67.67.27.67.67"/>
    </g>
    <path class="st10" d="M144.54,347.03c.67,0,1.61-.13,1.61.27s-.54,1.48-1.07,1.48-2.15-.81-2.15-1.34c0-.67.94-.4,1.61-.4h0Z"/>
    <g id="Layer_41" data-name="Layer_4">
      <path class="st11" d="M139.98,349.58s3.63,1.07,4.97,1.34c1.34.27,3.89.54,3.89.54,0,0-2.82,3.63-6.04,2.69-3.49-.81-3.36-2.95-2.82-4.56h0Z"/>
    </g>
  </g>
  <g>
    <path class="st28" d="M478.59,398.32c0-9.94,8.06-17.99,17.99-17.99s17.99,8.06,17.99,17.99-8.06,17.99-17.99,17.99-17.99-8.06-17.99-17.99Z"/>
    <path class="st4" d="M478.59,393.88c0-9.94,8.06-17.99,17.99-17.99s17.99,8.06,17.99,17.99-8.06,17.99-17.99,17.99-17.99-8.06-17.99-17.99Z"/>
    <path class="st44" d="M483.29,393.88c0-7.19,6.07-13.02,13.56-13.02s13.56,5.83,13.56,13.02-6.07,13.02-13.56,13.02-13.56-5.83-13.56-13.02Z"/>
    <path class="st21" d="M490,394.15c0-3.76,3.09-6.85,6.85-6.85s6.85,3.09,6.85,6.85-3.09,6.85-6.85,6.85-6.85-3.09-6.85-6.85Z"/>
    <path class="st21" d="M490,394.82v-7.52h13.56v7.52h-13.56Z"/>
    <path class="st37" d="M490,387.44c0-3.76,3.09-6.85,6.85-6.85s6.85,3.09,6.85,6.85-3.09,6.85-6.85,6.85-6.85-3.09-6.85-6.85Z"/>
  </g>
</svg>