<?xml version="1.0" encoding="UTF-8"?>
<svg id="_レイヤー_1" data-name="レイヤー_1" xmlns="http://www.w3.org/2000/svg" version="1.1" viewBox="0 0 800 500">
  <!-- Generator: Adobe Illustrator 30.1.0, SVG Export Plug-In . SVG Version: 2.1.1 Build 136)  -->
  <defs>
    <style>
      .st0, .st1, .st2, .st3, .st4 {
        fill: none;
      }

      .st1 {
        stroke-dasharray: 1.07 21.35;
      }

      .st1, .st2, .st3, .st4 {
        stroke: #fff;
        stroke-linecap: round;
        stroke-linejoin: round;
        stroke-width: 7px;
      }

      .st5 {
        fill: #3274b7;
      }

      .st6 {
        fill: #9e9e9f;
      }

      .st7 {
        fill: #dbdcdc;
      }

      .st8 {
        fill: #fff;
      }

      .st3 {
        stroke-dasharray: .68 13.67;
      }

      .st4 {
        stroke-dasharray: .96 19.14;
      }
    </style>
  </defs>
  <rect class="st5" width="800" height="500"/>
  <path class="st7" d="M570.09,115.56s-15.69.69-20.42-4.03l-37.36,45.42-12.64-6.53,26.81-59.31-9.31-9.31,4.03-4.03-25.83-25.97-12.22,12.22-4.72-4.72,12.22-12.22s-11.67-15-7.92-18.75"/>
  <path class="st6" d="M570.09,115.56s.69-15.69-4.03-20.42l45.42-37.22-6.53-12.64-59.31,26.81-9.31-9.31-4.03,4.03-25.97-25.97,12.22-12.22-4.72-4.72-12.22,12.22s-15-11.67-18.75-7.92"/>
  <polyline class="st6" points="186.34 464.72 186.48 457.36 184.81 453.89 185.09 452.5 180.78 447.78 193.28 410.97 192.31 408.61 185.23 404.58 166.48 430.69 159.81 431.25 148.7 424.31 146.48 424.86"/>
  <polyline class="st7" points="186.34 464.72 178.98 464.86 175.5 463.06 174.11 463.47 169.39 459.17 132.59 471.67 130.23 470.56 126.2 463.61 152.31 444.72 152.86 438.06 145.92 427.08 146.48 424.86"/>
  <polyline class="st6" points="280.09 461.25 280.23 453.89 278.42 450.42 278.84 449.03 274.53 444.31 287.03 407.5 285.92 405.14 278.84 400.97 260.09 427.22 253.42 427.78 242.45 420.83 240.09 421.25"/>
  <polyline class="st7" points="280.09 461.25 272.73 461.39 269.25 459.58 267.86 460 263.14 455.69 226.34 468.19 223.98 467.08 219.81 460 246.06 441.25 246.61 434.58 239.67 423.61 240.09 421.25"/>
  <line class="st2" x1="577.17" y1="126.39" x2="577.73" y2="126.81"/>
  <line class="st4" x1="596.48" y1="145.69" x2="705.5" y2="254.72"/>
  <line class="st2" x1="714.95" y1="264.17" x2="715.36" y2="264.58"/>
  <line class="st2" x1="101.34" y1="279.03" x2="101.75" y2="279.44"/>
  <line class="st1" x1="122.73" y1="300.42" x2="222.31" y2="400"/>
  <line class="st2" x1="232.86" y1="410.56" x2="233.28" y2="410.97"/>
  <line class="st2" x1="106.48" y1="385" x2="107.03" y2="385.42"/>
  <line class="st3" x1="120.5" y1="398.89" x2="127.86" y2="406.25"/>
  <line class="st2" x1="134.53" y1="412.92" x2="135.09" y2="413.47"/>
  <path class="st0" d="M86.61,280.69"/>
  <circle class="st8" cx="653.83" cy="406.78" r="39.31"/>
  <circle class="st8" cx="590.17" cy="425.14" r="34.72"/>
  <circle class="st8" cx="586.38" cy="367.07" r="50.29"/>
  <circle class="st8" cx="531.1" cy="394.81" r="52.68"/>
  <circle class="st8" cx="140.36" cy="108.06" r="25.42"/>
  <circle class="st8" cx="177.86" cy="86.81" r="22.5"/>
  <circle class="st8" cx="188.98" cy="122.92" r="32.64"/>
  <circle class="st8" cx="219.81" cy="97.08" r="34.31"/>
</svg>