<?xml version="1.0" encoding="utf-8"?>
<!-- Generator: Adobe Illustrator 19.1.0, SVG Export Plug-In . SVG Version: 6.00 Build 0)  -->
<svg version="1.1" id="レイヤー_1" xmlns="http://www.w3.org/2000/svg" xmlns:xlink="http://www.w3.org/1999/xlink" x="0px"
	 y="0px" width="800px" height="494px" viewBox="822.9 225 800 494" enable-background="new 822.9 225 800 494"
	 xml:space="preserve">
<rect x="822.9" y="225" fill="#D6E3E5" width="800" height="494"/>
<g id="ID0.36702222749590874">
	<g id="ID0.7545261075720191">
		<path id="ID0.5060995277017355" fill="#75C6BA" d="M822.9,352.4l309.3-78.4l144.8,61.2l205.1-61.2l140.8,87.1l-1,226.9h-799"/>
		<path id="ID0.9662510259076953" fill="#B3E5DD" d="M914,391.4l-91.1-38.5l305.9-77.9"/>
	</g>
	<path id="ID0.6623655064031482" fill="#B3E5DD" d="M1346.3,382.1l-69.3-46.9l205.1-61.2"/>
</g>
<g id="ID0.8853806504048407" transform="matrix(1, 0, 0, 1, 0, -115)">
	<path id="ID0.6269091977737844" fill="#5A9169" d="M822.9,596.9h800v71.3h-800V596.9z"/>
	<path id="ID0.3222876023501158" fill="#5A9169" d="M1388.2,560.4c0,63.6-22.8,98.6-51,98.6c-28.2,0-51-35-51-98.6
		s22.8-131.7,51-131.7C1365.2,428.5,1388.2,496.8,1388.2,560.4z"/>
	<path id="ID0.00886155990883708" fill="#5A9169" d="M1523.2,560.4c0,63.6-22.8,98.6-51,98.6c-28.2,0-51-35-51-98.6
		s22.8-131.7,51-131.7C1500.2,428.5,1523.2,496.8,1523.2,560.4z"/>
	<path id="ID0.9853626419790089" fill="#5B4840" d="M822.9,492.5h800v86.2h-800V492.5z"/>
	<path id="ID0.7960322960279882" fill="#73767F" d="M822.9,474.2h800v86.2h-800V474.2z"/>
	<path id="ID0.8829184584319592" fill="#CCD788" d="M822.9,704.6h800v129.3h-800V704.6z"/>
	<path id="ID0.9323454569093883" fill="#664F44" d="M822.9,668.1h800v36.5h-800V668.1z"/>
	<g id="ID0.02268289402127266">
		<path id="ID0.4551069624722004" fill="#5B4840" d="M1478.9,560.4h9.5v107.7h-9.5V560.4z"/>
		<path id="ID0.541678078006953" fill="#5B4840" d="M1472,578.6l11.8-11.7l11.8,11.7l-11.8,11.7L1472,578.6z"/>
	</g>
	<g id="ID0.7420997805893421">
		<path id="ID0.941156754270196" fill="#5B4840" d="M1243.9,560.4h9.5v107.7h-9.5V560.4z"/>
		<path id="ID0.05075710965320468" fill="#5B4840" d="M1236.8,578.7l11.8-11.7l11.8,11.7l-11.8,11.7L1236.8,578.7z"/>
	</g>
	<g id="ID0.5493426732718945">
		<path id="ID0.06978146731853485" fill="#5B4840" d="M1008.7,560.4h9.5v107.7h-9.5V560.4z"/>
		<path id="ID0.10042909579351544" fill="#5B4840" d="M1001.6,578.6l11.8-11.7l11.8,11.7l-11.8,11.7L1001.6,578.6z"/>
	</g>
	<path id="ID0.7947191684506834" fill="#BAC176" d="M1271.2,833.8h-135l-133.3-129.3h135L1271.2,833.8"/>
</g>
<g id="ID0.9989744941703975">
	<g id="ID0.4975270638242364">
		<path id="ID0.05982373608276248" fill="#CCA066" d="M1546.2,531.3c0-19.6-8.9-36.1-20.8-36.1c-13.4-2.1-27.9-3.4-43.5-3.4
			c-15.9,0-31.7,1.3-44.6,3.7v60.7h103.1C1544.1,549.9,1546.2,541,1546.2,531.3z"/>
	</g>
	<g id="ID0.012600057292729616">
		<path id="ID0.24196768878027797" fill="#8E6E47" d="M1482,570.6c15.6,0,30.3-1.3,43.6-3.5c6,0,11.1-4.3,15-10.8h-103.1v10.6
			C1450.3,569.3,1466,570.6,1482,570.6z"/>
	</g>
	<g id="ID0.015295937191694975">
		<path id="ID0.4557227189652622" fill="none" d="M1438.8,495.8c5.9,0,11.3,4,15.1,10.4c3.9,6.4,6.3,15.3,6.3,25.2
			s-2.4,18.7-6.3,25.2c-3.9,6.4-9.2,10.4-15.1,10.4s-11.3-4-15.1-10.4c-3.9-6.4-6.3-15.3-6.3-25.2s2.4-18.7,6.3-25.2
			C1427.6,499.7,1432.9,495.8,1438.8,495.8z"/>
	</g>
	<g id="ID0.35103113017976284">
		<path id="ID0.3457496087066829" fill="#FFC53F" d="M1438.8,495.8c5.9,0,11.3,4,15.1,10.4c3.9,6.4,6.3,15.3,6.3,25.2
			s-2.4,18.7-6.3,25.2c-3.9,6.4-9.2,10.4-15.1,10.4s-11.3-4-15.1-10.4c-3.9-6.4-6.3-15.3-6.3-25.2s2.4-18.7,6.3-25.2
			C1427.6,499.7,1432.9,495.8,1438.8,495.8z"/>
	</g>
	<g id="ID0.9523494015447795">
		<path id="ID0.631623181514442" fill="#FFC53F" d="M1503.4,567.7v-1.6c11.3,0,20.6-15.6,20.6-34.8s-9.3-34.8-20.6-34.8v-1.6
			c12.9,0,22.2,16.3,22.2,36.4C1525.6,551.5,1516.3,567.7,1503.4,567.7z"/>
	</g>
	<g id="ID0.4014426562935114">
		<path id="ID0.23194583412259817" fill="#FFC53F" d="M1469.6,567.7v-1.6c11.3,0,20.6-15.6,20.6-34.8s-9.3-34.8-20.6-34.8v-1.6
			c11.3,0,22.2,16.3,22.2,36.4C1491.8,551.5,1480.9,567.7,1469.6,567.7z"/>
	</g>
	<g id="ID0.9501595641486347">
		<path id="ID0.5470110564492643" fill="#C49639" d="M1431.3,502.8c0.5,0,1,0.2,1.4,0.6c0.4,0.3,0.6,0.8,0.6,1.4
			c0,0.5-0.2,1-0.6,1.4c-0.3,0.4-0.8,0.6-1.4,0.6s-1-0.2-1.4-0.6c-0.4-0.3-0.6-0.8-0.6-1.4c0-0.5,0.2-1,0.6-1.4
			C1430.2,503.1,1430.7,502.8,1431.3,502.8z"/>
	</g>
	<g id="ID0.8616507253609598">
		<path id="ID0.12359098857268691" fill="#C49639" d="M1427.9,508.8c0.5,0,1,0.2,1.4,0.6c0.4,0.3,0.6,0.8,0.6,1.4s-0.2,1-0.6,1.4
			c-0.3,0.4-0.8,0.6-1.4,0.6s-1-0.2-1.4-0.6c-0.4-0.3-0.6-0.8-0.6-1.4s0.2-1,0.6-1.4C1426.9,509,1427.3,508.8,1427.9,508.8z"/>
	</g>
	<g id="ID0.0620851288549602">
		<path id="ID0.8488501608371735" fill="#C49639" d="M1433,508.8c0.5,0,1,0.2,1.4,0.6c0.4,0.3,0.6,0.8,0.6,1.4s-0.2,1-0.6,1.4
			c-0.3,0.4-0.8,0.6-1.4,0.6c-0.5,0-1-0.2-1.4-0.6c-0.4-0.3-0.6-0.8-0.6-1.4s0.2-1,0.6-1.4C1432,509,1432.5,508.8,1433,508.8z"/>
	</g>
	<g id="ID0.9172595250420272">
		<path id="ID0.8698135265149176" fill="#C49639" d="M1429.5,514.9c0.5,0,1,0.2,1.4,0.6c0.4,0.3,0.6,0.8,0.6,1.4
			c0,0.5-0.2,1-0.6,1.4c-0.3,0.4-0.8,0.6-1.4,0.6c-0.5,0-1-0.2-1.4-0.6c-0.4-0.3-0.6-0.8-0.6-1.4c0-0.5,0.2-1,0.6-1.4
			C1428.5,515.1,1429,514.9,1429.5,514.9z"/>
	</g>
	<g id="ID0.9133940655738115">
		<path id="ID0.8797971704043448" fill="#C49639" d="M1434.8,514.9c0.5,0,1,0.2,1.4,0.6c0.4,0.3,0.6,0.8,0.6,1.4
			c0,0.5-0.2,1-0.6,1.4c-0.3,0.4-0.8,0.6-1.4,0.6c-0.5,0-1-0.2-1.4-0.6c-0.4-0.3-0.6-0.8-0.6-1.4c0-0.5,0.2-1,0.6-1.4
			C1433.8,515.1,1434.3,514.9,1434.8,514.9z"/>
	</g>
	<g id="ID0.1445075306110084">
		<path id="ID0.865334358997643" fill="#C49639" d="M1431.3,521c0.5,0,1,0.2,1.4,0.6c0.4,0.3,0.6,0.8,0.6,1.4c0,0.5-0.2,1-0.6,1.4
			c-0.3,0.4-0.8,0.6-1.4,0.6s-1-0.2-1.4-0.6c-0.4-0.3-0.6-0.8-0.6-1.4c0-0.5,0.2-1,0.6-1.4C1430.2,521.2,1430.7,521,1431.3,521z"/>
	</g>
	<g id="ID0.14011558750644326">
		<path id="ID0.938392517156899" fill="#C49639" d="M1436.4,521c0.5,0,1,0.2,1.4,0.6c0.4,0.3,0.6,0.8,0.6,1.4c0,0.5-0.2,1-0.6,1.4
			c-0.3,0.4-0.8,0.6-1.4,0.6s-1-0.2-1.4-0.6c-0.4-0.3-0.6-0.8-0.6-1.4c0-0.5,0.2-1,0.6-1.4C1435.4,521.2,1435.9,521,1436.4,521z"/>
	</g>
	<g id="ID0.2191097908653319">
		<path id="ID0.42879729997366667" fill="#C49639" d="M1433,527c0.5,0,1,0.2,1.4,0.6c0.4,0.3,0.6,0.8,0.6,1.4c0,0.5-0.2,1-0.6,1.4
			c-0.3,0.4-0.8,0.6-1.4,0.6c-0.5,0-1-0.2-1.4-0.6c-0.4-0.3-0.6-0.8-0.6-1.4c0-0.5,0.2-1,0.6-1.4C1432,527.2,1432.5,527,1433,527z"
			/>
	</g>
	<g id="ID0.755729565396905">
		<path id="ID0.5284995753318071" fill="#685032" d="M1431.4,568.4h102.9v7.2h-102.9V568.4z"/>
	</g>
	<g id="ID0.15081507479771972">
		<path id="ID0.8263666825369" fill="#685032" d="M1431.4,627.3h102.9v7.2h-102.9V627.3z"/>
	</g>
	<g id="ID0.8057007784955204">
		<path id="ID0.06341137923300266" fill="#685032" d="M1452.4,575.6h4.3v55.2h-4.3V575.6z"/>
	</g>
	<g id="ID0.2830829154700041">
		<path id="ID0.82473708037287" fill="#685032" d="M1440,575.6h4.3v55.2h-4.3V575.6z"/>
	</g>
	<g id="ID0.875382571015507">
		<path id="ID0.012235810048878193" fill="#685032" d="M1520,575.6h4.3v55.2h-4.3V575.6z"/>
	</g>
	<g id="ID0.1349886958487332">
		<path id="ID0.7815293199382722" fill="#685032" d="M1507.8,575.6h4.3v55.2h-4.3V575.6z"/>
	</g>
	<g id="ID0.6319694127887487">
		<path id="ID0.09373341361060739" fill="#AA8357" d="M1431.4,568.4h15.1v7.2h-15.1V568.4z"/>
	</g>
	<g id="ID0.8156419335864484">
		<path id="ID0.8269974556751549" fill="#AA8357" d="M1431.4,627.3h15.1v7.2h-15.1V627.3z"/>
	</g>
	<g id="ID0.9519958538003266">
		<path id="ID0.8446150659583509" fill="#8E857B" d="M1437.7,497.5c5.4,0,10.2,3.7,13.8,9.7c3.5,6,5.7,14.2,5.7,23.3
			s-2.2,17.4-5.7,23.3c-3.5,6-8.4,9.7-13.8,9.7c-5.4,0-10.2-3.7-13.8-9.7c-3.5-6-5.7-14.2-5.7-23.3s2.2-17.4,5.7-23.3
			C1427.5,501.2,1432.3,497.5,1437.7,497.5z"/>
	</g>
	<g id="ID0.6540706437081099">
		<path id="ID0.8279479700140655" fill="#FFFFFF" d="M1435.1,497.5c5.4,0,10.2,3.7,13.8,9.7c3.5,6,5.7,14.2,5.7,23.3
			s-2.2,17.4-5.7,23.3c-3.5,6-8.4,9.7-13.8,9.7s-10.2-3.7-13.8-9.7c-3.5-6-5.7-14.2-5.7-23.3s2.2-17.4,5.7-23.3
			C1424.9,501.2,1429.8,497.5,1435.1,497.5z"/>
	</g>
	<g id="ID0.21811071038246155">
		<path id="ID0.5228664786554873" fill="#FFFFFF" d="M1433.7,502.5c4.1,0,7.8,3.2,10.5,8.3c2.7,5.1,4.3,12.1,4.3,19.9
			s-1.7,14.8-4.3,19.9c-2.7,5.1-6.4,8.3-10.5,8.3c-4.1,0-7.8-3.2-10.5-8.3c-2.7-5.1-4.3-12.1-4.3-19.9s1.7-14.8,4.3-19.9
			C1425.9,505.7,1429.6,502.5,1433.7,502.5z"/>
		<path id="ID0.5527891446836293" fill="#FFB955" d="M1433.7,559.7c-8.5,0-15.6-13-15.6-29s7.1-29,15.6-29s15.6,13,15.6,29
			C1449.3,546.8,1442.4,559.7,1433.7,559.7z M1433.7,503.3c-7.7,0-14,12.2-14,27.4s6.3,27.4,14,27.4s14-12.2,14-27.4
			S1441.4,503.3,1433.7,503.3z"/>
	</g>
	<g id="ID0.25685063330456614">
		<path id="ID0.0006772968918085098" fill="#FFFFFF" d="M1433.5,509c3,0,5.7,2.5,7.6,6.4s3.2,9.4,3.2,15.5c0,6-1.2,11.5-3.2,15.5
			s-4.7,6.4-7.6,6.4c-3,0-5.7-2.5-7.6-6.4s-3.2-9.4-3.2-15.5c0-6,1.2-11.5,3.2-15.5S1430.5,509,1433.5,509z"/>
		<path id="ID0.20967871695756912" fill="#FFB955" d="M1433.5,553.4c-6.4,0-11.6-10-11.6-22.7s5-22.7,11.6-22.7
			c6.6,0,11.6,10,11.6,22.7S1440.1,553.4,1433.5,553.4z M1433.5,509.8c-5.3,0-10,9.7-10,21.1c0,11.4,4.5,21.1,10,21.1
			c5.5,0,10-9.7,10-21.1C1443.5,519.4,1439,509.8,1433.5,509.8z"/>
	</g>
	<g id="ID0.8322631265036762">
		<path id="ID0.5617882548831403" fill="#FFFFFF" d="M1433.5,516.4c1.8,0,3.4,1.7,4.6,4.5c1.2,2.8,1.9,6.6,1.9,10.8s-0.7,8-1.9,10.8
			c-1.2,2.8-2.8,4.5-4.6,4.5s-3.4-1.7-4.6-4.5c-1.2-2.8-1.9-6.6-1.9-10.8s0.7-8,1.9-10.8C1430.1,518.1,1431.7,516.4,1433.5,516.4z"
			/>
		<path id="ID0.8206109777092934" fill="#FFB955" d="M1433.5,547.8c-4,0-7.2-7.1-7.2-16.1c0-9,3.2-16.1,7.2-16.1
			c4,0,7.2,7.1,7.2,16.1C1440.8,540.7,1437.5,547.8,1433.5,547.8z M1433.5,517.2c-2.7,0-5.6,6-5.6,14.5s3.1,14.5,5.6,14.5
			s5.6-6,5.6-14.5S1436.3,517.2,1433.5,517.2z"/>
	</g>
	<g id="ID0.6455950317904353">
		<path id="ID0.7303419299423695" fill="#FFB955" d="M1433.5,526.5c0.7,0,1.3,0.6,1.7,1.6c0.4,1,0.7,2.3,0.7,3.8s-0.3,2.8-0.7,3.8
			c-0.4,1-1,1.6-1.7,1.6s-1.3-0.6-1.7-1.6c-0.4-1-0.7-2.3-0.7-3.8s0.3-2.8,0.7-3.8C1432.2,527.1,1432.9,526.5,1433.5,526.5z"/>
	</g>
	<g id="ID0.17935566697269678">
		<path id="ID0.6172942575067282" fill="#BAC176" d="M1431.3,634.6l78.1,84.4h112.7l-87.8-84.4"/>
	</g>
</g>
<g id="ID0.2000621948391199" transform="matrix(1, 0, 0, 1, 0, 36)">
	<path id="ID0.28666969994083047" d="M1101.2,680.7H823.1V565.4h159.7L1101.2,680.7"/>
	<path id="ID0.9565566782839596" fill="#75653E" d="M1101.2,665.9H823.1V550.6h159.7L1101.2,665.9"/>
</g>
<g id="ID0.20201838249340653" transform="matrix(1, 0, 0, 1, 12, 0.75)">
	<path id="ID0.7028361768461764" d="M847.5,603.9c4.9,0,9.3,0.2,12.5,0.5c3.2,0.3,5.2,0.8,5.2,1.3c0,0.5-2,0.9-5.2,1.3
		c-3.2,0.3-7.7,0.5-12.5,0.5s-9.3-0.2-12.5-0.5c-3.2-0.3-5.2-0.8-5.2-1.3c0-0.5,2-0.9,5.2-1.3C838.2,604.1,842.6,603.9,847.5,603.9z
		"/>
	<path id="ID0.3570340811274946" fill="#934E41" d="M831.8,536.2h22.8v66h-22.8V536.2z"/>
	<path id="ID0.4206189760006964" fill="#EFB245" d="M831.8,532.8h3v72.8h-3V532.8z"/>
	<path id="ID0.04889037553220987" fill="#EFB245" d="M851.6,532.8h3v72.8h-3V532.8z"/>
	<path id="ID0.260496174916625" fill="#EFB245" d="M834.8,578.8h16.7v23.4h-16.7V578.8z"/>
	<path id="ID0.3383683105930686" fill="#EFB245" d="M834.8,536.2h16.7v3.5h-16.7V536.2z"/>
	<path id="ID0.6946889623068273" fill="#873C2D" d="M834.8,539.9h0.7v38.9h-0.7V539.9z"/>
	<path id="ID0.5434539266861975" fill="#8C6B35" d="M834.8,602.2h1.3v3.4h-1.3V602.2z"/>
	<path id="ID0.6003156565129757" fill="#8C6B35" d="M854.6,532.8h8.7v72.8h-8.7V532.8z"/>
	<path id="ID0.08837898261845112" fill="#8C6B35" d="M834.8,532.8h1.3v3.4h-1.3V532.8z"/>
</g>
<g>
	<g id="ID0.11052931472659111" transform="matrix(1.03413987159729, 0, 0, 1.03413987159729, -0.75, 0)">
		<path id="ID0.7205556561239064" fill="#231815" d="M905.6,596.1c7.7,0,14.6,0.8,19.6,2.1c5,1.3,8.1,3.1,8.1,5.2s-3.1,3.8-8.1,5.2
			c-5,1.3-12,2.1-19.6,2.1c-7.7,0-14.6-0.8-19.6-2.1c-5-1.3-8.1-3.1-8.1-5.2s3.1-3.8,8.1-5.2C891,597,897.9,596.1,905.6,596.1z"/>
		<path id="Front_Leg_8_" fill="#F05A28" stroke="#000000" stroke-linecap="round" d="M902.8,592.2l-7.7,9.3c0,0,7.5,6.1,8.1,4.9
			c0.6-1.3-2.6-4-2.6-4l5.6-7.7"/>
		<path id="Back_Arm_5_" fill="#F05A28" stroke="#000000" stroke-linecap="round" d="M931.5,579.3c0,0,6.7-1.9,7.7,1.5
			c0.6,1.9-2.3,3.1-3.3,3.4c-1.4,0.4-1.8,0.6-3.3,0.3c-1.5-0.4-18.7-1.5-20.5-2.4c-2.8-1.5-6.9-5.2,0.4-4.2c0,0,15.9,0.9,18.6,1.5
			L931.5,579.3L931.5,579.3L931.5,579.3L931.5,579.3z"/>
		<path id="Body_5_" fill="#F05A28" stroke="#000000" stroke-linecap="round" d="M913.8,585.9c-0.1-1.1,0.8-7.1,1-8.2
			c0,0,1.8-4.7-5.2-5.4c-3.9-0.4-6.3,1.3-6.8,2.9c-0.5,1.5-1.5,5.8-1.5,5.8s-1.6,4.9-2.2,6.5c-0.8,2.4-2.5,8.6,7.1,8.6
			c0,0,7.4-0.1,7.9-6.7c0.1-1.3-0.1-2.4-0.4-3.4L913.8,585.9L913.8,585.9L913.8,585.9L913.8,585.9z"/>
		<path id="Front_Leg_6_" fill="#F05A28" stroke="#000000" stroke-linecap="round" d="M905.7,595l6.9,11.8c0,0,8.6-4.6,7.6-5.7
			c-0.9-1.1-4.7,0.8-4.7,0.8l-6.3-9.3"/>
		<path id="Front_Arm_5_" fill="#F05A28" stroke="#000000" stroke-linecap="round" d="M903.1,575.9c0,0-5.6,0.8-7.8,0.1
			c-2.7-1-5.8-2.7-7.2-1.8c-0.9,0.7-2.1,2.3,3.7,5.8c4.7,2.9,8.6,2.3,11.2,1.5"/>
		<g id="Head_8_">
			<path id="Head_9_" fill="#F05A28" stroke="#000000" stroke-linecap="round" d="M882.6,535.9c0,0,0.6-2.4,5.5-7.5
				c4.9-5.1,10.3-6.8,13.8-8.3c3.5-1.5,5.9-8.7,5.9-8.7s3.3,4.1,6.6,7.8c3.4,3.8,11.4,7.1,20,15.7c1,1,1.9,2.1,2.7,3.2l0.1,0.1
				c1.9,1.7,8.7,8.3,7.8,17.9c-0.7,7.3-4,9.7-5.6,10.3v0.1c0.8-1.7,1.3-3.4,1.5-5.2c0.8-5.8-2.4-9.7-4.4-14.8
				c-2.7-6.6-9.8-10.4-19.2-10.2c-17.8,0.4-21.7,10.3-21.7,10.3v0.1c3.3,6.1,4.6,19.7-2.2,23.7c-7.2,4.3-17.9,2.8-22.1-14.1
				c-3.8-15.5,7.7-20.3,11-20.3L882.6,535.9L882.6,535.9L882.6,535.9L882.6,535.9z M937.1,538.1c0,0,4.7,7.4,3.1,16.6 M882.4,536.2
				c3.3,0.1,5.4,2.4,5.4,2.4 M895.7,546.8c-0.6-0.8-0.9-1.5-0.9-1.5"/>
			<path id="R_Ear_3_" fill="#404041" stroke="#000000" d="M940.5,564c0,0,1.5-2.7,2.4-7.5c1-4.9-0.4-11.5-0.4-11.5
				c1.7,3,2.9,6.8,2.5,11.3c-0.6,7.2-4,9.6-5.6,10.3L940.5,564L940.5,564L940.5,564L940.5,564z"/>
			<g id="L_Ear_3_">
				<path id="Outer_Ear_3_" fill="#404041" stroke="#231F20" d="M871.8,558c0.8,2.9,2.5,6.3,3.4,7.9c0.9,1.5,3,4,5.6,5.4
					c2.6,1.4,3.8,1.3,3.8,1.3c3.8-1.8,5.3-9.5,3.3-17.8c-2.2-8.9-7.5-15.2-11.8-14.1c-2.4,0.6-4.4,2.9-5.1,6.6
					C870.4,550.6,871.1,555.1,871.8,558L871.8,558L871.8,558L871.8,558z"/>
				<path id="Inner_Ear_3_" fill="#929497" stroke="#231F20" stroke-linecap="round" d="M874.5,550.6c1.7-0.7,4.5,2.2,6.4,6.5
					c1.9,4.3,1.9,8.4,0.3,9.1c-1.7,0.7-4.5-2.2-6.4-6.5C873,555.4,872.8,551.4,874.5,550.6L874.5,550.6L874.5,550.6L874.5,550.6z
					 M881.9,565.6c-7-4.4-6.9-15-6.9-15"/>
			</g>
			<path id="Face_4_" fill="#E6E7E8" stroke="#000000" stroke-linecap="round" d="M893,570.9c0.8,0.6,6.8,4.6,13.4,6.2
				c4.3,1.1,3.3,3.2,3.3,3.2s0.1-0.6,3.6-2.1c3.3-1.5,3-0.1,13-2.6c10.1-2.4,14-8.2,14.8-14.3c0.8-5.8-2.4-9.7-4.4-14.8
				c-2.7-6.6-9.8-10.4-19.2-10.2c-17.8,0.4-21.7,10.3-21.7,10.3v0.1c3.3,6.1,4.6,19.7-2.1,23.7C893.4,570.7,893.2,570.8,893,570.9
				L893,570.9L893,570.9L893,570.9L893,570.9z"/>
			<path id="Smile_3_" fill="#FFFFFF" stroke="#000000" stroke-width="1.0904" stroke-linecap="round" d="M920,569.6
				c-7.9,0.6-8.9-9.8-8.9-9.8s4.5-0.1,10.4-0.5s7.2,0,7.2,0S928,569,920,569.6L920,569.6L920,569.6L920,569.6z"/>
			<path id="R_Eye_3_" d="M932.1,553.4c-0.1,0-0.2,0-0.3-0.1c-0.6-0.1-0.9-0.8-0.7-1.3c0.1-0.3,0.1-0.6,0.1-0.8
				c-0.1-1-1.1-1.8-2.2-1.5c-1,0.1-1.8,1.1-1.6,2.2c0.1,0.6-0.3,1.1-0.9,1.2c-0.6,0.1-1.1-0.3-1.2-0.9c-0.4-2.2,1.2-4.2,3.3-4.6
				c2.2-0.4,4.2,1.1,4.6,3.3c0.1,0.6,0.1,1.2-0.1,1.8C933,553.1,932.6,553.4,932.1,553.4L932.1,553.4L932.1,553.4L932.1,553.4
				L932.1,553.4z"/>
			<path id="L_Eye_3_" d="M911.8,553.4c-0.1,0-0.2,0-0.3-0.1c-0.6-0.1-0.9-0.8-0.7-1.3c0.1-0.3,0.1-0.6,0.1-0.8
				c-0.1-1-1.1-1.8-2.2-1.5c-1,0.1-1.8,1.1-1.6,2.2c0.1,0.6-0.3,1.1-0.9,1.2c-0.6,0.1-1.1-0.3-1.2-0.9c-0.4-2.2,1.2-4.2,3.3-4.6
				c2.2-0.4,4.2,1.1,4.6,3.3c0.1,0.6,0.1,1.2-0.1,1.8C912.7,553.1,912.3,553.4,911.8,553.4L911.8,553.4L911.8,553.4L911.8,553.4
				L911.8,553.4z"/>
		</g>
		<path id="ID0.9781637457199395" fill="none" stroke="#FFFFFF" stroke-width="7.1202" stroke-linecap="round" d="M916.8,543.9
			c11.8,0,21.3,12.7,21.3,28.3s-9.5,28.3-21.3,28.3"/>
		<path id="ID0.8891274142079055" fill="none" stroke="#9B5424" stroke-width="7.1202" stroke-linecap="round" d="M918.9,543.9
			c11.8,0,21.3,12.7,21.3,28.3s-9.5,28.3-21.3,28.3"/>
		<path id="ID0.7507199752144516" fill="#F6FC00" stroke="#231815" d="M912.5,509.4l-3.5-2.9l0,0l0,0l0,0l0,0l-3.5,2.9l-8.5-2.9
			l1.5,17.8H909l0,0h10.5l1.5-17.8L912.5,509.4"/>
	</g>
	<g>
		<g>
			<rect x="925" y="592" width="116" height="3.1"/>
		</g>
		<g>
			<rect x="920" y="588.9" width="22" height="3.1"/>
		</g>
		<g>
			<rect x="920" y="595" width="22" height="3.1"/>
		</g>
		<g>
			<rect x="937" y="588.9" fill="#FF4B00" width="5" height="3.1"/>
		</g>
		<g>
			<rect x="928.5" y="588.9" fill="#FF4B00" width="5" height="3.1"/>
		</g>
		<g>
			<rect x="920" y="588.9" fill="#FF4B00" width="5" height="3.1"/>
		</g>
		<g>
			<rect x="937" y="595" fill="#FF4B00" width="5" height="3.1"/>
		</g>
		<g>
			<rect x="928.5" y="595" fill="#FF4B00" width="5" height="3.1"/>
		</g>
		<g>
			<rect x="920" y="595" fill="#FF4B00" width="5" height="3.1"/>
		</g>
		<g>
			<rect x="1034.6" y="592" fill="#FF152E" width="6.4" height="3.1"/>
		</g>
	</g>
</g>
</svg>
