<?xml version="1.0" encoding="UTF-8"?>
<svg id="_レイヤー_1" data-name="レイヤー_1" xmlns="http://www.w3.org/2000/svg" version="1.1" viewBox="0 0 800 500">
  <!-- Generator: Adobe Illustrator 30.1.0, SVG Export Plug-In . SVG Version: 2.1.1 Build 136)  -->
  <defs>
    <style>
      .st0, .st1 {
        fill: none;
      }

      .st2 {
        fill: #17305d;
      }

      .st3 {
        fill: #7fb495;
      }

      .st4 {
        stroke-width: 2px;
      }

      .st4, .st5 {
        stroke: #231815;
      }

      .st4, .st5, .st6 {
        fill: #fff;
      }

      .st7 {
        fill: #35464e;
      }

      .st8 {
        fill: #232f36;
      }

      .st9 {
        fill: #6ccef4;
      }

      .st10 {
        fill: #c58d2d;
      }

      .st11 {
        fill: #d53a32;
      }

      .st12 {
        fill: #ecae32;
      }

      .st13 {
        fill: #929292;
      }

      .st1 {
        stroke: #fff;
        stroke-width: 4px;
      }

      .st14 {
        fill: #c7c8c8;
      }

      .st15 {
        fill: #326f36;
      }

      .st16 {
        fill: #97c496;
      }

      .st17 {
        fill: #be6036;
      }

      .st18 {
        fill: #7d4e22;
      }

      .st19 {
        fill: #ed784a;
      }

      .st20 {
        fill: #dc9475;
      }

      .st21 {
        fill: #41aee4;
      }

      .st22 {
        fill: #4ca64f;
      }

      .st23 {
        fill: #bc8292;
      }

      .st24 {
        fill: #c0c7d4;
      }

      .st25 {
        fill: #e4e9f5;
      }

      .st26 {
        fill: #d0bbc2;
      }

      .st27 {
        fill: #e27337;
      }

      .st28 {
        fill: #325185;
      }

      .st29 {
        fill: #dadbda;
      }

      .st30 {
        fill: #000e16;
      }

      .st31 {
        fill: #116936;
      }
    </style>
  </defs>
  <path id="ID0.25681753968819976" class="st21" d="M-2-66h810.45v607.84H-2V-66Z"/>
  <path id="ID0.034987956285476685" class="st9" d="M808.45,134.92L-2,17.41v-83.41h810.45v200.92"/>
  <path id="ID0.2654849220998585" class="st1" d="M537.29,288.57h-52.34"/>
  <path id="ID0.9231962179765105" class="st1" d="M570.72,301.91h-85.77"/>
  <path id="ID0.06267307512462139" class="st1" d="M585.24,315.08h-100.29"/>
  <path id="ID0.8436748911626637" class="st1" d="M594.86,328.42h-109.92"/>
  <path id="ID0.21080965409055352" class="st1" d="M597.73,341.76h-112.79"/>
  <path id="ID0.23036108631640673" class="st1" d="M598.74,355.09h-113.8"/>
  <path id="ID0.4171765176579356" class="st1" d="M598.74,368.43h-113.8"/>
  <path id="ID0.49595516826957464" class="st1" d="M598.74,381.77h-113.8"/>
  <path id="ID0.43335262034088373" class="st1" d="M598.74,395.11h-113.8"/>
  <path id="ID0.3423920520581305" class="st1" d="M597.73,408.45h-112.79"/>
  <path id="ID0.23028379352763295" class="st1" d="M598.74,421.79h-113.8"/>
  <path id="ID0.5935345757752657" class="st1" d="M597.73,435.13h-112.79"/>
  <path id="ID0.6498273252509534" class="st6" d="M599.93,449.65h-113.8v-4.05h109.75v-99.11c0-19.25-15.03-40.35-33.43-46.77l-74.12-26.17,1.35-3.71,74.12,26.17c19.92,7.09,36.13,29.72,36.13,50.65v102.99Z"/>
  <path id="ID0.9849815536290407" class="st13" d="M480.55,450.15v-181h10.47v181h-10.47"/>
  <path id="ID0.012888346798717976" class="st14" d="M480.55,269.15h5.23v181h-5.23v-181Z"/>
  <path id="ID0.49831925705075264" class="st1" d="M503.69,277.76v168.17"/>
  <path id="ID0.5288419616408646" class="st1" d="M516.69,282.32v163.61"/>
  <path id="ID0.21585905505344272" class="st1" d="M529.86,286.38v159.56"/>
  <path id="ID0.40872239135205746" class="st1" d="M543.03,290.43v155.5"/>
  <path id="ID0.6917567099444568" class="st1" d="M556.03,295.49v150.44"/>
  <path id="ID0.9869753522798419" class="st1" d="M569.2,300.73v145.21"/>
  <path id="ID0.805024400819093" class="st1" d="M582.37,309.84v136.09"/>
  <path id="ID0.9425150617025793" class="st0" d="M264.1,313.56h0v10.97h0v-10.97Z"/>
  <path id="ID0.7921987273730338" class="st0" d="M287.57,301.91l-6.92,5.07h0l6.92-5.07"/>
  <path id="ID0.5937328604049981" class="st0" d="M253.5,326.56l-6.14,4.48h0l6.14-4.48h0Z"/>
  <path id="ID0.3455303404480219" class="st23" d="M9.14,232.51v-62.98l-11.14-11.14v74.12h11.14"/>
  <path id="ID0.8111109808087349" class="st22" d="M247.55,331.12l-71.08,51.83,71.08-51.83h0"/>
  <path id="ID0.9456407870166004" class="st25" d="M30.92,342.26l7.6,6.08c16.04,12.49,42.21,12.49,58.25,0l27.52-21.61H9.14v6.42c8.1,1.35,15.7,4.39,21.78,9.12Z"/>
  <path id="ID0.5633817031048238" class="st25" d="M129.87,322.17l23.98-18.91c16.04-12.49,42.21-12.49,58.25,0l23.98,18.91h23.3l8.78-6.42v-83.41H9.14v89.82h120.72Z"/>
  <path id="ID0.10233419528231025" class="st25" d="M253.63,326.56h-11.65l5.57,4.56,6.08-4.56"/>
  <path id="ID0.019537835847586393" class="st25" d="M287.57,301.91c21.78-15.87,56.39-14.86,76.82,2.19l9.79,8.27c5.4,4.56,11.65,7.77,18.24,9.96h37.65c6.75-2.19,13-5.4,18.24-9.96l69.73-58.59v-21.44h-237.39v74.46l6.92-4.9Z"/>
  <path id="ID0.863265453837812" class="st26" d="M-2,232.51h11.14v89.82H-2v-89.82Z"/>
  <path id="ID0.32586867175996304" class="st26" d="M9.14,333.15v-6.42H-2v5.74c3.71-.17,7.43,0,11.14.68Z"/>
  <path id="ID0.7520510302856565" class="st3" d="M38.52,348.17l-7.6-6.08c-6.08-4.73-13.68-7.77-21.61-9.12v67.37l11.14,6.75h156.18v-24.31l71.08-51.83-5.57-4.39h-117.85l-27.52,21.61c-16.04,12.66-42.21,12.66-58.25,0Z"/>
  <path id="ID0.8576293871738017" class="st3" d="M212.26,303.43c-16.04-12.49-42.21-12.49-58.25,0l-23.98,18.91h106.37l-24.14-18.91Z"/>
  <path id="ID0.9886199603788555" class="st3" d="M9.14,400.51v-67.37c-3.71-.68-7.43-.84-11.14-.68v61.46l11.14,6.58Z"/>
  <path id="ID0.7085113972425461" class="st16" d="M20.29,407.27l-11.14-6.75v6.75h11.14"/>
  <path id="ID0.35399039881303906" class="st16" d="M-2,407.27h11.14v-6.75l-11.14-6.75v13.51"/>
  <path id="ID0.9265371146611869" class="st31" d="M771.98,365.06l40.18,34.95v-49.64l-40.18,14.69"/>
  <path id="ID0.980573832988739" class="st31" d="M554.17,303.43c12.49-12.49,33.09-12.49,45.76,0l44.91,44.91c12.49,12.49,33.09,12.49,45.76,0l6.08-6.08c1.18-1.18,2.36-2.19,3.71-3.21l-104.68-87.97c-17.73-14.86-45.08-16.88-65.34-5.91v82.23l23.81-23.98Z"/>
  <path id="ID0.8501390754245222" class="st22" d="M791.56,415.88c18.57,15.7,14.52,28.7-8.27,30.9h28.7v-26.17l-51.83-30.9,31.4,26.17Z"/>
  <path id="ID0.0952228750102222" class="st22" d="M771.98,365.06l-28.2-24.48c-12.16-10.64-30.73-10.97-43.56-1.52l43.56,36.47,28.2-10.47Z"/>
  <path id="ID0.5202228645794094" class="st22" d="M743.61,375.52l16.55,14.01,52,30.9v-20.43l-40.18-34.95-28.37,10.47"/>
  <path id="ID0.504894366953522" class="st22" d="M690.43,348.17c-12.49,12.49-33.09,12.49-45.76,0l-44.91-44.91c-12.49-12.49-33.09-12.49-45.76,0l-23.98,23.98v119.37h72.6v-.68h-1.35v-3.38h1.35v-.84h12.16v4.9h1.52v-11.99h.84v-1.35h3.38v1.35h.84v11.99h19.42v-10.81c-11.48-1.35-20.26-10.97-20.26-22.79,0-12.66,10.3-22.96,22.96-22.96s22.96,10.3,22.96,22.96c0,11.82-8.78,21.44-20.26,22.79v10.81h74.29v-10.81c-11.48-1.35-20.26-10.97-20.26-22.79,0-12.66,10.3-22.96,22.96-22.96s22.96,10.3,22.96,22.96c0,11.82-8.78,21.44-20.26,22.79v10.81h57.58c22.79-2.19,26.85-15.2,8.27-30.9l-31.4-26.34-20.77-12.33,4.22-1.52-43.56-36.47c-1.35,1.01-2.53,2.03-3.71,3.21l-6.08,5.91Z"/>
  <path id="ID0.4551859865896404" class="st22" d="M760.16,389.54l-16.55-14.01-4.22,1.52,20.77,12.49"/>
  <path id="ID0.08488722378388047" class="st3" d="M518.04,253.79l-69.73,58.59c-5.4,4.56-11.65,7.77-18.24,9.96h87.97v-68.55Z"/>
  <path id="ID0.3335555540397763" class="st3" d="M280.64,356.95l63.99,50.32h105.53l67.87-67.87v-12.83h-237.39v30.39"/>
  <path id="ID0.5400273837149143" class="st3" d="M280.64,322.17h111.77c-6.75-2.19-13-5.4-18.24-9.96l-9.79-8.1c-20.43-17.22-55.04-18.24-76.82-2.19l-7.09,5.07v15.2h.17Z"/>
  <path id="ID0.6264117546379566" class="st3" d="M268.49,347.5v-20.94h-14.86l-6.08,4.56,20.94,16.38"/>
  <path id="ID0.7861242280341685" class="st3" d="M268.49,315.75l-8.95,6.42h8.95v-6.42"/>
  <path id="ID0.7027369253337383" class="st3" d="M344.64,407.27l-63.99-50.32v50.32h63.99"/>
  <path id="ID0.8106050873175263" class="st3" d="M268.49,347.5l-20.94-16.38-71.08,51.83v24.31h92.02v-59.77Z"/>
  <path id="ID0.15112774493172765" class="st16" d="M518.04,407.27v-67.87l-67.87,67.87h67.87"/>
  <path id="ID0.15262523107230663" class="st24" d="M521.25,251.09c2.7-2.36,5.74-4.22,8.95-5.91v-12.66h-12.16v21.44l3.21-2.87Z"/>
  <path id="ID0.2045748750679195" class="st24" d="M518.04,253.79v85.6l12.16-12.16v-82.23c-3.21,1.69-6.08,3.71-8.95,5.91l-3.21,2.87Z"/>
  <path id="ID0.5259801335632801" class="st24" d="M530.02,407.27v-79.86l-11.99,11.99v67.87h11.99"/>
  <path id="ID0.5591418431140482" class="st25" d="M126.32,171.9v8.78h47.95v-56.39H57.1v56.39h47.78v-8.78h21.44"/>
  <path id="ID0.908475405536592" class="st25" d="M104.88,180.68h21.44v51.67h-21.44v-51.67Z"/>
  <path id="ID0.10688470583409071" class="st25" d="M104.88,171.9h21.44v8.78h-21.44v-8.78Z"/>
  <path id="ID0.1295968289487064" class="st25" d="M428.04,171.9v8.78h52.51v-56.39h-117.18v56.39h43.39v-8.78h21.27"/>
  <path id="ID0.028005214408040047" class="st25" d="M406.77,180.68h21.44v51.67h-21.44v-51.67Z"/>
  <path id="ID0.17763061309233308" class="st25" d="M406.77,171.9h21.44v8.78h-21.44v-8.78Z"/>
  <path id="ID0.11898118676617742" class="st27" d="M431.59,467.71v76.32h161.08l-80.54-76.32h-80.54"/>
  <path id="ID0.7283566817641258" class="st27" d="M592.67,467.71h219.5v76.49h-219.5v-76.49Z"/>
  <path id="ID0.9520187103189528" class="st20" d="M442.73,446.95h-11.14v20.77h80.54l-21.61-20.77h-47.78"/>
  <path id="ID0.8183413948863745" class="st20" d="M779.74,446.95h-187.08v20.6h219.5v-20.94h-27.01c-1.86.34-3.55.34-5.4.34Z"/>
  <path id="ID0.8233378687873483" class="st20" d="M431.59,446.78v.34h11.14c-1.86,0-3.55-.17-5.07-.34h-6.08Z"/>
  <path id="ID0.028455513063818216" class="st20" d="M442.73,446.95h47.61-47.61Z"/>
  <path id="ID0.5714996722526848" class="st20" d="M592.67,446.95h187.08c1.86,0,3.55-.17,5.23-.34h-1.69c-2.19.17-4.56.34-7.09.34h-183.53Z"/>
  <path id="ID0.6291631571948528" class="st20" d="M720.31,446.78h-99.11v.17h-5.07v-.17h-1.52v.17h-12.16v-.17h-10.13v.34h183.53c2.53,0,4.9-.17,7.09-.34h-62.64Z"/>
  <path id="ID0.9308411017991602" class="st20" d="M437.67,446.78c1.52.17,3.21.34,5.07.34h47.61l-.34-.34h-52.34Z"/>
  <path id="ID0.6881240932270885" class="st2" d="M118.89,467.71H-2v76.49h433.59v-76.49H118.89ZM168.03,524.28c-1.86,0-3.55-.84-4.73-2.19-1.18,1.35-3.04,2.19-4.9,2.19-3.71,0-6.75-3.04-6.75-6.75s3.04-6.75,6.75-6.75c.51,0,1.01,0,1.52.17-.17-.34-.17-.84-.17-1.18h0c0-3.04,2.36-5.4,5.4-5.4s5.4,2.36,5.4,5.4h0c0,.84-.17,1.52-.51,2.19,2.53.84,4.22,3.21,4.22,5.91.17,3.55-2.7,6.42-6.25,6.42ZM390.56,494.73c-5.57,0-10.13-4.56-10.13-10.13s4.56-10.13,10.13-10.13,10.13,4.56,10.13,10.13-4.56,10.13-10.13,10.13ZM410.65,494.73h-3.71v-20.09h3.71v20.09Z"/>
  <path id="ID0.6164071806706488" class="st2" d="M170.22,511.95c.34-.68.51-1.35.51-2.19h0c0-3.04-2.36-5.4-5.4-5.4s-5.4,2.36-5.4,5.4h0c0,.51,0,.84.17,1.18-.51-.17-1.01-.17-1.52-.17-3.71,0-6.75,3.04-6.75,6.75s3.04,6.75,6.75,6.75c1.86,0,3.71-.84,4.9-2.19,1.18,1.35,2.87,2.19,4.73,2.19,3.55,0,6.25-2.87,6.25-6.25,0-2.87-1.86-5.23-4.22-6.08Z"/>
  <path id="ID0.8677916685119271" class="st2" d="M390.56,474.47c2.79,0,5.33,1.13,7.16,2.97,1.83,1.84,2.97,4.37,2.97,7.16s-1.13,5.33-2.97,7.16c-1.84,1.83-4.37,2.97-7.16,2.97s-5.33-1.13-7.16-2.97c-1.83-1.84-2.97-4.37-2.97-7.16s1.13-5.33,2.97-7.16c1.84-1.83,4.37-2.97,7.16-2.97Z"/>
  <path id="ID0.9983396399766207" class="st2" d="M407.11,474.64h3.71v20.09h-3.71v-20.09Z"/>
  <path id="ID0.5776256560347974" class="st28" d="M354.09,446.95H118.89v20.77h312.7v-20.77h-77.5"/>
  <path id="ID0.9959000120870769" class="st28" d="M32.78,446.95H-2v20.77h114.31v-20.77H32.78"/>
  <path id="ID0.9487342070788145" class="st28" d="M221.72,446.78h-102.83v.34h235.37-125.11c-2.53-.17-5.07-.17-7.43-.34Z"/>
  <path id="ID0.20381502294912934" class="st28" d="M41.06,446.78c-2.53.17-5.4.34-8.44.34h79.69v-.34H41.06Z"/>
  <path id="ID0.8845309442840517" class="st28" d="M-2,446.95h34.78H-2"/>
  <path id="ID0.8752221749164164" class="st28" d="M-2,446.78v.34h34.78c3.04,0,5.74-.17,8.44-.34H-2Z"/>
  <path id="ID0.6549693257547915" class="st28" d="M360.51,446.78c-2.03.17-4.05.34-6.42.34h77.5v-.34h-71.08Z"/>
  <path id="ID0.25348418625071645" class="st28" d="M221.72,446.78c2.36.17,4.9.34,7.26.34h125.11c2.36,0,4.39-.17,6.42-.34h-138.79Z"/>
  <path id="ID0.29472631588578224" class="st14" d="M112.31,446.95h6.58v20.6h-6.58v-20.6Z"/>
  <path id="ID0.8860441860742867" class="st14" d="M112.31,446.78h6.58v.34h-6.58v-.34Z"/>
  <path id="ID0.41981142153963447" class="st17" d="M512.13,467.71l80.54,76.32v-76.32h-80.54"/>
  <path id="ID0.6283904840238392" class="st17" d="M512.13,467.71h80.54v-20.77h-102.15l21.61,20.77"/>
  <path id="ID0.01778012840077281" class="st17" d="M541.51,395.95h0v102.15h0v-102.15Z"/>
  <path id="ID0.5416061468422413" class="st17" d="M490.52,446.95h102.15v-.17h-102.49l.34.17"/>
  <path id="ID0.5258360733278096" class="st7" d="M176.47,446.61v-39.34H20.29l28.03,16.88c18.74,11.31,15.03,20.77-7.26,22.46h180.66c-.51,0-.84,0-1.35-.17h-43.9v.17Z"/>
  <path id="ID0.17536007659509778" class="st7" d="M48.48,424.15l-28.03-16.88h-11.31v5.57H-2v33.77h43.06c22.29-1.69,26.17-11.14,7.43-22.46Z"/>
  <path id="ID0.9131109514273703" class="st7" d="M-2,407.27h11.14v5.57H-2v-5.57Z"/>
  <path id="ID0.3582127634435892" class="st7" d="M360.51,446.78h77.16c-13.51-1.86-15.7-11.31-4.39-22.46l16.88-16.88h-105.53l21.61,16.88c14.35,11.14,11.48,20.6-5.74,22.46Z"/>
  <path id="ID0.36075888900086284" class="st7" d="M268.49,407.27h-92.02v39.34h43.9c.51,0,.84,0,1.35.17h138.79c17.05-1.86,20.09-11.31,5.57-22.46l-21.61-16.88h-75.98v-.17Z"/>
  <path id="ID0.3067336296662688" class="st2" d="M323.53,449.48c7.69,0,14.65.89,19.69,2.32,5.04,1.44,8.17,3.42,8.17,5.61s-3.12,4.17-8.17,5.61c-5.04,1.44-12.01,2.32-19.69,2.32s-14.65-.89-19.69-2.32c-5.04-1.44-8.17-3.42-8.17-5.61s3.12-4.17,8.17-5.61c5.04-1.44,12.01-2.32,19.69-2.32Z"/>
  <path id="ID0.032750445418059826" class="st7" d="M450.16,407.27l-16.88,16.88c-11.31,11.31-8.95,20.77,4.39,22.46h92.36v-39.51h-79.86v.17Z"/>
  <path id="ID0.31186576606705785" class="st24" d="M274.57,303.94h0v15.03h0v-15.03Z"/>
  <path id="ID0.7784415790811181" class="st24" d="M280.64,306.97v-74.46h-12.16v83.24l12.16-8.78"/>
  <path id="ID0.23990077199414372" class="st24" d="M280.64,322.17v-15.2l-12.16,8.78v6.42h12.16"/>
  <path id="ID0.5989453135989606" class="st24" d="M268.49,347.5l12.16,9.46v-30.39h-12.16v20.94"/>
  <path id="ID0.40540334675461054" class="st24" d="M268.49,407.27h12.16v-50.32l-12.16-9.46v59.77"/>
  <path id="ID0.6091080717742443" class="st24" d="M259.55,322.26l-6,4.38h0l6-4.38h0Z"/>
  <path id="ID0.765984651632607" class="st24" d="M430.07,322.17h-37.65c12.16,3.88,25.5,3.88,37.65,0Z"/>
  <path id="ID0.0022223563864827156" class="st24" d="M124.29,326.56l5.57-4.39H9.14v4.39h115.15"/>
  <path id="ID0.34490958834066987" class="st24" d="M253.63,326.56l5.91-4.39h-23.3l5.74,4.39h11.65"/>
  <path id="ID0.034225284587591887" class="st24" d="M-2,322.17h11.14v4.39H-2v-4.39Z"/>
  <path id="ID0.1881755106151104" class="st24" d="M241.98,326.56l-5.74-4.39h-106.37l-5.57,4.39h117.68"/>
  <path id="ID0.9336578901857138" class="st24" d="M280.64,326.56h237.39v-4.39h-87.97c-12.16,3.88-25.5,3.88-37.65,0h-111.77v4.39Z"/>
  <path id="ID0.09514665696769953" class="st1" d="M537.29,295.32h-49.3"/>
  <path id="ID0.6281425021588802" class="st1" d="M568.69,307.82h-80.71"/>
  <path id="ID0.224799950607121" class="st1" d="M582.37,320.31h-94.38"/>
  <path id="ID0.21245208010077477" class="st1" d="M591.31,332.98h-103.33"/>
  <path id="ID0.8098201085813344" class="st1" d="M594.02,345.47h-106.03"/>
  <path id="ID0.41603304306045175" class="st1" d="M594.86,357.97h-106.88"/>
  <path id="ID0.874788953922689" class="st1" d="M594.86,370.46h-106.88"/>
  <path id="ID0.1446742438711226" class="st1" d="M594.86,382.95h-106.88"/>
  <path id="ID0.3114432371221483" class="st1" d="M594.86,395.45h-106.88"/>
  <path id="ID0.5737923160195351" class="st1" d="M594.02,407.94h-106.03"/>
  <path id="ID0.3171332562342286" class="st1" d="M594.86,420.44h-106.88"/>
  <path id="ID0.955413272138685" class="st1" d="M594.02,432.93h-106.03"/>
  <path id="ID0.7300514583475888" class="st6" d="M596.04,446.61h-106.88v-3.71h102.99v-93.03c0-18.07-14.01-37.82-31.4-43.9l-69.73-24.65,1.18-3.55,69.73,24.65c18.74,6.58,33.94,27.86,33.94,47.44v96.75h.17Z"/>
  <path id="ID0.15702203568071127" class="st13" d="M483.93,447.11v-169.86h9.96v169.86h-9.96"/>
  <path id="ID0.729948537889868" class="st14" d="M483.93,277.26h4.9v170.03h-4.9v-170.03Z"/>
  <path id="ID0.5733617162331939" class="st1" d="M505.71,285.19v158.04"/>
  <path id="ID0.5296410680748522" class="st1" d="M518.04,289.58v153.65"/>
  <path id="ID0.33251992613077164" class="st1" d="M530.36,293.3v149.93"/>
  <path id="ID0.4135662871412933" class="st1" d="M542.52,297.18v146.05"/>
  <path id="ID0.14372599450871348" class="st1" d="M554.84,301.91v141.32"/>
  <path id="ID0.25141338305547833" class="st1" d="M567.17,306.81v136.43"/>
  <path id="ID0.6972670331597328" class="st1" d="M579.5,315.42v127.81"/>
  <path id="ID0.9928647149354219" class="st24" d="M268.49,322.17h-8.95l-5.91,4.39h14.86v-4.39"/>
  <path id="ID0.9032689211890101" class="st24" d="M268.49,322.17h12.16v4.39h-12.16v-4.39Z"/>
  <path id="ID0.4454988641664386" class="st11" d="M654.46,198.91c0-6.42-5.23-11.65-11.65-11.65v23.13c6.42.17,11.65-5.07,11.65-11.48Z"/>
  <path id="ID0.2817168044857681" class="st8" d="M637.75,217.49h10.13v5.91h-10.13v-5.91Z"/>
  <path id="ID0.24443018296733499" class="st19" d="M642.98,210.57v-23.13c-6.42,0-11.65,5.23-11.65,11.65s5.23,11.48,11.65,11.48Z"/>
  <path id="ID0.6063207946717739" class="st11" d="M589.12,165.65c0-6.42-5.23-11.65-11.65-11.65v23.13c6.42,0,11.65-5.07,11.65-11.48Z"/>
  <path id="ID0.393333378713578" class="st8" d="M572.57,184.23h10.13v5.91h-10.13v-5.91Z"/>
  <path id="ID0.806842508725822" class="st19" d="M577.64,177.13v-23.13c-6.42,0-11.65,5.23-11.65,11.65s5.23,11.48,11.65,11.48Z"/>
  <path id="ID0.5201168898493052" class="st15" d="M646.02,433.44v2.53c11.48-1.35,20.26-10.97,20.26-22.79,0-12.66-10.3-22.96-22.96-22.96s-22.96,10.3-22.96,22.96c0,11.82,8.78,21.44,20.26,22.79v-2.53h5.4Z"/>
  <path id="ID0.8837548298761249" class="st18" d="M646.02,435.97c-.84.17-1.86.17-2.7.17s-1.86,0-2.7-.17v10.81h5.4v-10.81Z"/>
  <path id="ID0.9393987744115293" class="st18" d="M646.02,435.97v-2.53h-5.4v2.53c.84.17,1.86.17,2.7.17s1.86-.17,2.7-.17Z"/>
  <path id="ID0.33522422425448895" class="st15" d="M725.71,433.44v2.53c11.48-1.35,20.26-10.97,20.26-22.79,0-12.66-10.3-22.96-22.96-22.96s-22.96,10.3-22.96,22.96c0,11.82,8.78,21.44,20.26,22.79v-2.53h5.4Z"/>
  <path id="ID0.0760289914906025" class="st18" d="M725.71,435.97c-.84.17-1.86.17-2.7.17s-1.86,0-2.7-.17v10.81h5.4v-10.81Z"/>
  <path id="ID0.18637632299214602" class="st18" d="M725.71,435.97v-2.53h-5.4v2.53c.84.17,1.86.17,2.7.17s1.86-.17,2.7-.17Z"/>
  <path id="ID0.10735251847654581" class="st12" d="M619.85,434.79h-3.55v11.99h3.55v-11.99"/>
  <path id="ID0.48862003767862916" class="st12" d="M616.3,446.78h3.55v.17h-3.55v-.17Z"/>
  <path id="ID0.3675066544674337" class="st10" d="M619.85,446.78h1.52v-11.99h-1.52v11.99"/>
  <path id="ID0.00012029241770505905" class="st10" d="M619.85,446.78h1.52v.17h-1.52v-.17Z"/>
  <path id="ID0.8315325272269547" class="st6" d="M617.15,433.44h2.19v1.35h-2.19v-1.35Z"/>
  <path id="ID0.38182980613783" class="st29" d="M619.85,434.79h.68v-1.35h-1.18v1.35h.51"/>
  <path id="ID0.10017691133543849" class="st12" d="M614.78,443.4h-11.99v3.38h11.99v-3.38"/>
  <path id="ID0.7554737743921578" class="st12" d="M602.8,446.78h12.16v.17h-12.16v-.17Z"/>
  <path id="ID0.2705578235909343" class="st10" d="M614.78,443.4v-1.69h-11.99v1.69h11.99"/>
  <path id="ID0.18962583085522056" class="st6" d="M601.45,443.91h1.35v2.19h-1.35v-2.19Z"/>
  <path id="ID0.5749708758667111" class="st29" d="M602.8,443.4v-.68h-1.35v1.18h1.35v-.51"/>
  <path id="ID0.6178678600117564" class="st6" d="M299.55,311.36l-145.21,128.49L-2,356.95v12.16l156.18,92.19,188.26-82.9-42.89-67.03"/>
  <path id="ID0.39159297617152333" class="st5" d="M322.18,303.94c10.57,0,20.16,4.3,27.09,11.23s11.23,16.52,11.23,27.09-4.3,20.16-11.23,27.09c-6.94,6.94-16.52,11.23-27.09,11.23s-20.16-4.3-27.09-11.23c-6.94-6.94-11.23-16.52-11.23-27.09s4.3-20.16,11.23-27.09c6.94-6.94,16.52-11.23,27.09-11.23Z"/>
  <path id="ID0.9013009984046221" class="st4" d="M322.18,381.6c-21.78,0-39.51-17.73-39.51-39.51s17.73-39.51,39.51-39.51,39.51,17.73,39.51,39.51-17.73,39.51-39.51,39.51Z"/>
  <path id="ID0.1403187862597406" class="st30" d="M322.18,325.21l5.57,11.14,12.33,1.86-8.95,8.78,2.19,12.33-11.14-5.91-11.14,5.91,2.19-12.33-8.95-8.78,12.33-1.86,5.57-11.14"/>
  <path id="ID0.9487543683499098" class="st30" d="M322.18,319.47l-5.57-4.73-12.33-.84,8.95-3.71-2.19-5.23,11.14,2.36,11.14-2.36-2.19,5.23,8.95,3.71-12.33.84-5.57,4.73"/>
  <path id="ID0.9493977264501154" class="st30" d="M299.89,337.37l-6.25,3.88-4.56,11.48-.68-9.62-5.74.34,5.74-9.79,1.18-11.31,4.22,3.71,6.42-7.43-3.21,11.99,2.87,6.75"/>
  <path id="ID0.7079105009324849" class="st30" d="M310.02,361.34l1.69,7.09,9.62,7.94-9.46-2.19-1.35,5.4-7.6-8.44-10.3-4.56,4.73-3.04-5.07-8.27,10.47,6.75,7.26-.68"/>
  <path id="ID0.9943309538066387" class="st30" d="M334.67,361.34l7.43.68,10.47-6.75-5.07,8.27,4.73,3.04-10.47,4.56-7.43,8.44-1.35-5.4-9.46,2.19,9.62-7.94,1.52-7.09"/>
  <path id="ID0.9898903439752758" class="st30" d="M343.96,336.86l2.87-6.75-3.04-11.99,6.25,7.43,4.39-3.71,1.01,11.31,5.91,9.79-5.74-.34-.84,9.62-4.56-11.48-6.25-3.88"/>
  <path id="ID0.01911609573289752" class="st0" d="M322.18,381.6c-21.78,0-39.51-17.73-39.51-39.51s17.73-39.51,39.51-39.51,39.51,17.73,39.51,39.51-17.73,39.51-39.51,39.51Z"/>
</svg>