<?xml version="1.0" encoding="utf-8"?>
<!-- Generator: Adobe Illustrator 17.1.0, SVG Export Plug-In . SVG Version: 6.00 Build 0)  -->
<!DOCTYPE svg PUBLIC "-//W3C//DTD SVG 1.1//EN" "http://www.w3.org/Graphics/SVG/1.1/DTD/svg11.dtd">
<svg version="1.1" id="レイヤー_1" xmlns="http://www.w3.org/2000/svg" xmlns:xlink="http://www.w3.org/1999/xlink" x="0px"
	 y="0px" viewBox="0 0 800 494" enable-background="new 0 0 800 494" xml:space="preserve">
<linearGradient id="SVGID_1_" gradientUnits="userSpaceOnUse" x1="400" y1="396.307" x2="400" y2="-59.184">
	<stop  offset="0" style="stop-color:#CCE0F4"/>
	<stop  offset="6.405089e-02" style="stop-color:#C3DCF2"/>
	<stop  offset="0.1706" style="stop-color:#A9D2EE"/>
	<stop  offset="0.3066" style="stop-color:#80C2E7"/>
	<stop  offset="0.4649" style="stop-color:#47ACDE"/>
	<stop  offset="0.5674" style="stop-color:#1E9CD7"/>
	<stop  offset="0.8652" style="stop-color:#0075BE"/>
	<stop  offset="0.9944" style="stop-color:#005B97"/>
</linearGradient>
<rect fill="url(#SVGID_1_)" width="800" height="494"/>
<g id="ID0.5118491547182202" transform="matrix(-1, 0, 0, 1, 98.5, 0)">
	<path id="R_Arm" fill="#1B75BB" stroke="#000000" stroke-width="0.5521" d="M-292.5,277.5c-1.8,3.8-1.3,7.3-0.8,13.1
		c0.6,6.9,5.3,11.1,8.2,9.1c2.9-2-0.3-7.1-1.4-8.5c-0.8-1-3.2-10-4.2-14.1c0,0-0.1-0.6-0.7-0.6
		C-291.9,276.7-292.5,277.5-292.5,277.5L-292.5,277.5z"/>
	<path id="R_Leg_1_" fill="#1B75BB" stroke="#000000" stroke-width="0.5521" d="M-295.8,300.8c0,1.5,0.3,3.7,1.8,3.6
		c1,0,0.8-2.2,0.9-4.3c0-1.4,0.3-2.6,0.5-3.2c0,0,0-0.1,0-0.2c0-1-0.5-1.3-1.2-1.4c-0.8-0.1-1,0.6-1,0.6c-0.2,0.7-0.5,1.7-0.5,1.7
		C-295.6,299-295.8,299.9-295.8,300.8L-295.8,300.8z"/>
	<path id="L_Leg" fill="#1B75BB" stroke="#000000" stroke-width="0.5521" d="M-299.8,300.8c0,1.5,0.3,3.7,1.8,3.6
		c1,0,0.8-2.2,0.9-4.3c0-1.4,0.3-2.6,0.5-3.2c0,0,0-0.1,0-0.2c0-1-0.5-1.3-1.2-1.4c-0.8-0.1-1,0.6-1,0.6c-0.2,0.7-0.5,1.7-0.5,1.7
		C-299.6,299-299.8,299.9-299.8,300.8L-299.8,300.8z"/>
	<g id="Body_1_">
		<path id="Body" fill="#1B75BB" stroke="#000000" stroke-width="0.5521" d="M-293.5,296.7c0.6-0.1,1.2-0.2,1.9-0.4
			c4.6-1.4,2.9-7.4,2.2-9.7c-0.3-0.9-0.5-2.3-0.7-3.6l0-0.1l-0.4-3.2c-0.2-0.3-0.1-0.9-0.8-1.3c-0.9-0.4-2.7-0.7-3.6-0.7
			c-3.3,0-4.8,1.2-4.8,1.2c-0.6,1.2,0,1.8-0.9,3.9c-1.7,3.7-1.4,4.3-1.8,4.4c-0.1,0,0,0.8-0.1,0.8c0,0.3,0,1.1,0.2,2.2
			c0,0,0.6,2.6,1.7,3.8c0.2,0.2,0.4,0.5,0.8,0.7c0,0,0.9,0.7,1.8,1.1c0.8,0.4,2.3,0.6,3,0.7C-294.4,296.8-293.5,296.7-293.5,296.7
			L-293.5,296.7z"/>
		<path id="Belly" fill="#D0D2D3" stroke="#000000" stroke-width="0.5521" d="M-288.5,292.2c0.1-2.1-0.5-4.3-0.8-5.5
			c-0.3-1.2-0.6-3.2-0.9-4.8l-0.1-0.1c-0.5-0.4-0.9-1.2-2-1c-2.5,0.4-3.6,2.8-3.6,6.4c0,3.5,1.9,6.6,3.9,6.6
			C-291,293.7-289.2,293.4-288.5,292.2L-288.5,292.2L-288.5,292.2z"/>
	</g>
	<path id="L_Arm" fill="#1B75BB" stroke="#000000" stroke-width="0.5521" d="M-299.6,278.8c-3.5,2.3-4.9,5.6-7.4,10.8
		c-3,6.2-1.2,12.2,2.3,12.1c3.5-0.2,3.4-6.3,3.2-7.9c-0.1-1.3,2.5-10.2,3.7-14.2c0,0,0.2-0.6-0.3-0.9
		C-298.7,278.3-299.6,278.8-299.6,278.8L-299.6,278.8z"/>
	<g id="Head_1_">
		<path id="Head" fill="#1B75BB" stroke="#000000" stroke-width="0.5521" stroke-linecap="round" stroke-linejoin="round" d="
			M-276.7,264c0.1,0.2,1.3,4.6-1.8,8.6c-2.1,2.8-5.6,6.3-14.8,7.1c-4.5,0.4-8.5-0.8-11.3-2.5c0,0,0.1,0.1,0.1,0.1l0,0
			c-2.7-1.2-6-3.1-8.3-6.2c0,0-1.2,2.5-6.6,2.6c-6.8,0.1-9.6-3.7-10-6.5c-0.4-2.9,0.5-6.2,6.3-7.2c4.8-0.8,7.5,0.6,8.2,1.1l0.1,0.1
			c0.5-1.7,1.4-2.4,1.4-2.4l-0.1,0c-2-0.8-4.7-2-8-3.9c-6.9-4.1-6.8-11.3-4.9-13.9c2-2.7,7.8-6,16-1.5c4.6,2.6,7,6.5,8.1,9.5
			l0.2-0.1c0.3-0.2,0.7-0.4,1-0.5l0-0.1c-1.8-4.2-4.5-13,3.2-13.6c7.4-0.6,6.7,8.3,6.1,12l0.1,0c1,0.1,1.9,0.2,2.9,0.4
			c0,0-1.1-2.4,0.3-5.7c1.1-2.6,6.1-8.9,10.1-5.6c4.3,3.5,1.9,7.5-0.3,10c-1.9,2.1-4.1,3-5.1,3.4l0,0c0.2,0.2,0.5,0.3,0.7,0.5
			c6.8,4.8,6.2,14.6,6.2,14.6l0-0.1C-276.7,264.1-276.7,264-276.7,264L-276.7,264z M-284.6,248.5c0.4,0.2,0.8,0.4,1.2,0.7
			 M-291.5,246.9c-0.1,0.5-0.2,0.9-0.3,1.4 M-299.8,250.5c-0.4-0.8-0.8-1.6-1.1-2.4 M-315.2,264.2c0-0.9,0-1.9,0.3-2.8"/>
		<path id="Hair1" fill="#F1F1F2" stroke="#000000" stroke-width="0.5521" d="M-321.3,273.6c-5.5-0.5-7.7-3.9-8.1-6.4
			c-0.4-2.9,0.5-6.2,6.3-7.2c0.8-0.1,1.6-0.2,2.3-0.2l0.1,0C-323,264.2-323.2,269.4-321.3,273.6L-321.3,273.6L-321.3,273.6z"/>
		<path id="Hair2" fill="#F1F1F2" stroke="#000000" stroke-width="0.5521" d="M-322.6,254.1c-5.8-4.2-5.6-10.7-3.8-13.2
			c1.9-2.6,7.3-5.7,14.9-2.1l-0.1,0c-4.4,1.4-8.2,4.8-9.9,9.6C-322.2,250.3-322.5,252.2-322.6,254.1L-322.6,254.1L-322.6,254.1z"/>
		<path id="Hair3" fill="#F1F1F2" stroke="#000000" stroke-width="0.5521" d="M-302.8,241.4c-0.3-3.4,0.7-6.4,5.1-6.8
			c4.5-0.4,6,2.8,6.4,6.2l0,0C-295.1,239.3-299.2,239.6-302.8,241.4L-302.8,241.4L-302.8,241.4z"/>
		<path id="Hair4" fill="#F1F1F2" stroke="#000000" stroke-width="0.5521" d="M-282.5,235.2c1.4-0.6,2.9-0.6,4.3,0.6
			c2.7,2.3,2.8,4.7,1.8,6.8l0,0C-277.5,239.5-279.6,236.9-282.5,235.2L-282.5,235.2L-282.5,235.2z"/>
		<path id="Face_1_" fill="#E6E7E8" stroke="#000000" stroke-width="0.5521" d="M-282.6,258c-2.6-1.9-6.6-7.2-6.6-7.2
			s-0.1,5.6-7.8,10.4c-7.7,4.7-11.7,4-12.1,9.6c-0.3,4.2,6.8,9.8,15.9,9c9.2-0.8,12.7-4.3,14.8-7.1c3.1-4.2,1.8-8.7,1.8-8.7
			C-277.6,260.9-278.9,260.7-282.6,258L-282.6,258z"/>
		<g id="L_Eye">
			<path id="Inner_Eye_1_" fill="#FFFFFF" d="M-295.4,266.1c-0.1-0.2-0.3-0.4-0.5-0.4c0,0-0.1,0-0.1,0c-0.1,0-0.3,0.1-0.3,0.2
				c-0.1,0.1-0.1,0.3-0.1,0.4c0.1,0.3,0.3,0.5,0.6,0.4C-295.5,266.7-295.3,266.4-295.4,266.1L-295.4,266.1z"/>
			<path id="Outer_Eye_1_" fill="#231F20" d="M-294.5,265.9c-0.2-0.7-0.9-1.2-1.7-1.1c-0.4,0.1-0.7,0.3-0.9,0.6
				c-0.2,0.3-0.3,0.7-0.2,1c0.1,0.6,0.7,1.1,1.4,1.1c0.1,0,0.2,0,0.3,0C-294.8,267.4-294.4,266.7-294.5,265.9L-294.5,265.9z
				 M-296.4,266.3c0-0.1,0-0.3,0.1-0.4c0.1-0.1,0.2-0.2,0.3-0.2c0,0,0.1,0,0.1,0c0.3,0,0.5,0.2,0.5,0.4c0.1,0.3-0.1,0.6-0.4,0.6
				C-296.1,266.8-296.4,266.6-296.4,266.3L-296.4,266.3z"/>
		</g>
		<g id="R_Eye">
			<path id="Inner_Eye" fill="#FFFFFF" d="M-282.1,265.3c-0.1-0.2-0.3-0.4-0.5-0.4c0,0-0.1,0-0.1,0c-0.1,0-0.3,0.1-0.3,0.2
				c-0.1,0.1-0.1,0.3-0.1,0.4c0.1,0.3,0.3,0.5,0.6,0.4C-282.3,265.9-282.1,265.6-282.1,265.3L-282.1,265.3z"/>
			<path id="Outer_Eye" fill="#231F20" d="M-281.3,265.1c-0.2-0.7-0.9-1.2-1.7-1.1c-0.4,0.1-0.7,0.3-0.9,0.6c-0.2,0.3-0.3,0.7-0.2,1
				c0.1,0.6,0.7,1.1,1.4,1.1c0.1,0,0.2,0,0.3,0C-281.6,266.6-281.1,265.8-281.3,265.1L-281.3,265.1z M-283.2,265.5
				c0-0.1,0-0.3,0.1-0.4c0.1-0.1,0.2-0.2,0.3-0.2c0,0,0.1,0,0.1,0c0.3,0,0.5,0.2,0.5,0.4c0.1,0.3-0.1,0.6-0.4,0.6
				C-282.8,266-283.1,265.8-283.2,265.5L-283.2,265.5z"/>
		</g>
		<path id="Mouth" fill="none" stroke="#231F20" stroke-width="0.5521" stroke-linecap="round" d="M-294.8,269.5
			c0,0,2.7,1.9,7.1,1.3c4.4-0.6,5.1-2.2,5.1-2.2"/>
	</g>
</g>
<rect y="411.7" fill="#008DE9" width="800" height="44.9"/>
<rect x="662.5" y="424.2" fill="#FFFFFF" width="9.7" height="3.2"/>
<rect x="691.5" y="430.9" fill="#FFFFFF" width="9.7" height="3.2"/>
<rect x="750.7" y="443.2" fill="#FFFFFF" width="9.7" height="3.2"/>
<rect x="517.5" y="424.2" fill="#FFFFFF" width="9.7" height="3.2"/>
<rect x="548.5" y="441.1" fill="#FFFFFF" width="9.7" height="3.2"/>
<rect x="172.2" y="432.3" fill="#FFFFFF" width="9.7" height="3.2"/>
<rect x="207.2" y="424.8" fill="#FFFFFF" width="9.7" height="3.2"/>
<rect x="286.6" y="430.3" fill="#FFFFFF" width="9.7" height="3.2"/>
<rect x="327.8" y="443.2" fill="#FFFFFF" width="9.7" height="3.2"/>
<rect x="27.1" y="424.2" fill="#FFFFFF" width="9.7" height="3.2"/>
<rect x="58.1" y="441.1" fill="#FFFFFF" width="9.7" height="3.2"/>
<rect x="605.7" y="443.2" fill="#FFFFFF" width="9.7" height="3.2"/>
<polygon fill="none" stroke="#FFFFFF" stroke-width="2.0432" stroke-miterlimit="10" points="438.8,456.6 353.9,456.6 374.4,305.9 
	418.3,305.9 "/>
<line fill="none" stroke="#FFFFFF" stroke-width="2" stroke-miterlimit="10" x1="369" y1="339" x2="424" y2="339"/>
<line fill="none" stroke="#FFFFFF" stroke-width="2" stroke-miterlimit="10" x1="358" y1="422" x2="433" y2="422"/>
<line fill="none" stroke="#FFFFFF" stroke-width="2" stroke-miterlimit="10" x1="362" y1="379" x2="430" y2="379"/>
<line fill="none" stroke="#FFFFFF" stroke-width="2" stroke-miterlimit="10" x1="369" y1="339" x2="424" y2="339"/>
<g>
	<rect x="396.6" y="288.4" fill="#F15A24" width="5.6" height="168.3"/>
	<rect x="391" y="288.4" fill="#FFFFFF" width="5.6" height="168.3"/>
</g>
<path fill="#FFFFFF" d="M491,411c0,0,0-77.1,68.5-78.6c0,0-23.3-42.3,8.5-67.3c0,0-5.1-43.6,35.9-43.6c48,0,44.6,32,44.6,32
	s48.8-5,51.4,31.2c2.5,36.2,41.3,37.1,42.1,43c0.8,5.9,29.3,3.4,25.6,14.3c-3.7,10.9,7.3,8.4,12.4,15.2c5.1,6.7,19.1,7.6,19.1,7.6
	V411H491z"/>
<path fill="#FFFFFF" d="M0,173.8c0,0,12.3-5.8,27.1,6.8s15.1,28.9,15.1,28.9s29.1-9.6,40.5,4.2s7.9,33.7,16.9,43.9
	s48.1,25.8,43.3,34.9c-4.8,9-20.4,15-7.2,23.4c13.2,8.4,33.6,9.6,32.4,19.2s-22.7,13.8,0.1,21.6s20.4,1.8,22.8,7.8s30,4.8,30,13.2
	s29.4,1.5,22.8,12.3C237.2,400.9,263,411,263,411H0"/>
<circle fill="#006837" cx="774.6" cy="443.1" r="17.3"/>
<rect y="456.6" fill="#FFCD15" width="800" height="36.8"/>
<polyline fill="#AD8A18" points="390.5,456.9 418.8,494 431.6,494 402.1,457.1 "/>
<polygon fill="#AD8A18" points="763.1,482 767.5,474.3 771.9,482 "/>
<polygon fill="#AD8A18" points="687.5,475 691.9,467.3 696.3,475 "/>
<polygon fill="#AD8A18" points="585.3,486 589.8,478.3 594.2,486 "/>
<polygon fill="#AD8A18" points="501.6,475 506,467.3 510.4,475 "/>
<polygon fill="#AD8A18" points="227.8,478 232.2,470.3 236.6,478 "/>
<polygon fill="#AD8A18" points="37.8,474 42.2,466.3 46.6,474 "/>
<polygon fill="#AD8A18" points="90.9,484 95.3,476.3 99.7,484 "/>
<polygon fill="#AD8A18" points="305.4,478 309.8,470.3 314.3,478 "/>
<g>
	<g>
		<path fill="#063F23" d="M771,426.6c-5,2.7-7.1,7.6-8.5,12.9c-1.4,5.5-3.5,11.4,0.8,16c2.7,2.9,7-1.5,4.3-4.3
			c-2.2-2.4,0.5-8.9,1.2-11.5c0.9-3.3,2.3-6.1,5.3-7.8C777.5,430,774.4,424.7,771,426.6L771,426.6z"/>
	</g>
</g>
<g>
	<g>
		<path fill="#063F23" d="M774.4,434.3c0.2,5.8-2.4,10.4-3.6,15.9c-0.8,3.9,5.1,5.5,5.9,1.6c0.6-3,1.8-5.7,2.8-8.6c1-2.8,1.1-6,1-9
			C780.5,430.3,774.3,430.3,774.4,434.3L774.4,434.3z"/>
	</g>
</g>
<g>
	<g>
		<path fill="#063F23" d="M784.2,441.3c0.4,3.4,0.7,7.7-2.5,9.7c-3.4,2.1-0.3,7.4,3.1,5.3c2.4-1.5,4-3.1,4.9-5.8
			c1-2.9,1-6.2,0.7-9.2C789.9,437.4,783.8,437.4,784.2,441.3L784.2,441.3z"/>
	</g>
</g>
<g>
	<g>
		<path fill="#FFFFFF" d="M774,429.1c-3.6,0.8-7,1.9-9.8,4.3c-2.8,2.3-3.5,6.1-4.5,9.4c-0.6,1.9,2.4,2.7,3,0.8
			c0.9-2.9,1.5-5.9,3.7-8.1c2.2-2.2,5.6-2.9,8.5-3.5C776.8,431.7,775.9,428.7,774,429.1L774,429.1z"/>
	</g>
</g>
<g id="ID0.8781489403918386" transform="matrix(0.9024999737739563, 0, 0, 0.9024999737739563, 0.05, 0.05)">
	<path id="ID0.42939980793744326" fill="#725619" d="M275.9,215.1c-1.5,0.5-5-1-5.1,0.9C267.8,214,275,214.2,275.9,215.1
		L275.9,215.1L275.9,215.1z"/>
	<path id="ID0.2971645426005125" fill="#725619" d="M301.4,249.3c1.4-0.8,6-0.8,7.4,0C306.3,249.3,303.8,249.3,301.4,249.3
		L301.4,249.3L301.4,249.3z"/>
	<path id="ID0.40910265455022454" fill="#A4A3A3" d="M313.4,248.8c0.8,1.7,0.8,6.6,0,8.3C313.4,254.4,313.4,251.6,313.4,248.8
		L313.4,248.8L313.4,248.8z"/>
	<path id="ID0.0037109493277966976" fill="#C48402" d="M272.7,273.8c0,1.5,0,3.1,0,4.6C271.9,277.9,271.9,274.3,272.7,273.8
		L272.7,273.8L272.7,273.8z"/>
	<path id="ID0.8889813269488513" fill="#C48402" d="M276.4,279.4c-0.8-0.5-0.8-4.1,0-4.6C276.4,276.3,276.4,277.8,276.4,279.4
		L276.4,279.4L276.4,279.4z"/>
	<path id="ID0.10584816196933389" fill="#725619" d="M269.5,291.8c2.2,0,4.3,0,6.5,0C276.6,292.5,270.3,292.7,269.5,291.8
		L269.5,291.8L269.5,291.8z"/>
	<path id="ID0.310271377209574" fill="#A4A3A3" d="M269,294.6c2,0,4,0,6,0C274.1,295.4,269.9,295.4,269,294.6L269,294.6L269,294.6z"
		/>
	<path id="ID0.29946120362728834" fill="#A4A3A3" d="M298.1,285.8c2-2.4,4.1-4.5,6.5-6.5C302.6,281.7,300.5,283.9,298.1,285.8
		L298.1,285.8L298.1,285.8z"/>
	<path id="ID0.6184042701497674" fill="#C48402" d="M278.7,241c1.8-2.2,3.8-4.2,6-6C282.9,237.1,280.9,239.1,278.7,241L278.7,241
		L278.7,241z"/>
	<path id="ID0.8687649718485773" fill="#2A2725" d="M269,294.6c-30.7-1.2-48.1-36-32.8-62.5c3.1-5.5,7.7-10.8,12.5-13.9
		c25.7-16.5,62.6-0.9,64.8,30.5c0,2.8,0,5.6,0,8.3c-0.8,9.5-4.7,16-8.8,22.2c-2.4,2-4.5,4.1-6.5,6.5c-6.4,4.2-13.2,8.1-23.1,8.8
		C273,294.6,271,294.6,269,294.6L269,294.6L269,294.6z"/>
	<path id="ID0.3568889098241925" fill="#2A2725" d="M270.8,216c2.8,8.1,1.2,19.6-2.3,25.4c1.8,1.6,4,2.7,6,4.2
		c1.1-1.8,3.1-2.8,4.2-4.6c2.2-1.8,4.2-3.8,6-6c4.2-3.7,8.3-7.5,12.5-11.1c-5.7-4.3-12-8.1-21.3-8.8C275,214.2,267.8,214,270.8,216
		L270.8,216L270.8,216z"/>
	<path id="ID0.5225331471301615" fill="#2A2725" d="M241.7,230.3c9.2,2,17,5.6,24.1,9.7c4.4-5.9,4.9-16.9,2.3-25
		C256,216.9,247.2,221.9,241.7,230.3L241.7,230.3L241.7,230.3z"/>
	<path id="ID0.06379866832867265" fill="#2A2725" d="M280.6,243.3c-1,1.7-2.7,2.5-3.7,4.2c2.5,1.6,4.4,3.9,6.9,5.6
		c5.5-5.6,15.3-6.9,25.9-7.4c-2.1-7.8-5.3-14.5-10.2-19.4c-4.5,2.6-7.5,6.6-11.6,9.7C285.3,238.1,282.8,240.6,280.6,243.3
		L280.6,243.3L280.6,243.3z"/>
	<path id="ID0.2746362257748842" fill="#2A2725" d="M239.4,233.1c-2.8,5.2-5.1,10.9-5.1,19c13.1,2.1,25.6-2.7,29.1-10.2
		C255.9,238.5,248.8,234.6,239.4,233.1L239.4,233.1L239.4,233.1z"/>
	<path id="ID0.3849429786205292" fill="#2A2725" d="M266.2,244.2c-5.9,8.3-17.3,13.6-31.9,11.6c1.7,11.1,5.5,20.1,13,25.4
		c7.1-12.5,16.6-22.6,25-33.8C269.9,246.7,268.8,244.7,266.2,244.2L266.2,244.2L266.2,244.2z"/>
	<path id="ID0.024530946277081966" fill="#2A2725" d="M301.4,249.3c-3.6-0.1-15.2,4-15.3,6.5c0,0.3,3.9,3.8,4.6,4.6
		c4.4,5,9.2,11.6,11.1,16.7c6.1-5.9,8.7-15.3,8.3-27.8c-0.5,0-0.9,0-1.4,0C307.4,248.5,302.8,248.5,301.4,249.3L301.4,249.3
		L301.4,249.3z"/>
	<path id="ID0.07299845246598125" fill="#2A2725" d="M272.7,273.8c0.3-8.9,4.7-13.8,8.3-19.4c-2.5-1.2-3.7-3.7-6.5-4.6
		c-8.8,10.9-18.2,21.3-25,34.2c5.5,3.8,11.4,7.1,19.9,7.9c0.9,0.8,7.1,0.7,6.5,0c-1.4-4.2-3.2-7.9-3.2-13.4
		C272.7,276.9,272.7,275.3,272.7,273.8L272.7,273.8L272.7,273.8z"/>
	<path id="ID0.6075319410301745" fill="#2A2725" d="M276.4,279.4c-0.2,5.1,1.7,8.1,2.8,12c9.3-1.6,16.3-5.6,20.8-12
		c-4.4-8.4-9.2-16.4-16.7-21.7c-3.3,4.7-6.9,9.1-6.9,17.1C275.6,275.2,275.6,278.9,276.4,279.4L276.4,279.4L276.4,279.4z"/>
	<path id="ID0.1976206637918949" fill="#FFAD00" d="M275.9,215.1c9.3,0.7,15.6,4.5,21.3,8.8c-4.2,3.6-8.3,7.4-12.5,11.1
		c-2.2,1.8-4.2,3.8-6,6c-1.1,1.8-3.1,2.8-4.2,4.6c-2-1.4-4.2-2.6-6-4.2c3.5-5.9,5.1-17.4,2.3-25.4
		C270.9,214,274.4,215.5,275.9,215.1L275.9,215.1L275.9,215.1z"/>
	<path id="ID0.7045095204375684" fill="#725619" d="M280.6,243.3c2.3-2.7,4.7-5.1,7.4-7.4C285.7,238.5,283.2,241,280.6,243.3
		L280.6,243.3L280.6,243.3z"/>
	<path id="ID0.202673374209553" fill="#FFAD00" d="M288,235.9c4-3.1,7.1-7.1,11.6-9.7c4.9,5,8.1,11.6,10.2,19.4
		c-10.6,0.5-20.4,1.8-25.9,7.4c-2.5-1.6-4.4-3.9-6.9-5.6c1-1.7,2.7-2.5,3.7-4.2C283.2,241,285.7,238.5,288,235.9L288,235.9
		L288,235.9z"/>
	<path id="ID0.6094344258308411" fill="#FFAD00" d="M308.8,249.3c0.5,0,0.9,0,1.4,0c0.4,12.4-2.2,21.8-8.3,27.8
		c-1.9-5-6.7-11.6-11.1-16.7c-0.8-0.9-4.6-4.3-4.6-4.6c0-2.5,11.7-6.6,15.3-6.5C303.8,249.3,306.3,249.3,308.8,249.3L308.8,249.3
		L308.8,249.3z"/>
	<path id="ID0.2581343511119485" fill="#FFAD00" d="M269.5,291.8c-8.5-0.7-14.4-4.1-19.9-7.9c6.8-12.9,16.2-23.3,25-34.2
		c2.7,1,4,3.4,6.5,4.6c-3.7,5.6-8,10.5-8.3,19.4c-0.8,0.5-0.8,4.1,0,4.6c0,5.6,1.9,9.2,3.2,13.4
		C273.8,291.8,271.6,291.8,269.5,291.8L269.5,291.8L269.5,291.8z"/>
	<path id="ID0.6018042843788862" fill="#FFAD00" d="M276.4,274.7c0-8,3.6-12.4,6.9-17.1c7.4,5.4,12.3,13.3,16.7,21.7
		c-4.5,6.4-11.5,10.4-20.8,12c-1-3.9-3-6.9-2.8-12C276.4,277.8,276.4,276.3,276.4,274.7L276.4,274.7L276.4,274.7z"/>
	<path id="ID0.26782077783718705" fill="#FFAD00" d="M263.4,241.9c-3.5,7.5-16,12.3-29.1,10.2c0-8.1,2.3-13.7,5.1-19
		C248.8,234.6,255.9,238.5,263.4,241.9L263.4,241.9L263.4,241.9z"/>
	<path id="ID0.6840811623260379" fill="#FFAD00" d="M272.2,247.4c-8.4,11.2-17.9,21.3-25,33.8c-7.4-5.4-11.3-14.3-13-25.4
		c14.7,2,26-3.3,31.9-11.6C268.8,244.7,269.9,246.7,272.2,247.4L272.2,247.4L272.2,247.4z"/>
	<path id="ID0.3140264614485204" fill="#FFAD00" d="M268.1,215.1c2.5,8.1,2.1,19.1-2.3,25c-7.1-4.2-14.8-7.7-24.1-9.7
		C247.2,221.9,256,216.9,268.1,215.1L268.1,215.1L268.1,215.1z"/>
</g>
<g id="ID0.21982629131525755" transform="matrix(-1, 0, 0, 1, 92.65, 0)">
	<g id="Layer_8">
		<path id="ID0.5819421922788024" fill="#FAA51D" stroke="#231F20" stroke-width="1.2" d="M-554.8,432.7c-2.9-1.4-10.5-2.5-14.8-6.7
			c-9.4-9.2-3.8-21.7,0.7-21.8c3.6-0.1,3.4,5.5,4.6,11.1c0.9,3.9,1.7,7,6.4,9.7c4.7,2.7,6.9,2.9,6.9,2.9s3.3,0.8,1.6,2.6
			C-551,432.3-554.8,432.7-554.8,432.7z"/>
		<path id="ID0.7794882426969707" fill="#FFFFFF" d="M-564.3,416.6c-0.1-0.5-0.2-0.9-0.3-1.4c-1.2-5.3-0.9-10.4-4.3-10.4
			c-3.4,0.1-7.5,7.8-4.2,15.3c0.2-0.1,0.4-0.3,0.6-0.6c0.5-0.7,0.8-3,2.7-3.7C-568.6,415.3-565.8,416.1-564.3,416.6z"/>
	</g>
	<path id="ID0.9191923597827554" fill="#FAA51D" stroke="#231F20" stroke-width="1.2" d="M-526.1,411.7c0,0,1.5,2.3,1.5,5
		c0.1,2.7-0.4,7,1.8,8.2c3.4,1.8,10-0.5,10.2,5.2c0.2,5.7-10.2,3.6-13.3,2.5c-2.7-0.9-4.6-1.8-5.2-5.2c0,0-3.8-14-0.2-15.6
		S-526.1,411.7-526.1,411.7z"/>
	<path id="ID0.7819190686568618" fill="#FAA51D" stroke="#231F20" stroke-width="1.2" d="M-564,439.8c0,0,1.5,10.4-5.9,8.4
		c-5.6-1.5-5.7-20.7-0.4-20.7c3.2,0,4.4,2.9,4.4,2.9s4.4,4.8,7,4.3c2.6-0.5,8-6.7,8-6.7s2.9-2.5,6.1,0c3.3,2.6,1.5,6.2,1.5,6.2
		s-6.1,7.1-11,8.1c-4.9,1-9.4-2.6-11.6-3.5"/>
	<g id="Layer_6">
		<path id="ID0.6811709366738796" fill="#FAA51D" stroke="#231F20" stroke-width="1.2" d="M-536.2,426.5c0,0,4.9,4.1,8.2,7.5
			c4.4,4.6-3.3,15-3.3,15s11.2,6.5,3,11c-2.7,1.5-15.7-13.2-15.7-13.2s8-7.5,5-10.2c-5-4.4-10.8-5-11.6-9.8c-0.5-3,0.6-4.5,2.7-7.1
			c1.4-1.7,2.1-3.2,2.1-3.2s1.1-7.2,4.3-8.3c3.2-1,8.8,0.1,10.8,0.4c1.9,0.3,6.6,1.9,4.6,9.9c0,0-1.5,3.8-2.8,5.8
			c-1.6,2.4-2.9,3.9-4.1,4.9"/>
		<path id="ID0.8020577183924615" fill="#FFFFFF" d="M-528.4,422.9c0,0,2.6-2.7-2.6-5.5c-5.1-2.7-7.4,0-9,1.6
			c-2.7,2.7,3.3,7.5,3.3,7.5l3.4,2.6c0,0,1.9-1.6,2.7-3C-529.8,424.6-528.4,422.9-528.4,422.9"/>
	</g>
	<path id="ID0.6107208654284477" fill="#FAA51D" stroke="#231F20" stroke-width="1.2" d="M-554.2,415.6c0.9,0.1,3.6,0.2,6.1,0.4
		c3,0.2,8.5-0.5,5.8-5.1c-2.6-4.6-6.7-3.7-12-3.8c-2.8,0-5.8-1.4-7.3,1.9c-1.5,3.3-5.1,13.3,2.3,15.4c7.4,2.1,4.6-8.1,4.9-10.5"/>
	<g id="Layer_2">
		<path id="ID0.477367224637419" fill="#FAA51D" stroke="#231F20" stroke-width="1.2" d="M-526.9,360.4c-1.5-0.1-4.8-0.3-6.5-0.2
			c-4.7,0.2-9.2,1.9-9.2,1.9l-13-8.5l2.2,18.9c0.6-0.8-10.6,12.8-3.5,24.2c7.1,11.4,22.2,16.5,41,12.8c18.8-3.7,23.2-14.5,22-20.2
			c-1.2-5.7-8.3-7.8-8.3-7.8s-0.1-4.5-3.3-10c-1.9-3.3-8.3-8-8.3-8l-2.9-11.6l-7.5,7.2L-526.9,360.4z"/>
		<path id="ID0.08546947967261076" fill="#FFFFFF" d="M-503.2,381.3l-2.5-2.1l-9.1,2.7c0,0,0,3.4-4.4,4.4c-4.4,1-11.2-2.3-11.2-2.3
			l-7.8,3.4c0,0-8.4,0.9-8.7,6.1c-0.7,11.5,13.4,16.2,18.7,16.5c2.9,0.2,8.2-0.3,12.3-1.1c17.8-3.2,22.6-13.9,21.3-19.6
			c-1.2-5.7-8-7.2-8-7.2L-503.2,381.3z"/>
		<path id="ID0.26631580758839846" fill="none" stroke="#231F20" stroke-width="1.2" d="M-568.9,392.4c0,0,4.1,0.4,6,0.3
			c1.9-0.1,5.5-0.6,5.5-0.6"/>
		<path id="ID0.9902666672132909" fill="none" stroke="#231F20" stroke-width="1.2" d="M-497.9,386.9c0,0,4.5-0.7,6.9-1.5
			c2.7-0.9,4.5-2.5,4.5-2.5"/>
		<path id="ID0.011666031088680029" fill="none" stroke="#231F20" stroke-width="1.2" d="M-557.3,388.1c0,0-2.4-1.8-6.1-3.4
			c-4.1-1.8-6.4-2.3-6.4-2.3"/>
		<path id="ID0.6353562786243856" fill="none" stroke="#231F20" stroke-width="1.2" d="M-497.5,392.8c0,0,2.7,1.1,5.5,1.4
			c2.8,0.3,4.6,0.1,4.6,0.1"/>
		<path id="ID0.9893627278506756" fill="none" stroke="#000000" stroke-linecap="round" d="M-527.3,360.4c2.8,0.7,3.9,1.5,3.9,1.5"
			/>
		<path id="ID0.8083170158788562" fill="none" stroke="#000000" d="M-545.7,359.9l6.1,4.4"/>
	</g>
	<g id="Layer_5">
		<path id="ID0.5006670514121652" fill="#FFFFFF" stroke="#231F20" d="M-507.8,371.6c2.9,4.5,3,9.6,0.2,11.4
			c-2.8,1.8-7.4-0.3-10.4-4.8c-2.9-4.5-3-9.6-0.2-11.4C-515.3,365-510.7,367.1-507.8,371.6z"/>
		<path id="ID0.4350557839497924" fill="#231F20" d="M-508.5,378.7c0,1.1-0.8,2-1.8,2c-1,0-1.8-0.9-1.8-2c0-1.1,0.8-2,1.8-2
			C-509.3,376.8-508.5,377.7-508.5,378.7"/>
	</g>
	<g id="Layer_7">
		<path id="ID0.10212671803310513" fill="#FFFFFF" stroke="#231F20" d="M-531.7,374.8c2.9,4.5,2.6,9.9-0.7,12
			c-3.3,2.2-8.4,0.3-11.3-4.2c-2.9-4.5-2.6-9.9,0.7-12C-539.7,368.5-534.7,370.4-531.7,374.8z"/>
		<path id="ID0.12444641115143895" fill="#231F20" d="M-533.5,380.7c0,1.1-0.8,2-1.8,2c-1,0-1.8-0.9-1.8-2c0-1.1,0.8-2,1.8-2
			C-534.3,378.8-533.5,379.7-533.5,380.7"/>
	</g>
	<path id="ID0.9898561690934002" fill="#5E4A42" stroke="#000000" d="M-519.8,384.2c1.9,0,4.6-0.3,4.7,0.6c0.1,0.9-1.7,4.2-3,4.3
		c-1.3,0.1-6.1-2.4-6.2-3.9C-524.4,383.6-521.5,384.2-519.8,384.2z"/>
	<g id="Layer_4">
		<path id="ID0.34181483928114176" fill="none" stroke="#231F20" stroke-width="1.2" d="M-532.8,391.5c0,0,10.3,3.1,14.2,3.9
			c3.9,0.8,10.9,1.7,10.9,1.7s-8,10.2-17.3,7.6C-534.4,402.1-534.3,396.2-532.8,391.5z"/>
	</g>
</g>
<g>
	<g id="Layer_3">
		<path fill="#FAA51D" stroke="#000000" d="M136.6,434.8c-2.4-0.5-5.3-1.3-7.7-3.5c-5.5-4.9-7.2-13-11-10.9
			c-3.9,2.1-3.8,15.2,8.4,19.2c4.2,1.4,8,1.4,11.1,1.3c0.8,0,7.7-0.7,10.1-4.1c2.4-3.4,0.7-4.3-0.1-4.7
			C146.5,431.6,140.1,435.4,136.6,434.8z"/>
		<path fill="#FFFFFF" d="M118.4,420.6c-2,0.6-3.1,5-2.1,8.5c1,3.5,2.6,5,3.9,6.4c1.5,1-0.7-2.4,1.4-4.1c2.1-1.7,5.7-0.9,5.7-0.9
			s-2.9-4-4.6-6.4C121.2,421.7,120.5,420.1,118.4,420.6z"/>
	</g>
	<g>
		<path fill="#FAA51D" d="M152.4,442.5c0,0-8.8,6.2-17.1,8.4l0.1,0.2c1.2,1.8,5.9,7.5-0.3,9.5c-5.3,1.7-15.1-13.1-10.8-15.9
			c2.6-1.7,4.9-0.3,4.9-0.3s3.5-1.1,6-2.3c4.3-2.2,5.8-3.5,5.8-3.5s4.2-4.3,6.9-4.1C150.5,434.7,155.9,439.2,152.4,442.5z"/>
		<path fill="none" stroke="#231F20" stroke-width="1.2" d="M135.4,451.1c1.2,1.8,5.9,7.5-0.3,9.5c-5.3,1.7-15.3-13.3-11-16.1
			c2.6-1.7,5.1,0,5.1,0s3.5-1.1,6-2.3c4.3-2.2,5.8-3.5,5.8-3.5"/>
		<path fill="none" stroke="#231F20" stroke-width="1.2" d="M152.4,442.5c0,0-10.1,7.1-18.8,8.8"/>
	</g>
	<path fill="#FAA51D" stroke="#231F20" stroke-width="1.2" d="M166.4,430.6c0,0,1.2,0.2,4.7,3.7c3.5,3.5,6,2.2,8.9,0.7
		c2.9-1.4,10.5-6.1,6.5-9.8c-4-3.7-6.2,1.1-9.7,2.4c-3.5,1.3-5.1-2.5-6.9-4.3c-0.6-0.6-1.2-1.1-1.7-1.5c0,0-1-0.8-1.9,2.8
		C165.4,428.1,164.3,429.1,166.4,430.6z"/>
	<g id="Layer_2_2_">
		<path fill="#FAA51D" stroke="#231F20" stroke-width="1.2" d="M160.9,437.7c1.2-0.9,2.4-2.4,4-4.7c1.3-1.9,2.7-5.6,2.7-5.6
			c0.9-2.5,1.9-6.6-1.9-7.3c-1.6-0.3-4.1-0.1-7.7-0.8c-3.6-0.7-6.8-2.5-9.5,2.2c-2.7,4.8-9.6,8.3-1.1,16.6c0,0,4.9,3.8,10.8,9.6
			c4.8,4.8,12,10.6,12,10.6s19,2.2,19.5-0.7c1.9-9.8-14.8-6.9-14.8-6.9s-4.6-3.9-6.7-5.8c-3.5-3.1-11.1-10.8-11.1-10.8"/>
		<path fill="#FFFFFF" d="M165.4,431.1c0,0,2.5-2.7-2.5-5.3c-4.9-2.7-7.2,0-8.7,1.5c-2.6,2.7,3.4,6.6,3.4,6.6l3.2,3.2
			c0,0,1.7-1.6,2.5-3C164.2,433,165.4,431.1,165.4,431.1"/>
	</g>
	<g id="Layer_8_1_">
	</g>
	<path fill="#FAA51D" stroke="#231F20" stroke-width="1.2" d="M144.1,428.9c0.7-0.6,2.9-2.2,4.9-3.7c2.4-1.8,6.1-5.8,1.1-7.6
		c-5-1.8-7.5,1.6-11.5,4.9c-2.2,1.8-5.3,2.7-4.3,6.2c1,3.5,4.9,13.4,11.8,10.2c6.9-3.2-1.8-9.2-3.1-11.2"/>
	<g id="Layer_2_1_">
		<path fill="#FAA51D" stroke="#231F20" stroke-width="1.2" d="M166.9,369.9c-1.5-0.1-4.8-0.3-6.5-0.2c-4.7,0.2-9.2,1.9-9.2,1.9
			l-13-8.5l2.2,18.9c0.6-0.8-10.6,12.8-3.5,24.2c7.1,11.4,22.2,16.5,41,12.8c18.8-3.7,23.2-14.5,22-20.2c-1.2-5.7-8.3-7.8-8.3-7.8
			s-0.1-4.5-3.3-10c-1.9-3.3-8.3-8-8.3-8l-2.9-11.6l-7.5,7.2L166.9,369.9z"/>
		<path fill="#FFFFFF" d="M190.6,390.8l-2.5-2.1l-9.1,2.7c0,0,0,3.4-4.4,4.4c-4.4,1-11.2-2.3-11.2-2.3l-7.8,3.4c0,0-8.4,0.9-8.7,6.1
			c-0.7,11.5,13.4,16.2,18.7,16.5c2.9,0.2,8.2-0.3,12.3-1.1c17.8-3.2,22.6-13.9,21.3-19.6c-1.2-5.7-8-7.2-8-7.2L190.6,390.8z"/>
		<path fill="none" stroke="#231F20" stroke-width="1.2" d="M124.9,401.9c0,0,4.1,0.4,6,0.3c1.9-0.1,5.5-0.6,5.5-0.6"/>
		<path fill="none" stroke="#231F20" stroke-width="1.2" d="M195.8,396.4c0,0,4.5-0.7,6.9-1.5c2.7-0.9,4.5-2.5,4.5-2.5"/>
		<path fill="none" stroke="#231F20" stroke-width="1.2" d="M136.5,397.6c0,0-2.4-1.8-6.1-3.4c-4.1-1.8-6.4-2.3-6.4-2.3"/>
		<path fill="none" stroke="#231F20" stroke-width="1.2" d="M196.3,402.3c0,0,2.7,1.1,5.5,1.4c2.8,0.3,4.6,0.1,4.6,0.1"/>
		<path fill="none" stroke="#000000" stroke-linecap="round" stroke-miterlimit="10" d="M166.5,369.9c2.8,0.7,3.9,1.5,3.9,1.5"/>
		<line fill="none" stroke="#000000" x1="148.1" y1="369.4" x2="154.1" y2="373.8"/>
	</g>
	<g id="Layer_5_1_">
		<path fill="#FFFFFF" stroke="#231F20" d="M186,381.1c2.9,4.5,3,9.6,0.2,11.4c-2.8,1.8-7.4-0.3-10.4-4.8c-2.9-4.5-3-9.6-0.2-11.4
			C178.5,374.4,183.1,376.6,186,381.1z"/>
		<path fill="#231F20" d="M185.3,388.2c0,1.1-0.8,2-1.8,2c-1,0-1.8-0.9-1.8-2c0-1.1,0.8-2,1.8-2
			C184.5,386.3,185.3,387.2,185.3,388.2"/>
	</g>
	<g id="Layer_7_1_">
		<path fill="#FFFFFF" stroke="#231F20" d="M162.1,384.3c2.9,4.5,2.6,9.9-0.7,12c-3.3,2.2-8.4,0.3-11.3-4.2c-2.9-4.5-2.6-9.9,0.7-12
			C154.1,378,159.1,379.9,162.1,384.3z"/>
		<path fill="#231F20" d="M160.3,390.2c0,1.1-0.8,2-1.8,2c-1,0-1.8-0.9-1.8-2c0-1.1,0.8-2,1.8-2
			C159.5,388.3,160.3,389.1,160.3,390.2"/>
	</g>
	<path fill="#5E4A42" stroke="#000000" d="M174,393.6c1.9,0,4.6-0.3,4.7,0.6c0.1,0.9-1.7,4.2-3,4.3c-1.3,0.1-6.1-2.4-6.2-3.9
		C169.4,393.1,172.2,393.6,174,393.6z"/>
	<g id="Layer_4_1_">
		<path fill="none" stroke="#231F20" stroke-width="1.2" d="M161,401c0,0,10.3,3.1,14.2,3.9c3.9,0.8,10.9,1.7,10.9,1.7
			s-8,10.2-17.3,7.6C159.4,411.6,159.5,405.7,161,401z"/>
	</g>
</g>
<g>
	<path fill="none" stroke="#FFFFFF" stroke-miterlimit="10" d="M239.7,316.3c0,0,5.7-0.5,8.5,3.6"/>
	<path fill="none" stroke="#FFFFFF" stroke-miterlimit="10" d="M256.6,316.3c0,0-5.7-0.5-8.5,3.6"/>
</g>
<g>
	<path fill="none" stroke="#FFFFFF" stroke-miterlimit="10" d="M291.7,303.3c0,0,5.7-0.5,8.5,3.6"/>
	<path fill="none" stroke="#FFFFFF" stroke-miterlimit="10" d="M308.6,303.3c0,0-5.7-0.5-8.5,3.6"/>
</g>
<g>
	<path fill="none" stroke="#FFFFFF" stroke-miterlimit="10" d="M453.7,339.3c0,0,5.7-0.5,8.5,3.6"/>
	<path fill="none" stroke="#FFFFFF" stroke-miterlimit="10" d="M470.6,339.3c0,0-5.7-0.5-8.5,3.6"/>
</g>
<g>
	<path fill="none" stroke="#FFFFFF" stroke-miterlimit="10" d="M513.7,305.3c0,0,5.7-0.5,8.5,3.6"/>
	<path fill="none" stroke="#FFFFFF" stroke-miterlimit="10" d="M530.6,305.3c0,0-5.7-0.5-8.5,3.6"/>
</g>
<g>
	<path fill="none" stroke="#FFFFFF" stroke-miterlimit="10" d="M723.7,271.3c0,0,5.7-0.5,8.5,3.6"/>
	<path fill="none" stroke="#FFFFFF" stroke-miterlimit="10" d="M740.6,271.3c0,0-5.7-0.5-8.5,3.6"/>
</g>
<g>
	<path fill="none" stroke="#FFFFFF" stroke-miterlimit="10" d="M763.7,301.3c0,0,5.7-0.5,8.5,3.6"/>
	<path fill="none" stroke="#FFFFFF" stroke-miterlimit="10" d="M780.6,301.3c0,0-5.7-0.5-8.5,3.6"/>
</g>
</svg>
