<?xml version="1.0" encoding="UTF-8"?>
<svg id="_レイヤー_1" data-name="レイヤー_1" xmlns="http://www.w3.org/2000/svg" version="1.1" viewBox="0 0 800 500">
  <!-- Generator: Adobe Illustrator 30.1.0, SVG Export Plug-In . SVG Version: 2.1.1 Build 136)  -->
  <defs>
    <style>
      .st0 {
        fill: #60c;
      }

      .st1 {
        fill: #ff8a43;
      }

      .st2 {
        fill: #ff1010;
      }

      .st3 {
        fill: #2b495b;
      }

      .st4 {
        fill: #fff;
      }

      .st5 {
        fill: #f4e93d;
      }

      .st6 {
        fill: #ff0;
      }

      .st7 {
        fill: #250c12;
      }

      .st8 {
        fill: #a5a06d;
      }

      .st9 {
        fill: #3a7c59;
      }

      .st10 {
        fill: #1f7c00;
      }

      .st11 {
        fill: #157eff;
      }

      .st12 {
        fill: #7c273c;
      }

      .st13 {
        fill: #5aba8a;
      }

      .st14 {
        fill: #7fc799;
      }
    </style>
  </defs>
  <path id="ID0.17250768886879086" class="st8" d="M102.08,37.96h600.44v436.69H102.08V37.96Z"/>
  <path id="ID0.6847267164848745" class="st3" d="M0,0h800v500H0V0Z"/>
  <path id="ID0.6467636707238853" class="st14" d="M97.51,37.96h607.79v430.59H97.51V37.96Z"/>
  <path id="ID0.6772904940880835" class="st13" d="M115.38,56.8h573.57v391.8H115.38V56.8Z"/>
  <path id="ID0.4286460648290813" d="M201.56,22.44c.61,0,1.17.25,1.57.65.4.4.65.96.65,1.57s-.25,1.17-.65,1.57c-.4.4-.96.65-1.57.65s-1.17-.25-1.57-.65c-.4-.4-.65-.96-.65-1.57s.25-1.17.65-1.57c.4-.4.96-.65,1.57-.65Z"/>
  <path id="ID0.053453958593308926" d="M268.06,22.44c.61,0,1.17.25,1.57.65.4.4.65.96.65,1.57s-.25,1.17-.65,1.57c-.4.4-.96.65-1.57.65s-1.17-.25-1.57-.65c-.4-.4-.65-.96-.65-1.57s.25-1.17.65-1.57c.4-.4.96-.65,1.57-.65Z"/>
  <path id="ID0.6851498689502478" d="M334.56,22.44c.61,0,1.17.25,1.57.65.4.4.65.96.65,1.57s-.25,1.17-.65,1.57c-.4.4-.96.65-1.57.65s-1.17-.25-1.57-.65c-.4-.4-.65-.96-.65-1.57s.25-1.17.65-1.57c.4-.4.96-.65,1.57-.65Z"/>
  <path id="ID0.2243623868562281" d="M478.64,22.44c.61,0,1.17.25,1.57.65.4.4.65.96.65,1.57s-.25,1.17-.65,1.57c-.4.4-.96.65-1.57.65s-1.17-.25-1.57-.65c-.4-.4-.65-.96-.65-1.57s.25-1.17.65-1.57c.4-.4.96-.65,1.57-.65Z"/>
  <path id="ID0.015336231328547001" d="M545.14,22.44c.61,0,1.17.25,1.57.65.4.4.65.96.65,1.57s-.25,1.17-.65,1.57c-.4.4-.96.65-1.57.65s-1.17-.25-1.57-.65c-.4-.4-.65-.96-.65-1.57s.25-1.17.65-1.57c.4-.4.96-.65,1.57-.65Z"/>
  <path id="ID0.7950258404016495" d="M611.64,22.44c.61,0,1.17.25,1.57.65.4.4.65.96.65,1.57s-.25,1.17-.65,1.57c-.4.4-.96.65-1.57.65s-1.17-.25-1.57-.65c-.4-.4-.65-.96-.65-1.57s.25-1.17.65-1.57c.4-.4.96-.65,1.57-.65Z"/>
  <path id="ID0.840860502794385" d="M201.56,482.41c.61,0,1.17.25,1.57.65s.65.96.65,1.57-.25,1.17-.65,1.57-.96.65-1.57.65-1.17-.25-1.57-.65-.65-.96-.65-1.57.25-1.17.65-1.57.96-.65,1.57-.65Z"/>
  <path id="ID0.39157473808154464" d="M268.06,482.41c.61,0,1.17.25,1.57.65.4.4.65.96.65,1.57s-.25,1.17-.65,1.57c-.4.4-.96.65-1.57.65s-1.17-.25-1.57-.65c-.4-.4-.65-.96-.65-1.57s.25-1.17.65-1.57c.4-.4.96-.65,1.57-.65Z"/>
  <path id="ID0.4591695163398981" d="M334.56,482.41c.61,0,1.17.25,1.57.65.4.4.65.96.65,1.57s-.25,1.17-.65,1.57c-.4.4-.96.65-1.57.65s-1.17-.25-1.57-.65c-.4-.4-.65-.96-.65-1.57s.25-1.17.65-1.57c.4-.4.96-.65,1.57-.65Z"/>
  <path id="ID0.6686018365435302" d="M478.64,482.41c.61,0,1.17.25,1.57.65.4.4.65.96.65,1.57s-.25,1.17-.65,1.57c-.4.4-.96.65-1.57.65s-1.17-.25-1.57-.65-.65-.96-.65-1.57.25-1.17.65-1.57.96-.65,1.57-.65Z"/>
  <path id="ID0.5514222024939954" d="M545.14,482.41c.61,0,1.17.25,1.57.65.4.4.65.96.65,1.57s-.25,1.17-.65,1.57c-.4.4-.96.65-1.57.65s-1.17-.25-1.57-.65-.65-.96-.65-1.57.25-1.17.65-1.57.96-.65,1.57-.65Z"/>
  <path id="ID0.8038353193551302" d="M611.64,482.41c.61,0,1.17.25,1.57.65.4.4.65.96.65,1.57s-.25,1.17-.65,1.57c-.4.4-.96.65-1.57.65s-1.17-.25-1.57-.65-.65-.96-.65-1.57.25-1.17.65-1.57.96-.65,1.57-.65Z"/>
  <path id="ID0.8779023252427578" class="st13" d="M678.37,101.97l-35.66-35.66,29.1-29.1,35.66,35.66-29.1,29.1Z"/>
  <path id="ID0.5643836967647076" d="M675.21,69.46c-4.92-4.92-7.31-11.44-7.21-18,.11-6.56,2.71-13.16,7.79-18.24,5.08-5.08,11.68-7.69,18.24-7.79,6.56-.11,13.08,2.29,18,7.21,4.92,4.92,7.31,11.44,7.21,18-.11,6.56-2.71,13.16-7.79,18.24-5.08,5.08-11.68,7.69-18.24,7.79-6.56.11-13.08-2.29-18-7.21Z"/>
  <path id="ID0.6987230991944671" class="st13" d="M93.5,73.01l35.66-35.66,29.1,29.1-35.66,35.66-29.1-29.1Z"/>
  <path id="ID0.3931311019696295" d="M125.71,69.55c-4.92,4.92-11.44,7.31-18,7.21-6.56-.11-13.16-2.71-18.24-7.79-5.08-5.08-7.69-11.68-7.79-18.24-.11-6.56,2.29-13.08,7.21-18,4.92-4.92,11.44-7.31,18-7.21,6.56.11,13.16,2.71,18.24,7.79,5.08,5.08,7.69,11.68,7.79,18.24.11,6.56-2.29,13.08-7.21,18Z"/>
  <path id="ID0.5038834088481963" class="st13" d="M707.5,434.24l-35.66,35.66-29.1-29.1,35.66-35.66,29.1,29.1Z"/>
  <path id="ID0.7788237524218857" d="M675.23,437.61c4.92-4.92,11.44-7.31,18-7.21,6.56.11,13.16,2.71,18.24,7.79,5.08,5.08,7.69,11.68,7.79,18.24.11,6.56-2.29,13.08-7.21,18s-11.44,7.31-18,7.21c-6.56-.11-13.16-2.71-18.24-7.79-5.08-5.08-7.69-11.68-7.79-18.24-.11-6.56,2.29-13.08,7.21-18Z"/>
  <path id="ID0.9684468870982528" class="st13" d="M122.43,404.99l35.66,35.66-29.1,29.1-35.66-35.66,29.1-29.1Z"/>
  <path id="ID0.496987609192729" d="M125.61,437.46c4.92,4.92,7.31,11.44,7.21,18-.11,6.56-2.71,13.16-7.79,18.24-5.08,5.08-11.68,7.69-18.24,7.79-6.56.11-13.08-2.29-18-7.21-4.92-4.92-7.31-11.44-7.21-18,.11-6.56,2.71-13.16,7.79-18.24,5.08-5.08,11.68-7.69,18.24-7.79,6.56-.11,13.08,2.29,18,7.21Z"/>
  <path id="ID0.9300640756264329" class="st13" d="M461.05,77.45l-105.99,2.77,27.71-41.15h50.57l27.71,38.38"/>
  <path id="ID0.3626922960393131" d="M407.98,7.34c6.96,0,13.26,2.92,17.82,7.63,4.56,4.71,7.39,11.23,7.39,18.41s-2.82,13.7-7.39,18.41c-4.56,4.71-10.87,7.63-17.82,7.63s-13.26-2.92-17.82-7.63c-4.56-4.71-7.39-11.23-7.39-18.41s2.82-13.7,7.39-18.41c4.56-4.71,10.87-7.63,17.82-7.63Z"/>
  <path id="ID0.5729285087436438" class="st13" d="M355.06,430.04l105.99-2.77-27.71,41.01h-50.57l-27.71-38.24"/>
  <path id="ID0.3348764255642891" d="M407.98,447.91c6.96,0,13.26,2.92,17.82,7.63,4.56,4.71,7.39,11.23,7.39,18.41s-2.82,13.7-7.39,18.41c-4.56,4.71-10.87,7.63-17.82,7.63s-13.26-2.92-17.82-7.63c-4.56-4.71-7.39-11.23-7.39-18.41s2.82-13.7,7.39-18.41c4.56-4.71,10.87-7.63,17.82-7.63Z"/>
  <path id="ID0.8354785502888262" class="st9" d="M148.63,56.8h222.08v4.99h-222.08v-4.99Z"/>
  <path id="ID0.48822569847106934" class="st9" d="M445.94,56.8h206.43v4.99h-206.43v-4.99Z"/>
  <path id="ID0.3528306004591286" class="st9" d="M115.38,94.76h4.99v317.54h-4.99V94.76Z"/>
  <path id="ID0.6473899730481207" d="M635.61,377.19c4.36,0,8.31,1.77,11.17,4.63,2.86,2.86,4.63,6.81,4.63,11.17s-1.77,8.31-4.63,11.17c-2.86,2.86-6.81,4.63-11.17,4.63s-8.31-1.77-11.17-4.63-4.63-6.81-4.63-11.17,1.77-8.31,4.63-11.17c2.86-2.86,6.81-4.63,11.17-4.63Z"/>
  <path id="ID0.1287864106707275" class="st6" d="M632.14,374.69c4.36,0,8.31,1.77,11.17,4.63,2.86,2.86,4.63,6.81,4.63,11.17s-1.77,8.31-4.63,11.17c-2.86,2.86-6.81,4.63-11.17,4.63s-8.31-1.77-11.17-4.63-4.63-6.81-4.63-11.17,1.77-8.31,4.63-11.17c2.86-2.86,6.81-4.63,11.17-4.63Z"/>
  <path id="ID0.4964880938641727" d="M222.74,409.68c4.36,0,8.31,1.77,11.17,4.63s4.63,6.81,4.63,11.17-1.77,8.31-4.63,11.17-6.81,4.63-11.17,4.63-8.31-1.77-11.17-4.63c-2.86-2.86-4.63-6.81-4.63-11.17s1.77-8.31,4.63-11.17c2.86-2.86,6.81-4.63,11.17-4.63Z"/>
  <path id="ID0.7648348198272288" class="st10" d="M219.42,407.19c4.36,0,8.31,1.77,11.17,4.63s4.63,6.81,4.63,11.17-1.77,8.31-4.63,11.17c-2.86,2.86-6.81,4.63-11.17,4.63s-8.31-1.77-11.17-4.63-4.63-6.81-4.63-11.17,1.77-8.31,4.63-11.17c2.86-2.86,6.81-4.63,11.17-4.63Z"/>
  <path id="ID0.9355104360729456" d="M393.42,358.43c4.36,0,8.31,1.77,11.17,4.63s4.63,6.81,4.63,11.17-1.77,8.31-4.63,11.17c-2.86,2.86-6.81,4.63-11.17,4.63s-8.31-1.77-11.17-4.63c-2.86-2.86-4.63-6.81-4.63-11.17s1.77-8.31,4.63-11.17,6.81-4.63,11.17-4.63Z"/>
  <path id="ID0.19522681599482894" class="st1" d="M390.1,355.94c4.36,0,8.31,1.77,11.17,4.63,2.86,2.86,4.63,6.81,4.63,11.17s-1.77,8.31-4.63,11.17c-2.86,2.86-6.81,4.63-11.17,4.63s-8.31-1.77-11.17-4.63-4.63-6.81-4.63-11.17,1.77-8.31,4.63-11.17,6.81-4.63,11.17-4.63Z"/>
  <path id="ID0.28750517731532454" d="M604.92,337.19c4.36,0,8.31,1.77,11.17,4.63,2.86,2.86,4.63,6.81,4.63,11.17s-1.77,8.31-4.63,11.17-6.81,4.63-11.17,4.63-8.31-1.77-11.17-4.63c-2.86-2.86-4.63-6.81-4.63-11.17s1.77-8.31,4.63-11.17c2.86-2.86,6.81-4.63,11.17-4.63Z"/>
  <path id="ID0.26435981784015894" class="st7" d="M601.46,334.69c4.36,0,8.31,1.77,11.17,4.63,2.86,2.86,4.63,6.81,4.63,11.17s-1.77,8.31-4.63,11.17c-2.86,2.86-6.81,4.63-11.17,4.63s-8.31-1.77-11.17-4.63-4.63-6.81-4.63-11.17,1.77-8.31,4.63-11.17c2.86-2.86,6.81-4.63,11.17-4.63Z"/>
  <path id="ID0.2743925196118653" d="M564.1,367.19c4.36,0,8.31,1.77,11.17,4.63,2.86,2.86,4.63,6.81,4.63,11.17s-1.77,8.31-4.63,11.17c-2.86,2.86-6.81,4.63-11.17,4.63s-8.31-1.77-11.17-4.63-4.63-6.81-4.63-11.17,1.77-8.31,4.63-11.17c2.86-2.86,6.81-4.63,11.17-4.63Z"/>
  <path id="ID0.9416216048412025" class="st12" d="M560.78,364.69c4.36,0,8.31,1.77,11.17,4.63,2.86,2.86,4.63,6.81,4.63,11.17s-1.77,8.31-4.63,11.17-6.81,4.63-11.17,4.63-8.31-1.77-11.17-4.63c-2.86-2.86-4.63-6.81-4.63-11.17s1.77-8.31,4.63-11.17c2.86-2.86,6.81-4.63,11.17-4.63Z"/>
  <path id="ID0.39271190809085965" d="M585.61,207.99c4.36,0,8.31,1.77,11.17,4.63,2.86,2.86,4.63,6.81,4.63,11.17s-1.77,8.31-4.63,11.17c-2.86,2.86-6.81,4.63-11.17,4.63s-8.31-1.77-11.17-4.63c-2.86-2.86-4.63-6.81-4.63-11.17s1.77-8.31,4.63-11.17c2.86-2.86,6.81-4.63,11.17-4.63Z"/>
  <path id="ID0.1696799099445343" class="st0" d="M582.14,205.49c4.36,0,8.31,1.77,11.17,4.63,2.86,2.86,4.63,6.81,4.63,11.17s-1.77,8.31-4.63,11.17c-2.86,2.86-6.81,4.63-11.17,4.63s-8.31-1.77-11.17-4.63c-2.86-2.86-4.63-6.81-4.63-11.17s1.77-8.31,4.63-11.17c2.86-2.86,6.81-4.63,11.17-4.63Z"/>
  <path id="ID0.4753857972100377" d="M202.74,160.48c4.36,0,8.31,1.77,11.17,4.63,2.86,2.86,4.63,6.81,4.63,11.17s-1.77,8.31-4.63,11.17c-2.86,2.86-6.81,4.63-11.17,4.63s-8.31-1.77-11.17-4.63c-2.86-2.86-4.63-6.81-4.63-11.17s1.77-8.31,4.63-11.17c2.86-2.86,6.81-4.63,11.17-4.63Z"/>
  <path id="ID0.4087951285764575" class="st4" d="M199.42,157.99c4.36,0,8.31,1.77,11.17,4.63,2.86,2.86,4.63,6.81,4.63,11.17s-1.77,8.31-4.63,11.17c-2.86,2.86-6.81,4.63-11.17,4.63s-8.31-1.77-11.17-4.63c-2.86-2.86-4.63-6.81-4.63-11.17s1.77-8.31,4.63-11.17c2.86-2.86,6.81-4.63,11.17-4.63Z"/>
  <path id="ID0.24798595625907183" d="M333.42,219.24c4.36,0,8.31,1.77,11.17,4.63,2.86,2.86,4.63,6.81,4.63,11.17s-1.77,8.31-4.63,11.17c-2.86,2.86-6.81,4.63-11.17,4.63s-8.31-1.77-11.17-4.63c-2.86-2.86-4.63-6.81-4.63-11.17s1.77-8.31,4.63-11.17c2.86-2.86,6.81-4.63,11.17-4.63Z"/>
  <path id="ID0.7176780691370368" class="st5" d="M330.1,216.74c4.36,0,8.31,1.77,11.17,4.63,2.86,2.86,4.63,6.81,4.63,11.17s-1.77,8.31-4.63,11.17c-2.86,2.86-6.81,4.63-11.17,4.63s-8.31-1.77-11.17-4.63c-2.86-2.86-4.63-6.81-4.63-11.17s1.77-8.31,4.63-11.17,6.81-4.63,11.17-4.63Z"/>
  <path id="ID0.8446271102875471" d="M464.92,137.99c4.36,0,8.31,1.77,11.17,4.63,2.86,2.86,4.63,6.81,4.63,11.17s-1.77,8.31-4.63,11.17c-2.86,2.86-6.81,4.63-11.17,4.63s-8.31-1.77-11.17-4.63c-2.86-2.86-4.63-6.81-4.63-11.17s1.77-8.31,4.63-11.17c2.86-2.86,6.81-4.63,11.17-4.63Z"/>
  <path id="ID0.531608397141099" class="st2" d="M461.46,135.49c4.36,0,8.31,1.77,11.17,4.63,2.86,2.86,4.63,6.81,4.63,11.17s-1.77,8.31-4.63,11.17c-2.86,2.86-6.81,4.63-11.17,4.63s-8.31-1.77-11.17-4.63c-2.86-2.86-4.63-6.81-4.63-11.17s1.77-8.31,4.63-11.17c2.86-2.86,6.81-4.63,11.17-4.63Z"/>
  <path id="ID0.7660475466400385" d="M404.1,107.99c4.36,0,8.31,1.77,11.17,4.63,2.86,2.86,4.63,6.81,4.63,11.17s-1.77,8.31-4.63,11.17c-2.86,2.86-6.81,4.63-11.17,4.63s-8.31-1.77-11.17-4.63c-2.86-2.86-4.63-6.81-4.63-11.17s1.77-8.31,4.63-11.17c2.86-2.86,6.81-4.63,11.17-4.63Z"/>
  <path id="ID0.018443336710333824" class="st11" d="M400.78,105.49c4.36,0,8.31,1.77,11.17,4.63,2.86,2.86,4.63,6.81,4.63,11.17s-1.77,8.31-4.63,11.17c-2.86,2.86-6.81,4.63-11.17,4.63s-8.31-1.77-11.17-4.63c-2.86-2.86-4.63-6.81-4.63-11.17s1.77-8.31,4.63-11.17c2.86-2.86,6.81-4.63,11.17-4.63Z"/>
</svg>