<?xml version="1.0" encoding="UTF-8"?>
<svg id="_レイヤー_1" data-name="レイヤー_1" xmlns="http://www.w3.org/2000/svg" version="1.1" viewBox="0 0 800 500">
  <!-- Generator: Adobe Illustrator 30.1.0, SVG Export Plug-In . SVG Version: 2.1.1 Build 136)  -->
  <defs>
    <style>
      .st0 {
        fill: #2c6a3f;
      }

      .st1 {
        fill: #347847;
      }

      .st2 {
        fill: #060001;
      }

      .st3 {
        fill: #877d3b;
      }

      .st4 {
        fill: #040000;
      }

      .st5 {
        fill: #15213e;
      }

      .st6 {
        fill: #c4b01d;
      }

      .st7 {
        fill: #231815;
      }

      .st8 {
        fill: #cbba39;
      }

      .st9 {
        fill: #fff;
      }

      .st10 {
        fill: none;
        stroke: #aba9a9;
        stroke-miterlimit: 10;
      }

      .st11 {
        fill: #eeea8d;
      }

      .st12 {
        fill: #2a653b;
      }

      .st13 {
        fill: #ead738;
      }

      .st14 {
        fill: #c0821b;
      }

      .st15 {
        fill: #eab03a;
      }

      .st16 {
        fill: #2c7343;
      }

      .st17 {
        fill: #2d7b3f;
      }
    </style>
  </defs>
  <path class="st16" d="M63.47,82.04V-2.17h84.21v84.21H63.47Z"/>
  <path class="st17" d="M147.68,82.04V-2.17h84.21v84.21h-84.21Z"/>
  <path class="st16" d="M231.89,82.04V-2.17h84.21v84.21h-84.21Z"/>
  <path class="st16" d="M316.1,82.04V-2.17h84.21v84.21h-84.21Z"/>
  <path class="st0" d="M400.31,82.04V-2.17h84.21v84.21h-84.21Z"/>
  <path class="st16" d="M484.52,82.04V-2.17h84.21v84.21h-84.21Z"/>
  <path class="st16" d="M568.73,82.04V-2.17h84.21v84.21h-84.21Z"/>
  <path class="st0" d="M652.94,82.04V-2.17h84.21v84.21h-84.21Z"/>
  <path class="st12" d="M63.47,166.25v-84.21h84.21v84.21H63.47Z"/>
  <path class="st16" d="M147.68,166.25v-84.21h84.21v84.21h-84.21Z"/>
  <path class="st12" d="M231.89,166.25v-84.21h84.21v84.21h-84.21Z"/>
  <path class="st16" d="M316.1,166.25v-84.21h84.21v84.21h-84.21Z"/>
  <path class="st16" d="M400.31,166.25v-84.21h84.21v84.21h-84.21Z"/>
  <path class="st1" d="M484.52,166.25v-84.21h84.21v84.21h-84.21Z"/>
  <path class="st12" d="M568.73,166.25v-84.21h84.21v84.21h-84.21Z"/>
  <path class="st16" d="M652.94,166.25v-84.21h84.21v84.21h-84.21Z"/>
  <path class="st16" d="M63.47,250.46v-84.21h84.21v84.21H63.47Z"/>
  <path class="st0" d="M147.68,250.46v-84.21h84.21v84.21h-84.21Z"/>
  <path class="st16" d="M231.89,250.46v-84.21h84.21v84.21h-84.21Z"/>
  <path class="st1" d="M316.1,250.46v-84.21h84.21v84.21h-84.21Z"/>
  <path class="st16" d="M400.31,250.46v-84.21h84.21v84.21h-84.21Z"/>
  <path class="st16" d="M484.52,250.46v-84.21h84.21v84.21h-84.21Z"/>
  <path class="st16" d="M568.73,250.46v-84.21h84.21v84.21h-84.21Z"/>
  <path class="st0" d="M652.94,250.46v-84.21h84.21v84.21h-84.21Z"/>
  <path class="st0" d="M63.47,334.67v-84.21h84.21v84.21H63.47Z"/>
  <path class="st16" d="M147.68,334.67v-84.21h84.21v84.21h-84.21Z"/>
  <path class="st16" d="M231.89,334.67v-84.21h84.21v84.21h-84.21Z"/>
  <path class="st16" d="M316.1,334.67v-84.21h84.21v84.21h-84.21Z"/>
  <path class="st17" d="M400.31,334.67v-84.21h84.21v84.21h-84.21Z"/>
  <path class="st16" d="M484.52,334.67v-84.21h84.21v84.21h-84.21Z"/>
  <path class="st0" d="M568.73,334.67v-84.21h84.21v84.21h-84.21Z"/>
  <path class="st16" d="M652.94,334.67v-84.21h84.21v84.21h-84.21Z"/>
  <path class="st16" d="M63.47,418.88v-84.21h84.21v84.21H63.47Z"/>
  <path class="st1" d="M147.68,418.88v-84.21h84.21v84.21h-84.21Z"/>
  <path class="st16" d="M231.89,418.88v-84.21h84.21v84.21h-84.21Z"/>
  <path class="st12" d="M316.1,418.88v-84.21h84.21v84.21h-84.21Z"/>
  <path class="st16" d="M400.31,418.88v-84.21h84.21v84.21h-84.21Z"/>
  <path class="st1" d="M484.52,418.88v-84.21h84.21v84.21h-84.21Z"/>
  <path class="st16" d="M568.73,418.88v-84.21h84.21v84.21h-84.21Z"/>
  <path class="st17" d="M652.94,418.88v-84.21h84.21v84.21h-84.21Z"/>
  <path class="st12" d="M63.47,503.09v-84.21h84.21v84.21H63.47Z"/>
  <path class="st17" d="M147.68,503.09v-84.21h84.21v84.21h-84.21Z"/>
  <path class="st12" d="M231.89,503.09v-84.21h84.21v84.21h-84.21Z"/>
  <path class="st16" d="M316.1,503.09v-84.21h84.21v84.21h-84.21Z"/>
  <path class="st12" d="M400.31,503.09v-84.21h84.21v84.21h-84.21Z"/>
  <path class="st17" d="M484.52,503.09v-84.21h84.21v84.21h-84.21Z"/>
  <path class="st16" d="M568.73,503.09v-84.21h84.21v84.21h-84.21Z"/>
  <path class="st12" d="M652.94,503.09v-84.21h84.21v84.21h-84.21Z"/>
  <path d="M0,397.69v-119.16h800v119.16H0Z"/>
  <path class="st17" d="M734.48,82.04V-2.17h84.21v84.21h-84.21Z"/>
  <path class="st0" d="M-18.08,82.04V-2.17h84.21v84.21H-18.08Z"/>
  <path class="st16" d="M734.48,166.25v-84.21h84.21v84.21h-84.21Z"/>
  <path class="st16" d="M-18.08,166.25v-84.21h84.21v84.21H-18.08Z"/>
  <path class="st0" d="M734.48,250.46v-84.21h84.21v84.21h-84.21Z"/>
  <path class="st0" d="M-18.08,250.46v-84.21h84.21v84.21H-18.08Z"/>
  <path class="st16" d="M734.48,334.67v-84.21h84.21v84.21h-84.21Z"/>
  <path class="st16" d="M-18.08,334.67v-84.21h84.21v84.21H-18.08Z"/>
  <path class="st1" d="M734.48,418.88v-84.21h84.21v84.21h-84.21Z"/>
  <path class="st17" d="M-18.08,418.88v-84.21h84.21v84.21H-18.08Z"/>
  <path class="st17" d="M734.48,503.09v-84.21h84.21v84.21h-84.21Z"/>
  <path class="st12" d="M-18.08,503.09v-84.21h84.21v84.21H-18.08Z"/>
  <path class="st9" d="M170.13,363.58v-55.16h52.77v23.58l-8.7,3.23,8.7,3.23v25.12h-52.77ZM201.15,315.3h-9.12v16.98h9.12v-16.98ZM201.15,339.16h-9.12v17.54h9.12v-17.54Z"/>
  <path class="st9" d="M232.73,363.58v-55.16h21.89v48.28h16.98v6.88h-38.88Z"/>
  <path class="st9" d="M306.83,363.58v-22.32h-9.12v22.32h-21.89v-55.16h52.91v55.16h-21.89ZM306.83,315.3h-9.12v19.09h9.12v-19.09Z"/>
  <path class="st9" d="M338.55,363.58v-55.16h38.88v6.88h-16.98v41.4h16.98v6.88h-38.88Z"/>
  <path class="st9" d="M418.55,363.58l-14.32-22.46v22.46h-21.89v-55.16h21.89v24.56l16.42-24.56h17.54l-17.26,25.96,20.77,29.33h-23.16v-.14Z"/>
  <path class="st9" d="M456.59,370.46h-12.49v-62.04h21.89v52.35l-9.4,9.68Z"/>
  <path class="st9" d="M505.29,363.58v-22.32h-9.12v22.32h-21.89v-55.16h52.77v55.16h-21.75ZM505.29,315.3h-9.12v19.09h9.12v-19.09Z"/>
  <path class="st9" d="M538.41,363.58v-55.16h38.88v6.88h-16.98v41.4h16.98v6.88h-38.88Z"/>
  <path class="st9" d="M618.41,363.58l-14.32-22.46v22.46h-21.89v-55.16h21.89v24.56l16.42-24.56h17.54l-17.26,25.96,20.77,29.33h-23.16v-.14Z"/>
  <path class="st7" d="M411.33,228.91c.56,3.09-1.4,6.04-4.49,6.6l-118.18,22.88c-3.09.56-6.04-1.4-6.6-4.49l-34.25-177.54c-.56-3.09,1.4-6.04,4.49-6.6l118.18-22.74c3.09-.56,6.04,1.4,6.6,4.49l34.25,177.4Z"/>
  <g>
    <path class="st9" d="M392.94,211.58c.56,3.09-1.4,6.04-4.49,6.6l-118.18,22.88c-3.09.56-6.04-1.4-6.6-4.49l-34.11-177.4c-.56-3.09,1.4-6.04,4.49-6.6l118.18-22.88c3.09-.56,6.04,1.4,6.6,4.49l34.11,177.4Z"/>
    <path class="st10" d="M392.94,211.58c.56,3.09-1.4,6.04-4.49,6.6l-118.18,22.88c-3.09.56-6.04-1.4-6.6-4.49l-34.11-177.4c-.56-3.09,1.4-6.04,4.49-6.6l118.18-22.88c3.09-.56,6.04,1.4,6.6,4.49l34.11,177.4Z"/>
  </g>
  <path class="st5" d="M337.22,192.14c-1.68,4.49-5.19,7.3-10.53,8.42-10.39,1.96-17.54-4.35-19.37-14.46-1.68-8.56,4.91-19.93,9.4-27.51,4.63-8,10.81-18.53,14.18-23.86h.14c5.05,3.79,14.74,11.09,22.04,16.84,6.46,5.05,17.26,13.47,18.95,22.04,1.96,10.11-2.25,18.67-12.63,20.63-5.33.98-9.68-.42-12.91-3.79v.14c2.39,9.26,5.47,16,10.53,19.79l.14.56-21.75,4.21-.14-.56c2.81-5.61,3.37-12.91,1.96-22.46h0Z"/>
  <path class="st5" d="M267.33,128c-.7,1.68-1.96,2.81-4.07,3.23-3.93.7-6.74-1.68-7.44-5.47-.7-3.23,1.96-7.58,3.65-10.53,1.82-3.09,4.21-7.02,5.47-9.12h0c1.96,1.4,5.61,4.21,8.42,6.46,2.39,1.96,6.6,5.19,7.3,8.42.7,3.93-.84,7.16-4.91,7.86-2.11.42-3.65-.14-4.91-1.4h0c.98,3.51,2.11,6.18,4.07,7.58v.28l-8.42,1.54v-.28c1.26-2.11,1.4-4.91.84-8.56Z"/>
  <path class="st7" d="M578.48,214.88c.56,3.09-1.4,6.04-4.49,6.6l-118.18,22.88c-3.09.56-6.04-1.4-6.6-4.49l-34.25-177.54c-.56-3.09,1.4-6.04,4.49-6.6l118.18-22.88c3.09-.56,6.04,1.4,6.6,4.49l34.25,177.54Z"/>
  <g>
    <path class="st9" d="M574.13,211.93c.56,3.09-1.4,6.04-4.49,6.6l-118.18,22.88c-3.09.56-6.04-1.4-6.6-4.49l-34.25-177.4c-.56-3.09,1.4-6.04,4.49-6.6l118.18-22.88c3.09-.56,6.04,1.4,6.6,4.49l34.25,177.4Z"/>
    <path class="st10" d="M574.13,211.93c.56,3.09-1.4,6.04-4.49,6.6l-118.18,22.88c-3.09.56-6.04-1.4-6.6-4.49l-34.25-177.4c-.56-3.09,1.4-6.04,4.49-6.6l118.18-22.88c3.09-.56,6.04,1.4,6.6,4.49l34.25,177.4Z"/>
  </g>
  <path class="st2" d="M446.13,96.14c-4.49.84-8.56,1.68-8.56,1.68l-5.89-30.88,15.16-2.95,5.05,25.96-5.75,6.18Z"/>
  <path class="st2" d="M429.84,99.32l-.8-4.13,14.33-2.77.8,4.13-14.33,2.77Z"/>
  <path class="st5" d="M494.51,93.41l-6.39-33.07,27.15-5.24,6.39,33.07-27.15,5.24Z"/>
  <path class="st5" d="M496.71,104.74l-2.87-14.88,16.26-3.14,2.87,14.88-16.26,3.14Z"/>
  <path class="st5" d="M525.57,76.49l-8.28,1.68-2.67-13.61h0l10.95,11.93Z"/>
  <path class="st11" d="M502.55,98.39l-20.91,4.07.98-33.82,20.91-4.07-.98,33.82Z"/>
  <path class="st14" d="M517.15,52.49l-38.6,7.44,9.4-10.39,16.56-3.23,12.63,6.18Z"/>
  <path class="st15" d="M524.73,104.42l-33.96,35.37-6.6-34.53,39.3-7.58,1.26,6.74Z"/>
  <path class="st15" d="M516.73,62.04l-35.79,6.88-5.89-10.95,42.95-8.28-1.26,12.35Z"/>
  <path class="st5" d="M518.27,192.14c-1.68,4.49-5.19,7.3-10.53,8.42-10.39,1.96-17.54-4.35-19.37-14.46-1.68-8.56,4.91-19.93,9.4-27.51,4.63-8,10.81-18.53,14.18-23.86h.14c5.05,3.79,14.74,11.09,22.04,16.84,6.46,5.05,17.26,13.47,18.95,22.04,1.96,10.11-2.25,18.67-12.63,20.63-5.33.98-9.68-.42-12.91-3.79v.14c2.39,9.26,5.47,16,10.53,19.79l.14.56-21.75,4.21-.14-.56c2.95-5.61,3.37-12.91,1.96-22.46h0Z"/>
  <path class="st5" d="M448.38,128c-.7,1.68-1.96,2.81-4.07,3.23-3.93.7-6.74-1.68-7.44-5.47-.7-3.23,1.96-7.58,3.65-10.53,1.82-3.09,4.21-7.02,5.47-9.12h0c1.96,1.4,5.61,4.21,8.42,6.46,2.39,1.96,6.6,5.19,7.3,8.42.7,3.93-.84,7.16-4.91,7.86-2.11.42-3.65-.14-4.91-1.4h0c.98,3.51,2.11,6.18,4.07,7.58v.28l-8.42,1.54v-.28c1.26-2.11,1.4-4.91.84-8.56h0Z"/>
  <path class="st7" d="M578.48,214.88c.56,3.09-1.4,6.04-4.49,6.6l-118.18,22.88c-3.09.56-6.04-1.4-6.6-4.49l-34.25-177.54c-.56-3.09,1.4-6.04,4.49-6.6l118.18-22.88c3.09-.56,6.04,1.4,6.6,4.49l34.25,177.54Z"/>
  <g>
    <path class="st9" d="M574.13,211.93c.56,3.09-1.4,6.04-4.49,6.6l-118.18,22.88c-3.09.56-6.04-1.4-6.6-4.49l-34.25-177.4c-.56-3.09,1.4-6.04,4.49-6.6l118.18-22.88c3.09-.56,6.04,1.4,6.6,4.49l34.25,177.4Z"/>
    <path class="st10" d="M574.13,211.93c.56,3.09-1.4,6.04-4.49,6.6l-118.18,22.88c-3.09.56-6.04-1.4-6.6-4.49l-34.25-177.4c-.56-3.09,1.4-6.04,4.49-6.6l118.18-22.88c3.09-.56,6.04,1.4,6.6,4.49l34.25,177.4Z"/>
  </g>
  <path class="st2" d="M446.13,96.14c-4.49.84-8.56,1.68-8.56,1.68l-5.89-30.88,15.16-2.95,5.05,25.96-5.75,6.18Z"/>
  <path class="st2" d="M429.84,99.32l-.8-4.13,14.33-2.77.8,4.13-14.33,2.77Z"/>
  <path class="st5" d="M494.51,93.41l-6.39-33.07,27.15-5.24,6.39,33.07-27.15,5.24Z"/>
  <path class="st5" d="M496.71,104.74l-2.87-14.88,16.26-3.14,2.87,14.88-16.26,3.14Z"/>
  <path class="st5" d="M525.57,76.49l-8.28,1.68-2.67-13.61h0l10.95,11.93Z"/>
  <path class="st11" d="M502.55,98.39l-20.91,4.07.98-33.82,20.91-4.07-.98,33.82Z"/>
  <path class="st14" d="M517.15,52.49l-38.6,7.44,9.4-10.39,16.56-3.23,12.63,6.18Z"/>
  <path class="st15" d="M524.73,104.42l-33.96,35.37-6.6-34.53,39.3-7.58,1.26,6.74Z"/>
  <path class="st15" d="M516.73,62.04l-35.79,6.88-5.89-10.95,42.95-8.28-1.26,12.35Z"/>
  <path class="st5" d="M518.27,192.14c-1.68,4.49-5.19,7.3-10.53,8.42-10.39,1.96-17.54-4.35-19.37-14.46-1.68-8.56,4.91-19.93,9.4-27.51,4.63-8,10.81-18.53,14.18-23.86h.14c5.05,3.79,14.74,11.09,22.04,16.84,6.46,5.05,17.26,13.47,18.95,22.04,1.96,10.11-2.25,18.67-12.63,20.63-5.33.98-9.68-.42-12.91-3.79v.14c2.39,9.26,5.47,16,10.53,19.79l.14.56-21.75,4.21-.14-.56c2.95-5.61,3.37-12.91,1.96-22.46h0Z"/>
  <path class="st5" d="M448.38,128c-.7,1.68-1.96,2.81-4.07,3.23-3.93.7-6.74-1.68-7.44-5.47-.7-3.23,1.96-7.58,3.65-10.53,1.82-3.09,4.21-7.02,5.47-9.12h0c1.96,1.4,5.61,4.21,8.42,6.46,2.39,1.96,6.6,5.19,7.3,8.42.7,3.93-.84,7.16-4.91,7.86-2.11.42-3.65-.14-4.91-1.4h0c.98,3.51,2.11,6.18,4.07,7.58v.28l-8.42,1.54v-.28c1.26-2.11,1.4-4.91.84-8.56h0Z"/>
  <path class="st7" d="M592.52,228.91c.56,3.09-1.4,6.04-4.49,6.6l-118.18,22.88c-3.09.56-6.04-1.4-6.6-4.49l-34.25-177.54c-.56-3.09,1.4-6.04,4.49-6.6l118.18-22.88c3.09-.56,6.04,1.4,6.6,4.49l34.25,177.54Z"/>
  <g>
    <path class="st9" d="M574.13,211.93c.56,3.09-1.4,6.04-4.49,6.6l-118.18,22.88c-3.09.56-6.04-1.4-6.6-4.49l-34.25-177.4c-.56-3.09,1.4-6.04,4.49-6.6l118.18-22.88c3.09-.56,6.04,1.4,6.6,4.49l34.25,177.4Z"/>
    <path class="st10" d="M574.13,211.93c.56,3.09-1.4,6.04-4.49,6.6l-118.18,22.88c-3.09.56-6.04-1.4-6.6-4.49l-34.25-177.4c-.56-3.09,1.4-6.04,4.49-6.6l118.18-22.88c3.09-.56,6.04,1.4,6.6,4.49l34.25,177.4Z"/>
  </g>
  <path class="st2" d="M446.13,96.14c-4.49.84-8.56,1.68-8.56,1.68l-5.89-30.88,15.16-2.95,5.05,25.96-5.75,6.18Z"/>
  <path class="st2" d="M429.84,99.32l-.8-4.13,14.33-2.77.8,4.13-14.33,2.77Z"/>
  <path class="st5" d="M494.51,93.41l-6.39-33.07,27.15-5.24,6.39,33.07-27.15,5.24Z"/>
  <path class="st5" d="M496.71,104.74l-2.87-14.88,16.26-3.14,2.87,14.88-16.26,3.14Z"/>
  <path class="st5" d="M525.57,76.49l-8.28,1.68-2.67-13.61h0l10.95,11.93Z"/>
  <path class="st11" d="M502.55,98.39l-20.91,4.07.98-33.82,20.91-4.07-.98,33.82Z"/>
  <path class="st14" d="M517.15,52.49l-38.6,7.44,9.4-10.39,16.56-3.23,12.63,6.18Z"/>
  <path class="st15" d="M524.73,104.42l-33.96,35.37-6.6-34.53,39.3-7.58,1.26,6.74Z"/>
  <path class="st15" d="M516.73,62.04l-35.79,6.88-5.89-10.95,42.95-8.28-1.26,12.35Z"/>
  <path class="st5" d="M518.27,192.14c-1.68,4.49-5.19,7.3-10.53,8.42-10.39,1.96-17.54-4.35-19.37-14.46-1.68-8.56,4.91-19.93,9.4-27.51,4.63-8,10.81-18.53,14.18-23.86h.14c5.05,3.79,14.74,11.09,22.04,16.84,6.46,5.05,17.26,13.47,18.95,22.04,1.96,10.11-2.25,18.67-12.63,20.63-5.33.98-9.68-.42-12.91-3.79v.14c2.39,9.26,5.47,16,10.53,19.79l.14.56-21.75,4.21-.14-.56c2.95-5.61,3.37-12.91,1.96-22.46h0Z"/>
  <path class="st5" d="M448.38,128c-.7,1.68-1.96,2.81-4.07,3.23-3.93.7-6.74-1.68-7.44-5.47-.7-3.23,1.96-7.58,3.65-10.53,1.82-3.09,4.21-7.02,5.47-9.12h0c1.96,1.4,5.61,4.21,8.42,6.46,2.39,1.96,6.6,5.19,7.3,8.42.7,3.93-.84,7.16-4.91,7.86-2.11.42-3.65-.14-4.91-1.4h0c.98,3.51,2.11,6.18,4.07,7.58v.28l-8.42,1.54v-.28c1.26-2.11,1.4-4.91.84-8.56h0Z"/>
  <g>
    <g>
      <path class="st4" d="M634.69,450.04c0-17.82,14.46-32.28,32.28-32.28s32.28,14.46,32.28,32.28-14.46,32.28-32.28,32.28-32.28-14.46-32.28-32.28Z"/>
      <path class="st3" d="M634.69,446.67c0-17.82,14.46-32.28,32.28-32.28s32.28,14.46,32.28,32.28-14.46,32.28-32.28,32.28-32.28-14.46-32.28-32.28Z"/>
      <path class="st13" d="M666.97,440.77v32.28c-17.82,0-32.28-14.46-32.28-32.28h32.28Z"/>
      <path class="st9" d="M666.97,440.91h-32.28c0-17.82,14.46-32.28,32.28-32.28v32.28Z"/>
      <path class="st6" d="M666.97,473.06v-32.28h32.28c0,17.82-14.46,32.28-32.28,32.28Z"/>
      <path class="st13" d="M666.97,440.77v-32.28c17.82,0,32.28,14.46,32.28,32.28h-32.28Z"/>
      <path class="st8" d="M646.06,440.49c0-11.51,9.4-20.91,20.91-20.91s20.91,9.4,20.91,20.91-9.4,20.91-20.91,20.91c-11.51-.14-20.91-9.4-20.91-20.91Z"/>
    </g>
    <g>
      <path class="st4" d="M519.33,427.86c0-17.82,14.46-32.28,32.28-32.28s32.28,14.46,32.28,32.28-14.46,32.28-32.28,32.28c-17.82-.14-32.28-14.6-32.28-32.28Z"/>
      <path class="st3" d="M519.33,424.49c0-17.82,14.46-32.28,32.28-32.28s32.28,14.46,32.28,32.28-14.46,32.28-32.28,32.28-32.28-14.46-32.28-32.28Z"/>
      <path class="st13" d="M551.61,418.6v32.28c-17.82,0-32.28-14.46-32.28-32.28h32.28Z"/>
      <path class="st9" d="M551.61,418.6h-32.28c0-17.82,14.46-32.28,32.28-32.28v32.28Z"/>
      <path class="st6" d="M551.61,450.88v-32.28h32.28c0,17.82-14.46,32.28-32.28,32.28Z"/>
      <path class="st13" d="M551.61,418.6v-32.28c17.82,0,32.28,14.46,32.28,32.28h-32.28Z"/>
      <path class="st8" d="M530.69,418.18c0-11.51,9.4-20.91,20.91-20.91s20.91,9.4,20.91,20.91-9.4,20.91-20.91,20.91-20.91-9.26-20.91-20.91Z"/>
    </g>
    <g>
      <path class="st4" d="M446.06,452.42c0-17.82,14.46-32.28,32.28-32.28s32.28,14.46,32.28,32.28-14.46,32.28-32.28,32.28c-17.82-.14-32.28-14.46-32.28-32.28Z"/>
      <path class="st3" d="M446.06,449.06c0-17.82,14.46-32.28,32.28-32.28s32.28,14.46,32.28,32.28-14.46,32.28-32.28,32.28-32.28-14.46-32.28-32.28Z"/>
      <path class="st13" d="M478.34,443.16v32.28c-17.82,0-32.28-14.46-32.28-32.28h32.28Z"/>
      <path class="st9" d="M478.34,443.16h-32.28c0-17.82,14.46-32.28,32.28-32.28v32.28Z"/>
      <path class="st6" d="M478.34,475.44v-32.28h32.28c0,17.82-14.46,32.28-32.28,32.28Z"/>
      <path class="st13" d="M478.34,443.16v-32.28c17.82,0,32.28,14.46,32.28,32.28h-32.28Z"/>
      <path class="st8" d="M457.43,442.88c0-11.51,9.4-20.91,20.91-20.91s20.91,9.4,20.91,20.91-9.4,20.91-20.91,20.91c-11.51-.14-20.91-9.4-20.91-20.91Z"/>
    </g>
    <g>
      <path class="st4" d="M551.61,466.74c0-17.82,14.46-32.28,32.28-32.28s32.28,14.46,32.28,32.28-14.46,32.28-32.28,32.28-32.28-14.46-32.28-32.28Z"/>
      <path class="st3" d="M551.61,463.37c0-17.82,14.46-32.28,32.28-32.28s32.28,14.46,32.28,32.28-14.46,32.28-32.28,32.28-32.28-14.46-32.28-32.28Z"/>
      <path class="st13" d="M583.89,457.48v32.28c-17.82,0-32.28-14.46-32.28-32.28h32.28Z"/>
      <path class="st9" d="M583.89,457.62h-32.28c0-17.82,14.46-32.28,32.28-32.28v32.28Z"/>
      <path class="st6" d="M583.75,489.76v-32.28h32.28c0,17.82-14.32,32.28-32.28,32.28Z"/>
      <path class="st13" d="M583.75,457.48v-32.28c17.82,0,32.28,14.46,32.28,32.28h-32.28Z"/>
      <path class="st8" d="M562.97,457.2c0-11.51,9.4-20.91,20.91-20.91s20.91,9.4,20.91,20.91-9.4,20.91-20.91,20.91-20.91-9.4-20.91-20.91Z"/>
    </g>
  </g>
  <path d="M265.77,96.1l-2.44-11.79-4.82,1,2.44,11.79-11.56,2.39-6.03-29.13,27.87-5.77,6.03,29.13-11.49,2.38ZM260.49,70.61l-4.82,1,2.09,10.08,4.82-1-2.09-10.08Z"/>
  <rect x="-18.08" y="278.53" width="84.21" height="119.16"/>
  <rect x="734.48" y="278.53" width="84.21" height="119.16"/>
</svg>