<?xml version="1.0" encoding="UTF-8"?>
<svg id="_レイヤー_1" data-name="レイヤー_1" xmlns="http://www.w3.org/2000/svg" version="1.1" viewBox="0 0 800 500">
  <!-- Generator: Adobe Illustrator 30.1.0, SVG Export Plug-In . SVG Version: 2.1.1 Build 136)  -->
  <defs>
    <style>
      .st0 {
        fill: #806fd1;
      }

      .st1 {
        fill: #3b426e;
      }

      .st2 {
        fill: #2d3659;
      }

      .st3 {
        fill: #3d357c;
      }

      .st4 {
        fill: none;
        stroke: #6f9ea9;
        stroke-miterlimit: 10;
        stroke-width: .25px;
      }

      .st5 {
        fill: #616a93;
      }

      .st6 {
        fill: #fff;
      }

      .st7 {
        fill: #a03232;
      }

      .st8 {
        fill: #17343a;
      }

      .st9 {
        fill: #007676;
      }

      .st10 {
        fill: #50a040;
      }

      .st11 {
        fill: #14a7af;
      }

      .st12 {
        fill: #87e9f4;
      }

      .st13 {
        fill: #00d0d0;
      }

      .st14 {
        fill: #ea8888;
      }

      .st15 {
        fill: #77e264;
      }
    </style>
  </defs>
  <g>
    <g id="_レイヤー_11" data-name="レイヤー_1">
      <path class="st5" d="M67.07,500V0h666.67v500H67.07Z"/>
      <path class="st2" d="M65.68,95.83V0h666.67v95.83H65.68Z"/>
      <path class="st1" d="M83.87,500h-18.19V0l55,97.22-36.81,402.78Z"/>
      <path class="st1" d="M677.35,97.22L732.35,0v500h-23.06l-31.94-402.78Z"/>
      <path class="st4" d="M65.68,435.42l55-34.03s164.58,9.72,276.94,9.72c104.86,0,279.72-9.72,279.72-9.72l55,34.03"/>
      <path class="st4" d="M732.35,285.56s-206.67,16.67-331.94,16.67c-135,0-334.72-16.67-334.72-16.67"/>
      <path class="st5" d="M678.18,103.19c0,46.39-124.72,84.03-278.47,84.03S121.23,149.72,121.23,103.19,245.96,19.17,399.71,19.17s278.47,37.64,278.47,84.03Z"/>
      <path class="st4" d="M732.35,135.69l-55,34.03s-177.78,9.72-278.33,9.72c-116.81,0-278.33-9.72-278.33-9.72l-55-34.03"/>
      <path class="st4" d="M399.01,500V0"/>
      <path class="st4" d="M224.01,0l27.78,91.81-13.89,408.19"/>
      <path class="st4" d="M565.68,500l-13.89-408.19L579.57,0"/>
    </g>
    <path d="M98.83,181.91l-7.93-43.03,66.66-12.28,7.93,43.03-66.66,12.28Z"/>
    <path class="st12" d="M91.19,167.32l-7.93-43.03,66.66-12.28,7.93,43.03-66.66,12.28Z"/>
    <path class="st11" d="M91.27,167.21l-3.95-21.45,66.66-12.28,3.95,21.45-66.66,12.28Z"/>
    <path d="M167.16,169.27l-7.93-43.03,66.66-12.28,7.93,43.03-66.66,12.28Z"/>
    <path class="st12" d="M159.52,154.69l-7.93-43.03,66.66-12.28,7.93,43.03-66.66,12.28Z"/>
    <path class="st11" d="M159.6,154.57l-3.95-21.45,66.66-12.28,3.95,21.45-66.66,12.28Z"/>
    <path d="M235.65,156.74l-7.93-43.03,66.66-12.28,7.93,43.03-66.66,12.28Z"/>
    <path class="st12" d="M228,142.16l-7.93-43.03,66.66-12.28,7.93,43.03-66.66,12.28Z"/>
    <path class="st11" d="M227.95,142.07l-3.95-21.45,66.66-12.28,3.95,21.45-66.66,12.28Z"/>
    <path d="M303.98,144.11l-7.93-43.03,66.66-12.28,7.93,43.03-66.66,12.28Z"/>
    <path class="st12" d="M296.33,129.52l-7.93-43.03,66.66-12.28,7.93,43.03-66.66,12.28Z"/>
    <path class="st11" d="M296.28,129.43l-3.95-21.45,66.66-12.28,3.95,21.45-66.66,12.28Z"/>
    <path d="M372.3,131.47l-7.93-43.03,66.66-12.28,7.93,43.03-66.66,12.28Z"/>
    <path class="st12" d="M364.66,116.88l-7.93-43.03,66.66-12.28,7.93,43.03-66.66,12.28Z"/>
    <path class="st11" d="M364.61,116.79l-3.95-21.45,66.66-12.28,3.95,21.45-66.66,12.28Z"/>
    <path d="M440.66,118.97l-7.93-43.03,66.66-12.28,7.93,43.03-66.66,12.28Z"/>
    <path class="st12" d="M433.01,104.38l-7.93-43.03,66.66-12.28,7.93,43.03-66.66,12.28Z"/>
    <path class="st11" d="M432.96,104.29l-3.95-21.45,66.66-12.28,3.95,21.45-66.66,12.28Z"/>
    <path d="M508.98,106.33l-7.93-43.03,66.66-12.28,7.93,43.03-66.66,12.28Z"/>
    <path class="st12" d="M501.34,91.75l-7.93-43.03,66.66-12.28,7.93,43.03-66.66,12.28Z"/>
    <path class="st11" d="M501.29,91.66l-3.95-21.45,66.66-12.28,3.95,21.45-66.66,12.28Z"/>
    <path d="M577.31,93.69l-7.93-43.03,66.66-12.28,7.93,43.03-66.66,12.28Z"/>
    <path class="st12" d="M569.67,79.11l-7.93-43.03,66.66-12.28,7.93,43.03-66.66,12.28Z"/>
    <path class="st11" d="M569.75,78.99l-3.95-21.45,66.66-12.28,3.95,21.45-66.66,12.28Z"/>
    <path d="M109.94,242.19l-7.93-43.03,66.66-12.28,7.93,43.03-66.66,12.28Z"/>
    <path class="st15" d="M102.29,227.6l-7.93-43.03,66.66-12.28,7.93,43.03-66.66,12.28Z"/>
    <path class="st10" d="M102.38,227.49l-3.95-21.45,66.66-12.28,3.95,21.45-66.66,12.28Z"/>
    <path d="M178.43,229.66l-7.93-43.03,66.66-12.28,7.93,43.03-66.66,12.28Z"/>
    <path class="st15" d="M170.65,215.1l-7.93-43.03,66.66-12.28,7.93,43.03-66.66,12.28Z"/>
    <path class="st10" d="M170.73,214.99l-3.95-21.45,66.66-12.28,3.95,21.45-66.66,12.28Z"/>
    <path d="M246.75,217.03l-7.93-43.03,66.66-12.28,7.93,43.03-66.66,12.28Z"/>
    <path class="st15" d="M239.11,202.44l-7.93-43.03,66.66-12.28,7.93,43.03-66.66,12.28Z"/>
    <path class="st10" d="M239.06,202.35l-3.95-21.45,66.66-12.28,3.95,21.45-66.66,12.28Z"/>
    <path d="M315.08,204.39l-7.93-43.03,66.66-12.28,7.93,43.03-66.66,12.28Z"/>
    <path class="st15" d="M307.44,189.8l-7.93-43.03,66.66-12.28,7.93,43.03-66.66,12.28Z"/>
    <path class="st10" d="M307.39,189.71l-3.95-21.45,66.66-12.28,3.95,21.45-66.66,12.28Z"/>
    <path d="M383.43,191.89l-7.93-43.03,66.66-12.28,7.93,43.03-66.66,12.28Z"/>
    <path class="st15" d="M375.79,177.3l-7.93-43.03,66.66-12.28,7.93,43.03-66.66,12.28Z"/>
    <path class="st10" d="M375.74,177.21l-3.95-21.45,66.66-12.28,3.95,21.45-66.66,12.28Z"/>
    <path d="M451.76,179.25l-7.93-43.03,66.66-12.28,7.93,43.03-66.66,12.28Z"/>
    <path class="st15" d="M444.12,164.66l-7.93-43.03,66.66-12.28,7.93,43.03-66.66,12.28Z"/>
    <path class="st10" d="M444.07,164.57l-3.95-21.45,66.66-12.28,3.95,21.45-66.66,12.28Z"/>
    <path d="M520.09,166.61l-7.93-43.03,66.66-12.28,7.93,43.03-66.66,12.28Z"/>
    <path class="st15" d="M512.47,152.16l-7.93-43.03,66.66-12.28,7.93,43.03-66.66,12.28Z"/>
    <path class="st10" d="M512.39,151.94l-3.95-21.45,66.66-12.28,3.95,21.45-66.66,12.28Z"/>
    <path d="M588.44,154.11l-7.93-43.03,66.66-12.28,7.93,43.03-66.66,12.28Z"/>
    <path class="st15" d="M580.8,139.53l-7.93-43.03,66.66-12.28,7.93,43.03-66.66,12.28Z"/>
    <path class="st10" d="M580.88,139.41l-3.95-21.45,66.66-12.28,3.95,21.45-66.66,12.28Z"/>
    <path d="M121.07,302.61l-7.93-43.03,66.66-12.28,7.93,43.03-66.66,12.28Z"/>
    <path class="st0" d="M113.42,288.02l-7.93-43.03,66.66-12.28,7.93,43.03-66.66,12.28Z"/>
    <path class="st3" d="M113.51,287.91l-3.95-21.45,66.66-12.28,3.95,21.45-66.66,12.28Z"/>
    <path d="M189.53,289.94l-7.93-43.03,66.66-12.28,7.93,43.03-66.66,12.28Z"/>
    <path class="st0" d="M181.75,275.39l-7.93-43.03,66.66-12.28,7.93,43.03-66.66,12.28Z"/>
    <path class="st3" d="M181.84,275.27l-3.95-21.45,66.66-12.28,3.95,21.45-66.66,12.28Z"/>
    <path d="M257.86,277.31l-7.93-43.03,66.66-12.28,7.93,43.03-66.66,12.28Z"/>
    <path class="st0" d="M250.24,262.86l-7.93-43.03,66.66-12.28,7.93,43.03-66.66,12.28Z"/>
    <path class="st3" d="M250.16,262.63l-3.95-21.45,66.66-12.28,3.95,21.45-66.66,12.28Z"/>
    <path d="M326.21,264.81l-7.93-43.03,66.66-12.28,7.93,43.03-66.66,12.28Z"/>
    <path class="st0" d="M318.57,250.22l-7.93-43.03,66.66-12.28,7.93,43.03-66.66,12.28Z"/>
    <path class="st3" d="M318.52,250.13l-3.95-21.45,66.66-12.28,3.95,21.45-66.66,12.28Z"/>
    <path d="M394.54,252.17l-7.93-43.03,66.66-12.28,7.93,43.03-66.66,12.28Z"/>
    <path class="st0" d="M386.9,237.58l-7.93-43.03,66.66-12.28,7.93,43.03-66.66,12.28Z"/>
    <path class="st3" d="M386.84,237.49l-3.95-21.45,66.66-12.28,3.95,21.45-66.66,12.28Z"/>
    <path d="M462.87,239.53l-7.93-43.03,66.66-12.28,7.93,43.03-66.66,12.28Z"/>
    <path class="st0" d="M455.25,225.08l-7.93-43.03,66.66-12.28,7.93,43.03-66.66,12.28Z"/>
    <path class="st3" d="M455.17,224.86l-3.95-21.45,66.66-12.28,3.95,21.45-66.66,12.28Z"/>
    <path d="M531.22,227.03l-7.93-43.03,66.66-12.28,7.93,43.03-66.66,12.28Z"/>
    <path class="st0" d="M523.58,212.44l-7.93-43.03,66.66-12.28,7.93,43.03-66.66,12.28Z"/>
    <path class="st3" d="M523.52,212.36l-3.95-21.45,66.66-12.28,3.95,21.45-66.66,12.28Z"/>
    <path d="M599.55,214.39l-7.93-43.03,66.66-12.28,7.93,43.03-66.66,12.28Z"/>
    <path class="st0" d="M591.9,199.81l-7.93-43.03,66.66-12.28,7.93,43.03-66.66,12.28Z"/>
    <path class="st3" d="M591.99,199.69l-3.95-21.45,66.66-12.28,3.95,21.45-66.66,12.28Z"/>
    <path d="M132.17,362.89l-7.93-43.03,66.66-12.28,7.93,43.03-66.66,12.28Z"/>
    <path class="st14" d="M124.53,348.3l-7.93-43.03,66.66-12.28,7.93,43.03-66.66,12.28Z"/>
    <path class="st7" d="M124.61,348.19l-3.95-21.45,66.66-12.28,3.95,21.45-66.66,12.28Z"/>
    <path d="M200.64,350.23l-7.93-43.03,66.66-12.28,7.93,43.03-66.66,12.28Z"/>
    <path class="st14" d="M192.88,335.8l-7.93-43.03,66.66-12.28,7.93,43.03-66.66,12.28Z"/>
    <path class="st7" d="M192.94,335.55l-3.95-21.45,66.66-12.28,3.95,21.45-66.66,12.28Z"/>
    <path d="M268.99,337.72l-7.93-43.03,66.66-12.28,7.93,43.03-66.66,12.28Z"/>
    <path class="st14" d="M261.34,323.14l-7.93-43.03,66.66-12.28,7.93,43.03-66.66,12.28Z"/>
    <path class="st7" d="M261.29,323.05l-3.95-21.45,66.66-12.28,3.95,21.45-66.66,12.28Z"/>
    <path d="M337.32,325.09l-7.93-43.03,66.66-12.28,7.93,43.03-66.66,12.28Z"/>
    <path class="st14" d="M329.67,310.5l-7.93-43.03,66.66-12.28,7.93,43.03-66.66,12.28Z"/>
    <path class="st7" d="M329.62,310.41l-3.95-21.45,66.66-12.28,3.95,21.45-66.66,12.28Z"/>
    <path d="M405.64,312.45l-7.93-43.03,66.66-12.28,7.93,43.03-66.66,12.28Z"/>
    <path class="st14" d="M398.02,298l-7.93-43.03,66.66-12.28,7.93,43.03-66.66,12.28Z"/>
    <path class="st7" d="M397.97,297.91l-3.95-21.45,66.66-12.28,3.95,21.45-66.66,12.28Z"/>
    <path d="M542.32,287.31l-7.93-43.03,66.66-12.28,7.93,43.03-66.66,12.28Z"/>
    <path class="st14" d="M534.68,272.73l-7.93-43.03,66.66-12.28,7.93,43.03-66.66,12.28Z"/>
    <path class="st7" d="M534.63,272.64l-3.95-21.45,66.66-12.28,3.95,21.45-66.66,12.28Z"/>
    <path d="M610.65,274.67l-7.93-43.03,66.66-12.28,7.93,43.03-66.66,12.28Z"/>
    <path class="st14" d="M603.03,260.22l-7.93-43.03,66.66-12.28,7.93,43.03-66.66,12.28Z"/>
    <path class="st7" d="M603.12,260.11l-3.95-21.45,66.66-12.28,3.95,21.45-66.66,12.28Z"/>
    <g>
      <path d="M564.71,350.42c0-11.12,9.02-20.14,20.14-20.14s20.14,9.02,20.14,20.14-9.02,20.14-20.14,20.14-20.14-9.02-20.14-20.14h0Z"/>
      <path class="st6" d="M554.29,336.53c0-11.12,9.02-20.14,20.14-20.14s20.14,9.02,20.14,20.14-9.02,20.14-20.14,20.14-20.14-9.02-20.14-20.14h0Z"/>
    </g>
    <path class="st6" d="M565.68,335.69l-56.53-27.64-263.33,191.94h-117.5l376.25-219.03,65.69,47.22"/>
    <g>
      <path class="st8" d="M456.65,431.46c3.61,12.08-10.69,26.81-31.81,33.06-21.11,6.25-41.11,1.53-44.58-10.56-3.47-12.08,10.69-26.81,31.81-33.06,21.11-6.11,41.11-1.39,44.58,10.56Z"/>
      <path class="st9" d="M455.96,426.88l-29.72,27.64-26.53-76.67,56.25,49.03Z"/>
      <path class="st13" d="M399.85,378.27l26.67,77.22-47.36-5.42,20.69-71.81Z"/>
    </g>
    <g>
      <path class="st8" d="M456.65,431.46c3.61,12.08-10.69,26.81-31.81,33.06-21.11,6.25-41.11,1.53-44.58-10.56-3.47-12.08,10.69-26.81,31.81-33.06,21.11-6.11,41.11-1.39,44.58,10.56Z"/>
      <path class="st9" d="M455.96,426.88l-29.72,27.64-26.53-76.67,56.25,49.03Z"/>
      <path class="st13" d="M399.85,378.27l26.67,77.22-47.36-5.42,20.69-71.81Z"/>
    </g>
    <g>
      <path class="st8" d="M223.18,351.74c2.78,9.44-8.33,20.97-24.72,25.83-16.39,4.86-32.08,1.25-34.86-8.19-2.78-9.44,8.33-20.97,24.72-25.83,16.39-4.72,32.08-1.11,34.86,8.19h0Z"/>
      <path class="st9" d="M222.48,348.27l-23.19,21.53-20.69-59.86,43.89,38.33Z"/>
      <path class="st13" d="M178.73,310.35l20.83,60.14-36.94-4.17,16.11-55.97Z"/>
    </g>
  </g>
  <path class="st1" d="M0,.01h67.07v499.99H0S0-2.94,0,.01Z"/>
  <path class="st1" d="M732.35.01h67.07v499.99h-67.07S732.35-2.94,732.35.01Z"/>
</svg>