<?xml version="1.0" encoding="UTF-8"?>
<svg id="_レイヤー_1" data-name="レイヤー_1" xmlns="http://www.w3.org/2000/svg" version="1.1" viewBox="0 0 800 500">
  <!-- Generator: Adobe Illustrator 30.1.0, SVG Export Plug-In . SVG Version: 2.1.1 Build 136)  -->
  <defs>
    <style>
      .st0 {
        fill: #ffd499;
      }

      .st1 {
        fill: #2568b3;
      }

      .st2 {
        fill: #315a60;
      }

      .st3 {
        fill: #231815;
      }

      .st4 {
        fill: #10839a;
      }

      .st5 {
        fill: #600;
      }

      .st6 {
        fill: #fff;
      }

      .st7 {
        fill: #db4949;
      }

      .st8 {
        fill: red;
      }

      .st9 {
        fill: #5ec37e;
      }
    </style>
  </defs>
  <rect class="st2" width="800" height="500"/>
  <path id="ID0.01855316571891308" class="st4" d="M67.91,0h665.75v500H67.91V0Z"/>
  <path id="ID0.8709455425851047" class="st6" d="M122.61,83.43h221.55v4.01H122.61v-4.01Z"/>
  <path id="ID0.2884571976028383" class="st6" d="M122.61,97.24h221.55v4.01H122.61v-4.01Z"/>
  <path id="ID0.18536404380574822" class="st6" d="M122.61,111.05h221.55v4.01H122.61v-4.01Z"/>
  <path id="ID0.029692402109503746" class="st9" d="M68.32,162.43h332.73v337.57H68.32V162.43Z"/>
  <path id="ID0.7961015948094428" class="st9" d="M401.2,162.43H68.32l34.81-38.81h263.26l34.81,38.81"/>
  <path id="ID0.7634040312841535" class="st7" d="M126.89,130.52c0,6.91-5.52,12.43-12.43,12.43h0c-6.91,0-12.43-5.52-12.43-12.43v-55.52c0-6.91,5.52-12.43,12.43-12.43h0c6.91,0,12.43,5.52,12.43,12.43v55.52Z"/>
  <path id="ID0.8768561827018857" class="st7" d="M363.9,130.52c0,6.91-5.52,12.43-12.43,12.43h0c-6.91,0-12.43-5.52-12.43-12.43v-55.52c0-6.91,5.52-12.43,12.43-12.43h0c6.91,0,12.43,5.52,12.43,12.43v55.52Z"/>
  <path id="ID0.14478594716638327" class="st6" d="M107.83,87.43l-40.61,41.57v-4.01l40.61-41.57v4.01"/>
  <path id="ID0.07018433278426528" class="st6" d="M107.83,101.24l-40.61,41.57v-4.01l40.61-41.57v4.01"/>
  <path id="ID0.37265932699665427" class="st6" d="M107.83,115.06l-40.61,41.71v-4.01l40.61-41.57v3.87"/>
  <path id="ID0.22794522950425744" class="st6" d="M360.73,87.43l40.75,41.57v-4.01l-40.75-41.57v4.01"/>
  <path id="ID0.14230536576360464" class="st6" d="M360.73,101.24l40.75,41.57v-4.01l-40.75-41.57v4.01"/>
  <path id="ID0.687873630784452" class="st6" d="M360.73,115.06l40.75,41.57v-4.01l-40.75-41.57v4.01"/>
  <path id="ID0.9775181892327964" class="st6" d="M455.89,83.43h221.55v4.01h-221.55v-4.01Z"/>
  <path id="ID0.5001810663379729" class="st6" d="M455.89,97.24h221.55v4.01h-221.55v-4.01Z"/>
  <path id="ID0.8779781851917505" class="st6" d="M455.89,111.05h221.55v4.01h-221.55v-4.01Z"/>
  <path id="ID0.9946325845085084" class="st9" d="M401.61,162.43h332.73v337.57h-332.73V162.43Z"/>
  <path id="ID0.3524274523369968" class="st9" d="M734.35,162.43h-332.73l34.81-38.81h263.26l34.67,38.81"/>
  <path id="ID0.25475808419287205" class="st7" d="M460.17,130.52c0,6.91-5.52,12.43-12.43,12.43h0c-6.91,0-12.43-5.52-12.43-12.43v-55.52c0-6.91,5.52-12.43,12.43-12.43h0c6.91,0,12.43,5.52,12.43,12.43v55.52Z"/>
  <path id="ID0.7415451887063682" class="st7" d="M697.05,130.52c0,6.91-5.52,12.43-12.43,12.43h0c-6.91,0-12.43-5.52-12.43-12.43v-55.52c0-6.91,5.52-12.43,12.43-12.43h0c6.91,0,12.43,5.52,12.43,12.43v55.52Z"/>
  <path id="ID0.01374775543808937" class="st6" d="M440.98,87.43l-40.61,41.57v-4.01l40.61-41.57v4.01"/>
  <path id="ID0.9402858554385602" class="st6" d="M440.98,101.24l-40.61,41.57v-4.01l40.61-41.57v4.01"/>
  <path id="ID0.5574559206143022" class="st6" d="M440.98,115.06l-40.61,41.57v-4.01l40.61-41.57v4.01"/>
  <path id="ID0.157094351015985" class="st6" d="M693.88,87.43l40.75,41.57v-4.01l-40.75-41.57v4.01"/>
  <path id="ID0.40006532706320286" class="st6" d="M693.88,101.24l40.75,41.57v-4.01l-40.75-41.57v4.01"/>
  <path id="ID0.3432109425775707" class="st6" d="M693.88,115.06l40.75,41.57v-4.01l-40.75-41.57v4.01"/>
  <path id="ID0.2815685626119375" class="st3" d="M395.12,0h10.5v500h-10.5V0Z"/>
  <circle class="st8" cx="150.23" cy="417.13" r="35.91"/>
  <circle class="st8" cx="304.93" cy="417.13" r="35.91"/>
  <path id="ID0.26684542652219534" class="st5" d="M232.83,361.88c5.11,0,9.67,3.45,13.12,8.84,3.31,5.52,5.39,12.98,5.39,21.41s-2.07,15.88-5.39,21.41c-3.31,5.52-8.01,8.84-13.12,8.84s-9.67-3.45-13.12-8.84c-3.31-5.52-5.39-12.98-5.39-21.41s2.07-15.88,5.39-21.41c3.45-5.39,8.15-8.84,13.12-8.84Z"/>
  <path id="ID0.43823694298043847" class="st0" d="M232.83,392.13c21.27,0,40.47,3.73,54.42,9.94,13.95,6.08,22.65,14.5,22.65,23.76s-8.7,17.68-22.65,23.76c-13.95,6.08-33.29,9.94-54.42,9.94s-40.47-3.73-54.42-9.94c-13.95-6.08-22.65-14.5-22.65-23.76s8.7-17.68,22.65-23.76c13.95-6.08,33.29-9.94,54.42-9.94Z"/>
  <path class="st0" d="M278.82,446.69c0-29.83-20.72-24.17-45.99-24.17s-45.86-5.52-45.86,24.17c0,12.02,3.45,28.18,9.25,42.96h73.48c5.8-14.78,9.12-30.94,9.12-42.96Z"/>
  <path class="st8" d="M280.2,489.64h-10.5c-1.38,3.59-2.9,7.04-4.56,10.36h15.06v-10.36h0Z"/>
  <path class="st8" d="M182.83,489.64v10.36h17.96c-1.66-3.31-3.18-6.77-4.56-10.36h-13.4Z"/>
  <path class="st8" d="M196.22,489.64c1.38,3.59,2.9,7.04,4.56,10.36h64.5c1.66-3.31,3.18-6.77,4.56-10.36h-73.62Z"/>
  <circle class="st1" cx="489.04" cy="417.13" r="35.91"/>
  <circle class="st1" cx="643.74" cy="417.13" r="35.91"/>
  <path id="ID0.266845426522195341" data-name="ID0.26684542652219534" class="st5" d="M571.64,361.88c5.11,0,9.67,3.45,13.12,8.84,3.31,5.52,5.39,12.98,5.39,21.41s-2.07,15.88-5.39,21.41c-3.31,5.52-8.01,8.84-13.12,8.84s-9.67-3.45-13.12-8.84c-3.31-5.52-5.39-12.98-5.39-21.41s2.07-15.88,5.39-21.41c3.45-5.39,8.15-8.84,13.12-8.84Z"/>
  <path id="ID0.438236942980438471" data-name="ID0.43823694298043847" class="st0" d="M571.64,392.13c21.27,0,40.47,3.73,54.42,9.94,13.95,6.08,22.65,14.5,22.65,23.76s-8.7,17.68-22.65,23.76c-13.95,6.08-33.29,9.94-54.42,9.94s-40.47-3.73-54.42-9.94c-13.95-6.08-22.65-14.5-22.65-23.76s8.7-17.68,22.65-23.76c13.95-6.22,33.29-9.94,54.42-9.94Z"/>
  <path class="st0" d="M617.63,446.69c0-29.83-20.72-24.17-45.99-24.17s-45.86-5.52-45.86,24.17c0,12.02,3.45,28.18,9.25,42.96h73.48c5.8-14.78,9.12-30.94,9.12-42.96Z"/>
  <path class="st1" d="M521.64,489.64v10.36h17.96c-1.66-3.31-3.18-6.77-4.56-10.36h-13.4Z"/>
  <path class="st1" d="M619.01,489.64h-10.5c-1.38,3.59-2.9,7.04-4.56,10.36h15.06v-10.36Z"/>
  <path class="st1" d="M535.04,489.64c1.38,3.59,2.9,7.04,4.56,10.36h64.5c1.66-3.31,3.18-6.77,4.56-10.36h-73.62Z"/>
  <path id="ID0.2241022321395576" d="M568.46,217.27c9.39,0,17.82.97,24.03,2.49,6.08,1.52,9.94,3.73,9.94,6.22,0,2.35-3.87,4.56-9.94,6.22-6.08,1.52-14.64,2.49-24.03,2.49s-17.82-.97-24.03-2.49-9.94-3.73-9.94-6.22c0-2.35,3.87-4.56,9.94-6.22,6.22-1.52,14.64-2.49,24.03-2.49Z"/>
  <path id="ID0.7622149954549968" class="st0" d="M593.88,154.56c0,15.88-11.05,44.89-24.59,44.89s-24.72-28.87-24.72-44.89,11.05-12.98,24.59-12.98c13.67,0,24.72-3.04,24.72,12.98Z"/>
  <path id="ID0.438236942980438472" data-name="ID0.43823694298043847" class="st0" d="M569.29,125.28c11.46,0,21.82,2.07,29.28,5.25,7.46,3.31,12.15,7.73,12.15,12.85s-4.7,9.53-12.15,12.85c-7.46,3.31-17.82,5.25-29.28,5.25s-21.82-2.07-29.28-5.25-12.15-7.73-12.15-12.85,4.7-9.53,12.15-12.85,17.82-5.25,29.28-5.25Z"/>
  <path id="ID0.12378306780010462" class="st8" d="M583.1,178.87c3.18,0,6.08,1.24,8.15,3.31s3.31,4.97,3.31,8.15-1.24,6.08-3.31,8.15-4.97,3.31-8.15,3.31-6.08-1.24-8.15-3.31-3.31-4.97-3.31-8.15,1.24-6.08,3.31-8.15,4.97-3.31,8.15-3.31Z"/>
  <path id="ID0.5532844113186002" class="st0" d="M592.08,192.96c2.49,0,4.7,1.8,6.35,4.7,1.66,2.9,2.62,6.91,2.62,11.19s-.97,8.29-2.62,11.19c-1.66,2.9-3.87,4.7-6.35,4.7s-4.7-1.8-6.35-4.7c-1.66-2.9-2.62-6.91-2.62-11.19s.97-8.29,2.62-11.19c1.66-2.9,3.87-4.7,6.35-4.7Z"/>
  <path id="ID0.22968393843621016" class="st8" d="M553.13,178.87c3.18,0,6.08,1.24,8.15,3.31s3.31,4.97,3.31,8.15-1.24,6.08-3.31,8.15-4.97,3.31-8.15,3.31-6.08-1.24-8.15-3.31-3.31-4.97-3.31-8.15,1.24-6.08,3.31-8.15,4.97-3.31,8.15-3.31Z"/>
  <path id="ID0.9278867938555777" class="st0" d="M544.15,192.96c2.49,0,4.7,1.8,6.35,4.7,1.66,2.9,2.62,6.91,2.62,11.19s-.97,8.29-2.62,11.19c-1.66,2.9-3.87,4.7-6.35,4.7s-4.7-1.8-6.35-4.7c-1.66-2.9-2.62-6.91-2.62-11.19s.97-8.29,2.62-11.19c1.66-2.9,3.87-4.7,6.35-4.7Z"/>
  <path id="ID0.266845426522195342" data-name="ID0.26684542652219534" class="st5" d="M569.29,108.98c2.76,0,5.25,1.8,7.04,4.7,1.8,2.9,2.9,7.04,2.9,11.46s-1.1,8.56-2.9,11.46c-1.8,2.9-4.28,4.7-7.04,4.7s-5.25-1.8-7.04-4.7c-1.8-2.9-2.9-7.04-2.9-11.46s1.1-8.56,2.9-11.46,4.28-4.7,7.04-4.7Z"/>
  <path id="ID0.8864172524772584" class="st8" d="M542.36,177.62h52.21v25.55h-52.21v-25.55Z"/>
  <path id="ID0.008480167016386986" class="st8" d="M581.31,188.67h21.82v21.82h-21.82v-21.82Z"/>
  <path id="ID0.0084801670163869861" data-name="ID0.008480167016386986" class="st8" d="M533.24,188.54h21.82v21.82h-21.82v-21.82Z"/>
  <circle class="st8" cx="524.82" cy="152.49" r="19.34"/>
  <circle class="st8" cx="607.96" cy="152.49" r="19.34"/>
  <path id="ID0.22410223213955761" data-name="ID0.2241022321395576" d="M233.52,217.27c9.39,0,17.82.97,24.03,2.49,6.08,1.52,9.94,3.73,9.94,6.22,0,2.35-3.87,4.56-9.94,6.22-6.08,1.52-14.64,2.49-24.03,2.49s-17.82-.97-24.03-2.49c-6.22-1.52-9.94-3.73-9.94-6.22,0-2.35,3.87-4.56,9.94-6.22,6.22-1.52,14.64-2.49,24.03-2.49Z"/>
  <path id="ID0.76221499545499681" data-name="ID0.7622149954549968" class="st0" d="M258.93,154.56c0,15.88-11.05,44.89-24.59,44.89s-24.72-28.87-24.72-44.89,11.05-12.98,24.59-12.98,24.72-3.04,24.72,12.98Z"/>
  <path id="ID0.438236942980438473" data-name="ID0.43823694298043847" class="st0" d="M234.35,125.28c11.46,0,21.82,2.07,29.28,5.25s12.15,7.73,12.15,12.85-4.7,9.53-12.15,12.85-17.82,5.25-29.28,5.25-21.82-2.07-29.28-5.25c-7.46-3.31-12.15-7.73-12.15-12.85s4.7-9.53,12.15-12.85c7.46-3.31,17.82-5.25,29.28-5.25Z"/>
  <path id="ID0.123783067800104621" data-name="ID0.12378306780010462" class="st8" d="M248.16,178.87c3.18,0,6.08,1.24,8.15,3.31s3.31,4.97,3.31,8.15-1.24,6.08-3.31,8.15-4.97,3.31-8.15,3.31-6.08-1.24-8.15-3.31-3.31-4.97-3.31-8.15,1.24-6.08,3.31-8.15,4.97-3.31,8.15-3.31Z"/>
  <path id="ID0.55328441131860021" data-name="ID0.5532844113186002" class="st0" d="M257.14,192.96c2.49,0,4.7,1.8,6.35,4.7,1.66,2.9,2.62,6.91,2.62,11.19s-.97,8.29-2.62,11.19-3.87,4.7-6.35,4.7-4.7-1.8-6.35-4.7c-1.66-2.9-2.62-6.91-2.62-11.19s.97-8.29,2.62-11.19c1.66-2.9,3.87-4.7,6.35-4.7Z"/>
  <path id="ID0.229683938436210161" data-name="ID0.22968393843621016" class="st8" d="M218.19,178.87c3.18,0,6.08,1.24,8.15,3.31s3.31,4.97,3.31,8.15-1.24,6.08-3.31,8.15-4.97,3.31-8.15,3.31-6.08-1.24-8.15-3.31-3.31-4.97-3.31-8.15,1.24-6.08,3.31-8.15,4.97-3.31,8.15-3.31Z"/>
  <path id="ID0.92788679385557771" data-name="ID0.9278867938555777" class="st0" d="M209.21,192.96c2.49,0,4.7,1.8,6.35,4.7,1.66,2.9,2.62,6.91,2.62,11.19s-.97,8.29-2.62,11.19c-1.66,2.9-3.87,4.7-6.35,4.7s-4.7-1.8-6.35-4.7c-1.66-2.9-2.62-6.91-2.62-11.19s.97-8.29,2.62-11.19c1.66-2.9,3.87-4.7,6.35-4.7Z"/>
  <path id="ID0.266845426522195343" data-name="ID0.26684542652219534" class="st5" d="M234.35,108.98c2.76,0,5.25,1.8,7.04,4.7,1.8,2.9,2.9,7.04,2.9,11.46s-1.1,8.56-2.9,11.46c-1.8,2.9-4.28,4.7-7.04,4.7s-5.25-1.8-7.04-4.7c-1.8-2.9-2.9-7.04-2.9-11.46s1.1-8.56,2.9-11.46,4.28-4.7,7.04-4.7Z"/>
  <path id="ID0.88641725247725841" data-name="ID0.8864172524772584" class="st1" d="M207.41,177.62h52.21v25.55h-52.21v-25.55Z"/>
  <path id="ID0.0084801670163869862" data-name="ID0.008480167016386986" class="st1" d="M246.36,188.67h21.82v21.82h-21.82v-21.82Z"/>
  <path id="ID0.0084801670163869863" data-name="ID0.008480167016386986" class="st1" d="M198.3,188.54h21.82v21.82h-21.82v-21.82Z"/>
  <circle class="st1" cx="189.87" cy="152.49" r="19.34"/>
  <circle class="st1" cx="273.02" cy="152.49" r="19.34"/>
</svg>