<?xml version="1.0" encoding="UTF-8"?>
<svg id="_レイヤー_1" data-name="レイヤー_1" xmlns="http://www.w3.org/2000/svg" xmlns:xlink="http://www.w3.org/1999/xlink" version="1.1" viewBox="0 0 800 500">
  <!-- Generator: Adobe Illustrator 30.1.0, SVG Export Plug-In . SVG Version: 2.1.1 Build 136)  -->
  <defs>
    <style>
      .st0 {
        fill: #b32d2d;
      }

      .st1 {
        fill: red;
      }

      .st1, .st2, .st3, .st4, .st5, .st6, .st7, .st8, .st9, .st10, .st11, .st12, .st13, .st14, .st15, .st16 {
        stroke-miterlimit: 10;
      }

      .st1, .st2, .st4, .st6, .st8, .st9, .st10, .st11, .st12, .st13, .st15, .st16 {
        stroke: #000;
      }

      .st1, .st6, .st9, .st11, .st16 {
        stroke-width: 3px;
      }

      .st2 {
        fill: #112c44;
      }

      .st2, .st4, .st8, .st10, .st12, .st13, .st15 {
        stroke-width: 4px;
      }

      .st17, .st6, .st18, .st19 {
        fill: #fff;
      }

      .st17, .st20, .st21, .st19, .st14 {
        fill-rule: evenodd;
      }

      .st22 {
        fill: #500000;
      }

      .st3, .st5 {
        stroke: #fff;
      }

      .st3, .st5, .st7, .st23 {
        fill: none;
      }

      .st3, .st7 {
        stroke-width: 6px;
      }

      .st24 {
        fill: url(#_名称未設定グラデーション_9660);
      }

      .st25 {
        fill: url(#_名称未設定グラデーション_9664);
      }

      .st26 {
        fill: url(#_名称未設定グラデーション_9661);
      }

      .st27 {
        fill: url(#_名称未設定グラデーション_9663);
      }

      .st28 {
        fill: url(#_名称未設定グラデーション_9662);
      }

      .st29 {
        fill: url(#_名称未設定グラデーション_9665);
      }

      .st30 {
        fill: url(#_名称未設定グラデーション_9667);
      }

      .st31 {
        fill: url(#_名称未設定グラデーション_9666);
      }

      .st32 {
        fill: url(#_名称未設定グラデーション_9669);
      }

      .st33 {
        fill: url(#_名称未設定グラデーション_9668);
      }

      .st34 {
        fill: url(#_名称未設定グラデーション_9680);
      }

      .st35 {
        fill: url(#_名称未設定グラデーション_9682);
      }

      .st36 {
        fill: url(#_名称未設定グラデーション_9681);
      }

      .st37 {
        fill: url(#_名称未設定グラデーション_9684);
      }

      .st38 {
        fill: url(#_名称未設定グラデーション_9683);
      }

      .st39 {
        fill: url(#_名称未設定グラデーション_9685);
      }

      .st40 {
        fill: url(#_名称未設定グラデーション_9687);
      }

      .st41 {
        fill: url(#_名称未設定グラデーション_9689);
      }

      .st42 {
        fill: url(#_名称未設定グラデーション_9686);
      }

      .st43 {
        fill: url(#_名称未設定グラデーション_9688);
      }

      .st44 {
        fill: url(#_名称未設定グラデーション_9642);
      }

      .st45 {
        fill: url(#_名称未設定グラデーション_9641);
      }

      .st46 {
        fill: url(#_名称未設定グラデーション_9611);
      }

      .st47 {
        fill: url(#_名称未設定グラデーション_9617);
      }

      .st48 {
        fill: url(#_名称未設定グラデーション_9614);
      }

      .st49 {
        fill: url(#_名称未設定グラデーション_9616);
      }

      .st50 {
        fill: url(#_名称未設定グラデーション_9619);
      }

      .st51 {
        fill: url(#_名称未設定グラデーション_9618);
      }

      .st52 {
        fill: url(#_名称未設定グラデーション_9615);
      }

      .st53 {
        fill: url(#_名称未設定グラデーション_9613);
      }

      .st54 {
        fill: url(#_名称未設定グラデーション_9610);
      }

      .st55 {
        fill: url(#_名称未設定グラデーション_9612);
      }

      .st56 {
        fill: url(#_名称未設定グラデーション_9671);
      }

      .st57 {
        fill: url(#_名称未設定グラデーション_9670);
      }

      .st58 {
        fill: url(#_名称未設定グラデーション_9673);
      }

      .st59 {
        fill: url(#_名称未設定グラデーション_9672);
      }

      .st60 {
        fill: url(#_名称未設定グラデーション_9675);
      }

      .st61 {
        fill: url(#_名称未設定グラデーション_9674);
      }

      .st62 {
        fill: url(#_名称未設定グラデーション_9678);
      }

      .st63 {
        fill: url(#_名称未設定グラデーション_9679);
      }

      .st64 {
        fill: url(#_名称未設定グラデーション_9677);
      }

      .st65 {
        fill: url(#_名称未設定グラデーション_9676);
      }

      .st66 {
        fill: url(#_名称未設定グラデーション_9637);
      }

      .st67 {
        fill: url(#_名称未設定グラデーション_9632);
      }

      .st68 {
        fill: url(#_名称未設定グラデーション_9631);
      }

      .st69 {
        fill: url(#_名称未設定グラデーション_9633);
      }

      .st70 {
        fill: url(#_名称未設定グラデーション_9634);
      }

      .st71 {
        fill: url(#_名称未設定グラデーション_9636);
      }

      .st72 {
        fill: url(#_名称未設定グラデーション_9635);
      }

      .st73 {
        fill: url(#_名称未設定グラデーション_9630);
      }

      .st74 {
        fill: url(#_名称未設定グラデーション_9639);
      }

      .st75 {
        fill: url(#_名称未設定グラデーション_9638);
      }

      .st76 {
        fill: url(#_名称未設定グラデーション_9695);
      }

      .st77 {
        fill: url(#_名称未設定グラデーション_9694);
      }

      .st78 {
        fill: url(#_名称未設定グラデーション_9691);
      }

      .st79 {
        fill: url(#_名称未設定グラデーション_9693);
      }

      .st80 {
        fill: url(#_名称未設定グラデーション_9692);
      }

      .st81 {
        fill: url(#_名称未設定グラデーション_9690);
      }

      .st82 {
        fill: url(#_名称未設定グラデーション_9646);
      }

      .st83 {
        fill: url(#_名称未設定グラデーション_9645);
      }

      .st84 {
        fill: url(#_名称未設定グラデーション_9640);
      }

      .st85 {
        fill: url(#_名称未設定グラデーション_9647);
      }

      .st86 {
        fill: url(#_名称未設定グラデーション_9644);
      }

      .st87 {
        fill: url(#_名称未設定グラデーション_9649);
      }

      .st88 {
        fill: url(#_名称未設定グラデーション_9648);
      }

      .st89 {
        fill: url(#_名称未設定グラデーション_9643);
      }

      .st90 {
        fill: url(#_名称未設定グラデーション_9620);
      }

      .st91 {
        fill: url(#_名称未設定グラデーション_9653);
      }

      .st92 {
        fill: url(#_名称未設定グラデーション_9622);
      }

      .st93 {
        fill: url(#_名称未設定グラデーション_9652);
      }

      .st94 {
        fill: url(#_名称未設定グラデーション_9621);
      }

      .st95 {
        fill: url(#_名称未設定グラデーション_9624);
      }

      .st96 {
        fill: url(#_名称未設定グラデーション_9623);
      }

      .st97 {
        fill: url(#_名称未設定グラデーション_9626);
      }

      .st98 {
        fill: url(#_名称未設定グラデーション_9625);
      }

      .st99 {
        fill: url(#_名称未設定グラデーション_9628);
      }

      .st100 {
        fill: url(#_名称未設定グラデーション_9627);
      }

      .st101 {
        fill: url(#_名称未設定グラデーション_9629);
      }

      .st102 {
        fill: url(#_名称未設定グラデーション_9654);
      }

      .st103 {
        fill: url(#_名称未設定グラデーション_9659);
      }

      .st104 {
        fill: url(#_名称未設定グラデーション_9658);
      }

      .st105 {
        fill: url(#_名称未設定グラデーション_9655);
      }

      .st106 {
        fill: url(#_名称未設定グラデーション_9651);
      }

      .st107 {
        fill: url(#_名称未設定グラデーション_9650);
      }

      .st108 {
        fill: url(#_名称未設定グラデーション_9657);
      }

      .st109 {
        fill: url(#_名称未設定グラデーション_9656);
      }

      .st4 {
        fill: #ffd23f;
      }

      .st5 {
        stroke-width: 4.5px;
      }

      .st110 {
        fill: #888ad1;
      }

      .st7 {
        stroke: #fcfcfc;
      }

      .st8 {
        fill: #ff4040;
      }

      .st20 {
        stroke-width: 1.2px;
      }

      .st20, .st21 {
        fill: #001026;
      }

      .st20, .st19, .st14, .st23 {
        stroke: #001026;
      }

      .st20, .st19, .st23 {
        stroke-linecap: round;
        stroke-linejoin: round;
      }

      .st111 {
        fill: #d1ba88;
      }

      .st9 {
        fill: #374a88;
      }

      .st10 {
        fill: #40ffbb;
      }

      .st11 {
        fill: #ffbd66;
      }

      .st19, .st14, .st23 {
        stroke-width: .5px;
      }

      .st112 {
        fill: url(#_名称未設定グラデーション_961);
      }

      .st113 {
        fill: url(#_名称未設定グラデーション_962);
      }

      .st114 {
        fill: url(#_名称未設定グラデーション_963);
      }

      .st115 {
        fill: url(#_名称未設定グラデーション_969);
      }

      .st116 {
        fill: url(#_名称未設定グラデーション_964);
      }

      .st117 {
        fill: url(#_名称未設定グラデーション_965);
      }

      .st118 {
        fill: url(#_名称未設定グラデーション_966);
      }

      .st119 {
        fill: url(#_名称未設定グラデーション_967);
      }

      .st120 {
        fill: url(#_名称未設定グラデーション_968);
      }

      .st12 {
        fill: #235a8d;
      }

      .st121 {
        fill: #2eb686;
      }

      .st122 {
        fill: #40a2ff;
      }

      .st123 {
        fill: #9e8328;
      }

      .st13 {
        fill: #900;
      }

      .st14 {
        fill: #ffab19;
      }

      .st124 {
        fill: url(#_名称未設定グラデーション_96);
      }
    </style>
    <radialGradient id="_名称未設定グラデーション_96" data-name="名称未設定グラデーション 96" cx="230.46" cy="451.58" fx="230.46" fy="451.58" r="14.89" gradientTransform="translate(252.25 526.19) scale(1 -1)" gradientUnits="userSpaceOnUse">
      <stop offset="0" stop-color="#fff"/>
      <stop offset="1" stop-color="#fff" stop-opacity="0"/>
    </radialGradient>
    <radialGradient id="_名称未設定グラデーション_961" data-name="名称未設定グラデーション 96" cy="451.57" fy="451.57" r="14.89" xlink:href="#_名称未設定グラデーション_96"/>
    <radialGradient id="_名称未設定グラデーション_962" data-name="名称未設定グラデーション 96" cx="189.96" fx="189.96" r="14.89" xlink:href="#_名称未設定グラデーション_96"/>
    <radialGradient id="_名称未設定グラデーション_963" data-name="名称未設定グラデーション 96" cx="189.96" cy="451.57" fx="189.96" fy="451.57" r="14.89" xlink:href="#_名称未設定グラデーション_96"/>
    <radialGradient id="_名称未設定グラデーション_964" data-name="名称未設定グラデーション 96" cx="311.46" fx="311.46" r="14.89" xlink:href="#_名称未設定グラデーション_96"/>
    <radialGradient id="_名称未設定グラデーション_965" data-name="名称未設定グラデーション 96" cx="311.47" cy="451.57" fx="311.47" fy="451.57" r="14.89" xlink:href="#_名称未設定グラデーション_96"/>
    <radialGradient id="_名称未設定グラデーション_966" data-name="名称未設定グラデーション 96" cx="270.96" fx="270.96" r="14.89" xlink:href="#_名称未設定グラデーション_96"/>
    <radialGradient id="_名称未設定グラデーション_967" data-name="名称未設定グラデーション 96" cx="270.96" cy="451.57" fx="270.96" fy="451.57" r="14.89" xlink:href="#_名称未設定グラデーション_96"/>
    <radialGradient id="_名称未設定グラデーション_968" data-name="名称未設定グラデーション 96" cx="242.61" cy="488.03" fx="242.61" fy="488.03" r="14.89" xlink:href="#_名称未設定グラデーション_96"/>
    <radialGradient id="_名称未設定グラデーション_969" data-name="名称未設定グラデーション 96" cx="242.61" cy="488.02" fx="242.61" fy="488.02" r="14.89" xlink:href="#_名称未設定グラデーション_96"/>
    <radialGradient id="_名称未設定グラデーション_9610" data-name="名称未設定グラデーション 96" cx="202.11" cy="488.03" fx="202.11" fy="488.03" r="14.89" xlink:href="#_名称未設定グラデーション_96"/>
    <radialGradient id="_名称未設定グラデーション_9611" data-name="名称未設定グラデーション 96" cx="202.11" cy="488.02" fx="202.11" fy="488.02" r="14.89" xlink:href="#_名称未設定グラデーション_96"/>
    <radialGradient id="_名称未設定グラデーション_9612" data-name="名称未設定グラデーション 96" cx="323.61" cy="488.03" fx="323.61" fy="488.03" r="14.89" xlink:href="#_名称未設定グラデーション_96"/>
    <radialGradient id="_名称未設定グラデーション_9613" data-name="名称未設定グラデーション 96" cx="323.62" cy="488.02" fx="323.62" fy="488.02" r="14.89" xlink:href="#_名称未設定グラデーション_96"/>
    <radialGradient id="_名称未設定グラデーション_9614" data-name="名称未設定グラデーション 96" cx="283.12" cy="488.03" fx="283.12" fy="488.03" r="14.89" xlink:href="#_名称未設定グラデーション_96"/>
    <radialGradient id="_名称未設定グラデーション_9615" data-name="名称未設定グラデーション 96" cx="283.12" cy="488.02" fx="283.12" fy="488.02" r="14.89" xlink:href="#_名称未設定グラデーション_96"/>
    <radialGradient id="_名称未設定グラデーション_9616" data-name="名称未設定グラデーション 96" cx="400.58" fx="400.58" r="14.89" xlink:href="#_名称未設定グラデーション_96"/>
    <radialGradient id="_名称未設定グラデーション_9617" data-name="名称未設定グラデーション 96" cx="400.58" cy="451.57" fx="400.58" fy="451.57" r="14.89" xlink:href="#_名称未設定グラデーション_96"/>
    <radialGradient id="_名称未設定グラデーション_9618" data-name="名称未設定グラデーション 96" cx="360.06" fx="360.06" r="14.89" xlink:href="#_名称未設定グラデーション_96"/>
    <radialGradient id="_名称未設定グラデーション_9619" data-name="名称未設定グラデーション 96" cx="360.07" cy="451.57" fx="360.07" fy="451.57" r="14.89" xlink:href="#_名称未設定グラデーション_96"/>
    <radialGradient id="_名称未設定グラデーション_9620" data-name="名称未設定グラデーション 96" cx="481.57" fx="481.57" r="14.9" xlink:href="#_名称未設定グラデーション_96"/>
    <radialGradient id="_名称未設定グラデーション_9621" data-name="名称未設定グラデーション 96" cx="481.58" cy="451.57" fx="481.58" fy="451.57" r="14.89" xlink:href="#_名称未設定グラデーション_96"/>
    <radialGradient id="_名称未設定グラデーション_9622" data-name="名称未設定グラデーション 96" cx="441.1" fx="441.1" r="14.88" xlink:href="#_名称未設定グラデーション_96"/>
    <radialGradient id="_名称未設定グラデーション_9623" data-name="名称未設定グラデーション 96" cx="441.08" cy="451.57" fx="441.08" fy="451.57" r="14.89" xlink:href="#_名称未設定グラデーション_96"/>
    <radialGradient id="_名称未設定グラデーション_9624" data-name="名称未設定グラデーション 96" cx="412.73" cy="488.03" fx="412.73" fy="488.03" r="14.89" xlink:href="#_名称未設定グラデーション_96"/>
    <radialGradient id="_名称未設定グラデーション_9625" data-name="名称未設定グラデーション 96" cx="412.73" cy="488.02" fx="412.73" fy="488.02" r="14.89" xlink:href="#_名称未設定グラデーション_96"/>
    <radialGradient id="_名称未設定グラデーション_9626" data-name="名称未設定グラデーション 96" cx="372.21" cy="488.03" fx="372.21" fy="488.03" r="14.9" xlink:href="#_名称未設定グラデーション_96"/>
    <radialGradient id="_名称未設定グラデーション_9627" data-name="名称未設定グラデーション 96" cx="372.22" cy="488.02" fx="372.22" fy="488.02" r="14.89" xlink:href="#_名称未設定グラデーション_96"/>
    <radialGradient id="_名称未設定グラデーション_9628" data-name="名称未設定グラデーション 96" cx="493.72" cy="488.03" fx="493.72" fy="488.03" r="14.9" xlink:href="#_名称未設定グラデーション_96"/>
    <radialGradient id="_名称未設定グラデーション_9629" data-name="名称未設定グラデーション 96" cx="493.74" cy="488.02" fx="493.74" fy="488.02" r="14.89" xlink:href="#_名称未設定グラデーション_96"/>
    <radialGradient id="_名称未設定グラデーション_9630" data-name="名称未設定グラデーション 96" cx="453.26" cy="488.03" fx="453.26" fy="488.03" r="14.88" xlink:href="#_名称未設定グラデーション_96"/>
    <radialGradient id="_名称未設定グラデーション_9631" data-name="名称未設定グラデーション 96" cx="453.23" cy="488.02" fx="453.23" fy="488.02" r="14.89" xlink:href="#_名称未設定グラデーション_96"/>
    <radialGradient id="_名称未設定グラデーション_9632" data-name="名称未設定グラデーション 96" cx="583.99" fx="583.99" r="14.89" xlink:href="#_名称未設定グラデーション_96"/>
    <radialGradient id="_名称未設定グラデーション_9633" data-name="名称未設定グラデーション 96" cx="584.01" cy="451.57" fx="584.01" fy="451.57" r="14.89" xlink:href="#_名称未設定グラデーション_96"/>
    <radialGradient id="_名称未設定グラデーション_9634" data-name="名称未設定グラデーション 96" cx="543.5" fx="543.5" r="14.89" xlink:href="#_名称未設定グラデーション_96"/>
    <radialGradient id="_名称未設定グラデーション_9635" data-name="名称未設定グラデーション 96" cx="543.5" cy="451.57" fx="543.5" fy="451.57" r="14.89" xlink:href="#_名称未設定グラデーション_96"/>
    <radialGradient id="_名称未設定グラデーション_9636" data-name="名称未設定グラデーション 96" cx="665.04" fx="665.04" r="14.88" xlink:href="#_名称未設定グラデーション_96"/>
    <radialGradient id="_名称未設定グラデーション_9637" data-name="名称未設定グラデーション 96" cx="665.01" cy="451.57" fx="665.01" fy="451.57" r="14.89" xlink:href="#_名称未設定グラデーション_96"/>
    <radialGradient id="_名称未設定グラデーション_9638" data-name="名称未設定グラデーション 96" cx="624.51" fx="624.51" r="14.89" xlink:href="#_名称未設定グラデーション_96"/>
    <radialGradient id="_名称未設定グラデーション_9639" data-name="名称未設定グラデーション 96" cx="624.51" cy="451.57" fx="624.51" fy="451.57" r="14.89" xlink:href="#_名称未設定グラデーション_96"/>
    <radialGradient id="_名称未設定グラデーション_9640" data-name="名称未設定グラデーション 96" cx="596.14" cy="488.03" fx="596.14" fy="488.03" r="14.9" xlink:href="#_名称未設定グラデーション_96"/>
    <radialGradient id="_名称未設定グラデーション_9641" data-name="名称未設定グラデーション 96" cx="596.16" cy="488.02" fx="596.16" fy="488.02" r="14.89" xlink:href="#_名称未設定グラデーション_96"/>
    <radialGradient id="_名称未設定グラデーション_9642" data-name="名称未設定グラデーション 96" cx="555.68" cy="488.03" fx="555.68" fy="488.03" r="14.87" xlink:href="#_名称未設定グラデーション_96"/>
    <radialGradient id="_名称未設定グラデーション_9643" data-name="名称未設定グラデーション 96" cx="555.65" cy="488.02" fx="555.65" fy="488.02" r="14.89" xlink:href="#_名称未設定グラデーション_96"/>
    <radialGradient id="_名称未設定グラデーション_9644" data-name="名称未設定グラデーション 96" cx="677.19" cy="488.03" fx="677.19" fy="488.03" r="14.88" xlink:href="#_名称未設定グラデーション_96"/>
    <radialGradient id="_名称未設定グラデーション_9645" data-name="名称未設定グラデーション 96" cx="677.17" cy="488.02" fx="677.17" fy="488.02" r="14.89" xlink:href="#_名称未設定グラデーション_96"/>
    <radialGradient id="_名称未設定グラデーション_9646" data-name="名称未設定グラデーション 96" cx="636.66" cy="488.03" fx="636.66" fy="488.03" r="14.89" xlink:href="#_名称未設定グラデーション_96"/>
    <radialGradient id="_名称未設定グラデーション_9647" data-name="名称未設定グラデーション 96" cx="636.66" cy="488.02" fx="636.66" fy="488.02" r="14.89" xlink:href="#_名称未設定グラデーション_96"/>
    <radialGradient id="_名称未設定グラデーション_9648" data-name="名称未設定グラデーション 96" cx="51.68" cy="451.57" fx="51.68" fy="451.57" r="14.88" xlink:href="#_名称未設定グラデーション_96"/>
    <radialGradient id="_名称未設定グラデーション_9649" data-name="名称未設定グラデーション 96" cx="51.66" cy="451.57" fx="51.66" fy="451.57" r="14.89" xlink:href="#_名称未設定グラデーション_96"/>
    <radialGradient id="_名称未設定グラデーション_9650" data-name="名称未設定グラデーション 96" cx="92.15" cy="451.57" fx="92.15" fy="451.57" r="14.9" xlink:href="#_名称未設定グラデーション_96"/>
    <radialGradient id="_名称未設定グラデーション_9651" data-name="名称未設定グラデーション 96" cx="92.17" cy="451.57" fx="92.17" fy="451.57" r="14.89" xlink:href="#_名称未設定グラデーション_96"/>
    <radialGradient id="_名称未設定グラデーション_9652" data-name="名称未設定グラデーション 96" cx="-29.36" cy="451.57" fx="-29.36" fy="451.57" r="14.9" xlink:href="#_名称未設定グラデーション_96"/>
    <radialGradient id="_名称未設定グラデーション_9653" data-name="名称未設定グラデーション 96" cx="-29.34" cy="451.57" fx="-29.34" fy="451.57" r="14.89" xlink:href="#_名称未設定グラデーション_96"/>
    <radialGradient id="_名称未設定グラデーション_9654" data-name="名称未設定グラデーション 96" cx="11.16" cy="451.57" fx="11.16" fy="451.57" r="14.89" xlink:href="#_名称未設定グラデーション_96"/>
    <radialGradient id="_名称未設定グラデーション_9655" data-name="名称未設定グラデーション 96" cx="11.16" cy="451.57" fx="11.16" fy="451.57" r="14.89" xlink:href="#_名称未設定グラデーション_96"/>
    <radialGradient id="_名称未設定グラデーション_9656" data-name="名称未設定グラデーション 96" cx="39.53" cy="488.02" fx="39.53" fy="488.02" r="14.88" xlink:href="#_名称未設定グラデーション_96"/>
    <radialGradient id="_名称未設定グラデーション_9657" data-name="名称未設定グラデーション 96" cx="39.51" cy="488.02" fx="39.51" fy="488.02" r="14.89" xlink:href="#_名称未設定グラデーション_96"/>
    <radialGradient id="_名称未設定グラデーション_9658" data-name="名称未設定グラデーション 96" cx="79.99" cy="488.02" fx="79.99" fy="488.02" r="14.9" xlink:href="#_名称未設定グラデーション_96"/>
    <radialGradient id="_名称未設定グラデーション_9659" data-name="名称未設定グラデーション 96" cx="80.02" cy="488.02" fx="80.02" fy="488.02" r="14.89" xlink:href="#_名称未設定グラデーション_96"/>
    <radialGradient id="_名称未設定グラデーション_9660" data-name="名称未設定グラデーション 96" cx="-41.51" cy="488.02" fx="-41.51" fy="488.02" r="14.9" xlink:href="#_名称未設定グラデーション_96"/>
    <radialGradient id="_名称未設定グラデーション_9661" data-name="名称未設定グラデーション 96" cx="-41.5" cy="488.02" fx="-41.5" fy="488.02" r="14.89" xlink:href="#_名称未設定グラデーション_96"/>
    <radialGradient id="_名称未設定グラデーション_9662" data-name="名称未設定グラデーション 96" cx="-.99" cy="488.02" fx="-.99" fy="488.02" r="14.89" xlink:href="#_名称未設定グラデーション_96"/>
    <radialGradient id="_名称未設定グラデーション_9663" data-name="名称未設定グラデーション 96" cx="-.99" cy="488.02" fx="-.99" fy="488.02" r="14.89" xlink:href="#_名称未設定グラデーション_96"/>
    <radialGradient id="_名称未設定グラデーション_9664" data-name="名称未設定グラデーション 96" cx="-118.45" cy="451.57" fx="-118.45" fy="451.57" r="14.89" xlink:href="#_名称未設定グラデーション_96"/>
    <radialGradient id="_名称未設定グラデーション_9665" data-name="名称未設定グラデーション 96" cx="-118.45" cy="451.57" fx="-118.45" fy="451.57" r="14.89" xlink:href="#_名称未設定グラデーション_96"/>
    <radialGradient id="_名称未設定グラデーション_9666" data-name="名称未設定グラデーション 96" cx="-77.96" cy="451.57" fx="-77.96" fy="451.57" r="14.9" xlink:href="#_名称未設定グラデーション_96"/>
    <radialGradient id="_名称未設定グラデーション_9667" data-name="名称未設定グラデーション 96" cx="-77.95" cy="451.57" fx="-77.95" fy="451.57" r="14.89" xlink:href="#_名称未設定グラデーション_96"/>
    <radialGradient id="_名称未設定グラデーション_9668" data-name="名称未設定グラデーション 96" cx="-199.46" cy="451.57" fx="-199.46" fy="451.57" r="14.9" xlink:href="#_名称未設定グラデーション_96"/>
    <radialGradient id="_名称未設定グラデーション_9669" data-name="名称未設定グラデーション 96" cx="-199.46" cy="451.57" fx="-199.46" fy="451.57" r="14.89" xlink:href="#_名称未設定グラデーション_96"/>
    <radialGradient id="_名称未設定グラデーション_9670" data-name="名称未設定グラデーション 96" cx="-158.96" cy="451.57" fx="-158.96" fy="451.57" r="14.89" xlink:href="#_名称未設定グラデーション_96"/>
    <radialGradient id="_名称未設定グラデーション_9671" data-name="名称未設定グラデーション 96" cx="-158.94" cy="451.57" fx="-158.94" fy="451.57" r="14.88" xlink:href="#_名称未設定グラデーション_96"/>
    <radialGradient id="_名称未設定グラデーション_9672" data-name="名称未設定グラデーション 96" cx="-130.6" cy="488.02" fx="-130.6" fy="488.02" r="14.89" xlink:href="#_名称未設定グラデーション_96"/>
    <radialGradient id="_名称未設定グラデーション_9673" data-name="名称未設定グラデーション 96" cx="-130.6" cy="488.02" fx="-130.6" fy="488.02" r="14.89" xlink:href="#_名称未設定グラデーション_96"/>
    <radialGradient id="_名称未設定グラデーション_9674" data-name="名称未設定グラデーション 96" cx="-90.11" cy="488.02" fx="-90.11" fy="488.02" r="14.9" xlink:href="#_名称未設定グラデーション_96"/>
    <radialGradient id="_名称未設定グラデーション_9675" data-name="名称未設定グラデーション 96" cx="-90.1" cy="488.02" fx="-90.1" fy="488.02" r="14.89" xlink:href="#_名称未設定グラデーション_96"/>
    <radialGradient id="_名称未設定グラデーション_9676" data-name="名称未設定グラデーション 96" cx="-211.61" cy="488.02" fx="-211.61" fy="488.02" r="14.89" xlink:href="#_名称未設定グラデーション_96"/>
    <radialGradient id="_名称未設定グラデーション_9677" data-name="名称未設定グラデーション 96" cx="-211.61" cy="488.02" fx="-211.61" fy="488.02" r="14.89" xlink:href="#_名称未設定グラデーション_96"/>
    <radialGradient id="_名称未設定グラデーション_9678" data-name="名称未設定グラデーション 96" cx="-171.11" cy="488.02" fx="-171.11" fy="488.02" r="14.89" xlink:href="#_名称未設定グラデーション_96"/>
    <radialGradient id="_名称未設定グラデーション_9679" data-name="名称未設定グラデーション 96" cx="-171.09" cy="488.02" fx="-171.09" fy="488.02" r="14.88" xlink:href="#_名称未設定グラデーション_96"/>
    <radialGradient id="_名称未設定グラデーション_9680" data-name="名称未設定グラデーション 96" cx="-312.87" cy="451.57" fx="-312.87" fy="451.57" r="14.89" xlink:href="#_名称未設定グラデーション_96"/>
    <radialGradient id="_名称未設定グラデーション_9681" data-name="名称未設定グラデーション 96" cx="-312.89" cy="451.57" fx="-312.89" fy="451.57" r="14.91" xlink:href="#_名称未設定グラデーション_96"/>
    <radialGradient id="_名称未設定グラデーション_9682" data-name="名称未設定グラデーション 96" cx="-272.37" cy="451.57" fx="-272.37" fy="451.57" r="14.89" xlink:href="#_名称未設定グラデーション_96"/>
    <radialGradient id="_名称未設定グラデーション_9683" data-name="名称未設定グラデーション 96" cx="-272.37" cy="451.57" fx="-272.37" fy="451.57" r="14.89" xlink:href="#_名称未設定グラデーション_96"/>
    <radialGradient id="_名称未設定グラデーション_9684" data-name="名称未設定グラデーション 96" cx="-393.87" cy="451.57" fx="-393.87" fy="451.57" r="14.89" xlink:href="#_名称未設定グラデーション_96"/>
    <radialGradient id="_名称未設定グラデーション_9685" data-name="名称未設定グラデーション 96" cx="-393.88" cy="451.57" fx="-393.88" fy="451.57" r="14.89" xlink:href="#_名称未設定グラデーション_96"/>
    <radialGradient id="_名称未設定グラデーション_9686" data-name="名称未設定グラデーション 96" cx="-353.38" cy="451.57" fx="-353.38" fy="451.57" r="14.89" xlink:href="#_名称未設定グラデーション_96"/>
    <radialGradient id="_名称未設定グラデーション_9687" data-name="名称未設定グラデーション 96" cx="-353.38" cy="451.57" fx="-353.38" fy="451.57" r="14.89" xlink:href="#_名称未設定グラデーション_96"/>
    <radialGradient id="_名称未設定グラデーション_9688" data-name="名称未設定グラデーション 96" cx="-325.02" cy="488.02" fx="-325.02" fy="488.02" r="14.89" xlink:href="#_名称未設定グラデーション_96"/>
    <radialGradient id="_名称未設定グラデーション_9689" data-name="名称未設定グラデーション 96" cx="-325.04" cy="488.02" fx="-325.04" fy="488.02" r="14.9" xlink:href="#_名称未設定グラデーション_96"/>
    <radialGradient id="_名称未設定グラデーション_9690" data-name="名称未設定グラデーション 96" cx="-284.52" cy="488.02" fx="-284.52" fy="488.02" r="14.89" xlink:href="#_名称未設定グラデーション_96"/>
    <radialGradient id="_名称未設定グラデーション_9691" data-name="名称未設定グラデーション 96" cx="-284.52" cy="488.02" fx="-284.52" fy="488.02" r="14.89" xlink:href="#_名称未設定グラデーション_96"/>
    <radialGradient id="_名称未設定グラデーション_9692" data-name="名称未設定グラデーション 96" cx="-406.02" cy="488.02" fx="-406.02" fy="488.02" r="14.89" xlink:href="#_名称未設定グラデーション_96"/>
    <radialGradient id="_名称未設定グラデーション_9693" data-name="名称未設定グラデーション 96" cx="-406.03" cy="488.02" fx="-406.03" fy="488.02" r="14.89" xlink:href="#_名称未設定グラデーション_96"/>
    <radialGradient id="_名称未設定グラデーション_9694" data-name="名称未設定グラデーション 96" cx="-365.53" cy="488.02" fx="-365.53" fy="488.02" r="14.89" xlink:href="#_名称未設定グラデーション_96"/>
    <radialGradient id="_名称未設定グラデーション_9695" data-name="名称未設定グラデーション 96" cx="-365.53" cy="488.02" fx="-365.53" fy="488.02" r="14.89" xlink:href="#_名称未設定グラデーション_96"/>
  </defs>
  <path class="st2" d="M-111.55,565.53V-26.77h1002.04v592.31H-111.55Z"/>
  <path class="st12" d="M-130.02,488.41V133.61H908.96v354.79H-130.02Z"/>
  <path class="st124" d="M467.78,74.61s7.65-1.09,10.57-4.01c2.79-2.79,4.25-10.81,4.25-10.81,0,0,2.31,8.26,5.1,11.06,2.92,2.92,9.84,3.77,9.84,3.77,0,0-7.65,3.04-10.33,5.59-3.16,3.16-4.62,9.23-4.62,9.23,0,0-1.09-7.05-4.13-10.21-3.04-3.04-10.69-4.62-10.69-4.62h0Z"/>
  <path class="st112" d="M472.16,64.04s6.2,4.62,10.33,4.62,10.69-4.62,10.69-4.62c0,0-4.25,7.41-4.25,11.42,0,4.25,4.25,9.6,4.25,9.6,0,0-7.53-3.28-11.3-3.28-4.5,0-9.84,3.28-9.84,3.28,0,0,4.25-5.83,4.25-10.21s-4.13-10.81-4.13-10.81Z"/>
  <path class="st113" d="M427.32,74.61s7.65-1.09,10.57-4.01c2.79-2.79,4.25-10.81,4.25-10.81,0,0,2.31,8.26,5.1,11.06,2.92,2.92,9.84,3.77,9.84,3.77,0,0-7.65,3.04-10.33,5.59-3.16,3.16-4.62,9.23-4.62,9.23,0,0-1.09-7.05-4.13-10.21-3.16-3.04-10.69-4.62-10.69-4.62h0Z"/>
  <path class="st114" d="M431.7,64.04s6.2,4.62,10.33,4.62,10.69-4.62,10.69-4.62c0,0-4.25,7.41-4.25,11.42,0,4.25,4.25,9.6,4.25,9.6,0,0-7.53-3.28-11.3-3.28-4.5,0-9.84,3.28-9.84,3.28,0,0,4.25-5.83,4.25-10.21s-4.13-10.81-4.13-10.81Z"/>
  <path class="st116" d="M548.83,74.61s7.65-1.09,10.57-4.01c2.79-2.79,4.25-10.81,4.25-10.81,0,0,2.31,8.26,5.1,11.06,2.92,2.92,9.84,3.77,9.84,3.77,0,0-7.65,3.04-10.33,5.59-3.16,3.16-4.62,9.23-4.62,9.23,0,0-1.09-7.05-4.13-10.21-3.16-3.04-10.69-4.62-10.69-4.62h0Z"/>
  <path class="st117" d="M553.2,64.04s6.2,4.62,10.33,4.62,10.69-4.62,10.69-4.62c0,0-4.25,7.41-4.25,11.42,0,4.25,4.25,9.6,4.25,9.6,0,0-7.53-3.28-11.3-3.28-4.5,0-9.84,3.28-9.84,3.28,0,0,4.25-5.83,4.25-10.21s-4.13-10.81-4.13-10.81Z"/>
  <path class="st118" d="M508.37,74.61s7.65-1.09,10.57-4.01c2.79-2.79,4.25-10.81,4.25-10.81,0,0,2.31,8.26,5.1,11.06,2.92,2.92,9.84,3.77,9.84,3.77,0,0-7.65,3.04-10.33,5.59-3.16,3.16-4.62,9.23-4.62,9.23,0,0-1.09-7.05-4.13-10.21-3.16-3.04-10.69-4.62-10.69-4.62h0Z"/>
  <path class="st119" d="M512.74,64.04s6.2,4.62,10.33,4.62,10.69-4.62,10.69-4.62c0,0-4.25,7.41-4.25,11.42,0,4.25,4.25,9.6,4.25,9.6,0,0-7.53-3.28-11.3-3.28-4.5,0-9.84,3.28-9.84,3.28,0,0,4.25-5.83,4.25-10.21s-4.13-10.81-4.13-10.81Z"/>
  <path class="st120" d="M479.93,38.16s7.65-1.09,10.57-4.01c2.79-2.79,4.25-10.81,4.25-10.81,0,0,2.31,8.26,5.1,11.06,2.92,2.92,9.84,3.77,9.84,3.77,0,0-7.65,3.04-10.33,5.59-3.16,3.16-4.62,9.23-4.62,9.23,0,0-1.09-7.05-4.13-10.21-3.04-3.04-10.69-4.62-10.69-4.62h0Z"/>
  <path class="st115" d="M484.31,27.59s6.2,4.62,10.33,4.62,10.69-4.62,10.69-4.62c0,0-4.25,7.41-4.25,11.42,0,4.25,4.25,9.6,4.25,9.6,0,0-7.53-3.28-11.3-3.28-4.5,0-9.84,3.28-9.84,3.28,0,0,4.25-5.83,4.25-10.21s-4.13-10.81-4.13-10.81Z"/>
  <path class="st54" d="M439.47,38.16s7.65-1.09,10.57-4.01c2.79-2.79,4.25-10.81,4.25-10.81,0,0,2.31,8.26,5.1,11.06,2.92,2.92,9.84,3.77,9.84,3.77,0,0-7.65,3.04-10.33,5.59-3.16,3.16-4.62,9.23-4.62,9.23,0,0-1.09-7.05-4.13-10.21-3.16-3.04-10.69-4.62-10.69-4.62h0Z"/>
  <path class="st46" d="M443.85,27.59s6.2,4.62,10.33,4.62,10.69-4.62,10.69-4.62c0,0-4.25,7.41-4.25,11.42,0,4.25,4.25,9.6,4.25,9.6,0,0-7.53-3.28-11.3-3.28-4.5,0-9.84,3.28-9.84,3.28,0,0,4.25-5.83,4.25-10.21s-4.13-10.81-4.13-10.81Z"/>
  <path class="st55" d="M560.98,38.16s7.65-1.09,10.57-4.01c2.79-2.79,4.25-10.81,4.25-10.81,0,0,2.31,8.26,5.1,11.06,2.92,2.92,9.84,3.77,9.84,3.77,0,0-7.65,3.04-10.33,5.59-3.16,3.16-4.62,9.23-4.62,9.23,0,0-1.09-7.05-4.13-10.21-3.16-3.04-10.69-4.62-10.69-4.62h0Z"/>
  <path class="st53" d="M565.35,27.59s6.2,4.62,10.33,4.62,10.69-4.62,10.69-4.62c0,0-4.25,7.41-4.25,11.42,0,4.25,4.25,9.6,4.25,9.6,0,0-7.53-3.28-11.3-3.28-4.5,0-9.84,3.28-9.84,3.28,0,0,4.25-5.83,4.25-10.21s-4.13-10.81-4.13-10.81Z"/>
  <path class="st48" d="M520.52,38.16s7.65-1.09,10.57-4.01c2.79-2.79,4.25-10.81,4.25-10.81,0,0,2.31,8.26,5.1,11.06,2.92,2.92,9.84,3.77,9.84,3.77,0,0-7.65,3.04-10.33,5.59-3.16,3.16-4.62,9.23-4.62,9.23,0,0-1.09-7.05-4.13-10.21-3.16-3.04-10.69-4.62-10.69-4.62h0Z"/>
  <path class="st52" d="M524.89,27.59s6.2,4.62,10.33,4.62,10.69-4.62,10.69-4.62c0,0-4.25,7.41-4.25,11.42,0,4.25,4.25,9.6,4.25,9.6,0,0-7.53-3.28-11.3-3.28-4.5,0-9.84,3.28-9.84,3.28,0,0,4.25-5.83,4.25-10.21s-4.13-10.81-4.13-10.81Z"/>
  <path class="st49" d="M637.89,74.61s7.65-1.09,10.57-4.01c2.79-2.79,4.25-10.81,4.25-10.81,0,0,2.31,8.26,5.1,11.06,2.92,2.92,9.84,3.77,9.84,3.77,0,0-7.65,3.04-10.33,5.59-3.16,3.16-4.62,9.23-4.62,9.23,0,0-1.09-7.05-4.13-10.21-3.04-3.04-10.69-4.62-10.69-4.62h0Z"/>
  <path class="st47" d="M642.26,64.04s6.2,4.62,10.33,4.62,10.69-4.62,10.69-4.62c0,0-4.25,7.41-4.25,11.42,0,4.25,4.25,9.6,4.25,9.6,0,0-7.53-3.28-11.3-3.28-4.5,0-9.84,3.28-9.84,3.28,0,0,4.25-5.83,4.25-10.21s-4.13-10.81-4.13-10.81Z"/>
  <path class="st51" d="M597.43,74.61s7.65-1.09,10.57-4.01c2.79-2.79,4.25-10.81,4.25-10.81,0,0,2.31,8.26,5.1,11.06,2.92,2.92,9.84,3.77,9.84,3.77,0,0-7.65,3.04-10.33,5.59-3.16,3.16-4.62,9.23-4.62,9.23,0,0-1.09-7.05-4.13-10.21-3.16-3.04-10.69-4.62-10.69-4.62h0Z"/>
  <path class="st50" d="M601.8,64.04s6.2,4.62,10.33,4.62,10.69-4.62,10.69-4.62c0,0-4.25,7.41-4.25,11.42,0,4.25,4.25,9.6,4.25,9.6,0,0-7.53-3.28-11.3-3.28-4.5,0-9.84,3.28-9.84,3.28,0,0,4.25-5.83,4.25-10.21s-4.13-10.81-4.13-10.81Z"/>
  <path class="st90" d="M718.93,74.61s7.65-1.09,10.57-4.01c2.79-2.79,4.25-10.81,4.25-10.81,0,0,2.31,8.26,5.1,11.06,2.92,2.92,9.84,3.77,9.84,3.77,0,0-7.65,3.04-10.33,5.59-3.16,3.16-4.62,9.23-4.62,9.23,0,0-1.09-7.05-4.13-10.21-3.04-3.04-10.69-4.62-10.69-4.62h0Z"/>
  <path class="st94" d="M723.31,64.04s6.2,4.62,10.33,4.62,10.69-4.62,10.69-4.62c0,0-4.25,7.41-4.25,11.42,0,4.25,4.25,9.6,4.25,9.6,0,0-7.53-3.28-11.3-3.28-4.5,0-9.84,3.28-9.84,3.28,0,0,4.25-5.83,4.25-10.21s-4.13-10.81-4.13-10.81h0Z"/>
  <path class="st92" d="M678.47,74.61s7.65-1.09,10.57-4.01c2.79-2.79,4.25-10.81,4.25-10.81,0,0,2.31,8.26,5.1,11.06,2.92,2.92,9.84,3.77,9.84,3.77,0,0-7.65,3.04-10.33,5.59-3.16,3.16-4.62,9.23-4.62,9.23,0,0-1.09-7.05-4.13-10.21-3.16-3.04-10.69-4.62-10.69-4.62h0Z"/>
  <path class="st96" d="M682.84,64.04s6.2,4.62,10.33,4.62,10.69-4.62,10.69-4.62c0,0-4.25,7.41-4.25,11.42,0,4.25,4.25,9.6,4.25,9.6,0,0-7.53-3.28-11.3-3.28-4.5,0-9.84,3.28-9.84,3.28,0,0,4.25-5.83,4.25-10.21s-4.13-10.81-4.13-10.81Z"/>
  <path class="st95" d="M650.04,38.16s7.65-1.09,10.57-4.01c2.79-2.79,4.25-10.81,4.25-10.81,0,0,2.31,8.26,5.1,11.06,2.92,2.92,9.84,3.77,9.84,3.77,0,0-7.65,3.04-10.33,5.59-3.16,3.16-4.62,9.23-4.62,9.23,0,0-1.09-7.05-4.13-10.21-3.04-3.04-10.69-4.62-10.69-4.62h0Z"/>
  <path class="st98" d="M654.41,27.59s6.2,4.62,10.33,4.62,10.69-4.62,10.69-4.62c0,0-4.25,7.41-4.25,11.42,0,4.25,4.25,9.6,4.25,9.6,0,0-7.53-3.28-11.3-3.28-4.5,0-9.84,3.28-9.84,3.28,0,0,4.25-5.83,4.25-10.21s-4.13-10.81-4.13-10.81Z"/>
  <path class="st97" d="M609.58,38.16s7.65-1.09,10.57-4.01c2.79-2.79,4.25-10.81,4.25-10.81,0,0,2.31,8.26,5.1,11.06,2.92,2.92,9.84,3.77,9.84,3.77,0,0-7.65,3.04-10.33,5.59-3.16,3.16-4.62,9.23-4.62,9.23,0,0-1.09-7.05-4.13-10.21-3.16-3.04-10.69-4.62-10.69-4.62h0Z"/>
  <path class="st100" d="M613.95,27.59s6.2,4.62,10.33,4.62,10.69-4.62,10.69-4.62c0,0-4.25,7.41-4.25,11.42,0,4.25,4.25,9.6,4.25,9.6,0,0-7.53-3.28-11.3-3.28-4.5,0-9.84,3.28-9.84,3.28,0,0,4.25-5.83,4.25-10.21s-4.13-10.81-4.13-10.81Z"/>
  <path class="st99" d="M731.08,38.16s7.65-1.09,10.57-4.01c2.79-2.79,4.25-10.81,4.25-10.81,0,0,2.31,8.26,5.1,11.06,2.92,2.92,9.84,3.77,9.84,3.77,0,0-7.65,3.04-10.33,5.59-3.16,3.16-4.62,9.23-4.62,9.23,0,0-1.09-7.05-4.13-10.21-3.04-3.04-10.69-4.62-10.69-4.62Z"/>
  <path class="st101" d="M735.46,27.59s6.2,4.62,10.33,4.62,10.69-4.62,10.69-4.62c0,0-4.25,7.41-4.25,11.42,0,4.25,4.25,9.6,4.25,9.6,0,0-7.53-3.28-11.3-3.28-4.5,0-9.84,3.28-9.84,3.28,0,0,4.25-5.83,4.25-10.21s-4.13-10.81-4.13-10.81Z"/>
  <path class="st73" d="M690.62,38.16s7.65-1.09,10.57-4.01c2.79-2.79,4.25-10.81,4.25-10.81,0,0,2.31,8.26,5.1,11.06,2.92,2.92,9.84,3.77,9.84,3.77,0,0-7.65,3.04-10.33,5.59-3.16,3.16-4.62,9.23-4.62,9.23,0,0-1.09-7.05-4.13-10.21-3.16-3.04-10.69-4.62-10.69-4.62h0Z"/>
  <path class="st68" d="M695,27.59s6.2,4.62,10.33,4.62,10.69-4.62,10.69-4.62c0,0-4.25,7.41-4.25,11.42,0,4.25,4.25,9.6,4.25,9.6,0,0-7.53-3.28-11.3-3.28-4.5,0-9.84,3.28-9.84,3.28,0,0,4.25-5.83,4.25-10.21s-4.13-10.81-4.13-10.81Z"/>
  <path class="st67" d="M821.36,74.61s7.65-1.09,10.57-4.01c2.79-2.79,4.25-10.81,4.25-10.81,0,0,2.31,8.26,5.1,11.06,2.92,2.92,9.84,3.77,9.84,3.77,0,0-7.65,3.04-10.33,5.59-3.16,3.16-4.62,9.23-4.62,9.23,0,0-1.09-7.05-4.13-10.21-3.16-3.04-10.69-4.62-10.69-4.62Z"/>
  <path class="st69" d="M825.73,64.04s6.2,4.62,10.33,4.62,10.69-4.62,10.69-4.62c0,0-4.25,7.41-4.25,11.42,0,4.25,4.25,9.6,4.25,9.6,0,0-7.53-3.28-11.3-3.28-4.5,0-9.84,3.28-9.84,3.28,0,0,4.25-5.83,4.25-10.21s-4.13-10.81-4.13-10.81Z"/>
  <path class="st70" d="M780.9,74.61s7.65-1.09,10.57-4.01c2.79-2.79,4.25-10.81,4.25-10.81,0,0,2.31,8.26,5.1,11.06,2.92,2.92,9.84,3.77,9.84,3.77,0,0-7.65,3.04-10.33,5.59-3.16,3.16-4.62,9.23-4.62,9.23,0,0-1.09-7.05-4.13-10.21-3.16-3.04-10.69-4.62-10.69-4.62Z"/>
  <path class="st72" d="M785.27,64.04s6.2,4.62,10.33,4.62,10.69-4.62,10.69-4.62c0,0-4.25,7.41-4.25,11.42,0,4.25,4.25,9.6,4.25,9.6,0,0-7.53-3.28-11.3-3.28-4.5,0-9.84,3.28-9.84,3.28,0,0,4.25-5.83,4.25-10.21s-4.13-10.81-4.13-10.81Z"/>
  <path class="st71" d="M902.4,74.61s7.65-1.09,10.57-4.01c2.79-2.79,4.25-10.81,4.25-10.81,0,0,2.31,8.26,5.1,11.06,2.92,2.92,9.84,3.77,9.84,3.77,0,0-7.65,3.04-10.33,5.59-3.16,3.16-4.62,9.23-4.62,9.23,0,0-1.09-7.05-4.13-10.21-3.16-3.04-10.69-4.62-10.69-4.62Z"/>
  <path class="st66" d="M906.78,64.04s6.2,4.62,10.33,4.62,10.69-4.62,10.69-4.62c0,0-4.25,7.41-4.25,11.42,0,4.25,4.25,9.6,4.25,9.6,0,0-7.53-3.28-11.3-3.28-4.5,0-9.84,3.28-9.84,3.28,0,0,4.25-5.83,4.25-10.21s-4.13-10.81-4.13-10.81Z"/>
  <path class="st75" d="M861.82,74.61s7.65-1.09,10.57-4.01c2.79-2.79,4.25-10.81,4.25-10.81,0,0,2.31,8.26,5.1,11.06,2.92,2.92,9.84,3.77,9.84,3.77,0,0-7.65,3.04-10.33,5.59-3.16,3.16-4.62,9.23-4.62,9.23,0,0-1.09-7.05-4.13-10.21-3.04-3.04-10.69-4.62-10.69-4.62Z"/>
  <path class="st74" d="M866.19,64.04s6.2,4.62,10.33,4.62,10.69-4.62,10.69-4.62c0,0-4.25,7.41-4.25,11.42,0,4.25,4.25,9.6,4.25,9.6,0,0-7.53-3.28-11.3-3.28-4.5,0-9.84,3.28-9.84,3.28,0,0,4.25-5.83,4.25-10.21s-4.13-10.81-4.13-10.81Z"/>
  <path class="st84" d="M833.51,38.16s7.65-1.09,10.57-4.01c2.79-2.79,4.25-10.81,4.25-10.81,0,0,2.31,8.26,5.1,11.06,2.92,2.92,9.84,3.77,9.84,3.77,0,0-7.65,3.04-10.33,5.59-3.16,3.16-4.62,9.23-4.62,9.23,0,0-1.09-7.05-4.13-10.21-3.16-3.04-10.69-4.62-10.69-4.62Z"/>
  <path class="st45" d="M837.88,27.59s6.2,4.62,10.33,4.62,10.69-4.62,10.69-4.62c0,0-4.25,7.41-4.25,11.42,0,4.25,4.25,9.6,4.25,9.6,0,0-7.53-3.28-11.3-3.28-4.5,0-9.84,3.28-9.84,3.28,0,0,4.25-5.83,4.25-10.21s-4.13-10.81-4.13-10.81Z"/>
  <path class="st44" d="M793.05,38.16s7.65-1.09,10.57-4.01c2.79-2.79,4.25-10.81,4.25-10.81,0,0,2.31,8.26,5.1,11.06,2.92,2.92,9.84,3.77,9.84,3.77,0,0-7.65,3.04-10.33,5.59-3.16,3.16-4.62,9.23-4.62,9.23,0,0-1.09-7.05-4.13-10.21-3.16-3.04-10.69-4.62-10.69-4.62Z"/>
  <path class="st89" d="M797.42,27.59s6.2,4.62,10.33,4.62,10.69-4.62,10.69-4.62c0,0-4.25,7.41-4.25,11.42,0,4.25,4.25,9.6,4.25,9.6,0,0-7.53-3.28-11.3-3.28-4.5,0-9.84,3.28-9.84,3.28,0,0,4.25-5.83,4.25-10.21s-4.13-10.81-4.13-10.81Z"/>
  <path class="st86" d="M914.55,38.16s7.65-1.09,10.57-4.01c2.79-2.79,4.25-10.81,4.25-10.81,0,0,2.31,8.26,5.1,11.06,2.92,2.92,9.84,3.77,9.84,3.77,0,0-7.65,3.04-10.33,5.59-3.16,3.16-4.62,9.23-4.62,9.23,0,0-1.09-7.05-4.13-10.21-3.16-3.04-10.69-4.62-10.69-4.62Z"/>
  <path class="st83" d="M918.93,27.59s6.2,4.62,10.33,4.62,10.69-4.62,10.69-4.62c0,0-4.25,7.41-4.25,11.42,0,4.25,4.25,9.6,4.25,9.6,0,0-7.53-3.28-11.3-3.28-4.5,0-9.84,3.28-9.84,3.28,0,0,4.25-5.83,4.25-10.21s-4.13-10.81-4.13-10.81Z"/>
  <path class="st82" d="M873.97,38.16s7.65-1.09,10.57-4.01c2.79-2.79,4.25-10.81,4.25-10.81,0,0,2.31,8.26,5.1,11.06,2.92,2.92,9.84,3.77,9.84,3.77,0,0-7.65,3.04-10.33,5.59-3.16,3.16-4.62,9.23-4.62,9.23,0,0-1.09-7.05-4.13-10.21-3.04-3.04-10.69-4.62-10.69-4.62Z"/>
  <path class="st85" d="M878.34,27.59s6.2,4.62,10.33,4.62,10.69-4.62,10.69-4.62c0,0-4.25,7.41-4.25,11.42,0,4.25,4.25,9.6,4.25,9.6,0,0-7.53-3.28-11.3-3.28-4.5,0-9.84,3.28-9.84,3.28,0,0,4.25-5.83,4.25-10.21s-4.13-10.81-4.13-10.81Z"/>
  <path class="st88" d="M318.82,74.61s-7.53,1.58-10.69,4.74c-3.16,3.16-4.13,10.21-4.13,10.21,0,0-1.46-6.08-4.62-9.23-2.67-2.67-10.33-5.59-10.33-5.59,0,0,6.8-.85,9.84-3.77,2.79-2.79,5.1-11.06,5.1-11.06,0,0,1.46,8.02,4.25,10.81,2.92,2.79,10.57,3.89,10.57,3.89h0Z"/>
  <path class="st87" d="M310.19,74.97c0,4.37,4.25,10.21,4.25,10.21,0,0-5.35-3.28-9.84-3.28-3.77,0-11.3,3.28-11.3,3.28,0,0,4.25-5.35,4.25-9.6,0-4.01-4.25-11.42-4.25-11.42,0,0,6.68,4.62,10.69,4.62,4.25,0,10.33-4.62,10.33-4.62.12-.12-4.13,6.44-4.13,10.81Z"/>
  <path class="st107" d="M359.28,74.61s-7.53,1.58-10.69,4.74c-3.16,3.16-4.13,10.21-4.13,10.21,0,0-1.46-6.08-4.62-9.23-2.67-2.67-10.33-5.59-10.33-5.59,0,0,6.8-.85,9.84-3.77,2.79-2.79,5.1-11.06,5.1-11.06,0,0,1.46,8.02,4.25,10.81,2.92,2.79,10.57,3.89,10.57,3.89h0Z"/>
  <path class="st106" d="M350.65,74.97c0,4.37,4.25,10.21,4.25,10.21,0,0-5.35-3.28-9.84-3.28-3.77,0-11.3,3.28-11.3,3.28,0,0,4.25-5.35,4.25-9.6,0-4.01-4.25-11.42-4.25-11.42,0,0,6.68,4.62,10.69,4.62,4.25,0,10.33-4.62,10.33-4.62.12-.12-4.13,6.44-4.13,10.81Z"/>
  <path class="st93" d="M237.78,74.61s-7.53,1.58-10.69,4.74c-3.16,3.16-4.13,10.21-4.13,10.21,0,0-1.46-6.08-4.62-9.23-2.67-2.67-10.33-5.71-10.33-5.71,0,0,6.8-.85,9.84-3.77,2.79-2.79,5.1-11.06,5.1-11.06,0,0,1.46,8.02,4.25,10.81s10.57,4.01,10.57,4.01h0Z"/>
  <path class="st91" d="M229.15,74.97c0,4.37,4.25,10.21,4.25,10.21,0,0-5.35-3.28-9.84-3.28-3.77,0-11.3,3.28-11.3,3.28,0,0,4.25-5.35,4.25-9.6,0-4.01-4.25-11.42-4.25-11.42,0,0,6.68,4.62,10.69,4.62,4.25,0,10.33-4.62,10.33-4.62.12-.12-4.13,6.44-4.13,10.81Z"/>
  <path class="st102" d="M278.36,74.61s-7.53,1.58-10.69,4.74c-3.16,3.16-4.13,10.21-4.13,10.21,0,0-1.46-6.08-4.62-9.23-2.67-2.67-10.33-5.59-10.33-5.59,0,0,6.8-.85,9.84-3.77,2.79-2.79,5.1-11.06,5.1-11.06,0,0,1.46,8.02,4.25,10.81,2.92,2.79,10.57,3.89,10.57,3.89h0Z"/>
  <path class="st105" d="M269.73,74.97c0,4.37,4.25,10.21,4.25,10.21,0,0-5.35-3.28-9.84-3.28-3.77,0-11.3,3.28-11.3,3.28,0,0,4.25-5.35,4.25-9.6,0-4.01-4.25-11.42-4.25-11.42,0,0,6.68,4.62,10.69,4.62,4.25,0,10.33-4.62,10.33-4.62.12-.12-4.13,6.44-4.13,10.81Z"/>
  <path class="st109" d="M306.67,38.16s-7.53,1.58-10.69,4.74c-3.16,3.16-4.13,10.21-4.13,10.21,0,0-1.46-6.08-4.62-9.23-2.67-2.67-10.33-5.59-10.33-5.59,0,0,6.8-.85,9.84-3.77,2.79-2.79,5.1-11.06,5.1-11.06,0,0,1.46,8.02,4.25,10.81,2.92,2.79,10.57,3.89,10.57,3.89Z"/>
  <path class="st108" d="M298.04,38.52c0,4.37,4.25,10.21,4.25,10.21,0,0-5.35-3.28-9.84-3.28-3.77,0-11.3,3.28-11.3,3.28,0,0,4.25-5.35,4.25-9.6,0-4.01-4.25-11.42-4.25-11.42,0,0,6.68,4.62,10.69,4.62,4.25,0,10.33-4.62,10.33-4.62.12-.12-4.13,6.44-4.13,10.81Z"/>
  <path class="st104" d="M347.13,38.16s-7.53,1.58-10.69,4.74c-3.16,3.16-4.13,10.21-4.13,10.21,0,0-1.46-6.08-4.62-9.23-2.67-2.67-10.33-5.59-10.33-5.59,0,0,6.8-.85,9.84-3.77,2.79-2.79,5.1-11.06,5.1-11.06,0,0,1.46,8.02,4.25,10.81,2.92,2.79,10.57,3.89,10.57,3.89Z"/>
  <path class="st103" d="M338.5,38.52c0,4.37,4.25,10.21,4.25,10.21,0,0-5.35-3.28-9.84-3.28-3.77,0-11.3,3.28-11.3,3.28,0,0,4.25-5.35,4.25-9.6,0-4.01-4.25-11.42-4.25-11.42,0,0,6.68,4.62,10.69,4.62,4.25,0,10.33-4.62,10.33-4.62.12-.12-4.13,6.44-4.13,10.81Z"/>
  <path class="st24" d="M225.63,38.16s-7.53,1.58-10.69,4.74c-3.16,3.16-4.13,10.21-4.13,10.21,0,0-1.46-6.08-4.62-9.23-2.67-2.67-10.33-5.71-10.33-5.71,0,0,6.8-.85,9.84-3.77,2.79-2.79,5.1-11.06,5.1-11.06,0,0,1.46,8.02,4.25,10.81,2.92,2.92,10.57,4.01,10.57,4.01h0Z"/>
  <path class="st26" d="M217,38.52c0,4.37,4.25,10.21,4.25,10.21,0,0-5.35-3.28-9.84-3.28-3.77,0-11.3,3.28-11.3,3.28,0,0,4.25-5.35,4.25-9.6,0-4.01-4.25-11.42-4.25-11.42,0,0,6.68,4.62,10.69,4.62,4.25,0,10.33-4.62,10.33-4.62.12-.12-4.13,6.44-4.13,10.81Z"/>
  <path class="st28" d="M266.21,38.16s-7.53,1.58-10.69,4.74c-3.16,3.16-4.13,10.21-4.13,10.21,0,0-1.46-6.08-4.62-9.23-2.67-2.67-10.33-5.59-10.33-5.59,0,0,6.8-.85,9.84-3.77,2.79-2.79,5.1-11.06,5.1-11.06,0,0,1.46,8.02,4.25,10.81,2.92,2.79,10.57,3.89,10.57,3.89h0Z"/>
  <path class="st27" d="M257.58,38.52c0,4.37,4.25,10.21,4.25,10.21,0,0-5.35-3.28-9.84-3.28-3.77,0-11.3,3.28-11.3,3.28,0,0,4.25-5.35,4.25-9.6,0-4.01-4.25-11.42-4.25-11.42,0,0,6.68,4.62,10.69,4.62,4.25,0,10.33-4.62,10.33-4.62.12-.12-4.13,6.44-4.13,10.81Z"/>
  <path class="st25" d="M148.71,74.61s-7.53,1.58-10.69,4.74c-3.16,3.16-4.13,10.21-4.13,10.21,0,0-1.46-6.08-4.62-9.23-2.67-2.67-10.33-5.71-10.33-5.71,0,0,6.8-.85,9.84-3.77,2.79-2.79,5.1-11.06,5.1-11.06,0,0,1.46,8.02,4.25,10.81,2.92,2.92,10.57,4.01,10.57,4.01Z"/>
  <path class="st29" d="M140.09,74.97c0,4.37,4.25,10.21,4.25,10.21,0,0-5.35-3.28-9.84-3.28-3.77,0-11.3,3.28-11.3,3.28,0,0,4.25-5.35,4.25-9.6,0-4.01-4.25-11.42-4.25-11.42,0,0,6.68,4.62,10.69,4.62,4.25,0,10.33-4.62,10.33-4.62.12-.12-4.13,6.44-4.13,10.81Z"/>
  <path class="st31" d="M189.17,74.61s-7.53,1.58-10.69,4.74-4.13,10.21-4.13,10.21c0,0-1.46-6.08-4.62-9.23-2.67-2.67-10.33-5.71-10.33-5.71,0,0,6.8-.85,9.84-3.77,2.79-2.79,5.1-11.06,5.1-11.06,0,0,1.46,8.02,4.25,10.81,2.92,2.92,10.57,4.01,10.57,4.01Z"/>
  <path class="st30" d="M180.55,74.97c0,4.37,4.25,10.21,4.25,10.21,0,0-5.35-3.28-9.84-3.28-3.77,0-11.3,3.28-11.3,3.28,0,0,4.25-5.35,4.25-9.6,0-4.01-4.25-11.42-4.25-11.42,0,0,6.68,4.62,10.69,4.62,4.25,0,10.33-4.62,10.33-4.62.12-.12-4.13,6.44-4.13,10.81Z"/>
  <path class="st33" d="M67.67,74.61s-7.53,1.58-10.69,4.74-4.13,10.21-4.13,10.21c0,0-1.46-6.08-4.62-9.23-2.67-2.67-10.33-5.59-10.33-5.59,0,0,6.8-.85,9.84-3.77,2.79-2.79,5.1-11.06,5.1-11.06,0,0,1.46,8.02,4.25,10.81,2.92,2.79,10.57,3.89,10.57,3.89h0Z"/>
  <path class="st32" d="M59.04,74.97c0,4.37,4.25,10.21,4.25,10.21,0,0-5.35-3.28-9.84-3.28-3.77,0-11.3,3.28-11.3,3.28,0,0,4.25-5.35,4.25-9.6,0-4.01-4.25-11.42-4.25-11.42,0,0,6.68,4.62,10.69,4.62,4.25,0,10.33-4.62,10.33-4.62.12-.12-4.13,6.44-4.13,10.81Z"/>
  <path class="st57" d="M108.13,74.61s-7.53,1.58-10.69,4.74c-3.16,3.16-4.13,10.21-4.13,10.21,0,0-1.46-6.08-4.62-9.23-2.67-2.67-10.33-5.59-10.33-5.59,0,0,6.8-.85,9.84-3.77,2.79-2.79,5.1-11.06,5.1-11.06,0,0,1.46,8.02,4.25,10.81,3.04,2.79,10.57,3.89,10.57,3.89h0Z"/>
  <path class="st56" d="M99.63,74.97c0,4.37,4.25,10.21,4.25,10.21,0,0-5.35-3.28-9.84-3.28-3.77,0-11.3,3.28-11.3,3.28,0,0,4.25-5.35,4.25-9.6,0-4.01-4.25-11.42-4.25-11.42,0,0,6.68,4.62,10.69,4.62,4.25,0,10.33-4.62,10.33-4.62.12-.12-4.13,6.44-4.13,10.81Z"/>
  <path class="st59" d="M136.56,38.16s-7.53,1.58-10.69,4.74c-3.16,3.16-4.13,10.21-4.13,10.21,0,0-1.46-6.08-4.62-9.23-2.67-2.67-10.33-5.71-10.33-5.71,0,0,6.8-.85,9.84-3.77,2.79-2.79,5.1-11.06,5.1-11.06,0,0,1.46,8.02,4.25,10.81,2.92,2.92,10.57,4.01,10.57,4.01Z"/>
  <path class="st58" d="M127.94,38.52c0,4.37,4.25,10.21,4.25,10.21,0,0-5.35-3.28-9.84-3.28-3.77,0-11.3,3.28-11.3,3.28,0,0,4.25-5.35,4.25-9.6,0-4.01-4.25-11.42-4.25-11.42,0,0,6.68,4.62,10.69,4.62,4.25,0,10.33-4.62,10.33-4.62.12-.12-4.13,6.44-4.13,10.81Z"/>
  <path class="st61" d="M177.02,38.16s-7.53,1.58-10.69,4.74c-3.16,3.16-4.13,10.21-4.13,10.21,0,0-1.46-6.08-4.62-9.23-2.67-2.67-10.33-5.71-10.33-5.71,0,0,6.8-.85,9.84-3.77,2.79-2.79,5.1-11.06,5.1-11.06,0,0,1.46,8.02,4.25,10.81,2.92,2.92,10.57,4.01,10.57,4.01Z"/>
  <path class="st60" d="M168.4,38.52c0,4.37,4.25,10.21,4.25,10.21,0,0-5.35-3.28-9.84-3.28-3.77,0-11.3,3.28-11.3,3.28,0,0,4.25-5.35,4.25-9.6,0-4.01-4.25-11.42-4.25-11.42,0,0,6.68,4.62,10.69,4.62,4.25,0,10.33-4.62,10.33-4.62.12-.12-4.13,6.44-4.13,10.81Z"/>
  <path class="st65" d="M55.52,38.16s-7.53,1.58-10.69,4.74c-3.16,3.16-4.13,10.21-4.13,10.21,0,0-1.46-6.08-4.62-9.23-2.67-2.67-10.33-5.59-10.33-5.59,0,0,6.8-.85,9.84-3.77,2.79-2.79,5.1-11.06,5.1-11.06,0,0,1.46,8.02,4.25,10.81,2.92,2.79,10.57,3.89,10.57,3.89Z"/>
  <path class="st64" d="M46.89,38.52c0,4.37,4.25,10.21,4.25,10.21,0,0-5.35-3.28-9.84-3.28-3.77,0-11.3,3.28-11.3,3.28,0,0,4.25-5.35,4.25-9.6,0-4.01-4.25-11.42-4.25-11.42,0,0,6.68,4.62,10.69,4.62,4.25,0,10.33-4.62,10.33-4.62.12-.12-4.13,6.44-4.13,10.81Z"/>
  <path class="st62" d="M95.98,38.16s-7.53,1.58-10.69,4.74c-3.16,3.16-4.13,10.21-4.13,10.21,0,0-1.46-6.08-4.62-9.23-2.67-2.67-10.33-5.59-10.33-5.59,0,0,6.8-.85,9.84-3.77,2.79-2.79,5.1-11.06,5.1-11.06,0,0,1.46,8.02,4.25,10.81,3.04,2.79,10.57,3.89,10.57,3.89Z"/>
  <path class="st63" d="M87.48,38.52c0,4.37,4.25,10.21,4.25,10.21,0,0-5.35-3.28-9.84-3.28-3.77,0-11.3,3.28-11.3,3.28,0,0,4.25-5.35,4.25-9.6,0-4.01-4.25-11.42-4.25-11.42,0,0,6.68,4.62,10.69,4.62,4.25,0,10.33-4.62,10.33-4.62.12-.12-4.13,6.44-4.13,10.81Z"/>
  <path class="st111" d="M68.76,247.99c0-7.17,5.83-12.88,12.88-12.88s12.88,5.83,12.88,12.88-5.83,12.88-12.88,12.88-12.88-5.83-12.88-12.88Z"/>
  <path class="st110" d="M103.76,247.99c0-7.17,5.83-12.88,12.88-12.88s12.88,5.83,12.88,12.88-5.83,12.88-12.88,12.88-12.88-5.83-12.88-12.88Z"/>
  <path class="st111" d="M138.87,247.99c0-7.17,5.83-12.88,12.88-12.88s12.88,5.83,12.88,12.88-5.83,12.88-12.88,12.88-12.88-5.83-12.88-12.88Z"/>
  <path class="st110" d="M173.86,247.99c0-7.17,5.83-12.88,12.88-12.88s12.88,5.83,12.88,12.88-5.83,12.88-12.88,12.88-12.88-5.83-12.88-12.88Z"/>
  <path class="st111" d="M208.98,247.99c0-7.17,5.83-12.88,12.88-12.88s12.88,5.83,12.88,12.88-5.83,12.88-12.88,12.88-12.88-5.83-12.88-12.88Z"/>
  <path class="st110" d="M243.97,247.99c0-7.17,5.83-12.88,12.88-12.88s12.88,5.83,12.88,12.88-5.83,12.88-12.88,12.88-12.88-5.83-12.88-12.88Z"/>
  <path class="st111" d="M279.09,247.99c0-7.17,5.83-12.88,12.88-12.88s12.88,5.83,12.88,12.88-5.83,12.88-12.88,12.88-12.88-5.83-12.88-12.88Z"/>
  <path class="st110" d="M314.08,247.99c0-7.17,5.83-12.88,12.88-12.88s12.88,5.83,12.88,12.88-5.83,12.88-12.88,12.88-12.88-5.83-12.88-12.88Z"/>
  <path class="st111" d="M349.07,247.99c0-7.17,5.83-12.88,12.88-12.88s12.88,5.83,12.88,12.88-5.83,12.88-12.88,12.88-12.88-5.83-12.88-12.88Z"/>
  <path class="st110" d="M384.19,247.99c0-7.17,5.83-12.88,12.88-12.88s12.88,5.83,12.88,12.88-5.83,12.88-12.88,12.88-12.88-5.83-12.88-12.88Z"/>
  <path class="st111" d="M419.18,247.99c0-7.17,5.83-12.88,12.88-12.88s12.88,5.83,12.88,12.88-5.83,12.88-12.88,12.88-12.88-5.83-12.88-12.88Z"/>
  <path class="st110" d="M454.3,247.99c0-7.17,5.83-12.88,12.88-12.88s12.88,5.83,12.88,12.88-5.83,12.88-12.88,12.88-12.88-5.83-12.88-12.88Z"/>
  <path class="st111" d="M489.29,247.99c0-7.17,5.83-12.88,12.88-12.88s12.88,5.83,12.88,12.88-5.83,12.88-12.88,12.88-12.88-5.83-12.88-12.88Z"/>
  <path class="st110" d="M524.4,247.99c0-7.17,5.83-12.88,12.88-12.88s12.88,5.83,12.88,12.88-5.83,12.88-12.88,12.88-12.88-5.83-12.88-12.88Z"/>
  <path class="st111" d="M559.4,247.99c0-7.17,5.83-12.88,12.88-12.88s12.88,5.83,12.88,12.88-5.83,12.88-12.88,12.88-12.88-5.83-12.88-12.88Z"/>
  <path class="st110" d="M594.51,247.99c0-7.17,5.83-12.88,12.88-12.88s12.88,5.83,12.88,12.88-5.83,12.88-12.88,12.88-12.88-5.83-12.88-12.88Z"/>
  <path class="st111" d="M56.61,211.54c0-7.17,5.83-12.88,12.88-12.88s12.88,5.83,12.88,12.88-5.83,12.88-12.88,12.88-12.88-5.83-12.88-12.88Z"/>
  <path class="st110" d="M91.61,211.54c0-7.17,5.83-12.88,12.88-12.88s12.88,5.83,12.88,12.88-5.83,12.88-12.88,12.88-12.88-5.83-12.88-12.88Z"/>
  <path class="st111" d="M126.72,211.54c0-7.17,5.83-12.88,12.88-12.88s12.88,5.83,12.88,12.88-5.83,12.88-12.88,12.88-12.88-5.83-12.88-12.88Z"/>
  <path class="st110" d="M161.71,211.54c0-7.17,5.83-12.88,12.88-12.88s12.88,5.83,12.88,12.88-5.83,12.88-12.88,12.88-12.88-5.83-12.88-12.88Z"/>
  <path class="st111" d="M196.83,211.54c0-7.17,5.83-12.88,12.88-12.88s12.88,5.71,12.88,12.88-5.83,12.88-12.88,12.88-12.88-5.83-12.88-12.88Z"/>
  <path class="st110" d="M231.82,211.54c0-7.17,5.83-12.88,12.88-12.88s12.88,5.83,12.88,12.88-5.83,12.88-12.88,12.88-12.88-5.83-12.88-12.88Z"/>
  <path class="st111" d="M266.94,211.54c0-7.17,5.83-12.88,12.88-12.88s12.88,5.83,12.88,12.88-5.83,12.88-12.88,12.88-12.88-5.83-12.88-12.88Z"/>
  <path class="st110" d="M301.93,211.54c0-7.17,5.83-12.88,12.88-12.88s12.88,5.83,12.88,12.88-5.83,12.88-12.88,12.88-12.88-5.83-12.88-12.88Z"/>
  <path class="st111" d="M336.92,211.54c0-7.17,5.83-12.88,12.88-12.88s12.88,5.83,12.88,12.88-5.83,12.88-12.88,12.88-12.88-5.83-12.88-12.88Z"/>
  <path class="st110" d="M372.04,211.54c0-7.17,5.83-12.88,12.88-12.88s12.88,5.83,12.88,12.88-5.83,12.88-12.88,12.88-12.88-5.83-12.88-12.88Z"/>
  <path class="st111" d="M407.03,211.54c0-7.17,5.83-12.88,12.88-12.88s12.88,5.83,12.88,12.88-5.83,12.88-12.88,12.88-12.88-5.83-12.88-12.88h0Z"/>
  <path class="st110" d="M442.15,211.54c0-7.17,5.83-12.88,12.88-12.88s12.88,5.83,12.88,12.88-5.83,12.88-12.88,12.88-12.88-5.83-12.88-12.88Z"/>
  <path class="st111" d="M477.14,211.54c0-7.17,5.83-12.88,12.88-12.88s12.88,5.83,12.88,12.88-5.83,12.88-12.88,12.88-12.88-5.83-12.88-12.88Z"/>
  <path class="st110" d="M512.25,211.54c0-7.17,5.83-12.88,12.88-12.88s12.88,5.83,12.88,12.88-5.83,12.88-12.88,12.88-12.88-5.83-12.88-12.88Z"/>
  <path class="st111" d="M547.25,211.54c0-7.17,5.83-12.88,12.88-12.88s12.88,5.83,12.88,12.88-5.83,12.88-12.88,12.88-12.88-5.83-12.88-12.88Z"/>
  <path class="st110" d="M582.36,211.54c0-7.17,5.83-12.88,12.88-12.88s12.88,5.83,12.88,12.88-5.83,12.88-12.88,12.88-12.88-5.83-12.88-12.88Z"/>
  <path class="st111" d="M68.76,175.09c0-7.17,5.83-12.88,12.88-12.88s12.88,5.83,12.88,12.88-5.83,12.88-12.88,12.88-12.88-5.83-12.88-12.88Z"/>
  <path class="st110" d="M103.76,175.09c0-7.17,5.83-12.88,12.88-12.88s12.88,5.83,12.88,12.88-5.83,12.88-12.88,12.88-12.88-5.83-12.88-12.88Z"/>
  <path class="st111" d="M138.87,175.09c0-7.17,5.83-12.88,12.88-12.88s12.88,5.83,12.88,12.88-5.83,12.88-12.88,12.88-12.88-5.83-12.88-12.88Z"/>
  <path class="st110" d="M173.86,175.09c0-7.17,5.83-12.88,12.88-12.88s12.88,5.83,12.88,12.88-5.83,12.88-12.88,12.88-12.88-5.83-12.88-12.88Z"/>
  <path class="st111" d="M208.98,175.09c0-7.17,5.83-12.88,12.88-12.88s12.88,5.83,12.88,12.88-5.83,12.88-12.88,12.88-12.88-5.83-12.88-12.88Z"/>
  <path class="st110" d="M243.97,175.09c0-7.17,5.83-12.88,12.88-12.88s12.88,5.83,12.88,12.88-5.83,12.88-12.88,12.88-12.88-5.83-12.88-12.88Z"/>
  <path class="st111" d="M279.09,175.09c0-7.17,5.83-12.88,12.88-12.88s12.88,5.83,12.88,12.88-5.83,12.88-12.88,12.88-12.88-5.83-12.88-12.88Z"/>
  <path class="st110" d="M314.08,175.09c0-7.17,5.83-12.88,12.88-12.88s12.88,5.83,12.88,12.88-5.83,12.88-12.88,12.88-12.88-5.83-12.88-12.88Z"/>
  <path class="st111" d="M349.07,175.09c0-7.17,5.83-12.88,12.88-12.88s12.88,5.83,12.88,12.88-5.83,12.88-12.88,12.88-12.88-5.83-12.88-12.88Z"/>
  <path class="st110" d="M384.19,175.09c0-7.17,5.83-12.88,12.88-12.88s12.88,5.83,12.88,12.88-5.83,12.88-12.88,12.88-12.88-5.83-12.88-12.88Z"/>
  <path class="st111" d="M419.18,175.09c0-7.17,5.83-12.88,12.88-12.88s12.88,5.83,12.88,12.88-5.83,12.88-12.88,12.88-12.88-5.83-12.88-12.88Z"/>
  <path class="st110" d="M454.3,175.09c0-7.17,5.83-12.88,12.88-12.88s12.88,5.83,12.88,12.88-5.83,12.88-12.88,12.88-12.88-5.83-12.88-12.88Z"/>
  <path class="st111" d="M489.29,175.09c0-7.17,5.83-12.88,12.88-12.88s12.88,5.83,12.88,12.88-5.83,12.88-12.88,12.88-12.88-5.83-12.88-12.88Z"/>
  <path class="st110" d="M524.4,175.09c0-7.17,5.83-12.88,12.88-12.88s12.88,5.83,12.88,12.88-5.83,12.88-12.88,12.88-12.88-5.83-12.88-12.88Z"/>
  <path class="st111" d="M559.4,175.09c0-7.17,5.83-12.88,12.88-12.88s12.88,5.83,12.88,12.88-5.83,12.88-12.88,12.88-12.88-5.83-12.88-12.88Z"/>
  <path class="st110" d="M594.51,175.09c0-7.17,5.83-12.88,12.88-12.88s12.88,5.83,12.88,12.88-5.83,12.88-12.88,12.88-12.88-5.83-12.88-12.88Z"/>
  <path class="st111" d="M56.61,138.52c0-7.17,5.83-12.88,12.88-12.88s12.88,5.83,12.88,12.88-5.83,12.88-12.88,12.88-12.88-5.71-12.88-12.88Z"/>
  <path class="st110" d="M91.61,138.52c0-7.17,5.83-12.88,12.88-12.88s12.88,5.83,12.88,12.88-5.83,12.88-12.88,12.88-12.88-5.71-12.88-12.88Z"/>
  <path class="st111" d="M126.72,138.52c0-7.17,5.83-12.88,12.88-12.88s12.88,5.83,12.88,12.88-5.83,12.88-12.88,12.88-12.88-5.71-12.88-12.88Z"/>
  <path class="st110" d="M161.71,138.52c0-7.17,5.83-12.88,12.88-12.88s12.88,5.83,12.88,12.88-5.83,12.88-12.88,12.88-12.88-5.71-12.88-12.88Z"/>
  <path class="st111" d="M196.83,138.52c0-7.17,5.83-12.88,12.88-12.88s12.88,5.83,12.88,12.88-5.83,12.88-12.88,12.88-12.88-5.71-12.88-12.88Z"/>
  <path class="st110" d="M231.82,138.52c0-7.17,5.83-12.88,12.88-12.88s12.88,5.83,12.88,12.88-5.83,12.88-12.88,12.88-12.88-5.71-12.88-12.88Z"/>
  <path class="st111" d="M266.94,138.52c0-7.17,5.83-12.88,12.88-12.88s12.88,5.83,12.88,12.88-5.83,12.88-12.88,12.88-12.88-5.71-12.88-12.88Z"/>
  <path class="st110" d="M301.93,138.52c0-7.17,5.83-12.88,12.88-12.88s12.88,5.83,12.88,12.88-5.83,12.88-12.88,12.88-12.88-5.71-12.88-12.88Z"/>
  <path class="st111" d="M336.92,138.52c0-7.17,5.83-12.88,12.88-12.88s12.88,5.83,12.88,12.88-5.83,12.88-12.88,12.88-12.88-5.71-12.88-12.88Z"/>
  <path class="st110" d="M372.04,138.52c0-7.17,5.83-12.88,12.88-12.88s12.88,5.83,12.88,12.88-5.83,12.88-12.88,12.88c-7.17.12-12.88-5.71-12.88-12.88Z"/>
  <path class="st111" d="M407.03,138.52c0-7.17,5.83-12.88,12.88-12.88s12.88,5.83,12.88,12.88-5.83,12.88-12.88,12.88c-7.05.12-12.88-5.71-12.88-12.88h0Z"/>
  <path class="st110" d="M442.15,138.52c0-7.17,5.83-12.88,12.88-12.88s12.88,5.83,12.88,12.88-5.83,12.88-12.88,12.88c-7.17.12-12.88-5.71-12.88-12.88Z"/>
  <path class="st111" d="M477.14,138.52c0-7.17,5.83-12.88,12.88-12.88s12.88,5.83,12.88,12.88-5.83,12.88-12.88,12.88-12.88-5.71-12.88-12.88Z"/>
  <path class="st110" d="M512.25,138.52c0-7.17,5.83-12.88,12.88-12.88s12.88,5.83,12.88,12.88-5.83,12.88-12.88,12.88c-7.17.12-12.88-5.71-12.88-12.88Z"/>
  <path class="st111" d="M547.25,138.52c0-7.17,5.83-12.88,12.88-12.88s12.88,5.83,12.88,12.88-5.83,12.88-12.88,12.88-12.88-5.71-12.88-12.88Z"/>
  <path class="st110" d="M582.36,138.52c0-7.17,5.83-12.88,12.88-12.88s12.88,5.83,12.88,12.88-5.83,12.88-12.88,12.88c-7.17.12-12.88-5.71-12.88-12.88Z"/>
  <path class="st111" d="M632.42,247.99c0-7.17,5.83-12.88,12.88-12.88s12.88,5.83,12.88,12.88-5.83,12.88-12.88,12.88-12.88-5.83-12.88-12.88Z"/>
  <path class="st110" d="M667.54,247.99c0-7.17,5.83-12.88,12.88-12.88s12.88,5.83,12.88,12.88-5.83,12.88-12.88,12.88-12.88-5.83-12.88-12.88Z"/>
  <path class="st111" d="M702.53,247.99c0-7.17,5.83-12.88,12.88-12.88s12.88,5.83,12.88,12.88-5.83,12.88-12.88,12.88-12.88-5.83-12.88-12.88h0Z"/>
  <path class="st110" d="M737.64,247.99c0-7.17,5.83-12.88,12.88-12.88s12.88,5.83,12.88,12.88-5.83,12.88-12.88,12.88-12.88-5.83-12.88-12.88Z"/>
  <path class="st111" d="M772.64,247.99c0-7.17,5.83-12.88,12.88-12.88s12.88,5.83,12.88,12.88-5.83,12.88-12.88,12.88-12.88-5.83-12.88-12.88Z"/>
  <path class="st111" d="M620.27,211.54c0-7.17,5.83-12.88,12.88-12.88s12.88,5.83,12.88,12.88-5.83,12.88-12.88,12.88-12.88-5.83-12.88-12.88Z"/>
  <path class="st110" d="M655.38,211.54c0-7.17,5.83-12.88,12.88-12.88s12.88,5.83,12.88,12.88-5.83,12.88-12.88,12.88-12.88-5.83-12.88-12.88Z"/>
  <path class="st111" d="M690.38,211.54c0-7.17,5.83-12.88,12.88-12.88s12.88,5.83,12.88,12.88-5.83,12.88-12.88,12.88-12.88-5.83-12.88-12.88Z"/>
  <path class="st110" d="M725.49,211.54c0-7.17,5.83-12.88,12.88-12.88s12.88,5.83,12.88,12.88-5.83,12.88-12.88,12.88-12.88-5.83-12.88-12.88Z"/>
  <path class="st111" d="M760.49,211.54c0-7.17,5.83-12.88,12.88-12.88s12.88,5.83,12.88,12.88-5.83,12.88-12.88,12.88-12.88-5.83-12.88-12.88Z"/>
  <path class="st111" d="M632.42,175.09c0-7.17,5.83-12.88,12.88-12.88s12.88,5.83,12.88,12.88-5.83,12.88-12.88,12.88-12.88-5.83-12.88-12.88Z"/>
  <path class="st110" d="M667.54,175.09c0-7.17,5.83-12.88,12.88-12.88s12.88,5.83,12.88,12.88-5.83,12.88-12.88,12.88-12.88-5.83-12.88-12.88Z"/>
  <path class="st111" d="M702.53,175.09c0-7.17,5.83-12.88,12.88-12.88s12.88,5.83,12.88,12.88-5.83,12.88-12.88,12.88-12.88-5.83-12.88-12.88h0Z"/>
  <path class="st110" d="M737.64,175.09c0-7.17,5.83-12.88,12.88-12.88s12.88,5.83,12.88,12.88-5.83,12.88-12.88,12.88-12.88-5.83-12.88-12.88Z"/>
  <path class="st111" d="M772.64,175.09c0-7.17,5.83-12.88,12.88-12.88s12.88,5.83,12.88,12.88-5.83,12.88-12.88,12.88-12.88-5.83-12.88-12.88Z"/>
  <path class="st111" d="M620.27,138.52c0-7.17,5.83-12.88,12.88-12.88s12.88,5.83,12.88,12.88-5.83,12.88-12.88,12.88-12.88-5.71-12.88-12.88Z"/>
  <path class="st110" d="M655.38,138.52c0-7.17,5.83-12.88,12.88-12.88s12.88,5.83,12.88,12.88-5.83,12.88-12.88,12.88-12.88-5.71-12.88-12.88Z"/>
  <path class="st111" d="M690.38,138.52c0-7.17,5.83-12.88,12.88-12.88s12.88,5.83,12.88,12.88-5.83,12.88-12.88,12.88-12.88-5.71-12.88-12.88Z"/>
  <path class="st110" d="M725.49,138.52c0-7.17,5.83-12.88,12.88-12.88s12.88,5.83,12.88,12.88-5.83,12.88-12.88,12.88-12.88-5.71-12.88-12.88Z"/>
  <path class="st111" d="M-2.19,247.99c0-7.17,5.83-12.88,12.88-12.88s12.88,5.83,12.88,12.88-5.83,12.88-12.88,12.88-12.88-5.83-12.88-12.88Z"/>
  <path class="st110" d="M32.8,247.99c0-7.17,5.83-12.88,12.88-12.88s12.88,5.83,12.88,12.88-5.83,12.88-12.88,12.88-12.88-5.83-12.88-12.88Z"/>
  <path class="st111" d="M-14.35,211.54c0-7.17,5.83-12.88,12.88-12.88s12.88,5.83,12.88,12.88-5.83,12.88-12.88,12.88-12.88-5.83-12.88-12.88Z"/>
  <path class="st110" d="M20.65,211.54c0-7.17,5.83-12.88,12.88-12.88s12.88,5.83,12.88,12.88-5.83,12.88-12.88,12.88-12.88-5.83-12.88-12.88Z"/>
  <path class="st111" d="M-2.19,175.09c0-7.17,5.83-12.88,12.88-12.88s12.88,5.83,12.88,12.88-5.83,12.88-12.88,12.88-12.88-5.83-12.88-12.88Z"/>
  <path class="st110" d="M32.8,175.09c0-7.17,5.83-12.88,12.88-12.88s12.88,5.83,12.88,12.88-5.83,12.88-12.88,12.88-12.88-5.83-12.88-12.88Z"/>
  <path class="st111" d="M-14.35,138.52c0-7.17,5.83-12.88,12.88-12.88s12.88,5.83,12.88,12.88-5.83,12.88-12.88,12.88-12.88-5.71-12.88-12.88Z"/>
  <path class="st110" d="M20.65,138.52c0-7.17,5.83-12.88,12.88-12.88s12.88,5.83,12.88,12.88-5.83,12.88-12.88,12.88-12.88-5.71-12.88-12.88Z"/>
  <path class="st111" d="M-76.31,247.99c0-7.17,5.83-12.88,12.88-12.88s12.88,5.83,12.88,12.88-5.83,12.88-12.88,12.88-12.88-5.83-12.88-12.88Z"/>
  <path class="st110" d="M-41.32,247.99c0-7.17,5.83-12.88,12.88-12.88s12.88,5.83,12.88,12.88-5.83,12.88-12.88,12.88-12.88-5.83-12.88-12.88Z"/>
  <path class="st111" d="M-88.46,211.54c0-7.17,5.83-12.88,12.88-12.88s12.88,5.83,12.88,12.88-5.83,12.88-12.88,12.88-12.88-5.83-12.88-12.88Z"/>
  <path class="st110" d="M-53.47,211.54c0-7.17,5.83-12.88,12.88-12.88s12.88,5.83,12.88,12.88-5.83,12.88-12.88,12.88-12.88-5.83-12.88-12.88Z"/>
  <path class="st111" d="M-76.31,175.09c0-7.17,5.83-12.88,12.88-12.88s12.88,5.83,12.88,12.88-5.83,12.88-12.88,12.88-12.88-5.83-12.88-12.88Z"/>
  <path class="st110" d="M-41.32,175.09c0-7.17,5.83-12.88,12.88-12.88s12.88,5.83,12.88,12.88-5.83,12.88-12.88,12.88-12.88-5.83-12.88-12.88Z"/>
  <path class="st111" d="M-88.46,138.52c0-7.17,5.83-12.88,12.88-12.88s12.88,5.83,12.88,12.88-5.83,12.88-12.88,12.88-12.88-5.71-12.88-12.88Z"/>
  <path class="st110" d="M-53.47,138.52c0-7.17,5.83-12.88,12.88-12.88s12.88,5.83,12.88,12.88-5.83,12.88-12.88,12.88-12.88-5.71-12.88-12.88Z"/>
  <path class="st111" d="M-147.27,247.99c0-7.17,5.83-12.88,12.88-12.88s12.88,5.83,12.88,12.88-5.83,12.88-12.88,12.88-12.88-5.83-12.88-12.88Z"/>
  <path class="st110" d="M-112.28,247.99c0-7.17,5.83-12.88,12.88-12.88s12.88,5.83,12.88,12.88-5.83,12.88-12.88,12.88-12.88-5.83-12.88-12.88Z"/>
  <path class="st111" d="M-159.42,211.54c0-7.17,5.83-12.88,12.88-12.88s12.88,5.83,12.88,12.88-5.83,12.88-12.88,12.88-12.88-5.83-12.88-12.88Z"/>
  <path class="st110" d="M-124.43,211.54c0-7.17,5.83-12.88,12.88-12.88s12.88,5.83,12.88,12.88-5.83,12.88-12.88,12.88-12.88-5.83-12.88-12.88Z"/>
  <path class="st111" d="M-147.27,175.09c0-7.17,5.83-12.88,12.88-12.88s12.88,5.83,12.88,12.88-5.83,12.88-12.88,12.88-12.88-5.83-12.88-12.88Z"/>
  <path class="st110" d="M-112.28,175.09c0-7.17,5.83-12.88,12.88-12.88s12.88,5.83,12.88,12.88-5.83,12.88-12.88,12.88-12.88-5.83-12.88-12.88Z"/>
  <path class="st111" d="M-159.42,138.52c0-7.17,5.83-12.88,12.88-12.88s12.88,5.83,12.88,12.88-5.83,12.88-12.88,12.88-12.88-5.71-12.88-12.88Z"/>
  <path class="st110" d="M-124.43,138.52c0-7.17,5.83-12.88,12.88-12.88s12.88,5.83,12.88,12.88-5.83,12.88-12.88,12.88-12.88-5.71-12.88-12.88Z"/>
  <path class="st111" d="M-123.21,399.02c0-7.17,5.83-12.88,12.88-12.88s12.88,5.83,12.88,12.88-5.83,12.88-12.88,12.88-12.88-5.71-12.88-12.88Z"/>
  <path class="st110" d="M-88.22,399.02c0-7.17,5.83-12.88,12.88-12.88s12.88,5.83,12.88,12.88-5.83,12.88-12.88,12.88-12.88-5.71-12.88-12.88Z"/>
  <path class="st111" d="M-62.34,362.57c0-7.17,5.83-12.88,12.88-12.88s12.88,5.83,12.88,12.88-5.83,12.88-12.88,12.88c-7.05.12-12.88-5.71-12.88-12.88Z"/>
  <path class="st110" d="M-100.37,362.57c0-7.17,5.83-12.88,12.88-12.88s12.88,5.83,12.88,12.88-5.83,12.88-12.88,12.88-12.88-5.71-12.88-12.88Z"/>
  <path class="st111" d="M-50.19,326.12c0-7.17,5.83-12.88,12.88-12.88s12.88,5.83,12.88,12.88-5.83,12.88-12.88,12.88-12.88-5.71-12.88-12.88Z"/>
  <path class="st110" d="M-88.22,326.12c0-7.17,5.83-12.88,12.88-12.88s12.88,5.83,12.88,12.88-5.83,12.88-12.88,12.88-12.88-5.71-12.88-12.88Z"/>
  <path class="st111" d="M-62.34,289.67c0-7.17,5.83-12.88,12.88-12.88s12.88,5.83,12.88,12.88-5.83,12.88-12.88,12.88c-7.05.12-12.88-5.71-12.88-12.88Z"/>
  <path class="st110" d="M-27.35,289.67c0-7.17,5.83-12.88,12.88-12.88s12.88,5.83,12.88,12.88-5.83,12.88-12.88,12.88-12.88-5.71-12.88-12.88Z"/>
  <path class="st111" d="M-203.77,399.02c0-7.17,5.83-12.88,12.88-12.88s12.88,5.83,12.88,12.88-5.83,12.88-12.88,12.88-12.88-5.71-12.88-12.88Z"/>
  <path class="st110" d="M-168.66,399.02c0-7.17,5.83-12.88,12.88-12.88s12.88,5.83,12.88,12.88-5.83,12.88-12.88,12.88-12.88-5.71-12.88-12.88Z"/>
  <path class="st111" d="M-142.9,362.57c0-7.17,5.83-12.88,12.88-12.88s12.88,5.83,12.88,12.88-5.83,12.88-12.88,12.88-12.88-5.71-12.88-12.88Z"/>
  <path class="st110" d="M-180.81,362.57c0-7.17,5.83-12.88,12.88-12.88s12.88,5.83,12.88,12.88-5.83,12.88-12.88,12.88-12.88-5.71-12.88-12.88Z"/>
  <path class="st111" d="M-130.75,326.12c0-7.17,5.83-12.88,12.88-12.88s12.88,5.83,12.88,12.88-5.83,12.88-12.88,12.88-12.88-5.71-12.88-12.88Z"/>
  <path class="st110" d="M-168.66,326.12c0-7.17,5.83-12.88,12.88-12.88s12.88,5.83,12.88,12.88-5.83,12.88-12.88,12.88-12.88-5.71-12.88-12.88Z"/>
  <path class="st111" d="M-142.9,289.67c0-7.17,5.83-12.88,12.88-12.88s12.88,5.83,12.88,12.88-5.83,12.88-12.88,12.88-12.88-5.71-12.88-12.88Z"/>
  <path class="st110" d="M-107.78,289.67c0-7.17,5.83-12.88,12.88-12.88s12.88,5.83,12.88,12.88-5.83,12.88-12.88,12.88-12.88-5.71-12.88-12.88Z"/>
  <path class="st111" d="M854.65,260.87c-7.17,0-12.88-5.83-12.88-12.88s5.83-12.88,12.88-12.88,12.88,5.83,12.88,12.88-5.83,12.88-12.88,12.88Z"/>
  <path class="st110" d="M819.54,260.87c-7.17,0-12.88-5.83-12.88-12.88s5.83-12.88,12.88-12.88,12.88,5.83,12.88,12.88-5.71,12.88-12.88,12.88Z"/>
  <path class="st111" d="M866.8,224.42c-7.17,0-12.88-5.83-12.88-12.88s5.83-12.88,12.88-12.88,12.88,5.83,12.88,12.88-5.83,12.88-12.88,12.88Z"/>
  <path class="st110" d="M831.69,224.42c-7.17,0-12.88-5.83-12.88-12.88s5.83-12.88,12.88-12.88,12.88,5.83,12.88,12.88-5.71,12.88-12.88,12.88Z"/>
  <path class="st111" d="M854.65,187.97c-7.17,0-12.88-5.83-12.88-12.88s5.83-12.88,12.88-12.88,12.88,5.83,12.88,12.88-5.83,12.88-12.88,12.88Z"/>
  <path class="st110" d="M819.54,187.97c-7.17,0-12.88-5.83-12.88-12.88s5.83-12.88,12.88-12.88,12.88,5.83,12.88,12.88-5.71,12.88-12.88,12.88Z"/>
  <path class="st111" d="M866.8,151.52c-7.17,0-12.88-5.83-12.88-12.88s5.83-12.88,12.88-12.88,12.88,5.83,12.88,12.88-5.83,12.88-12.88,12.88Z"/>
  <path class="st110" d="M831.69,151.52c-7.17,0-12.88-5.83-12.88-12.88s5.83-12.88,12.88-12.88,12.88,5.83,12.88,12.88-5.71,12.88-12.88,12.88Z"/>
  <path class="st111" d="M925.61,260.87c-7.17,0-12.88-5.83-12.88-12.88s5.83-12.88,12.88-12.88,12.88,5.83,12.88,12.88-5.83,12.88-12.88,12.88Z"/>
  <path class="st110" d="M890.5,260.87c-7.17,0-12.88-5.83-12.88-12.88s5.83-12.88,12.88-12.88,12.88,5.83,12.88,12.88-5.71,12.88-12.88,12.88Z"/>
  <path class="st111" d="M937.76,224.42c-7.17,0-12.88-5.83-12.88-12.88s5.83-12.88,12.88-12.88,12.88,5.83,12.88,12.88-5.83,12.88-12.88,12.88Z"/>
  <path class="st110" d="M902.65,224.42c-7.17,0-12.88-5.83-12.88-12.88s5.83-12.88,12.88-12.88,12.88,5.83,12.88,12.88-5.71,12.88-12.88,12.88Z"/>
  <path class="st111" d="M925.61,187.97c-7.17,0-12.88-5.83-12.88-12.88s5.83-12.88,12.88-12.88,12.88,5.83,12.88,12.88-5.83,12.88-12.88,12.88Z"/>
  <path class="st110" d="M890.5,187.97c-7.17,0-12.88-5.83-12.88-12.88s5.83-12.88,12.88-12.88,12.88,5.83,12.88,12.88-5.71,12.88-12.88,12.88Z"/>
  <path class="st111" d="M937.76,151.52c-7.17,0-12.88-5.83-12.88-12.88s5.83-12.88,12.88-12.88,12.88,5.83,12.88,12.88-5.83,12.88-12.88,12.88Z"/>
  <path class="st110" d="M902.65,151.52c-7.17,0-12.88-5.83-12.88-12.88s5.83-12.88,12.88-12.88,12.88,5.83,12.88,12.88-5.71,12.88-12.88,12.88Z"/>
  <path class="st111" d="M901.55,412.03c-7.17,0-12.88-5.83-12.88-12.88s5.83-12.88,12.88-12.88,12.88,5.83,12.88,12.88-5.83,12.88-12.88,12.88Z"/>
  <path class="st110" d="M866.44,412.03c-7.17,0-12.88-5.83-12.88-12.88s5.83-12.88,12.88-12.88,12.88,5.83,12.88,12.88-5.71,12.88-12.88,12.88Z"/>
  <path class="st111" d="M840.68,375.57c-7.17,0-12.88-5.83-12.88-12.88s5.83-12.88,12.88-12.88,12.88,5.83,12.88,12.88-5.83,12.88-12.88,12.88Z"/>
  <path class="st110" d="M878.59,375.57c-7.17,0-12.88-5.83-12.88-12.88s5.83-12.88,12.88-12.88,12.88,5.83,12.88,12.88-5.71,12.88-12.88,12.88Z"/>
  <path class="st111" d="M828.53,339.12c-7.17,0-12.88-5.83-12.88-12.88s5.83-12.88,12.88-12.88,12.88,5.83,12.88,12.88-5.83,12.88-12.88,12.88Z"/>
  <path class="st110" d="M866.44,339.12c-7.17,0-12.88-5.83-12.88-12.88s5.83-12.88,12.88-12.88,12.88,5.83,12.88,12.88-5.71,12.88-12.88,12.88Z"/>
  <path class="st111" d="M840.68,302.67c-7.17,0-12.88-5.83-12.88-12.88s5.83-12.88,12.88-12.88,12.88,5.83,12.88,12.88-5.83,12.88-12.88,12.88Z"/>
  <path class="st110" d="M805.56,302.67c-7.17,0-12.88-5.83-12.88-12.88s5.83-12.88,12.88-12.88,12.88,5.83,12.88,12.88-5.71,12.88-12.88,12.88Z"/>
  <path class="st111" d="M981.99,412.03c-7.17,0-12.88-5.83-12.88-12.88s5.83-12.88,12.88-12.88,12.88,5.83,12.88,12.88-5.71,12.88-12.88,12.88Z"/>
  <path class="st110" d="M946.99,412.03c-7.17,0-12.88-5.83-12.88-12.88s5.83-12.88,12.88-12.88,12.88,5.83,12.88,12.88-5.71,12.88-12.88,12.88Z"/>
  <path class="st111" d="M921.11,375.57c-7.17,0-12.88-5.83-12.88-12.88s5.83-12.88,12.88-12.88,12.88,5.83,12.88,12.88-5.71,12.88-12.88,12.88Z"/>
  <path class="st110" d="M959.14,375.57c-7.17,0-12.88-5.83-12.88-12.88s5.83-12.88,12.88-12.88,12.88,5.83,12.88,12.88-5.71,12.88-12.88,12.88Z"/>
  <path class="st111" d="M908.96,339.12c-7.17,0-12.88-5.83-12.88-12.88s5.83-12.88,12.88-12.88,12.88,5.83,12.88,12.88-5.71,12.88-12.88,12.88Z"/>
  <path class="st110" d="M946.99,339.12c-7.17,0-12.88-5.83-12.88-12.88s5.83-12.88,12.88-12.88,12.88,5.83,12.88,12.88-5.71,12.88-12.88,12.88Z"/>
  <path class="st111" d="M921.11,302.67c-7.17,0-12.88-5.83-12.88-12.88s5.83-12.88,12.88-12.88,12.88,5.83,12.88,12.88-5.71,12.88-12.88,12.88Z"/>
  <path class="st110" d="M886.12,302.67c-7.17,0-12.88-5.83-12.88-12.88s5.83-12.88,12.88-12.88,12.88,5.83,12.88,12.88-5.83,12.88-12.88,12.88Z"/>
  <path class="st111" d="M760.49,138.52c0-7.17,5.83-12.88,12.88-12.88s12.88,5.83,12.88,12.88-5.83,12.88-12.88,12.88-12.88-5.71-12.88-12.88Z"/>
  <path class="st34" d="M-45.69,74.61s-7.53,1.58-10.69,4.74c-3.16,3.16-4.13,10.21-4.13,10.21,0,0-1.46-6.08-4.62-9.23-2.67-2.67-10.33-5.59-10.33-5.59,0,0,6.8-.85,9.84-3.77,2.79-2.79,5.1-11.06,5.1-11.06,0,0,1.46,8.02,4.25,10.81,2.92,2.79,10.57,3.89,10.57,3.89h0Z"/>
  <path class="st36" d="M-54.32,74.97c0,4.37,4.25,10.21,4.25,10.21,0,0-5.35-3.28-9.84-3.28-3.77,0-11.3,3.28-11.3,3.28,0,0,4.25-5.35,4.25-9.6,0-4.01-4.25-11.42-4.25-11.42,0,0,6.68,4.62,10.69,4.62,4.25,0,10.33-4.62,10.33-4.62.12-.12-4.13,6.44-4.13,10.81Z"/>
  <path class="st35" d="M-5.23,74.61s-7.53,1.58-10.69,4.74c-3.16,3.16-4.13,10.21-4.13,10.21,0,0-1.46-6.08-4.62-9.23-2.67-2.67-10.33-5.59-10.33-5.59,0,0,6.8-.85,9.84-3.77,2.79-2.79,5.1-11.06,5.1-11.06,0,0,1.46,8.02,4.25,10.81,2.92,2.79,10.57,3.89,10.57,3.89h0Z"/>
  <path class="st38" d="M-13.86,74.97c0,4.37,4.25,10.21,4.25,10.21,0,0-5.35-3.28-9.84-3.28-3.77,0-11.3,3.28-11.3,3.28,0,0,4.25-5.35,4.25-9.6,0-4.01-4.25-11.42-4.25-11.42,0,0,6.68,4.62,10.69,4.62,4.25,0,10.33-4.62,10.33-4.62.12-.12-4.13,6.44-4.13,10.81Z"/>
  <path class="st37" d="M-126.74,74.61s-7.53,1.58-10.69,4.74c-3.16,3.16-4.13,10.21-4.13,10.21,0,0-1.46-6.08-4.62-9.23-2.67-2.67-10.33-5.59-10.33-5.59,0,0,6.8-.85,9.84-3.77,2.79-2.79,5.1-11.06,5.1-11.06,0,0,1.46,8.02,4.25,10.81,2.92,2.79,10.57,3.89,10.57,3.89h0Z"/>
  <path class="st39" d="M-135.36,74.97c0,4.37,4.25,10.21,4.25,10.21,0,0-5.35-3.28-9.84-3.28-3.77,0-11.3,3.28-11.3,3.28,0,0,4.25-5.35,4.25-9.6,0-4.01-4.25-11.42-4.25-11.42,0,0,6.68,4.62,10.69,4.62,4.25,0,10.33-4.62,10.33-4.62.12-.12-4.13,6.44-4.13,10.81Z"/>
  <path class="st42" d="M-86.28,74.61s-7.53,1.58-10.69,4.74c-3.16,3.16-4.13,10.21-4.13,10.21,0,0-1.46-6.08-4.62-9.23-2.67-2.67-10.33-5.59-10.33-5.59,0,0,6.8-.85,9.84-3.77,2.79-2.79,5.1-11.06,5.1-11.06,0,0,1.46,8.02,4.25,10.81,2.92,2.79,10.57,3.89,10.57,3.89h0Z"/>
  <path class="st40" d="M-94.9,74.97c0,4.37,4.25,10.21,4.25,10.21,0,0-5.35-3.28-9.84-3.28-3.77,0-11.3,3.28-11.3,3.28,0,0,4.25-5.35,4.25-9.6,0-4.01-4.25-11.42-4.25-11.42,0,0,6.68,4.62,10.69,4.62,4.25,0,10.33-4.62,10.33-4.62.12-.12-4.13,6.44-4.13,10.81Z"/>
  <path class="st43" d="M-57.84,38.16s-7.53,1.58-10.69,4.74c-3.16,3.16-4.13,10.21-4.13,10.21,0,0-1.46-6.08-4.62-9.23-2.67-2.67-10.33-5.59-10.33-5.59,0,0,6.8-.85,9.84-3.77,2.79-2.79,5.1-11.06,5.1-11.06,0,0,1.46,8.02,4.25,10.81,2.92,2.79,10.57,3.89,10.57,3.89Z"/>
  <path class="st41" d="M-66.47,38.52c0,4.37,4.25,10.21,4.25,10.21,0,0-5.35-3.28-9.84-3.28-3.77,0-11.3,3.28-11.3,3.28,0,0,4.25-5.35,4.25-9.6,0-4.01-4.25-11.42-4.25-11.42,0,0,6.68,4.62,10.69,4.62,4.25,0,10.33-4.62,10.33-4.62.12-.12-4.13,6.44-4.13,10.81Z"/>
  <path class="st81" d="M-17.38,38.16s-7.53,1.58-10.69,4.74c-3.16,3.16-4.13,10.21-4.13,10.21,0,0-1.46-6.08-4.62-9.23-2.67-2.67-10.33-5.59-10.33-5.59,0,0,6.8-.85,9.84-3.77,2.79-2.79,5.1-11.06,5.1-11.06,0,0,1.46,8.02,4.25,10.81,2.92,2.79,10.57,3.89,10.57,3.89h0Z"/>
  <path class="st78" d="M-26.01,38.52c0,4.37,4.25,10.21,4.25,10.21,0,0-5.35-3.28-9.84-3.28-3.77,0-11.3,3.28-11.3,3.28,0,0,4.25-5.35,4.25-9.6,0-4.01-4.25-11.42-4.25-11.42,0,0,6.68,4.62,10.69,4.62,4.25,0,10.33-4.62,10.33-4.62.12-.12-4.13,6.44-4.13,10.81Z"/>
  <path class="st80" d="M-138.89,38.16s-7.53,1.58-10.69,4.74c-3.16,3.16-4.13,10.21-4.13,10.21,0,0-1.46-6.08-4.62-9.23-2.67-2.67-10.33-5.59-10.33-5.59,0,0,6.8-.85,9.84-3.77,2.79-2.79,5.1-11.06,5.1-11.06,0,0,1.46,8.02,4.25,10.81,2.92,2.79,10.57,3.89,10.57,3.89Z"/>
  <path class="st79" d="M-147.51,38.52c0,4.37,4.25,10.21,4.25,10.21,0,0-5.35-3.28-9.84-3.28-3.77,0-11.3,3.28-11.3,3.28,0,0,4.25-5.35,4.25-9.6,0-4.01-4.25-11.42-4.25-11.42,0,0,6.68,4.62,10.69,4.62,4.25,0,10.33-4.62,10.33-4.62.12-.12-4.13,6.44-4.13,10.81Z"/>
  <path class="st77" d="M-98.43,38.16s-7.53,1.58-10.69,4.74c-3.16,3.16-4.13,10.21-4.13,10.21,0,0-1.46-6.08-4.62-9.23-2.67-2.67-10.33-5.59-10.33-5.59,0,0,6.8-.85,9.84-3.77,2.79-2.79,5.1-11.06,5.1-11.06,0,0,1.46,8.02,4.25,10.81,2.92,2.79,10.57,3.89,10.57,3.89Z"/>
  <path class="st76" d="M-107.05,38.52c0,4.37,4.25,10.21,4.25,10.21,0,0-5.35-3.28-9.84-3.28-3.77,0-11.3,3.28-11.3,3.28,0,0,4.25-5.35,4.25-9.6,0-4.01-4.25-11.42-4.25-11.42,0,0,6.68,4.62,10.69,4.62,4.25,0,10.33-4.62,10.33-4.62.12-.12-4.13,6.44-4.13,10.81Z"/>
  <path class="st14" d="M179.27,193.31c.15-.1.41-.05.46.15l1.32,5.42s3.24,2.38,4.2,4.05c1.62,2.78,1.67,5.06,1.67,5.06,0,0,3.59,1.06,4.2,3.95.61,2.89-1.62,8.35-11.14,10.23-9.52,1.87-17.16-.71-20.76-6.48-3.59-5.77,2.08-12.66,1.77-12.25l-1.06-9.06c-.05-.2.2-.35.41-.25l6.13,4s2.28-.86,4.66-.96c1.42-.1,2.63,0,3.8.2l4.35-4.05Z"/>
  <path class="st17" d="M186.76,208.19s3.49.91,4.1,3.8c.61,2.89-1.82,8.1-11.24,9.92-12.25,2.53-18.08-4.76-14.68-10.13,3.39-5.42,9.22-.81,13.47-1.11,3.65-.25,4.05-3.44,8.35-2.48h0Z"/>
  <path class="st19" d="M170.81,213.61c0-.2.2-.35.41-.3.96.35,3.7,1.16,6.73,1.37,2.73.15,4.35,0,5.11-.15.25-.05.46.2.35.46-.46,1.37-2.38,5.16-7.7,4.86-4.61-.51-5.06-3.75-4.91-6.23h0Z"/>
  <path class="st23" d="M192.03,208.75c-2.38,1.92-6.03,1.97-6.03,1.97"/>
  <path class="st23" d="M191.37,214.42c-3.19.25-5.16-.71-5.16-.71"/>
  <path class="st20" d="M178.21,209.36c1.06,0,2.18.1,2.23.46.05.71-.71,2.13-1.52,2.18-.91.1-3.04-1.16-3.04-1.97-.05-.61,1.32-.66,2.33-.66Z"/>
  <path class="st23" d="M155.42,208.6s4.35,1.42,6.13,2.99"/>
  <path class="st23" d="M161.7,213.36c-2.18.86-5.92.3-5.92.3"/>
  <path class="st19" d="M184.18,203.43c1.47,2.28,1.52,4.86.1,5.77-1.42.91-3.75-.15-5.27-2.43-1.47-2.28-1.52-4.86-.1-5.77,1.42-.96,3.8.15,5.27,2.43Z"/>
  <path class="st21" d="M183.98,206.32c0,.56-.41,1.01-.91,1.01s-.91-.46-.91-1.01.41-1.01.91-1.01.91.46.91,1.01"/>
  <path class="st19" d="M171.62,204.85c1.52,2.23,1.42,4.96.05,5.92-1.67.96-3.9.25-5.42-1.97-1.57-2.23-1.67-5.11-.1-6.23,1.57-1.16,3.95.05,5.47,2.28Z"/>
  <path class="st21" d="M171.32,207.79c0,.56-.41,1.01-.91,1.01s-.91-.46-.91-1.01.41-1.01.91-1.01c.51.05.91.46.91,1.01"/>
  <path class="st18" d="M-63.49,297.45V104.62h16.16v192.83h-16.16Z"/>
  <path class="st18" d="M-63.49,104.26c0-3.56,3.64-6.44,8.14-6.44s8.14,2.88,8.14,6.44-3.64,6.44-8.14,6.44-8.14-2.88-8.14-6.44Z"/>
  <path class="st18" d="M835.64,297.45V104.62h16.16v192.83h-16.16Z"/>
  <path class="st18" d="M835.64,104.26c0-3.56,3.64-6.44,8.14-6.44s8.14,2.88,8.14,6.44-3.64,6.44-8.14,6.44-8.14-2.88-8.14-6.44Z"/>
  <path class="st122" d="M-131.78,570.83L-46.73,227.95h888.19l85.05,342.88H-131.78Z"/>
  <path class="st5" d="M519.48,341.07c0,34.87-54.68,63.18-122.11,63.18s-122.11-28.31-122.11-63.18,54.68-63.18,122.11-63.18,122.11,28.31,122.11,63.18Z"/>
  <path class="st7" d="M-137.85,503.27L-51.59,183.72h894.27l83.84,319.56"/>
  <path class="st3" d="M-137.85,528.67L-51.59,209.11h894.27l83.84,319.56"/>
  <path class="st3" d="M-137.85,477.88L-51.59,158.32h894.27l83.84,319.56"/>
  <path class="st3" d="M-137.85,452.49L-51.59,132.93h894.27l83.84,319.56"/>
  <path class="st18" d="M-26.31,217.62c0,6.68-4.13,15.8-9.11,20.17l-9.6,8.38c-5.1,4.25-9.23,2.43-9.23-4.25v-99.63c0-6.68,4.13-15.8,9.11-20.17l9.6-8.38c5.1-4.37,9.11-2.55,9.11,4.13v99.75h.12Z"/>
  <path class="st18" d="M817.17,125.64c0-6.68,4.01-8.51,9.11-4.13l9.6,8.38c4.98,4.37,9.11,13.49,9.11,20.17v99.63c0,6.68-4.01,8.51-9.11,4.13l-9.6-8.38c-4.98-4.37-9.11-13.49-9.11-20.17v-99.63Z"/>
  <path class="st18" d="M199.68,215.19v-88.33h15.31v88.33h-15.31Z"/>
  <path class="st18" d="M565.65,215.19v-88.33h15.31v88.33h-15.31Z"/>
  <path class="st18" d="M320.58,340.95l6.44-.24c.12.61.36,1.09.85,1.46.73.49,1.7.73,2.92.73.97,0,1.7-.12,2.19-.36.49-.24.73-.61.73-.97s-.24-.61-.73-.85c-.49-.24-1.7-.49-3.4-.73-2.92-.36-5.1-.97-6.32-1.58s-1.94-1.46-1.94-2.43c0-.61.36-1.34.97-1.82s1.58-1.09,2.92-1.34c1.34-.36,3.04-.49,5.35-.49,2.79,0,4.86.36,6.32.97s2.31,1.58,2.55,2.92l-6.32.24c-.12-.61-.49-.97-1.09-1.22-.49-.24-1.34-.36-2.19-.36-.73,0-1.34.12-1.82.24s-.61.49-.61.73.12.36.49.61c.36.12,1.09.36,2.31.49,2.92.36,5.1.73,6.32,1.09s2.19.85,2.79,1.46.85,1.22.85,1.94c0,.85-.36,1.58-1.22,2.31-.73.73-1.82,1.22-3.28,1.58-1.34.36-3.16.49-5.22.49-3.77,0-6.32-.36-7.65-1.22-1.22-1.34-2.07-2.31-2.19-3.65h0Z"/>
  <path class="st18" d="M358.25,339.97l5.95,1.09c-.36.97-.97,1.82-1.82,2.43s-1.94,1.09-3.16,1.46c-1.22.36-2.92.49-4.86.49-2.31,0-4.25-.24-5.83-.61-1.46-.36-2.79-1.09-3.89-2.19-1.09-.97-1.58-2.31-1.58-3.89,0-2.19.97-3.77,2.92-4.86,1.94-1.09,4.62-1.7,8.14-1.7,2.79,0,4.86.36,6.44.97s2.79,1.7,3.52,3.04l-5.95.73c-.24-.36-.49-.73-.61-.85-.36-.36-.85-.49-1.34-.73-.49-.12-1.22-.24-1.82-.24-1.58,0-2.67.36-3.52,1.09-.61.49-.97,1.34-.97,2.55,0,1.46.36,2.43,1.09,2.92.73.49,1.82.85,3.04.85,1.34,0,2.31-.24,2.92-.61.49-.61.97-1.22,1.34-1.94h0Z"/>
  <path class="st18" d="M367.48,345.2v-12.88h11.18c2.07,0,3.65.12,4.74.36,1.09.24,1.94.61,2.67,1.22.73.61.97,1.22.97,2.07,0,.73-.24,1.34-.73,1.82-.49.49-1.22.97-2.19,1.22-.61.24-1.34.36-2.31.49.85.12,1.34.36,1.7.49.24.12.61.36,1.09.73.49.36.73.61.97.85l3.28,3.77h-7.65l-3.65-3.89c-.49-.49-.85-.85-1.22-.97-.49-.24-1.09-.24-1.7-.24h-.61v5.22h-6.56v-.24ZM374.29,337.54h2.79c.36,0,.85,0,1.82-.12.49,0,.85-.24,1.09-.36.24-.12.36-.49.36-.73,0-.36-.24-.73-.73-.97-.49-.24-1.34-.36-2.55-.36h-2.92v2.55h.12Z"/>
  <path class="st18" d="M404.42,343.01h-7.65l-1.09,2.19h-6.93l8.14-12.88h7.29l8.38,12.88h-7.05l-1.09-2.19ZM403.08,340.34l-2.43-4.62-2.43,4.62h4.86Z"/>
  <path class="st18" d="M411.1,332.32h20.41v3.16h-6.8v9.72h-6.68v-9.72h-6.93v-3.16Z"/>
  <path class="st18" d="M448.04,339.97l5.95,1.09c-.36.97-.97,1.82-1.82,2.43s-1.94,1.09-3.16,1.46c-1.22.36-2.92.49-4.86.49-2.31,0-4.25-.24-5.83-.61-1.46-.36-2.79-1.09-3.89-2.19-1.09-.97-1.58-2.31-1.58-3.89,0-2.19.97-3.77,2.92-4.86s4.62-1.7,8.14-1.7c2.79,0,4.86.36,6.44.97s2.79,1.7,3.52,3.04l-5.95.73c-.24-.36-.49-.73-.61-.85-.36-.36-.85-.49-1.34-.73-.49-.12-1.22-.24-1.82-.24-1.58,0-2.67.36-3.52,1.09-.61.49-.97,1.34-.97,2.55,0,1.46.36,2.43,1.09,2.92s1.82.85,3.04.85c1.34,0,2.31-.24,2.92-.61.61-.61,1.09-1.22,1.34-1.94h0Z"/>
  <path class="st18" d="M457.27,332.32h6.68v4.5h7.41v-4.5h6.8v12.88h-6.8v-5.22h-7.41v5.22h-6.68v-12.88Z"/>
  <path class="st16" d="M433.9,253.9c0,9.39-16.6,17.01-37.07,17.01s-37.07-7.62-37.07-17.01,16.6-17.01,37.07-17.01,37.07,7.62,37.07,17.01Z"/>
  <path class="st6" d="M361.9,186.46v-49.05h13.68v49.05h-13.68Z"/>
  <path class="st6" d="M415.21,186.46v-49.05h17.2v49.05h-17.2Z"/>
  <path class="st6" d="M378.84,212.01v-86.86h35.28v86.86h-35.28Z"/>
  <path class="st9" d="M372.26,255.95v-49.05h14.11v49.05h-14.11Z"/>
  <path class="st9" d="M407.54,254.93v-49.05h14.11v49.05h-14.11Z"/>
  <path class="st9" d="M376.65,220v-28.92h39.57v28.92h-39.57Z"/>
  <path class="st11" d="M383.78,132.3v-30.66h24.19v30.66h-24.19Z"/>
  <path class="st1" d="M387.31,146.65v-10.58h19.04v10.58h-19.04Z"/>
  <path class="st15" d="M304.72,346.85c0,9.73-25.57,17.62-57.11,17.62s-57.11-7.89-57.11-17.62,25.57-17.62,57.11-17.62,57.11,7.89,57.11,17.62Z"/>
  <path class="st4" d="M255.31,321.85v-60.66h25.52v60.66h-25.52Z"/>
  <path class="st4" d="M212.86,321.13v-60.66h25.52v60.66h-25.52Z"/>
  <path class="st8" d="M255.42,346.65v-34.59h25.52v34.59h-25.52Z"/>
  <path class="st8" d="M212.98,346.24v-34.59h25.52v34.59h-25.52Z"/>
  <path class="st123" d="M258.78,309.17v-44.56h9.6v44.56h-9.6Z"/>
  <path class="st123" d="M216.76,309.21v-44.56h9.6v44.56h-9.6Z"/>
  <path class="st0" d="M259.91,343.56v-26.63h9.83v26.63h-9.83Z"/>
  <path class="st0" d="M217.25,342.95v-26.63h9.83v26.63h-9.83Z"/>
  <path class="st8" d="M274.34,187.8c0-11.07,8.98-20.05,20.05-20.05s20.05,8.98,20.05,20.05-8.98,20.05-20.05,20.05-20.05-8.98-20.05-20.05Z"/>
  <path class="st0" d="M300.15,172.47c-4.84,1.6-8.33,6.16-8.33,11.54,0,6.71,5.44,12.15,12.15,12.15,1.53,0,3-.28,4.35-.8-2.76,5.52-8.47,9.32-15.07,9.32-9.3,0-16.84-7.54-16.84-16.84s7.54-16.84,16.84-16.84c2.46,0,4.79.53,6.9,1.47h0Z"/>
  <path class="st4" d="M240.32,162.59v-35.53h37.53v35.53h-37.53Z"/>
  <path class="st4" d="M217.77,251.65v-89.33h45.09v89.33h-45.09Z"/>
  <path class="st8" d="M215.54,269.69v-36.58h51.9v36.58h-51.9Z"/>
  <path class="st15" d="M161.34,137.26"/>
  <path class="st13" d="M236.67,142.23v-25.52h41.92v25.52h-41.92Z"/>
  <path class="st8" d="M253.68,217.57c0-11.07,8.98-20.05,20.05-20.05s20.05,8.98,20.05,20.05-8.98,20.05-20.05,20.05-20.05-8.98-20.05-20.05Z"/>
  <path class="st123" d="M242.8,159.09v-13.6h18.02v13.6h-18.02Z"/>
  <path class="st22" d="M238.63,139.51v-20.16h22.03v20.16h-22.03Z"/>
  <path class="st123" d="M221.45,230.25v-64.08h15.34v64.08h-15.34Z"/>
  <path class="st0" d="M218.83,266.51v-30.08h16.72v30.08h-16.72Z"/>
  <path class="st0" d="M273.69,200.89c2.46,0,4.79.53,6.9,1.47-4.84,1.6-8.33,6.16-8.33,11.54,0,6.71,5.44,12.15,12.15,12.15,1.53,0,3-.28,4.35-.8-2.76,5.52-8.47,9.32-15.07,9.32-9.3,0-16.84-7.54-16.84-16.84s7.54-16.84,16.84-16.84h0Z"/>
  <path class="st15" d="M541.35,329.24c31.54,0,57.11,7.89,57.11,17.62s-25.57,17.62-57.11,17.62-57.11-7.89-57.11-17.62,25.57-17.62,57.11-17.62Z"/>
  <path class="st4" d="M514.03,321.85v-60.66h25.52v60.66h-25.52Z"/>
  <path class="st4" d="M546.47,321.13v-60.66h25.52v60.66h-25.52Z"/>
  <path class="st10" d="M513.91,346.65v-34.59h25.52v34.59h-25.52Z"/>
  <path class="st10" d="M546.35,346.24v-34.59h25.52v34.59h-25.52Z"/>
  <path class="st123" d="M525.82,308.04v-44.56h9.6v44.56h-9.6Z"/>
  <path class="st123" d="M558.48,307.72v-44.56h9.6v44.56h-9.6Z"/>
  <path class="st121" d="M525.59,343.18v-26.63h9.83v26.63h-9.83Z"/>
  <path class="st121" d="M558.13,342.95v-26.63h9.83v26.63h-9.83Z"/>
  <path class="st10" d="M494.57,213.73c-11.07,0-20.05-8.98-20.05-20.05s8.98-20.05,20.05-20.05,20.05,8.98,20.05,20.05-8.98,20.05-20.05,20.05Z"/>
  <path class="st121" d="M495.71,177.13c9.3,0,16.84,7.54,16.84,16.84s-7.54,16.84-16.84,16.84c-6.6,0-12.31-3.79-15.07-9.32,1.35.52,2.82.8,4.35.8,6.71,0,12.15-5.44,12.15-12.15,0-5.38-3.49-9.94-8.33-11.54,2.11-.95,4.44-1.47,6.9-1.47h0Z"/>
  <path class="st4" d="M511.11,165.69v-35.53h37.53v35.53h-37.53Z"/>
  <path class="st13" d="M510.37,145.33v-25.52h41.92v25.52h-41.92Z"/>
  <path class="st123" d="M528.14,161.71v-13.6h18.02v13.6h-18.02Z"/>
  <path class="st22" d="M528.3,142.69v-20.16h22.03v20.16h-22.03Z"/>
  <path class="st4" d="M526.1,251.65v-89.33h45.09v89.33h-45.09Z"/>
  <path class="st10" d="M521.53,269.69v-36.58h51.9v36.58h-51.9Z"/>
  <path class="st15" d="M627.62,137.26"/>
  <path class="st10" d="M515.23,243.5c-11.07,0-20.05-8.98-20.05-20.05s8.98-20.05,20.05-20.05,20.05,8.98,20.05,20.05-8.98,20.05-20.05,20.05Z"/>
  <path class="st121" d="M515.27,207.03c9.3,0,16.84,7.54,16.84,16.84s-7.54,16.84-16.84,16.84c-6.6,0-12.31-3.79-15.07-9.32,1.35.52,2.82.8,4.35.8,6.71,0,12.15-5.44,12.15-12.15,0-5.38-3.49-9.94-8.33-11.54,2.11-.95,4.44-1.47,6.9-1.47h0Z"/>
  <path class="st123" d="M552.17,230.25v-64.08h15.34v64.08h-15.34Z"/>
  <path class="st121" d="M553.41,266.51v-30.08h16.72v30.08h-16.72Z"/>
</svg>