<?xml version="1.0" encoding="utf-8"?>
<!-- Generator: Adobe Illustrator 17.1.0, SVG Export Plug-In . SVG Version: 6.00 Build 0)  -->
<!DOCTYPE svg PUBLIC "-//W3C//DTD SVG 1.1//EN" "http://www.w3.org/Graphics/SVG/1.1/DTD/svg11.dtd">
<svg version="1.1" id="レイヤー_1" xmlns="http://www.w3.org/2000/svg" xmlns:xlink="http://www.w3.org/1999/xlink" x="0px"
	 y="0px" viewBox="0 0 801 495" enable-background="new 0 0 801 495" xml:space="preserve">
<rect fill="#EAE2BA" width="801" height="494.5"/>
<rect x="0" y="12.3" fill="#D8D8D8" width="180.4" height="139.9"/>
<path id="ID0.05800373759120703_2_" fill="#F1CA6B" d="M0,289.7h801v9.4H0V289.7z"/>
<path id="ID0.05800373759120703_3_" fill="#BD9E59" d="M0,299h801v53.4H0V299z"/>
<path id="ID0.05800373759120703_5_" fill="#7E6A44" d="M0,405.8h801v85.9H0V405.8z"/>
<path id="ID0.05800373759120703_4_" fill="#F1CA6B" d="M0,352.4h801v53.4H0V352.4z"/>
<path id="ID0.05800373759120703_6_" fill="#BD9E59" d="M0,157.5h801v45.8H0V157.5z"/>
<path id="ID0.05800373759120703_1_" fill="#BD9E59" d="M0,203.4h801v30.2H0V203.4z"/>
<rect x="180.2" y="318.9" fill="#EE7543" width="25.4" height="40.6"/>
<rect x="221.1" y="322" fill="#6C473A" width="104.8" height="38.5"/>
<rect x="180.2" y="294.3" fill="#6C473A" width="25.4" height="24.6"/>
<rect x="518.9" y="318.9" fill="#EE7543" width="25.4" height="40.6"/>
<rect x="556.3" y="322" fill="#6C473A" width="104.8" height="38.5"/>
<rect x="518.9" y="294.3" fill="#6C473A" width="25.4" height="24.6"/>
<g>
	<rect x="695.4" y="0" fill="#F1CA6B" width="31.3" height="94.8"/>
	<rect x="744.3" y="0" fill="#F1CA6B" width="31.3" height="94.8"/>
	<rect x="597.4" y="0" fill="#F1CA6B" width="31.3" height="94.8"/>
	<rect x="646.4" y="0" fill="#F1CA6B" width="31.3" height="94.8"/>
	<rect x="499.6" y="0" fill="#F1CA6B" width="31.3" height="94.8"/>
	<rect x="548.6" y="0" fill="#F1CA6B" width="31.3" height="94.8"/>
	<rect x="401.7" y="0" fill="#F1CA6B" width="31.3" height="94.8"/>
	<rect x="450.7" y="0" fill="#F1CA6B" width="31.3" height="94.8"/>
</g>
<rect x="221.1" y="322" fill="#A06A5A" width="104.8" height="12.8"/>
<rect x="556.3" y="322" fill="#A06A5A" width="104.8" height="12.8"/>
<path id="ID0.05800373759120703" fill="#C6C1B9" d="M0,233.5h801v57.4H0V233.5z"/>
<polyline fill="#DEB764" points="221.1,360.3 278.2,405.6 391.6,405.6 325.9,360.6 "/>
<polyline fill="#DEB764" points="555.8,360.3 612.8,405.6 726.2,405.6 660.5,360.6 "/>
<polyline fill="#DEB764" points="205.4,359.3 263.8,405.6 232.3,405.6 180.2,359.5 "/>
<polyline fill="#DEB764" points="544.1,359.3 602.5,405.6 571.1,405.6 518.9,359.5 "/>
<path id="ID0.05800373759120703_7_" fill="#F1CA6B" d="M0,203.4h801v17.9H0V203.4z"/>
<path id="ID0.05800373759120703_8_" fill="#F1CA6B" d="M0,152.1h801v6.1H0V152.1z"/>
<polygon fill="#9DBBB0" points="0,0 0,122.9 83.9,122.9 88.4,122.9 89.2,122.9 92.5,25.4 96,122.9 187.1,122.9 187.1,0 "/>
<path fill="#FFFFFF" d="M30.9,20.4c0,0-15.3,21-5.7,46.4C25.1,66.8,40.5,58.9,30.9,20.4z"/>
<path fill="#FFFFFF" d="M50.9,61.4c0,0-3.6,25.8,16.8,43.7C67.7,105.1,77.7,90.7,50.9,61.4z"/>
<line fill="none" stroke="#EA5730" stroke-width="3" stroke-miterlimit="10" x1="68.5" y1="233.5" x2="136.1" y2="290.9"/>
<rect y="426.1" fill="#675C47" width="801" height="68.4"/>
<g>
	<ellipse fill="#040000" cx="187" cy="259.1" rx="49.5" ry="25.9"/>
	<ellipse fill="#FFFFFF" stroke="#040000" stroke-miterlimit="10" cx="186.4" cy="254.4" rx="49.5" ry="25.9"/>
	<path fill="#ABABAB" d="M186.4,238.5c17.1,0,31.1,6.4,31.9,14.5c0-0.3,0.1-0.5,0.1-0.8c0-8.4-14.3-15.2-32-15.2
		c-17.7,0-32,6.8-32,15.2c0,0.3,0.1,0.5,0.1,0.8C155.3,244.9,169.3,238.5,186.4,238.5z"/>
</g>
<g>
	<ellipse fill="#040000" cx="297" cy="259.1" rx="49.5" ry="25.9"/>
	<ellipse fill="#FFFFFF" stroke="#040000" stroke-miterlimit="10" cx="296.4" cy="254.4" rx="49.5" ry="25.9"/>
	<path fill="#ABABAB" d="M296.4,238.5c17.1,0,31.1,6.4,31.9,14.5c0-0.3,0.1-0.5,0.1-0.8c0-8.4-14.3-15.2-32-15.2
		c-17.7,0-32,6.8-32,15.2c0,0.3,0.1,0.5,0.1,0.8C265.3,244.9,279.3,238.5,296.4,238.5z"/>
</g>
<g>
	<ellipse fill="#040000" cx="407" cy="259.1" rx="49.5" ry="25.9"/>
	<ellipse fill="#FFFFFF" stroke="#040000" stroke-miterlimit="10" cx="406.4" cy="254.4" rx="49.5" ry="25.9"/>
	<path fill="#ABABAB" d="M406.4,238.5c17.1,0,31.1,6.4,31.9,14.5c0-0.3,0.1-0.5,0.1-0.8c0-8.4-14.3-15.2-32-15.2
		c-17.7,0-32,6.8-32,15.2c0,0.3,0.1,0.5,0.1,0.8C375.3,244.9,389.3,238.5,406.4,238.5z"/>
</g>
<g>
	<ellipse fill="#040000" cx="517" cy="259.1" rx="49.5" ry="25.9"/>
	<ellipse fill="#FFFFFF" stroke="#040000" stroke-miterlimit="10" cx="516.4" cy="254.4" rx="49.5" ry="25.9"/>
	<path fill="#ABABAB" d="M516.4,238.5c17.1,0,31.1,6.4,31.9,14.5c0-0.3,0.1-0.5,0.1-0.8c0-8.4-14.3-15.2-32-15.2
		c-17.7,0-32,6.8-32,15.2c0,0.3,0.1,0.5,0.1,0.8C485.3,244.9,499.3,238.5,516.4,238.5z"/>
</g>
<g>
	<ellipse fill="#040000" cx="627" cy="259.1" rx="49.5" ry="25.9"/>
	<ellipse fill="#FFFFFF" stroke="#040000" stroke-miterlimit="10" cx="626.4" cy="254.4" rx="49.5" ry="25.9"/>
	<path fill="#ABABAB" d="M626.4,238.5c17.1,0,31.1,6.4,31.9,14.5c0-0.3,0.1-0.5,0.1-0.8c0-8.4-14.3-15.2-32-15.2
		c-17.7,0-32,6.8-32,15.2c0,0.3,0.1,0.5,0.1,0.8C595.3,244.9,609.3,238.5,626.4,238.5z"/>
</g>
<g>
	<ellipse fill="#040000" cx="737" cy="259.1" rx="49.5" ry="25.9"/>
	<ellipse fill="#FFFFFF" stroke="#040000" stroke-miterlimit="10" cx="736.4" cy="254.4" rx="49.5" ry="25.9"/>
	<path fill="#ABABAB" d="M736.4,238.5c17.1,0,31.1,6.4,31.9,14.5c0-0.3,0.1-0.5,0.1-0.8c0-8.4-14.3-15.2-32-15.2
		c-17.7,0-32,6.8-32,15.2c0,0.3,0.1,0.5,0.1,0.8C705.3,244.9,719.3,238.5,736.4,238.5z"/>
</g>
<g>
	<path fill="#040000" d="M145.3,225.1c0,0-2.5,21,0.7,26.5c3.2,5.5,13.3,6.4,19.2,5.9c5.9-0.5,36.2-3.1,36.7-9.4
		c0.5-6.2,1.9-24.6,0-26.6s-13.2-5.6-28.7-5.6S145.7,221.4,145.3,225.1z"/>
	<path fill="#FFFFFF" d="M146.2,226.2c6.4,7.9,19.3,6.7,28.4,5.7c6.3-0.7,11.1-1.5,17.1-3.4c0.8-0.3,10.8-4.8,8.1-6.3
		c-3.9-2.1-9.6-2.4-13.9-2.9c-8.3-0.9-16.8-1-25,0.8c-2.6,0.6-5.2,1.3-7.7,2.3C151.1,223.1,147.4,224.4,146.2,226.2z"/>
	<g>
		<circle fill="#EB6132" stroke="#040000" stroke-miterlimit="10" cx="188.5" cy="215.9" r="5"/>
		<circle fill="#FFFFFF" cx="187" cy="214.3" r="1.7"/>
	</g>
	<g>
		<circle fill="#EB6132" stroke="#040000" stroke-miterlimit="10" cx="194.8" cy="220.6" r="5"/>
		<circle fill="#FFFFFF" cx="193.3" cy="219" r="1.7"/>
	</g>
	<g>
		<circle fill="#EB6132" stroke="#040000" stroke-miterlimit="10" cx="177.5" cy="215.9" r="5"/>
		<circle fill="#FFFFFF" cx="176" cy="214.3" r="1.7"/>
	</g>
	<g>
		<circle fill="#EB6132" stroke="#040000" stroke-miterlimit="10" cx="183.8" cy="220.6" r="5"/>
		<circle fill="#FFFFFF" cx="182.3" cy="219" r="1.7"/>
	</g>
	<g>
		<circle fill="#EB6132" stroke="#040000" stroke-miterlimit="10" cx="168.1" cy="217.5" r="5"/>
		<circle fill="#FFFFFF" cx="166.6" cy="215.9" r="1.7"/>
	</g>
	<g>
		<circle fill="#EB6132" stroke="#040000" stroke-miterlimit="10" cx="174.4" cy="222.2" r="5"/>
		<circle fill="#FFFFFF" cx="172.9" cy="220.6" r="1.7"/>
	</g>
	<g>
		<circle fill="#EB6132" stroke="#040000" stroke-miterlimit="10" cx="157.1" cy="217.5" r="5"/>
		<circle fill="#FFFFFF" cx="155.6" cy="215.9" r="1.7"/>
	</g>
	<g>
		<circle fill="#EB6132" stroke="#040000" stroke-miterlimit="10" cx="163.4" cy="222.2" r="5"/>
		<circle fill="#FFFFFF" cx="161.9" cy="220.6" r="1.7"/>
	</g>
	<g>
		<circle fill="#EB6132" stroke="#040000" stroke-miterlimit="10" cx="152.4" cy="223.7" r="5"/>
		<circle fill="#FFFFFF" cx="150.9" cy="222.2" r="1.7"/>
	</g>
	<g>
		<circle fill="#EB6132" stroke="#040000" stroke-miterlimit="10" cx="168.1" cy="228.5" r="5"/>
		<circle fill="#FFFFFF" cx="166.6" cy="226.9" r="1.7"/>
	</g>
	<g>
		<circle fill="#EB6132" stroke="#040000" stroke-miterlimit="10" cx="158.7" cy="228.5" r="5"/>
		<circle fill="#FFFFFF" cx="157.2" cy="226.9" r="1.7"/>
	</g>
	<g>
		<circle fill="#EB6132" stroke="#040000" stroke-miterlimit="10" cx="179.1" cy="226.9" r="5"/>
		<circle fill="#FFFFFF" cx="177.6" cy="225.3" r="1.7"/>
	</g>
	<g>
		<circle fill="#EB6132" stroke="#040000" stroke-miterlimit="10" cx="190.1" cy="225.3" r="5"/>
		<circle fill="#FFFFFF" cx="188.6" cy="223.7" r="1.7"/>
	</g>
	<circle fill="#FFFFFF" cx="149.1" cy="239.4" r="1.4"/>
	<circle fill="#FFFFFF" cx="160.1" cy="242.5" r="1.4"/>
	<path fill="none" stroke="#FFFFFF" stroke-linecap="round" stroke-linejoin="round" stroke-miterlimit="10" d="M151.9,246.4
		c0,0,1.5-1.9,3.1,1.1"/>
</g>
<g>
	<path fill="#040000" d="M172,237.7c0,0-2.5,21,0.7,26.5s13.3,6.4,19.2,5.9c5.9-0.5,36.2-3.1,36.7-9.4c0.5-6.2,1.9-24.6,0-26.6
		c-1.9-2-13.2-5.6-28.7-5.6S172.4,234,172,237.7z"/>
	<path fill="#FFFFFF" d="M172.9,238.8c6.4,7.9,19.3,6.7,28.4,5.7c6.3-0.7,11.1-1.5,17.1-3.4c0.8-0.3,10.8-4.8,8.1-6.3
		c-3.9-2.1-9.6-2.4-13.9-2.9c-8.3-0.9-16.8-1-25,0.8c-2.6,0.6-5.2,1.3-7.7,2.3C177.8,235.7,174.1,236.9,172.9,238.8z"/>
	<g>
		<circle fill="#EB6132" stroke="#040000" stroke-miterlimit="10" cx="215.2" cy="228.5" r="5"/>
		<circle fill="#FFFFFF" cx="213.7" cy="226.9" r="1.7"/>
	</g>
	<g>
		<circle fill="#EB6132" stroke="#040000" stroke-miterlimit="10" cx="221.5" cy="233.2" r="5"/>
		<circle fill="#FFFFFF" cx="220" cy="231.6" r="1.7"/>
	</g>
	<g>
		<circle fill="#EB6132" stroke="#040000" stroke-miterlimit="10" cx="204.2" cy="228.5" r="5"/>
		<circle fill="#FFFFFF" cx="202.7" cy="226.9" r="1.7"/>
	</g>
	<g>
		<circle fill="#EB6132" stroke="#040000" stroke-miterlimit="10" cx="210.5" cy="233.2" r="5"/>
		<circle fill="#FFFFFF" cx="209" cy="231.6" r="1.7"/>
	</g>
	<g>
		<circle fill="#EB6132" stroke="#040000" stroke-miterlimit="10" cx="194.8" cy="230" r="5"/>
		<circle fill="#FFFFFF" cx="193.3" cy="228.4" r="1.7"/>
	</g>
	<g>
		<circle fill="#EB6132" stroke="#040000" stroke-miterlimit="10" cx="201.1" cy="234.7" r="5"/>
		<circle fill="#FFFFFF" cx="199.6" cy="233.2" r="1.7"/>
	</g>
	<g>
		<circle fill="#EB6132" stroke="#040000" stroke-miterlimit="10" cx="183.8" cy="230" r="5"/>
		<circle fill="#FFFFFF" cx="182.3" cy="228.4" r="1.7"/>
	</g>
	<g>
		<circle fill="#EB6132" stroke="#040000" stroke-miterlimit="10" cx="190.1" cy="234.7" r="5"/>
		<circle fill="#FFFFFF" cx="188.6" cy="233.2" r="1.7"/>
	</g>
	<g>
		<circle fill="#EB6132" stroke="#040000" stroke-miterlimit="10" cx="179.1" cy="236.3" r="5"/>
		<circle fill="#FFFFFF" cx="177.6" cy="234.7" r="1.7"/>
	</g>
	<g>
		<circle fill="#EB6132" stroke="#040000" stroke-miterlimit="10" cx="194.8" cy="241" r="5"/>
		<circle fill="#FFFFFF" cx="193.3" cy="239.4" r="1.7"/>
	</g>
	<g>
		<circle fill="#EB6132" stroke="#040000" stroke-miterlimit="10" cx="185.4" cy="241" r="5"/>
		<circle fill="#FFFFFF" cx="183.9" cy="239.4" r="1.7"/>
	</g>
	<g>
		<circle fill="#EB6132" stroke="#040000" stroke-miterlimit="10" cx="205.8" cy="239.4" r="5"/>
		<circle fill="#FFFFFF" cx="204.3" cy="237.9" r="1.7"/>
	</g>
	<g>
		<circle fill="#EB6132" stroke="#040000" stroke-miterlimit="10" cx="216.8" cy="237.9" r="5"/>
		<circle fill="#FFFFFF" cx="215.3" cy="236.3" r="1.7"/>
	</g>
	<circle fill="#FFFFFF" cx="175.8" cy="251.9" r="1.4"/>
	<circle fill="#FFFFFF" cx="186.8" cy="255.1" r="1.4"/>
	<path fill="none" stroke="#FFFFFF" stroke-linecap="round" stroke-linejoin="round" stroke-miterlimit="10" d="M178.6,259
		c0,0,1.5-1.9,3.1,1.1"/>
</g>
<g>
	<g>
		<path fill="#FFFFFF" d="M309.6,244.7c0,0.4-0.4,0.8-0.5,1.2c0,0.4,0.3,0.9,0.2,1.3c-0.1,0.4-0.6,0.7-0.8,1.1
			c-0.1,0.4,0,0.9-0.2,1.3c-0.2,0.4-0.8,0.5-1,0.8c-0.2,0.3-0.2,0.9-0.5,1.2c-0.3,0.3-0.8,0.3-1.1,0.6c-0.3,0.3-0.3,0.8-0.7,1.1
			c-0.3,0.2-0.9,0.2-1.2,0.4c-0.3,0.2-0.5,0.8-0.8,1c-0.3,0.2-0.9,0-1.3,0.2c-0.4,0.2-0.6,0.7-0.9,0.9c-0.4,0.2-0.9,0-1.3,0.1
			c-0.4,0.1-0.6,0.7-1,0.8c-0.4,0.1-0.9-0.1-1.3,0c-0.4,0.1-0.7,0.6-1.1,0.7c-0.4,0.1-0.9-0.2-1.3-0.1c-0.4,0.1-0.7,0.6-1.1,0.7
			c-0.4,0.1-0.9-0.2-1.3-0.2c-0.4,0.1-0.7,0.5-1.1,0.6c-0.4,0.1-0.9-0.3-1.3-0.2c-0.4,0.1-0.8,0.5-1.2,0.5c-0.4,0-0.9-0.3-1.3-0.3
			c-0.4,0-0.8,0.5-1.2,0.5c-0.4,0-0.8-0.3-1.3-0.3c-0.4,0-0.8,0.4-1.2,0.5c-0.4,0-0.8-0.4-1.2-0.4c-0.4,0-0.8,0.4-1.2,0.4
			c-0.4,0-0.8-0.4-1.2-0.4c-0.4,0-0.8,0.4-1.2,0.4c-0.4,0-0.8-0.4-1.2-0.5c-0.4,0-0.8,0.4-1.3,0.3c-0.4,0-0.8-0.5-1.2-0.5
			c-0.4,0-0.9,0.3-1.3,0.3c-0.4,0-0.8-0.5-1.2-0.5c-0.4-0.1-0.9,0.3-1.3,0.2c-0.4-0.1-0.7-0.5-1.1-0.6c-0.4-0.1-0.9,0.2-1.3,0.2
			c-0.4-0.1-0.7-0.6-1.1-0.7c-0.4-0.1-0.9,0.2-1.3,0.1c-0.4-0.1-0.7-0.6-1.1-0.7c-0.4-0.1-0.9,0.1-1.3,0c-0.4-0.1-0.6-0.7-1-0.8
			c-0.4-0.2-0.9,0.1-1.3-0.1c-0.4-0.2-0.6-0.7-0.9-0.9c-0.4-0.2-0.9,0-1.3-0.2c-0.4-0.2-0.5-0.8-0.8-1c-0.3-0.2-0.9-0.2-1.2-0.4
			c-0.3-0.3-0.4-0.8-0.7-1.1c-0.3-0.3-0.9-0.3-1.1-0.6c-0.3-0.3-0.2-0.9-0.4-1.2c-0.2-0.3-0.8-0.5-1-0.8c-0.2-0.4,0-0.9-0.2-1.3
			c-0.1-0.4-0.7-0.6-0.8-1.1c-0.1-0.4,0.2-0.9,0.2-1.3c0-0.4-0.5-0.8-0.5-1.2c0-0.5,0.4-0.9,0.4-1.4c0-0.5-0.3-1-0.3-1.4
			c0.1-0.5,0.5-0.9,0.6-1.3c0.1-0.5-0.2-1,0-1.4c0.1-0.4,0.7-0.8,0.8-1.2c0.2-0.4,0-1,0.2-1.4c0.2-0.4,0.8-0.6,1-1
			c0.2-0.4,0.1-1,0.4-1.4c0.3-0.4,0.9-0.5,1.2-0.9c0.3-0.4,0.3-1,0.6-1.3c0.3-0.3,0.9-0.4,1.3-0.7c0.3-0.3,0.4-0.9,0.8-1.2
			c0.4-0.3,1-0.2,1.4-0.5c0.4-0.3,0.6-0.8,1-1.1c0.4-0.2,1-0.1,1.4-0.3c0.4-0.2,0.6-0.8,1.1-1c0.4-0.2,1,0,1.4-0.2
			c0.4-0.2,0.7-0.7,1.2-0.9c0.4-0.1,1,0.1,1.4,0c0.4-0.1,0.8-0.6,1.2-0.8c0.4-0.1,1,0.2,1.4,0.1c0.4-0.1,0.8-0.6,1.3-0.7
			c0.4-0.1,1,0.2,1.4,0.2c0.5-0.1,0.9-0.5,1.3-0.6c0.5-0.1,1,0.3,1.4,0.3c0.5,0,0.9-0.5,1.4-0.5c0.5,0,0.9,0.4,1.4,0.3
			c0.5,0,0.9-0.4,1.4-0.4c0.5,0,0.9,0.4,1.4,0.4c0.5,0,0.9-0.4,1.4-0.3c0.5,0,0.9,0.5,1.4,0.5c0.5,0,1-0.3,1.4-0.3
			c0.5,0.1,0.9,0.5,1.3,0.6c0.5,0.1,1-0.3,1.4-0.2c0.5,0.1,0.8,0.6,1.3,0.7c0.5,0.1,1-0.2,1.4-0.1c0.5,0.1,0.8,0.6,1.2,0.8
			c0.4,0.1,1-0.1,1.4,0c0.4,0.2,0.7,0.7,1.2,0.9c0.4,0.2,1,0,1.4,0.2c0.4,0.2,0.7,0.8,1.1,1c0.4,0.2,1,0.1,1.4,0.3
			c0.4,0.2,0.6,0.8,1,1.1c0.4,0.3,1,0.2,1.4,0.5c0.4,0.3,0.5,0.9,0.8,1.2c0.3,0.3,1,0.3,1.3,0.7c0.3,0.3,0.3,0.9,0.6,1.3
			c0.3,0.4,0.9,0.5,1.2,0.9c0.3,0.4,0.2,1,0.4,1.4c0.2,0.4,0.8,0.6,1,1c0.2,0.4,0,1,0.2,1.4c0.2,0.4,0.7,0.7,0.8,1.2
			c0.1,0.4-0.1,1,0,1.4c0.1,0.4,0.6,0.8,0.6,1.3c0.1,0.5-0.3,0.9-0.3,1.4C309.2,243.8,309.6,244.3,309.6,244.7z"/>
		<path fill="none" stroke="#040000" stroke-miterlimit="10" d="M309.6,244.7c0,0.4-0.4,0.8-0.5,1.2c0,0.4,0.3,0.9,0.2,1.3
			c-0.1,0.4-0.6,0.7-0.8,1.1c-0.1,0.4,0,0.9-0.2,1.3c-0.2,0.4-0.8,0.5-1,0.8c-0.2,0.3-0.2,0.9-0.5,1.2c-0.3,0.3-0.8,0.3-1.1,0.6
			c-0.3,0.3-0.3,0.8-0.7,1.1c-0.3,0.2-0.9,0.2-1.2,0.4c-0.3,0.2-0.5,0.8-0.8,1c-0.3,0.2-0.9,0-1.3,0.2c-0.4,0.2-0.6,0.7-0.9,0.9
			c-0.4,0.2-0.9,0-1.3,0.1c-0.4,0.1-0.6,0.7-1,0.8c-0.4,0.1-0.9-0.1-1.3,0c-0.4,0.1-0.7,0.6-1.1,0.7c-0.4,0.1-0.9-0.2-1.3-0.1
			c-0.4,0.1-0.7,0.6-1.1,0.7c-0.4,0.1-0.9-0.2-1.3-0.2c-0.4,0.1-0.7,0.5-1.1,0.6c-0.4,0.1-0.9-0.3-1.3-0.2c-0.4,0.1-0.8,0.5-1.2,0.5
			c-0.4,0-0.9-0.3-1.3-0.3c-0.4,0-0.8,0.5-1.2,0.5c-0.4,0-0.8-0.3-1.3-0.3c-0.4,0-0.8,0.4-1.2,0.5c-0.4,0-0.8-0.4-1.2-0.4
			c-0.4,0-0.8,0.4-1.2,0.4c-0.4,0-0.8-0.4-1.2-0.4c-0.4,0-0.8,0.4-1.2,0.4c-0.4,0-0.8-0.4-1.2-0.5c-0.4,0-0.8,0.4-1.3,0.3
			c-0.4,0-0.8-0.5-1.2-0.5c-0.4,0-0.9,0.3-1.3,0.3c-0.4,0-0.8-0.5-1.2-0.5c-0.4-0.1-0.9,0.3-1.3,0.2c-0.4-0.1-0.7-0.5-1.1-0.6
			c-0.4-0.1-0.9,0.2-1.3,0.2c-0.4-0.1-0.7-0.6-1.1-0.7c-0.4-0.1-0.9,0.2-1.3,0.1c-0.4-0.1-0.7-0.6-1.1-0.7c-0.4-0.1-0.9,0.1-1.3,0
			c-0.4-0.1-0.6-0.7-1-0.8c-0.4-0.2-0.9,0.1-1.3-0.1c-0.4-0.2-0.6-0.7-0.9-0.9c-0.4-0.2-0.9,0-1.3-0.2c-0.4-0.2-0.5-0.8-0.8-1
			c-0.3-0.2-0.9-0.2-1.2-0.4c-0.3-0.3-0.4-0.8-0.7-1.1c-0.3-0.3-0.9-0.3-1.1-0.6c-0.3-0.3-0.2-0.9-0.4-1.2c-0.2-0.3-0.8-0.5-1-0.8
			c-0.2-0.4,0-0.9-0.2-1.3c-0.1-0.4-0.7-0.6-0.8-1.1c-0.1-0.4,0.2-0.9,0.2-1.3c0-0.4-0.5-0.8-0.5-1.2c0-0.5,0.4-0.9,0.4-1.4
			c0-0.5-0.3-1-0.3-1.4c0.1-0.5,0.5-0.9,0.6-1.3c0.1-0.5-0.2-1,0-1.4c0.1-0.4,0.7-0.8,0.8-1.2c0.2-0.4,0-1,0.2-1.4
			c0.2-0.4,0.8-0.6,1-1c0.2-0.4,0.1-1,0.4-1.4c0.3-0.4,0.9-0.5,1.2-0.9c0.3-0.4,0.3-1,0.6-1.3c0.3-0.3,0.9-0.4,1.3-0.7
			c0.3-0.3,0.4-0.9,0.8-1.2c0.4-0.3,1-0.2,1.4-0.5c0.4-0.3,0.6-0.8,1-1.1c0.4-0.2,1-0.1,1.4-0.3c0.4-0.2,0.6-0.8,1.1-1
			c0.4-0.2,1,0,1.4-0.2c0.4-0.2,0.7-0.7,1.2-0.9c0.4-0.1,1,0.1,1.4,0c0.4-0.1,0.8-0.6,1.2-0.8c0.4-0.1,1,0.2,1.4,0.1
			c0.4-0.1,0.8-0.6,1.3-0.7c0.4-0.1,1,0.2,1.4,0.2c0.5-0.1,0.9-0.5,1.3-0.6c0.5-0.1,1,0.3,1.4,0.3c0.5,0,0.9-0.5,1.4-0.5
			c0.5,0,0.9,0.4,1.4,0.3c0.5,0,0.9-0.4,1.4-0.4c0.5,0,0.9,0.4,1.4,0.4c0.5,0,0.9-0.4,1.4-0.3c0.5,0,0.9,0.5,1.4,0.5
			c0.5,0,1-0.3,1.4-0.3c0.5,0.1,0.9,0.5,1.3,0.6c0.5,0.1,1-0.3,1.4-0.2c0.5,0.1,0.8,0.6,1.3,0.7c0.5,0.1,1-0.2,1.4-0.1
			c0.5,0.1,0.8,0.6,1.2,0.8c0.4,0.1,1-0.1,1.4,0c0.4,0.2,0.7,0.7,1.2,0.9c0.4,0.2,1,0,1.4,0.2c0.4,0.2,0.7,0.8,1.1,1
			c0.4,0.2,1,0.1,1.4,0.3c0.4,0.2,0.6,0.8,1,1.1c0.4,0.3,1,0.2,1.4,0.5c0.4,0.3,0.5,0.9,0.8,1.2c0.3,0.3,1,0.3,1.3,0.7
			c0.3,0.3,0.3,0.9,0.6,1.3c0.3,0.4,0.9,0.5,1.2,0.9c0.3,0.4,0.2,1,0.4,1.4c0.2,0.4,0.8,0.6,1,1c0.2,0.4,0,1,0.2,1.4
			c0.2,0.4,0.7,0.7,0.8,1.2c0.1,0.4-0.1,1,0,1.4c0.1,0.4,0.6,0.8,0.6,1.3c0.1,0.5-0.3,0.9-0.3,1.4
			C309.2,243.8,309.6,244.3,309.6,244.7z"/>
	</g>
	<path fill="#EB6255" stroke="#040000" stroke-miterlimit="10" d="M252.6,234.4c0.2,0.4,0.5,0.5,1,0.8c1.6,0.9,3.4,1.7,5.1,2.4
		c6.3,2.5,13,3.9,19.8,3.8c2,0,3.4,0,5.1-1.1c1.4-0.9,2.9-1.8,4.4-2.6c3.9-2.1,8.3-4,12.8-4.1c8.3-0.2,8.9,2.1,9.6-0.1
		c0.7-2.2-4.4-14.4-29-14.4c-8.4,0-23-0.1-27.6,8.9c-0.7,1.5-1.8,4.2-1.3,5.9C252.5,234.1,252.6,234.3,252.6,234.4z"/>
	<circle fill="#040000" cx="257.4" cy="243.9" r="1.4"/>
	<circle fill="#040000" cx="268.4" cy="247" r="1.4"/>
	<path fill="none" stroke="#040000" stroke-linecap="round" stroke-linejoin="round" stroke-miterlimit="10" d="M260.2,250.9
		c0,0,1.5-1.9,3.1,1.1"/>
</g>
<g>
	<g>
		<path fill="#FFFFFF" d="M339.4,255.7c0,0.4-0.4,0.8-0.5,1.2c0,0.4,0.3,0.9,0.2,1.3c-0.1,0.4-0.6,0.7-0.8,1.1
			c-0.1,0.4,0,0.9-0.2,1.3c-0.2,0.4-0.8,0.5-1,0.8c-0.2,0.3-0.2,0.9-0.5,1.2c-0.3,0.3-0.8,0.3-1.1,0.6c-0.3,0.3-0.3,0.8-0.7,1.1
			c-0.3,0.2-0.9,0.2-1.2,0.4c-0.3,0.2-0.5,0.8-0.8,1c-0.3,0.2-0.9,0-1.3,0.2c-0.4,0.2-0.6,0.7-0.9,0.9c-0.4,0.2-0.9,0-1.3,0.1
			c-0.4,0.1-0.6,0.7-1,0.8c-0.4,0.1-0.9-0.1-1.3,0c-0.4,0.1-0.7,0.6-1.1,0.7c-0.4,0.1-0.9-0.2-1.3-0.1c-0.4,0.1-0.7,0.6-1.1,0.7
			c-0.4,0.1-0.9-0.2-1.3-0.2c-0.4,0.1-0.7,0.5-1.1,0.6c-0.4,0.1-0.9-0.3-1.3-0.2c-0.4,0.1-0.8,0.5-1.2,0.5c-0.4,0-0.9-0.3-1.3-0.3
			c-0.4,0-0.8,0.5-1.2,0.5c-0.4,0-0.8-0.3-1.3-0.3c-0.4,0-0.8,0.4-1.2,0.5c-0.4,0-0.8-0.4-1.2-0.4c-0.4,0-0.8,0.4-1.2,0.4
			c-0.4,0-0.8-0.4-1.2-0.4c-0.4,0-0.8,0.4-1.2,0.4c-0.4,0-0.8-0.4-1.2-0.5c-0.4,0-0.8,0.4-1.3,0.3c-0.4,0-0.8-0.5-1.2-0.5
			c-0.4,0-0.9,0.3-1.3,0.3c-0.4,0-0.8-0.5-1.2-0.5c-0.4-0.1-0.9,0.3-1.3,0.2c-0.4-0.1-0.7-0.5-1.1-0.6c-0.4-0.1-0.9,0.2-1.3,0.2
			c-0.4-0.1-0.7-0.6-1.1-0.7c-0.4-0.1-0.9,0.2-1.3,0.1c-0.4-0.1-0.7-0.6-1.1-0.7c-0.4-0.1-0.9,0.1-1.3,0c-0.4-0.1-0.6-0.7-1-0.8
			c-0.4-0.2-0.9,0.1-1.3-0.1c-0.4-0.2-0.6-0.7-0.9-0.9c-0.4-0.2-0.9,0-1.3-0.2c-0.4-0.2-0.5-0.8-0.8-1c-0.3-0.2-0.9-0.2-1.2-0.4
			c-0.3-0.3-0.4-0.8-0.7-1.1c-0.3-0.3-0.9-0.3-1.1-0.6c-0.3-0.3-0.2-0.9-0.4-1.2c-0.2-0.3-0.8-0.5-1-0.8c-0.2-0.4,0-0.9-0.2-1.3
			c-0.1-0.4-0.7-0.6-0.8-1.1c-0.1-0.4,0.2-0.9,0.2-1.3c0-0.4-0.5-0.8-0.5-1.2c0-0.5,0.4-0.9,0.4-1.4c0-0.5-0.3-1-0.3-1.4
			c0.1-0.5,0.5-0.9,0.6-1.3c0.1-0.5-0.2-1,0-1.4c0.1-0.4,0.7-0.8,0.8-1.2c0.2-0.4,0-1,0.2-1.4c0.2-0.4,0.8-0.6,1-1
			c0.2-0.4,0.1-1,0.4-1.4c0.3-0.4,0.9-0.5,1.2-0.9c0.3-0.4,0.3-1,0.6-1.3c0.3-0.3,0.9-0.4,1.3-0.7c0.3-0.3,0.4-0.9,0.8-1.2
			c0.4-0.3,1-0.2,1.4-0.5c0.4-0.3,0.6-0.8,1-1.1c0.4-0.2,1-0.1,1.4-0.3c0.4-0.2,0.6-0.8,1.1-1c0.4-0.2,1,0,1.4-0.2
			c0.4-0.2,0.7-0.7,1.2-0.9c0.4-0.1,1,0.1,1.4,0c0.4-0.1,0.8-0.6,1.2-0.8c0.4-0.1,1,0.2,1.4,0.1c0.4-0.1,0.8-0.6,1.3-0.7
			c0.4-0.1,1,0.2,1.4,0.2c0.5-0.1,0.9-0.5,1.3-0.6c0.5-0.1,1,0.3,1.4,0.3c0.5,0,0.9-0.5,1.4-0.5c0.5,0,0.9,0.4,1.4,0.3
			c0.5,0,0.9-0.4,1.4-0.4c0.5,0,0.9,0.4,1.4,0.4c0.5,0,0.9-0.4,1.4-0.3c0.5,0,0.9,0.5,1.4,0.5c0.5,0,1-0.3,1.4-0.3
			c0.5,0.1,0.9,0.5,1.3,0.6c0.5,0.1,1-0.3,1.4-0.2c0.5,0.1,0.8,0.6,1.3,0.7c0.5,0.1,1-0.2,1.4-0.1c0.5,0.1,0.8,0.6,1.2,0.8
			c0.4,0.1,1-0.1,1.4,0c0.4,0.2,0.7,0.7,1.2,0.9c0.4,0.2,1,0,1.4,0.2c0.4,0.2,0.7,0.8,1.1,1c0.4,0.2,1,0.1,1.4,0.3
			c0.4,0.2,0.6,0.8,1,1.1c0.4,0.3,1,0.2,1.4,0.5c0.4,0.3,0.5,0.9,0.8,1.2c0.3,0.3,1,0.3,1.3,0.7c0.3,0.3,0.3,0.9,0.6,1.3
			c0.3,0.4,0.9,0.5,1.2,0.9c0.3,0.4,0.2,1,0.4,1.4c0.2,0.4,0.8,0.6,1,1c0.2,0.4,0,1,0.2,1.4c0.2,0.4,0.7,0.7,0.8,1.2
			c0.1,0.4-0.1,1,0,1.4c0.1,0.4,0.6,0.8,0.6,1.3c0.1,0.5-0.3,0.9-0.3,1.4C339,254.8,339.4,255.3,339.4,255.7z"/>
		<path fill="none" stroke="#040000" stroke-miterlimit="10" d="M339.4,255.7c0,0.4-0.4,0.8-0.5,1.2c0,0.4,0.3,0.9,0.2,1.3
			c-0.1,0.4-0.6,0.7-0.8,1.1c-0.1,0.4,0,0.9-0.2,1.3c-0.2,0.4-0.8,0.5-1,0.8c-0.2,0.3-0.2,0.9-0.5,1.2c-0.3,0.3-0.8,0.3-1.1,0.6
			c-0.3,0.3-0.3,0.8-0.7,1.1c-0.3,0.2-0.9,0.2-1.2,0.4c-0.3,0.2-0.5,0.8-0.8,1c-0.3,0.2-0.9,0-1.3,0.2c-0.4,0.2-0.6,0.7-0.9,0.9
			c-0.4,0.2-0.9,0-1.3,0.1c-0.4,0.1-0.6,0.7-1,0.8c-0.4,0.1-0.9-0.1-1.3,0c-0.4,0.1-0.7,0.6-1.1,0.7c-0.4,0.1-0.9-0.2-1.3-0.1
			c-0.4,0.1-0.7,0.6-1.1,0.7c-0.4,0.1-0.9-0.2-1.3-0.2c-0.4,0.1-0.7,0.5-1.1,0.6c-0.4,0.1-0.9-0.3-1.3-0.2c-0.4,0.1-0.8,0.5-1.2,0.5
			c-0.4,0-0.9-0.3-1.3-0.3c-0.4,0-0.8,0.5-1.2,0.5c-0.4,0-0.8-0.3-1.3-0.3c-0.4,0-0.8,0.4-1.2,0.5c-0.4,0-0.8-0.4-1.2-0.4
			c-0.4,0-0.8,0.4-1.2,0.4c-0.4,0-0.8-0.4-1.2-0.4c-0.4,0-0.8,0.4-1.2,0.4c-0.4,0-0.8-0.4-1.2-0.5c-0.4,0-0.8,0.4-1.3,0.3
			c-0.4,0-0.8-0.5-1.2-0.5c-0.4,0-0.9,0.3-1.3,0.3c-0.4,0-0.8-0.5-1.2-0.5c-0.4-0.1-0.9,0.3-1.3,0.2c-0.4-0.1-0.7-0.5-1.1-0.6
			c-0.4-0.1-0.9,0.2-1.3,0.2c-0.4-0.1-0.7-0.6-1.1-0.7c-0.4-0.1-0.9,0.2-1.3,0.1c-0.4-0.1-0.7-0.6-1.1-0.7c-0.4-0.1-0.9,0.1-1.3,0
			c-0.4-0.1-0.6-0.7-1-0.8c-0.4-0.2-0.9,0.1-1.3-0.1c-0.4-0.2-0.6-0.7-0.9-0.9c-0.4-0.2-0.9,0-1.3-0.2c-0.4-0.2-0.5-0.8-0.8-1
			c-0.3-0.2-0.9-0.2-1.2-0.4c-0.3-0.3-0.4-0.8-0.7-1.1c-0.3-0.3-0.9-0.3-1.1-0.6c-0.3-0.3-0.2-0.9-0.4-1.2c-0.2-0.3-0.8-0.5-1-0.8
			c-0.2-0.4,0-0.9-0.2-1.3c-0.1-0.4-0.7-0.6-0.8-1.1c-0.1-0.4,0.2-0.9,0.2-1.3c0-0.4-0.5-0.8-0.5-1.2c0-0.5,0.4-0.9,0.4-1.4
			c0-0.5-0.3-1-0.3-1.4c0.1-0.5,0.5-0.9,0.6-1.3c0.1-0.5-0.2-1,0-1.4c0.1-0.4,0.7-0.8,0.8-1.2c0.2-0.4,0-1,0.2-1.4
			c0.2-0.4,0.8-0.6,1-1c0.2-0.4,0.1-1,0.4-1.4c0.3-0.4,0.9-0.5,1.2-0.9c0.3-0.4,0.3-1,0.6-1.3c0.3-0.3,0.9-0.4,1.3-0.7
			c0.3-0.3,0.4-0.9,0.8-1.2c0.4-0.3,1-0.2,1.4-0.5c0.4-0.3,0.6-0.8,1-1.1c0.4-0.2,1-0.1,1.4-0.3c0.4-0.2,0.6-0.8,1.1-1
			c0.4-0.2,1,0,1.4-0.2c0.4-0.2,0.7-0.7,1.2-0.9c0.4-0.1,1,0.1,1.4,0c0.4-0.1,0.8-0.6,1.2-0.8c0.4-0.1,1,0.2,1.4,0.1
			c0.4-0.1,0.8-0.6,1.3-0.7c0.4-0.1,1,0.2,1.4,0.2c0.5-0.1,0.9-0.5,1.3-0.6c0.5-0.1,1,0.3,1.4,0.3c0.5,0,0.9-0.5,1.4-0.5
			c0.5,0,0.9,0.4,1.4,0.3c0.5,0,0.9-0.4,1.4-0.4c0.5,0,0.9,0.4,1.4,0.4c0.5,0,0.9-0.4,1.4-0.3c0.5,0,0.9,0.5,1.4,0.5
			c0.5,0,1-0.3,1.4-0.3c0.5,0.1,0.9,0.5,1.3,0.6c0.5,0.1,1-0.3,1.4-0.2c0.5,0.1,0.8,0.6,1.3,0.7c0.5,0.1,1-0.2,1.4-0.1
			c0.5,0.1,0.8,0.6,1.2,0.8c0.4,0.1,1-0.1,1.4,0c0.4,0.2,0.7,0.7,1.2,0.9c0.4,0.2,1,0,1.4,0.2c0.4,0.2,0.7,0.8,1.1,1
			c0.4,0.2,1,0.1,1.4,0.3c0.4,0.2,0.6,0.8,1,1.1c0.4,0.3,1,0.2,1.4,0.5c0.4,0.3,0.5,0.9,0.8,1.2c0.3,0.3,1,0.3,1.3,0.7
			c0.3,0.3,0.3,0.9,0.6,1.3c0.3,0.4,0.9,0.5,1.2,0.9c0.3,0.4,0.2,1,0.4,1.4c0.2,0.4,0.8,0.6,1,1c0.2,0.4,0,1,0.2,1.4
			c0.2,0.4,0.7,0.7,0.8,1.2c0.1,0.4-0.1,1,0,1.4c0.1,0.4,0.6,0.8,0.6,1.3c0.1,0.5-0.3,0.9-0.3,1.4
			C339,254.8,339.4,255.3,339.4,255.7z"/>
	</g>
	<path fill="#EB6255" stroke="#040000" stroke-miterlimit="10" d="M282.5,245.4c0.2,0.4,0.5,0.5,1,0.8c1.6,0.9,3.4,1.7,5.1,2.4
		c6.3,2.5,13,3.9,19.8,3.8c2,0,3.4,0,5.1-1.1c1.4-0.9,2.9-1.8,4.4-2.6c3.9-2.1,8.3-4,12.8-4.1c8.3-0.2,8.9,2.1,9.6-0.1
		s-4.4-14.4-29-14.4c-8.4,0-23-0.1-27.6,8.9c-0.7,1.5-1.8,4.2-1.3,5.9C282.4,245.1,282.4,245.3,282.5,245.4z"/>
	<circle fill="#040000" cx="287.3" cy="254.9" r="1.4"/>
	<circle fill="#040000" cx="298.3" cy="258" r="1.4"/>
	<path fill="none" stroke="#040000" stroke-linecap="round" stroke-linejoin="round" stroke-miterlimit="10" d="M290.1,261.9
		c0,0,1.5-1.9,3.1,1.1"/>
</g>
<g>
	<g>
		<g>
			<path fill="#FFFFFF" d="M425.1,244.7c0,0.4-0.4,0.8-0.5,1.2c0,0.4,0.3,0.9,0.2,1.3c-0.1,0.4-0.6,0.7-0.8,1.1
				c-0.1,0.4,0,0.9-0.2,1.3c-0.2,0.4-0.8,0.5-1,0.8c-0.2,0.3-0.2,0.9-0.5,1.2c-0.3,0.3-0.8,0.3-1.1,0.6c-0.3,0.3-0.3,0.8-0.7,1.1
				c-0.3,0.2-0.9,0.2-1.2,0.4c-0.3,0.2-0.5,0.8-0.8,1c-0.3,0.2-0.9,0-1.3,0.2c-0.4,0.2-0.6,0.7-0.9,0.9c-0.4,0.2-0.9,0-1.3,0.1
				c-0.4,0.1-0.6,0.7-1,0.8c-0.4,0.1-0.9-0.1-1.3,0c-0.4,0.1-0.7,0.6-1.1,0.7c-0.4,0.1-0.9-0.2-1.3-0.1c-0.4,0.1-0.7,0.6-1.1,0.7
				c-0.4,0.1-0.9-0.2-1.3-0.2c-0.4,0.1-0.7,0.5-1.1,0.6c-0.4,0.1-0.9-0.3-1.3-0.2c-0.4,0.1-0.8,0.5-1.2,0.5c-0.4,0-0.9-0.3-1.3-0.3
				c-0.4,0-0.8,0.5-1.2,0.5c-0.4,0-0.8-0.3-1.3-0.3c-0.4,0-0.8,0.4-1.2,0.5c-0.4,0-0.8-0.4-1.2-0.4c-0.4,0-0.8,0.4-1.2,0.4
				c-0.4,0-0.8-0.4-1.2-0.4c-0.4,0-0.8,0.4-1.2,0.4c-0.4,0-0.8-0.4-1.2-0.5c-0.4,0-0.8,0.4-1.3,0.3c-0.4,0-0.8-0.5-1.2-0.5
				c-0.4,0-0.9,0.3-1.3,0.3c-0.4,0-0.8-0.5-1.2-0.5c-0.4-0.1-0.9,0.3-1.3,0.2c-0.4-0.1-0.7-0.5-1.1-0.6c-0.4-0.1-0.9,0.2-1.3,0.2
				c-0.4-0.1-0.7-0.6-1.1-0.7c-0.4-0.1-0.9,0.2-1.3,0.1c-0.4-0.1-0.7-0.6-1.1-0.7c-0.4-0.1-0.9,0.1-1.3,0c-0.4-0.1-0.6-0.7-1-0.8
				c-0.4-0.2-0.9,0.1-1.3-0.1c-0.4-0.2-0.6-0.7-0.9-0.9c-0.4-0.2-0.9,0-1.3-0.2c-0.4-0.2-0.5-0.8-0.8-1c-0.3-0.2-0.9-0.2-1.2-0.4
				c-0.3-0.3-0.4-0.8-0.7-1.1c-0.3-0.3-0.9-0.3-1.1-0.6c-0.3-0.3-0.2-0.9-0.4-1.2c-0.2-0.3-0.8-0.5-1-0.8c-0.2-0.4,0-0.9-0.2-1.3
				c-0.1-0.4-0.7-0.6-0.8-1.1c-0.1-0.4,0.2-0.9,0.2-1.3c0-0.4-0.5-0.8-0.5-1.2c0-0.5,0.4-0.9,0.4-1.4c0-0.5-0.3-1-0.3-1.4
				c0.1-0.5,0.5-0.9,0.6-1.3c0.1-0.5-0.2-1,0-1.4c0.1-0.4,0.7-0.8,0.8-1.2c0.2-0.4,0-1,0.2-1.4c0.2-0.4,0.8-0.6,1-1
				c0.2-0.4,0.1-1,0.4-1.4c0.3-0.4,0.9-0.5,1.2-0.9c0.3-0.4,0.3-1,0.6-1.3c0.3-0.3,0.9-0.4,1.3-0.7c0.3-0.3,0.4-0.9,0.8-1.2
				c0.4-0.3,1-0.2,1.4-0.5c0.4-0.3,0.6-0.8,1-1.1c0.4-0.2,1-0.1,1.4-0.3c0.4-0.2,0.6-0.8,1.1-1c0.4-0.2,1,0,1.4-0.2
				c0.4-0.2,0.7-0.7,1.2-0.9c0.4-0.1,1,0.1,1.4,0c0.4-0.1,0.8-0.6,1.2-0.8c0.4-0.1,1,0.2,1.4,0.1c0.4-0.1,0.8-0.6,1.3-0.7
				c0.4-0.1,1,0.2,1.4,0.2c0.5-0.1,0.9-0.5,1.3-0.6c0.5-0.1,1,0.3,1.4,0.3c0.5,0,0.9-0.5,1.4-0.5c0.5,0,0.9,0.4,1.4,0.3
				c0.5,0,0.9-0.4,1.4-0.4c0.5,0,0.9,0.4,1.4,0.4c0.5,0,0.9-0.4,1.4-0.3c0.5,0,0.9,0.5,1.4,0.5c0.5,0,1-0.3,1.4-0.3
				c0.5,0.1,0.9,0.5,1.3,0.6c0.5,0.1,1-0.3,1.4-0.2c0.5,0.1,0.8,0.6,1.3,0.7c0.5,0.1,1-0.2,1.4-0.1c0.5,0.1,0.8,0.6,1.2,0.8
				c0.4,0.1,1-0.1,1.4,0c0.4,0.2,0.7,0.7,1.2,0.9c0.4,0.2,1,0,1.4,0.2c0.4,0.2,0.7,0.8,1.1,1c0.4,0.2,1,0.1,1.4,0.3
				c0.4,0.2,0.6,0.8,1,1.1c0.4,0.3,1,0.2,1.4,0.5c0.4,0.3,0.5,0.9,0.8,1.2c0.3,0.3,1,0.3,1.3,0.7c0.3,0.3,0.3,0.9,0.6,1.3
				c0.3,0.4,0.9,0.5,1.2,0.9c0.3,0.4,0.2,1,0.4,1.4c0.2,0.4,0.8,0.6,1,1c0.2,0.4,0,1,0.2,1.4c0.2,0.4,0.7,0.7,0.8,1.2
				c0.1,0.4-0.1,1,0,1.4c0.1,0.4,0.6,0.8,0.6,1.3c0.1,0.5-0.3,0.9-0.3,1.4C424.6,243.8,425.1,244.3,425.1,244.7z"/>
			<path fill="none" stroke="#040000" stroke-miterlimit="10" d="M425.1,244.7c0,0.4-0.4,0.8-0.5,1.2c0,0.4,0.3,0.9,0.2,1.3
				c-0.1,0.4-0.6,0.7-0.8,1.1c-0.1,0.4,0,0.9-0.2,1.3c-0.2,0.4-0.8,0.5-1,0.8c-0.2,0.3-0.2,0.9-0.5,1.2c-0.3,0.3-0.8,0.3-1.1,0.6
				c-0.3,0.3-0.3,0.8-0.7,1.1c-0.3,0.2-0.9,0.2-1.2,0.4c-0.3,0.2-0.5,0.8-0.8,1c-0.3,0.2-0.9,0-1.3,0.2c-0.4,0.2-0.6,0.7-0.9,0.9
				c-0.4,0.2-0.9,0-1.3,0.1c-0.4,0.1-0.6,0.7-1,0.8c-0.4,0.1-0.9-0.1-1.3,0c-0.4,0.1-0.7,0.6-1.1,0.7c-0.4,0.1-0.9-0.2-1.3-0.1
				c-0.4,0.1-0.7,0.6-1.1,0.7c-0.4,0.1-0.9-0.2-1.3-0.2c-0.4,0.1-0.7,0.5-1.1,0.6c-0.4,0.1-0.9-0.3-1.3-0.2
				c-0.4,0.1-0.8,0.5-1.2,0.5c-0.4,0-0.9-0.3-1.3-0.3c-0.4,0-0.8,0.5-1.2,0.5c-0.4,0-0.8-0.3-1.3-0.3c-0.4,0-0.8,0.4-1.2,0.5
				c-0.4,0-0.8-0.4-1.2-0.4c-0.4,0-0.8,0.4-1.2,0.4c-0.4,0-0.8-0.4-1.2-0.4c-0.4,0-0.8,0.4-1.2,0.4c-0.4,0-0.8-0.4-1.2-0.5
				c-0.4,0-0.8,0.4-1.3,0.3c-0.4,0-0.8-0.5-1.2-0.5c-0.4,0-0.9,0.3-1.3,0.3c-0.4,0-0.8-0.5-1.2-0.5c-0.4-0.1-0.9,0.3-1.3,0.2
				c-0.4-0.1-0.7-0.5-1.1-0.6c-0.4-0.1-0.9,0.2-1.3,0.2c-0.4-0.1-0.7-0.6-1.1-0.7c-0.4-0.1-0.9,0.2-1.3,0.1
				c-0.4-0.1-0.7-0.6-1.1-0.7c-0.4-0.1-0.9,0.1-1.3,0c-0.4-0.1-0.6-0.7-1-0.8c-0.4-0.2-0.9,0.1-1.3-0.1c-0.4-0.2-0.6-0.7-0.9-0.9
				c-0.4-0.2-0.9,0-1.3-0.2c-0.4-0.2-0.5-0.8-0.8-1c-0.3-0.2-0.9-0.2-1.2-0.4c-0.3-0.3-0.4-0.8-0.7-1.1c-0.3-0.3-0.9-0.3-1.1-0.6
				c-0.3-0.3-0.2-0.9-0.4-1.2c-0.2-0.3-0.8-0.5-1-0.8c-0.2-0.4,0-0.9-0.2-1.3c-0.1-0.4-0.7-0.6-0.8-1.1c-0.1-0.4,0.2-0.9,0.2-1.3
				c0-0.4-0.5-0.8-0.5-1.2c0-0.5,0.4-0.9,0.4-1.4c0-0.5-0.3-1-0.3-1.4c0.1-0.5,0.5-0.9,0.6-1.3c0.1-0.5-0.2-1,0-1.4
				c0.1-0.4,0.7-0.8,0.8-1.2c0.2-0.4,0-1,0.2-1.4c0.2-0.4,0.8-0.6,1-1c0.2-0.4,0.1-1,0.4-1.4c0.3-0.4,0.9-0.5,1.2-0.9
				c0.3-0.4,0.3-1,0.6-1.3c0.3-0.3,0.9-0.4,1.3-0.7c0.3-0.3,0.4-0.9,0.8-1.2c0.4-0.3,1-0.2,1.4-0.5c0.4-0.3,0.6-0.8,1-1.1
				c0.4-0.2,1-0.1,1.4-0.3c0.4-0.2,0.6-0.8,1.1-1c0.4-0.2,1,0,1.4-0.2c0.4-0.2,0.7-0.7,1.2-0.9c0.4-0.1,1,0.1,1.4,0
				c0.4-0.1,0.8-0.6,1.2-0.8c0.4-0.1,1,0.2,1.4,0.1c0.4-0.1,0.8-0.6,1.3-0.7c0.4-0.1,1,0.2,1.4,0.2c0.5-0.1,0.9-0.5,1.3-0.6
				c0.5-0.1,1,0.3,1.4,0.3c0.5,0,0.9-0.5,1.4-0.5c0.5,0,0.9,0.4,1.4,0.3c0.5,0,0.9-0.4,1.4-0.4c0.5,0,0.9,0.4,1.4,0.4
				c0.5,0,0.9-0.4,1.4-0.3c0.5,0,0.9,0.5,1.4,0.5c0.5,0,1-0.3,1.4-0.3c0.5,0.1,0.9,0.5,1.3,0.6c0.5,0.1,1-0.3,1.4-0.2
				c0.5,0.1,0.8,0.6,1.3,0.7c0.5,0.1,1-0.2,1.4-0.1c0.5,0.1,0.8,0.6,1.2,0.8c0.4,0.1,1-0.1,1.4,0c0.4,0.2,0.7,0.7,1.2,0.9
				c0.4,0.2,1,0,1.4,0.2c0.4,0.2,0.7,0.8,1.1,1c0.4,0.2,1,0.1,1.4,0.3c0.4,0.2,0.6,0.8,1,1.1c0.4,0.3,1,0.2,1.4,0.5
				c0.4,0.3,0.5,0.9,0.8,1.2c0.3,0.3,1,0.3,1.3,0.7c0.3,0.3,0.3,0.9,0.6,1.3c0.3,0.4,0.9,0.5,1.2,0.9c0.3,0.4,0.2,1,0.4,1.4
				c0.2,0.4,0.8,0.6,1,1c0.2,0.4,0,1,0.2,1.4c0.2,0.4,0.7,0.7,0.8,1.2c0.1,0.4-0.1,1,0,1.4c0.1,0.4,0.6,0.8,0.6,1.3
				c0.1,0.5-0.3,0.9-0.3,1.4C424.6,243.8,425.1,244.3,425.1,244.7z"/>
		</g>
		<path fill="#F5CD21" stroke="#040000" stroke-miterlimit="10" d="M368.1,234.4c0.2,0.4,0.5,0.5,1,0.8c1.6,0.9,3.4,1.7,5.1,2.4
			c6.3,2.5,13,3.9,19.8,3.8c2,0,3.4,0,5.1-1.1c1.4-0.9,2.9-1.8,4.4-2.6c3.9-2.1,8.3-4,12.8-4.1c8.3-0.2,8.9,2.1,9.6-0.1
			s-4.4-14.4-29-14.4c-8.4,0-23-0.1-27.6,8.9c-0.7,1.5-1.8,4.2-1.3,5.9C368,234.1,368.1,234.3,368.1,234.4z"/>
		<circle fill="#040000" cx="372.9" cy="243.9" r="1.4"/>
		<circle fill="#040000" cx="383.9" cy="247" r="1.4"/>
		<path fill="none" stroke="#040000" stroke-linecap="round" stroke-linejoin="round" stroke-miterlimit="10" d="M375.7,250.9
			c0,0,1.5-1.9,3.1,1.1"/>
		<path fill="#040000" d="M378,221.2c0,0,10.2-0.1,18.2,2.5c8,2.5,10.8,5.4,11.2,8c0.3,2.5,2.6,23.7-1.4,27.7l9.6-3.5
			c0,0,0.9-22.5-0.4-27.4s-16.5-9.1-26.6-9.4C378.5,218.8,378,221.2,378,221.2z"/>
	</g>
	<g>
		<g>
			<path fill="#FFFFFF" d="M445.1,254.7c0,0.4-0.4,0.8-0.5,1.2c0,0.4,0.3,0.9,0.2,1.3c-0.1,0.4-0.6,0.7-0.8,1.1
				c-0.1,0.4,0,0.9-0.2,1.3c-0.2,0.4-0.8,0.5-1,0.8c-0.2,0.3-0.2,0.9-0.5,1.2c-0.3,0.3-0.8,0.3-1.1,0.6c-0.3,0.3-0.3,0.8-0.7,1.1
				c-0.3,0.2-0.9,0.2-1.2,0.4c-0.3,0.2-0.5,0.8-0.8,1c-0.3,0.2-0.9,0-1.3,0.2c-0.4,0.2-0.6,0.7-0.9,0.9c-0.4,0.2-0.9,0-1.3,0.1
				c-0.4,0.1-0.6,0.7-1,0.8c-0.4,0.1-0.9-0.1-1.3,0c-0.4,0.1-0.7,0.6-1.1,0.7c-0.4,0.1-0.9-0.2-1.3-0.1c-0.4,0.1-0.7,0.6-1.1,0.7
				c-0.4,0.1-0.9-0.2-1.3-0.2c-0.4,0.1-0.7,0.5-1.1,0.6c-0.4,0.1-0.9-0.3-1.3-0.2c-0.4,0.1-0.8,0.5-1.2,0.5c-0.4,0-0.9-0.3-1.3-0.3
				c-0.4,0-0.8,0.5-1.2,0.5c-0.4,0-0.8-0.3-1.3-0.3c-0.4,0-0.8,0.4-1.2,0.5c-0.4,0-0.8-0.4-1.2-0.4c-0.4,0-0.8,0.4-1.2,0.4
				c-0.4,0-0.8-0.4-1.2-0.4c-0.4,0-0.8,0.4-1.2,0.4c-0.4,0-0.8-0.4-1.2-0.5c-0.4,0-0.8,0.4-1.3,0.3c-0.4,0-0.8-0.5-1.2-0.5
				c-0.4,0-0.9,0.3-1.3,0.3c-0.4,0-0.8-0.5-1.2-0.5c-0.4-0.1-0.9,0.3-1.3,0.2c-0.4-0.1-0.7-0.5-1.1-0.6c-0.4-0.1-0.9,0.2-1.3,0.2
				c-0.4-0.1-0.7-0.6-1.1-0.7c-0.4-0.1-0.9,0.2-1.3,0.1c-0.4-0.1-0.7-0.6-1.1-0.7c-0.4-0.1-0.9,0.1-1.3,0c-0.4-0.1-0.6-0.7-1-0.8
				c-0.4-0.2-0.9,0.1-1.3-0.1c-0.4-0.2-0.6-0.7-0.9-0.9c-0.4-0.2-0.9,0-1.3-0.2c-0.4-0.2-0.5-0.8-0.8-1c-0.3-0.2-0.9-0.2-1.2-0.4
				c-0.3-0.3-0.4-0.8-0.7-1.1c-0.3-0.3-0.9-0.3-1.1-0.6c-0.3-0.3-0.2-0.9-0.4-1.2c-0.2-0.3-0.8-0.5-1-0.8c-0.2-0.4,0-0.9-0.2-1.3
				c-0.1-0.4-0.7-0.6-0.8-1.1c-0.1-0.4,0.2-0.9,0.2-1.3c0-0.4-0.5-0.8-0.5-1.2c0-0.5,0.4-0.9,0.4-1.4c0-0.5-0.3-1-0.3-1.4
				c0.1-0.5,0.5-0.9,0.6-1.3c0.1-0.5-0.2-1,0-1.4c0.1-0.4,0.7-0.8,0.8-1.2c0.2-0.4,0-1,0.2-1.4c0.2-0.4,0.8-0.6,1-1
				c0.2-0.4,0.1-1,0.4-1.4c0.3-0.4,0.9-0.5,1.2-0.9c0.3-0.4,0.3-1,0.6-1.3c0.3-0.3,0.9-0.4,1.3-0.7c0.3-0.3,0.4-0.9,0.8-1.2
				c0.4-0.3,1-0.2,1.4-0.5c0.4-0.3,0.6-0.8,1-1.1c0.4-0.2,1-0.1,1.4-0.3c0.4-0.2,0.6-0.8,1.1-1c0.4-0.2,1,0,1.4-0.2
				c0.4-0.2,0.7-0.7,1.2-0.9c0.4-0.1,1,0.1,1.4,0c0.4-0.1,0.8-0.6,1.2-0.8c0.4-0.1,1,0.2,1.4,0.1c0.4-0.1,0.8-0.6,1.3-0.7
				c0.4-0.1,1,0.2,1.4,0.2c0.5-0.1,0.9-0.5,1.3-0.6c0.5-0.1,1,0.3,1.4,0.3c0.5,0,0.9-0.5,1.4-0.5c0.5,0,0.9,0.4,1.4,0.3
				c0.5,0,0.9-0.4,1.4-0.4c0.5,0,0.9,0.4,1.4,0.4c0.5,0,0.9-0.4,1.4-0.3c0.5,0,0.9,0.5,1.4,0.5c0.5,0,1-0.3,1.4-0.3
				c0.5,0.1,0.9,0.5,1.3,0.6c0.5,0.1,1-0.3,1.4-0.2c0.5,0.1,0.8,0.6,1.3,0.7c0.5,0.1,1-0.2,1.4-0.1c0.5,0.1,0.8,0.6,1.2,0.8
				c0.4,0.1,1-0.1,1.4,0c0.4,0.2,0.7,0.7,1.2,0.9c0.4,0.2,1,0,1.4,0.2c0.4,0.2,0.7,0.8,1.1,1c0.4,0.2,1,0.1,1.4,0.3
				c0.4,0.2,0.6,0.8,1,1.1c0.4,0.3,1,0.2,1.4,0.5c0.4,0.3,0.5,0.9,0.8,1.2c0.3,0.3,1,0.3,1.3,0.7c0.3,0.3,0.3,0.9,0.6,1.3
				c0.3,0.4,0.9,0.5,1.2,0.9c0.3,0.4,0.2,1,0.4,1.4c0.2,0.4,0.8,0.6,1,1c0.2,0.4,0,1,0.2,1.4c0.2,0.4,0.7,0.7,0.8,1.2
				c0.1,0.4-0.1,1,0,1.4c0.1,0.4,0.6,0.8,0.6,1.3c0.1,0.5-0.3,0.9-0.3,1.4C444.6,253.8,445.1,254.3,445.1,254.7z"/>
			<path fill="none" stroke="#040000" stroke-miterlimit="10" d="M445.1,254.7c0,0.4-0.4,0.8-0.5,1.2c0,0.4,0.3,0.9,0.2,1.3
				c-0.1,0.4-0.6,0.7-0.8,1.1c-0.1,0.4,0,0.9-0.2,1.3c-0.2,0.4-0.8,0.5-1,0.8c-0.2,0.3-0.2,0.9-0.5,1.2c-0.3,0.3-0.8,0.3-1.1,0.6
				c-0.3,0.3-0.3,0.8-0.7,1.1c-0.3,0.2-0.9,0.2-1.2,0.4c-0.3,0.2-0.5,0.8-0.8,1c-0.3,0.2-0.9,0-1.3,0.2c-0.4,0.2-0.6,0.7-0.9,0.9
				c-0.4,0.2-0.9,0-1.3,0.1c-0.4,0.1-0.6,0.7-1,0.8c-0.4,0.1-0.9-0.1-1.3,0c-0.4,0.1-0.7,0.6-1.1,0.7c-0.4,0.1-0.9-0.2-1.3-0.1
				c-0.4,0.1-0.7,0.6-1.1,0.7c-0.4,0.1-0.9-0.2-1.3-0.2c-0.4,0.1-0.7,0.5-1.1,0.6c-0.4,0.1-0.9-0.3-1.3-0.2
				c-0.4,0.1-0.8,0.5-1.2,0.5c-0.4,0-0.9-0.3-1.3-0.3c-0.4,0-0.8,0.5-1.2,0.5c-0.4,0-0.8-0.3-1.3-0.3c-0.4,0-0.8,0.4-1.2,0.5
				c-0.4,0-0.8-0.4-1.2-0.4c-0.4,0-0.8,0.4-1.2,0.4c-0.4,0-0.8-0.4-1.2-0.4c-0.4,0-0.8,0.4-1.2,0.4c-0.4,0-0.8-0.4-1.2-0.5
				c-0.4,0-0.8,0.4-1.3,0.3c-0.4,0-0.8-0.5-1.2-0.5c-0.4,0-0.9,0.3-1.3,0.3c-0.4,0-0.8-0.5-1.2-0.5c-0.4-0.1-0.9,0.3-1.3,0.2
				c-0.4-0.1-0.7-0.5-1.1-0.6c-0.4-0.1-0.9,0.2-1.3,0.2c-0.4-0.1-0.7-0.6-1.1-0.7c-0.4-0.1-0.9,0.2-1.3,0.1
				c-0.4-0.1-0.7-0.6-1.1-0.7c-0.4-0.1-0.9,0.1-1.3,0c-0.4-0.1-0.6-0.7-1-0.8c-0.4-0.2-0.9,0.1-1.3-0.1c-0.4-0.2-0.6-0.7-0.9-0.9
				c-0.4-0.2-0.9,0-1.3-0.2c-0.4-0.2-0.5-0.8-0.8-1c-0.3-0.2-0.9-0.2-1.2-0.4c-0.3-0.3-0.4-0.8-0.7-1.1c-0.3-0.3-0.9-0.3-1.1-0.6
				c-0.3-0.3-0.2-0.9-0.4-1.2c-0.2-0.3-0.8-0.5-1-0.8c-0.2-0.4,0-0.9-0.2-1.3c-0.1-0.4-0.7-0.6-0.8-1.1c-0.1-0.4,0.2-0.9,0.2-1.3
				c0-0.4-0.5-0.8-0.5-1.2c0-0.5,0.4-0.9,0.4-1.4c0-0.5-0.3-1-0.3-1.4c0.1-0.5,0.5-0.9,0.6-1.3c0.1-0.5-0.2-1,0-1.4
				c0.1-0.4,0.7-0.8,0.8-1.2c0.2-0.4,0-1,0.2-1.4c0.2-0.4,0.8-0.6,1-1c0.2-0.4,0.1-1,0.4-1.4c0.3-0.4,0.9-0.5,1.2-0.9
				c0.3-0.4,0.3-1,0.6-1.3c0.3-0.3,0.9-0.4,1.3-0.7c0.3-0.3,0.4-0.9,0.8-1.2c0.4-0.3,1-0.2,1.4-0.5c0.4-0.3,0.6-0.8,1-1.1
				c0.4-0.2,1-0.1,1.4-0.3c0.4-0.2,0.6-0.8,1.1-1c0.4-0.2,1,0,1.4-0.2c0.4-0.2,0.7-0.7,1.2-0.9c0.4-0.1,1,0.1,1.4,0
				c0.4-0.1,0.8-0.6,1.2-0.8c0.4-0.1,1,0.2,1.4,0.1c0.4-0.1,0.8-0.6,1.3-0.7c0.4-0.1,1,0.2,1.4,0.2c0.5-0.1,0.9-0.5,1.3-0.6
				c0.5-0.1,1,0.3,1.4,0.3c0.5,0,0.9-0.5,1.4-0.5c0.5,0,0.9,0.4,1.4,0.3c0.5,0,0.9-0.4,1.4-0.4c0.5,0,0.9,0.4,1.4,0.4
				c0.5,0,0.9-0.4,1.4-0.3c0.5,0,0.9,0.5,1.4,0.5c0.5,0,1-0.3,1.4-0.3c0.5,0.1,0.9,0.5,1.3,0.6c0.5,0.1,1-0.3,1.4-0.2
				c0.5,0.1,0.8,0.6,1.3,0.7c0.5,0.1,1-0.2,1.4-0.1c0.5,0.1,0.8,0.6,1.2,0.8c0.4,0.1,1-0.1,1.4,0c0.4,0.2,0.7,0.7,1.2,0.9
				c0.4,0.2,1,0,1.4,0.2c0.4,0.2,0.7,0.8,1.1,1c0.4,0.2,1,0.1,1.4,0.3c0.4,0.2,0.6,0.8,1,1.1c0.4,0.3,1,0.2,1.4,0.5
				c0.4,0.3,0.5,0.9,0.8,1.2c0.3,0.3,1,0.3,1.3,0.7c0.3,0.3,0.3,0.9,0.6,1.3c0.3,0.4,0.9,0.5,1.2,0.9c0.3,0.4,0.2,1,0.4,1.4
				c0.2,0.4,0.8,0.6,1,1c0.2,0.4,0,1,0.2,1.4c0.2,0.4,0.7,0.7,0.8,1.2c0.1,0.4-0.1,1,0,1.4c0.1,0.4,0.6,0.8,0.6,1.3
				c0.1,0.5-0.3,0.9-0.3,1.4C444.6,253.8,445.1,254.3,445.1,254.7z"/>
		</g>
		<path fill="#F5CD21" stroke="#040000" stroke-miterlimit="10" d="M388.1,244.4c0.2,0.4,0.5,0.5,1,0.8c1.6,0.9,3.4,1.7,5.1,2.4
			c6.3,2.5,13,3.9,19.8,3.8c2,0,3.4,0,5.1-1.1c1.4-0.9,2.9-1.8,4.4-2.6c3.9-2.1,8.3-4,12.8-4.1c8.3-0.2,8.9,2.1,9.6-0.1
			s-4.4-14.4-29-14.4c-8.4,0-23-0.1-27.6,8.9c-0.7,1.5-1.8,4.2-1.3,5.9C388,244.1,388.1,244.3,388.1,244.4z"/>
		<circle fill="#040000" cx="392.9" cy="253.9" r="1.4"/>
		<circle fill="#040000" cx="403.9" cy="257" r="1.4"/>
		<path fill="none" stroke="#040000" stroke-linecap="round" stroke-linejoin="round" stroke-miterlimit="10" d="M395.7,260.9
			c0,0,1.5-1.9,3.1,1.1"/>
		<path fill="#040000" d="M398,231.2c0,0,10.2-0.1,18.2,2.5c8,2.5,10.8,5.4,11.2,8c0.3,2.5,2.6,23.7-1.4,27.7l9.6-3.5
			c0,0,0.9-22.5-0.4-27.4s-16.5-9.1-26.6-9.4C398.5,228.8,398,231.2,398,231.2z"/>
	</g>
</g>
<g>
	<g>
		<path fill="#FFFFFF" d="M532.3,246.1c0,0.4-0.4,0.8-0.5,1.2c0,0.4,0.3,0.9,0.2,1.3c-0.1,0.4-0.6,0.7-0.8,1.1
			c-0.1,0.4,0,0.9-0.2,1.3c-0.2,0.4-0.8,0.5-1,0.8c-0.2,0.3-0.2,0.9-0.5,1.2c-0.3,0.3-0.8,0.3-1.1,0.6c-0.3,0.3-0.3,0.8-0.7,1.1
			c-0.3,0.2-0.9,0.2-1.2,0.4c-0.3,0.2-0.5,0.8-0.8,1c-0.3,0.2-0.9,0-1.3,0.2c-0.4,0.2-0.6,0.7-0.9,0.9c-0.4,0.2-0.9,0-1.3,0.1
			c-0.4,0.1-0.6,0.7-1,0.8c-0.4,0.1-0.9-0.1-1.3,0c-0.4,0.1-0.7,0.6-1.1,0.7c-0.4,0.1-0.9-0.2-1.3-0.1c-0.4,0.1-0.7,0.6-1.1,0.7
			c-0.4,0.1-0.9-0.2-1.3-0.2c-0.4,0.1-0.7,0.5-1.1,0.6c-0.4,0.1-0.9-0.3-1.3-0.2c-0.4,0.1-0.8,0.5-1.2,0.5c-0.4,0-0.9-0.3-1.3-0.3
			c-0.4,0-0.8,0.5-1.2,0.5c-0.4,0-0.8-0.3-1.3-0.3c-0.4,0-0.8,0.4-1.2,0.5c-0.4,0-0.8-0.4-1.2-0.4c-0.4,0-0.8,0.4-1.2,0.4
			c-0.4,0-0.8-0.4-1.2-0.4c-0.4,0-0.8,0.4-1.2,0.4c-0.4,0-0.8-0.4-1.2-0.5c-0.4,0-0.8,0.4-1.3,0.3c-0.4,0-0.8-0.5-1.2-0.5
			c-0.4,0-0.9,0.3-1.3,0.3c-0.4,0-0.8-0.5-1.2-0.5c-0.4-0.1-0.9,0.3-1.3,0.2c-0.4-0.1-0.7-0.5-1.1-0.6c-0.4-0.1-0.9,0.2-1.3,0.2
			c-0.4-0.1-0.7-0.6-1.1-0.7c-0.4-0.1-0.9,0.2-1.3,0.1c-0.4-0.1-0.7-0.6-1.1-0.7c-0.4-0.1-0.9,0.1-1.3,0c-0.4-0.1-0.6-0.7-1-0.8
			c-0.4-0.2-0.9,0.1-1.3-0.1c-0.4-0.2-0.6-0.7-0.9-0.9c-0.4-0.2-0.9,0-1.3-0.2c-0.4-0.2-0.5-0.8-0.8-1c-0.3-0.2-0.9-0.2-1.2-0.4
			c-0.3-0.3-0.4-0.8-0.7-1.1c-0.3-0.3-0.9-0.3-1.1-0.6c-0.3-0.3-0.2-0.9-0.4-1.2c-0.2-0.3-0.8-0.5-1-0.8c-0.2-0.4,0-0.9-0.2-1.3
			c-0.1-0.4-0.7-0.6-0.8-1.1c-0.1-0.4,0.2-0.9,0.2-1.3c0-0.4-0.5-0.8-0.5-1.2c0-0.5,0.4-0.9,0.4-1.4c0-0.5-0.3-1-0.3-1.4
			c0.1-0.5,0.5-0.9,0.6-1.3c0.1-0.5-0.2-1,0-1.4c0.1-0.4,0.7-0.8,0.8-1.2c0.2-0.4,0-1,0.2-1.4c0.2-0.4,0.8-0.6,1-1
			c0.2-0.4,0.1-1,0.4-1.4c0.3-0.4,0.9-0.5,1.2-0.9c0.3-0.4,0.3-1,0.6-1.3c0.3-0.3,0.9-0.4,1.3-0.7c0.3-0.3,0.4-0.9,0.8-1.2
			c0.4-0.3,1-0.2,1.4-0.5c0.4-0.3,0.6-0.8,1-1.1c0.4-0.2,1-0.1,1.4-0.3c0.4-0.2,0.6-0.8,1.1-1c0.4-0.2,1,0,1.4-0.2
			c0.4-0.2,0.7-0.7,1.2-0.9c0.4-0.1,1,0.1,1.4,0c0.4-0.1,0.8-0.6,1.2-0.8c0.4-0.1,1,0.2,1.4,0.1c0.4-0.1,0.8-0.6,1.3-0.7
			c0.5-0.1,1,0.2,1.4,0.2c0.5-0.1,0.9-0.5,1.3-0.6c0.5-0.1,1,0.3,1.4,0.3c0.5,0,0.9-0.5,1.4-0.5c0.5,0,0.9,0.4,1.4,0.3
			c0.5,0,0.9-0.4,1.4-0.4c0.5,0,0.9,0.4,1.4,0.4c0.5,0,0.9-0.4,1.4-0.3c0.5,0,0.9,0.5,1.4,0.5c0.5,0,1-0.3,1.4-0.3
			c0.5,0.1,0.9,0.5,1.3,0.6c0.5,0.1,1-0.3,1.4-0.2c0.5,0.1,0.8,0.6,1.3,0.7c0.5,0.1,1-0.2,1.4-0.1c0.5,0.1,0.8,0.6,1.2,0.8
			c0.4,0.1,1-0.1,1.4,0c0.4,0.2,0.7,0.7,1.2,0.9c0.4,0.2,1,0,1.4,0.2c0.4,0.2,0.7,0.8,1.1,1c0.4,0.2,1,0.1,1.4,0.3
			c0.4,0.2,0.6,0.8,1,1.1c0.4,0.3,1,0.2,1.4,0.5c0.4,0.3,0.5,0.9,0.8,1.2c0.3,0.3,1,0.3,1.3,0.7c0.3,0.3,0.3,0.9,0.6,1.3
			c0.3,0.4,0.9,0.5,1.2,0.9c0.3,0.4,0.2,1,0.4,1.4c0.2,0.4,0.8,0.6,1,1c0.2,0.4,0,1,0.2,1.4c0.2,0.4,0.7,0.7,0.8,1.2
			c0.1,0.4-0.1,1,0,1.4c0.1,0.4,0.6,0.8,0.6,1.3c0.1,0.5-0.3,0.9-0.3,1.4C531.9,245.2,532.3,245.7,532.3,246.1z"/>
		<path fill="none" stroke="#040000" stroke-miterlimit="10" d="M532.3,246.1c0,0.4-0.4,0.8-0.5,1.2c0,0.4,0.3,0.9,0.2,1.3
			c-0.1,0.4-0.6,0.7-0.8,1.1c-0.1,0.4,0,0.9-0.2,1.3c-0.2,0.4-0.8,0.5-1,0.8c-0.2,0.3-0.2,0.9-0.5,1.2c-0.3,0.3-0.8,0.3-1.1,0.6
			c-0.3,0.3-0.3,0.8-0.7,1.1c-0.3,0.2-0.9,0.2-1.2,0.4c-0.3,0.2-0.5,0.8-0.8,1c-0.3,0.2-0.9,0-1.3,0.2c-0.4,0.2-0.6,0.7-0.9,0.9
			c-0.4,0.2-0.9,0-1.3,0.1c-0.4,0.1-0.6,0.7-1,0.8c-0.4,0.1-0.9-0.1-1.3,0c-0.4,0.1-0.7,0.6-1.1,0.7c-0.4,0.1-0.9-0.2-1.3-0.1
			c-0.4,0.1-0.7,0.6-1.1,0.7c-0.4,0.1-0.9-0.2-1.3-0.2c-0.4,0.1-0.7,0.5-1.1,0.6c-0.4,0.1-0.9-0.3-1.3-0.2c-0.4,0.1-0.8,0.5-1.2,0.5
			c-0.4,0-0.9-0.3-1.3-0.3c-0.4,0-0.8,0.5-1.2,0.5c-0.4,0-0.8-0.3-1.3-0.3c-0.4,0-0.8,0.4-1.2,0.5c-0.4,0-0.8-0.4-1.2-0.4
			c-0.4,0-0.8,0.4-1.2,0.4c-0.4,0-0.8-0.4-1.2-0.4c-0.4,0-0.8,0.4-1.2,0.4c-0.4,0-0.8-0.4-1.2-0.5c-0.4,0-0.8,0.4-1.3,0.3
			c-0.4,0-0.8-0.5-1.2-0.5c-0.4,0-0.9,0.3-1.3,0.3c-0.4,0-0.8-0.5-1.2-0.5c-0.4-0.1-0.9,0.3-1.3,0.2c-0.4-0.1-0.7-0.5-1.1-0.6
			c-0.4-0.1-0.9,0.2-1.3,0.2c-0.4-0.1-0.7-0.6-1.1-0.7c-0.4-0.1-0.9,0.2-1.3,0.1c-0.4-0.1-0.7-0.6-1.1-0.7c-0.4-0.1-0.9,0.1-1.3,0
			c-0.4-0.1-0.6-0.7-1-0.8c-0.4-0.2-0.9,0.1-1.3-0.1c-0.4-0.2-0.6-0.7-0.9-0.9c-0.4-0.2-0.9,0-1.3-0.2c-0.4-0.2-0.5-0.8-0.8-1
			c-0.3-0.2-0.9-0.2-1.2-0.4c-0.3-0.3-0.4-0.8-0.7-1.1c-0.3-0.3-0.9-0.3-1.1-0.6c-0.3-0.3-0.2-0.9-0.4-1.2c-0.2-0.3-0.8-0.5-1-0.8
			c-0.2-0.4,0-0.9-0.2-1.3c-0.1-0.4-0.7-0.6-0.8-1.1c-0.1-0.4,0.2-0.9,0.2-1.3c0-0.4-0.5-0.8-0.5-1.2c0-0.5,0.4-0.9,0.4-1.4
			c0-0.5-0.3-1-0.3-1.4c0.1-0.5,0.5-0.9,0.6-1.3c0.1-0.5-0.2-1,0-1.4c0.1-0.4,0.7-0.8,0.8-1.2c0.2-0.4,0-1,0.2-1.4
			c0.2-0.4,0.8-0.6,1-1c0.2-0.4,0.1-1,0.4-1.4c0.3-0.4,0.9-0.5,1.2-0.9c0.3-0.4,0.3-1,0.6-1.3c0.3-0.3,0.9-0.4,1.3-0.7
			c0.3-0.3,0.4-0.9,0.8-1.2c0.4-0.3,1-0.2,1.4-0.5c0.4-0.3,0.6-0.8,1-1.1c0.4-0.2,1-0.1,1.4-0.3c0.4-0.2,0.6-0.8,1.1-1
			c0.4-0.2,1,0,1.4-0.2c0.4-0.2,0.7-0.7,1.2-0.9c0.4-0.1,1,0.1,1.4,0c0.4-0.1,0.8-0.6,1.2-0.8c0.4-0.1,1,0.2,1.4,0.1
			c0.4-0.1,0.8-0.6,1.3-0.7c0.5-0.1,1,0.2,1.4,0.2c0.5-0.1,0.9-0.5,1.3-0.6c0.5-0.1,1,0.3,1.4,0.3c0.5,0,0.9-0.5,1.4-0.5
			c0.5,0,0.9,0.4,1.4,0.3c0.5,0,0.9-0.4,1.4-0.4c0.5,0,0.9,0.4,1.4,0.4c0.5,0,0.9-0.4,1.4-0.3c0.5,0,0.9,0.5,1.4,0.5
			c0.5,0,1-0.3,1.4-0.3c0.5,0.1,0.9,0.5,1.3,0.6c0.5,0.1,1-0.3,1.4-0.2c0.5,0.1,0.8,0.6,1.3,0.7c0.5,0.1,1-0.2,1.4-0.1
			c0.5,0.1,0.8,0.6,1.2,0.8c0.4,0.1,1-0.1,1.4,0c0.4,0.2,0.7,0.7,1.2,0.9c0.4,0.2,1,0,1.4,0.2c0.4,0.2,0.7,0.8,1.1,1
			c0.4,0.2,1,0.1,1.4,0.3c0.4,0.2,0.6,0.8,1,1.1c0.4,0.3,1,0.2,1.4,0.5c0.4,0.3,0.5,0.9,0.8,1.2c0.3,0.3,1,0.3,1.3,0.7
			c0.3,0.3,0.3,0.9,0.6,1.3c0.3,0.4,0.9,0.5,1.2,0.9c0.3,0.4,0.2,1,0.4,1.4c0.2,0.4,0.8,0.6,1,1c0.2,0.4,0,1,0.2,1.4
			c0.2,0.4,0.7,0.7,0.8,1.2c0.1,0.4-0.1,1,0,1.4c0.1,0.4,0.6,0.8,0.6,1.3c0.1,0.5-0.3,0.9-0.3,1.4
			C531.9,245.2,532.3,245.7,532.3,246.1z"/>
	</g>
	<g>
		<path fill="#EB6132" stroke="#040000" stroke-miterlimit="10" d="M525.3,225.4c0,0,9.6-10.8,18.9-10.4c1.7,0.1,6.5,0.3,6.3,3.1
			c0,0.4-0.2,0.8-0.4,1.1c-0.4,0.7-1.3,0.9-2,1.2c-0.5,0.2-1.1,0.4-1.6,0.6c-1.4,0.5-2.8,1.1-4.2,1.6c-3.1,1.2-6.2,2.4-9.3,3.6
			c-1.5,0.6-2.9,1.1-4.4,1.7"/>
		<path fill="#EB6132" stroke="#040000" stroke-miterlimit="10" d="M528.9,228.1c0,0,25.1-10.7,28.8-7.4c3.7,3.3,2.7,8.7-26.3,11"/>
	</g>
	<path fill="#FFFFFF" stroke="#040000" stroke-miterlimit="10" d="M475.4,235.8c0.2,0.4,0.5,0.5,1,0.8c1.6,0.9,3.4,1.7,5.1,2.4
		c6.3,2.5,13,3.9,19.8,3.8c2,0,3.4,0,5.1-1.1c1.4-0.9,2.9-1.8,4.4-2.6c3.9-2.1,8.3-4,12.8-4.1c8.3-0.2,8.9,2.1,9.6-0.1
		c0.7-2.2-4.4-14.4-29-14.4c-8.4,0-23-0.1-27.6,8.9c-0.7,1.5-1.8,4.2-1.3,5.9C475.3,235.5,475.3,235.7,475.4,235.8z"/>
	<circle fill="#040000" cx="480.2" cy="245.3" r="1.4"/>
	<circle fill="#040000" cx="491.1" cy="248.4" r="1.4"/>
	<path fill="none" stroke="#040000" stroke-linecap="round" stroke-linejoin="round" stroke-miterlimit="10" d="M483,252.3
		c0,0,1.5-1.9,3.1,1.1"/>
	<path fill="none" stroke="#040000" stroke-miterlimit="10" d="M475.4,235.8c0.2,0.4,0.5,0.5,1,0.8c1.6,0.9,3.4,1.7,5.1,2.4
		c6.3,2.5,13,3.9,19.8,3.8c2,0,3.4,0,5.1-1.1c1.4-0.9,2.9-1.8,4.4-2.6c3.9-2.1,8.3-4,12.8-4.1c8.3-0.2,8.9,2.1,9.6-0.1
		c0.7-2.2-4.4-14.4-29-14.4c-8.4,0-23-0.1-27.6,8.9c-0.7,1.5-1.8,4.2-1.3,5.9C475.3,235.5,475.3,235.7,475.4,235.8z"/>
	<path fill="none" stroke="#EB6132" stroke-linecap="round" stroke-linejoin="round" stroke-miterlimit="10" d="M483.9,238
		c0,0,4.3-20.8,39.5-12.2"/>
	<path fill="none" stroke="#EB6132" stroke-width="2" stroke-linecap="round" stroke-linejoin="round" stroke-miterlimit="10" d="
		M478.8,230.2c0,0,3.8-3.5,7.6,2.5c0,0,10.6-4.9,16.4,3.7"/>
	<path fill="none" stroke="#EB6132" stroke-width="2" stroke-linecap="round" stroke-linejoin="round" stroke-miterlimit="10" d="
		M485.4,224.6c0,0,5.5-2.9,8.1,2.2c0,0,10.7-5.9,19.5,5.8"/>
	<path fill="none" stroke="#EB6132" stroke-linecap="round" stroke-linejoin="round" stroke-miterlimit="10" d="M520.9,225.3
		c0,0,4.5,1.1,6.4,5.6"/>
	<path fill="none" stroke="#EB6132" stroke-linecap="round" stroke-linejoin="round" stroke-miterlimit="10" d="M509.8,223.7
		c0,0,7.9,0.5,10.4,8"/>
	<g>
		<path fill="#FFFFFF" d="M552.3,256.1c0,0.4-0.4,0.8-0.5,1.2c0,0.4,0.3,0.9,0.2,1.3c-0.1,0.4-0.6,0.7-0.8,1.1
			c-0.1,0.4,0,0.9-0.2,1.3c-0.2,0.4-0.8,0.5-1,0.8c-0.2,0.3-0.2,0.9-0.5,1.2c-0.3,0.3-0.8,0.3-1.1,0.6c-0.3,0.3-0.3,0.8-0.7,1.1
			c-0.3,0.2-0.9,0.2-1.2,0.4c-0.3,0.2-0.5,0.8-0.8,1c-0.3,0.2-0.9,0-1.3,0.2c-0.4,0.2-0.6,0.7-0.9,0.9c-0.4,0.2-0.9,0-1.3,0.1
			c-0.4,0.1-0.6,0.7-1,0.8c-0.4,0.1-0.9-0.1-1.3,0c-0.4,0.1-0.7,0.6-1.1,0.7c-0.4,0.1-0.9-0.2-1.3-0.1c-0.4,0.1-0.7,0.6-1.1,0.7
			c-0.4,0.1-0.9-0.2-1.3-0.2c-0.4,0.1-0.7,0.5-1.1,0.6c-0.4,0.1-0.9-0.3-1.3-0.2c-0.4,0.1-0.8,0.5-1.2,0.5c-0.4,0-0.9-0.3-1.3-0.3
			c-0.4,0-0.8,0.5-1.2,0.5c-0.4,0-0.8-0.3-1.3-0.3c-0.4,0-0.8,0.4-1.2,0.5c-0.4,0-0.8-0.4-1.2-0.4c-0.4,0-0.8,0.4-1.2,0.4
			c-0.4,0-0.8-0.4-1.2-0.4c-0.4,0-0.8,0.4-1.2,0.4c-0.4,0-0.8-0.4-1.2-0.5c-0.4,0-0.8,0.4-1.3,0.3c-0.4,0-0.8-0.5-1.2-0.5
			c-0.4,0-0.9,0.3-1.3,0.3c-0.4,0-0.8-0.5-1.2-0.5c-0.4-0.1-0.9,0.3-1.3,0.2c-0.4-0.1-0.7-0.5-1.1-0.6c-0.4-0.1-0.9,0.2-1.3,0.2
			c-0.4-0.1-0.7-0.6-1.1-0.7c-0.4-0.1-0.9,0.2-1.3,0.1c-0.4-0.1-0.7-0.6-1.1-0.7c-0.4-0.1-0.9,0.1-1.3,0c-0.4-0.1-0.6-0.7-1-0.8
			c-0.4-0.2-0.9,0.1-1.3-0.1c-0.4-0.2-0.6-0.7-0.9-0.9c-0.4-0.2-0.9,0-1.3-0.2c-0.4-0.2-0.5-0.8-0.8-1c-0.3-0.2-0.9-0.2-1.2-0.4
			c-0.3-0.3-0.4-0.8-0.7-1.1c-0.3-0.3-0.9-0.3-1.1-0.6c-0.3-0.3-0.2-0.9-0.4-1.2c-0.2-0.3-0.8-0.5-1-0.8c-0.2-0.4,0-0.9-0.2-1.3
			c-0.1-0.4-0.7-0.6-0.8-1.1c-0.1-0.4,0.2-0.9,0.2-1.3c0-0.4-0.5-0.8-0.5-1.2c0-0.5,0.4-0.9,0.4-1.4c0-0.5-0.3-1-0.3-1.4
			c0.1-0.5,0.5-0.9,0.6-1.3c0.1-0.5-0.2-1,0-1.4c0.1-0.4,0.7-0.8,0.8-1.2c0.2-0.4,0-1,0.2-1.4c0.2-0.4,0.8-0.6,1-1
			c0.2-0.4,0.1-1,0.4-1.4c0.3-0.4,0.9-0.5,1.2-0.9c0.3-0.4,0.3-1,0.6-1.3c0.3-0.3,0.9-0.4,1.3-0.7c0.3-0.3,0.4-0.9,0.8-1.2
			c0.4-0.3,1-0.2,1.4-0.5c0.4-0.3,0.6-0.8,1-1.1c0.4-0.2,1-0.1,1.4-0.3c0.4-0.2,0.6-0.8,1.1-1c0.4-0.2,1,0,1.4-0.2
			c0.4-0.2,0.7-0.7,1.2-0.9c0.4-0.1,1,0.1,1.4,0c0.4-0.1,0.8-0.6,1.2-0.8c0.4-0.1,1,0.2,1.4,0.1c0.4-0.1,0.8-0.6,1.3-0.7
			c0.5-0.1,1,0.2,1.4,0.2c0.5-0.1,0.9-0.5,1.3-0.6c0.5-0.1,1,0.3,1.4,0.3c0.5,0,0.9-0.5,1.4-0.5c0.5,0,0.9,0.4,1.4,0.3
			c0.5,0,0.9-0.4,1.4-0.4c0.5,0,0.9,0.4,1.4,0.4c0.5,0,0.9-0.4,1.4-0.3c0.5,0,0.9,0.5,1.4,0.5c0.5,0,1-0.3,1.4-0.3
			c0.5,0.1,0.9,0.5,1.3,0.6c0.5,0.1,1-0.3,1.4-0.2c0.5,0.1,0.8,0.6,1.3,0.7c0.5,0.1,1-0.2,1.4-0.1c0.5,0.1,0.8,0.6,1.2,0.8
			c0.4,0.1,1-0.1,1.4,0c0.4,0.2,0.7,0.7,1.2,0.9c0.4,0.2,1,0,1.4,0.2c0.4,0.2,0.7,0.8,1.1,1c0.4,0.2,1,0.1,1.4,0.3
			c0.4,0.2,0.6,0.8,1,1.1c0.4,0.3,1,0.2,1.4,0.5c0.4,0.3,0.5,0.9,0.8,1.2c0.3,0.3,1,0.3,1.3,0.7c0.3,0.3,0.3,0.9,0.6,1.3
			c0.3,0.4,0.9,0.5,1.2,0.9c0.3,0.4,0.2,1,0.4,1.4c0.2,0.4,0.8,0.6,1,1c0.2,0.4,0,1,0.2,1.4c0.2,0.4,0.7,0.7,0.8,1.2
			c0.1,0.4-0.1,1,0,1.4c0.1,0.4,0.6,0.8,0.6,1.3c0.1,0.5-0.3,0.9-0.3,1.4C551.9,255.2,552.3,255.7,552.3,256.1z"/>
		<path fill="none" stroke="#040000" stroke-miterlimit="10" d="M552.3,256.1c0,0.4-0.4,0.8-0.5,1.2c0,0.4,0.3,0.9,0.2,1.3
			c-0.1,0.4-0.6,0.7-0.8,1.1c-0.1,0.4,0,0.9-0.2,1.3c-0.2,0.4-0.8,0.5-1,0.8c-0.2,0.3-0.2,0.9-0.5,1.2c-0.3,0.3-0.8,0.3-1.1,0.6
			c-0.3,0.3-0.3,0.8-0.7,1.1c-0.3,0.2-0.9,0.2-1.2,0.4c-0.3,0.2-0.5,0.8-0.8,1c-0.3,0.2-0.9,0-1.3,0.2c-0.4,0.2-0.6,0.7-0.9,0.9
			c-0.4,0.2-0.9,0-1.3,0.1c-0.4,0.1-0.6,0.7-1,0.8c-0.4,0.1-0.9-0.1-1.3,0c-0.4,0.1-0.7,0.6-1.1,0.7c-0.4,0.1-0.9-0.2-1.3-0.1
			c-0.4,0.1-0.7,0.6-1.1,0.7c-0.4,0.1-0.9-0.2-1.3-0.2c-0.4,0.1-0.7,0.5-1.1,0.6c-0.4,0.1-0.9-0.3-1.3-0.2c-0.4,0.1-0.8,0.5-1.2,0.5
			c-0.4,0-0.9-0.3-1.3-0.3c-0.4,0-0.8,0.5-1.2,0.5c-0.4,0-0.8-0.3-1.3-0.3c-0.4,0-0.8,0.4-1.2,0.5c-0.4,0-0.8-0.4-1.2-0.4
			c-0.4,0-0.8,0.4-1.2,0.4c-0.4,0-0.8-0.4-1.2-0.4c-0.4,0-0.8,0.4-1.2,0.4c-0.4,0-0.8-0.4-1.2-0.5c-0.4,0-0.8,0.4-1.3,0.3
			c-0.4,0-0.8-0.5-1.2-0.5c-0.4,0-0.9,0.3-1.3,0.3c-0.4,0-0.8-0.5-1.2-0.5c-0.4-0.1-0.9,0.3-1.3,0.2c-0.4-0.1-0.7-0.5-1.1-0.6
			c-0.4-0.1-0.9,0.2-1.3,0.2c-0.4-0.1-0.7-0.6-1.1-0.7c-0.4-0.1-0.9,0.2-1.3,0.1c-0.4-0.1-0.7-0.6-1.1-0.7c-0.4-0.1-0.9,0.1-1.3,0
			c-0.4-0.1-0.6-0.7-1-0.8c-0.4-0.2-0.9,0.1-1.3-0.1c-0.4-0.2-0.6-0.7-0.9-0.9c-0.4-0.2-0.9,0-1.3-0.2c-0.4-0.2-0.5-0.8-0.8-1
			c-0.3-0.2-0.9-0.2-1.2-0.4c-0.3-0.3-0.4-0.8-0.7-1.1c-0.3-0.3-0.9-0.3-1.1-0.6c-0.3-0.3-0.2-0.9-0.4-1.2c-0.2-0.3-0.8-0.5-1-0.8
			c-0.2-0.4,0-0.9-0.2-1.3c-0.1-0.4-0.7-0.6-0.8-1.1c-0.1-0.4,0.2-0.9,0.2-1.3c0-0.4-0.5-0.8-0.5-1.2c0-0.5,0.4-0.9,0.4-1.4
			c0-0.5-0.3-1-0.3-1.4c0.1-0.5,0.5-0.9,0.6-1.3c0.1-0.5-0.2-1,0-1.4c0.1-0.4,0.7-0.8,0.8-1.2c0.2-0.4,0-1,0.2-1.4
			c0.2-0.4,0.8-0.6,1-1c0.2-0.4,0.1-1,0.4-1.4c0.3-0.4,0.9-0.5,1.2-0.9c0.3-0.4,0.3-1,0.6-1.3c0.3-0.3,0.9-0.4,1.3-0.7
			c0.3-0.3,0.4-0.9,0.8-1.2c0.4-0.3,1-0.2,1.4-0.5c0.4-0.3,0.6-0.8,1-1.1c0.4-0.2,1-0.1,1.4-0.3c0.4-0.2,0.6-0.8,1.1-1
			c0.4-0.2,1,0,1.4-0.2c0.4-0.2,0.7-0.7,1.2-0.9c0.4-0.1,1,0.1,1.4,0c0.4-0.1,0.8-0.6,1.2-0.8c0.4-0.1,1,0.2,1.4,0.1
			c0.4-0.1,0.8-0.6,1.3-0.7c0.5-0.1,1,0.2,1.4,0.2c0.5-0.1,0.9-0.5,1.3-0.6c0.5-0.1,1,0.3,1.4,0.3c0.5,0,0.9-0.5,1.4-0.5
			c0.5,0,0.9,0.4,1.4,0.3c0.5,0,0.9-0.4,1.4-0.4c0.5,0,0.9,0.4,1.4,0.4c0.5,0,0.9-0.4,1.4-0.3c0.5,0,0.9,0.5,1.4,0.5
			c0.5,0,1-0.3,1.4-0.3c0.5,0.1,0.9,0.5,1.3,0.6c0.5,0.1,1-0.3,1.4-0.2c0.5,0.1,0.8,0.6,1.3,0.7c0.5,0.1,1-0.2,1.4-0.1
			c0.5,0.1,0.8,0.6,1.2,0.8c0.4,0.1,1-0.1,1.4,0c0.4,0.2,0.7,0.7,1.2,0.9c0.4,0.2,1,0,1.4,0.2c0.4,0.2,0.7,0.8,1.1,1
			c0.4,0.2,1,0.1,1.4,0.3c0.4,0.2,0.6,0.8,1,1.1c0.4,0.3,1,0.2,1.4,0.5c0.4,0.3,0.5,0.9,0.8,1.2c0.3,0.3,1,0.3,1.3,0.7
			c0.3,0.3,0.3,0.9,0.6,1.3c0.3,0.4,0.9,0.5,1.2,0.9c0.3,0.4,0.2,1,0.4,1.4c0.2,0.4,0.8,0.6,1,1c0.2,0.4,0,1,0.2,1.4
			c0.2,0.4,0.7,0.7,0.8,1.2c0.1,0.4-0.1,1,0,1.4c0.1,0.4,0.6,0.8,0.6,1.3c0.1,0.5-0.3,0.9-0.3,1.4
			C551.9,255.2,552.3,255.7,552.3,256.1z"/>
	</g>
	<g>
		<path fill="#EB6132" stroke="#040000" stroke-miterlimit="10" d="M545.3,235.4c0,0,9.6-10.8,18.9-10.4c1.7,0.1,6.5,0.3,6.3,3.1
			c0,0.4-0.2,0.8-0.4,1.1c-0.4,0.7-1.3,0.9-2,1.2c-0.5,0.2-1.1,0.4-1.6,0.6c-1.4,0.5-2.8,1.1-4.2,1.6c-3.1,1.2-6.2,2.4-9.3,3.6
			c-1.5,0.6-2.9,1.1-4.4,1.7"/>
		<path fill="#EB6132" stroke="#040000" stroke-miterlimit="10" d="M548.9,238.1c0,0,25.1-10.7,28.8-7.4c3.7,3.3,2.7,8.7-26.3,11"/>
	</g>
	<path fill="#FFFFFF" stroke="#040000" stroke-miterlimit="10" d="M495.4,245.8c0.2,0.4,0.5,0.5,1,0.8c1.6,0.9,3.4,1.7,5.1,2.4
		c6.3,2.5,13,3.9,19.8,3.8c2,0,3.4,0,5.1-1.1c1.4-0.9,2.9-1.8,4.4-2.6c3.9-2.1,8.3-4,12.8-4.1c8.3-0.2,8.9,2.1,9.6-0.1
		c0.7-2.2-4.4-14.4-29-14.4c-8.4,0-23-0.1-27.6,8.9c-0.7,1.5-1.8,4.2-1.3,5.9C495.3,245.5,495.3,245.7,495.4,245.8z"/>
	<circle fill="#040000" cx="500.2" cy="255.3" r="1.4"/>
	<circle fill="#040000" cx="511.1" cy="258.4" r="1.4"/>
	<path fill="none" stroke="#040000" stroke-linecap="round" stroke-linejoin="round" stroke-miterlimit="10" d="M503,262.3
		c0,0,1.5-1.9,3.1,1.1"/>
	<path fill="none" stroke="#040000" stroke-miterlimit="10" d="M495.4,245.8c0.2,0.4,0.5,0.5,1,0.8c1.6,0.9,3.4,1.7,5.1,2.4
		c6.3,2.5,13,3.9,19.8,3.8c2,0,3.4,0,5.1-1.1c1.4-0.9,2.9-1.8,4.4-2.6c3.9-2.1,8.3-4,12.8-4.1c8.3-0.2,8.9,2.1,9.6-0.1
		c0.7-2.2-4.4-14.4-29-14.4c-8.4,0-23-0.1-27.6,8.9c-0.7,1.5-1.8,4.2-1.3,5.9C495.3,245.5,495.3,245.7,495.4,245.8z"/>
	<path fill="none" stroke="#EB6132" stroke-linecap="round" stroke-linejoin="round" stroke-miterlimit="10" d="M503.9,248
		c0,0,4.3-20.8,39.5-12.2"/>
	<path fill="none" stroke="#EB6132" stroke-width="2" stroke-linecap="round" stroke-linejoin="round" stroke-miterlimit="10" d="
		M498.8,240.2c0,0,3.8-3.5,7.6,2.5c0,0,10.6-4.9,16.4,3.7"/>
	<path fill="none" stroke="#EB6132" stroke-width="2" stroke-linecap="round" stroke-linejoin="round" stroke-miterlimit="10" d="
		M505.4,234.6c0,0,5.5-2.9,8.1,2.2c0,0,10.7-5.9,19.5,5.8"/>
	<path fill="none" stroke="#EB6132" stroke-linecap="round" stroke-linejoin="round" stroke-miterlimit="10" d="M540.9,235.3
		c0,0,4.5,1.1,6.4,5.6"/>
	<path fill="none" stroke="#EB6132" stroke-linecap="round" stroke-linejoin="round" stroke-miterlimit="10" d="M529.8,233.7
		c0,0,7.9,0.5,10.4,8"/>
</g>
<g>
	<g>
		<g>
			<path fill="#FFFFFF" d="M645.2,248.5c0,0.4-0.4,0.8-0.5,1.2c0,0.4,0.3,0.9,0.2,1.3c-0.1,0.4-0.6,0.7-0.8,1.1
				c-0.1,0.4,0,0.9-0.2,1.3c-0.2,0.4-0.8,0.5-1,0.8c-0.2,0.3-0.2,0.9-0.5,1.2c-0.3,0.3-0.8,0.3-1.1,0.6c-0.3,0.3-0.3,0.8-0.7,1.1
				c-0.3,0.2-0.9,0.2-1.2,0.4c-0.3,0.2-0.5,0.8-0.8,1c-0.3,0.2-0.9,0-1.3,0.2c-0.4,0.2-0.6,0.7-0.9,0.9c-0.4,0.2-0.9,0-1.3,0.1
				c-0.4,0.1-0.6,0.7-1,0.8c-0.4,0.1-0.9-0.1-1.3,0c-0.4,0.1-0.7,0.6-1.1,0.7c-0.4,0.1-0.9-0.2-1.3-0.1c-0.4,0.1-0.7,0.6-1.1,0.7
				c-0.4,0.1-0.9-0.2-1.3-0.2c-0.4,0.1-0.7,0.5-1.1,0.6c-0.4,0.1-0.9-0.3-1.3-0.2c-0.4,0.1-0.8,0.5-1.2,0.5c-0.4,0-0.9-0.3-1.3-0.3
				c-0.4,0-0.8,0.5-1.2,0.5c-0.4,0-0.8-0.3-1.3-0.3c-0.4,0-0.8,0.4-1.2,0.5c-0.4,0-0.8-0.4-1.2-0.4c-0.4,0-0.8,0.4-1.2,0.4
				c-0.4,0-0.8-0.4-1.2-0.4c-0.4,0-0.8,0.4-1.2,0.4c-0.4,0-0.8-0.4-1.2-0.5c-0.4,0-0.8,0.4-1.3,0.3c-0.4,0-0.8-0.5-1.2-0.5
				c-0.4,0-0.9,0.3-1.3,0.3c-0.4,0-0.8-0.5-1.2-0.5c-0.4-0.1-0.9,0.3-1.3,0.2c-0.4-0.1-0.7-0.5-1.1-0.6c-0.4-0.1-0.9,0.2-1.3,0.2
				c-0.4-0.1-0.7-0.6-1.1-0.7c-0.4-0.1-0.9,0.2-1.3,0.1c-0.4-0.1-0.7-0.6-1.1-0.7c-0.4-0.1-0.9,0.1-1.3,0c-0.4-0.1-0.6-0.7-1-0.8
				c-0.4-0.2-0.9,0.1-1.3-0.1c-0.4-0.2-0.6-0.7-0.9-0.9c-0.4-0.2-0.9,0-1.3-0.2c-0.4-0.2-0.5-0.8-0.8-1c-0.3-0.2-0.9-0.2-1.2-0.4
				c-0.3-0.3-0.4-0.8-0.7-1.1c-0.3-0.3-0.9-0.3-1.1-0.6c-0.3-0.3-0.2-0.9-0.4-1.2c-0.2-0.3-0.8-0.5-1-0.8c-0.2-0.4,0-0.9-0.2-1.3
				c-0.1-0.4-0.7-0.6-0.8-1.1c-0.1-0.4,0.2-0.9,0.2-1.3c0-0.4-0.5-0.8-0.5-1.2c0-0.5,0.4-0.9,0.4-1.4c0-0.5-0.3-1-0.3-1.4
				c0.1-0.5,0.5-0.9,0.6-1.3c0.1-0.5-0.2-1,0-1.4c0.1-0.4,0.7-0.8,0.8-1.2c0.2-0.4,0-1,0.2-1.4c0.2-0.4,0.8-0.6,1-1
				c0.2-0.4,0.1-1,0.4-1.4c0.3-0.4,0.9-0.5,1.2-0.9c0.3-0.4,0.3-1,0.6-1.3c0.3-0.3,0.9-0.4,1.3-0.7c0.3-0.3,0.4-0.9,0.8-1.2
				c0.4-0.3,1-0.2,1.4-0.5c0.4-0.3,0.6-0.8,1-1.1c0.4-0.2,1-0.1,1.4-0.3c0.4-0.2,0.6-0.8,1.1-1c0.4-0.2,1,0,1.4-0.2
				c0.4-0.2,0.7-0.7,1.2-0.9c0.4-0.1,1,0.1,1.4,0c0.4-0.1,0.8-0.6,1.2-0.8c0.4-0.1,1,0.2,1.4,0.1c0.4-0.1,0.8-0.6,1.3-0.7
				c0.4-0.1,1,0.2,1.4,0.2c0.5-0.1,0.9-0.5,1.3-0.6c0.5-0.1,1,0.3,1.4,0.3c0.5,0,0.9-0.5,1.4-0.5c0.5,0,0.9,0.4,1.4,0.3
				c0.5,0,0.9-0.4,1.4-0.4c0.5,0,0.9,0.4,1.4,0.4c0.5,0,0.9-0.4,1.4-0.3c0.5,0,0.9,0.5,1.4,0.5c0.5,0,1-0.3,1.4-0.3
				c0.5,0.1,0.9,0.5,1.3,0.6c0.5,0.1,1-0.3,1.4-0.2c0.5,0.1,0.8,0.6,1.3,0.7c0.5,0.1,1-0.2,1.4-0.1c0.5,0.1,0.8,0.6,1.2,0.8
				c0.4,0.1,1-0.1,1.4,0c0.4,0.2,0.7,0.7,1.2,0.9c0.4,0.2,1,0,1.4,0.2c0.4,0.2,0.7,0.8,1.1,1c0.4,0.2,1,0.1,1.4,0.3
				c0.4,0.2,0.6,0.8,1,1.1c0.4,0.3,1,0.2,1.4,0.5c0.4,0.3,0.5,0.9,0.8,1.2c0.3,0.3,1,0.3,1.3,0.7c0.3,0.3,0.3,0.9,0.6,1.3
				c0.3,0.4,0.9,0.5,1.2,0.9c0.3,0.4,0.2,1,0.4,1.4c0.2,0.4,0.8,0.6,1,1c0.2,0.4,0,1,0.2,1.4c0.2,0.4,0.7,0.7,0.8,1.2
				c0.1,0.4-0.1,1,0,1.4c0.1,0.4,0.6,0.8,0.6,1.3c0.1,0.5-0.3,0.9-0.3,1.4C644.8,247.6,645.2,248,645.2,248.5z"/>
			<path fill="none" stroke="#040000" stroke-miterlimit="10" d="M645.2,248.5c0,0.4-0.4,0.8-0.5,1.2c0,0.4,0.3,0.9,0.2,1.3
				c-0.1,0.4-0.6,0.7-0.8,1.1c-0.1,0.4,0,0.9-0.2,1.3c-0.2,0.4-0.8,0.5-1,0.8c-0.2,0.3-0.2,0.9-0.5,1.2c-0.3,0.3-0.8,0.3-1.1,0.6
				c-0.3,0.3-0.3,0.8-0.7,1.1c-0.3,0.2-0.9,0.2-1.2,0.4c-0.3,0.2-0.5,0.8-0.8,1c-0.3,0.2-0.9,0-1.3,0.2c-0.4,0.2-0.6,0.7-0.9,0.9
				c-0.4,0.2-0.9,0-1.3,0.1c-0.4,0.1-0.6,0.7-1,0.8c-0.4,0.1-0.9-0.1-1.3,0c-0.4,0.1-0.7,0.6-1.1,0.7c-0.4,0.1-0.9-0.2-1.3-0.1
				c-0.4,0.1-0.7,0.6-1.1,0.7c-0.4,0.1-0.9-0.2-1.3-0.2c-0.4,0.1-0.7,0.5-1.1,0.6c-0.4,0.1-0.9-0.3-1.3-0.2
				c-0.4,0.1-0.8,0.5-1.2,0.5c-0.4,0-0.9-0.3-1.3-0.3c-0.4,0-0.8,0.5-1.2,0.5c-0.4,0-0.8-0.3-1.3-0.3c-0.4,0-0.8,0.4-1.2,0.5
				c-0.4,0-0.8-0.4-1.2-0.4c-0.4,0-0.8,0.4-1.2,0.4c-0.4,0-0.8-0.4-1.2-0.4c-0.4,0-0.8,0.4-1.2,0.4c-0.4,0-0.8-0.4-1.2-0.5
				c-0.4,0-0.8,0.4-1.3,0.3c-0.4,0-0.8-0.5-1.2-0.5c-0.4,0-0.9,0.3-1.3,0.3c-0.4,0-0.8-0.5-1.2-0.5c-0.4-0.1-0.9,0.3-1.3,0.2
				c-0.4-0.1-0.7-0.5-1.1-0.6c-0.4-0.1-0.9,0.2-1.3,0.2c-0.4-0.1-0.7-0.6-1.1-0.7c-0.4-0.1-0.9,0.2-1.3,0.1
				c-0.4-0.1-0.7-0.6-1.1-0.7c-0.4-0.1-0.9,0.1-1.3,0c-0.4-0.1-0.6-0.7-1-0.8c-0.4-0.2-0.9,0.1-1.3-0.1c-0.4-0.2-0.6-0.7-0.9-0.9
				c-0.4-0.2-0.9,0-1.3-0.2c-0.4-0.2-0.5-0.8-0.8-1c-0.3-0.2-0.9-0.2-1.2-0.4c-0.3-0.3-0.4-0.8-0.7-1.1c-0.3-0.3-0.9-0.3-1.1-0.6
				c-0.3-0.3-0.2-0.9-0.4-1.2c-0.2-0.3-0.8-0.5-1-0.8c-0.2-0.4,0-0.9-0.2-1.3c-0.1-0.4-0.7-0.6-0.8-1.1c-0.1-0.4,0.2-0.9,0.2-1.3
				c0-0.4-0.5-0.8-0.5-1.2c0-0.5,0.4-0.9,0.4-1.4c0-0.5-0.3-1-0.3-1.4c0.1-0.5,0.5-0.9,0.6-1.3c0.1-0.5-0.2-1,0-1.4
				c0.1-0.4,0.7-0.8,0.8-1.2c0.2-0.4,0-1,0.2-1.4c0.2-0.4,0.8-0.6,1-1c0.2-0.4,0.1-1,0.4-1.4c0.3-0.4,0.9-0.5,1.2-0.9
				c0.3-0.4,0.3-1,0.6-1.3c0.3-0.3,0.9-0.4,1.3-0.7c0.3-0.3,0.4-0.9,0.8-1.2c0.4-0.3,1-0.2,1.4-0.5c0.4-0.3,0.6-0.8,1-1.1
				c0.4-0.2,1-0.1,1.4-0.3c0.4-0.2,0.6-0.8,1.1-1c0.4-0.2,1,0,1.4-0.2c0.4-0.2,0.7-0.7,1.2-0.9c0.4-0.1,1,0.1,1.4,0
				c0.4-0.1,0.8-0.6,1.2-0.8c0.4-0.1,1,0.2,1.4,0.1c0.4-0.1,0.8-0.6,1.3-0.7c0.4-0.1,1,0.2,1.4,0.2c0.5-0.1,0.9-0.5,1.3-0.6
				c0.5-0.1,1,0.3,1.4,0.3c0.5,0,0.9-0.5,1.4-0.5c0.5,0,0.9,0.4,1.4,0.3c0.5,0,0.9-0.4,1.4-0.4c0.5,0,0.9,0.4,1.4,0.4
				c0.5,0,0.9-0.4,1.4-0.3c0.5,0,0.9,0.5,1.4,0.5c0.5,0,1-0.3,1.4-0.3c0.5,0.1,0.9,0.5,1.3,0.6c0.5,0.1,1-0.3,1.4-0.2
				c0.5,0.1,0.8,0.6,1.3,0.7c0.5,0.1,1-0.2,1.4-0.1c0.5,0.1,0.8,0.6,1.2,0.8c0.4,0.1,1-0.1,1.4,0c0.4,0.2,0.7,0.7,1.2,0.9
				c0.4,0.2,1,0,1.4,0.2c0.4,0.2,0.7,0.8,1.1,1c0.4,0.2,1,0.1,1.4,0.3c0.4,0.2,0.6,0.8,1,1.1c0.4,0.3,1,0.2,1.4,0.5
				c0.4,0.3,0.5,0.9,0.8,1.2c0.3,0.3,1,0.3,1.3,0.7c0.3,0.3,0.3,0.9,0.6,1.3c0.3,0.4,0.9,0.5,1.2,0.9c0.3,0.4,0.2,1,0.4,1.4
				c0.2,0.4,0.8,0.6,1,1c0.2,0.4,0,1,0.2,1.4c0.2,0.4,0.7,0.7,0.8,1.2c0.1,0.4-0.1,1,0,1.4c0.1,0.4,0.6,0.8,0.6,1.3
				c0.1,0.5-0.3,0.9-0.3,1.4C644.8,247.6,645.2,248,645.2,248.5z"/>
		</g>
		<path fill="#FFFFFF" stroke="#040000" stroke-miterlimit="10" d="M588.3,238.2c0.2,0.4,0.5,0.5,1,0.8c1.6,0.9,3.4,1.7,5.1,2.4
			c6.3,2.5,13,3.9,19.8,3.8c2,0,3.4,0,5.1-1.1c1.4-0.9,2.9-1.8,4.4-2.6c3.9-2.1,8.3-4,12.8-4.1c8.3-0.2,8.9,2.1,9.6-0.1
			c0.7-2.2-4.4-14.4-29-14.4c-8.4,0-23-0.1-27.6,8.9c-0.7,1.5-1.8,4.2-1.3,5.9C588.2,237.9,588.3,238.1,588.3,238.2z"/>
		<circle fill="#040000" cx="593.1" cy="247.6" r="1.4"/>
		<circle fill="#040000" cx="604.1" cy="250.8" r="1.4"/>
		<path fill="none" stroke="#040000" stroke-linecap="round" stroke-linejoin="round" stroke-miterlimit="10" d="M595.9,254.7
			c0,0,1.5-1.9,3.1,1.1"/>
		<path fill="#EA555E" d="M646.1,236.3c0,0-4.4-6.2-16.5-2.8c-4,1.1-6.7,1.3-10.2,3.8c-1.2,0.8-4.5,0.3-5.8,0.7
			c-0.6,0.1-7,0.1-7.6-0.1c-4.9-1.6-16.6-5.9-16.8-4.1c-0.2,1.7-2.6,4.1,0.7,5.6c3.3,1.6,18.6,6.3,25.8,5.8
			c7.2-0.5,12.5-6.1,12.5-6.1l5-1.3l11.8,0.6C645,238.3,646.1,237.3,646.1,236.3z"/>
		<path fill="none" stroke="#040000" stroke-miterlimit="10" d="M588.3,238.2c0.2,0.4,0.5,0.5,1,0.8c1.6,0.9,3.4,1.7,5.1,2.4
			c6.3,2.5,13,3.9,19.8,3.8c2,0,3.4,0,5.1-1.1c1.4-0.9,2.9-1.8,4.4-2.6c3.9-2.1,8.3-4,12.8-4.1c8.3-0.2,8.9,2.1,9.6-0.1
			c0.7-2.2-4.4-14.4-29-14.4c-8.4,0-23-0.1-27.6,8.9c-0.7,1.5-1.8,4.2-1.3,5.9C588.2,237.9,588.3,238.1,588.3,238.2z"/>
		
			<ellipse transform="matrix(0.9758 0.2187 -0.2187 0.9758 65.9003 -124.2243)" fill="#FFFFFF" stroke="#EA555E" stroke-miterlimit="10" cx="594.2" cy="235.6" rx="4" ry="3.2"/>
		
			<ellipse transform="matrix(0.9738 0.2275 -0.2275 0.9738 70.234 -131.7826)" fill="#FFFFFF" stroke="#EA555E" stroke-miterlimit="10" cx="606.7" cy="238.8" rx="4" ry="3.2"/>
		
			<ellipse transform="matrix(0.8014 -0.5981 0.5981 0.8014 -18.5599 418.4787)" fill="#FFFFFF" stroke="#EA555E" stroke-miterlimit="10" cx="620.9" cy="237.2" rx="4" ry="3.2"/>
		
			<ellipse transform="matrix(0.9727 -0.2321 0.2321 0.9727 -37.0193 152.4573)" fill="#FFFFFF" stroke="#EA555E" stroke-miterlimit="10" cx="629.4" cy="233.6" rx="2.9" ry="2.3"/>
		
			<ellipse transform="matrix(0.9938 0.1113 -0.1113 0.9938 29.975 -69.6745)" fill="#FFFFFF" stroke="#EA555E" stroke-miterlimit="10" cx="638.9" cy="233.6" rx="2.9" ry="2.3"/>
	</g>
	<g>
		<g>
			<path fill="#FFFFFF" d="M665.2,258.5c0,0.4-0.4,0.8-0.5,1.2c0,0.4,0.3,0.9,0.2,1.3c-0.1,0.4-0.6,0.7-0.8,1.1
				c-0.1,0.4,0,0.9-0.2,1.3c-0.2,0.4-0.8,0.5-1,0.8c-0.2,0.3-0.2,0.9-0.5,1.2c-0.3,0.3-0.8,0.3-1.1,0.6c-0.3,0.3-0.3,0.8-0.7,1.1
				c-0.3,0.2-0.9,0.2-1.2,0.4c-0.3,0.2-0.5,0.8-0.8,1c-0.3,0.2-0.9,0-1.3,0.2c-0.4,0.2-0.6,0.7-0.9,0.9c-0.4,0.2-0.9,0-1.3,0.1
				c-0.4,0.1-0.6,0.7-1,0.8c-0.4,0.1-0.9-0.1-1.3,0c-0.4,0.1-0.7,0.6-1.1,0.7c-0.4,0.1-0.9-0.2-1.3-0.1c-0.4,0.1-0.7,0.6-1.1,0.7
				c-0.4,0.1-0.9-0.2-1.3-0.2c-0.4,0.1-0.7,0.5-1.1,0.6c-0.4,0.1-0.9-0.3-1.3-0.2c-0.4,0.1-0.8,0.5-1.2,0.5c-0.4,0-0.9-0.3-1.3-0.3
				c-0.4,0-0.8,0.5-1.2,0.5c-0.4,0-0.8-0.3-1.3-0.3c-0.4,0-0.8,0.4-1.2,0.5c-0.4,0-0.8-0.4-1.2-0.4c-0.4,0-0.8,0.4-1.2,0.4
				c-0.4,0-0.8-0.4-1.2-0.4c-0.4,0-0.8,0.4-1.2,0.4c-0.4,0-0.8-0.4-1.2-0.5c-0.4,0-0.8,0.4-1.3,0.3c-0.4,0-0.8-0.5-1.2-0.5
				c-0.4,0-0.9,0.3-1.3,0.3c-0.4,0-0.8-0.5-1.2-0.5c-0.4-0.1-0.9,0.3-1.3,0.2c-0.4-0.1-0.7-0.5-1.1-0.6c-0.4-0.1-0.9,0.2-1.3,0.2
				c-0.4-0.1-0.7-0.6-1.1-0.7c-0.4-0.1-0.9,0.2-1.3,0.1c-0.4-0.1-0.7-0.6-1.1-0.7c-0.4-0.1-0.9,0.1-1.3,0c-0.4-0.1-0.6-0.7-1-0.8
				c-0.4-0.2-0.9,0.1-1.3-0.1c-0.4-0.2-0.6-0.7-0.9-0.9c-0.4-0.2-0.9,0-1.3-0.2c-0.4-0.2-0.5-0.8-0.8-1c-0.3-0.2-0.9-0.2-1.2-0.4
				c-0.3-0.3-0.4-0.8-0.7-1.1c-0.3-0.3-0.9-0.3-1.1-0.6c-0.3-0.3-0.2-0.9-0.4-1.2c-0.2-0.3-0.8-0.5-1-0.8c-0.2-0.4,0-0.9-0.2-1.3
				c-0.1-0.4-0.7-0.6-0.8-1.1c-0.1-0.4,0.2-0.9,0.2-1.3c0-0.4-0.5-0.8-0.5-1.2c0-0.5,0.4-0.9,0.4-1.4c0-0.5-0.3-1-0.3-1.4
				c0.1-0.5,0.5-0.9,0.6-1.3c0.1-0.5-0.2-1,0-1.4c0.1-0.4,0.7-0.8,0.8-1.2c0.2-0.4,0-1,0.2-1.4c0.2-0.4,0.8-0.6,1-1
				c0.2-0.4,0.1-1,0.4-1.4c0.3-0.4,0.9-0.5,1.2-0.9c0.3-0.4,0.3-1,0.6-1.3c0.3-0.3,0.9-0.4,1.3-0.7c0.3-0.3,0.4-0.9,0.8-1.2
				c0.4-0.3,1-0.2,1.4-0.5c0.4-0.3,0.6-0.8,1-1.1c0.4-0.2,1-0.1,1.4-0.3c0.4-0.2,0.6-0.8,1.1-1c0.4-0.2,1,0,1.4-0.2
				c0.4-0.2,0.7-0.7,1.2-0.9c0.4-0.1,1,0.1,1.4,0c0.4-0.1,0.8-0.6,1.2-0.8c0.4-0.1,1,0.2,1.4,0.1c0.4-0.1,0.8-0.6,1.3-0.7
				c0.4-0.1,1,0.2,1.4,0.2c0.5-0.1,0.9-0.5,1.3-0.6c0.5-0.1,1,0.3,1.4,0.3c0.5,0,0.9-0.5,1.4-0.5c0.5,0,0.9,0.4,1.4,0.3
				c0.5,0,0.9-0.4,1.4-0.4c0.5,0,0.9,0.4,1.4,0.4c0.5,0,0.9-0.4,1.4-0.3c0.5,0,0.9,0.5,1.4,0.5c0.5,0,1-0.3,1.4-0.3
				c0.5,0.1,0.9,0.5,1.3,0.6c0.5,0.1,1-0.3,1.4-0.2c0.5,0.1,0.8,0.6,1.3,0.7c0.5,0.1,1-0.2,1.4-0.1c0.5,0.1,0.8,0.6,1.2,0.8
				c0.4,0.1,1-0.1,1.4,0c0.4,0.2,0.7,0.7,1.2,0.9c0.4,0.2,1,0,1.4,0.2c0.4,0.2,0.7,0.8,1.1,1c0.4,0.2,1,0.1,1.4,0.3
				c0.4,0.2,0.6,0.8,1,1.1c0.4,0.3,1,0.2,1.4,0.5c0.4,0.3,0.5,0.9,0.8,1.2c0.3,0.3,1,0.3,1.3,0.7c0.3,0.3,0.3,0.9,0.6,1.3
				c0.3,0.4,0.9,0.5,1.2,0.9c0.3,0.4,0.2,1,0.4,1.4c0.2,0.4,0.8,0.6,1,1c0.2,0.4,0,1,0.2,1.4c0.2,0.4,0.7,0.7,0.8,1.2
				c0.1,0.4-0.1,1,0,1.4c0.1,0.4,0.6,0.8,0.6,1.3c0.1,0.5-0.3,0.9-0.3,1.4C664.8,257.6,665.2,258,665.2,258.5z"/>
			<path fill="none" stroke="#040000" stroke-miterlimit="10" d="M665.2,258.5c0,0.4-0.4,0.8-0.5,1.2c0,0.4,0.3,0.9,0.2,1.3
				c-0.1,0.4-0.6,0.7-0.8,1.1c-0.1,0.4,0,0.9-0.2,1.3c-0.2,0.4-0.8,0.5-1,0.8c-0.2,0.3-0.2,0.9-0.5,1.2c-0.3,0.3-0.8,0.3-1.1,0.6
				c-0.3,0.3-0.3,0.8-0.7,1.1c-0.3,0.2-0.9,0.2-1.2,0.4c-0.3,0.2-0.5,0.8-0.8,1c-0.3,0.2-0.9,0-1.3,0.2c-0.4,0.2-0.6,0.7-0.9,0.9
				c-0.4,0.2-0.9,0-1.3,0.1c-0.4,0.1-0.6,0.7-1,0.8c-0.4,0.1-0.9-0.1-1.3,0c-0.4,0.1-0.7,0.6-1.1,0.7c-0.4,0.1-0.9-0.2-1.3-0.1
				c-0.4,0.1-0.7,0.6-1.1,0.7c-0.4,0.1-0.9-0.2-1.3-0.2c-0.4,0.1-0.7,0.5-1.1,0.6c-0.4,0.1-0.9-0.3-1.3-0.2
				c-0.4,0.1-0.8,0.5-1.2,0.5c-0.4,0-0.9-0.3-1.3-0.3c-0.4,0-0.8,0.5-1.2,0.5c-0.4,0-0.8-0.3-1.3-0.3c-0.4,0-0.8,0.4-1.2,0.5
				c-0.4,0-0.8-0.4-1.2-0.4c-0.4,0-0.8,0.4-1.2,0.4c-0.4,0-0.8-0.4-1.2-0.4c-0.4,0-0.8,0.4-1.2,0.4c-0.4,0-0.8-0.4-1.2-0.5
				c-0.4,0-0.8,0.4-1.3,0.3c-0.4,0-0.8-0.5-1.2-0.5c-0.4,0-0.9,0.3-1.3,0.3c-0.4,0-0.8-0.5-1.2-0.5c-0.4-0.1-0.9,0.3-1.3,0.2
				c-0.4-0.1-0.7-0.5-1.1-0.6c-0.4-0.1-0.9,0.2-1.3,0.2c-0.4-0.1-0.7-0.6-1.1-0.7c-0.4-0.1-0.9,0.2-1.3,0.1
				c-0.4-0.1-0.7-0.6-1.1-0.7c-0.4-0.1-0.9,0.1-1.3,0c-0.4-0.1-0.6-0.7-1-0.8c-0.4-0.2-0.9,0.1-1.3-0.1c-0.4-0.2-0.6-0.7-0.9-0.9
				c-0.4-0.2-0.9,0-1.3-0.2c-0.4-0.2-0.5-0.8-0.8-1c-0.3-0.2-0.9-0.2-1.2-0.4c-0.3-0.3-0.4-0.8-0.7-1.1c-0.3-0.3-0.9-0.3-1.1-0.6
				c-0.3-0.3-0.2-0.9-0.4-1.2c-0.2-0.3-0.8-0.5-1-0.8c-0.2-0.4,0-0.9-0.2-1.3c-0.1-0.4-0.7-0.6-0.8-1.1c-0.1-0.4,0.2-0.9,0.2-1.3
				c0-0.4-0.5-0.8-0.5-1.2c0-0.5,0.4-0.9,0.4-1.4c0-0.5-0.3-1-0.3-1.4c0.1-0.5,0.5-0.9,0.6-1.3c0.1-0.5-0.2-1,0-1.4
				c0.1-0.4,0.7-0.8,0.8-1.2c0.2-0.4,0-1,0.2-1.4c0.2-0.4,0.8-0.6,1-1c0.2-0.4,0.1-1,0.4-1.4c0.3-0.4,0.9-0.5,1.2-0.9
				c0.3-0.4,0.3-1,0.6-1.3c0.3-0.3,0.9-0.4,1.3-0.7c0.3-0.3,0.4-0.9,0.8-1.2c0.4-0.3,1-0.2,1.4-0.5c0.4-0.3,0.6-0.8,1-1.1
				c0.4-0.2,1-0.1,1.4-0.3c0.4-0.2,0.6-0.8,1.1-1c0.4-0.2,1,0,1.4-0.2c0.4-0.2,0.7-0.7,1.2-0.9c0.4-0.1,1,0.1,1.4,0
				c0.4-0.1,0.8-0.6,1.2-0.8c0.4-0.1,1,0.2,1.4,0.1c0.4-0.1,0.8-0.6,1.3-0.7c0.4-0.1,1,0.2,1.4,0.2c0.5-0.1,0.9-0.5,1.3-0.6
				c0.5-0.1,1,0.3,1.4,0.3c0.5,0,0.9-0.5,1.4-0.5c0.5,0,0.9,0.4,1.4,0.3c0.5,0,0.9-0.4,1.4-0.4c0.5,0,0.9,0.4,1.4,0.4
				c0.5,0,0.9-0.4,1.4-0.3c0.5,0,0.9,0.5,1.4,0.5c0.5,0,1-0.3,1.4-0.3c0.5,0.1,0.9,0.5,1.3,0.6c0.5,0.1,1-0.3,1.4-0.2
				c0.5,0.1,0.8,0.6,1.3,0.7c0.5,0.1,1-0.2,1.4-0.1c0.5,0.1,0.8,0.6,1.2,0.8c0.4,0.1,1-0.1,1.4,0c0.4,0.2,0.7,0.7,1.2,0.9
				c0.4,0.2,1,0,1.4,0.2c0.4,0.2,0.7,0.8,1.1,1c0.4,0.2,1,0.1,1.4,0.3c0.4,0.2,0.6,0.8,1,1.1c0.4,0.3,1,0.2,1.4,0.5
				c0.4,0.3,0.5,0.9,0.8,1.2c0.3,0.3,1,0.3,1.3,0.7c0.3,0.3,0.3,0.9,0.6,1.3c0.3,0.4,0.9,0.5,1.2,0.9c0.3,0.4,0.2,1,0.4,1.4
				c0.2,0.4,0.8,0.6,1,1c0.2,0.4,0,1,0.2,1.4c0.2,0.4,0.7,0.7,0.8,1.2c0.1,0.4-0.1,1,0,1.4c0.1,0.4,0.6,0.8,0.6,1.3
				c0.1,0.5-0.3,0.9-0.3,1.4C664.8,257.6,665.2,258,665.2,258.5z"/>
		</g>
		<path fill="#FFFFFF" stroke="#040000" stroke-miterlimit="10" d="M608.3,248.2c0.2,0.4,0.5,0.5,1,0.8c1.6,0.9,3.4,1.7,5.1,2.4
			c6.3,2.5,13,3.9,19.8,3.8c2,0,3.4,0,5.1-1.1c1.4-0.9,2.9-1.8,4.4-2.6c3.9-2.1,8.3-4,12.8-4.1c8.3-0.2,8.9,2.1,9.6-0.1
			c0.7-2.2-4.4-14.4-29-14.4c-8.4,0-23-0.1-27.6,8.9c-0.7,1.5-1.8,4.2-1.3,5.9C608.2,247.9,608.3,248.1,608.3,248.2z"/>
		<circle fill="#040000" cx="613.1" cy="257.6" r="1.4"/>
		<circle fill="#040000" cx="624.1" cy="260.8" r="1.4"/>
		<path fill="none" stroke="#040000" stroke-linecap="round" stroke-linejoin="round" stroke-miterlimit="10" d="M615.9,264.7
			c0,0,1.5-1.9,3.1,1.1"/>
		<path fill="#EA555E" d="M666.1,246.3c0,0-4.4-6.2-16.5-2.8c-4,1.1-6.7,1.3-10.2,3.8c-1.2,0.8-4.5,0.3-5.8,0.7
			c-0.6,0.1-7,0.1-7.6-0.1c-4.9-1.6-16.6-5.9-16.8-4.1c-0.2,1.7-2.6,4.1,0.7,5.6c3.3,1.6,18.6,6.3,25.8,5.8
			c7.2-0.5,12.5-6.1,12.5-6.1l5-1.3l11.8,0.6C665,248.3,666.1,247.3,666.1,246.3z"/>
		<path fill="none" stroke="#040000" stroke-miterlimit="10" d="M608.3,248.2c0.2,0.4,0.5,0.5,1,0.8c1.6,0.9,3.4,1.7,5.1,2.4
			c6.3,2.5,13,3.9,19.8,3.8c2,0,3.4,0,5.1-1.1c1.4-0.9,2.9-1.8,4.4-2.6c3.9-2.1,8.3-4,12.8-4.1c8.3-0.2,8.9,2.1,9.6-0.1
			c0.7-2.2-4.4-14.4-29-14.4c-8.4,0-23-0.1-27.6,8.9c-0.7,1.5-1.8,4.2-1.3,5.9C608.2,247.9,608.3,248.1,608.3,248.2z"/>
		
			<ellipse transform="matrix(0.9758 0.2187 -0.2187 0.9758 68.5709 -128.3555)" fill="#FFFFFF" stroke="#EA555E" stroke-miterlimit="10" cx="614.2" cy="245.6" rx="4" ry="3.2"/>
		
			<ellipse transform="matrix(0.9738 0.2275 -0.2275 0.9738 73.0337 -136.0707)" fill="#FFFFFF" stroke="#EA555E" stroke-miterlimit="10" cx="626.7" cy="248.8" rx="4" ry="3.2"/>
		
			<ellipse transform="matrix(0.8014 -0.5981 0.5981 0.8014 -20.5691 432.4277)" fill="#FFFFFF" stroke="#EA555E" stroke-miterlimit="10" cx="640.9" cy="247.2" rx="4" ry="3.2"/>
		
			<ellipse transform="matrix(0.9727 -0.2321 0.2321 0.9727 -38.7941 157.3719)" fill="#FFFFFF" stroke="#EA555E" stroke-miterlimit="10" cx="649.4" cy="243.6" rx="2.9" ry="2.3"/>
		
			<ellipse transform="matrix(0.9938 0.1113 -0.1113 0.9938 31.2127 -71.839)" fill="#FFFFFF" stroke="#EA555E" stroke-miterlimit="10" cx="658.9" cy="243.6" rx="2.9" ry="2.3"/>
	</g>
</g>
<g>
	<g>
		<g>
			<path fill="#FFFFFF" d="M753.5,247.5c0,0.4-0.4,0.8-0.5,1.2c0,0.4,0.3,0.9,0.2,1.3c-0.1,0.4-0.6,0.7-0.8,1.1
				c-0.1,0.4,0,0.9-0.2,1.3c-0.2,0.4-0.8,0.5-1,0.8c-0.2,0.3-0.2,0.9-0.5,1.2c-0.3,0.3-0.8,0.3-1.1,0.6c-0.3,0.3-0.3,0.8-0.7,1.1
				c-0.3,0.2-0.9,0.2-1.2,0.4c-0.3,0.2-0.5,0.8-0.8,1c-0.3,0.2-0.9,0-1.3,0.2c-0.4,0.2-0.6,0.7-0.9,0.9c-0.4,0.2-0.9,0-1.3,0.1
				c-0.4,0.1-0.6,0.7-1,0.8c-0.4,0.1-0.9-0.1-1.3,0c-0.4,0.1-0.7,0.6-1.1,0.7c-0.4,0.1-0.9-0.2-1.3-0.1c-0.4,0.1-0.7,0.6-1.1,0.7
				c-0.4,0.1-0.9-0.2-1.3-0.2c-0.4,0.1-0.7,0.5-1.1,0.6c-0.4,0.1-0.9-0.3-1.3-0.2c-0.4,0.1-0.8,0.5-1.2,0.5c-0.4,0-0.9-0.3-1.3-0.3
				c-0.4,0-0.8,0.5-1.2,0.5c-0.4,0-0.8-0.3-1.3-0.3c-0.4,0-0.8,0.4-1.2,0.5c-0.4,0-0.8-0.4-1.2-0.4c-0.4,0-0.8,0.4-1.2,0.4
				c-0.4,0-0.8-0.4-1.2-0.4c-0.4,0-0.8,0.4-1.2,0.4c-0.4,0-0.8-0.4-1.2-0.5c-0.4,0-0.8,0.4-1.3,0.3c-0.4,0-0.8-0.5-1.2-0.5
				c-0.4,0-0.9,0.3-1.3,0.3c-0.4,0-0.8-0.5-1.2-0.5c-0.4-0.1-0.9,0.3-1.3,0.2c-0.4-0.1-0.7-0.5-1.1-0.6c-0.4-0.1-0.9,0.2-1.3,0.2
				c-0.4-0.1-0.7-0.6-1.1-0.7c-0.4-0.1-0.9,0.2-1.3,0.1c-0.4-0.1-0.7-0.6-1.1-0.7c-0.4-0.1-0.9,0.1-1.3,0c-0.4-0.1-0.6-0.7-1-0.8
				c-0.4-0.2-0.9,0.1-1.3-0.1c-0.4-0.2-0.6-0.7-0.9-0.9c-0.4-0.2-0.9,0-1.3-0.2c-0.4-0.2-0.5-0.8-0.8-1c-0.3-0.2-0.9-0.2-1.2-0.4
				c-0.3-0.3-0.4-0.8-0.7-1.1c-0.3-0.3-0.9-0.3-1.1-0.6c-0.3-0.3-0.2-0.9-0.4-1.2c-0.2-0.3-0.8-0.5-1-0.8c-0.2-0.4,0-0.9-0.2-1.3
				c-0.1-0.4-0.7-0.6-0.8-1.1c-0.1-0.4,0.2-0.9,0.2-1.3c0-0.4-0.5-0.8-0.5-1.2c0-0.5,0.4-0.9,0.4-1.4c0-0.5-0.3-1-0.3-1.4
				c0.1-0.5,0.5-0.9,0.6-1.3c0.1-0.5-0.2-1,0-1.4c0.1-0.4,0.7-0.8,0.8-1.2c0.2-0.4,0-1,0.2-1.4c0.2-0.4,0.8-0.6,1-1
				c0.2-0.4,0.1-1,0.4-1.4c0.3-0.4,0.9-0.5,1.2-0.9c0.3-0.4,0.3-1,0.6-1.3c0.3-0.3,0.9-0.4,1.3-0.7c0.3-0.3,0.4-0.9,0.8-1.2
				c0.4-0.3,1-0.2,1.4-0.5c0.4-0.3,0.6-0.8,1-1.1c0.4-0.2,1-0.1,1.4-0.3c0.4-0.2,0.6-0.8,1.1-1c0.4-0.2,1,0,1.4-0.2
				c0.4-0.2,0.7-0.7,1.2-0.9c0.4-0.1,1,0.1,1.4,0c0.4-0.1,0.8-0.6,1.2-0.8c0.4-0.1,1,0.2,1.4,0.1c0.4-0.1,0.8-0.6,1.3-0.7
				c0.5-0.1,1,0.2,1.4,0.2c0.5-0.1,0.9-0.5,1.3-0.6c0.5-0.1,1,0.3,1.4,0.3c0.5,0,0.9-0.5,1.4-0.5c0.5,0,0.9,0.4,1.4,0.3
				c0.5,0,0.9-0.4,1.4-0.4c0.5,0,0.9,0.4,1.4,0.4c0.5,0,0.9-0.4,1.4-0.3c0.5,0,0.9,0.5,1.4,0.5c0.5,0,1-0.3,1.4-0.3
				c0.5,0.1,0.9,0.5,1.3,0.6c0.5,0.1,1-0.3,1.4-0.2c0.5,0.1,0.8,0.6,1.3,0.7c0.5,0.1,1-0.2,1.4-0.1c0.5,0.1,0.8,0.6,1.2,0.8
				c0.4,0.1,1-0.1,1.4,0c0.4,0.2,0.7,0.7,1.2,0.9c0.4,0.2,1,0,1.4,0.2c0.4,0.2,0.7,0.8,1.1,1c0.4,0.2,1,0.1,1.4,0.3
				c0.4,0.2,0.6,0.8,1,1.1c0.4,0.3,1,0.2,1.4,0.5c0.4,0.3,0.5,0.9,0.8,1.2c0.3,0.3,1,0.3,1.3,0.7c0.3,0.3,0.3,0.9,0.6,1.3
				c0.3,0.4,0.9,0.5,1.2,0.9c0.3,0.4,0.2,1,0.4,1.4c0.2,0.4,0.8,0.6,1,1c0.2,0.4,0,1,0.2,1.4c0.2,0.4,0.7,0.7,0.8,1.2
				c0.1,0.4-0.1,1,0,1.4c0.1,0.4,0.6,0.8,0.6,1.3c0.1,0.5-0.3,0.9-0.3,1.4C753,246.6,753.5,247,753.5,247.5z"/>
			<path fill="none" stroke="#040000" stroke-miterlimit="10" d="M753.5,247.5c0,0.4-0.4,0.8-0.5,1.2c0,0.4,0.3,0.9,0.2,1.3
				c-0.1,0.4-0.6,0.7-0.8,1.1c-0.1,0.4,0,0.9-0.2,1.3c-0.2,0.4-0.8,0.5-1,0.8c-0.2,0.3-0.2,0.9-0.5,1.2c-0.3,0.3-0.8,0.3-1.1,0.6
				c-0.3,0.3-0.3,0.8-0.7,1.1c-0.3,0.2-0.9,0.2-1.2,0.4c-0.3,0.2-0.5,0.8-0.8,1c-0.3,0.2-0.9,0-1.3,0.2c-0.4,0.2-0.6,0.7-0.9,0.9
				c-0.4,0.2-0.9,0-1.3,0.1c-0.4,0.1-0.6,0.7-1,0.8c-0.4,0.1-0.9-0.1-1.3,0c-0.4,0.1-0.7,0.6-1.1,0.7c-0.4,0.1-0.9-0.2-1.3-0.1
				c-0.4,0.1-0.7,0.6-1.1,0.7c-0.4,0.1-0.9-0.2-1.3-0.2c-0.4,0.1-0.7,0.5-1.1,0.6c-0.4,0.1-0.9-0.3-1.3-0.2
				c-0.4,0.1-0.8,0.5-1.2,0.5c-0.4,0-0.9-0.3-1.3-0.3c-0.4,0-0.8,0.5-1.2,0.5c-0.4,0-0.8-0.3-1.3-0.3c-0.4,0-0.8,0.4-1.2,0.5
				c-0.4,0-0.8-0.4-1.2-0.4c-0.4,0-0.8,0.4-1.2,0.4c-0.4,0-0.8-0.4-1.2-0.4c-0.4,0-0.8,0.4-1.2,0.4c-0.4,0-0.8-0.4-1.2-0.5
				c-0.4,0-0.8,0.4-1.3,0.3c-0.4,0-0.8-0.5-1.2-0.5c-0.4,0-0.9,0.3-1.3,0.3c-0.4,0-0.8-0.5-1.2-0.5c-0.4-0.1-0.9,0.3-1.3,0.2
				c-0.4-0.1-0.7-0.5-1.1-0.6c-0.4-0.1-0.9,0.2-1.3,0.2c-0.4-0.1-0.7-0.6-1.1-0.7c-0.4-0.1-0.9,0.2-1.3,0.1
				c-0.4-0.1-0.7-0.6-1.1-0.7c-0.4-0.1-0.9,0.1-1.3,0c-0.4-0.1-0.6-0.7-1-0.8c-0.4-0.2-0.9,0.1-1.3-0.1c-0.4-0.2-0.6-0.7-0.9-0.9
				c-0.4-0.2-0.9,0-1.3-0.2c-0.4-0.2-0.5-0.8-0.8-1c-0.3-0.2-0.9-0.2-1.2-0.4c-0.3-0.3-0.4-0.8-0.7-1.1c-0.3-0.3-0.9-0.3-1.1-0.6
				c-0.3-0.3-0.2-0.9-0.4-1.2c-0.2-0.3-0.8-0.5-1-0.8c-0.2-0.4,0-0.9-0.2-1.3c-0.1-0.4-0.7-0.6-0.8-1.1c-0.1-0.4,0.2-0.9,0.2-1.3
				c0-0.4-0.5-0.8-0.5-1.2c0-0.5,0.4-0.9,0.4-1.4c0-0.5-0.3-1-0.3-1.4c0.1-0.5,0.5-0.9,0.6-1.3c0.1-0.5-0.2-1,0-1.4
				c0.1-0.4,0.7-0.8,0.8-1.2c0.2-0.4,0-1,0.2-1.4c0.2-0.4,0.8-0.6,1-1c0.2-0.4,0.1-1,0.4-1.4c0.3-0.4,0.9-0.5,1.2-0.9
				c0.3-0.4,0.3-1,0.6-1.3c0.3-0.3,0.9-0.4,1.3-0.7c0.3-0.3,0.4-0.9,0.8-1.2c0.4-0.3,1-0.2,1.4-0.5c0.4-0.3,0.6-0.8,1-1.1
				c0.4-0.2,1-0.1,1.4-0.3c0.4-0.2,0.6-0.8,1.1-1c0.4-0.2,1,0,1.4-0.2c0.4-0.2,0.7-0.7,1.2-0.9c0.4-0.1,1,0.1,1.4,0
				c0.4-0.1,0.8-0.6,1.2-0.8c0.4-0.1,1,0.2,1.4,0.1c0.4-0.1,0.8-0.6,1.3-0.7c0.5-0.1,1,0.2,1.4,0.2c0.5-0.1,0.9-0.5,1.3-0.6
				c0.5-0.1,1,0.3,1.4,0.3c0.5,0,0.9-0.5,1.4-0.5c0.5,0,0.9,0.4,1.4,0.3c0.5,0,0.9-0.4,1.4-0.4c0.5,0,0.9,0.4,1.4,0.4
				c0.5,0,0.9-0.4,1.4-0.3c0.5,0,0.9,0.5,1.4,0.5c0.5,0,1-0.3,1.4-0.3c0.5,0.1,0.9,0.5,1.3,0.6c0.5,0.1,1-0.3,1.4-0.2
				c0.5,0.1,0.8,0.6,1.3,0.7c0.5,0.1,1-0.2,1.4-0.1c0.5,0.1,0.8,0.6,1.2,0.8c0.4,0.1,1-0.1,1.4,0c0.4,0.2,0.7,0.7,1.2,0.9
				c0.4,0.2,1,0,1.4,0.2c0.4,0.2,0.7,0.8,1.1,1c0.4,0.2,1,0.1,1.4,0.3c0.4,0.2,0.6,0.8,1,1.1c0.4,0.3,1,0.2,1.4,0.5
				c0.4,0.3,0.5,0.9,0.8,1.2c0.3,0.3,1,0.3,1.3,0.7c0.3,0.3,0.3,0.9,0.6,1.3c0.3,0.4,0.9,0.5,1.2,0.9c0.3,0.4,0.2,1,0.4,1.4
				c0.2,0.4,0.8,0.6,1,1c0.2,0.4,0,1,0.2,1.4c0.2,0.4,0.7,0.7,0.8,1.2c0.1,0.4-0.1,1,0,1.4c0.1,0.4,0.6,0.8,0.6,1.3
				c0.1,0.5-0.3,0.9-0.3,1.4C753,246.6,753.5,247,753.5,247.5z"/>
		</g>
		<path fill="#FFFFFF" stroke="#040000" stroke-miterlimit="10" d="M696.5,237.2c0.2,0.4,0.5,0.5,1,0.8c1.6,0.9,3.4,1.7,5.1,2.4
			c6.3,2.5,13,3.9,19.8,3.8c2,0,3.4,0,5.1-1.1c1.4-0.9,2.9-1.8,4.4-2.6c3.9-2.1,8.3-4,12.8-4.1c8.3-0.2,8.9,2.1,9.6-0.1
			c0.7-2.2-4.4-14.4-29-14.4c-8.4,0-23-0.1-27.6,8.9c-0.7,1.5-1.8,4.2-1.3,5.9C696.4,236.9,696.5,237.1,696.5,237.2z"/>
		<circle fill="#040000" cx="701.3" cy="246.6" r="1.4"/>
		<circle fill="#040000" cx="712.3" cy="249.8" r="1.4"/>
		<path fill="none" stroke="#040000" stroke-linecap="round" stroke-linejoin="round" stroke-miterlimit="10" d="M704.1,253.7
			c0,0,1.5-1.9,3.1,1.1"/>
		<path fill="#CECECF" d="M754.3,235.3c0,0-4.4-6.2-16.5-2.8c-4,1.1-6.4,2.1-9.9,4.6c-1.2,0.8-2.5,1.8-3.8,2.1
			c-0.6,0.1-2.8,0-3.4-0.2c-4.9-1.6-23.1-8.1-23.4-6.3c-0.2,1.7-2.6,4.1,0.7,5.6c3.3,1.6,18.6,6.3,25.8,5.8
			c7.2-0.5,12.5-6.1,12.5-6.1l5-1.3l11.8,0.6C753.3,237.3,754.3,236.3,754.3,235.3z"/>
		<path fill="none" stroke="#040000" stroke-miterlimit="10" d="M696.5,237.2c0.2,0.4,0.5,0.5,1,0.8c1.6,0.9,3.4,1.7,5.1,2.4
			c6.3,2.5,13,3.9,19.8,3.8c2,0,3.4,0,5.1-1.1c1.4-0.9,2.9-1.8,4.4-2.6c3.9-2.1,8.3-4,12.8-4.1c8.3-0.2,8.9,2.1,9.6-0.1
			c0.7-2.2-4.4-14.4-29-14.4c-8.4,0-23-0.1-27.6,8.9c-0.7,1.5-1.8,4.2-1.3,5.9C696.4,236.9,696.5,237.1,696.5,237.2z"/>
	</g>
	<g>
		<g>
			<path fill="#FFFFFF" d="M773.5,257.5c0,0.4-0.4,0.8-0.5,1.2c0,0.4,0.3,0.9,0.2,1.3c-0.1,0.4-0.6,0.7-0.8,1.1
				c-0.1,0.4,0,0.9-0.2,1.3c-0.2,0.4-0.8,0.5-1,0.8c-0.2,0.3-0.2,0.9-0.5,1.2c-0.3,0.3-0.8,0.3-1.1,0.6c-0.3,0.3-0.3,0.8-0.7,1.1
				c-0.3,0.2-0.9,0.2-1.2,0.4c-0.3,0.2-0.5,0.8-0.8,1c-0.3,0.2-0.9,0-1.3,0.2c-0.4,0.2-0.6,0.7-0.9,0.9c-0.4,0.2-0.9,0-1.3,0.1
				c-0.4,0.1-0.6,0.7-1,0.8c-0.4,0.1-0.9-0.1-1.3,0c-0.4,0.1-0.7,0.6-1.1,0.7c-0.4,0.1-0.9-0.2-1.3-0.1c-0.4,0.1-0.7,0.6-1.1,0.7
				c-0.4,0.1-0.9-0.2-1.3-0.2c-0.4,0.1-0.7,0.5-1.1,0.6c-0.4,0.1-0.9-0.3-1.3-0.2c-0.4,0.1-0.8,0.5-1.2,0.5c-0.4,0-0.9-0.3-1.3-0.3
				c-0.4,0-0.8,0.5-1.2,0.5c-0.4,0-0.8-0.3-1.3-0.3c-0.4,0-0.8,0.4-1.2,0.5c-0.4,0-0.8-0.4-1.2-0.4c-0.4,0-0.8,0.4-1.2,0.4
				c-0.4,0-0.8-0.4-1.2-0.4c-0.4,0-0.8,0.4-1.2,0.4c-0.4,0-0.8-0.4-1.2-0.5c-0.4,0-0.8,0.4-1.3,0.3c-0.4,0-0.8-0.5-1.2-0.5
				c-0.4,0-0.9,0.3-1.3,0.3c-0.4,0-0.8-0.5-1.2-0.5c-0.4-0.1-0.9,0.3-1.3,0.2c-0.4-0.1-0.7-0.5-1.1-0.6c-0.4-0.1-0.9,0.2-1.3,0.2
				c-0.4-0.1-0.7-0.6-1.1-0.7c-0.4-0.1-0.9,0.2-1.3,0.1c-0.4-0.1-0.7-0.6-1.1-0.7c-0.4-0.1-0.9,0.1-1.3,0c-0.4-0.1-0.6-0.7-1-0.8
				c-0.4-0.2-0.9,0.1-1.3-0.1c-0.4-0.2-0.6-0.7-0.9-0.9c-0.4-0.2-0.9,0-1.3-0.2c-0.4-0.2-0.5-0.8-0.8-1c-0.3-0.2-0.9-0.2-1.2-0.4
				c-0.3-0.3-0.4-0.8-0.7-1.1c-0.3-0.3-0.9-0.3-1.1-0.6c-0.3-0.3-0.2-0.9-0.4-1.2c-0.2-0.3-0.8-0.5-1-0.8c-0.2-0.4,0-0.9-0.2-1.3
				c-0.1-0.4-0.7-0.6-0.8-1.1c-0.1-0.4,0.2-0.9,0.2-1.3c0-0.4-0.5-0.8-0.5-1.2c0-0.5,0.4-0.9,0.4-1.4c0-0.5-0.3-1-0.3-1.4
				c0.1-0.5,0.5-0.9,0.6-1.3c0.1-0.5-0.2-1,0-1.4c0.1-0.4,0.7-0.8,0.8-1.2c0.2-0.4,0-1,0.2-1.4c0.2-0.4,0.8-0.6,1-1
				c0.2-0.4,0.1-1,0.4-1.4c0.3-0.4,0.9-0.5,1.2-0.9c0.3-0.4,0.3-1,0.6-1.3c0.3-0.3,0.9-0.4,1.3-0.7c0.3-0.3,0.4-0.9,0.8-1.2
				c0.4-0.3,1-0.2,1.4-0.5c0.4-0.3,0.6-0.8,1-1.1c0.4-0.2,1-0.1,1.4-0.3c0.4-0.2,0.6-0.8,1.1-1c0.4-0.2,1,0,1.4-0.2
				c0.4-0.2,0.7-0.7,1.2-0.9c0.4-0.1,1,0.1,1.4,0c0.4-0.1,0.8-0.6,1.2-0.8c0.4-0.1,1,0.2,1.4,0.1c0.4-0.1,0.8-0.6,1.3-0.7
				c0.5-0.1,1,0.2,1.4,0.2c0.5-0.1,0.9-0.5,1.3-0.6c0.5-0.1,1,0.3,1.4,0.3c0.5,0,0.9-0.5,1.4-0.5c0.5,0,0.9,0.4,1.4,0.3
				c0.5,0,0.9-0.4,1.4-0.4c0.5,0,0.9,0.4,1.4,0.4c0.5,0,0.9-0.4,1.4-0.3c0.5,0,0.9,0.5,1.4,0.5c0.5,0,1-0.3,1.4-0.3
				c0.5,0.1,0.9,0.5,1.3,0.6c0.5,0.1,1-0.3,1.4-0.2c0.5,0.1,0.8,0.6,1.3,0.7c0.5,0.1,1-0.2,1.4-0.1c0.5,0.1,0.8,0.6,1.2,0.8
				c0.4,0.1,1-0.1,1.4,0c0.4,0.2,0.7,0.7,1.2,0.9c0.4,0.2,1,0,1.4,0.2c0.4,0.2,0.7,0.8,1.1,1c0.4,0.2,1,0.1,1.4,0.3
				c0.4,0.2,0.6,0.8,1,1.1c0.4,0.3,1,0.2,1.4,0.5c0.4,0.3,0.5,0.9,0.8,1.2c0.3,0.3,1,0.3,1.3,0.7c0.3,0.3,0.3,0.9,0.6,1.3
				c0.3,0.4,0.9,0.5,1.2,0.9c0.3,0.4,0.2,1,0.4,1.4c0.2,0.4,0.8,0.6,1,1c0.2,0.4,0,1,0.2,1.4c0.2,0.4,0.7,0.7,0.8,1.2
				c0.1,0.4-0.1,1,0,1.4c0.1,0.4,0.6,0.8,0.6,1.3c0.1,0.5-0.3,0.9-0.3,1.4C773,256.6,773.5,257,773.5,257.5z"/>
			<path fill="none" stroke="#040000" stroke-miterlimit="10" d="M773.5,257.5c0,0.4-0.4,0.8-0.5,1.2c0,0.4,0.3,0.9,0.2,1.3
				c-0.1,0.4-0.6,0.7-0.8,1.1c-0.1,0.4,0,0.9-0.2,1.3c-0.2,0.4-0.8,0.5-1,0.8c-0.2,0.3-0.2,0.9-0.5,1.2c-0.3,0.3-0.8,0.3-1.1,0.6
				c-0.3,0.3-0.3,0.8-0.7,1.1c-0.3,0.2-0.9,0.2-1.2,0.4c-0.3,0.2-0.5,0.8-0.8,1c-0.3,0.2-0.9,0-1.3,0.2c-0.4,0.2-0.6,0.7-0.9,0.9
				c-0.4,0.2-0.9,0-1.3,0.1c-0.4,0.1-0.6,0.7-1,0.8c-0.4,0.1-0.9-0.1-1.3,0c-0.4,0.1-0.7,0.6-1.1,0.7c-0.4,0.1-0.9-0.2-1.3-0.1
				c-0.4,0.1-0.7,0.6-1.1,0.7c-0.4,0.1-0.9-0.2-1.3-0.2c-0.4,0.1-0.7,0.5-1.1,0.6c-0.4,0.1-0.9-0.3-1.3-0.2
				c-0.4,0.1-0.8,0.5-1.2,0.5c-0.4,0-0.9-0.3-1.3-0.3c-0.4,0-0.8,0.5-1.2,0.5c-0.4,0-0.8-0.3-1.3-0.3c-0.4,0-0.8,0.4-1.2,0.5
				c-0.4,0-0.8-0.4-1.2-0.4c-0.4,0-0.8,0.4-1.2,0.4c-0.4,0-0.8-0.4-1.2-0.4c-0.4,0-0.8,0.4-1.2,0.4c-0.4,0-0.8-0.4-1.2-0.5
				c-0.4,0-0.8,0.4-1.3,0.3c-0.4,0-0.8-0.5-1.2-0.5c-0.4,0-0.9,0.3-1.3,0.3c-0.4,0-0.8-0.5-1.2-0.5c-0.4-0.1-0.9,0.3-1.3,0.2
				c-0.4-0.1-0.7-0.5-1.1-0.6c-0.4-0.1-0.9,0.2-1.3,0.2c-0.4-0.1-0.7-0.6-1.1-0.7c-0.4-0.1-0.9,0.2-1.3,0.1
				c-0.4-0.1-0.7-0.6-1.1-0.7c-0.4-0.1-0.9,0.1-1.3,0c-0.4-0.1-0.6-0.7-1-0.8c-0.4-0.2-0.9,0.1-1.3-0.1c-0.4-0.2-0.6-0.7-0.9-0.9
				c-0.4-0.2-0.9,0-1.3-0.2c-0.4-0.2-0.5-0.8-0.8-1c-0.3-0.2-0.9-0.2-1.2-0.4c-0.3-0.3-0.4-0.8-0.7-1.1c-0.3-0.3-0.9-0.3-1.1-0.6
				c-0.3-0.3-0.2-0.9-0.4-1.2c-0.2-0.3-0.8-0.5-1-0.8c-0.2-0.4,0-0.9-0.2-1.3c-0.1-0.4-0.7-0.6-0.8-1.1c-0.1-0.4,0.2-0.9,0.2-1.3
				c0-0.4-0.5-0.8-0.5-1.2c0-0.5,0.4-0.9,0.4-1.4c0-0.5-0.3-1-0.3-1.4c0.1-0.5,0.5-0.9,0.6-1.3c0.1-0.5-0.2-1,0-1.4
				c0.1-0.4,0.7-0.8,0.8-1.2c0.2-0.4,0-1,0.2-1.4c0.2-0.4,0.8-0.6,1-1c0.2-0.4,0.1-1,0.4-1.4c0.3-0.4,0.9-0.5,1.2-0.9
				c0.3-0.4,0.3-1,0.6-1.3c0.3-0.3,0.9-0.4,1.3-0.7c0.3-0.3,0.4-0.9,0.8-1.2c0.4-0.3,1-0.2,1.4-0.5c0.4-0.3,0.6-0.8,1-1.1
				c0.4-0.2,1-0.1,1.4-0.3c0.4-0.2,0.6-0.8,1.1-1c0.4-0.2,1,0,1.4-0.2c0.4-0.2,0.7-0.7,1.2-0.9c0.4-0.1,1,0.1,1.4,0
				c0.4-0.1,0.8-0.6,1.2-0.8c0.4-0.1,1,0.2,1.4,0.1c0.4-0.1,0.8-0.6,1.3-0.7c0.5-0.1,1,0.2,1.4,0.2c0.5-0.1,0.9-0.5,1.3-0.6
				c0.5-0.1,1,0.3,1.4,0.3c0.5,0,0.9-0.5,1.4-0.5c0.5,0,0.9,0.4,1.4,0.3c0.5,0,0.9-0.4,1.4-0.4c0.5,0,0.9,0.4,1.4,0.4
				c0.5,0,0.9-0.4,1.4-0.3c0.5,0,0.9,0.5,1.4,0.5c0.5,0,1-0.3,1.4-0.3c0.5,0.1,0.9,0.5,1.3,0.6c0.5,0.1,1-0.3,1.4-0.2
				c0.5,0.1,0.8,0.6,1.3,0.7c0.5,0.1,1-0.2,1.4-0.1c0.5,0.1,0.8,0.6,1.2,0.8c0.4,0.1,1-0.1,1.4,0c0.4,0.2,0.7,0.7,1.2,0.9
				c0.4,0.2,1,0,1.4,0.2c0.4,0.2,0.7,0.8,1.1,1c0.4,0.2,1,0.1,1.4,0.3c0.4,0.2,0.6,0.8,1,1.1c0.4,0.3,1,0.2,1.4,0.5
				c0.4,0.3,0.5,0.9,0.8,1.2c0.3,0.3,1,0.3,1.3,0.7c0.3,0.3,0.3,0.9,0.6,1.3c0.3,0.4,0.9,0.5,1.2,0.9c0.3,0.4,0.2,1,0.4,1.4
				c0.2,0.4,0.8,0.6,1,1c0.2,0.4,0,1,0.2,1.4c0.2,0.4,0.7,0.7,0.8,1.2c0.1,0.4-0.1,1,0,1.4c0.1,0.4,0.6,0.8,0.6,1.3
				c0.1,0.5-0.3,0.9-0.3,1.4C773,256.6,773.5,257,773.5,257.5z"/>
		</g>
		<path fill="#FFFFFF" stroke="#040000" stroke-miterlimit="10" d="M716.5,247.2c0.2,0.4,0.5,0.5,1,0.8c1.6,0.9,3.4,1.7,5.1,2.4
			c6.3,2.5,13,3.9,19.8,3.8c2,0,3.4,0,5.1-1.1c1.4-0.9,2.9-1.8,4.4-2.6c3.9-2.1,8.3-4,12.8-4.1c8.3-0.2,8.9,2.1,9.6-0.1
			c0.7-2.2-4.4-14.4-29-14.4c-8.4,0-23-0.1-27.6,8.9c-0.7,1.5-1.8,4.2-1.3,5.9C716.4,246.9,716.5,247.1,716.5,247.2z"/>
		<circle fill="#040000" cx="721.3" cy="256.6" r="1.4"/>
		<circle fill="#040000" cx="732.3" cy="259.8" r="1.4"/>
		<path fill="none" stroke="#040000" stroke-linecap="round" stroke-linejoin="round" stroke-miterlimit="10" d="M724.1,263.7
			c0,0,1.5-1.9,3.1,1.1"/>
		<path fill="#CECECF" d="M774.3,245.3c0,0-4.4-6.2-16.5-2.8c-4,1.1-6.4,2.1-9.9,4.6c-1.2,0.8-2.5,1.8-3.8,2.1
			c-0.6,0.1-2.8,0-3.4-0.2c-4.9-1.6-23.1-8.1-23.4-6.3c-0.2,1.7-2.6,4.1,0.7,5.6c3.3,1.6,18.6,6.3,25.8,5.8
			c7.2-0.5,12.5-6.1,12.5-6.1l5-1.3l11.8,0.6C773.3,247.3,774.3,246.3,774.3,245.3z"/>
		<path fill="none" stroke="#040000" stroke-miterlimit="10" d="M716.5,247.2c0.2,0.4,0.5,0.5,1,0.8c1.6,0.9,3.4,1.7,5.1,2.4
			c6.3,2.5,13,3.9,19.8,3.8c2,0,3.4,0,5.1-1.1c1.4-0.9,2.9-1.8,4.4-2.6c3.9-2.1,8.3-4,12.8-4.1c8.3-0.2,8.9,2.1,9.6-0.1
			c0.7-2.2-4.4-14.4-29-14.4c-8.4,0-23-0.1-27.6,8.9c-0.7,1.5-1.8,4.2-1.3,5.9C716.4,246.9,716.5,247.1,716.5,247.2z"/>
	</g>
</g>
</svg>
