<?xml version="1.0" encoding="utf-8"?>
<!-- Generator: Adobe Illustrator 17.1.0, SVG Export Plug-In . SVG Version: 6.00 Build 0)  -->
<!DOCTYPE svg PUBLIC "-//W3C//DTD SVG 1.1//EN" "http://www.w3.org/Graphics/SVG/1.1/DTD/svg11.dtd">
<svg version="1.1" id="レイヤー_1" xmlns="http://www.w3.org/2000/svg" xmlns:xlink="http://www.w3.org/1999/xlink" x="0px"
	 y="0px" viewBox="0 0 801 494.5" enable-background="new 0 0 801 494.5" xml:space="preserve">
<rect fill="#4DDBE2" width="801" height="494.5"/>
<rect y="332.6" fill="#52D86C" width="801" height="120.4"/>
<rect y="333.3" fill="#79DB89" width="801" height="21.8"/>
<rect x="549.5" y="335.5" fill="#C54B1C" width="0.8" height="3.1"/>
<rect y="428.5" fill="#468451" width="801" height="66"/>
<polyline fill="#59A9C1" points="-0.5,322.1 118.4,312.9 234.4,319.6 289,314.5 333.2,317.5 390.7,309.1 436.5,313.7 479.5,318.4 
	479.5,332.6 -0.5,332.6 "/>
<polyline fill="#6FC8DD" points="390.7,309.1 346.4,320.9 333.2,317.5 "/>
<g>
	<rect x="450.6" y="358.1" fill="#96462D" width="1.5" height="3.1"/>
	<path fill="#18853B" d="M451.3,358.2c2.2,0,4-1.8,4-4s-1.8-4-4-4"/>
	<path fill="#36AD4D" d="M451.3,358.2c-2.2,0-4-1.8-4-4s1.8-4,4-4"/>
</g>
<g>
	<rect x="572.7" y="343.8" fill="#96462D" width="1.5" height="3.1"/>
	<path fill="#18853B" d="M573.4,343.8c2.2,0,4-1.8,4-4s-1.8-4-4-4"/>
	<path fill="#36AD4D" d="M573.4,343.8c-2.2,0-4-1.8-4-4s1.8-4,4-4"/>
</g>
<g>
	<rect x="404.7" y="360.8" fill="#96462D" width="1.5" height="3.1"/>
	<path fill="#18853B" d="M405.4,360.8c2.2,0,4-1.8,4-4s-1.8-4-4-4"/>
	<path fill="#36AD4D" d="M405.4,360.8c-2.2,0-4-1.8-4-4s1.8-4,4-4"/>
</g>
<g>
	<rect x="501.1" y="357.9" fill="#96462D" width="1.5" height="3.1"/>
	<path fill="#18853B" d="M501.8,358c2.2,0,4-1.8,4-4s-1.8-4-4-4"/>
	<path fill="#36AD4D" d="M501.8,358c-2.2,0-4-1.8-4-4s1.8-4,4-4"/>
</g>
<g>
	<rect x="306.7" y="347" fill="#96462D" width="1.5" height="3.1"/>
	<path fill="#18853B" d="M307.5,347.1c2.2,0,4-1.8,4-4s-1.8-4-4-4"/>
	<path fill="#36AD4D" d="M307.5,347.1c-2.2,0-4-1.8-4-4s1.8-4,4-4"/>
</g>
<g>
	<rect x="373" y="368.2" fill="#96462D" width="1.5" height="3.1"/>
	<path fill="#18853B" d="M373.8,368.3c2.2,0,4-1.8,4-4s-1.8-4-4-4"/>
	<path fill="#36AD4D" d="M373.8,368.3c-2.2,0-4-1.8-4-4s1.8-4,4-4"/>
</g>
<g>
	<rect x="134.7" y="370.8" fill="#96462D" width="1.5" height="3.1"/>
	<path fill="#18853B" d="M135.4,370.8c2.2,0,4-1.8,4-4s-1.8-4-4-4"/>
	<path fill="#36AD4D" d="M135.4,370.8c-2.2,0-4-1.8-4-4s1.8-4,4-4"/>
</g>
<g>
	<rect x="36.7" y="357" fill="#96462D" width="1.5" height="3.1"/>
	<path fill="#18853B" d="M37.5,357.1c2.2,0,4-1.8,4-4s-1.8-4-4-4"/>
	<path fill="#36AD4D" d="M37.5,357.1c-2.2,0-4-1.8-4-4s1.8-4,4-4"/>
</g>
<g>
	<rect x="103" y="378.2" fill="#96462D" width="1.5" height="3.1"/>
	<path fill="#18853B" d="M103.8,378.3c2.2,0,4-1.8,4-4s-1.8-4-4-4"/>
	<path fill="#36AD4D" d="M103.8,378.3c-2.2,0-4-1.8-4-4s1.8-4,4-4"/>
</g>
<g>
	<rect x="254.7" y="370.8" fill="#96462D" width="1.5" height="3.1"/>
	<path fill="#18853B" d="M255.4,370.8c2.2,0,4-1.8,4-4s-1.8-4-4-4"/>
	<path fill="#36AD4D" d="M255.4,370.8c-2.2,0-4-1.8-4-4s1.8-4,4-4"/>
</g>
<g>
	<rect x="156.7" y="357" fill="#96462D" width="1.5" height="3.1"/>
	<path fill="#18853B" d="M157.5,357.1c2.2,0,4-1.8,4-4s-1.8-4-4-4"/>
	<path fill="#36AD4D" d="M157.5,357.1c-2.2,0-4-1.8-4-4s1.8-4,4-4"/>
</g>
<g>
	<rect x="223" y="378.2" fill="#96462D" width="1.5" height="3.1"/>
	<path fill="#18853B" d="M223.8,378.3c2.2,0,4-1.8,4-4s-1.8-4-4-4"/>
	<path fill="#36AD4D" d="M223.8,378.3c-2.2,0-4-1.8-4-4s1.8-4,4-4"/>
</g>
<g>
	<rect x="435.7" y="354" fill="#96462D" width="1.5" height="3.1"/>
	<path fill="#18853B" d="M436.5,354.1c2.2,0,4-1.8,4-4s-1.8-4-4-4"/>
	<path fill="#36AD4D" d="M436.5,354.1c-2.2,0-4-1.8-4-4s1.8-4,4-4"/>
</g>
<g>
	<rect x="731.1" y="377.9" fill="#96462D" width="1.5" height="3.1"/>
	<path fill="#18853B" d="M731.8,378c2.2,0,4-1.8,4-4s-1.8-4-4-4"/>
	<path fill="#36AD4D" d="M731.8,378c-2.2,0-4-1.8-4-4s1.8-4,4-4"/>
</g>
<g>
	<rect x="665.7" y="374" fill="#96462D" width="1.5" height="3.1"/>
	<path fill="#18853B" d="M666.5,374.1c2.2,0,4-1.8,4-4s-1.8-4-4-4"/>
	<path fill="#36AD4D" d="M666.5,374.1c-2.2,0-4-1.8-4-4s1.8-4,4-4"/>
</g>
<g>
	<rect x="518.8" y="400.2" fill="#96462D" width="1.5" height="3.1"/>
	<path fill="#18853B" d="M519.6,400.3c2.2,0,4-1.8,4-4s-1.8-4-4-4"/>
	<path fill="#36AD4D" d="M519.6,400.3c-2.2,0-4-1.8-4-4s1.8-4,4-4"/>
</g>
<g>
	<rect x="556.9" y="431.8" fill="#96462D" width="2" height="4.1"/>
	<path fill="#18853B" d="M557.9,431.8c2.9,0,5.3-2.4,5.3-5.3c0-2.9-2.4-5.3-5.3-5.3"/>
	<path fill="#36AD4D" d="M557.9,431.8c-2.9,0-5.3-2.4-5.3-5.3c0-2.9,2.4-5.3,5.3-5.3"/>
</g>
<g>
	<rect x="488.3" y="410.8" fill="#96462D" width="2" height="4.1"/>
	<path fill="#18853B" d="M489.3,410.9c2.9,0,5.3-2.4,5.3-5.3c0-2.9-2.4-5.3-5.3-5.3"/>
	<path fill="#36AD4D" d="M489.3,410.9c-2.9,0-5.3-2.4-5.3-5.3c0-2.9,2.4-5.3,5.3-5.3"/>
</g>
<polygon fill="#6FC8DD" points="234.4,319.6 259.2,320.4 288.6,314.5 "/>
<polyline fill="#6FC8DD" points="9.5,321.4 95.9,316.9 118.8,312.9 "/>
<polygon fill="#9B932F" points="498.9,475.9 498.9,476 499.1,476 "/>
<polygon fill="#C9BD4F" points="799.8,425.4 798.5,422.8 797.3,424.5 796.1,422.2 794.8,425.2 793.6,422.7 792.3,423.7 791.1,418.7 
	789.8,424.5 788.6,420.4 787.3,420.3 786.1,422 784.8,421.1 783.6,424.6 782.3,423.7 781.1,423.3 779.8,420.7 778.6,421.6 
	777.3,421.7 776.1,419.7 774.8,418.5 773.6,419.8 772.3,425.2 771.1,424.1 769.9,423.3 768.6,419.7 767.4,425.5 766.1,424.8 
	764.9,420.9 763.6,425.3 762.4,421.4 761.1,424.3 759.9,425 758.7,418.7 757.4,422.7 756.2,424.4 754.9,420.5 753.7,423.7 
	752.4,419 751.2,418.9 750,422.7 748.7,425.1 747.5,419 746.2,419.7 745,420.6 743.8,423.4 742.5,418.9 741.3,419.6 740,419 
	738.8,422.8 737.5,421.1 736.3,422.7 735.1,423.9 733.8,424.8 732.6,422.5 731.4,423.9 730.1,419 728.9,424 727.6,425.2 
	726.4,421.6 725.1,421.9 723.9,425.4 722.6,418.2 721.4,422.2 720.1,421.9 718.9,419.3 717.7,423.7 716.4,421.6 715.2,419.6 
	713.9,422.9 712.7,423.8 711.5,419.4 710.2,423.4 709,419.3 707.7,422.9 706.5,423.9 705.2,423.3 704,425.2 702.7,424.9 
	701.5,424.3 700.3,420.4 699,425.3 697.8,424.6 696.5,418.8 695.3,424.4 694,421.1 692.8,423.9 691.6,423.1 690.3,420 689.1,423.1 
	687.8,418.9 686.6,423.3 685.4,424.4 684.1,419.7 682.9,421.9 681.6,421 680.4,418.9 679.2,421.2 677.9,425.4 676.7,419.3 
	675.4,424.1 674.2,418.7 673,419.5 671.7,421.4 670.5,425.2 669.2,419 668,422.4 666.7,420 665.5,423.5 664.2,418.4 663,420.5 
	661.8,419.2 660.5,421.5 659.3,420.8 658,424.7 656.8,421 655.6,424.7 654.3,419.7 653.1,422.6 651.8,424.6 650.6,422.6 
	649.4,424.6 648.1,418.7 646.9,419.1 645.7,422.1 644.4,420.4 643.2,419.3 642,423.3 640.7,421.4 639.5,418.7 638.2,422.8 637,423 
	635.8,418.7 634.5,418.8 633.3,419.3 632,421.7 630.8,421.8 629.6,423.1 628.3,420.4 627.1,423.9 625.9,422.2 624.6,423.8 
	623.4,423.7 622.1,420.5 620.9,421.1 619.6,421.8 618.4,418.7 617.2,419.3 615.9,420.6 614.7,425.3 613.4,420.6 612.2,419.5 
	611,425.3 609.7,418.3 608.5,425.8 607.2,421 606,423.1 604.8,418.3 603.5,420.9 602.3,420.3 601.1,422 599.8,419.6 598.6,422.8 
	597.3,422.5 596.1,425.6 594.9,425.2 593.6,421.3 592.4,420.9 591.2,424.8 589.9,420.2 588.7,424 587.5,420.4 586.2,419 585,425.3 
	583.8,422.4 582.5,424.8 581.3,421.1 580.1,423.4 578.8,423.4 577.6,418.7 576.4,422.1 575.1,421.4 573.9,420.2 572.7,425.6 
	571.4,422 570.2,422.8 569,422.7 567.8,425.1 566.5,418.7 565.3,421.3 564.1,422.8 562.8,421.9 561.6,423.8 560.4,421.5 
	559.1,421.9 557.9,422.6 556.6,419.5 555.4,418.4 554.2,424.6 552.9,423.3 551.7,425.4 550.5,420.2 549.2,422 548,425 546.8,420.1 
	545.5,424 544.3,420.5 543.1,424.7 541.8,425.7 540.6,418.4 539.3,422.2 538.1,424.1 536.9,422.5 535.6,423.9 534.4,424.6 
	533.1,425.7 531.9,424.4 530.7,423.5 529.4,419.7 528.2,420.1 526.9,422.2 525.7,423.7 524.5,421.7 523.2,418.6 522,424.9 
	520.8,420.2 519.5,420.7 518.3,420.4 517.1,420.2 515.8,418.8 514.6,421.2 513.4,421.1 512.1,425.1 510.9,422.9 509.7,423.3 
	508.4,422.1 507.2,422.8 505.9,422.7 504.7,422.8 503.5,423.9 502.2,419 501,420.5 499.8,418.2 498.5,424.5 497.3,421.8 496,419.6 
	494.8,422.6 493.6,421.7 492.3,423.8 491.1,419.5 489.9,424.1 488.6,424.6 487.4,422.7 486.1,421.3 484.9,422.5 483.7,419.9 
	482.4,425.7 481.2,424.4 479.9,424.9 478.7,420.2 477.5,423 476.2,425.6 475,419.2 473.8,425.8 472.5,420.3 471.3,418.4 470,425.6 
	468.8,419.1 467.6,423.2 466.3,425.8 465.1,419.3 463.8,422.4 462.6,418.2 461.4,418.4 460.1,419 458.9,424.3 457.6,418.5 
	456.4,420 455.2,418.7 453.9,419.1 452.7,421.9 451.5,422.5 450.2,424.5 449,419 447.7,423.2 446.5,419.3 445.3,423.5 444,423.6 
	442.8,422 441.6,425.5 440.3,421.1 439.1,418.6 437.8,422.2 436.6,424.4 435.4,419.9 434.1,421.5 432.9,425.7 431.7,425.3 
	430.4,423.7 429.2,422.8 428,423.9 426.7,423.9 425.5,423.9 424.3,423.5 423,420.2 421.8,421.4 420.5,421.6 419.3,419.9 
	418.1,425.6 416.8,423.1 415.6,418.3 414.4,419.3 413.1,423 411.9,419.5 410.7,421.7 409.4,421.7 408.2,418.2 406.9,424.8 
	405.7,423.4 404.5,423.3 403.2,419.5 402,420.2 400.8,424.1 399.5,419.6 398.3,418.4 397.1,425.4 395.8,425.2 394.6,419.2 
	393.3,419.8 392.1,421.5 390.9,424.7 389.6,424.7 388.4,418.6 387.1,425 385.9,420.5 384.7,418.7 383.4,424.6 382.2,421.4 
	381,419.7 379.7,422.8 378.5,423.9 377.2,420.7 376,419.8 374.8,419.6 373.5,418.5 372.3,425.8 371,421.3 369.8,420.2 368.6,423.7 
	367.3,423.2 366.1,421.9 364.9,424 363.6,419.3 362.4,418.5 361.1,422.2 359.9,419.1 358.7,419 357.4,425.2 356.2,422.3 355,425.7 
	353.7,422.5 352.5,421.5 351.3,424.9 350,423.7 348.8,422.8 347.5,422.9 346.3,424.3 345.1,418.8 343.8,425.8 342.6,423.5 
	341.4,419.3 340.1,421.3 338.9,423.9 337.7,421.7 336.4,422.4 335.2,420.9 334,425.8 332.7,423.9 331.5,425.5 330.3,424.6 
	329,423.9 327.8,424.9 326.6,419.2 325.3,418.8 324.1,424.7 322.9,420.8 321.6,423.6 320.4,420.6 319.2,422.2 317.9,422 
	316.7,422.2 315.5,420.6 314.2,425.4 313,421.9 311.8,424.9 310.5,418.3 309.3,420.1 308,421.3 306.8,420.6 305.6,422.4 
	304.3,421.1 303.1,423 301.9,423.4 300.6,418.5 299.4,419.5 298.2,421.4 296.9,418.2 295.7,420 294.5,418.6 293.2,424.8 292,418.4 
	290.8,422 289.5,424.9 288.3,418.9 287.1,423.9 285.8,419.8 284.6,418.9 283.4,424.9 282.1,418.2 280.9,419.7 279.7,425.1 
	278.4,423.3 277.2,421.3 275.9,425.6 274.7,422.9 273.5,425 272.2,422.6 271,422.3 269.8,423.6 268.5,425.2 267.3,418.4 
	266.1,424.4 264.8,425.5 263.6,420.6 262.3,423.9 261.1,425.5 259.9,418.6 258.6,424.3 257.4,423.2 256.2,425.2 254.9,419.5 
	253.7,422 252.4,419 251.2,422 250,423.9 248.7,418.6 247.5,422.5 246.3,419.9 245,418.3 243.8,419.1 242.5,423.4 241.3,419.4 
	240.1,423.7 238.8,423.1 237.6,424.4 236.4,419.9 235.1,419.6 233.9,423.3 232.6,420 231.4,418.4 230.2,422.3 228.9,418.4 
	227.7,419.8 226.5,423 225.2,418.5 224,422.8 222.8,425.3 221.5,421.9 220.3,420.5 219.1,421.4 217.8,423.4 216.6,425 215.4,423 
	214.1,422.3 212.9,420.2 211.7,419 210.4,424.5 209.2,424.2 208,425.1 206.7,422.8 205.5,419 204.3,420.2 203,422.7 201.8,422.3 
	200.6,420.3 199.3,424.7 198.1,421.6 196.9,424.7 195.6,422.8 194.4,422.4 193.2,424 191.9,419.9 190.7,419.3 189.5,424.8 
	188.2,420 187,420.2 185.8,420.4 184.5,425.8 183.3,421 182.1,425.8 180.8,423.1 179.6,420.6 178.4,420.7 177.1,419.4 175.9,418.3 
	174.7,422.6 173.4,419.8 172.2,422.1 171,421.6 169.8,421.9 168.5,419.4 167.3,421 166.1,419.8 164.8,419.5 163.6,419.7 
	162.4,423.4 161.1,423.7 159.9,425.3 158.7,419.2 157.4,418.7 156.2,419.4 155,418.2 153.8,423 152.5,424.5 151.3,423.9 
	150.1,423.8 148.8,422.4 147.6,421.6 146.4,423.7 145.1,424.1 143.9,424.6 142.7,424.2 141.4,423.2 140.2,423.8 139,425.5 
	137.7,419.6 136.5,420.7 135.3,425.2 134.1,419.7 132.8,425.1 131.6,423.9 130.4,422.8 129.1,424.7 127.9,425.4 126.7,421.9 
	125.4,422 124.2,422.3 123,424.9 121.7,418.8 120.5,423.9 119.3,424.1 118,422.6 116.8,421.9 115.6,419.5 114.4,425 113.1,421.9 
	111.9,421.6 110.7,419.5 109.4,423.6 108.2,420.8 107,423.2 105.7,425.2 104.5,423.2 103.3,419.2 102,423.9 100.8,419.4 99.6,418.4 
	98.3,425.2 97.1,424.8 95.9,422.7 94.6,418.9 93.4,421.4 92.2,424 90.9,424.1 89.7,422.6 88.5,420.3 87.2,421.7 86,422.5 
	84.8,420.2 83.5,421.2 82.3,419.5 81.1,421.1 79.8,420.8 78.6,422.4 77.4,422.6 76.1,425.7 74.9,420 73.7,424.5 72.4,419.4 
	71.2,425.6 70,421 68.7,423.1 67.5,424.4 66.3,418.9 65,424.2 63.8,420.5 62.5,419.7 61.3,420.2 60.1,418.8 58.8,423.8 57.6,420.2 
	56.4,420.9 55.1,421.1 53.9,419.5 52.7,420.6 51.4,424.8 50.2,418.4 48.9,423.9 47.7,425.7 46.5,421.3 45.2,422.9 44,421.6 
	42.8,423.5 41.5,419.3 40.3,425.5 39,423 37.8,423.8 36.6,418.3 35.3,425.2 34.1,421.7 32.9,423.4 31.6,418.9 30.4,420 29.2,421.6 
	27.9,419.8 26.7,423.9 25.5,423.9 24.2,421.9 23,419.1 21.8,425.8 20.5,423.9 19.3,422.1 18.1,422.3 16.8,423.4 15.6,418.9 
	14.4,420.2 13.1,419.1 11.9,425.8 10.7,425.8 9.4,419.9 8.2,420.3 7,424.6 5.7,421.3 4.5,420.1 3.3,419.5 2,422.3 0.8,424.3 
	0,424.8 0,443.7 1.1,443.3 2.3,446.6 3.6,442.3 4.8,443.1 6.1,441.1 7.3,446.4 8.6,439.3 9.8,441.4 11.1,446.3 12.3,442.1 
	13.6,440.9 14.8,444.1 16.1,443.5 17.3,444.2 18.6,440.9 19.8,446.2 21,443.9 22.3,443.6 23.5,442.1 24.8,444 26,443.2 27.3,446.3 
	28.5,444.9 29.8,444.1 31,443.6 32.3,440.3 33.5,439.7 34.8,443.9 36,445.7 37.2,445.1 38.5,444.1 39.7,441.6 41,443.3 42.2,444.4 
	43.5,440.3 44.7,441.9 46,441.7 47.2,445.3 48.4,444.3 49.7,439.4 50.9,446.7 52.1,441.7 53.4,441.3 54.6,444.2 55.9,446.3 
	57.1,440 58.4,439.5 59.6,441.8 60.9,440.5 62.1,440 63.3,440.9 64.6,441.7 65.8,446.3 67.1,445.7 68.3,440.9 69.5,439.6 
	70.8,443.3 72,444.2 73.3,440.9 74.5,446 75.8,441 77,442.1 78.2,446.3 79.5,444.9 80.7,446.3 82,445.2 83.2,443.2 84.5,444.9 
	85.7,445.7 86.9,439.6 88.2,440.6 89.4,444.9 90.7,440.5 91.9,443.6 93.2,439.8 94.4,440.4 95.6,442.2 96.9,444.2 98.1,443.6 
	99.4,446.1 100.6,444.4 101.9,440 103.1,441 104.4,444.8 105.6,445.5 106.8,442.6 108.1,443.3 109.3,446.1 110.6,440.6 111.8,445 
	113,444.8 114.3,443 115.5,440.6 116.8,445.1 118,446 119.2,440.5 120.5,444 121.7,441.3 123,444.1 124.2,444.9 125.4,443.9 
	126.7,442.7 127.9,442 129.2,443 130.4,440.3 131.7,441.7 132.9,443.7 134.1,442.2 135.4,441.8 136.6,444.3 137.9,441.9 139.1,441 
	140.4,440.7 141.6,444.9 142.8,439.4 144.1,446.6 145.3,446.2 146.6,442.2 147.8,444.7 149,439.7 150.3,445.2 151.5,442 
	152.7,443.5 154,441.2 155.2,442.8 156.5,445 157.7,445.5 158.9,443.3 160.2,445.8 161.4,443.2 162.6,443.6 163.9,444 165.1,440.9 
	166.4,444.4 167.6,443.2 168.8,439.5 170.1,445.5 171.3,440.6 172.5,445.4 173.8,445.1 175,446.3 176.3,442 177.5,442.7 
	178.8,443.8 180,439.9 181.2,443.9 182.5,440.7 183.7,442.1 185,444.5 186.2,441.6 187.4,442.1 188.7,440.2 189.9,446.1 
	191.2,445.2 192.4,444.7 193.6,440.7 194.9,444.3 196.1,439.4 197.4,443.7 198.6,442.6 199.8,440.3 201.1,441.7 202.3,442.7 
	203.5,445 204.8,439.6 206,441.1 207.2,443.2 208.5,444.9 209.7,442.2 210.9,440.5 212.2,444.8 213.4,445.7 214.6,440.1 
	215.9,446.3 217.1,443.2 218.3,446.3 219.6,439.2 220.8,444.6 222,442.3 223.3,442.6 224.5,442.5 225.7,444.7 227,444 228.2,441.5 
	229.4,441.9 230.7,444.9 231.9,441 233.1,442.4 234.4,439.9 235.6,440.8 236.8,443.4 238.1,440.2 239.3,441 240.5,445.9 
	241.8,442.8 243,444.7 244.2,441.2 245.5,444.2 246.7,444.9 247.9,444.2 249.2,441.7 250.4,444.5 251.6,442.5 252.9,441.8 
	254.1,444 255.3,442.3 256.6,444.5 257.8,445.2 259.1,445.7 260.3,442.4 261.5,441.8 262.8,445.3 264,440.5 265.3,439.3 
	266.5,440.2 267.7,442.6 269,441.2 270.2,441.9 271.5,440.6 272.7,440.9 273.9,446 275.2,445.4 276.4,444 277.6,443.4 278.9,440.7 
	280.1,445.1 281.3,445.4 282.6,440.8 283.8,445.3 285,441 286.3,440.1 287.5,442.9 288.7,442.2 290,443.6 291.2,446.6 292.5,440.3 
	293.7,446.7 294.9,445.3 296.2,443.9 297.4,442.5 298.6,445.6 299.9,443.4 301.1,444.5 302.4,440.8 303.6,444.9 304.8,443.3 
	306.1,439.6 307.3,440 308.5,439.5 309.8,440.3 311,444.2 312.3,439.8 313.5,446.4 314.7,441.1 316,441.3 317.2,440.9 318.4,442.2 
	319.7,439.2 320.9,444.5 322.2,440 323.4,442.1 324.6,441.5 325.9,440 327.1,443.6 328.4,443.9 329.6,439.8 330.8,442.7 
	332.1,441.2 333.3,442.8 334.6,446.5 335.8,443.3 337,445 338.3,442.6 339.5,441.6 340.8,441 342,444.2 343.2,445.1 344.5,443 
	345.7,440.2 346.9,442.6 348.2,441.9 349.4,439.6 350.7,445.1 351.9,443.7 353.1,446.3 354.4,445.9 355.6,442.7 356.8,442.2 
	358.1,442.5 359.3,439.2 360.6,442.1 361.8,442.4 363,443.2 364.3,439.3 365.5,444.2 366.7,446.5 368,441.7 369.2,445.4 
	370.4,439.6 371.7,446.2 372.9,440.3 374.1,444.3 375.4,440.5 376.6,441.6 377.9,442.6 379.1,441.7 380.3,444.7 381.6,440.8 
	382.8,444.1 384,439.5 385.3,443.9 386.5,441.7 387.7,440.5 389,442.6 390.2,444.5 391.5,443.1 392.7,441.7 393.9,446.2 
	395.2,444.5 396.4,446.4 397.6,440.8 398.9,443.7 400.1,440.5 401.3,441.9 402.6,442.9 403.8,442.7 405.1,441.6 406.3,441.2 
	407.5,440.1 408.8,445.6 410,446.2 411.3,442.4 412.5,446.1 413.7,444 415,445.4 416.2,441.5 417.4,446 418.7,443.8 419.9,446.5 
	421.2,440.3 422.4,443.3 423.6,440.8 424.9,441.2 426.1,440.9 427.4,444.8 428.6,439.4 429.8,443.8 431.1,445.2 432.3,442.2 
	433.5,443.1 434.8,446.8 436,442.2 437.3,446.4 438.5,446.7 439.7,442.2 441,440.8 442.2,441.9 443.4,444.2 444.7,440 445.9,445.7 
	447.1,445.9 448.4,443.8 449.6,441.1 450.9,441.4 452.1,441.8 453.3,442.5 454.6,441 455.8,443.7 457,439.8 458.3,443.6 
	459.5,445.3 460.7,445.9 462,442.3 463.2,446.5 464.4,442.3 465.7,441.6 466.9,443.4 468.1,446.8 469.4,444.8 470.6,442.9 
	471.8,440.2 473.1,444.7 474.3,446.4 475.5,446.5 476.8,439.8 478,445.4 479.2,442.1 480.5,443.1 481.7,446.7 483,442.8 
	484.2,443.9 485.4,444.5 486.7,445.1 487.9,446.6 489.1,441.4 490.4,440.5 491.6,446 492.8,443.7 494.1,445.3 495.3,444.5 
	496.5,444.3 497.8,439.8 499,439.9 500.2,446.6 501.5,446.8 502.7,440.1 503.9,445.9 505.2,442.2 506.4,442.6 507.6,446 
	508.9,441.7 510.1,445.6 511.3,442 512.6,442.9 513.8,444.1 515,442.8 516.3,442.1 517.5,440.1 518.7,443.2 520,446.1 521.2,446.6 
	522.5,444.9 523.7,446.4 524.9,442.5 526.2,441.1 527.4,440.6 528.6,441.6 529.9,446.1 531.1,445 532.3,443 533.6,441.9 
	534.8,445.3 536.1,443 537.3,442 538.5,445 539.8,440.4 541,445.5 542.2,442.9 543.5,439.5 544.7,446.3 546,443 547.2,444.4 
	548.4,444.4 549.7,441 550.9,444.4 552.1,444.4 553.4,444.7 554.6,442.5 555.9,445.8 557.1,441.9 558.3,441.1 559.6,440.5 
	560.8,445 562,440.5 563.3,444.8 564.5,441.9 565.8,439.4 567,446.5 568.2,444 569.5,442.5 570.7,446.3 571.9,442.8 573.2,441.5 
	574.4,444.8 575.6,445.1 576.9,439.7 578.1,444.7 579.3,441.7 580.6,440.5 581.8,444.5 583.1,445.4 584.3,439.4 585.5,439.7 
	586.8,444.8 588,439.8 589.2,440.9 590.5,442.5 591.7,439.7 592.9,441.7 594.2,439.4 595.4,445.7 596.6,441.9 597.9,446.8 
	599.1,441.5 600.3,443.1 601.6,442 602.8,440.4 604,442.3 605.2,440 606.5,441.6 607.7,443.3 608.9,445.9 610.2,440.2 611.4,445 
	612.6,443.5 613.9,446.8 615.1,446.4 616.3,441.1 617.6,446.3 618.8,443 620,440.3 621.3,441.7 622.5,444 623.7,443 625,445.3 
	626.2,445.7 627.4,446.1 628.7,443.2 629.9,445.3 631.1,441.7 632.3,440.5 633.6,439.5 634.8,446.4 636,442.1 637.3,441 
	638.5,442.2 639.7,440.9 641,445.9 642.2,446.2 643.4,440.8 644.7,445.3 645.9,445.1 647.1,442.4 648.3,443.4 649.6,446.5 
	650.8,442.6 652,443.8 653.3,444.6 654.5,444.7 655.7,441.9 657,442.2 658.2,446 659.4,443.8 660.7,445.9 661.9,442.6 663.1,444.9 
	664.4,444.1 665.6,440.7 666.8,443.1 668,446.7 669.3,444.6 670.5,439.4 671.7,442.8 673,446.6 674.2,446.8 675.4,440 676.7,443 
	677.9,444.8 679.1,444.1 680.4,440.1 681.6,440.9 682.8,439.2 684.1,444.2 685.3,440.9 686.5,444.2 687.7,445.8 689,444.4 
	690.2,443.7 691.4,442.4 692.7,444.5 693.9,440.3 695.1,441.2 696.4,440.2 697.6,445.7 698.8,440.5 700.1,444.6 701.3,445 
	702.5,446 703.8,445.2 705,442 706.2,441.5 707.5,443.9 708.7,445.8 709.9,444.3 711.2,446.7 712.4,446.4 713.6,440.4 714.9,443.6 
	716.1,441.5 717.3,444.9 718.6,441.5 719.8,442.5 721,445.9 722.3,444.7 723.5,443.3 724.7,446.4 726,444.4 727.2,442.4 
	728.4,442.6 729.7,440.2 730.9,443.1 732.2,442.2 733.4,443 734.6,441.1 735.9,440.8 737.1,445.9 738.3,441.5 739.6,440.2 
	740.8,443.9 742,444.2 743.3,444.9 744.5,442.1 745.7,444.8 747,443.7 748.2,445 749.5,444.1 750.7,446.8 751.9,444.7 753.2,446.1 
	754.4,441.4 755.6,440.9 756.9,439.3 758.1,443.1 759.4,439.7 760.6,440.3 761.8,446.4 763.1,443.5 764.3,444.1 765.5,446.5 
	766.8,446.6 768,440.1 769.2,446.3 770.5,446.5 771.7,446.4 772.9,442 774.2,446.7 775.4,444.6 776.6,444.1 777.9,440.6 
	779.1,441.7 780.3,443.5 781.6,442.6 782.8,441.2 784,443.9 785.3,441.2 786.5,441.1 787.7,444.4 789,441 790.2,441.7 791.4,445.1 
	792.7,446.3 793.9,440.2 795.1,445.9 796.4,441.4 797.6,442 798.8,440.5 800.1,445.8 801,446 801,420.5 "/>
<g>
	<path fill="#FFFFFF" d="M162,84c0,0,40,6.7,63,5.2"/>
	<path fill="#FFFFFF" d="M208.3,103.5c-49.2,5.2-135.3-6-135.3-6L208.3,103.5z"/>
</g>
<path fill="#FFFFFF" d="M687,223.6c0,0,45.4,7.6,71.5,5.9"/>
<path fill="#FFFFFF" d="M739.5,245.7c-55.8,5.9-153.6-6.8-153.6-6.8L739.5,245.7z"/>
<polyline fill="#59A9C1" points="479.5,318.4 534.7,322.6 622.2,315.5 669.8,309.1 700.2,312.8 743.1,318.6 760.6,315.9 801,320.9 
	801,333.3 479.5,332.6 "/>
<g>
	<rect x="541.6" y="345.5" fill="#96462D" width="1.5" height="3.1"/>
	<path fill="#18853B" d="M542.3,345.5c2.2,0,4-1.8,4-4s-1.8-4-4-4"/>
	<path fill="#36AD4D" d="M542.3,345.5c-2.2,0-4-1.8-4-4s1.8-4,4-4"/>
</g>
<polygon fill="#6FC8DD" points="572.7,319.6 669.8,309.1 646.6,317.5 "/>
<path fill="#087284" d="M540.3,397.9l-10.8-32.1L517,354.7l-7.4-0.3l-3.4-3.1l3.4-2.3v-6.8l-2.8-6l1.7-3.1v-8l-2.3-11.9l-11.7-8.5
	l-8.8-3.4l-11.9,3.4l-10.3,5.1l-6.1-10.9l-15.9-50.3l-2.4,0.2l19.8,82.5l-2.3,4.3l-27.3,41.2l-8.8,27l3.4,8.8l13.1,1.4l2.6,4.5
	l22.7-2l0.2,77.8h81.6v-34.6v-21.3L540.3,397.9z M447.9,382.8l9-19.1l3.5-12.5l6.8-1.3l1.8,19.5L447.9,382.8z"/>
<g>
	<path fill="#C5C2BB" d="M299.9,154.3c-5.1,0-9.3-0.2-10.5-1.6c-0.3,0.4-0.4,0.8-0.4,1.1c0,2.3,4.9,2.5,10.9,2.5s10.9-0.2,10.9-2.5
		c0-0.4-0.1-0.7-0.3-1.1C309.2,154.2,304.9,154.3,299.9,154.3z"/>
	<path fill="#FFFFFF" d="M299.9,154.3c5.1,0,9.3-0.2,10.5-1.6c-1.2-2.2-5.5-4.7-10.5-4.7c-5.1,0-9.4,2.5-10.6,4.7
		C290.5,154.2,294.8,154.3,299.9,154.3z"/>
</g>
</svg>
