<?xml version="1.0" encoding="utf-8"?>
<!-- Generator: Adobe Illustrator 19.1.0, SVG Export Plug-In . SVG Version: 6.00 Build 0)  -->
<svg version="1.1" xmlns="http://www.w3.org/2000/svg" xmlns:xlink="http://www.w3.org/1999/xlink" x="0px" y="0px" width="800px"
	 height="494px" viewBox="0 0 800 494" enable-background="new 0 0 800 494" xml:space="preserve">
<g id="レイヤー_1">
	<rect fill="#231815" width="800" height="494"/>
	<rect x="72.3" fill="#940007" width="655.3" height="494"/>
	<rect x="72.3" fill="#A00D1C" width="655.3" height="60"/>
	<rect x="72.3" y="60" fill="#6D0F18" width="655.3" height="23"/>
	<rect x="72.3" y="412" fill="#6D0F18" width="655.3" height="82"/>
</g>
<g id="レイヤー_2">
	<g>
		<g>
			<circle cx="200" cy="236.9" r="21.2"/>
			<path fill="#FFEF15" d="M217,246c1.9-3.2,3.1-6.6,3.1-10.6c0-12-9.5-21.4-21.4-21.4c0,0-0.8,0-0.8,0v21.1L217,246z"/>
			<path fill="#FFFFFF" d="M197.9,213.8c-11,0-21.3,9.7-21.3,21.7c0,3.9,0.9,7.6,2.7,10.8l18.5-10.8V213.8z"/>
			<path fill="#ADA23E" d="M198.2,235.5l-18.7,10.8c3.7,6.5,10.8,10.9,18.8,10.9c8,0,15-4.3,18.7-10.8L198.2,235.5z"/>
		</g>
		<circle fill="#F9FF6A" cx="199.1" cy="235.2" r="16.6"/>
	</g>
	<g>
		<g>
			<circle cx="260" cy="266.9" r="21.2"/>
			<path fill="#FFEF15" d="M277,276c1.9-3.2,3.1-6.6,3.1-10.6c0-12-9.5-21.4-21.4-21.4c0,0-0.8,0-0.8,0v21.1L277,276z"/>
			<path fill="#FFFFFF" d="M257.9,243.8c-11,0-21.3,9.7-21.3,21.7c0,3.9,0.9,7.6,2.7,10.8l18.5-10.8V243.8z"/>
			<path fill="#ADA23E" d="M258.2,265.5l-18.7,10.8c3.7,6.5,10.8,10.9,18.8,10.9c8,0,15-4.3,18.7-10.8L258.2,265.5z"/>
		</g>
		<circle fill="#F9FF6A" cx="259.1" cy="265.2" r="16.6"/>
	</g>
	<g>
		<g>
			<circle cx="200" cy="296.9" r="21.2"/>
			<path fill="#FFEF15" d="M217,306c1.9-3.2,3.1-6.6,3.1-10.6c0-12-9.5-21.4-21.4-21.4c0,0-0.8,0-0.8,0v21.1L217,306z"/>
			<path fill="#FFFFFF" d="M197.9,273.8c-11,0-21.3,9.7-21.3,21.7c0,3.9,0.9,7.6,2.7,10.8l18.5-10.8V273.8z"/>
			<path fill="#ADA23E" d="M198.2,295.5l-18.7,10.8c3.7,6.5,10.8,10.9,18.8,10.9c8,0,15-4.3,18.7-10.8L198.2,295.5z"/>
		</g>
		<circle fill="#F9FF6A" cx="199.1" cy="295.2" r="16.6"/>
	</g>
	<g>
		<g>
			<circle cx="231" cy="184.9" r="21.2"/>
			<path fill="#FFEF15" d="M248,194c1.9-3.2,3.1-6.6,3.1-10.6c0-12-9.5-21.4-21.4-21.4c0,0-0.8,0-0.8,0v21.1L248,194z"/>
			<path fill="#FFFFFF" d="M228.9,161.8c-11,0-21.3,9.7-21.3,21.7c0,3.9,0.9,7.6,2.7,10.8l18.5-10.8V161.8z"/>
			<path fill="#ADA23E" d="M229.2,183.5l-18.7,10.8c3.7,6.5,10.8,10.9,18.8,10.9c8,0,15-4.3,18.7-10.8L229.2,183.5z"/>
		</g>
		<circle fill="#F9FF6A" cx="230.1" cy="183.2" r="16.6"/>
	</g>
	<g>
		<g>
			<circle cx="291" cy="214.9" r="21.2"/>
			<path fill="#FFEF15" d="M308,224c1.9-3.2,3.1-6.6,3.1-10.6c0-12-9.5-21.4-21.4-21.4c0,0-0.8,0-0.8,0v21.1L308,224z"/>
			<path fill="#FFFFFF" d="M288.9,191.8c-11,0-21.3,9.7-21.3,21.7c0,3.9,0.9,7.6,2.7,10.8l18.5-10.8V191.8z"/>
			<path fill="#ADA23E" d="M289.2,213.5l-18.7,10.8c3.7,6.5,10.8,10.9,18.8,10.9c8,0,15-4.3,18.7-10.8L289.2,213.5z"/>
		</g>
		<circle fill="#F9FF6A" cx="290.1" cy="213.2" r="16.6"/>
	</g>
	<g>
		<g>
			<circle cx="231" cy="244.9" r="21.2"/>
			<path fill="#FFEF15" d="M248,254c1.9-3.2,3.1-6.6,3.1-10.6c0-12-9.5-21.4-21.4-21.4c0,0-0.8,0-0.8,0v21.1L248,254z"/>
			<path fill="#FFFFFF" d="M228.9,221.8c-11,0-21.3,9.7-21.3,21.7c0,3.9,0.9,7.6,2.7,10.8l18.5-10.8V221.8z"/>
			<path fill="#ADA23E" d="M229.2,243.5l-18.7,10.8c3.7,6.5,10.8,10.9,18.8,10.9c8,0,15-4.3,18.7-10.8L229.2,243.5z"/>
		</g>
		<circle fill="#F9FF6A" cx="230.1" cy="243.2" r="16.6"/>
	</g>
	<g>
		<g>
			<circle cx="155" cy="263.9" r="21.2"/>
			<path fill="#FFEF15" d="M172,273c1.9-3.2,3.1-6.6,3.1-10.6c0-12-9.5-21.4-21.4-21.4c0,0-0.8,0-0.8,0v21.1L172,273z"/>
			<path fill="#FFFFFF" d="M152.9,240.8c-11,0-21.3,9.7-21.3,21.7c0,3.9,0.9,7.6,2.7,10.8l18.5-10.8V240.8z"/>
			<path fill="#ADA23E" d="M153.2,262.5l-18.7,10.8c3.7,6.5,10.8,10.9,18.8,10.9c8,0,15-4.3,18.7-10.8L153.2,262.5z"/>
		</g>
		<circle fill="#F9FF6A" cx="154.1" cy="262.2" r="16.6"/>
	</g>
	<g>
		<g>
			<circle cx="353" cy="318.9" r="21.2"/>
			<path fill="#FFEF15" d="M370,328c1.9-3.2,3.1-6.6,3.1-10.6c0-12-9.5-21.4-21.4-21.4c0,0-0.8,0-0.8,0v21.1L370,328z"/>
			<path fill="#FFFFFF" d="M350.9,295.8c-11,0-21.3,9.7-21.3,21.7c0,3.9,0.9,7.6,2.7,10.8l18.5-10.8V295.8z"/>
			<path fill="#ADA23E" d="M351.2,317.5l-18.7,10.8c3.7,6.5,10.8,10.9,18.8,10.9c8,0,15-4.3,18.7-10.8L351.2,317.5z"/>
		</g>
		<circle fill="#F9FF6A" cx="352.1" cy="317.2" r="16.6"/>
	</g>
	<g>
		<g>
			<circle cx="293" cy="348.9" r="21.2"/>
			<path fill="#FFEF15" d="M310,358c1.9-3.2,3.1-6.6,3.1-10.6c0-12-9.5-21.4-21.4-21.4c0,0-0.8,0-0.8,0v21.1L310,358z"/>
			<path fill="#FFFFFF" d="M290.9,325.8c-11,0-21.3,9.7-21.3,21.7c0,3.9,0.9,7.6,2.7,10.8l18.5-10.8V325.8z"/>
			<path fill="#ADA23E" d="M291.2,347.5l-18.7,10.8c3.7,6.5,10.8,10.9,18.8,10.9c8,0,15-4.3,18.7-10.8L291.2,347.5z"/>
		</g>
		<circle fill="#F9FF6A" cx="292.1" cy="347.2" r="16.6"/>
	</g>
	<g>
		<g>
			<circle cx="177" cy="194.9" r="21.2"/>
			<path fill="#FFEF15" d="M194,204c1.9-3.2,3.1-6.6,3.1-10.6c0-12-9.5-21.4-21.4-21.4c0,0-0.8,0-0.8,0v21.1L194,204z"/>
			<path fill="#FFFFFF" d="M174.9,171.8c-11,0-21.3,9.7-21.3,21.7c0,3.9,0.9,7.6,2.7,10.8l18.5-10.8V171.8z"/>
			<path fill="#ADA23E" d="M175.2,193.5l-18.7,10.8c3.7,6.5,10.8,10.9,18.8,10.9c8,0,15-4.3,18.7-10.8L175.2,193.5z"/>
		</g>
		<circle fill="#F9FF6A" cx="176.1" cy="193.2" r="16.6"/>
	</g>
	<g>
		<g>
			<circle cx="384" cy="266.9" r="21.2"/>
			<path fill="#FFEF15" d="M401,276c1.9-3.2,3.1-6.6,3.1-10.6c0-12-9.5-21.4-21.4-21.4c0,0-0.8,0-0.8,0v21.1L401,276z"/>
			<path fill="#FFFFFF" d="M381.9,243.8c-11,0-21.3,9.7-21.3,21.7c0,3.9,0.9,7.6,2.7,10.8l18.5-10.8V243.8z"/>
			<path fill="#ADA23E" d="M382.2,265.5l-18.7,10.8c3.7,6.5,10.8,10.9,18.8,10.9c8,0,15-4.3,18.7-10.8L382.2,265.5z"/>
		</g>
		<circle fill="#F9FF6A" cx="383.1" cy="265.2" r="16.6"/>
	</g>
	<g>
		<g>
			<circle cx="324" cy="296.9" r="21.2"/>
			<path fill="#FFEF15" d="M341,306c1.9-3.2,3.1-6.6,3.1-10.6c0-12-9.5-21.4-21.4-21.4c0,0-0.8,0-0.8,0v21.1L341,306z"/>
			<path fill="#FFFFFF" d="M321.9,273.8c-11,0-21.3,9.7-21.3,21.7c0,3.9,0.9,7.6,2.7,10.8l18.5-10.8V273.8z"/>
			<path fill="#ADA23E" d="M322.2,295.5l-18.7,10.8c3.7,6.5,10.8,10.9,18.8,10.9c8,0,15-4.3,18.7-10.8L322.2,295.5z"/>
		</g>
		<circle fill="#F9FF6A" cx="323.1" cy="295.2" r="16.6"/>
	</g>
	<g>
		<g>
			<circle cx="320" cy="166.9" r="21.2"/>
			<path fill="#FFEF15" d="M337,176c1.9-3.2,3.1-6.6,3.1-10.6c0-12-9.5-21.4-21.4-21.4c0,0-0.8,0-0.8,0v21.1L337,176z"/>
			<path fill="#FFFFFF" d="M317.9,143.8c-11,0-21.3,9.7-21.3,21.7c0,3.9,0.9,7.6,2.7,10.8l18.5-10.8V143.8z"/>
			<path fill="#ADA23E" d="M318.2,165.5l-18.7,10.8c3.7,6.5,10.8,10.9,18.8,10.9c8,0,15-4.3,18.7-10.8L318.2,165.5z"/>
		</g>
		<circle fill="#F9FF6A" cx="319.1" cy="165.2" r="16.6"/>
	</g>
	<g>
		<g>
			<circle cx="380" cy="196.9" r="21.2"/>
			<path fill="#FFEF15" d="M397,206c1.9-3.2,3.1-6.6,3.1-10.6c0-12-9.5-21.4-21.4-21.4c0,0-0.8,0-0.8,0v21.1L397,206z"/>
			<path fill="#FFFFFF" d="M377.9,173.8c-11,0-21.3,9.7-21.3,21.7c0,3.9,0.9,7.6,2.7,10.8l18.5-10.8V173.8z"/>
			<path fill="#ADA23E" d="M378.2,195.5l-18.7,10.8c3.7,6.5,10.8,10.9,18.8,10.9c8,0,15-4.3,18.7-10.8L378.2,195.5z"/>
		</g>
		<circle fill="#F9FF6A" cx="379.1" cy="195.2" r="16.6"/>
	</g>
	<g>
		<g>
			<circle cx="199" cy="127.9" r="21.2"/>
			<path fill="#FFEF15" d="M216,137c1.9-3.2,3.1-6.6,3.1-10.6c0-12-9.5-21.4-21.4-21.4c0,0-0.8,0-0.8,0v21.1L216,137z"/>
			<path fill="#FFFFFF" d="M196.9,104.8c-11,0-21.3,9.7-21.3,21.7c0,3.9,0.9,7.6,2.7,10.8l18.5-10.8V104.8z"/>
			<path fill="#ADA23E" d="M197.2,126.5l-18.7,10.8c3.7,6.5,10.8,10.9,18.8,10.9c8,0,15-4.3,18.7-10.8L197.2,126.5z"/>
		</g>
		<circle fill="#F9FF6A" cx="198.1" cy="126.2" r="16.6"/>
	</g>
	<g>
		<g>
			<circle cx="125" cy="293.9" r="21.2"/>
			<path fill="#FFEF15" d="M142,303c1.9-3.2,3.1-6.6,3.1-10.6c0-12-9.5-21.4-21.4-21.4c0,0-0.8,0-0.8,0v21.1L142,303z"/>
			<path fill="#FFFFFF" d="M122.9,270.8c-11,0-21.3,9.7-21.3,21.7c0,3.9,0.9,7.6,2.7,10.8l18.5-10.8V270.8z"/>
			<path fill="#ADA23E" d="M123.2,292.5l-18.7,10.8c3.7,6.5,10.8,10.9,18.8,10.9c8,0,15-4.3,18.7-10.8L123.2,292.5z"/>
		</g>
		<circle fill="#F9FF6A" cx="124.1" cy="292.2" r="16.6"/>
	</g>
	<g>
		<g>
			<circle cx="147" cy="224.9" r="21.2"/>
			<path fill="#FFEF15" d="M164,234c1.9-3.2,3.1-6.6,3.1-10.6c0-12-9.5-21.4-21.4-21.4c0,0-0.8,0-0.8,0v21.1L164,234z"/>
			<path fill="#FFFFFF" d="M144.9,201.8c-11,0-21.3,9.7-21.3,21.7c0,3.9,0.9,7.6,2.7,10.8l18.5-10.8V201.8z"/>
			<path fill="#ADA23E" d="M145.2,223.5l-18.7,10.8c3.7,6.5,10.8,10.9,18.8,10.9c8,0,15-4.3,18.7-10.8L145.2,223.5z"/>
		</g>
		<circle fill="#F9FF6A" cx="146.1" cy="223.2" r="16.6"/>
	</g>
	<g>
		<g>
			<circle cx="169" cy="157.9" r="21.2"/>
			<path fill="#FFEF15" d="M186,167c1.9-3.2,3.1-6.6,3.1-10.6c0-12-9.5-21.4-21.4-21.4c0,0-0.8,0-0.8,0v21.1L186,167z"/>
			<path fill="#FFFFFF" d="M166.9,134.8c-11,0-21.3,9.7-21.3,21.7c0,3.9,0.9,7.6,2.7,10.8l18.5-10.8V134.8z"/>
			<path fill="#ADA23E" d="M167.2,156.5l-18.7,10.8c3.7,6.5,10.8,10.9,18.8,10.9c8,0,15-4.3,18.7-10.8L167.2,156.5z"/>
		</g>
		<circle fill="#F9FF6A" cx="168.1" cy="156.2" r="16.6"/>
	</g>
	<g>
		<g>
			<circle cx="175" cy="333.9" r="21.2"/>
			<path fill="#FFEF15" d="M192,343c1.9-3.2,3.1-6.6,3.1-10.6c0-12-9.5-21.4-21.4-21.4c0,0-0.8,0-0.8,0v21.1L192,343z"/>
			<path fill="#FFFFFF" d="M172.9,310.8c-11,0-21.3,9.7-21.3,21.7c0,3.9,0.9,7.6,2.7,10.8l18.5-10.8V310.8z"/>
			<path fill="#ADA23E" d="M173.2,332.5l-18.7,10.8c3.7,6.5,10.8,10.9,18.8,10.9c8,0,15-4.3,18.7-10.8L173.2,332.5z"/>
		</g>
		<circle fill="#F9FF6A" cx="174.1" cy="332.2" r="16.6"/>
	</g>
	<g>
		<g>
			<circle cx="197" cy="264.9" r="21.2"/>
			<path fill="#FFEF15" d="M214,274c1.9-3.2,3.1-6.6,3.1-10.6c0-12-9.5-21.4-21.4-21.4c0,0-0.8,0-0.8,0v21.1L214,274z"/>
			<path fill="#FFFFFF" d="M194.9,241.8c-11,0-21.3,9.7-21.3,21.7c0,3.9,0.9,7.6,2.7,10.8l18.5-10.8V241.8z"/>
			<path fill="#ADA23E" d="M195.2,263.5l-18.7,10.8c3.7,6.5,10.8,10.9,18.8,10.9c8,0,15-4.3,18.7-10.8L195.2,263.5z"/>
		</g>
		<circle fill="#F9FF6A" cx="196.1" cy="263.2" r="16.6"/>
	</g>
	<g>
		<g>
			<circle cx="219" cy="197.9" r="21.2"/>
			<path fill="#FFEF15" d="M236,207c1.9-3.2,3.1-6.6,3.1-10.6c0-12-9.5-21.4-21.4-21.4c0,0-0.8,0-0.8,0v21.1L236,207z"/>
			<path fill="#FFFFFF" d="M216.9,174.8c-11,0-21.3,9.7-21.3,21.7c0,3.9,0.9,7.6,2.7,10.8l18.5-10.8V174.8z"/>
			<path fill="#ADA23E" d="M217.2,196.5l-18.7,10.8c3.7,6.5,10.8,10.9,18.8,10.9c8,0,15-4.3,18.7-10.8L217.2,196.5z"/>
		</g>
		<circle fill="#F9FF6A" cx="218.1" cy="196.2" r="16.6"/>
	</g>
	<g>
		<g>
			<circle cx="351" cy="114.9" r="21.2"/>
			<path fill="#FFEF15" d="M368,124c1.9-3.2,3.1-6.6,3.1-10.6c0-12-9.5-21.4-21.4-21.4c0,0-0.8,0-0.8,0v21.1L368,124z"/>
			<path fill="#FFFFFF" d="M348.9,91.8c-11,0-21.3,9.7-21.3,21.7c0,3.9,0.9,7.6,2.7,10.8l18.5-10.8V91.8z"/>
			<path fill="#ADA23E" d="M349.2,113.5l-18.7,10.8c3.7,6.5,10.8,10.9,18.8,10.9c8,0,15-4.3,18.7-10.8L349.2,113.5z"/>
		</g>
		<circle fill="#F9FF6A" cx="350.1" cy="113.2" r="16.6"/>
	</g>
	<g>
		<g>
			<circle cx="411" cy="144.9" r="21.2"/>
			<path fill="#FFEF15" d="M428,154c1.9-3.2,3.1-6.6,3.1-10.6c0-12-9.5-21.4-21.4-21.4c0,0-0.8,0-0.8,0v21.1L428,154z"/>
			<path fill="#FFFFFF" d="M408.9,121.8c-11,0-21.3,9.7-21.3,21.7c0,3.9,0.9,7.6,2.7,10.8l18.5-10.8V121.8z"/>
			<path fill="#ADA23E" d="M409.2,143.5l-18.7,10.8c3.7,6.5,10.8,10.9,18.8,10.9c8,0,15-4.3,18.7-10.8L409.2,143.5z"/>
		</g>
		<circle fill="#F9FF6A" cx="410.1" cy="143.2" r="16.6"/>
	</g>
	<g>
		<g>
			<circle cx="290" cy="160.9" r="21.2"/>
			<path fill="#FFEF15" d="M307,170c1.9-3.2,3.1-6.6,3.1-10.6c0-12-9.5-21.4-21.4-21.4c0,0-0.8,0-0.8,0v21.1L307,170z"/>
			<path fill="#FFFFFF" d="M287.9,137.8c-11,0-21.3,9.7-21.3,21.7c0,3.9,0.9,7.6,2.7,10.8l18.5-10.8V137.8z"/>
			<path fill="#ADA23E" d="M288.2,159.5l-18.7,10.8c3.7,6.5,10.8,10.9,18.8,10.9c8,0,15-4.3,18.7-10.8L288.2,159.5z"/>
		</g>
		<circle fill="#F9FF6A" cx="289.1" cy="159.2" r="16.6"/>
	</g>
	<g>
		<g>
			<circle cx="363" cy="249.9" r="21.2"/>
			<path fill="#FFEF15" d="M380,259c1.9-3.2,3.1-6.6,3.1-10.6c0-12-9.5-21.4-21.4-21.4c0,0-0.8,0-0.8,0v21.1L380,259z"/>
			<path fill="#FFFFFF" d="M360.9,226.8c-11,0-21.3,9.7-21.3,21.7c0,3.9,0.9,7.6,2.7,10.8l18.5-10.8V226.8z"/>
			<path fill="#ADA23E" d="M361.2,248.5l-18.7,10.8c3.7,6.5,10.8,10.9,18.8,10.9c8,0,15-4.3,18.7-10.8L361.2,248.5z"/>
		</g>
		<circle fill="#F9FF6A" cx="362.1" cy="248.2" r="16.6"/>
	</g>
	<g>
		<g>
			<circle cx="473" cy="248.9" r="21.2"/>
			<path fill="#FFEF15" d="M490,258c1.9-3.2,3.1-6.6,3.1-10.6c0-12-9.5-21.4-21.4-21.4c0,0-0.8,0-0.8,0v21.1L490,258z"/>
			<path fill="#FFFFFF" d="M470.9,225.8c-11,0-21.3,9.7-21.3,21.7c0,3.9,0.9,7.6,2.7,10.8l18.5-10.8V225.8z"/>
			<path fill="#ADA23E" d="M471.2,247.5l-18.7,10.8c3.7,6.5,10.8,10.9,18.8,10.9c8,0,15-4.3,18.7-10.8L471.2,247.5z"/>
		</g>
		<circle fill="#F9FF6A" cx="472.1" cy="247.2" r="16.6"/>
	</g>
	<g>
		<g>
			<circle cx="413" cy="278.9" r="21.2"/>
			<path fill="#FFEF15" d="M430,288c1.9-3.2,3.1-6.6,3.1-10.6c0-12-9.5-21.4-21.4-21.4c0,0-0.8,0-0.8,0v21.1L430,288z"/>
			<path fill="#FFFFFF" d="M410.9,255.8c-11,0-21.3,9.7-21.3,21.7c0,3.9,0.9,7.6,2.7,10.8l18.5-10.8V255.8z"/>
			<path fill="#ADA23E" d="M411.2,277.5l-18.7,10.8c3.7,6.5,10.8,10.9,18.8,10.9c8,0,15-4.3,18.7-10.8L411.2,277.5z"/>
		</g>
		<circle fill="#F9FF6A" cx="412.1" cy="277.2" r="16.6"/>
	</g>
	<g>
		<g>
			<circle cx="444" cy="166.9" r="21.2"/>
			<path fill="#FFEF15" d="M461,176c1.9-3.2,3.1-6.6,3.1-10.6c0-12-9.5-21.4-21.4-21.4c0,0-0.8,0-0.8,0v21.1L461,176z"/>
			<path fill="#FFFFFF" d="M441.9,143.8c-11,0-21.3,9.7-21.3,21.7c0,3.9,0.9,7.6,2.7,10.8l18.5-10.8V143.8z"/>
			<path fill="#ADA23E" d="M442.2,165.5l-18.7,10.8c3.7,6.5,10.8,10.9,18.8,10.9c8,0,15-4.3,18.7-10.8L442.2,165.5z"/>
		</g>
		<circle fill="#F9FF6A" cx="443.1" cy="165.2" r="16.6"/>
	</g>
	<g>
		<g>
			<circle cx="504" cy="196.9" r="21.2"/>
			<path fill="#FFEF15" d="M521,206c1.9-3.2,3.1-6.6,3.1-10.6c0-12-9.5-21.4-21.4-21.4c0,0-0.8,0-0.8,0v21.1L521,206z"/>
			<path fill="#FFFFFF" d="M501.9,173.8c-11,0-21.3,9.7-21.3,21.7c0,3.9,0.9,7.6,2.7,10.8l18.5-10.8V173.8z"/>
			<path fill="#ADA23E" d="M502.2,195.5l-18.7,10.8c3.7,6.5,10.8,10.9,18.8,10.9c8,0,15-4.3,18.7-10.8L502.2,195.5z"/>
		</g>
		<circle fill="#F9FF6A" cx="503.1" cy="195.2" r="16.6"/>
	</g>
	<g>
		<g>
			<circle cx="444" cy="226.9" r="21.2"/>
			<path fill="#FFEF15" d="M461,236c1.9-3.2,3.1-6.6,3.1-10.6c0-12-9.5-21.4-21.4-21.4c0,0-0.8,0-0.8,0v21.1L461,236z"/>
			<path fill="#FFFFFF" d="M441.9,203.8c-11,0-21.3,9.7-21.3,21.7c0,3.9,0.9,7.6,2.7,10.8l18.5-10.8V203.8z"/>
			<path fill="#ADA23E" d="M442.2,225.5l-18.7,10.8c3.7,6.5,10.8,10.9,18.8,10.9c8,0,15-4.3,18.7-10.8L442.2,225.5z"/>
		</g>
		<circle fill="#F9FF6A" cx="443.1" cy="225.2" r="16.6"/>
	</g>
	<g>
		<g>
			<circle cx="230" cy="306.9" r="21.2"/>
			<path fill="#FFEF15" d="M247,316c1.9-3.2,3.1-6.6,3.1-10.6c0-12-9.5-21.4-21.4-21.4c0,0-0.8,0-0.8,0v21.1L247,316z"/>
			<path fill="#FFFFFF" d="M227.9,283.8c-11,0-21.3,9.7-21.3,21.7c0,3.9,0.9,7.6,2.7,10.8l18.5-10.8V283.8z"/>
			<path fill="#ADA23E" d="M228.2,305.5l-18.7,10.8c3.7,6.5,10.8,10.9,18.8,10.9c8,0,15-4.3,18.7-10.8L228.2,305.5z"/>
		</g>
		<circle fill="#F9FF6A" cx="229.1" cy="305.2" r="16.6"/>
	</g>
	<g>
		<g>
			<circle cx="213" cy="359.9" r="21.2"/>
			<path fill="#FFEF15" d="M230,369c1.9-3.2,3.1-6.6,3.1-10.6c0-12-9.5-21.4-21.4-21.4c0,0-0.8,0-0.8,0v21.1L230,369z"/>
			<path fill="#FFFFFF" d="M210.9,336.8c-11,0-21.3,9.7-21.3,21.7c0,3.9,0.9,7.6,2.7,10.8l18.5-10.8V336.8z"/>
			<path fill="#ADA23E" d="M211.2,358.5l-18.7,10.8c3.7,6.5,10.8,10.9,18.8,10.9c8,0,15-4.3,18.7-10.8L211.2,358.5z"/>
		</g>
		<circle fill="#F9FF6A" cx="212.1" cy="358.2" r="16.6"/>
	</g>
	<g>
		<g>
			<circle cx="323" cy="358.9" r="21.2"/>
			<path fill="#FFEF15" d="M340,368c1.9-3.2,3.1-6.6,3.1-10.6c0-12-9.5-21.4-21.4-21.4c0,0-0.8,0-0.8,0v21.1L340,368z"/>
			<path fill="#FFFFFF" d="M320.9,335.8c-11,0-21.3,9.7-21.3,21.7c0,3.9,0.9,7.6,2.7,10.8l18.5-10.8V335.8z"/>
			<path fill="#ADA23E" d="M321.2,357.5l-18.7,10.8c3.7,6.5,10.8,10.9,18.8,10.9c8,0,15-4.3,18.7-10.8L321.2,357.5z"/>
		</g>
		<circle fill="#F9FF6A" cx="322.1" cy="357.2" r="16.6"/>
	</g>
	<g>
		<g>
			<circle cx="294" cy="276.9" r="21.2"/>
			<path fill="#FFEF15" d="M311,286c1.9-3.2,3.1-6.6,3.1-10.6c0-12-9.5-21.4-21.4-21.4c0,0-0.8,0-0.8,0v21.1L311,286z"/>
			<path fill="#FFFFFF" d="M291.9,253.8c-11,0-21.3,9.7-21.3,21.7c0,3.9,0.9,7.6,2.7,10.8l18.5-10.8V253.8z"/>
			<path fill="#ADA23E" d="M292.2,275.5l-18.7,10.8c3.7,6.5,10.8,10.9,18.8,10.9c8,0,15-4.3,18.7-10.8L292.2,275.5z"/>
		</g>
		<circle fill="#F9FF6A" cx="293.1" cy="275.2" r="16.6"/>
	</g>
	<g>
		<g>
			<circle cx="382" cy="240.9" r="21.2"/>
			<path fill="#FFEF15" d="M399,250c1.9-3.2,3.1-6.6,3.1-10.6c0-12-9.5-21.4-21.4-21.4c0,0-0.8,0-0.8,0v21.1L399,250z"/>
			<path fill="#FFFFFF" d="M379.9,217.8c-11,0-21.3,9.7-21.3,21.7c0,3.9,0.9,7.6,2.7,10.8l18.5-10.8V217.8z"/>
			<path fill="#ADA23E" d="M380.2,239.5l-18.7,10.8c3.7,6.5,10.8,10.9,18.8,10.9c8,0,15-4.3,18.7-10.8L380.2,239.5z"/>
		</g>
		<circle fill="#F9FF6A" cx="381.1" cy="239.2" r="16.6"/>
	</g>
	<g>
		<g>
			<circle cx="442" cy="270.9" r="21.2"/>
			<path fill="#FFEF15" d="M459,280c1.9-3.2,3.1-6.6,3.1-10.6c0-12-9.5-21.4-21.4-21.4c0,0-0.8,0-0.8,0v21.1L459,280z"/>
			<path fill="#FFFFFF" d="M439.9,247.8c-11,0-21.3,9.7-21.3,21.7c0,3.9,0.9,7.6,2.7,10.8l18.5-10.8V247.8z"/>
			<path fill="#ADA23E" d="M440.2,269.5l-18.7,10.8c3.7,6.5,10.8,10.9,18.8,10.9c8,0,15-4.3,18.7-10.8L440.2,269.5z"/>
		</g>
		<circle fill="#F9FF6A" cx="441.1" cy="269.2" r="16.6"/>
	</g>
	<g>
		<g>
			<circle cx="382" cy="300.9" r="21.2"/>
			<path fill="#FFEF15" d="M399,310c1.9-3.2,3.1-6.6,3.1-10.6c0-12-9.5-21.4-21.4-21.4c0,0-0.8,0-0.8,0v21.1L399,310z"/>
			<path fill="#FFFFFF" d="M379.9,277.8c-11,0-21.3,9.7-21.3,21.7c0,3.9,0.9,7.6,2.7,10.8l18.5-10.8V277.8z"/>
			<path fill="#ADA23E" d="M380.2,299.5l-18.7,10.8c3.7,6.5,10.8,10.9,18.8,10.9c8,0,15-4.3,18.7-10.8L380.2,299.5z"/>
		</g>
		<circle fill="#F9FF6A" cx="381.1" cy="299.2" r="16.6"/>
	</g>
	<g>
		<g>
			<circle cx="413" cy="188.9" r="21.2"/>
			<path fill="#FFEF15" d="M430,198c1.9-3.2,3.1-6.6,3.1-10.6c0-12-9.5-21.4-21.4-21.4c0,0-0.8,0-0.8,0v21.1L430,198z"/>
			<path fill="#FFFFFF" d="M410.9,165.8c-11,0-21.3,9.7-21.3,21.7c0,3.9,0.9,7.6,2.7,10.8l18.5-10.8V165.8z"/>
			<path fill="#ADA23E" d="M411.2,187.5l-18.7,10.8c3.7,6.5,10.8,10.9,18.8,10.9c8,0,15-4.3,18.7-10.8L411.2,187.5z"/>
		</g>
		<circle fill="#F9FF6A" cx="412.1" cy="187.2" r="16.6"/>
	</g>
	<g>
		<g>
			<circle cx="473" cy="218.9" r="21.2"/>
			<path fill="#FFEF15" d="M490,228c1.9-3.2,3.1-6.6,3.1-10.6c0-12-9.5-21.4-21.4-21.4c0,0-0.8,0-0.8,0v21.1L490,228z"/>
			<path fill="#FFFFFF" d="M470.9,195.8c-11,0-21.3,9.7-21.3,21.7c0,3.9,0.9,7.6,2.7,10.8l18.5-10.8V195.8z"/>
			<path fill="#ADA23E" d="M471.2,217.5l-18.7,10.8c3.7,6.5,10.8,10.9,18.8,10.9c8,0,15-4.3,18.7-10.8L471.2,217.5z"/>
		</g>
		<circle fill="#F9FF6A" cx="472.1" cy="217.2" r="16.6"/>
	</g>
	<g>
		<g>
			<circle cx="413" cy="248.9" r="21.2"/>
			<path fill="#FFEF15" d="M430,258c1.9-3.2,3.1-6.6,3.1-10.6c0-12-9.5-21.4-21.4-21.4c0,0-0.8,0-0.8,0v21.1L430,258z"/>
			<path fill="#FFFFFF" d="M410.9,225.8c-11,0-21.3,9.7-21.3,21.7c0,3.9,0.9,7.6,2.7,10.8l18.5-10.8V225.8z"/>
			<path fill="#ADA23E" d="M411.2,247.5l-18.7,10.8c3.7,6.5,10.8,10.9,18.8,10.9c8,0,15-4.3,18.7-10.8L411.2,247.5z"/>
		</g>
		<circle fill="#F9FF6A" cx="412.1" cy="247.2" r="16.6"/>
	</g>
	<g>
		<g>
			<circle cx="337" cy="267.9" r="21.2"/>
			<path fill="#FFEF15" d="M354,277c1.9-3.2,3.1-6.6,3.1-10.6c0-12-9.5-21.4-21.4-21.4c0,0-0.8,0-0.8,0v21.1L354,277z"/>
			<path fill="#FFFFFF" d="M334.9,244.8c-11,0-21.3,9.7-21.3,21.7c0,3.9,0.9,7.6,2.7,10.8l18.5-10.8V244.8z"/>
			<path fill="#ADA23E" d="M335.2,266.5l-18.7,10.8c3.7,6.5,10.8,10.9,18.8,10.9c8,0,15-4.3,18.7-10.8L335.2,266.5z"/>
		</g>
		<circle fill="#F9FF6A" cx="336.1" cy="266.2" r="16.6"/>
	</g>
	<g>
		<g>
			<circle cx="535" cy="322.9" r="21.2"/>
			<path fill="#FFEF15" d="M552,332c1.9-3.2,3.1-6.6,3.1-10.6c0-12-9.5-21.4-21.4-21.4c0,0-0.8,0-0.8,0v21.1L552,332z"/>
			<path fill="#FFFFFF" d="M532.9,299.8c-11,0-21.3,9.7-21.3,21.7c0,3.9,0.9,7.6,2.7,10.8l18.5-10.8V299.8z"/>
			<path fill="#ADA23E" d="M533.2,321.5l-18.7,10.8c3.7,6.5,10.8,10.9,18.8,10.9c8,0,15-4.3,18.7-10.8L533.2,321.5z"/>
		</g>
		<circle fill="#F9FF6A" cx="534.1" cy="321.2" r="16.6"/>
	</g>
	<g>
		<g>
			<circle cx="475" cy="352.9" r="21.2"/>
			<path fill="#FFEF15" d="M492,362c1.9-3.2,3.1-6.6,3.1-10.6c0-12-9.5-21.4-21.4-21.4c0,0-0.8,0-0.8,0v21.1L492,362z"/>
			<path fill="#FFFFFF" d="M472.9,329.8c-11,0-21.3,9.7-21.3,21.7c0,3.9,0.9,7.6,2.7,10.8l18.5-10.8V329.8z"/>
			<path fill="#ADA23E" d="M473.2,351.5l-18.7,10.8c3.7,6.5,10.8,10.9,18.8,10.9c8,0,15-4.3,18.7-10.8L473.2,351.5z"/>
		</g>
		<circle fill="#F9FF6A" cx="474.1" cy="351.2" r="16.6"/>
	</g>
	<g>
		<g>
			<circle cx="359" cy="198.9" r="21.2"/>
			<path fill="#FFEF15" d="M376,208c1.9-3.2,3.1-6.6,3.1-10.6c0-12-9.5-21.4-21.4-21.4c0,0-0.8,0-0.8,0v21.1L376,208z"/>
			<path fill="#FFFFFF" d="M356.9,175.8c-11,0-21.3,9.7-21.3,21.7c0,3.9,0.9,7.6,2.7,10.8l18.5-10.8V175.8z"/>
			<path fill="#ADA23E" d="M357.2,197.5l-18.7,10.8c3.7,6.5,10.8,10.9,18.8,10.9c8,0,15-4.3,18.7-10.8L357.2,197.5z"/>
		</g>
		<circle fill="#F9FF6A" cx="358.1" cy="197.2" r="16.6"/>
	</g>
	<g>
		<g>
			<circle cx="566" cy="270.9" r="21.2"/>
			<path fill="#FFEF15" d="M583,280c1.9-3.2,3.1-6.6,3.1-10.6c0-12-9.5-21.4-21.4-21.4c0,0-0.8,0-0.8,0v21.1L583,280z"/>
			<path fill="#FFFFFF" d="M563.9,247.8c-11,0-21.3,9.7-21.3,21.7c0,3.9,0.9,7.6,2.7,10.8l18.5-10.8V247.8z"/>
			<path fill="#ADA23E" d="M564.2,269.5l-18.7,10.8c3.7,6.5,10.8,10.9,18.8,10.9c8,0,15-4.3,18.7-10.8L564.2,269.5z"/>
		</g>
		<circle fill="#F9FF6A" cx="565.1" cy="269.2" r="16.6"/>
	</g>
	<g>
		<g>
			<circle cx="506" cy="300.9" r="21.2"/>
			<path fill="#FFEF15" d="M523,310c1.9-3.2,3.1-6.6,3.1-10.6c0-12-9.5-21.4-21.4-21.4c0,0-0.8,0-0.8,0v21.1L523,310z"/>
			<path fill="#FFFFFF" d="M503.9,277.8c-11,0-21.3,9.7-21.3,21.7c0,3.9,0.9,7.6,2.7,10.8l18.5-10.8V277.8z"/>
			<path fill="#ADA23E" d="M504.2,299.5l-18.7,10.8c3.7,6.5,10.8,10.9,18.8,10.9c8,0,15-4.3,18.7-10.8L504.2,299.5z"/>
		</g>
		<circle fill="#F9FF6A" cx="505.1" cy="299.2" r="16.6"/>
	</g>
	<g>
		<g>
			<circle cx="502" cy="170.9" r="21.2"/>
			<path fill="#FFEF15" d="M519,180c1.9-3.2,3.1-6.6,3.1-10.6c0-12-9.5-21.4-21.4-21.4c0,0-0.8,0-0.8,0v21.1L519,180z"/>
			<path fill="#FFFFFF" d="M499.9,147.8c-11,0-21.3,9.7-21.3,21.7c0,3.9,0.9,7.6,2.7,10.8l18.5-10.8V147.8z"/>
			<path fill="#ADA23E" d="M500.2,169.5l-18.7,10.8c3.7,6.5,10.8,10.9,18.8,10.9c8,0,15-4.3,18.7-10.8L500.2,169.5z"/>
		</g>
		<circle fill="#F9FF6A" cx="501.1" cy="169.2" r="16.6"/>
	</g>
	<g>
		<g>
			<circle cx="562" cy="200.9" r="21.2"/>
			<path fill="#FFEF15" d="M579,210c1.9-3.2,3.1-6.6,3.1-10.6c0-12-9.5-21.4-21.4-21.4c0,0-0.8,0-0.8,0v21.1L579,210z"/>
			<path fill="#FFFFFF" d="M559.9,177.8c-11,0-21.3,9.7-21.3,21.7c0,3.9,0.9,7.6,2.7,10.8l18.5-10.8V177.8z"/>
			<path fill="#ADA23E" d="M560.2,199.5l-18.7,10.8c3.7,6.5,10.8,10.9,18.8,10.9c8,0,15-4.3,18.7-10.8L560.2,199.5z"/>
		</g>
		<circle fill="#F9FF6A" cx="561.1" cy="199.2" r="16.6"/>
	</g>
	<g>
		<g>
			<circle cx="381" cy="131.9" r="21.2"/>
			<path fill="#FFEF15" d="M398,141c1.9-3.2,3.1-6.6,3.1-10.6c0-12-9.5-21.4-21.4-21.4c0,0-0.8,0-0.8,0v21.1L398,141z"/>
			<path fill="#FFFFFF" d="M378.9,108.8c-11,0-21.3,9.7-21.3,21.7c0,3.9,0.9,7.6,2.7,10.8l18.5-10.8V108.8z"/>
			<path fill="#ADA23E" d="M379.2,130.5l-18.7,10.8c3.7,6.5,10.8,10.9,18.8,10.9c8,0,15-4.3,18.7-10.8L379.2,130.5z"/>
		</g>
		<circle fill="#F9FF6A" cx="380.1" cy="130.2" r="16.6"/>
	</g>
	<g>
		<g>
			<circle cx="307" cy="297.9" r="21.2"/>
			<path fill="#FFEF15" d="M324,307c1.9-3.2,3.1-6.6,3.1-10.6c0-12-9.5-21.4-21.4-21.4c0,0-0.8,0-0.8,0v21.1L324,307z"/>
			<path fill="#FFFFFF" d="M304.9,274.8c-11,0-21.3,9.7-21.3,21.7c0,3.9,0.9,7.6,2.7,10.8l18.5-10.8V274.8z"/>
			<path fill="#ADA23E" d="M305.2,296.5l-18.7,10.8c3.7,6.5,10.8,10.9,18.8,10.9c8,0,15-4.3,18.7-10.8L305.2,296.5z"/>
		</g>
		<circle fill="#F9FF6A" cx="306.1" cy="296.2" r="16.6"/>
	</g>
	<g>
		<g>
			<circle cx="329" cy="228.9" r="21.2"/>
			<path fill="#FFEF15" d="M346,238c1.9-3.2,3.1-6.6,3.1-10.6c0-12-9.5-21.4-21.4-21.4c0,0-0.8,0-0.8,0v21.1L346,238z"/>
			<path fill="#FFFFFF" d="M326.9,205.8c-11,0-21.3,9.7-21.3,21.7c0,3.9,0.9,7.6,2.7,10.8l18.5-10.8V205.8z"/>
			<path fill="#ADA23E" d="M327.2,227.5l-18.7,10.8c3.7,6.5,10.8,10.9,18.8,10.9c8,0,15-4.3,18.7-10.8L327.2,227.5z"/>
		</g>
		<circle fill="#F9FF6A" cx="328.1" cy="227.2" r="16.6"/>
	</g>
	<g>
		<g>
			<circle cx="351" cy="161.9" r="21.2"/>
			<path fill="#FFEF15" d="M368,171c1.9-3.2,3.1-6.6,3.1-10.6c0-12-9.5-21.4-21.4-21.4c0,0-0.8,0-0.8,0v21.1L368,171z"/>
			<path fill="#FFFFFF" d="M348.9,138.8c-11,0-21.3,9.7-21.3,21.7c0,3.9,0.9,7.6,2.7,10.8l18.5-10.8V138.8z"/>
			<path fill="#ADA23E" d="M349.2,160.5l-18.7,10.8c3.7,6.5,10.8,10.9,18.8,10.9c8,0,15-4.3,18.7-10.8L349.2,160.5z"/>
		</g>
		<circle fill="#F9FF6A" cx="350.1" cy="160.2" r="16.6"/>
	</g>
	<g>
		<g>
			<circle cx="357" cy="337.9" r="21.2"/>
			<path fill="#FFEF15" d="M374,347c1.9-3.2,3.1-6.6,3.1-10.6c0-12-9.5-21.4-21.4-21.4c0,0-0.8,0-0.8,0v21.1L374,347z"/>
			<path fill="#FFFFFF" d="M354.9,314.8c-11,0-21.3,9.7-21.3,21.7c0,3.9,0.9,7.6,2.7,10.8l18.5-10.8V314.8z"/>
			<path fill="#ADA23E" d="M355.2,336.5l-18.7,10.8c3.7,6.5,10.8,10.9,18.8,10.9c8,0,15-4.3,18.7-10.8L355.2,336.5z"/>
		</g>
		<circle fill="#F9FF6A" cx="356.1" cy="336.2" r="16.6"/>
	</g>
	<g>
		<g>
			<circle cx="625" cy="345.9" r="21.2"/>
			<path fill="#FFEF15" d="M642,355c1.9-3.2,3.1-6.6,3.1-10.6c0-12-9.5-21.4-21.4-21.4c0,0-0.8,0-0.8,0v21.1L642,355z"/>
			<path fill="#FFFFFF" d="M622.9,322.8c-11,0-21.3,9.7-21.3,21.7c0,3.9,0.9,7.6,2.7,10.8l18.5-10.8V322.8z"/>
			<path fill="#ADA23E" d="M623.2,344.5l-18.7,10.8c3.7,6.5,10.8,10.9,18.8,10.9c8,0,15-4.3,18.7-10.8L623.2,344.5z"/>
		</g>
		<circle fill="#F9FF6A" cx="624.1" cy="344.2" r="16.6"/>
	</g>
	<g>
		<g>
			<circle cx="401" cy="201.9" r="21.2"/>
			<path fill="#FFEF15" d="M418,211c1.9-3.2,3.1-6.6,3.1-10.6c0-12-9.5-21.4-21.4-21.4c0,0-0.8,0-0.8,0v21.1L418,211z"/>
			<path fill="#FFFFFF" d="M398.9,178.8c-11,0-21.3,9.7-21.3,21.7c0,3.9,0.9,7.6,2.7,10.8l18.5-10.8V178.8z"/>
			<path fill="#ADA23E" d="M399.2,200.5l-18.7,10.8c3.7,6.5,10.8,10.9,18.8,10.9c8,0,15-4.3,18.7-10.8L399.2,200.5z"/>
		</g>
		<circle fill="#F9FF6A" cx="400.1" cy="200.2" r="16.6"/>
	</g>
	<g>
		<g>
			<circle cx="533" cy="118.9" r="21.2"/>
			<path fill="#FFEF15" d="M550,128c1.9-3.2,3.1-6.6,3.1-10.6c0-12-9.5-21.4-21.4-21.4c0,0-0.8,0-0.8,0v21.1L550,128z"/>
			<path fill="#FFFFFF" d="M530.9,95.8c-11,0-21.3,9.7-21.3,21.7c0,3.9,0.9,7.6,2.7,10.8l18.5-10.8V95.8z"/>
			<path fill="#ADA23E" d="M531.2,117.5l-18.7,10.8c3.7,6.5,10.8,10.9,18.8,10.9c8,0,15-4.3,18.7-10.8L531.2,117.5z"/>
		</g>
		<circle fill="#F9FF6A" cx="532.1" cy="117.2" r="16.6"/>
	</g>
	<g>
		<g>
			<circle cx="593" cy="148.9" r="21.2"/>
			<path fill="#FFEF15" d="M610,158c1.9-3.2,3.1-6.6,3.1-10.6c0-12-9.5-21.4-21.4-21.4c0,0-0.8,0-0.8,0v21.1L610,158z"/>
			<path fill="#FFFFFF" d="M590.9,125.8c-11,0-21.3,9.7-21.3,21.7c0,3.9,0.9,7.6,2.7,10.8l18.5-10.8V125.8z"/>
			<path fill="#ADA23E" d="M591.2,147.5l-18.7,10.8c3.7,6.5,10.8,10.9,18.8,10.9c8,0,15-4.3,18.7-10.8L591.2,147.5z"/>
		</g>
		<circle fill="#F9FF6A" cx="592.1" cy="147.2" r="16.6"/>
	</g>
	<g>
		<g>
			<circle cx="472" cy="164.9" r="21.2"/>
			<path fill="#FFEF15" d="M489,174c1.9-3.2,3.1-6.6,3.1-10.6c0-12-9.5-21.4-21.4-21.4c0,0-0.8,0-0.8,0v21.1L489,174z"/>
			<path fill="#FFFFFF" d="M469.9,141.8c-11,0-21.3,9.7-21.3,21.7c0,3.9,0.9,7.6,2.7,10.8l18.5-10.8V141.8z"/>
			<path fill="#ADA23E" d="M470.2,163.5l-18.7,10.8c3.7,6.5,10.8,10.9,18.8,10.9c8,0,15-4.3,18.7-10.8L470.2,163.5z"/>
		</g>
		<circle fill="#F9FF6A" cx="471.1" cy="163.2" r="16.6"/>
	</g>
	<g>
		<g>
			<circle cx="545" cy="253.9" r="21.2"/>
			<path fill="#FFEF15" d="M562,263c1.9-3.2,3.1-6.6,3.1-10.6c0-12-9.5-21.4-21.4-21.4c0,0-0.8,0-0.8,0v21.1L562,263z"/>
			<path fill="#FFFFFF" d="M542.9,230.8c-11,0-21.3,9.7-21.3,21.7c0,3.9,0.9,7.6,2.7,10.8l18.5-10.8V230.8z"/>
			<path fill="#ADA23E" d="M543.2,252.5l-18.7,10.8c3.7,6.5,10.8,10.9,18.8,10.9c8,0,15-4.3,18.7-10.8L543.2,252.5z"/>
		</g>
		<circle fill="#F9FF6A" cx="544.1" cy="252.2" r="16.6"/>
	</g>
	<g>
		<g>
			<circle cx="655" cy="252.9" r="21.2"/>
			<path fill="#FFEF15" d="M672,262c1.9-3.2,3.1-6.6,3.1-10.6c0-12-9.5-21.4-21.4-21.4c0,0-0.8,0-0.8,0v21.1L672,262z"/>
			<path fill="#FFFFFF" d="M652.9,229.8c-11,0-21.3,9.7-21.3,21.7c0,3.9,0.9,7.6,2.7,10.8l18.5-10.8V229.8z"/>
			<path fill="#ADA23E" d="M653.2,251.5l-18.7,10.8c3.7,6.5,10.8,10.9,18.8,10.9c8,0,15-4.3,18.7-10.8L653.2,251.5z"/>
		</g>
		<circle fill="#F9FF6A" cx="654.1" cy="251.2" r="16.6"/>
	</g>
	<g>
		<g>
			<circle cx="595" cy="282.9" r="21.2"/>
			<path fill="#FFEF15" d="M612,292c1.9-3.2,3.1-6.6,3.1-10.6c0-12-9.5-21.4-21.4-21.4c0,0-0.8,0-0.8,0v21.1L612,292z"/>
			<path fill="#FFFFFF" d="M592.9,259.8c-11,0-21.3,9.7-21.3,21.7c0,3.9,0.9,7.6,2.7,10.8l18.5-10.8V259.8z"/>
			<path fill="#ADA23E" d="M593.2,281.5l-18.7,10.8c3.7,6.5,10.8,10.9,18.8,10.9c8,0,15-4.3,18.7-10.8L593.2,281.5z"/>
		</g>
		<circle fill="#F9FF6A" cx="594.1" cy="281.2" r="16.6"/>
	</g>
	<g>
		<g>
			<circle cx="626" cy="170.9" r="21.2"/>
			<path fill="#FFEF15" d="M643,180c1.9-3.2,3.1-6.6,3.1-10.6c0-12-9.5-21.4-21.4-21.4c0,0-0.8,0-0.8,0v21.1L643,180z"/>
			<path fill="#FFFFFF" d="M623.9,147.8c-11,0-21.3,9.7-21.3,21.7c0,3.9,0.9,7.6,2.7,10.8l18.5-10.8V147.8z"/>
			<path fill="#ADA23E" d="M624.2,169.5l-18.7,10.8c3.7,6.5,10.8,10.9,18.8,10.9c8,0,15-4.3,18.7-10.8L624.2,169.5z"/>
		</g>
		<circle fill="#F9FF6A" cx="625.1" cy="169.2" r="16.6"/>
	</g>
	<g>
		<g>
			<circle cx="686" cy="200.9" r="21.2"/>
			<path fill="#FFEF15" d="M703,210c1.9-3.2,3.1-6.6,3.1-10.6c0-12-9.5-21.4-21.4-21.4c0,0-0.8,0-0.8,0v21.1L703,210z"/>
			<path fill="#FFFFFF" d="M683.9,177.8c-11,0-21.3,9.7-21.3,21.7c0,3.9,0.9,7.6,2.7,10.8l18.5-10.8V177.8z"/>
			<path fill="#ADA23E" d="M684.2,199.5l-18.7,10.8c3.7,6.5,10.8,10.9,18.8,10.9c8,0,15-4.3,18.7-10.8L684.2,199.5z"/>
		</g>
		<circle fill="#F9FF6A" cx="685.1" cy="199.2" r="16.6"/>
	</g>
	<g>
		<g>
			<circle cx="626" cy="230.9" r="21.2"/>
			<path fill="#FFEF15" d="M643,240c1.9-3.2,3.1-6.6,3.1-10.6c0-12-9.5-21.4-21.4-21.4c0,0-0.8,0-0.8,0v21.1L643,240z"/>
			<path fill="#FFFFFF" d="M623.9,207.8c-11,0-21.3,9.7-21.3,21.7c0,3.9,0.9,7.6,2.7,10.8l18.5-10.8V207.8z"/>
			<path fill="#ADA23E" d="M624.2,229.5l-18.7,10.8c3.7,6.5,10.8,10.9,18.8,10.9c8,0,15-4.3,18.7-10.8L624.2,229.5z"/>
		</g>
		<circle fill="#F9FF6A" cx="625.1" cy="229.2" r="16.6"/>
	</g>
	<g>
		<g>
			<circle cx="412" cy="310.9" r="21.2"/>
			<path fill="#FFEF15" d="M429,320c1.9-3.2,3.1-6.6,3.1-10.6c0-12-9.5-21.4-21.4-21.4c0,0-0.8,0-0.8,0v21.1L429,320z"/>
			<path fill="#FFFFFF" d="M409.9,287.8c-11,0-21.3,9.7-21.3,21.7c0,3.9,0.9,7.6,2.7,10.8l18.5-10.8V287.8z"/>
			<path fill="#ADA23E" d="M410.2,309.5l-18.7,10.8c3.7,6.5,10.8,10.9,18.8,10.9c8,0,15-4.3,18.7-10.8L410.2,309.5z"/>
		</g>
		<circle fill="#F9FF6A" cx="411.1" cy="309.2" r="16.6"/>
	</g>
	<g>
		<g>
			<circle cx="395" cy="363.9" r="21.2"/>
			<path fill="#FFEF15" d="M412,373c1.9-3.2,3.1-6.6,3.1-10.6c0-12-9.5-21.4-21.4-21.4c0,0-0.8,0-0.8,0v21.1L412,373z"/>
			<path fill="#FFFFFF" d="M392.9,340.8c-11,0-21.3,9.7-21.3,21.7c0,3.9,0.9,7.6,2.7,10.8l18.5-10.8V340.8z"/>
			<path fill="#ADA23E" d="M393.2,362.5l-18.7,10.8c3.7,6.5,10.8,10.9,18.8,10.9c8,0,15-4.3,18.7-10.8L393.2,362.5z"/>
		</g>
		<circle fill="#F9FF6A" cx="394.1" cy="362.2" r="16.6"/>
	</g>
	<g>
		<g>
			<circle cx="505" cy="362.9" r="21.2"/>
			<path fill="#FFEF15" d="M522,372c1.9-3.2,3.1-6.6,3.1-10.6c0-12-9.5-21.4-21.4-21.4c0,0-0.8,0-0.8,0v21.1L522,372z"/>
			<path fill="#FFFFFF" d="M502.9,339.8c-11,0-21.3,9.7-21.3,21.7c0,3.9,0.9,7.6,2.7,10.8l18.5-10.8V339.8z"/>
			<path fill="#ADA23E" d="M503.2,361.5l-18.7,10.8c3.7,6.5,10.8,10.9,18.8,10.9c8,0,15-4.3,18.7-10.8L503.2,361.5z"/>
		</g>
		<circle fill="#F9FF6A" cx="504.1" cy="361.2" r="16.6"/>
	</g>
	<g>
		<g>
			<circle cx="476" cy="280.9" r="21.2"/>
			<path fill="#FFEF15" d="M493,290c1.9-3.2,3.1-6.6,3.1-10.6c0-12-9.5-21.4-21.4-21.4c0,0-0.8,0-0.8,0v21.1L493,290z"/>
			<path fill="#FFFFFF" d="M473.9,257.8c-11,0-21.3,9.7-21.3,21.7c0,3.9,0.9,7.6,2.7,10.8l18.5-10.8V257.8z"/>
			<path fill="#ADA23E" d="M474.2,279.5l-18.7,10.8c3.7,6.5,10.8,10.9,18.8,10.9c8,0,15-4.3,18.7-10.8L474.2,279.5z"/>
		</g>
		<circle fill="#F9FF6A" cx="475.1" cy="279.2" r="16.6"/>
	</g>
	<g>
		<g>
			<circle cx="151" cy="218.9" r="21.2"/>
			<path fill="#FFEF15" d="M168,228c1.9-3.2,3.1-6.6,3.1-10.6c0-12-9.5-21.4-21.4-21.4c0,0-0.8,0-0.8,0v21.1L168,228z"/>
			<path fill="#FFFFFF" d="M148.9,195.8c-11,0-21.3,9.7-21.3,21.7c0,3.9,0.9,7.6,2.7,10.8l18.5-10.8V195.8z"/>
			<path fill="#ADA23E" d="M149.2,217.5l-18.7,10.8c3.7,6.5,10.8,10.9,18.8,10.9c8,0,15-4.3,18.7-10.8L149.2,217.5z"/>
		</g>
		<circle fill="#F9FF6A" cx="150.1" cy="217.2" r="16.6"/>
	</g>
	<g>
		<g>
			<circle cx="211" cy="248.9" r="21.2"/>
			<path fill="#FFEF15" d="M228,258c1.9-3.2,3.1-6.6,3.1-10.6c0-12-9.5-21.4-21.4-21.4c0,0-0.8,0-0.8,0v21.1L228,258z"/>
			<path fill="#FFFFFF" d="M208.9,225.8c-11,0-21.3,9.7-21.3,21.7c0,3.9,0.9,7.6,2.7,10.8l18.5-10.8V225.8z"/>
			<path fill="#ADA23E" d="M209.2,247.5l-18.7,10.8c3.7,6.5,10.8,10.9,18.8,10.9c8,0,15-4.3,18.7-10.8L209.2,247.5z"/>
		</g>
		<circle fill="#F9FF6A" cx="210.1" cy="247.2" r="16.6"/>
	</g>
	<g>
		<g>
			<circle cx="151" cy="278.9" r="21.2"/>
			<path fill="#FFEF15" d="M168,288c1.9-3.2,3.1-6.6,3.1-10.6c0-12-9.5-21.4-21.4-21.4c0,0-0.8,0-0.8,0v21.1L168,288z"/>
			<path fill="#FFFFFF" d="M148.9,255.8c-11,0-21.3,9.7-21.3,21.7c0,3.9,0.9,7.6,2.7,10.8l18.5-10.8V255.8z"/>
			<path fill="#ADA23E" d="M149.2,277.5l-18.7,10.8c3.7,6.5,10.8,10.9,18.8,10.9c8,0,15-4.3,18.7-10.8L149.2,277.5z"/>
		</g>
		<circle fill="#F9FF6A" cx="150.1" cy="277.2" r="16.6"/>
	</g>
	<g>
		<g>
			<circle cx="182" cy="166.9" r="21.2"/>
			<path fill="#FFEF15" d="M199,176c1.9-3.2,3.1-6.6,3.1-10.6c0-12-9.5-21.4-21.4-21.4c0,0-0.8,0-0.8,0v21.1L199,176z"/>
			<path fill="#FFFFFF" d="M179.9,143.8c-11,0-21.3,9.7-21.3,21.7c0,3.9,0.9,7.6,2.7,10.8l18.5-10.8V143.8z"/>
			<path fill="#ADA23E" d="M180.2,165.5l-18.7,10.8c3.7,6.5,10.8,10.9,18.8,10.9c8,0,15-4.3,18.7-10.8L180.2,165.5z"/>
		</g>
		<circle fill="#F9FF6A" cx="181.1" cy="165.2" r="16.6"/>
	</g>
	<g>
		<g>
			<circle cx="242" cy="196.9" r="21.2"/>
			<path fill="#FFEF15" d="M259,206c1.9-3.2,3.1-6.6,3.1-10.6c0-12-9.5-21.4-21.4-21.4c0,0-0.8,0-0.8,0v21.1L259,206z"/>
			<path fill="#FFFFFF" d="M239.9,173.8c-11,0-21.3,9.7-21.3,21.7c0,3.9,0.9,7.6,2.7,10.8l18.5-10.8V173.8z"/>
			<path fill="#ADA23E" d="M240.2,195.5l-18.7,10.8c3.7,6.5,10.8,10.9,18.8,10.9c8,0,15-4.3,18.7-10.8L240.2,195.5z"/>
		</g>
		<circle fill="#F9FF6A" cx="241.1" cy="195.2" r="16.6"/>
	</g>
	<g>
		<g>
			<circle cx="182" cy="226.9" r="21.2"/>
			<path fill="#FFEF15" d="M199,236c1.9-3.2,3.1-6.6,3.1-10.6c0-12-9.5-21.4-21.4-21.4c0,0-0.8,0-0.8,0v21.1L199,236z"/>
			<path fill="#FFFFFF" d="M179.9,203.8c-11,0-21.3,9.7-21.3,21.7c0,3.9,0.9,7.6,2.7,10.8l18.5-10.8V203.8z"/>
			<path fill="#ADA23E" d="M180.2,225.5l-18.7,10.8c3.7,6.5,10.8,10.9,18.8,10.9c8,0,15-4.3,18.7-10.8L180.2,225.5z"/>
		</g>
		<circle fill="#F9FF6A" cx="181.1" cy="225.2" r="16.6"/>
	</g>
	<g>
		<g>
			<circle cx="106" cy="245.9" r="21.2"/>
			<path fill="#FFEF15" d="M123,255c1.9-3.2,3.1-6.6,3.1-10.6c0-12-9.5-21.4-21.4-21.4c0,0-0.8,0-0.8,0v21.1L123,255z"/>
			<path fill="#FFFFFF" d="M103.9,222.8c-11,0-21.3,9.7-21.3,21.7c0,3.9,0.9,7.6,2.7,10.8l18.5-10.8V222.8z"/>
			<path fill="#ADA23E" d="M104.2,244.5l-18.7,10.8c3.7,6.5,10.8,10.9,18.8,10.9c8,0,15-4.3,18.7-10.8L104.2,244.5z"/>
		</g>
		<circle fill="#F9FF6A" cx="105.1" cy="244.2" r="16.6"/>
	</g>
	<g>
		<g>
			<circle cx="304" cy="300.9" r="21.2"/>
			<path fill="#FFEF15" d="M321,310c1.9-3.2,3.1-6.6,3.1-10.6c0-12-9.5-21.4-21.4-21.4c0,0-0.8,0-0.8,0v21.1L321,310z"/>
			<path fill="#FFFFFF" d="M301.9,277.8c-11,0-21.3,9.7-21.3,21.7c0,3.9,0.9,7.6,2.7,10.8l18.5-10.8V277.8z"/>
			<path fill="#ADA23E" d="M302.2,299.5l-18.7,10.8c3.7,6.5,10.8,10.9,18.8,10.9c8,0,15-4.3,18.7-10.8L302.2,299.5z"/>
		</g>
		<circle fill="#F9FF6A" cx="303.1" cy="299.2" r="16.6"/>
	</g>
	<g>
		<g>
			<circle cx="244" cy="330.9" r="21.2"/>
			<path fill="#FFEF15" d="M261,340c1.9-3.2,3.1-6.6,3.1-10.6c0-12-9.5-21.4-21.4-21.4c0,0-0.8,0-0.8,0v21.1L261,340z"/>
			<path fill="#FFFFFF" d="M241.9,307.8c-11,0-21.3,9.7-21.3,21.7c0,3.9,0.9,7.6,2.7,10.8l18.5-10.8V307.8z"/>
			<path fill="#ADA23E" d="M242.2,329.5l-18.7,10.8c3.7,6.5,10.8,10.9,18.8,10.9c8,0,15-4.3,18.7-10.8L242.2,329.5z"/>
		</g>
		<circle fill="#F9FF6A" cx="243.1" cy="329.2" r="16.6"/>
	</g>
	<g>
		<g>
			<circle cx="128" cy="176.9" r="21.2"/>
			<path fill="#FFEF15" d="M145,186c1.9-3.2,3.1-6.6,3.1-10.6c0-12-9.5-21.4-21.4-21.4c0,0-0.8,0-0.8,0v21.1L145,186z"/>
			<path fill="#FFFFFF" d="M125.9,153.8c-11,0-21.3,9.7-21.3,21.7c0,3.9,0.9,7.6,2.7,10.8l18.5-10.8V153.8z"/>
			<path fill="#ADA23E" d="M126.2,175.5l-18.7,10.8c3.7,6.5,10.8,10.9,18.8,10.9c8,0,15-4.3,18.7-10.8L126.2,175.5z"/>
		</g>
		<circle fill="#F9FF6A" cx="127.1" cy="175.2" r="16.6"/>
	</g>
	<g>
		<g>
			<circle cx="335" cy="248.9" r="21.2"/>
			<path fill="#FFEF15" d="M352,258c1.9-3.2,3.1-6.6,3.1-10.6c0-12-9.5-21.4-21.4-21.4c0,0-0.8,0-0.8,0v21.1L352,258z"/>
			<path fill="#FFFFFF" d="M332.9,225.8c-11,0-21.3,9.7-21.3,21.7c0,3.9,0.9,7.6,2.7,10.8l18.5-10.8V225.8z"/>
			<path fill="#ADA23E" d="M333.2,247.5l-18.7,10.8c3.7,6.5,10.8,10.9,18.8,10.9c8,0,15-4.3,18.7-10.8L333.2,247.5z"/>
		</g>
		<circle fill="#F9FF6A" cx="334.1" cy="247.2" r="16.6"/>
	</g>
	<g>
		<g>
			<circle cx="275" cy="278.9" r="21.2"/>
			<path fill="#FFEF15" d="M292,288c1.9-3.2,3.1-6.6,3.1-10.6c0-12-9.5-21.4-21.4-21.4c0,0-0.8,0-0.8,0v21.1L292,288z"/>
			<path fill="#FFFFFF" d="M272.9,255.8c-11,0-21.3,9.7-21.3,21.7c0,3.9,0.9,7.6,2.7,10.8l18.5-10.8V255.8z"/>
			<path fill="#ADA23E" d="M273.2,277.5l-18.7,10.8c3.7,6.5,10.8,10.9,18.8,10.9c8,0,15-4.3,18.7-10.8L273.2,277.5z"/>
		</g>
		<circle fill="#F9FF6A" cx="274.1" cy="277.2" r="16.6"/>
	</g>
	<g>
		<g>
			<circle cx="271" cy="148.9" r="21.2"/>
			<path fill="#FFEF15" d="M288,158c1.9-3.2,3.1-6.6,3.1-10.6c0-12-9.5-21.4-21.4-21.4c0,0-0.8,0-0.8,0v21.1L288,158z"/>
			<path fill="#FFFFFF" d="M268.9,125.8c-11,0-21.3,9.7-21.3,21.7c0,3.9,0.9,7.6,2.7,10.8l18.5-10.8V125.8z"/>
			<path fill="#ADA23E" d="M269.2,147.5l-18.7,10.8c3.7,6.5,10.8,10.9,18.8,10.9c8,0,15-4.3,18.7-10.8L269.2,147.5z"/>
		</g>
		<circle fill="#F9FF6A" cx="270.1" cy="147.2" r="16.6"/>
	</g>
	<g>
		<g>
			<circle cx="331" cy="178.9" r="21.2"/>
			<path fill="#FFEF15" d="M348,188c1.9-3.2,3.1-6.6,3.1-10.6c0-12-9.5-21.4-21.4-21.4c0,0-0.8,0-0.8,0v21.1L348,188z"/>
			<path fill="#FFFFFF" d="M328.9,155.8c-11,0-21.3,9.7-21.3,21.7c0,3.9,0.9,7.6,2.7,10.8l18.5-10.8V155.8z"/>
			<path fill="#ADA23E" d="M329.2,177.5l-18.7,10.8c3.7,6.5,10.8,10.9,18.8,10.9c8,0,15-4.3,18.7-10.8L329.2,177.5z"/>
		</g>
		<circle fill="#F9FF6A" cx="330.1" cy="177.2" r="16.6"/>
	</g>
	<g>
		<g>
			<circle cx="150" cy="109.9" r="21.2"/>
			<path fill="#FFEF15" d="M167,119c1.9-3.2,3.1-6.6,3.1-10.6c0-12-9.5-21.4-21.4-21.4c0,0-0.8,0-0.8,0v21.1L167,119z"/>
			<path fill="#FFFFFF" d="M147.9,86.8c-11,0-21.3,9.7-21.3,21.7c0,3.9,0.9,7.6,2.7,10.8l18.5-10.8V86.8z"/>
			<path fill="#ADA23E" d="M148.2,108.5l-18.7,10.8c3.7,6.5,10.8,10.9,18.8,10.9c8,0,15-4.3,18.7-10.8L148.2,108.5z"/>
		</g>
		<circle fill="#F9FF6A" cx="149.1" cy="108.2" r="16.6"/>
	</g>
	<g>
		<g>
			<circle cx="664" cy="312.9" r="21.2"/>
			<path fill="#FFEF15" d="M681,322c1.9-3.2,3.1-6.6,3.1-10.6c0-12-9.5-21.4-21.4-21.4c0,0-0.8,0-0.8,0v21.1L681,322z"/>
			<path fill="#FFFFFF" d="M661.9,289.8c-11,0-21.3,9.7-21.3,21.7c0,3.9,0.9,7.6,2.7,10.8l18.5-10.8V289.8z"/>
			<path fill="#ADA23E" d="M662.2,311.5l-18.7,10.8c3.7,6.5,10.8,10.9,18.8,10.9c8,0,15-4.3,18.7-10.8L662.2,311.5z"/>
		</g>
		<circle fill="#F9FF6A" cx="663.1" cy="311.2" r="16.6"/>
	</g>
	<g>
		<g>
			<circle cx="98" cy="206.9" r="21.2"/>
			<path fill="#FFEF15" d="M115,216c1.9-3.2,3.1-6.6,3.1-10.6c0-12-9.5-21.4-21.4-21.4c0,0-0.8,0-0.8,0v21.1L115,216z"/>
			<path fill="#FFFFFF" d="M95.9,183.8c-11,0-21.3,9.7-21.3,21.7c0,3.9,0.9,7.6,2.7,10.8l18.5-10.8V183.8z"/>
			<path fill="#ADA23E" d="M96.2,205.5l-18.7,10.8c3.7,6.5,10.8,10.9,18.8,10.9c8,0,15-4.3,18.7-10.8L96.2,205.5z"/>
		</g>
		<circle fill="#F9FF6A" cx="97.1" cy="205.2" r="16.6"/>
	</g>
	<g>
		<g>
			<circle cx="120" cy="139.9" r="21.2"/>
			<path fill="#FFEF15" d="M137,149c1.9-3.2,3.1-6.6,3.1-10.6c0-12-9.5-21.4-21.4-21.4c0,0-0.8,0-0.8,0v21.1L137,149z"/>
			<path fill="#FFFFFF" d="M117.9,116.8c-11,0-21.3,9.7-21.3,21.7c0,3.9,0.9,7.6,2.7,10.8l18.5-10.8V116.8z"/>
			<path fill="#ADA23E" d="M118.2,138.5l-18.7,10.8c3.7,6.5,10.8,10.9,18.8,10.9c8,0,15-4.3,18.7-10.8L118.2,138.5z"/>
		</g>
		<circle fill="#F9FF6A" cx="119.1" cy="138.2" r="16.6"/>
	</g>
	<g>
		<g>
			<circle cx="126" cy="315.9" r="21.2"/>
			<path fill="#FFEF15" d="M143,325c1.9-3.2,3.1-6.6,3.1-10.6c0-12-9.5-21.4-21.4-21.4c0,0-0.8,0-0.8,0v21.1L143,325z"/>
			<path fill="#FFFFFF" d="M123.9,292.8c-11,0-21.3,9.7-21.3,21.7c0,3.9,0.9,7.6,2.7,10.8l18.5-10.8V292.8z"/>
			<path fill="#ADA23E" d="M124.2,314.5l-18.7,10.8c3.7,6.5,10.8,10.9,18.8,10.9c8,0,15-4.3,18.7-10.8L124.2,314.5z"/>
		</g>
		<circle fill="#F9FF6A" cx="125.1" cy="314.2" r="16.6"/>
	</g>
	<g>
		<g>
			<circle cx="111" cy="369.9" r="21.2"/>
			<path fill="#FFEF15" d="M128,379c1.9-3.2,3.1-6.6,3.1-10.6c0-12-9.5-21.4-21.4-21.4c0,0-0.8,0-0.8,0v21.1L128,379z"/>
			<path fill="#FFFFFF" d="M108.9,346.8c-11,0-21.3,9.7-21.3,21.7c0,3.9,0.9,7.6,2.7,10.8l18.5-10.8V346.8z"/>
			<path fill="#ADA23E" d="M109.2,368.5l-18.7,10.8c3.7,6.5,10.8,10.9,18.8,10.9c8,0,15-4.3,18.7-10.8L109.2,368.5z"/>
		</g>
		<circle fill="#F9FF6A" cx="110.1" cy="368.2" r="16.6"/>
	</g>
	<g>
		<g>
			<circle cx="170" cy="179.9" r="21.2"/>
			<path fill="#FFEF15" d="M187,189c1.9-3.2,3.1-6.6,3.1-10.6c0-12-9.5-21.4-21.4-21.4c0,0-0.8,0-0.8,0v21.1L187,189z"/>
			<path fill="#FFFFFF" d="M167.9,156.8c-11,0-21.3,9.7-21.3,21.7c0,3.9,0.9,7.6,2.7,10.8l18.5-10.8V156.8z"/>
			<path fill="#ADA23E" d="M168.2,178.5l-18.7,10.8c3.7,6.5,10.8,10.9,18.8,10.9c8,0,15-4.3,18.7-10.8L168.2,178.5z"/>
		</g>
		<circle fill="#F9FF6A" cx="169.1" cy="178.2" r="16.6"/>
	</g>
	<g>
		<g>
			<circle cx="302" cy="96.9" r="21.2"/>
			<path fill="#FFEF15" d="M319,106c1.9-3.2,3.1-6.6,3.1-10.6c0-12-9.5-21.4-21.4-21.4c0,0-0.8,0-0.8,0v21.1L319,106z"/>
			<path fill="#FFFFFF" d="M299.9,73.8c-11,0-21.3,9.7-21.3,21.7c0,3.9,0.9,7.6,2.7,10.8l18.5-10.8V73.8z"/>
			<path fill="#ADA23E" d="M300.2,95.5l-18.7,10.8c3.7,6.5,10.8,10.9,18.8,10.9c8,0,15-4.3,18.7-10.8L300.2,95.5z"/>
		</g>
		<circle fill="#F9FF6A" cx="301.1" cy="95.2" r="16.6"/>
	</g>
	<g>
		<g>
			<circle cx="362" cy="126.9" r="21.2"/>
			<path fill="#FFEF15" d="M379,136c1.9-3.2,3.1-6.6,3.1-10.6c0-12-9.5-21.4-21.4-21.4c0,0-0.8,0-0.8,0v21.1L379,136z"/>
			<path fill="#FFFFFF" d="M359.9,103.8c-11,0-21.3,9.7-21.3,21.7c0,3.9,0.9,7.6,2.7,10.8l18.5-10.8V103.8z"/>
			<path fill="#ADA23E" d="M360.2,125.5l-18.7,10.8c3.7,6.5,10.8,10.9,18.8,10.9c8,0,15-4.3,18.7-10.8L360.2,125.5z"/>
		</g>
		<circle fill="#F9FF6A" cx="361.1" cy="125.2" r="16.6"/>
	</g>
	<g>
		<g>
			<circle cx="241" cy="142.9" r="21.2"/>
			<path fill="#FFEF15" d="M258,152c1.9-3.2,3.1-6.6,3.1-10.6c0-12-9.5-21.4-21.4-21.4c0,0-0.8,0-0.8,0v21.1L258,152z"/>
			<path fill="#FFFFFF" d="M238.9,119.8c-11,0-21.3,9.7-21.3,21.7c0,3.9,0.9,7.6,2.7,10.8l18.5-10.8V119.8z"/>
			<path fill="#ADA23E" d="M239.2,141.5l-18.7,10.8c3.7,6.5,10.8,10.9,18.8,10.9c8,0,15-4.3,18.7-10.8L239.2,141.5z"/>
		</g>
		<circle fill="#F9FF6A" cx="240.1" cy="141.2" r="16.6"/>
	</g>
	<g>
		<g>
			<circle cx="314" cy="231.9" r="21.2"/>
			<path fill="#FFEF15" d="M331,241c1.9-3.2,3.1-6.6,3.1-10.6c0-12-9.5-21.4-21.4-21.4c0,0-0.8,0-0.8,0v21.1L331,241z"/>
			<path fill="#FFFFFF" d="M311.9,208.8c-11,0-21.3,9.7-21.3,21.7c0,3.9,0.9,7.6,2.7,10.8l18.5-10.8V208.8z"/>
			<path fill="#ADA23E" d="M312.2,230.5l-18.7,10.8c3.7,6.5,10.8,10.9,18.8,10.9c8,0,15-4.3,18.7-10.8L312.2,230.5z"/>
		</g>
		<circle fill="#F9FF6A" cx="313.1" cy="230.2" r="16.6"/>
	</g>
	<g>
		<g>
			<circle cx="424" cy="230.9" r="21.2"/>
			<path fill="#FFEF15" d="M441,240c1.9-3.2,3.1-6.6,3.1-10.6c0-12-9.5-21.4-21.4-21.4c0,0-0.8,0-0.8,0v21.1L441,240z"/>
			<path fill="#FFFFFF" d="M421.9,207.8c-11,0-21.3,9.7-21.3,21.7c0,3.9,0.9,7.6,2.7,10.8l18.5-10.8V207.8z"/>
			<path fill="#ADA23E" d="M422.2,229.5l-18.7,10.8c3.7,6.5,10.8,10.9,18.8,10.9c8,0,15-4.3,18.7-10.8L422.2,229.5z"/>
		</g>
		<circle fill="#F9FF6A" cx="423.1" cy="229.2" r="16.6"/>
	</g>
	<g>
		<g>
			<circle cx="364" cy="260.9" r="21.2"/>
			<path fill="#FFEF15" d="M381,270c1.9-3.2,3.1-6.6,3.1-10.6c0-12-9.5-21.4-21.4-21.4c0,0-0.8,0-0.8,0v21.1L381,270z"/>
			<path fill="#FFFFFF" d="M361.9,237.8c-11,0-21.3,9.7-21.3,21.7c0,3.9,0.9,7.6,2.7,10.8l18.5-10.8V237.8z"/>
			<path fill="#ADA23E" d="M362.2,259.5l-18.7,10.8c3.7,6.5,10.8,10.9,18.8,10.9c8,0,15-4.3,18.7-10.8L362.2,259.5z"/>
		</g>
		<circle fill="#F9FF6A" cx="363.1" cy="259.2" r="16.6"/>
	</g>
	<g>
		<g>
			<circle cx="395" cy="148.9" r="21.2"/>
			<path fill="#FFEF15" d="M412,158c1.9-3.2,3.1-6.6,3.1-10.6c0-12-9.5-21.4-21.4-21.4c0,0-0.8,0-0.8,0v21.1L412,158z"/>
			<path fill="#FFFFFF" d="M392.9,125.8c-11,0-21.3,9.7-21.3,21.7c0,3.9,0.9,7.6,2.7,10.8l18.5-10.8V125.8z"/>
			<path fill="#ADA23E" d="M393.2,147.5l-18.7,10.8c3.7,6.5,10.8,10.9,18.8,10.9c8,0,15-4.3,18.7-10.8L393.2,147.5z"/>
		</g>
		<circle fill="#F9FF6A" cx="394.1" cy="147.2" r="16.6"/>
	</g>
	<g>
		<g>
			<circle cx="455" cy="178.9" r="21.2"/>
			<path fill="#FFEF15" d="M472,188c1.9-3.2,3.1-6.6,3.1-10.6c0-12-9.5-21.4-21.4-21.4c0,0-0.8,0-0.8,0v21.1L472,188z"/>
			<path fill="#FFFFFF" d="M452.9,155.8c-11,0-21.3,9.7-21.3,21.7c0,3.9,0.9,7.6,2.7,10.8l18.5-10.8V155.8z"/>
			<path fill="#ADA23E" d="M453.2,177.5l-18.7,10.8c3.7,6.5,10.8,10.9,18.8,10.9c8,0,15-4.3,18.7-10.8L453.2,177.5z"/>
		</g>
		<circle fill="#F9FF6A" cx="454.1" cy="177.2" r="16.6"/>
	</g>
	<g>
		<g>
			<circle cx="395" cy="208.9" r="21.2"/>
			<path fill="#FFEF15" d="M412,218c1.9-3.2,3.1-6.6,3.1-10.6c0-12-9.5-21.4-21.4-21.4c0,0-0.8,0-0.8,0v21.1L412,218z"/>
			<path fill="#FFFFFF" d="M392.9,185.8c-11,0-21.3,9.7-21.3,21.7c0,3.9,0.9,7.6,2.7,10.8l18.5-10.8V185.8z"/>
			<path fill="#ADA23E" d="M393.2,207.5l-18.7,10.8c3.7,6.5,10.8,10.9,18.8,10.9c8,0,15-4.3,18.7-10.8L393.2,207.5z"/>
		</g>
		<circle fill="#F9FF6A" cx="394.1" cy="207.2" r="16.6"/>
	</g>
	<g>
		<g>
			<circle cx="181" cy="288.9" r="21.2"/>
			<path fill="#FFEF15" d="M198,298c1.9-3.2,3.1-6.6,3.1-10.6c0-12-9.5-21.4-21.4-21.4c0,0-0.8,0-0.8,0v21.1L198,298z"/>
			<path fill="#FFFFFF" d="M178.9,265.8c-11,0-21.3,9.7-21.3,21.7c0,3.9,0.9,7.6,2.7,10.8l18.5-10.8V265.8z"/>
			<path fill="#ADA23E" d="M179.2,287.5l-18.7,10.8c3.7,6.5,10.8,10.9,18.8,10.9c8,0,15-4.3,18.7-10.8L179.2,287.5z"/>
		</g>
		<circle fill="#F9FF6A" cx="180.1" cy="287.2" r="16.6"/>
	</g>
	<g>
		<g>
			<circle cx="164" cy="341.9" r="21.2"/>
			<path fill="#FFEF15" d="M181,351c1.9-3.2,3.1-6.6,3.1-10.6c0-12-9.5-21.4-21.4-21.4c0,0-0.8,0-0.8,0v21.1L181,351z"/>
			<path fill="#FFFFFF" d="M161.9,318.8c-11,0-21.3,9.7-21.3,21.7c0,3.9,0.9,7.6,2.7,10.8l18.5-10.8V318.8z"/>
			<path fill="#ADA23E" d="M162.2,340.5l-18.7,10.8c3.7,6.5,10.8,10.9,18.8,10.9c8,0,15-4.3,18.7-10.8L162.2,340.5z"/>
		</g>
		<circle fill="#F9FF6A" cx="163.1" cy="340.2" r="16.6"/>
	</g>
	<g>
		<g>
			<circle cx="274" cy="340.9" r="21.2"/>
			<path fill="#FFEF15" d="M291,350c1.9-3.2,3.1-6.6,3.1-10.6c0-12-9.5-21.4-21.4-21.4c0,0-0.8,0-0.8,0v21.1L291,350z"/>
			<path fill="#FFFFFF" d="M271.9,317.8c-11,0-21.3,9.7-21.3,21.7c0,3.9,0.9,7.6,2.7,10.8l18.5-10.8V317.8z"/>
			<path fill="#ADA23E" d="M272.2,339.5l-18.7,10.8c3.7,6.5,10.8,10.9,18.8,10.9c8,0,15-4.3,18.7-10.8L272.2,339.5z"/>
		</g>
		<circle fill="#F9FF6A" cx="273.1" cy="339.2" r="16.6"/>
	</g>
	<g>
		<g>
			<circle cx="245" cy="258.9" r="21.2"/>
			<path fill="#FFEF15" d="M262,268c1.9-3.2,3.1-6.6,3.1-10.6c0-12-9.5-21.4-21.4-21.4c0,0-0.8,0-0.8,0v21.1L262,268z"/>
			<path fill="#FFFFFF" d="M242.9,235.8c-11,0-21.3,9.7-21.3,21.7c0,3.9,0.9,7.6,2.7,10.8l18.5-10.8V235.8z"/>
			<path fill="#ADA23E" d="M243.2,257.5l-18.7,10.8c3.7,6.5,10.8,10.9,18.8,10.9c8,0,15-4.3,18.7-10.8L243.2,257.5z"/>
		</g>
		<circle fill="#F9FF6A" cx="244.1" cy="257.2" r="16.6"/>
	</g>
	<g>
		<g>
			<circle cx="333" cy="222.9" r="21.2"/>
			<path fill="#FFEF15" d="M350,232c1.9-3.2,3.1-6.6,3.1-10.6c0-12-9.5-21.4-21.4-21.4c0,0-0.8,0-0.8,0v21.1L350,232z"/>
			<path fill="#FFFFFF" d="M330.9,199.8c-11,0-21.3,9.7-21.3,21.7c0,3.9,0.9,7.6,2.7,10.8l18.5-10.8V199.8z"/>
			<path fill="#ADA23E" d="M331.2,221.5l-18.7,10.8c3.7,6.5,10.8,10.9,18.8,10.9c8,0,15-4.3,18.7-10.8L331.2,221.5z"/>
		</g>
		<circle fill="#F9FF6A" cx="332.1" cy="221.2" r="16.6"/>
	</g>
	<g>
		<g>
			<circle cx="393" cy="252.9" r="21.2"/>
			<path fill="#FFEF15" d="M410,262c1.9-3.2,3.1-6.6,3.1-10.6c0-12-9.5-21.4-21.4-21.4c0,0-0.8,0-0.8,0v21.1L410,262z"/>
			<path fill="#FFFFFF" d="M390.9,229.8c-11,0-21.3,9.7-21.3,21.7c0,3.9,0.9,7.6,2.7,10.8l18.5-10.8V229.8z"/>
			<path fill="#ADA23E" d="M391.2,251.5l-18.7,10.8c3.7,6.5,10.8,10.9,18.8,10.9c8,0,15-4.3,18.7-10.8L391.2,251.5z"/>
		</g>
		<circle fill="#F9FF6A" cx="392.1" cy="251.2" r="16.6"/>
	</g>
	<g>
		<g>
			<circle cx="333" cy="282.9" r="21.2"/>
			<path fill="#FFEF15" d="M350,292c1.9-3.2,3.1-6.6,3.1-10.6c0-12-9.5-21.4-21.4-21.4c0,0-0.8,0-0.8,0v21.1L350,292z"/>
			<path fill="#FFFFFF" d="M330.9,259.8c-11,0-21.3,9.7-21.3,21.7c0,3.9,0.9,7.6,2.7,10.8l18.5-10.8V259.8z"/>
			<path fill="#ADA23E" d="M331.2,281.5l-18.7,10.8c3.7,6.5,10.8,10.9,18.8,10.9c8,0,15-4.3,18.7-10.8L331.2,281.5z"/>
		</g>
		<circle fill="#F9FF6A" cx="332.1" cy="281.2" r="16.6"/>
	</g>
	<g>
		<g>
			<circle cx="364" cy="170.9" r="21.2"/>
			<path fill="#FFEF15" d="M381,180c1.9-3.2,3.1-6.6,3.1-10.6c0-12-9.5-21.4-21.4-21.4c0,0-0.8,0-0.8,0v21.1L381,180z"/>
			<path fill="#FFFFFF" d="M361.9,147.8c-11,0-21.3,9.7-21.3,21.7c0,3.9,0.9,7.6,2.7,10.8l18.5-10.8V147.8z"/>
			<path fill="#ADA23E" d="M362.2,169.5l-18.7,10.8c3.7,6.5,10.8,10.9,18.8,10.9c8,0,15-4.3,18.7-10.8L362.2,169.5z"/>
		</g>
		<circle fill="#F9FF6A" cx="363.1" cy="169.2" r="16.6"/>
	</g>
	<g>
		<g>
			<circle cx="424" cy="200.9" r="21.2"/>
			<path fill="#FFEF15" d="M441,210c1.9-3.2,3.1-6.6,3.1-10.6c0-12-9.5-21.4-21.4-21.4c0,0-0.8,0-0.8,0v21.1L441,210z"/>
			<path fill="#FFFFFF" d="M421.9,177.8c-11,0-21.3,9.7-21.3,21.7c0,3.9,0.9,7.6,2.7,10.8l18.5-10.8V177.8z"/>
			<path fill="#ADA23E" d="M422.2,199.5l-18.7,10.8c3.7,6.5,10.8,10.9,18.8,10.9c8,0,15-4.3,18.7-10.8L422.2,199.5z"/>
		</g>
		<circle fill="#F9FF6A" cx="423.1" cy="199.2" r="16.6"/>
	</g>
	<g>
		<g>
			<circle cx="364" cy="230.9" r="21.2"/>
			<path fill="#FFEF15" d="M381,240c1.9-3.2,3.1-6.6,3.1-10.6c0-12-9.5-21.4-21.4-21.4c0,0-0.8,0-0.8,0v21.1L381,240z"/>
			<path fill="#FFFFFF" d="M361.9,207.8c-11,0-21.3,9.7-21.3,21.7c0,3.9,0.9,7.6,2.7,10.8l18.5-10.8V207.8z"/>
			<path fill="#ADA23E" d="M362.2,229.5l-18.7,10.8c3.7,6.5,10.8,10.9,18.8,10.9c8,0,15-4.3,18.7-10.8L362.2,229.5z"/>
		</g>
		<circle fill="#F9FF6A" cx="363.1" cy="229.2" r="16.6"/>
	</g>
	<g>
		<g>
			<circle cx="288" cy="249.9" r="21.2"/>
			<path fill="#FFEF15" d="M305,259c1.9-3.2,3.1-6.6,3.1-10.6c0-12-9.5-21.4-21.4-21.4c0,0-0.8,0-0.8,0v21.1L305,259z"/>
			<path fill="#FFFFFF" d="M285.9,226.8c-11,0-21.3,9.7-21.3,21.7c0,3.9,0.9,7.6,2.7,10.8l18.5-10.8V226.8z"/>
			<path fill="#ADA23E" d="M286.2,248.5l-18.7,10.8c3.7,6.5,10.8,10.9,18.8,10.9c8,0,15-4.3,18.7-10.8L286.2,248.5z"/>
		</g>
		<circle fill="#F9FF6A" cx="287.1" cy="248.2" r="16.6"/>
	</g>
	<g>
		<g>
			<circle cx="511" cy="428.9" r="21.2"/>
			<path fill="#FFEF15" d="M528,438c1.9-3.2,3.1-6.6,3.1-10.6c0-12-9.5-21.4-21.4-21.4c0,0-0.8,0-0.8,0v21.1L528,438z"/>
			<path fill="#FFFFFF" d="M508.9,405.8c-11,0-21.3,9.7-21.3,21.7c0,3.9,0.9,7.6,2.7,10.8l18.5-10.8V405.8z"/>
			<path fill="#ADA23E" d="M509.2,427.5l-18.7,10.8c3.7,6.5,10.8,10.9,18.8,10.9c8,0,15-4.3,18.7-10.8L509.2,427.5z"/>
		</g>
		<circle fill="#F9FF6A" cx="510.1" cy="427.2" r="16.6"/>
	</g>
	<g>
		<g>
			<circle cx="426" cy="334.9" r="21.2"/>
			<path fill="#FFEF15" d="M443,344c1.9-3.2,3.1-6.6,3.1-10.6c0-12-9.5-21.4-21.4-21.4c0,0-0.8,0-0.8,0v21.1L443,344z"/>
			<path fill="#FFFFFF" d="M423.9,311.8c-11,0-21.3,9.7-21.3,21.7c0,3.9,0.9,7.6,2.7,10.8l18.5-10.8V311.8z"/>
			<path fill="#ADA23E" d="M424.2,333.5l-18.7,10.8c3.7,6.5,10.8,10.9,18.8,10.9c8,0,15-4.3,18.7-10.8L424.2,333.5z"/>
		</g>
		<circle fill="#F9FF6A" cx="425.1" cy="333.2" r="16.6"/>
	</g>
	<g>
		<g>
			<circle cx="310" cy="180.9" r="21.2"/>
			<path fill="#FFEF15" d="M327,190c1.9-3.2,3.1-6.6,3.1-10.6c0-12-9.5-21.4-21.4-21.4c0,0-0.8,0-0.8,0v21.1L327,190z"/>
			<path fill="#FFFFFF" d="M307.9,157.8c-11,0-21.3,9.7-21.3,21.7c0,3.9,0.9,7.6,2.7,10.8l18.5-10.8V157.8z"/>
			<path fill="#ADA23E" d="M308.2,179.5l-18.7,10.8c3.7,6.5,10.8,10.9,18.8,10.9c8,0,15-4.3,18.7-10.8L308.2,179.5z"/>
		</g>
		<circle fill="#F9FF6A" cx="309.1" cy="179.2" r="16.6"/>
	</g>
	<g>
		<g>
			<circle cx="517" cy="252.9" r="21.2"/>
			<path fill="#FFEF15" d="M534,262c1.9-3.2,3.1-6.6,3.1-10.6c0-12-9.5-21.4-21.4-21.4c0,0-0.8,0-0.8,0v21.1L534,262z"/>
			<path fill="#FFFFFF" d="M514.9,229.8c-11,0-21.3,9.7-21.3,21.7c0,3.9,0.9,7.6,2.7,10.8l18.5-10.8V229.8z"/>
			<path fill="#ADA23E" d="M515.2,251.5l-18.7,10.8c3.7,6.5,10.8,10.9,18.8,10.9c8,0,15-4.3,18.7-10.8L515.2,251.5z"/>
		</g>
		<circle fill="#F9FF6A" cx="516.1" cy="251.2" r="16.6"/>
	</g>
	<g>
		<g>
			<circle cx="457" cy="282.9" r="21.2"/>
			<path fill="#FFEF15" d="M474,292c1.9-3.2,3.1-6.6,3.1-10.6c0-12-9.5-21.4-21.4-21.4c0,0-0.8,0-0.8,0v21.1L474,292z"/>
			<path fill="#FFFFFF" d="M454.9,259.8c-11,0-21.3,9.7-21.3,21.7c0,3.9,0.9,7.6,2.7,10.8l18.5-10.8V259.8z"/>
			<path fill="#ADA23E" d="M455.2,281.5l-18.7,10.8c3.7,6.5,10.8,10.9,18.8,10.9c8,0,15-4.3,18.7-10.8L455.2,281.5z"/>
		</g>
		<circle fill="#F9FF6A" cx="456.1" cy="281.2" r="16.6"/>
	</g>
	<g>
		<g>
			<circle cx="453" cy="152.9" r="21.2"/>
			<path fill="#FFEF15" d="M470,162c1.9-3.2,3.1-6.6,3.1-10.6c0-12-9.5-21.4-21.4-21.4c0,0-0.8,0-0.8,0v21.1L470,162z"/>
			<path fill="#FFFFFF" d="M450.9,129.8c-11,0-21.3,9.7-21.3,21.7c0,3.9,0.9,7.6,2.7,10.8l18.5-10.8V129.8z"/>
			<path fill="#ADA23E" d="M451.2,151.5l-18.7,10.8c3.7,6.5,10.8,10.9,18.8,10.9c8,0,15-4.3,18.7-10.8L451.2,151.5z"/>
		</g>
		<circle fill="#F9FF6A" cx="452.1" cy="151.2" r="16.6"/>
	</g>
	<g>
		<g>
			<circle cx="513" cy="182.9" r="21.2"/>
			<path fill="#FFEF15" d="M530,192c1.9-3.2,3.1-6.6,3.1-10.6c0-12-9.5-21.4-21.4-21.4c0,0-0.8,0-0.8,0v21.1L530,192z"/>
			<path fill="#FFFFFF" d="M510.9,159.8c-11,0-21.3,9.7-21.3,21.7c0,3.9,0.9,7.6,2.7,10.8l18.5-10.8V159.8z"/>
			<path fill="#ADA23E" d="M511.2,181.5l-18.7,10.8c3.7,6.5,10.8,10.9,18.8,10.9c8,0,15-4.3,18.7-10.8L511.2,181.5z"/>
		</g>
		<circle fill="#F9FF6A" cx="512.1" cy="181.2" r="16.6"/>
	</g>
	<g>
		<g>
			<circle cx="332" cy="113.9" r="21.2"/>
			<path fill="#FFEF15" d="M349,123c1.9-3.2,3.1-6.6,3.1-10.6c0-12-9.5-21.4-21.4-21.4c0,0-0.8,0-0.8,0v21.1L349,123z"/>
			<path fill="#FFFFFF" d="M329.9,90.8c-11,0-21.3,9.7-21.3,21.7c0,3.9,0.9,7.6,2.7,10.8l18.5-10.8V90.8z"/>
			<path fill="#ADA23E" d="M330.2,112.5l-18.7,10.8c3.7,6.5,10.8,10.9,18.8,10.9c8,0,15-4.3,18.7-10.8L330.2,112.5z"/>
		</g>
		<circle fill="#F9FF6A" cx="331.1" cy="112.2" r="16.6"/>
	</g>
	<g>
		<g>
			<circle cx="258" cy="279.9" r="21.2"/>
			<path fill="#FFEF15" d="M275,289c1.9-3.2,3.1-6.6,3.1-10.6c0-12-9.5-21.4-21.4-21.4c0,0-0.8,0-0.8,0v21.1L275,289z"/>
			<path fill="#FFFFFF" d="M255.9,256.8c-11,0-21.3,9.7-21.3,21.7c0,3.9,0.9,7.6,2.7,10.8l18.5-10.8V256.8z"/>
			<path fill="#ADA23E" d="M256.2,278.5l-18.7,10.8c3.7,6.5,10.8,10.9,18.8,10.9c8,0,15-4.3,18.7-10.8L256.2,278.5z"/>
		</g>
		<circle fill="#F9FF6A" cx="257.1" cy="278.2" r="16.6"/>
	</g>
	<g>
		<g>
			<circle cx="280" cy="210.9" r="21.2"/>
			<path fill="#FFEF15" d="M297,220c1.9-3.2,3.1-6.6,3.1-10.6c0-12-9.5-21.4-21.4-21.4c0,0-0.8,0-0.8,0v21.1L297,220z"/>
			<path fill="#FFFFFF" d="M277.9,187.8c-11,0-21.3,9.7-21.3,21.7c0,3.9,0.9,7.6,2.7,10.8l18.5-10.8V187.8z"/>
			<path fill="#ADA23E" d="M278.2,209.5l-18.7,10.8c3.7,6.5,10.8,10.9,18.8,10.9c8,0,15-4.3,18.7-10.8L278.2,209.5z"/>
		</g>
		<circle fill="#F9FF6A" cx="279.1" cy="209.2" r="16.6"/>
	</g>
	<g>
		<g>
			<circle cx="302" cy="143.9" r="21.2"/>
			<path fill="#FFEF15" d="M319,153c1.9-3.2,3.1-6.6,3.1-10.6c0-12-9.5-21.4-21.4-21.4c0,0-0.8,0-0.8,0v21.1L319,153z"/>
			<path fill="#FFFFFF" d="M299.9,120.8c-11,0-21.3,9.7-21.3,21.7c0,3.9,0.9,7.6,2.7,10.8l18.5-10.8V120.8z"/>
			<path fill="#ADA23E" d="M300.2,142.5l-18.7,10.8c3.7,6.5,10.8,10.9,18.8,10.9c8,0,15-4.3,18.7-10.8L300.2,142.5z"/>
		</g>
		<circle fill="#F9FF6A" cx="301.1" cy="142.2" r="16.6"/>
	</g>
	<g>
		<g>
			<circle cx="308" cy="319.9" r="21.2"/>
			<path fill="#FFEF15" d="M325,329c1.9-3.2,3.1-6.6,3.1-10.6c0-12-9.5-21.4-21.4-21.4c0,0-0.8,0-0.8,0v21.1L325,329z"/>
			<path fill="#FFFFFF" d="M305.9,296.8c-11,0-21.3,9.7-21.3,21.7c0,3.9,0.9,7.6,2.7,10.8l18.5-10.8V296.8z"/>
			<path fill="#ADA23E" d="M306.2,318.5l-18.7,10.8c3.7,6.5,10.8,10.9,18.8,10.9c8,0,15-4.3,18.7-10.8L306.2,318.5z"/>
		</g>
		<circle fill="#F9FF6A" cx="307.1" cy="318.2" r="16.6"/>
	</g>
	<g>
		<g>
			<circle cx="576" cy="327.9" r="21.2"/>
			<path fill="#FFEF15" d="M593,337c1.9-3.2,3.1-6.6,3.1-10.6c0-12-9.5-21.4-21.4-21.4c0,0-0.8,0-0.8,0v21.1L593,337z"/>
			<path fill="#FFFFFF" d="M573.9,304.8c-11,0-21.3,9.7-21.3,21.7c0,3.9,0.9,7.6,2.7,10.8l18.5-10.8V304.8z"/>
			<path fill="#ADA23E" d="M574.2,326.5l-18.7,10.8c3.7,6.5,10.8,10.9,18.8,10.9c8,0,15-4.3,18.7-10.8L574.2,326.5z"/>
		</g>
		<circle fill="#F9FF6A" cx="575.1" cy="326.2" r="16.6"/>
	</g>
	<g>
		<g>
			<circle cx="352" cy="183.9" r="21.2"/>
			<path fill="#FFEF15" d="M369,193c1.9-3.2,3.1-6.6,3.1-10.6c0-12-9.5-21.4-21.4-21.4c0,0-0.8,0-0.8,0v21.1L369,193z"/>
			<path fill="#FFFFFF" d="M349.9,160.8c-11,0-21.3,9.7-21.3,21.7c0,3.9,0.9,7.6,2.7,10.8l18.5-10.8V160.8z"/>
			<path fill="#ADA23E" d="M350.2,182.5l-18.7,10.8c3.7,6.5,10.8,10.9,18.8,10.9c8,0,15-4.3,18.7-10.8L350.2,182.5z"/>
		</g>
		<circle fill="#F9FF6A" cx="351.1" cy="182.2" r="16.6"/>
	</g>
	<g>
		<g>
			<circle cx="242" cy="46.9" r="21.2"/>
			<path fill="#FFEF15" d="M259,56c1.9-3.2,3.1-6.6,3.1-10.6c0-12-9.5-21.4-21.4-21.4c0,0-0.8,0-0.8,0v21.1L259,56z"/>
			<path fill="#FFFFFF" d="M239.9,23.8c-11,0-21.3,9.7-21.3,21.7c0,3.9,0.9,7.6,2.7,10.8l18.5-10.8V23.8z"/>
			<path fill="#ADA23E" d="M240.2,45.5l-18.7,10.8c3.7,6.5,10.8,10.9,18.8,10.9c8,0,15-4.3,18.7-10.8L240.2,45.5z"/>
		</g>
		<circle fill="#F9FF6A" cx="241.1" cy="45.2" r="16.6"/>
	</g>
	<g>
		<g>
			<circle cx="226" cy="112.9" r="21.2"/>
			<path fill="#FFEF15" d="M243,122c1.9-3.2,3.1-6.6,3.1-10.6c0-12-9.5-21.4-21.4-21.4c0,0-0.8,0-0.8,0v21.1L243,122z"/>
			<path fill="#FFFFFF" d="M223.9,89.8c-11,0-21.3,9.7-21.3,21.7c0,3.9,0.9,7.6,2.7,10.8l18.5-10.8V89.8z"/>
			<path fill="#ADA23E" d="M224.2,111.5l-18.7,10.8c3.7,6.5,10.8,10.9,18.8,10.9c8,0,15-4.3,18.7-10.8L224.2,111.5z"/>
		</g>
		<circle fill="#F9FF6A" cx="225.1" cy="111.2" r="16.6"/>
	</g>
	<g>
		<g>
			<circle cx="352" cy="33.9" r="21.2"/>
			<path fill="#FFEF15" d="M369,43c1.9-3.2,3.1-6.6,3.1-10.6c0-12-9.5-21.4-21.4-21.4c0,0-0.8,0-0.8,0v21.1L369,43z"/>
			<path fill="#FFFFFF" d="M349.9,10.8c-11,0-21.3,9.7-21.3,21.7c0,3.9,0.9,7.6,2.7,10.8l18.5-10.8V10.8z"/>
			<path fill="#ADA23E" d="M350.2,32.5l-18.7,10.8c3.7,6.5,10.8,10.9,18.8,10.9c8,0,15-4.3,18.7-10.8L350.2,32.5z"/>
		</g>
		<circle fill="#F9FF6A" cx="351.1" cy="32.2" r="16.6"/>
	</g>
	<g>
		<g>
			<circle cx="484" cy="100.9" r="21.2"/>
			<path fill="#FFEF15" d="M501,110c1.9-3.2,3.1-6.6,3.1-10.6c0-12-9.5-21.4-21.4-21.4c0,0-0.8,0-0.8,0v21.1L501,110z"/>
			<path fill="#FFFFFF" d="M481.9,77.8c-11,0-21.3,9.7-21.3,21.7c0,3.9,0.9,7.6,2.7,10.8l18.5-10.8V77.8z"/>
			<path fill="#ADA23E" d="M482.2,99.5l-18.7,10.8c3.7,6.5,10.8,10.9,18.8,10.9c8,0,15-4.3,18.7-10.8L482.2,99.5z"/>
		</g>
		<circle fill="#F9FF6A" cx="483.1" cy="99.2" r="16.6"/>
	</g>
	<g>
		<g>
			<circle cx="544" cy="130.9" r="21.2"/>
			<path fill="#FFEF15" d="M561,140c1.9-3.2,3.1-6.6,3.1-10.6c0-12-9.5-21.4-21.4-21.4c0,0-0.8,0-0.8,0v21.1L561,140z"/>
			<path fill="#FFFFFF" d="M541.9,107.8c-11,0-21.3,9.7-21.3,21.7c0,3.9,0.9,7.6,2.7,10.8l18.5-10.8V107.8z"/>
			<path fill="#ADA23E" d="M542.2,129.5l-18.7,10.8c3.7,6.5,10.8,10.9,18.8,10.9c8,0,15-4.3,18.7-10.8L542.2,129.5z"/>
		</g>
		<circle fill="#F9FF6A" cx="543.1" cy="129.2" r="16.6"/>
	</g>
	<g>
		<g>
			<circle cx="423" cy="146.9" r="21.2"/>
			<path fill="#FFEF15" d="M440,156c1.9-3.2,3.1-6.6,3.1-10.6c0-12-9.5-21.4-21.4-21.4c0,0-0.8,0-0.8,0v21.1L440,156z"/>
			<path fill="#FFFFFF" d="M420.9,123.8c-11,0-21.3,9.7-21.3,21.7c0,3.9,0.9,7.6,2.7,10.8l18.5-10.8V123.8z"/>
			<path fill="#ADA23E" d="M421.2,145.5l-18.7,10.8c3.7,6.5,10.8,10.9,18.8,10.9c8,0,15-4.3,18.7-10.8L421.2,145.5z"/>
		</g>
		<circle fill="#F9FF6A" cx="422.1" cy="145.2" r="16.6"/>
	</g>
	<g>
		<g>
			<circle cx="496" cy="235.9" r="21.2"/>
			<path fill="#FFEF15" d="M513,245c1.9-3.2,3.1-6.6,3.1-10.6c0-12-9.5-21.4-21.4-21.4c0,0-0.8,0-0.8,0v21.1L513,245z"/>
			<path fill="#FFFFFF" d="M493.9,212.8c-11,0-21.3,9.7-21.3,21.7c0,3.9,0.9,7.6,2.7,10.8l18.5-10.8V212.8z"/>
			<path fill="#ADA23E" d="M494.2,234.5l-18.7,10.8c3.7,6.5,10.8,10.9,18.8,10.9c8,0,15-4.3,18.7-10.8L494.2,234.5z"/>
		</g>
		<circle fill="#F9FF6A" cx="495.1" cy="234.2" r="16.6"/>
	</g>
	<g>
		<g>
			<circle cx="606" cy="234.9" r="21.2"/>
			<path fill="#FFEF15" d="M623,244c1.9-3.2,3.1-6.6,3.1-10.6c0-12-9.5-21.4-21.4-21.4c0,0-0.8,0-0.8,0v21.1L623,244z"/>
			<path fill="#FFFFFF" d="M603.9,211.8c-11,0-21.3,9.7-21.3,21.7c0,3.9,0.9,7.6,2.7,10.8l18.5-10.8V211.8z"/>
			<path fill="#ADA23E" d="M604.2,233.5l-18.7,10.8c3.7,6.5,10.8,10.9,18.8,10.9c8,0,15-4.3,18.7-10.8L604.2,233.5z"/>
		</g>
		<circle fill="#F9FF6A" cx="605.1" cy="233.2" r="16.6"/>
	</g>
	<g>
		<g>
			<circle cx="546" cy="264.9" r="21.2"/>
			<path fill="#FFEF15" d="M563,274c1.9-3.2,3.1-6.6,3.1-10.6c0-12-9.5-21.4-21.4-21.4c0,0-0.8,0-0.8,0v21.1L563,274z"/>
			<path fill="#FFFFFF" d="M543.9,241.8c-11,0-21.3,9.7-21.3,21.7c0,3.9,0.9,7.6,2.7,10.8l18.5-10.8V241.8z"/>
			<path fill="#ADA23E" d="M544.2,263.5l-18.7,10.8c3.7,6.5,10.8,10.9,18.8,10.9c8,0,15-4.3,18.7-10.8L544.2,263.5z"/>
		</g>
		<circle fill="#F9FF6A" cx="545.1" cy="263.2" r="16.6"/>
	</g>
	<g>
		<g>
			<circle cx="577" cy="152.9" r="21.2"/>
			<path fill="#FFEF15" d="M594,162c1.9-3.2,3.1-6.6,3.1-10.6c0-12-9.5-21.4-21.4-21.4c0,0-0.8,0-0.8,0v21.1L594,162z"/>
			<path fill="#FFFFFF" d="M574.9,129.8c-11,0-21.3,9.7-21.3,21.7c0,3.9,0.9,7.6,2.7,10.8l18.5-10.8V129.8z"/>
			<path fill="#ADA23E" d="M575.2,151.5l-18.7,10.8c3.7,6.5,10.8,10.9,18.8,10.9c8,0,15-4.3,18.7-10.8L575.2,151.5z"/>
		</g>
		<circle fill="#F9FF6A" cx="576.1" cy="151.2" r="16.6"/>
	</g>
	<g>
		<g>
			<circle cx="637" cy="182.9" r="21.2"/>
			<path fill="#FFEF15" d="M654,192c1.9-3.2,3.1-6.6,3.1-10.6c0-12-9.5-21.4-21.4-21.4c0,0-0.8,0-0.8,0v21.1L654,192z"/>
			<path fill="#FFFFFF" d="M634.9,159.8c-11,0-21.3,9.7-21.3,21.7c0,3.9,0.9,7.6,2.7,10.8l18.5-10.8V159.8z"/>
			<path fill="#ADA23E" d="M635.2,181.5l-18.7,10.8c3.7,6.5,10.8,10.9,18.8,10.9c8,0,15-4.3,18.7-10.8L635.2,181.5z"/>
		</g>
		<circle fill="#F9FF6A" cx="636.1" cy="181.2" r="16.6"/>
	</g>
	<g>
		<g>
			<circle cx="577" cy="212.9" r="21.2"/>
			<path fill="#FFEF15" d="M594,222c1.9-3.2,3.1-6.6,3.1-10.6c0-12-9.5-21.4-21.4-21.4c0,0-0.8,0-0.8,0v21.1L594,222z"/>
			<path fill="#FFFFFF" d="M574.9,189.8c-11,0-21.3,9.7-21.3,21.7c0,3.9,0.9,7.6,2.7,10.8l18.5-10.8V189.8z"/>
			<path fill="#ADA23E" d="M575.2,211.5l-18.7,10.8c3.7,6.5,10.8,10.9,18.8,10.9c8,0,15-4.3,18.7-10.8L575.2,211.5z"/>
		</g>
		<circle fill="#F9FF6A" cx="576.1" cy="211.2" r="16.6"/>
	</g>
	<g>
		<g>
			<circle cx="363" cy="292.9" r="21.2"/>
			<path fill="#FFEF15" d="M380,302c1.9-3.2,3.1-6.6,3.1-10.6c0-12-9.5-21.4-21.4-21.4c0,0-0.8,0-0.8,0v21.1L380,302z"/>
			<path fill="#FFFFFF" d="M360.9,269.8c-11,0-21.3,9.7-21.3,21.7c0,3.9,0.9,7.6,2.7,10.8l18.5-10.8V269.8z"/>
			<path fill="#ADA23E" d="M361.2,291.5l-18.7,10.8c3.7,6.5,10.8,10.9,18.8,10.9c8,0,15-4.3,18.7-10.8L361.2,291.5z"/>
		</g>
		<circle fill="#F9FF6A" cx="362.1" cy="291.2" r="16.6"/>
	</g>
	<g>
		<g>
			<circle cx="346" cy="345.9" r="21.2"/>
			<path fill="#FFEF15" d="M363,355c1.9-3.2,3.1-6.6,3.1-10.6c0-12-9.5-21.4-21.4-21.4c0,0-0.8,0-0.8,0v21.1L363,355z"/>
			<path fill="#FFFFFF" d="M343.9,322.8c-11,0-21.3,9.7-21.3,21.7c0,3.9,0.9,7.6,2.7,10.8l18.5-10.8V322.8z"/>
			<path fill="#ADA23E" d="M344.2,344.5l-18.7,10.8c3.7,6.5,10.8,10.9,18.8,10.9c8,0,15-4.3,18.7-10.8L344.2,344.5z"/>
		</g>
		<circle fill="#F9FF6A" cx="345.1" cy="344.2" r="16.6"/>
	</g>
	<g>
		<g>
			<circle cx="571" cy="375.9" r="21.2"/>
			<path fill="#FFEF15" d="M588,385c1.9-3.2,3.1-6.6,3.1-10.6c0-12-9.5-21.4-21.4-21.4c0,0-0.8,0-0.8,0v21.1L588,385z"/>
			<path fill="#FFFFFF" d="M568.9,352.8c-11,0-21.3,9.7-21.3,21.7c0,3.9,0.9,7.6,2.7,10.8l18.5-10.8V352.8z"/>
			<path fill="#ADA23E" d="M569.2,374.5l-18.7,10.8c3.7,6.5,10.8,10.9,18.8,10.9c8,0,15-4.3,18.7-10.8L569.2,374.5z"/>
		</g>
		<circle fill="#F9FF6A" cx="570.1" cy="374.2" r="16.6"/>
	</g>
	<g>
		<g>
			<circle cx="658" cy="365.9" r="21.2"/>
			<path fill="#FFEF15" d="M675,375c1.9-3.2,3.1-6.6,3.1-10.6c0-12-9.5-21.4-21.4-21.4c0,0-0.8,0-0.8,0v21.1L675,375z"/>
			<path fill="#FFFFFF" d="M655.9,342.8c-11,0-21.3,9.7-21.3,21.7c0,3.9,0.9,7.6,2.7,10.8l18.5-10.8V342.8z"/>
			<path fill="#ADA23E" d="M656.2,364.5l-18.7,10.8c3.7,6.5,10.8,10.9,18.8,10.9c8,0,15-4.3,18.7-10.8L656.2,364.5z"/>
		</g>
		<circle fill="#F9FF6A" cx="657.1" cy="364.2" r="16.6"/>
	</g>
	<g>
		<g>
			<circle cx="658" cy="445.9" r="21.2"/>
			<path fill="#FFEF15" d="M675,455c1.9-3.2,3.1-6.6,3.1-10.6c0-12-9.5-21.4-21.4-21.4c0,0-0.8,0-0.8,0v21.1L675,455z"/>
			<path fill="#FFFFFF" d="M655.9,422.8c-11,0-21.3,9.7-21.3,21.7c0,3.9,0.9,7.6,2.7,10.8l18.5-10.8V422.8z"/>
			<path fill="#ADA23E" d="M656.2,444.5l-18.7,10.8c3.7,6.5,10.8,10.9,18.8,10.9c8,0,15-4.3,18.7-10.8L656.2,444.5z"/>
		</g>
		<circle fill="#F9FF6A" cx="657.1" cy="444.2" r="16.6"/>
	</g>
</g>
</svg>
