<?xml version="1.0" encoding="UTF-8"?>
<svg id="_レイヤー_1" data-name="レイヤー_1" xmlns="http://www.w3.org/2000/svg" version="1.1" viewBox="0 0 800 500">
  <!-- Generator: Adobe Illustrator 30.1.0, SVG Export Plug-In . SVG Version: 2.1.1 Build 136)  -->
  <defs>
    <style>
      .st0 {
        fill: #211613;
      }

      .st1 {
        fill: #1a4592;
      }

      .st2 {
        fill: #d8261c;
      }

      .st3 {
        fill: #f1ebd3;
      }

      .st4 {
        fill: #316647;
      }

      .st5 {
        fill: #2c4b39;
      }
    </style>
  </defs>
  <rect class="st4" width="800" height="500"/>
  <polygon class="st5" points="511.36 148.06 298.45 360.97 437.47 500 733.03 500 733.03 369.72 511.36 148.06"/>
  <polygon class="st5" points="800 500 800 434.86 733.03 369.72 733.03 500 800 500"/>
  <path class="st0" d="M553.86,230.83c-2.5-15.97-7.5-30.97-14.58-44.86-7.22-14.17-16.67-26.94-27.78-38.06s-24.03-20.56-38.06-27.78c-13.89-7.08-28.89-12.08-44.86-14.58-7.64-1.25-15.56-1.81-23.61-1.81s-15.83.69-23.61,1.81c-15.83,2.5-30.97,7.5-44.86,14.58-14.17,7.22-26.94,16.67-38.06,27.78-11.11,11.11-20.56,24.03-27.78,38.06-7.08,13.89-12.08,28.89-14.58,44.86-1.25,7.64-1.81,15.56-1.81,23.61s.69,15.83,1.81,23.61c2.5,15.83,7.5,30.97,14.58,44.86,7.22,14.17,16.67,26.94,27.78,38.06,11.11,11.11,24.03,20.56,38.06,27.78,13.89,7.08,28.89,12.08,44.86,14.58,7.64,1.25,15.56,1.81,23.61,1.81s15.83-.69,23.61-1.81c15.83-2.5,30.97-7.5,44.86-14.58,14.17-7.22,26.94-16.67,38.06-27.78,11.11-11.11,20.56-24.03,27.78-38.06,7.08-13.89,12.08-28.89,14.58-44.86,1.25-7.64,1.81-15.56,1.81-23.61.14-8.06-.56-15.97-1.81-23.61ZM513.45,309.58c-5.83,11.39-13.33,21.81-22.36,30.69-9.03,9.03-19.31,16.53-30.69,22.36-11.11,5.69-23.33,9.72-36.11,11.67-6.25.97-12.5,1.53-19.03,1.53s-12.78-.56-19.03-1.53c-12.78-2.08-25-5.97-36.11-11.67-11.39-5.83-21.81-13.33-30.69-22.36-9.03-9.03-16.53-19.31-22.36-30.69-5.69-11.11-9.72-23.33-11.67-36.11-.97-6.25-1.53-12.5-1.53-19.03s.56-12.78,1.53-19.03c2.08-12.78,5.97-25,11.67-36.11,5.83-11.39,13.33-21.81,22.36-30.69,9.03-9.03,19.31-16.53,30.69-22.36,11.11-5.69,23.33-9.72,36.11-11.67,6.25-.97,12.5-1.53,19.03-1.53s12.78.56,19.03,1.53c12.78,1.94,25,5.97,36.11,11.67,11.39,5.83,21.81,13.33,30.69,22.36,9.03,9.03,16.53,19.31,22.36,30.69,5.69,11.11,9.72,23.33,11.67,36.11.97,6.25,1.53,12.5,1.53,19.03s-.56,12.78-1.53,19.03c-1.94,12.78-5.97,24.86-11.67,36.11Z"/>
  <path class="st1" d="M387.34,141.53l-1.11-7.22c-12.78,1.94-25,5.97-36.11,11.67l3.33,6.53c10.42-5.28,21.81-9.03,33.89-10.97Z"/>
  <path class="st1" d="M324.42,173.61l-5.14-5.14c-9.03,9.03-16.53,19.31-22.36,30.69l6.53,3.33c5.42-10.69,12.5-20.42,20.97-28.89Z"/>
  <path class="st1" d="M290.95,254.31c0-6.11.42-12.08,1.39-17.92l-7.22-1.11c-.97,6.25-1.53,12.5-1.53,19.03s.56,12.78,1.53,19.03l7.22-1.11c-.83-5.83-1.39-11.81-1.39-17.92Z"/>
  <path class="st1" d="M506.92,202.5l6.53-3.33c-5.83-11.39-13.33-21.81-22.36-30.69l-5.14,5.14c8.33,8.47,15.56,18.19,20.97,28.89Z"/>
  <path class="st1" d="M457.06,152.64l3.33-6.53c-11.11-5.69-23.33-9.72-36.11-11.67l-1.11,7.22c11.94,1.81,23.33,5.56,33.89,10.97Z"/>
  <path class="st1" d="M485.95,335.14l5.14,5.14c9.03-9.03,16.53-19.31,22.36-30.69l-6.53-3.33c-5.42,10.69-12.64,20.42-20.97,28.89Z"/>
  <path class="st1" d="M423.03,367.08l1.11,7.22c12.78-2.08,25-5.97,36.11-11.67l-3.33-6.53c-10.42,5.42-21.81,9.17-33.89,10.97Z"/>
  <path class="st1" d="M525.11,235.42l-7.22,1.11c.97,5.83,1.39,11.81,1.39,17.92s-.42,12.08-1.39,17.92l7.22,1.11c.97-6.25,1.53-12.5,1.53-19.03s-.56-12.92-1.53-19.03Z"/>
  <path class="st1" d="M303.45,306.25l-6.53,3.33c5.83,11.39,13.33,21.81,22.36,30.69l5.14-5.14c-8.47-8.47-15.56-18.19-20.97-28.89Z"/>
  <path class="st1" d="M353.31,356.11l-3.33,6.53c11.11,5.69,23.33,9.72,36.11,11.67l1.11-7.22c-11.94-1.81-23.33-5.56-33.89-10.97Z"/>
  <path class="st0" d="M336.92,219.58l-33.47-17.08c-5.42,10.56-9.17,21.94-10.97,34.03l37.08,5.83c1.11-8.06,3.75-15.83,7.36-22.78Z"/>
  <path class="st3" d="M350.95,200.14l-26.53-26.53c-8.47,8.47-15.56,18.19-20.97,28.89l33.47,17.08c3.61-7.22,8.33-13.75,14.03-19.44Z"/>
  <path class="st3" d="M328.45,254.31c0-4.03.28-8.06.97-11.94l-37.08-5.83c-.97,5.83-1.39,11.81-1.39,17.92s.42,12.08,1.39,17.92l37.08-5.83c-.56-4.03-.97-8.06-.97-12.22Z"/>
  <path class="st0" d="M370.39,186.11l-17.08-33.47c-10.69,5.42-20.42,12.64-28.89,20.97l26.53,26.53c5.69-5.69,12.22-10.42,19.44-14.03Z"/>
  <path class="st3" d="M393.17,178.61l-5.83-37.08c-12.08,1.94-23.47,5.69-34.03,10.97l17.08,33.47c7.08-3.47,14.72-6.11,22.78-7.36Z"/>
  <path class="st0" d="M459.42,200.14l26.53-26.53c-8.47-8.47-18.19-15.56-28.89-20.97l-17.08,33.47c7.22,3.61,13.75,8.33,19.44,14.03Z"/>
  <path class="st3" d="M473.45,219.58l33.47-17.08c-5.42-10.69-12.64-20.42-20.97-28.89l-26.53,26.53c5.56,5.69,10.42,12.22,14.03,19.44Z"/>
  <path class="st3" d="M439.97,186.11l17.08-33.47c-10.56-5.42-21.94-9.17-34.03-10.97l-5.83,37.08c8.06,1.11,15.69,3.75,22.78,7.36Z"/>
  <path class="st0" d="M329.42,266.39l-37.08,5.83c1.94,12.08,5.69,23.47,10.97,34.03l33.47-17.08c-3.47-7.08-6.11-14.72-7.36-22.78Z"/>
  <path class="st0" d="M405.11,177.64c4.03,0,8.06.28,11.94.97l5.83-37.08c-5.83-.97-11.81-1.39-17.92-1.39s-12.08.42-17.92,1.39l5.83,37.08c4.17-.56,8.19-.97,12.22-.97Z"/>
  <path class="st3" d="M336.92,289.17l-33.47,17.08c5.42,10.69,12.64,20.42,20.97,28.89l26.53-26.53c-5.69-5.69-10.42-12.22-14.03-19.44Z"/>
  <path class="st0" d="M439.97,322.64l17.08,33.47c10.69-5.42,20.42-12.64,28.89-20.97l-26.53-26.53c-5.69,5.56-12.22,10.42-19.44,14.03Z"/>
  <path class="st0" d="M473.45,289.17l33.47,17.08c5.42-10.56,9.17-21.94,10.97-34.03l-37.08-5.83c-1.25,8.06-3.75,15.69-7.36,22.78Z"/>
  <path class="st3" d="M481.78,254.31c0,4.03-.28,8.06-.97,11.94l37.08,5.83c.97-5.83,1.39-11.81,1.39-17.92s-.42-12.08-1.39-17.92l-37.08,5.83c.69,4.17.97,8.19.97,12.22Z"/>
  <path class="st0" d="M473.45,219.58c3.61,7.08,6.11,14.72,7.36,22.78l37.08-5.83c-1.94-12.08-5.69-23.47-10.97-34.03l-33.47,17.08Z"/>
  <path class="st3" d="M459.42,308.61l26.53,26.53c8.47-8.47,15.56-18.19,20.97-28.89l-33.47-17.08c-3.61,7.22-8.47,13.75-14.03,19.44Z"/>
  <path class="st0" d="M350.95,308.61l-26.53,26.53c8.47,8.47,18.19,15.56,28.89,20.97l17.08-33.47c-7.22-3.61-13.75-8.47-19.44-14.03Z"/>
  <path class="st0" d="M405.11,330.97c-4.03,0-8.06-.28-11.94-.97l-5.83,37.08c5.83.97,11.81,1.39,17.92,1.39s12.08-.42,17.92-1.39l-5.83-37.08c-4.03.69-8.06.97-12.22.97Z"/>
  <path class="st3" d="M370.39,322.64l-17.08,33.47c10.56,5.42,21.94,9.17,34.03,10.97l5.83-37.08c-8.06-1.25-15.69-3.75-22.78-7.36Z"/>
  <path class="st3" d="M417.2,330.14l5.83,37.08c12.08-1.94,23.47-5.69,34.03-10.97l-17.08-33.61c-7.08,3.61-14.72,6.11-22.78,7.5Z"/>
  <path class="st2" d="M343.59,222.92l-6.67-3.33c-3.61,7.08-6.11,14.72-7.36,22.78l7.36,1.11c1.11-7.22,3.33-14.17,6.67-20.56Z"/>
  <path class="st1" d="M356.22,205.42l-5.28-5.28c-5.69,5.69-10.42,12.22-14.17,19.44l6.67,3.33c3.33-6.53,7.64-12.36,12.78-17.5Z"/>
  <path class="st2" d="M336.78,265.14l-7.36,1.11c1.25,8.06,3.75,15.83,7.36,22.78l6.67-3.33c-3.19-6.25-5.42-13.19-6.67-20.56Z"/>
  <path class="st1" d="M335.95,254.31c0-3.75.28-7.36.83-10.83l-7.36-1.11c-.56,3.89-.97,7.92-.97,11.94s.28,8.06.97,11.94l7.36-1.11c-.56-3.47-.83-7.08-.83-10.83Z"/>
  <path class="st2" d="M373.72,192.78l-3.33-6.67c-7.22,3.61-13.75,8.47-19.44,14.17l5.28,5.28c5.14-5.28,11.11-9.58,17.5-12.78Z"/>
  <path class="st1" d="M343.59,285.83l-6.67,3.33c3.61,7.22,8.47,13.75,14.17,19.44l5.28-5.28c-5.28-5.14-9.58-11.11-12.78-17.5Z"/>
  <path class="st2" d="M454.14,205.42l5.28-5.28c-5.69-5.69-12.22-10.42-19.44-14.17l-3.33,6.67c6.39,3.33,12.36,7.64,17.5,12.78Z"/>
  <path class="st2" d="M405.11,185.14c3.75,0,7.36.28,10.83.83l1.11-7.36c-3.89-.56-7.92-.97-11.94-.97s-8.06.28-11.94.97l1.11,7.36c3.61-.56,7.22-.83,10.83-.83Z"/>
  <path class="st1" d="M394.28,185.97l-1.11-7.36c-8.06,1.25-15.83,3.75-22.78,7.36l3.33,6.67c6.39-3.19,13.33-5.42,20.56-6.67Z"/>
  <path class="st1" d="M436.64,192.78l3.33-6.67c-7.08-3.61-14.72-6.11-22.78-7.36l-1.11,7.36c7.22,1.11,14.17,3.33,20.56,6.67Z"/>
  <path class="st2" d="M436.64,315.97l3.33,6.67c7.22-3.61,13.75-8.47,19.44-14.17l-5.28-5.28c-5.14,5.14-11.11,9.44-17.5,12.78Z"/>
  <path class="st2" d="M466.78,285.83l6.67,3.33c3.61-7.08,6.11-14.72,7.36-22.78l-7.36-1.11c-1.11,7.22-3.33,14.17-6.67,20.56Z"/>
  <path class="st1" d="M474.42,254.31c0,3.75-.28,7.36-.83,10.83l7.36,1.11c.56-3.89.97-7.92.97-11.94s-.28-8.06-.97-11.94l-7.36,1.11c.56,3.61.83,7.22.83,10.83Z"/>
  <path class="st2" d="M473.59,243.47l7.36-1.11c-1.25-8.06-3.75-15.83-7.36-22.78l-6.67,3.33c3.19,6.39,5.42,13.33,6.67,20.56Z"/>
  <path class="st1" d="M454.14,303.33l5.28,5.28c5.69-5.69,10.42-12.22,14.17-19.44l-6.67-3.33c-3.47,6.39-7.78,12.36-12.78,17.5Z"/>
  <path class="st1" d="M454.14,205.42c5.14,5.14,9.44,10.97,12.78,17.5l6.67-3.33c-3.61-7.22-8.47-13.75-14.17-19.44l-5.28,5.28Z"/>
  <path class="st1" d="M373.72,315.97l-3.33,6.67c7.08,3.61,14.72,6.11,22.78,7.36l1.11-7.36c-7.22-1.11-14.17-3.33-20.56-6.67Z"/>
  <path class="st2" d="M405.11,323.61c-3.75,0-7.36-.28-10.83-.83l-1.11,7.36c3.89.56,7.92.97,11.94.97s8.06-.28,11.94-.97l-1.11-7.36c-3.47.42-7.08.83-10.83.83Z"/>
  <path class="st1" d="M415.95,322.64l1.11,7.36c8.06-1.25,15.83-3.75,22.78-7.36l-3.33-6.67c-6.25,3.33-13.19,5.56-20.56,6.67Z"/>
  <path class="st2" d="M356.22,303.33l-5.28,5.28c5.69,5.69,12.22,10.42,19.44,14.17l3.33-6.67c-6.39-3.47-12.36-7.78-17.5-12.78Z"/>
  <path class="st0" d="M391.78,247.5l-48.33-24.58c-3.19,6.39-5.56,13.33-6.67,20.56l53.47,8.47c.42-1.53.83-3.06,1.53-4.44Z"/>
  <path class="st3" d="M390.11,254.31c0-.83.14-1.53.14-2.36l-53.47-8.47c-.56,3.47-.83,7.08-.83,10.83s.28,7.36.83,10.83l53.47-8.47c0-.69-.14-1.53-.14-2.36Z"/>
  <path class="st0" d="M390.39,256.67l-53.47,8.47c1.11,7.36,3.47,14.17,6.67,20.56l48.33-24.58c-.83-1.25-1.25-2.78-1.53-4.44Z"/>
  <path class="st3" d="M394.56,243.75l-38.33-38.33c-5.14,5.14-9.44,10.97-12.78,17.5l48.33,24.58c.69-1.39,1.67-2.64,2.78-3.75Z"/>
  <path class="st3" d="M391.78,261.11l-48.33,24.58c3.33,6.53,7.64,12.36,12.78,17.5l38.33-38.33c-1.11-.97-2.08-2.22-2.78-3.75Z"/>
  <path class="st0" d="M398.31,240.97l-24.58-48.33c-6.53,3.33-12.36,7.64-17.5,12.78l38.33,38.33c1.11-1.11,2.36-2.08,3.75-2.78Z"/>
  <path class="st0" d="M394.56,265l-38.33,38.33c5.14,5.14,10.97,9.44,17.5,12.78l24.58-48.33c-1.39-.83-2.64-1.67-3.75-2.78Z"/>
  <path class="st3" d="M412.06,240.97l24.58-48.33c-6.39-3.19-13.33-5.56-20.56-6.67l-8.47,53.47c1.53.28,3.06.83,4.44,1.53Z"/>
  <path class="st3" d="M402.89,239.58l-8.47-53.47c-7.36,1.11-14.17,3.47-20.56,6.67l24.58,48.33c1.25-.83,2.78-1.39,4.44-1.53Z"/>
  <path class="st0" d="M405.11,239.31c.83,0,1.53.14,2.36.14l8.47-53.47c-3.47-.56-7.08-.83-10.83-.83s-7.36.28-10.83.83l8.47,53.47c.83,0,1.67-.14,2.36-.14Z"/>
  <path class="st3" d="M420.25,254.31c0,.83-.14,1.53-.14,2.36l53.47,8.47c.56-3.47.83-7.08.83-10.83s-.28-7.36-.83-10.83l-53.47,8.47c0,.83.14,1.67.14,2.36Z"/>
  <path class="st0" d="M419.97,251.94l53.47-8.47c-1.11-7.36-3.47-14.17-6.67-20.56l-48.33,24.58c.83,1.39,1.25,2.92,1.53,4.44Z"/>
  <path class="st0" d="M418.59,261.11l48.33,24.58c3.19-6.39,5.56-13.33,6.67-20.56l-53.47-8.47c-.42,1.67-.83,3.19-1.53,4.44Z"/>
  <path class="st3" d="M398.31,267.78l-24.58,48.33c6.39,3.19,13.33,5.56,20.56,6.67l8.47-53.47c-1.53-.42-3.06-.83-4.44-1.53Z"/>
  <path class="st3" d="M418.59,247.5l48.33-24.58c-3.33-6.53-7.64-12.36-12.78-17.5l-38.33,38.33c1.11,1.11,2.08,2.36,2.78,3.75Z"/>
  <path class="st0" d="M436.64,192.78l-24.58,48.33c1.39.69,2.64,1.67,3.75,2.78l38.33-38.33c-5.14-5.28-11.11-9.58-17.5-12.78Z"/>
  <path class="st3" d="M407.47,269.17l8.47,53.47c7.36-1.11,14.17-3.47,20.56-6.67l-24.58-48.33c-1.25.83-2.78,1.25-4.44,1.53Z"/>
  <path class="st0" d="M405.11,269.44c-.83,0-1.53-.14-2.36-.14l-8.47,53.47c3.47.56,7.08.83,10.83.83s7.36-.28,10.83-.83l-8.47-53.47c-.69,0-1.53.14-2.36.14Z"/>
  <path class="st0" d="M412.06,267.78l24.58,48.33c6.53-3.33,12.36-7.64,17.5-12.78l-38.33-38.33c-1.11,1.11-2.36,1.94-3.75,2.78Z"/>
  <path class="st3" d="M415.81,265l38.33,38.33c5.14-5.14,9.44-10.97,12.78-17.5l-48.33-24.72c-.69,1.53-1.67,2.78-2.78,3.89Z"/>
  <circle class="st1" cx="405.11" cy="254.31" r="15"/>
  <circle class="st2" cx="405.11" cy="254.31" r="7.64"/>
  <path class="st2" d="M353.31,152.64l-3.33-6.53c-11.39,5.83-21.81,13.33-30.69,22.36l5.14,5.14c8.47-8.47,18.19-15.56,28.89-20.97Z"/>
  <path class="st2" d="M303.45,202.5l-6.53-3.33c-5.69,11.11-9.72,23.33-11.67,36.11l7.22,1.11c1.81-11.94,5.56-23.33,10.97-33.89Z"/>
  <path class="st2" d="M405.11,140.14c6.11,0,12.08.42,17.92,1.39l1.11-7.22c-6.25-.97-12.5-1.53-19.03-1.53s-12.78.56-19.03,1.53l1.11,7.22c5.97-.83,11.94-1.39,17.92-1.39Z"/>
  <path class="st2" d="M518.03,236.53l7.22-1.11c-2.08-12.78-5.97-25-11.67-36.11l-6.53,3.33c5.28,10.42,9.03,21.81,10.97,33.89Z"/>
  <path class="st2" d="M485.95,173.61l5.14-5.14c-9.03-9.03-19.31-16.53-30.69-22.36l-3.33,6.53c10.69,5.42,20.42,12.5,28.89,20.97Z"/>
  <path class="st2" d="M457.06,356.11l3.33,6.53c11.39-5.83,21.81-13.33,30.69-22.36l-5.14-5.14c-8.47,8.33-18.19,15.56-28.89,20.97Z"/>
  <path class="st2" d="M506.92,306.25l6.53,3.33c5.69-11.11,9.72-23.33,11.67-36.11l-7.22-1.11c-1.81,11.94-5.56,23.33-10.97,33.89Z"/>
  <path class="st2" d="M324.42,335.14l-5.14,5.14c9.03,9.03,19.31,16.53,30.69,22.36l3.33-6.53c-10.69-5.42-20.42-12.64-28.89-20.97Z"/>
  <path class="st2" d="M292.34,272.22l-7.22,1.11c2.08,12.78,5.97,25,11.67,36.11l6.53-3.33c-5.28-10.42-9.03-21.81-10.97-33.89Z"/>
  <path class="st2" d="M405.11,368.61c-6.11,0-12.08-.42-17.92-1.39l-1.11,7.22c6.25.97,12.5,1.53,19.03,1.53s12.78-.56,19.03-1.53l-1.11-7.22c-5.83.83-11.81,1.39-17.92,1.39Z"/>
</svg>