<?xml version="1.0" encoding="UTF-8"?>
<svg id="_レイヤー_1" data-name="レイヤー_1" xmlns="http://www.w3.org/2000/svg" version="1.1" viewBox="0 0 800 500">
  <!-- Generator: Adobe Illustrator 30.1.0, SVG Export Plug-In . SVG Version: 2.1.1 Build 136)  -->
  <defs>
    <style>
      .st0 {
        fill: #fff;
      }

      .st1 {
        fill: #88e7e7;
      }

      .st2 {
        fill: #302828;
      }

      .st3 {
        fill: #0069da;
      }
    </style>
  </defs>
  <path class="st1" d="M0,115.28V0h800v115.28H0Z"/>
  <path class="st0" d="M662.3,43.12c0,7.71-29.23,13.95-65.28,13.95s-65.28-6.25-65.28-13.95,29.23-13.95,65.28-13.95,65.28,6.25,65.28,13.95Z"/>
  <path class="st0" d="M722.03,59.58c0,9.29-25.18,16.81-56.25,16.81s-56.25-7.53-56.25-16.81,25.18-16.81,56.25-16.81,56.25,7.53,56.25,16.81Z"/>
  <path class="st0" d="M238.23,55.5c0,5.48-32.85,9.93-73.38,9.93s-73.38-4.44-73.38-9.93,32.85-9.93,73.38-9.93,73.38,4.44,73.38,9.93Z"/>
  <path class="st0" d="M305.36,67.2c0,6.61-28.31,11.96-63.23,11.96s-63.23-5.36-63.23-11.96,28.31-11.96,63.23-11.96,63.23,5.36,63.23,11.96Z"/>
  <path class="st3" d="M0,500V101.39h800v398.61H0Z"/>
  <g>
    <path class="st2" d="M364.37,94.21h14.92v-1.12h-2.58v-1.01h3.93l.78-.56h2.92l.78-.78h3.48v1.74h22.43v-1.74h2.69l.67.9h4.49l.67.34h3.48v.5h-3.03l.78,1.18h6.95l7.96-.56.89,4.15,1.91,1.46-8.07,2.69h-65.27v-2.69l-1.57-1.68.79-2.8Z"/>
    <path class="st2" d="M397.79,93.43v-8.97h2.69v8.97h-2.69Z"/>
    <path class="st2" d="M403.51,93.43v-8.97h2.69v8.97h-2.69Z"/>
    <path class="st2" d="M388.91,92.47v-24.06h.67v24.06h-.67Z"/>
    <path class="st2" d="M387.79,86.92v-1.35h2.92v1.35h-2.92Z"/>
    <path class="st2" d="M383.81,83.33v-.56h10.88v.56h-10.88Z"/>
    <path class="st2" d="M387.79,81.09v-.64h2.92v.64h-2.92Z"/>
    <path class="st2" d="M385.94,78.4v-.45h6.62v.45h-6.62Z"/>
    <path class="st2" d="M409.23,92.47v-24.06h.67v24.06h-.67Z"/>
    <path class="st2" d="M408.11,86.92v-1.35h2.92v1.35h-2.92Z"/>
    <path class="st2" d="M404.13,83.33v-.56h10.88v.56h-10.88Z"/>
    <path class="st2" d="M408.11,81.09v-.64h2.92v.64h-2.92Z"/>
    <path class="st2" d="M406.26,78.4v-.45h6.62v.45h-6.62Z"/>
  </g>
  <path class="st2" d="M175.1,165.68l-.5,1.51-2.51,2.2v.75l.5.82s-6.15,3.52-9.54,3.52h-26.49l-1.13-1.44-3.01-.57-4.71,2.01h-2.01v-2.07l1.95-1.38-2.95.57v-3.14l3.08.88-2.07-1.76v-2.07h2.2l5.4,2.39,1.07-.19.38-.75,4.77-1.44.75-.44h6.4l1.44-1.76h1.07v-3.58h1.07v3.27h1.38v-.69h1v.69h.69v-2.7h.94v2.64h1.32l-.25,1,.94,1.88,18.84-.13Z"/>
  <path class="st2" d="M244.54,193.46l-.5,1.51-2.51,2.2v.75l.5.82s-6.15,3.52-9.54,3.52h-26.49l-1.13-1.44-3.01-.57-4.71,2.01h-2.01v-2.07l1.95-1.38-2.95.57v-3.14l3.08.88-2.07-1.76v-2.07h2.2l5.4,2.39,1.07-.19.38-.75,4.77-1.44.75-.44h6.4l1.44-1.76h1.07v-3.58h1.07v3.27h1.38v-.69h1v.69h.69v-2.7h.94v2.64h1.32l-.25,1,.94,1.88,18.84-.13Z"/>
  <path class="st2" d="M431.76,371.39s.08-1.02.4-1.37c1.46-1.59,6.16-5.16,12.5-5.16h3.63l2.22-2.22v-1.97l1.03-1.03h2.8v-3.33h.73v3.39h.56v-3.39h.81v3.31h.97v3.71h4.19v-1.37h4.84v.81h2.9l3.06,3.06h6.93l7.34,1.69,1.85-3.67h1.29l-.73,4.72.73-.08v-.97h1.37v3.87h-1.45v-1.45h-.97l.32,3.79h-1.37l-2.02-2.02-7.66,2.02h-40.47s-5.72-.81-5.8-2.34h0Z"/>
  <path class="st2" d="M206.85,364.07c0,5.19-4.77,5.6-4.77,5.6l-8.4.52-1.56.83-15.35.73c-8.82,1.24-25.2.62-25.2.62l-.1-1.24h-8.71l-13.9-2.18-2.59,4.77h-3.22l.83-5.39-1.97-2.07,1.66-1.24-1.04-6.43h4.36l1.97,5.29,11.51-3.53h7.88l1.24-1.24h2.7v-2.8h1.66v-3.84h1.3v3.68l2.33-2.33h2.9v-5.19h.83v5.29h1.87l1.45,4.05h3.23c2.3,0,4.14,2.07,4.14,2.07h30.18s4.77.1,4.77,4.04Z"/>
  <path class="st2" d="M317.97,419.63c0,5.19-4.77,5.6-4.77,5.6l-8.4.52-1.56.83-15.35.73c-8.82,1.24-25.2.62-25.2.62l-.1-1.24h-8.71l-13.9-2.18-2.59,4.77h-3.22l.83-5.39-1.97-2.07,1.66-1.24-1.04-6.43h4.36l1.97,5.29,11.51-3.53h7.88l1.24-1.24h2.7v-2.8h1.66v-3.84h1.3v3.68l2.33-2.33h2.9v-5.19h.83v5.29h1.87l1.45,4.05h3.23c2.3,0,4.14,2.07,4.14,2.07h30.18s4.77.1,4.77,4.04h0Z"/>
  <path class="st2" d="M515.81,182.69h-40.47l-7.66-2.02-2.02,2.02h-1.37l.32-3.79h-.97v1.45h-1.45v-3.87h1.37v.97l.73.08-.73-4.72h1.29l1.85,3.67,7.34-1.69h6.93l3.06-3.06h2.9v-.81h4.84v1.37h4.19v-3.71h.97v-3.31h.81v3.39h.56v-3.39h.73v3.33h2.8l1.03,1.03v1.97l2.22,2.22h3.63c6.33,0,11.03,3.57,12.5,5.16.33.35.4,1.37.4,1.37-.08,1.53-5.8,2.34-5.8,2.34h0Z"/>
  <path class="st2" d="M641.37,466.42h-97.9s-10.43-1.28-10.43-8.73,8.3-11.07,11.71-11.07h37.88s3.62-5.32,7.24-5.32h12.34v-5.32h5.96v2.13h7.45v-5.11h2.13v4.9h1.7v-8.73h3.41v8.94h2.98v2.77h6.17v3.19h4.68l3.51,3.51h20.11l10.43,2.87,1.28-6.17h9.36v8.94l1.06,2.55-2.98,2.34.21,2.98h-5.53l-2.77-2.77-11.49,4.47-9.15,2.55-9.37,1.06Z"/>
  <g>
    <path class="st0" d="M494.73,101.97v-23.59h9.33v23.59h-9.33Z"/>
    <path class="st0" d="M503.95,79.24c0,8.65-2.04,15.67-4.55,15.67s-4.55-7.02-4.55-15.67,2.04-15.67,4.55-15.67,4.55,7.02,4.55,15.67Z"/>
  </g>
  <g>
    <path class="st0" d="M565.32,101.97v-18.01h4.77v18.01h-4.77Z"/>
    <path class="st0" d="M570.03,84.62c0,6.61-1.04,11.97-2.33,11.97s-2.33-5.36-2.33-11.97,1.04-11.97,2.33-11.97,2.33,5.36,2.33,11.97Z"/>
  </g>
  <g>
    <path d="M398.31,208.71v-7.79h5.27v7.79h-5.27Z"/>
    <path d="M398.31,201.15c0-1.4,1.14-2.54,2.54-2.54s2.54,1.14,2.54,2.54-1.14,2.54-2.54,2.54-2.54-1.14-2.54-2.54Z"/>
    <path d="M399.09,211.93c0-1,.81-1.81,1.81-1.81s1.81.81,1.81,1.81-.81,1.81-1.81,1.81-1.81-.81-1.81-1.81Z"/>
    <path d="M399.89,216.84c0-.59.48-1.08,1.08-1.08s1.08.48,1.08,1.08-.48,1.08-1.08,1.08-1.08-.48-1.08-1.08Z"/>
  </g>
  <g>
    <path d="M524.7,139.26v-7.79h5.27v7.79h-5.27Z"/>
    <path d="M524.7,131.7c0-1.4,1.14-2.54,2.54-2.54s2.54,1.14,2.54,2.54-1.14,2.54-2.54,2.54c-1.4,0-2.54-1.14-2.54-2.54Z"/>
    <path d="M525.48,142.49c0-1,.81-1.81,1.81-1.81s1.81.81,1.81,1.81-.81,1.81-1.81,1.81-1.81-.81-1.81-1.81Z"/>
    <path d="M526.29,147.39c0-.59.48-1.08,1.07-1.08s1.07.48,1.07,1.08-.48,1.08-1.07,1.08-1.07-.48-1.07-1.08Z"/>
  </g>
  <g>
    <path d="M538.59,376.78v-7.79h5.27v7.79h-5.27Z"/>
    <path d="M538.59,369.21c0-1.4,1.14-2.54,2.54-2.54s2.54,1.14,2.54,2.54-1.14,2.54-2.54,2.54-2.54-1.14-2.54-2.54Z"/>
    <path d="M539.37,380c0-1,.81-1.81,1.81-1.81s1.81.81,1.81,1.81-.81,1.81-1.81,1.81-1.81-.81-1.81-1.81Z"/>
    <path d="M540.18,384.91c0-.59.48-1.07,1.07-1.07s1.07.48,1.07,1.07-.48,1.07-1.07,1.07-1.07-.48-1.07-1.07Z"/>
  </g>
  <g>
    <path d="M580.26,404.56v-7.79h5.27v7.79h-5.27Z"/>
    <path d="M580.26,396.99c0-1.4,1.14-2.54,2.54-2.54s2.54,1.14,2.54,2.54-1.14,2.54-2.54,2.54-2.54-1.14-2.54-2.54Z"/>
    <path d="M581.04,407.78c0-1,.81-1.81,1.81-1.81s1.81.81,1.81,1.81-.81,1.81-1.81,1.81-1.81-.81-1.81-1.81Z"/>
    <path d="M581.85,412.68c0-.59.48-1.07,1.07-1.07s1.07.48,1.07,1.07-.48,1.07-1.07,1.07-1.07-.48-1.07-1.07Z"/>
  </g>
  <g>
    <path d="M245.52,376.78v-7.79h5.27v7.79h-5.27Z"/>
    <path d="M245.52,369.21c0-1.4,1.14-2.54,2.54-2.54s2.54,1.14,2.54,2.54-1.14,2.54-2.54,2.54-2.54-1.14-2.54-2.54Z"/>
    <path d="M246.3,380c0-1,.81-1.81,1.81-1.81s1.81.81,1.81,1.81-.81,1.81-1.81,1.81-1.81-.81-1.81-1.81Z"/>
    <path d="M247.11,384.91c0-.59.48-1.07,1.08-1.07s1.08.48,1.08,1.07-.48,1.07-1.08,1.07-1.08-.48-1.08-1.07Z"/>
  </g>
  <g>
    <path d="M287.19,349v-7.79h5.27v7.79h-5.27Z"/>
    <path d="M287.19,341.43c0-1.4,1.14-2.54,2.54-2.54s2.54,1.14,2.54,2.54-1.14,2.54-2.54,2.54-2.54-1.14-2.54-2.54Z"/>
    <path d="M287.97,352.22c0-1,.81-1.81,1.81-1.81s1.81.81,1.81,1.81-.81,1.81-1.81,1.81-1.81-.81-1.81-1.81Z"/>
    <path d="M288.77,357.13c0-.59.48-1.07,1.08-1.07s1.08.48,1.08,1.07-.48,1.07-1.08,1.07-1.08-.48-1.08-1.07Z"/>
  </g>
</svg>