<?xml version="1.0" encoding="UTF-8"?>
<svg id="_レイヤー_1" data-name="レイヤー_1" xmlns="http://www.w3.org/2000/svg" version="1.1" viewBox="0 0 800 500">
  <!-- Generator: Adobe Illustrator 30.1.0, SVG Export Plug-In . SVG Version: 2.1.1 Build 136)  -->
  <defs>
    <style>
      .st0 {
        fill: #9b9c6c;
      }

      .st1 {
        fill: #bfbf8a;
      }

      .st2 {
        fill: #a9a878;
      }

      .st3 {
        fill: #231815;
      }

      .st4 {
        fill: #3590cf;
      }

      .st5 {
        fill: #fff;
      }

      .st6 {
        fill: #25130f;
      }

      .st7 {
        fill: none;
        stroke: #48302d;
        stroke-linecap: round;
        stroke-miterlimit: 10;
        stroke-width: 10px;
      }

      .st8 {
        fill: #e52184;
      }

      .st9 {
        fill: #9f9f73;
      }

      .st10 {
        fill: #d71234;
      }

      .st11 {
        fill: #4366af;
      }

      .st12 {
        fill: #f4e3b4;
      }
    </style>
  </defs>
  <path class="st12" d="M0,499.58V0h800v499.58H0Z"/>
  <path class="st5" d="M265.71,318.62c0-6.84,18.67-12.39,41.7-12.39s41.7,5.55,41.7,12.39-18.67,12.39-41.7,12.39-41.7-5.55-41.7-12.39Z"/>
  <path class="st5" d="M307.41,306.23c0-6.84,18.67-12.39,41.7-12.39s41.7,5.55,41.7,12.39-18.67,12.39-41.7,12.39-41.7-5.55-41.7-12.39h0Z"/>
  <path class="st5" d="M204.98,387.18l265.85-64.29,230.13,64.29"/>
  <path class="st2" d="M700.96,387.18l-199.32,17.35-30.81-81.64,230.13,64.29Z"/>
  <path class="st1" d="M0,500v-119.28h800v119.28H0Z"/>
  <path class="st9" d="M533.77,392.26h-22.43l11.21-2.25,11.21,2.25Z"/>
  <path class="st9" d="M644.78,399.2h-22.43l11.21-2.25,11.21,2.25Z"/>
  <path class="st9" d="M214.59,392.26h-22.43l11.21-2.25,11.21,2.25Z"/>
  <path class="st9" d="M370.68,412.38h-22.43l11.21-2.25,11.21,2.25Z"/>
  <path class="st5" d="M140.82,61.45c0-6.84,18.67-12.39,41.7-12.39s41.7,5.55,41.7,12.39-18.67,12.39-41.7,12.39-41.7-5.55-41.7-12.39Z"/>
  <path class="st5" d="M182.52,49.04c0-6.84,18.67-12.39,41.7-12.39s41.7,5.55,41.7,12.39-18.67,12.39-41.7,12.39-41.7-5.55-41.7-12.39Z"/>
  <path class="st5" d="M80.09,130l265.85-64.31,230.13,64.31"/>
  <path class="st2" d="M576.06,130l-199.32,17.35-30.81-81.65,230.13,64.31Z"/>
  <path class="st1" d="M0,242.83v-119.28h800v119.28H0Z"/>
  <path class="st9" d="M533.77,135.08h-22.43l11.21-2.25,11.21,2.25Z"/>
  <path class="st9" d="M644.78,142.02h-22.43l11.21-2.25,11.21,2.25Z"/>
  <path class="st9" d="M550.14,173.38l25.92-5.18,25.92,5.18"/>
  <path class="st9" d="M214.59,135.08h-22.43l11.21-2.25,11.21,2.25Z"/>
  <path class="st9" d="M370.68,155.2h-22.43l11.21-2.25,11.21,2.25Z"/>
  <path class="st9" d="M149.14,170.61l25.92-5.18,25.92,5.18"/>
  <path class="st3" d="M430.77,173.67c0-2.77,10.06-5.02,22.47-5.02s22.47,2.25,22.47,5.02-10.06,5.02-22.47,5.02-22.47-2.25-22.47-5.02Z"/>
  <g>
    <path class="st0" d="M458.66,139.53l16.5-22.6,2.29,1.67-16.5,22.6-2.29-1.67Z"/>
    <path class="st3" d="M457.25,115.54l-1.35,21.48-6.67,1.12,1.85-23.11"/>
    <path class="st4" d="M468.33,101.72l-3.96,5.45-6.63,17.06-18.26-11.93,25.71-14.2,3.14,3.62Z"/>
    <path class="st0" d="M443.62,141.49c0-6.87,5.57-12.43,12.43-12.43s12.43,5.57,12.43,12.43-5.57,12.43-12.43,12.43-12.43-5.57-12.43-12.43Z"/>
    <path class="st1" d="M448.45,141.49c0-4.2,3.4-7.6,7.6-7.6s7.6,3.4,7.6,7.6-3.4,7.6-7.6,7.6-7.6-3.4-7.6-7.6Z"/>
    <path class="st0" d="M474.19,117.47l2.52-7.17,3.23,1.14-2.52,7.17-3.23-1.14Z"/>
    <path class="st0" d="M468.24,110.45l.98-2.79,9.11,3.21-.98,2.79-9.11-3.21Z"/>
    <path class="st3" d="M466.66,95.06c0-3.47,2.81-6.29,6.29-6.29s6.29,2.81,6.29,6.29-2.81,6.29-6.29,6.29-6.29-2.81-6.29-6.29Z"/>
    <path class="st3" d="M462.61,108.78l.58-8.03,3.28.24-.58,8.03-3.28-.24Z"/>
    <path class="st3" d="M470.91,111.71l-7.76-2.15.88-3.17,7.76,2.15-.88,3.17Z"/>
    <path class="st11" d="M469.06,104.77c-2.07-1.85-8.55-7.16-29.46-9.31-20.91-2.15-32.93-22.62-32.93-22.62,12.82,10.56,34.42,11.43,45.53,16.01,11.13,4.58,19.01,13.18,19.01,13.18l-2.15,2.73Z"/>
  </g>
  <path class="st3" d="M187.92,423.47c0-2.77,10.06-5.02,22.47-5.02s22.47,2.25,22.47,5.02-10.06,5.02-22.47,5.02-22.47-2.25-22.47-5.02Z"/>
  <g>
    <path class="st0" d="M215.61,389.48l16.65-22.48,2.28,1.68-16.65,22.48-2.28-1.68Z"/>
    <path class="st3" d="M214.38,365.47l-1.5,21.47-6.67,1.08,2-23.09"/>
    <path class="st4" d="M225.54,351.72l-3.98,5.43-6.74,17.01-18.18-12.06,25.8-14.02,3.11,3.64Z"/>
    <path class="st0" d="M200.57,391.41c0-6.87,5.57-12.43,12.43-12.43s12.43,5.57,12.43,12.43-5.57,12.43-12.43,12.43-12.43-5.57-12.43-12.43Z"/>
    <path class="st1" d="M205.4,391.41c0-4.2,3.4-7.6,7.6-7.6s7.6,3.4,7.6,7.6-3.4,7.6-7.6,7.6-7.6-3.4-7.6-7.6Z"/>
    <path class="st0" d="M231.31,367.54l2.57-7.16,3.23,1.16-2.57,7.16-3.23-1.16Z"/>
    <path class="st0" d="M225.41,360.47l1-2.78,9.09,3.27-1,2.78-9.09-3.27Z"/>
    <path class="st3" d="M223.9,345.09c0-3.47,2.81-6.29,6.29-6.29s6.29,2.81,6.29,6.29-2.81,6.29-6.29,6.29-6.29-2.81-6.29-6.29Z"/>
    <path class="st3" d="M219.78,358.74l.63-8.02,3.28.26-.63,8.02-3.28-.26Z"/>
    <path class="st3" d="M228.02,361.75l-7.74-2.2.9-3.16,7.74,2.2-.9,3.16Z"/>
    <path class="st11" d="M226.27,354.8c-2.05-1.87-8.51-7.23-29.41-9.52-20.9-2.29-32.78-22.84-32.78-22.84,12.75,10.64,34.33,11.66,45.42,16.32,11.09,4.66,18.91,13.31,18.91,13.31l-2.15,2.73Z"/>
  </g>
  <g>
    <path class="st3" d="M197.39,173.67c0-2.77,10.06-5.02,22.47-5.02s22.47,2.25,22.47,5.02-10.06,5.02-22.47,5.02-22.47-2.25-22.47-5.02Z"/>
    <g>
      <path class="st0" d="M229.94,158.34l8.06-26.79,2.71.82-8.06,26.79-2.71-.82Z"/>
      <path class="st3" d="M220.65,136.16l5.86,20.72-5.93,3.28-5.93-22.41"/>
      <path class="st8" d="M226.51,119.46l-1.92,6.45-.6,18.3-21.19-5.2,19.54-21.93,4.16,2.37Z"/>
      <path class="st0" d="M215.7,161.05c0-6.87,5.57-12.43,12.43-12.43s12.43,5.57,12.43,12.43-5.57,12.43-12.43,12.43-12.43-5.57-12.43-12.43Z"/>
      <path class="st1" d="M220.53,161.05c0-4.2,3.4-7.6,7.6-7.6s7.6,3.4,7.6,7.6-3.4,7.6-7.6,7.6-7.6-3.4-7.6-7.6Z"/>
      <path class="st0" d="M237.28,132.38v-7.6h3.43v7.6h-3.43Z"/>
      <path class="st0" d="M229.33,127.73v-2.96h9.66v2.96h-9.66Z"/>
      <path class="st3" d="M222.36,111.64c0-3.47,2.81-6.29,6.29-6.29s6.29,2.81,6.29,6.29-2.81,6.29-6.29,6.29-6.29-2.81-6.29-6.29Z"/>
      <path class="st3" d="M223.47,128.02l-2.12-7.76,3.17-.87,2.12,7.76-3.17.87Z"/>
      <path class="st3" d="M232.26,128.05l-8.03.55-.22-3.28,8.03-.55.22,3.28Z"/>
      <path class="st10" d="M228.22,122.09c-2.57-1.07-10.45-3.93-30.89.99-20.44,4.91-38.57-10.41-38.57-10.41,15.6,5.7,36.25-.64,48.27,0,12,.64,22.3,6.13,22.3,6.13l-1.11,3.29Z"/>
    </g>
  </g>
  <path class="st6" d="M335.33,421.02c0-2.89,5.24-5.23,11.7-5.23s11.7,2.34,11.7,5.23-5.24,5.23-11.7,5.23-11.7-2.34-11.7-5.23Z"/>
  <g>
    <path class="st7" d="M347.13,337.12v78.67"/>
    <path class="st7" d="M370.32,361.42v15.31h-23.19"/>
    <path class="st7" d="M347.13,392.12h-23.61v-27.19"/>
  </g>
  <path class="st6" d="M529.62,421.02c0-2.89,5.24-5.23,11.7-5.23s11.7,2.34,11.7,5.23-5.24,5.23-11.7,5.23-11.7-2.34-11.7-5.23Z"/>
  <g>
    <path class="st7" d="M541.41,337.12v78.67"/>
    <path class="st7" d="M564.6,361.42v15.31h-23.19"/>
    <path class="st7" d="M541.41,392.12h-23.61v-27.19"/>
  </g>
  <path class="st6" d="M589.01,177.73c0-2.89,5.24-5.23,11.7-5.23s11.7,2.34,11.7,5.23-5.24,5.23-11.7,5.23-11.7-2.34-11.7-5.23Z"/>
  <g>
    <path class="st7" d="M600.81,172.5v-78.67"/>
    <path class="st7" d="M624,118.12v15.31h-23.19"/>
    <path class="st7" d="M600.81,148.82h-23.61v-27.19"/>
  </g>
</svg>