<?xml version="1.0" encoding="UTF-8"?>
<svg id="_レイヤー_1" data-name="レイヤー_1" xmlns="http://www.w3.org/2000/svg" version="1.1" viewBox="0 0 800 500">
  <!-- Generator: Adobe Illustrator 30.1.0, SVG Export Plug-In . SVG Version: 2.1.1 Build 136)  -->
  <defs>
    <style>
      .st0 {
        fill: #2f313f;
      }

      .st1 {
        fill: #bf9945;
      }

      .st2 {
        fill: #84a3be;
      }

      .st3 {
        fill: #f4b825;
      }

      .st4 {
        fill: #1c1e33;
      }

      .st5 {
        fill: #f4a872;
      }

      .st6 {
        fill: #ffd55f;
      }

      .st7 {
        stroke: #1c1e33;
      }

      .st7, .st8 {
        fill: none;
        stroke-miterlimit: 10;
      }

      .st9 {
        fill: #fff;
      }

      .st10 {
        fill: #e9b12d;
      }

      .st11 {
        fill: #89a9c5;
      }

      .st8 {
        stroke: #a57656;
      }

      .st12 {
        fill: #48506d;
      }

      .st13 {
        fill: #b3b3b3;
      }

      .st14 {
        fill: #a57656;
      }

      .st15 {
        fill: #f9b9b9;
      }
    </style>
  </defs>
  <g id="_レイヤー_11" data-name="レイヤー_1">
    <rect class="st15" width="800" height="171.11"/>
    <rect class="st6" y="113.61" width="800" height="57.64"/>
    <polyline class="st12" points="0 128.75 261.67 94.31 621.67 144.44 800 128.47 800 218.06 0 218.06"/>
    <rect class="st4" y="176.39" width="800" height="95.42"/>
    <rect class="st4" width="800" height="47.64"/>
    <g>
      <line class="st7" y1="50.83" x2="800" y2="50.83"/>
      <line class="st7" y1="55.42" x2="800" y2="55.42"/>
      <line class="st7" y1="60" x2="800" y2="60"/>
      <line class="st7" y1="69.17" x2="800" y2="69.17"/>
      <line class="st7" y1="78.19" x2="800" y2="78.19"/>
      <line class="st7" y1="82.78" x2="800" y2="82.78"/>
      <line class="st7" y1="64.58" x2="800" y2="64.58"/>
      <line class="st7" y1="73.61" x2="800" y2="73.61"/>
    </g>
    <g>
      <line class="st7" y1="86.94" x2="800" y2="86.94"/>
      <line class="st7" y1="91.53" x2="800" y2="91.53"/>
      <line class="st7" y1="96.11" x2="800" y2="96.11"/>
      <line class="st7" y1="105.28" x2="800" y2="105.28"/>
      <line class="st7" y1="114.31" x2="800" y2="114.31"/>
      <line class="st7" y1="118.89" x2="800" y2="118.89"/>
      <line class="st7" y1="100.69" x2="800" y2="100.69"/>
      <line class="st7" y1="109.72" x2="800" y2="109.72"/>
    </g>
    <rect class="st4" x="478.33" width="40.17" height="271.81"/>
    <rect class="st5" y="271.81" width="800" height="228.19"/>
    <rect class="st14" y="270.69" width="800" height="34.31"/>
    <polygon class="st14" points="430 500 470 500 516.83 271.81 476.67 271.81 430 500"/>
    <g>
      <line class="st8" y1="320.28" x2="800" y2="320.28"/>
      <line class="st8" y1="324.86" x2="800" y2="324.86"/>
      <line class="st8" y1="329.31" x2="800" y2="329.31"/>
      <line class="st8" y1="338.47" x2="800" y2="338.47"/>
      <line class="st8" y1="347.64" x2="800" y2="347.64"/>
      <line class="st8" y1="352.22" x2="800" y2="352.22"/>
      <line class="st8" y1="333.89" x2="800" y2="333.89"/>
      <line class="st8" y1="343.06" x2="800" y2="343.06"/>
    </g>
    <rect class="st0" y="346.67" width="800" height="153.33"/>
  </g>
  <g id="_キャラ" data-name="キャラ">
    <g>
      <rect class="st9" x="124.95" y="259.58" width="52.92" height="10.14"/>
      <rect class="st9" x="143.28" y="290.42" width="23.47" height="20.56"/>
      <rect class="st13" x="143.28" y="290.42" width="11.81" height="20.56"/>
      <rect class="st3" x="143.28" y="307.78" width="23.47" height="3.33"/>
      <rect class="st9" x="111.48" y="241.39" width="42.64" height="53.47"/>
      <rect class="st13" x="111.48" y="241.39" width="21.39" height="53.47"/>
      <rect class="st9" x="98.84" y="290.42" width="23.47" height="20.56"/>
      <rect class="st13" x="98.84" y="290.42" width="11.81" height="20.56"/>
      <rect class="st11" x="111.48" y="280" width="42.64" height="2.92"/>
      <rect class="st3" x="159.25" y="259.58" width="18.47" height="10.14"/>
      <rect class="st3" x="122.31" y="269.72" width="18.47" height="10.14"/>
      <rect class="st3" x="127.86" y="222.78" width="19.72" height="18.61"/>
      <rect class="st3" x="98.84" y="307.78" width="23.47" height="3.33"/>
      <polygon class="st3" points="147.73 241.39 142.73 258.47 137.73 241.39 147.73 241.39"/>
      <rect class="st1" x="127.86" y="222.78" width="9.86" height="18.61"/>
    </g>
    <g>
      <rect class="st9" x="303.98" y="259.58" width="52.92" height="10.14"/>
      <rect class="st9" x="330.78" y="290.42" width="23.47" height="20.56"/>
      <rect class="st13" x="330.78" y="290.42" width="11.81" height="20.56"/>
      <rect class="st3" x="330.78" y="307.78" width="23.47" height="3.33"/>
      <rect class="st9" x="290.64" y="241.39" width="42.64" height="53.47"/>
      <rect class="st3" x="338.42" y="259.58" width="18.47" height="10.14"/>
      <rect class="st13" x="290.64" y="241.39" width="21.39" height="53.47"/>
      <rect class="st3" x="301.48" y="269.72" width="18.47" height="10.14"/>
      <rect class="st3" x="307.03" y="222.78" width="19.72" height="18.61"/>
      <polygon class="st3" points="326.75 241.39 321.89 258.47 316.89 241.39 326.75 241.39"/>
      <rect class="st11" x="290.64" y="280" width="42.64" height="2.92"/>
      <rect class="st1" x="307.03" y="222.78" width="9.86" height="18.61"/>
      <rect class="st9" x="269.53" y="290.42" width="23.47" height="20.56"/>
      <rect class="st13" x="269.53" y="290.42" width="11.81" height="20.56"/>
      <rect class="st3" x="269.53" y="307.78" width="23.47" height="3.33"/>
    </g>
    <g>
      <rect class="st9" x="647.86" y="259.58" width="52.92" height="10.14"/>
      <rect class="st9" x="662.17" y="290.42" width="23.47" height="20.56"/>
      <rect class="st13" x="662.17" y="290.42" width="11.81" height="20.56"/>
      <rect class="st3" x="662.17" y="307.78" width="23.47" height="3.33"/>
      <rect class="st9" x="634.53" y="241.39" width="42.64" height="53.47"/>
      <rect class="st13" x="633.84" y="241.39" width="21.39" height="53.47"/>
      <rect class="st9" x="626.06" y="290.42" width="23.47" height="20.56"/>
      <rect class="st13" x="626.06" y="290.42" width="11.81" height="20.56"/>
      <rect class="st11" x="634.53" y="280" width="42.64" height="2.92"/>
      <rect class="st3" x="682.31" y="259.58" width="18.47" height="10.14"/>
      <rect class="st3" x="645.36" y="269.72" width="18.47" height="10.14"/>
      <rect class="st3" x="625.23" y="222.78" width="19.72" height="18.61"/>
      <rect class="st3" x="626.06" y="307.78" width="23.47" height="3.33"/>
      <polygon class="st3" points="644.39 241.39 639.53 258.47 634.53 241.39 644.39 241.39"/>
      <rect class="st1" x="625.23" y="222.78" width="9.86" height="18.61"/>
    </g>
    <g>
      <path id="ID0.7491540480405092" class="st9" d="M497.73,246.25l-14.03-13.89,7.36-7.5,14.03,13.89-7.36,7.5Z"/>
      <path id="ID0.15843466110527515" class="st10" d="M491.06,224.86l5.69,5.56-7.36,7.5-5.69-5.56,7.36-7.5Z"/>
      <path id="ID0.8914669845253229" class="st9" d="M517.45,266.11l-16.81-16.53,23.61-23.89,16.81,16.53-23.61,23.89Z"/>
      <rect class="st13" x="507.97" y="244.28" width="34.17" height="11.81" transform="translate(-20.76 451.08) rotate(-45.68)"/>
      <path id="ID0.7576164142228663" class="st10" d="M541.2,242.64l-17.22-16.94,2.92-2.92,17.22,16.94-2.92,2.92Z"/>
      <path id="ID0.10330067574977875" class="st9" d="M450.09,258.89l29.86-30.28,38.06,37.5-29.86,30.28-38.06-37.5Z"/>
      <path id="ID0.2054623607546091" class="st9" d="M471.34,255.14l-32.22,32.64-7.22-7.08,32.22-32.64,7.22,7.08Z"/>
      <path id="ID0.7082885056734085" class="st10" d="M432.03,280.42l13.06-13.19,7.22,7.08-13.06,13.19-7.22-7.08Z"/>
      <rect class="st13" x="465.89" y="243.45" width="21.11" height="53.47" transform="translate(-49.72 422.33) rotate(-45.68)"/>
      <path id="ID0.9029158833436668" class="st10" d="M448.56,234.17l13.89-14.03,13.19,13.06-13.89,14.03-13.19-13.06Z"/>
      <path id="ID0.3161340756341815" class="st9" d="M466.61,290.42l23.61-.14.14,20.56-23.61.14-.14-20.56Z"/>
      <rect class="st13" x="466.61" y="290.28" width="11.11" height="20.69"/>
      <path id="ID0.8808392058126628" class="st2" d="M477.31,285.97l29.86-30.28,2.08,2.08-29.86,30.28-2.08-2.08Z"/>
      <path id="ID0.4500805167481303" class="st10" d="M466.61,307.64l23.61-.14v3.33l-23.61.14v-3.33Z"/>
      <rect class="st1" x="453.63" y="227.94" width="9.86" height="18.47" transform="translate(-31.49 399.58) rotate(-45.68)"/>
    </g>
  </g>
</svg>