<?xml version="1.0" encoding="UTF-8"?>
<svg id="_レイヤー_1" data-name="レイヤー_1" xmlns="http://www.w3.org/2000/svg" xmlns:xlink="http://www.w3.org/1999/xlink" version="1.1" viewBox="0 0 800 494">
  <!-- Generator: Adobe Illustrator 30.1.0, SVG Export Plug-In . SVG Version: 2.1.1 Build 136)  -->
  <defs>
    <style>
      .st0 {
        fill: #044b70;
      }

      .st1 {
        fill: #9a1e23;
      }

      .st2 {
        fill: #040000;
      }

      .st3 {
        fill: url(#_名称未設定グラデーション_2);
      }

      .st4 {
        fill: #3b423b;
      }

      .st5 {
        fill: #fff;
      }

      .st6 {
        fill: #f9ce8a;
      }

      .st7 {
        fill: #bda583;
      }

      .st8 {
        fill: #08102b;
      }

      .st9 {
        fill: #b7dfee;
      }

      .st10 {
        fill: #a8a8a8;
      }

      .st11 {
        fill: #92ac93;
      }

      .st12 {
        fill: #cac6b4;
      }

      .st13 {
        fill: url(#_名称未設定グラデーション);
      }

      .st14 {
        fill: #9c5c24;
      }

      .st15 {
        fill: #d6e3e5;
      }
    </style>
    <linearGradient id="_名称未設定グラデーション" data-name="名称未設定グラデーション" x1="400" y1="463.99" x2="400" y2="234.78" gradientTransform="translate(0 476.44) scale(1 -1)" gradientUnits="userSpaceOnUse">
      <stop offset="0" stop-color="#6d94cd"/>
      <stop offset="1" stop-color="#87cedd"/>
    </linearGradient>
    <linearGradient id="_名称未設定グラデーション_2" data-name="名称未設定グラデーション 2" x1="431.69" y1="232.08" x2="431.69" y2="-17.56" gradientTransform="translate(0 476.44) scale(1 -1)" gradientUnits="userSpaceOnUse">
      <stop offset="0" stop-color="#e6edf2"/>
      <stop offset="1" stop-color="#fff"/>
    </linearGradient>
  </defs>
  <rect class="st15" width="800" height="494"/>
  <path id="ID0.39273810712620616" class="st13" d="M0,0h800v244.36H0V0Z"/>
  <path id="ID0.5722312116995454" class="st12" d="M800,494H0v-249.64h799.17l.83,249.64"/>
  <path id="ID0.9862555689178407" class="st3" d="M769.17,494H94.21l200.54-249.64h11.09l463.32,249.64"/>
  <path id="ID0.469067825935781" class="st10" d="M0,432.7h536.07v30.8H0v-30.8Z"/>
  <path id="ID0.7639735289849341" class="st4" d="M528.88,443.78h110.9v19.88h-110.9v-19.88Z"/>
  <path id="ID0.24148437986150384" class="st2" d="M533.67,446.81h21.25v10.17h-21.25v-10.17Z"/>
  <path id="ID0.3082406781613827" class="st2" d="M612.69,446.81h21.25v10.17h-21.25v-10.17Z"/>
  <path id="ID0.421113601885736" class="st8" d="M528.88,439.37h110.9v8.8h-110.9v-8.8Z"/>
  <path id="ID0.055658905766904354" class="st8" d="M528.88,430.57h110.9v8.8h-110.9v-8.8Z"/>
  <path id="ID0.663393278606236" class="st8" d="M528.88,421.77h110.9v8.8h-110.9v-8.8Z"/>
  <path id="ID0.34994077403098345" class="st1" d="M528.88,430.57h26.04v8.8h-26.04v-8.8Z"/>
  <path id="ID0.7977790147997439" class="st1" d="M613.74,430.57h26.04v8.8h-26.04v-8.8Z"/>
  <path id="ID0.4367238082922995" class="st8" d="M541.91,402.35h84.86v19.57h-84.86v-19.57Z"/>
  <path id="ID0.5021290057338774" class="st0" d="M551.18,395.07h68.39v16.99h-68.39v-16.99Z"/>
  <path id="ID0.6509518376551569" class="st9" d="M551.18,395.07h68.39v5.61h-68.39v-5.61Z"/>
  <path id="ID0.5267261364497244" class="st2" d="M566.15,405.39c2.11,0,4.01.87,5.4,2.27,1.38,1.4,2.24,3.34,2.24,5.47s-.85,4.07-2.24,5.47c-1.38,1.4-3.29,2.27-5.4,2.27s-4.01-.87-5.4-2.27c-1.38-1.4-2.24-3.34-2.24-5.47s.85-4.07,2.24-5.47c1.38-1.4,3.29-2.27,5.4-2.27Z"/>
  <path id="ID0.030888752080500126" class="st14" d="M605.06,405.39c2.11,0,4.01.87,5.4,2.27,1.38,1.4,2.24,3.34,2.24,5.47s-.85,4.07-2.24,5.47c-1.38,1.4-3.29,2.27-5.4,2.27s-4.01-.87-5.4-2.27c-1.38-1.4-2.24-3.34-2.24-5.47s.85-4.07,2.24-5.47c1.38-1.4,3.29-2.27,5.4-2.27Z"/>
  <path id="ID0.12405046168714762" class="st8" d="M625.12,406.14h5.99v16.69h-5.99v-16.69Z"/>
  <path id="ID0.5237192208878696" class="st8" d="M538.31,406.14h5.99v16.69h-5.99v-16.69Z"/>
  <path id="ID0.45617242623120546" class="st6" d="M391.9,243.35l120.5-76.04,120.5,76.04h-241"/>
  <path id="ID0.9661393193528056" class="st7" d="M512.4,167.31l1.2,76.04h-122"/>
  <path id="ID0.8662337618879974" class="st5" d="M295,98.95c0,9.73-7.8,17.64-17.4,17.64s-17-7.5-17.4-16.93v.71c0,10.65,8.5,19.16,18.9,19.16s18.9-8.62,18.9-19.16-8.5-19.16-18.9-19.16c-.5,0-1,0-1.5.1,9.7,0,17.4,7.91,17.4,17.64Z"/>
  <path id="ID0.9355968926101923" class="st11" d="M625.56,406.14h5.54v3.64h-5.54v-3.64Z"/>
  <path id="ID0.0012661600485444069" class="st11" d="M538.31,406.14h5.54v3.64h-5.54v-3.64Z"/>
  <path id="ID0.7355413404293358" class="st2" d="M551.18,411.3h68.39v10.62h-68.39v-10.62Z"/>
</svg>