<?xml version="1.0" encoding="UTF-8"?>
<svg id="_レイヤー_1" data-name="レイヤー_1" xmlns="http://www.w3.org/2000/svg" version="1.1" viewBox="0 0 800 500">
  <!-- Generator: Adobe Illustrator 30.1.0, SVG Export Plug-In . SVG Version: 2.1.1 Build 136)  -->
  <defs>
    <style>
      .st0 {
        fill: #a3c8ff;
      }

      .st1 {
        fill: #7d91af;
      }

      .st2 {
        fill: #bac8dd;
      }

      .st3 {
        fill: #6ad46a;
      }

      .st4 {
        fill: #358542;
      }

      .st5 {
        stroke: #00feff;
      }

      .st5, .st6 {
        stroke-width: 10px;
      }

      .st5, .st6, .st7, .st8 {
        fill: none;
        stroke-miterlimit: 10;
      }

      .st9 {
        fill: #fff;
      }

      .st6 {
        stroke: #ffe000;
      }

      .st7 {
        stroke: #fff;
        stroke-linecap: round;
        stroke-width: 4.5px;
      }

      .st10 {
        fill: #365e36;
      }

      .st8 {
        stroke: #000;
        stroke-width: 20px;
      }

      .st11 {
        fill: #6281af;
      }
    </style>
  </defs>
  <path class="st0" d="M-95.66,505.05V-7.86h988.72V505.05H-95.66Z"/>
  <path class="st9" d="M285.93,424.34L249.88-4.91l19.78-1.66,36.05,429.25-19.78,1.66Z"/>
  <path class="st2" d="M23.6,422.9V-7.86h19.85v430.76h-19.85Z"/>
  <path class="st2" d="M756.68,424.26V-6.49h19.85v430.76h-19.85Z"/>
  <path class="st9" d="M497.3,421.68l30-429.71,19.81,1.38-30,429.71-19.81-1.38Z"/>
  <path class="st11" d="M-94.29,505.05v-229.48h987.35v229.48H-94.29Z"/>
  <path class="st1" d="M48.66,183.14c0-4.76,3.25-8.63,7.26-8.63s7.26,3.86,7.26,8.63-3.25,8.63-7.26,8.63-7.26-3.86-7.26-8.63Z"/>
  <path class="st1" d="M74.54,183.14c0-4.76,3.25-8.63,7.26-8.63s7.26,3.86,7.26,8.63-3.25,8.63-7.26,8.63-7.26-3.86-7.26-8.63Z"/>
  <path class="st1" d="M100.41,183.14c0-4.76,3.25-8.63,7.26-8.63s7.26,3.86,7.26,8.63-3.25,8.63-7.26,8.63-7.26-3.86-7.26-8.63Z"/>
  <path class="st1" d="M126.29,183.14c0-4.76,3.25-8.63,7.26-8.63s7.26,3.86,7.26,8.63-3.25,8.63-7.26,8.63-7.26-3.86-7.26-8.63Z"/>
  <path class="st1" d="M65.91,161.51c0-4.76,3.25-8.63,7.26-8.63s7.26,3.86,7.26,8.63-3.25,8.63-7.26,8.63-7.26-3.86-7.26-8.63Z"/>
  <path class="st1" d="M91.79,161.51c0-4.76,3.25-8.63,7.26-8.63s7.26,3.86,7.26,8.63-3.25,8.63-7.26,8.63-7.26-3.86-7.26-8.63Z"/>
  <path class="st1" d="M117.67,161.51c0-4.76,3.25-8.63,7.26-8.63s7.26,3.86,7.26,8.63-3.25,8.63-7.26,8.63-7.26-3.86-7.26-8.63Z"/>
  <path class="st1" d="M143.54,161.51c0-4.76,3.25-8.63,7.26-8.63s7.26,3.86,7.26,8.63-3.25,8.63-7.26,8.63-7.26-3.86-7.26-8.63Z"/>
  <path class="st1" d="M150.66,183.14c0-4.76,3.25-8.63,7.26-8.63s7.26,3.86,7.26,8.63-3.25,8.63-7.26,8.63-7.26-3.86-7.26-8.63Z"/>
  <path class="st1" d="M176.54,183.14c0-4.76,3.25-8.63,7.26-8.63s7.26,3.86,7.26,8.63-3.25,8.63-7.26,8.63-7.26-3.86-7.26-8.63Z"/>
  <path class="st1" d="M202.42,183.14c0-4.76,3.25-8.63,7.26-8.63s7.26,3.86,7.26,8.63-3.25,8.63-7.26,8.63-7.26-3.86-7.26-8.63Z"/>
  <path class="st1" d="M228.16,183.14c0-4.76,3.25-8.63,7.26-8.63s7.26,3.86,7.26,8.63-3.25,8.63-7.26,8.63-7.26-3.86-7.26-8.63Z"/>
  <path class="st1" d="M48.66,137.96c0-4.76,3.25-8.63,7.26-8.63s7.26,3.86,7.26,8.63-3.25,8.63-7.26,8.63-7.26-3.86-7.26-8.63Z"/>
  <path class="st1" d="M74.54,137.96c0-4.76,3.25-8.63,7.26-8.63s7.26,3.86,7.26,8.63-3.25,8.63-7.26,8.63-7.26-3.86-7.26-8.63Z"/>
  <path class="st1" d="M100.41,137.96c0-4.76,3.25-8.63,7.26-8.63s7.26,3.86,7.26,8.63-3.25,8.63-7.26,8.63-7.26-3.86-7.26-8.63Z"/>
  <path class="st1" d="M126.29,137.96c0-4.76,3.25-8.63,7.26-8.63s7.26,3.86,7.26,8.63-3.25,8.63-7.26,8.63-7.26-3.86-7.26-8.63Z"/>
  <path class="st1" d="M150.66,137.96c0-4.76,3.25-8.63,7.26-8.63s7.26,3.86,7.26,8.63-3.25,8.63-7.26,8.63-7.26-3.86-7.26-8.63Z"/>
  <path class="st1" d="M176.54,137.96c0-4.76,3.25-8.63,7.26-8.63s7.26,3.86,7.26,8.63-3.25,8.63-7.26,8.63-7.26-3.86-7.26-8.63Z"/>
  <path class="st1" d="M202.42,137.96c0-4.76,3.25-8.63,7.26-8.63s7.26,3.86,7.26,8.63-3.25,8.63-7.26,8.63-7.26-3.86-7.26-8.63Z"/>
  <path class="st1" d="M228.16,137.96c0-4.76,3.25-8.63,7.26-8.63s7.26,3.86,7.26,8.63-3.25,8.63-7.26,8.63-7.26-3.86-7.26-8.63Z"/>
  <path class="st1" d="M167.92,161.51c0-4.76,3.25-8.63,7.26-8.63s7.26,3.86,7.26,8.63-3.25,8.63-7.26,8.63-7.26-3.86-7.26-8.63Z"/>
  <path class="st1" d="M193.79,161.51c0-4.76,3.25-8.63,7.26-8.63s7.26,3.86,7.26,8.63-3.25,8.63-7.26,8.63-7.26-3.86-7.26-8.63Z"/>
  <path class="st1" d="M219.54,161.51c0-4.76,3.25-8.63,7.26-8.63s7.26,3.86,7.26,8.63-3.25,8.63-7.26,8.63-7.26-3.86-7.26-8.63Z"/>
  <path class="st1" d="M245.41,161.51c0-4.76,3.25-8.63,7.26-8.63s7.26,3.86,7.26,8.63-3.25,8.63-7.26,8.63-7.26-3.86-7.26-8.63Z"/>
  <path class="st1" d="M48.66,87.3c0-4.76,3.25-8.63,7.26-8.63s7.26,3.86,7.26,8.63-3.25,8.63-7.26,8.63-7.26-3.86-7.26-8.63Z"/>
  <path class="st1" d="M74.54,87.3c0-4.76,3.25-8.63,7.26-8.63s7.26,3.86,7.26,8.63-3.25,8.63-7.26,8.63-7.26-3.86-7.26-8.63Z"/>
  <path class="st1" d="M100.41,87.3c0-4.76,3.25-8.63,7.26-8.63s7.26,3.86,7.26,8.63-3.25,8.63-7.26,8.63-7.26-3.86-7.26-8.63Z"/>
  <path class="st1" d="M126.29,87.3c0-4.76,3.25-8.63,7.26-8.63s7.26,3.86,7.26,8.63-3.25,8.63-7.26,8.63-7.26-3.86-7.26-8.63Z"/>
  <path class="st1" d="M65.91,65.66c0-4.76,3.25-8.63,7.26-8.63s7.26,3.86,7.26,8.63-3.25,8.63-7.26,8.63-7.26-3.86-7.26-8.63Z"/>
  <path class="st1" d="M91.79,65.66c0-4.76,3.25-8.63,7.26-8.63s7.26,3.86,7.26,8.63-3.25,8.63-7.26,8.63-7.26-3.86-7.26-8.63Z"/>
  <path class="st1" d="M117.67,65.66c0-4.76,3.25-8.63,7.26-8.63s7.26,3.86,7.26,8.63-3.25,8.63-7.26,8.63-7.26-3.86-7.26-8.63Z"/>
  <path class="st1" d="M143.54,65.66c0-4.76,3.25-8.63,7.26-8.63s7.26,3.86,7.26,8.63-3.25,8.63-7.26,8.63-7.26-3.86-7.26-8.63Z"/>
  <path class="st1" d="M150.66,87.3c0-4.76,3.25-8.63,7.26-8.63s7.26,3.86,7.26,8.63-3.25,8.63-7.26,8.63-7.26-3.86-7.26-8.63Z"/>
  <path class="st1" d="M176.54,87.3c0-4.76,3.25-8.63,7.26-8.63s7.26,3.86,7.26,8.63-3.25,8.63-7.26,8.63-7.26-3.86-7.26-8.63Z"/>
  <path class="st1" d="M202.42,87.3c0-4.76,3.25-8.63,7.26-8.63s7.26,3.86,7.26,8.63-3.25,8.63-7.26,8.63-7.26-3.86-7.26-8.63Z"/>
  <path class="st1" d="M228.16,87.3c0-4.76,3.25-8.63,7.26-8.63s7.26,3.86,7.26,8.63-3.25,8.63-7.26,8.63-7.26-3.86-7.26-8.63Z"/>
  <path class="st1" d="M48.66,42.11c0-4.76,3.25-8.63,7.26-8.63s7.26,3.86,7.26,8.63-3.25,8.63-7.26,8.63-7.26-3.86-7.26-8.63Z"/>
  <path class="st1" d="M74.54,42.11c0-4.76,3.25-8.63,7.26-8.63s7.26,3.86,7.26,8.63-3.25,8.63-7.26,8.63-7.26-3.86-7.26-8.63Z"/>
  <path class="st1" d="M100.41,42.11c0-4.76,3.25-8.63,7.26-8.63s7.26,3.86,7.26,8.63-3.25,8.63-7.26,8.63-7.26-3.86-7.26-8.63Z"/>
  <path class="st1" d="M126.29,42.11c0-4.76,3.25-8.63,7.26-8.63s7.26,3.86,7.26,8.63-3.25,8.63-7.26,8.63-7.26-3.86-7.26-8.63Z"/>
  <path class="st1" d="M150.66,42.11c0-4.76,3.25-8.63,7.26-8.63s7.26,3.86,7.26,8.63-3.25,8.63-7.26,8.63-7.26-3.86-7.26-8.63Z"/>
  <path class="st1" d="M176.54,42.11c0-4.76,3.25-8.63,7.26-8.63s7.26,3.86,7.26,8.63-3.25,8.63-7.26,8.63-7.26-3.86-7.26-8.63Z"/>
  <path class="st1" d="M202.42,42.11c0-4.76,3.25-8.63,7.26-8.63s7.26,3.86,7.26,8.63-3.25,8.63-7.26,8.63-7.26-3.86-7.26-8.63Z"/>
  <path class="st1" d="M228.16,42.11c0-4.76,3.25-8.63,7.26-8.63s7.26,3.86,7.26,8.63-3.25,8.63-7.26,8.63-7.26-3.86-7.26-8.63Z"/>
  <path class="st1" d="M167.92,65.66c0-4.76,3.25-8.63,7.26-8.63s7.26,3.86,7.26,8.63-3.25,8.63-7.26,8.63-7.26-3.86-7.26-8.63Z"/>
  <path class="st1" d="M193.79,65.66c0-4.76,3.25-8.63,7.26-8.63s7.26,3.86,7.26,8.63-3.25,8.63-7.26,8.63-7.26-3.86-7.26-8.63Z"/>
  <path class="st1" d="M219.54,65.66c0-4.76,3.25-8.63,7.26-8.63s7.26,3.86,7.26,8.63-3.25,8.63-7.26,8.63-7.26-3.86-7.26-8.63Z"/>
  <path class="st1" d="M295.12,251.6c0-4.76,3.25-8.63,7.26-8.63s7.26,3.86,7.26,8.63-3.25,8.63-7.26,8.63-7.26-3.86-7.26-8.63Z"/>
  <path class="st1" d="M321,251.6c0-4.76,3.25-8.63,7.26-8.63s7.26,3.86,7.26,8.63-3.25,8.63-7.26,8.63-7.26-3.86-7.26-8.63Z"/>
  <path class="st1" d="M346.87,251.6c0-4.76,3.25-8.63,7.26-8.63s7.26,3.86,7.26,8.63-3.25,8.63-7.26,8.63-7.26-3.86-7.26-8.63Z"/>
  <path class="st1" d="M372.75,251.6c0-4.76,3.25-8.63,7.26-8.63s7.26,3.86,7.26,8.63-3.25,8.63-7.26,8.63-7.26-3.86-7.26-8.63Z"/>
  <path class="st1" d="M312.37,229.97c0-4.76,3.25-8.63,7.26-8.63s7.26,3.86,7.26,8.63-3.25,8.63-7.26,8.63-7.26-3.86-7.26-8.63Z"/>
  <path class="st1" d="M338.25,229.97c0-4.76,3.25-8.63,7.26-8.63s7.26,3.86,7.26,8.63-3.25,8.63-7.26,8.63-7.26-3.86-7.26-8.63Z"/>
  <path class="st1" d="M364.13,229.97c0-4.76,3.25-8.63,7.26-8.63s7.26,3.86,7.26,8.63-3.25,8.63-7.26,8.63-7.26-3.86-7.26-8.63Z"/>
  <path class="st1" d="M390.01,229.97c0-4.76,3.25-8.63,7.26-8.63s7.26,3.86,7.26,8.63-3.25,8.63-7.26,8.63-7.26-3.86-7.26-8.63Z"/>
  <path class="st1" d="M397.13,251.6c0-4.76,3.25-8.63,7.26-8.63s7.26,3.86,7.26,8.63-3.25,8.63-7.26,8.63-7.26-3.86-7.26-8.63Z"/>
  <path class="st1" d="M423,251.6c0-4.76,3.25-8.63,7.26-8.63s7.26,3.86,7.26,8.63-3.25,8.63-7.26,8.63-7.26-3.86-7.26-8.63Z"/>
  <path class="st1" d="M448.88,251.6c0-4.76,3.25-8.63,7.26-8.63s7.26,3.86,7.26,8.63-3.25,8.63-7.26,8.63-7.26-3.86-7.26-8.63Z"/>
  <path class="st1" d="M474.62,251.6c0-4.76,3.25-8.63,7.26-8.63s7.26,3.86,7.26,8.63-3.25,8.63-7.26,8.63-7.26-3.86-7.26-8.63Z"/>
  <path class="st1" d="M295.12,206.42c0-4.76,3.25-8.63,7.26-8.63s7.26,3.86,7.26,8.63-3.25,8.63-7.26,8.63-7.26-3.86-7.26-8.63Z"/>
  <path class="st1" d="M321,206.42c0-4.76,3.25-8.63,7.26-8.63s7.26,3.86,7.26,8.63-3.25,8.63-7.26,8.63-7.26-3.86-7.26-8.63Z"/>
  <path class="st1" d="M346.87,206.42c0-4.76,3.25-8.63,7.26-8.63s7.26,3.86,7.26,8.63-3.25,8.63-7.26,8.63-7.26-3.86-7.26-8.63Z"/>
  <path class="st1" d="M372.75,206.42c0-4.76,3.25-8.63,7.26-8.63s7.26,3.86,7.26,8.63-3.25,8.63-7.26,8.63-7.26-3.86-7.26-8.63Z"/>
  <path class="st1" d="M397.13,206.42c0-4.76,3.25-8.63,7.26-8.63s7.26,3.86,7.26,8.63-3.25,8.63-7.26,8.63-7.26-3.86-7.26-8.63Z"/>
  <path class="st1" d="M423,206.42c0-4.76,3.25-8.63,7.26-8.63s7.26,3.86,7.26,8.63-3.25,8.63-7.26,8.63-7.26-3.86-7.26-8.63Z"/>
  <path class="st1" d="M448.88,206.42c0-4.76,3.25-8.63,7.26-8.63s7.26,3.86,7.26,8.63-3.25,8.63-7.26,8.63-7.26-3.86-7.26-8.63Z"/>
  <path class="st1" d="M474.62,206.42c0-4.76,3.25-8.63,7.26-8.63s7.26,3.86,7.26,8.63-3.25,8.63-7.26,8.63-7.26-3.86-7.26-8.63Z"/>
  <path class="st1" d="M414.38,229.97c0-4.76,3.25-8.63,7.26-8.63s7.26,3.86,7.26,8.63-3.25,8.63-7.26,8.63-7.26-3.86-7.26-8.63h0Z"/>
  <path class="st1" d="M440.26,229.97c0-4.76,3.25-8.63,7.26-8.63s7.26,3.86,7.26,8.63-3.25,8.63-7.26,8.63-7.26-3.86-7.26-8.63Z"/>
  <path class="st1" d="M466,229.97c0-4.76,3.25-8.63,7.26-8.63s7.26,3.86,7.26,8.63-3.25,8.63-7.26,8.63-7.26-3.86-7.26-8.63Z"/>
  <path class="st1" d="M491.88,229.97c0-4.76,3.25-8.63,7.26-8.63s7.26,3.86,7.26,8.63-3.25,8.63-7.26,8.63-7.26-3.86-7.26-8.63Z"/>
  <path class="st1" d="M295.12,169.45c0-4.76,3.25-8.63,7.26-8.63s7.26,3.86,7.26,8.63-3.25,8.63-7.26,8.63-7.26-3.86-7.26-8.63Z"/>
  <path class="st1" d="M321,169.45c0-4.76,3.25-8.63,7.26-8.63s7.26,3.86,7.26,8.63-3.25,8.63-7.26,8.63-7.26-3.86-7.26-8.63Z"/>
  <path class="st1" d="M346.87,169.45c0-4.76,3.25-8.63,7.26-8.63s7.26,3.86,7.26,8.63-3.25,8.63-7.26,8.63-7.26-3.86-7.26-8.63Z"/>
  <path class="st1" d="M372.75,169.45c0-4.76,3.25-8.63,7.26-8.63s7.26,3.86,7.26,8.63-3.25,8.63-7.26,8.63-7.26-3.86-7.26-8.63Z"/>
  <path class="st1" d="M312.37,147.82c0-4.76,3.25-8.63,7.26-8.63s7.26,3.86,7.26,8.63-3.25,8.63-7.26,8.63-7.26-3.86-7.26-8.63Z"/>
  <path class="st1" d="M338.25,147.82c0-4.76,3.25-8.63,7.26-8.63s7.26,3.86,7.26,8.63-3.25,8.63-7.26,8.63-7.26-3.86-7.26-8.63Z"/>
  <path class="st1" d="M364.13,147.82c0-4.76,3.25-8.63,7.26-8.63s7.26,3.86,7.26,8.63-3.25,8.63-7.26,8.63-7.26-3.86-7.26-8.63Z"/>
  <path class="st1" d="M390.01,147.82c0-4.76,3.25-8.63,7.26-8.63s7.26,3.86,7.26,8.63-3.25,8.63-7.26,8.63-7.26-3.86-7.26-8.63Z"/>
  <path class="st1" d="M397.13,169.45c0-4.76,3.25-8.63,7.26-8.63s7.26,3.86,7.26,8.63-3.25,8.63-7.26,8.63-7.26-3.86-7.26-8.63Z"/>
  <path class="st1" d="M423,169.45c0-4.76,3.25-8.63,7.26-8.63s7.26,3.86,7.26,8.63-3.25,8.63-7.26,8.63-7.26-3.86-7.26-8.63Z"/>
  <path class="st1" d="M448.88,169.45c0-4.76,3.25-8.63,7.26-8.63s7.26,3.86,7.26,8.63-3.25,8.63-7.26,8.63-7.26-3.86-7.26-8.63Z"/>
  <path class="st1" d="M474.62,169.45c0-4.76,3.25-8.63,7.26-8.63s7.26,3.86,7.26,8.63-3.25,8.63-7.26,8.63-7.26-3.86-7.26-8.63Z"/>
  <path class="st1" d="M295.12,124.27c0-4.76,3.25-8.63,7.26-8.63s7.26,3.86,7.26,8.63-3.25,8.63-7.26,8.63-7.26-3.86-7.26-8.63Z"/>
  <path class="st1" d="M321,124.27c0-4.76,3.25-8.63,7.26-8.63s7.26,3.86,7.26,8.63-3.25,8.63-7.26,8.63-7.26-3.86-7.26-8.63Z"/>
  <path class="st1" d="M346.87,124.27c0-4.76,3.25-8.63,7.26-8.63s7.26,3.86,7.26,8.63-3.25,8.63-7.26,8.63-7.26-3.86-7.26-8.63Z"/>
  <path class="st1" d="M372.75,124.27c0-4.76,3.25-8.63,7.26-8.63s7.26,3.86,7.26,8.63-3.25,8.63-7.26,8.63-7.26-3.86-7.26-8.63Z"/>
  <path class="st1" d="M397.13,124.27c0-4.76,3.25-8.63,7.26-8.63s7.26,3.86,7.26,8.63-3.25,8.63-7.26,8.63-7.26-3.86-7.26-8.63Z"/>
  <path class="st1" d="M423,124.27c0-4.76,3.25-8.63,7.26-8.63s7.26,3.86,7.26,8.63-3.25,8.63-7.26,8.63-7.26-3.86-7.26-8.63Z"/>
  <path class="st1" d="M448.88,124.27c0-4.76,3.25-8.63,7.26-8.63s7.26,3.86,7.26,8.63-3.25,8.63-7.26,8.63-7.26-3.86-7.26-8.63Z"/>
  <path class="st1" d="M474.62,124.27c0-4.76,3.25-8.63,7.26-8.63s7.26,3.86,7.26,8.63-3.25,8.63-7.26,8.63-7.26-3.86-7.26-8.63Z"/>
  <path class="st1" d="M414.38,147.82c0-4.76,3.25-8.63,7.26-8.63s7.26,3.86,7.26,8.63-3.25,8.63-7.26,8.63-7.26-3.86-7.26-8.63h0Z"/>
  <path class="st1" d="M440.26,147.82c0-4.76,3.25-8.63,7.26-8.63s7.26,3.86,7.26,8.63-3.25,8.63-7.26,8.63-7.26-3.86-7.26-8.63Z"/>
  <path class="st1" d="M466,147.82c0-4.76,3.25-8.63,7.26-8.63s7.26,3.86,7.26,8.63-3.25,8.63-7.26,8.63-7.26-3.86-7.26-8.63Z"/>
  <path class="st1" d="M491.88,147.82c0-4.76,3.25-8.63,7.26-8.63s7.26,3.86,7.26,8.63-3.25,8.63-7.26,8.63-7.26-3.86-7.26-8.63Z"/>
  <path class="st1" d="M295.12,73.61c0-4.76,3.25-8.63,7.26-8.63s7.26,3.86,7.26,8.63-3.25,8.63-7.26,8.63-7.26-3.86-7.26-8.63Z"/>
  <path class="st1" d="M321,73.61c0-4.76,3.25-8.63,7.26-8.63s7.26,3.86,7.26,8.63-3.25,8.63-7.26,8.63-7.26-3.86-7.26-8.63Z"/>
  <path class="st1" d="M346.87,73.61c0-4.76,3.25-8.63,7.26-8.63s7.26,3.86,7.26,8.63-3.25,8.63-7.26,8.63-7.26-3.86-7.26-8.63Z"/>
  <path class="st1" d="M372.75,73.61c0-4.76,3.25-8.63,7.26-8.63s7.26,3.86,7.26,8.63-3.25,8.63-7.26,8.63-7.26-3.86-7.26-8.63Z"/>
  <path class="st1" d="M312.37,51.97c0-4.76,3.25-8.63,7.26-8.63s7.26,3.86,7.26,8.63-3.25,8.63-7.26,8.63-7.26-3.86-7.26-8.63Z"/>
  <path class="st1" d="M338.25,51.97c0-4.76,3.25-8.63,7.26-8.63s7.26,3.86,7.26,8.63-3.25,8.63-7.26,8.63-7.26-3.86-7.26-8.63Z"/>
  <path class="st1" d="M364.13,51.97c0-4.76,3.25-8.63,7.26-8.63s7.26,3.86,7.26,8.63-3.25,8.63-7.26,8.63-7.26-3.86-7.26-8.63Z"/>
  <path class="st1" d="M390.01,51.97c0-4.76,3.25-8.63,7.26-8.63s7.26,3.86,7.26,8.63-3.25,8.63-7.26,8.63-7.26-3.86-7.26-8.63Z"/>
  <path class="st1" d="M397.13,73.61c0-4.76,3.25-8.63,7.26-8.63s7.26,3.86,7.26,8.63-3.25,8.63-7.26,8.63-7.26-3.86-7.26-8.63Z"/>
  <path class="st1" d="M423,73.61c0-4.76,3.25-8.63,7.26-8.63s7.26,3.86,7.26,8.63-3.25,8.63-7.26,8.63-7.26-3.86-7.26-8.63Z"/>
  <path class="st1" d="M448.88,73.61c0-4.76,3.25-8.63,7.26-8.63s7.26,3.86,7.26,8.63-3.25,8.63-7.26,8.63-7.26-3.86-7.26-8.63Z"/>
  <path class="st1" d="M474.62,73.61c0-4.76,3.25-8.63,7.26-8.63s7.26,3.86,7.26,8.63-3.25,8.63-7.26,8.63-7.26-3.86-7.26-8.63Z"/>
  <path class="st1" d="M295.12,28.42c0-4.76,3.25-8.63,7.26-8.63s7.26,3.86,7.26,8.63-3.25,8.63-7.26,8.63-7.26-3.86-7.26-8.63Z"/>
  <path class="st1" d="M321,28.42c0-4.76,3.25-8.63,7.26-8.63s7.26,3.86,7.26,8.63-3.25,8.63-7.26,8.63-7.26-3.86-7.26-8.63Z"/>
  <path class="st1" d="M346.87,28.42c0-4.76,3.25-8.63,7.26-8.63s7.26,3.86,7.26,8.63-3.25,8.63-7.26,8.63-7.26-3.86-7.26-8.63Z"/>
  <path class="st1" d="M372.75,28.42c0-4.76,3.25-8.63,7.26-8.63s7.26,3.86,7.26,8.63-3.25,8.63-7.26,8.63-7.26-3.86-7.26-8.63Z"/>
  <path class="st1" d="M397.13,28.42c0-4.76,3.25-8.63,7.26-8.63s7.26,3.86,7.26,8.63-3.25,8.63-7.26,8.63-7.26-3.86-7.26-8.63Z"/>
  <path class="st1" d="M423,28.42c0-4.76,3.25-8.63,7.26-8.63s7.26,3.86,7.26,8.63-3.25,8.63-7.26,8.63-7.26-3.86-7.26-8.63Z"/>
  <path class="st1" d="M448.88,28.42c0-4.76,3.25-8.63,7.26-8.63s7.26,3.86,7.26,8.63-3.25,8.63-7.26,8.63-7.26-3.86-7.26-8.63Z"/>
  <path class="st1" d="M474.62,28.42c0-4.76,3.25-8.63,7.26-8.63s7.26,3.86,7.26,8.63-3.25,8.63-7.26,8.63-7.26-3.86-7.26-8.63Z"/>
  <path class="st1" d="M414.38,51.97c0-4.76,3.25-8.63,7.26-8.63s7.26,3.86,7.26,8.63-3.25,8.63-7.26,8.63-7.26-3.86-7.26-8.63h0Z"/>
  <path class="st1" d="M440.26,51.97c0-4.76,3.25-8.63,7.26-8.63s7.26,3.86,7.26,8.63-3.25,8.63-7.26,8.63-7.26-3.86-7.26-8.63Z"/>
  <path class="st1" d="M466,51.97c0-4.76,3.25-8.63,7.26-8.63s7.26,3.86,7.26,8.63-3.25,8.63-7.26,8.63-7.26-3.86-7.26-8.63Z"/>
  <path class="st1" d="M491.88,51.97c0-4.76,3.25-8.63,7.26-8.63s7.26,3.86,7.26,8.63-3.25,8.63-7.26,8.63-7.26-3.86-7.26-8.63Z"/>
  <path class="st1" d="M542.95,183.14c0-4.76,3.25-8.63,7.26-8.63s7.26,3.86,7.26,8.63-3.25,8.63-7.26,8.63-7.26-3.86-7.26-8.63Z"/>
  <path class="st1" d="M568.83,183.14c0-4.76,3.25-8.63,7.26-8.63s7.26,3.86,7.26,8.63-3.25,8.63-7.26,8.63-7.26-3.86-7.26-8.63Z"/>
  <path class="st1" d="M594.7,183.14c0-4.76,3.25-8.63,7.26-8.63s7.26,3.86,7.26,8.63-3.25,8.63-7.26,8.63-7.26-3.86-7.26-8.63Z"/>
  <path class="st1" d="M620.58,183.14c0-4.76,3.25-8.63,7.26-8.63s7.26,3.86,7.26,8.63-3.25,8.63-7.26,8.63-7.26-3.86-7.26-8.63Z"/>
  <path class="st1" d="M560.2,161.51c0-4.76,3.25-8.63,7.26-8.63s7.26,3.86,7.26,8.63-3.25,8.63-7.26,8.63-7.26-3.86-7.26-8.63Z"/>
  <path class="st1" d="M586.08,161.51c0-4.76,3.25-8.63,7.26-8.63s7.26,3.86,7.26,8.63-3.25,8.63-7.26,8.63-7.26-3.86-7.26-8.63Z"/>
  <path class="st1" d="M611.96,161.51c0-4.76,3.25-8.63,7.26-8.63s7.26,3.86,7.26,8.63-3.25,8.63-7.26,8.63-7.26-3.86-7.26-8.63Z"/>
  <path class="st1" d="M637.84,161.51c0-4.76,3.25-8.63,7.26-8.63s7.26,3.86,7.26,8.63-3.25,8.63-7.26,8.63-7.26-3.86-7.26-8.63Z"/>
  <path class="st1" d="M644.96,183.14c0-4.76,3.25-8.63,7.26-8.63s7.26,3.86,7.26,8.63-3.25,8.63-7.26,8.63-7.26-3.86-7.26-8.63Z"/>
  <path class="st1" d="M670.83,183.14c0-4.76,3.25-8.63,7.26-8.63s7.26,3.86,7.26,8.63-3.25,8.63-7.26,8.63-7.26-3.86-7.26-8.63Z"/>
  <path class="st1" d="M696.71,183.14c0-4.76,3.25-8.63,7.26-8.63s7.26,3.86,7.26,8.63-3.25,8.63-7.26,8.63-7.26-3.86-7.26-8.63Z"/>
  <path class="st1" d="M722.45,183.14c0-4.76,3.25-8.63,7.26-8.63s7.26,3.86,7.26,8.63-3.25,8.63-7.26,8.63-7.26-3.86-7.26-8.63Z"/>
  <path class="st1" d="M542.95,137.96c0-4.76,3.25-8.63,7.26-8.63s7.26,3.86,7.26,8.63-3.25,8.63-7.26,8.63-7.26-3.86-7.26-8.63Z"/>
  <path class="st1" d="M568.83,137.96c0-4.76,3.25-8.63,7.26-8.63s7.26,3.86,7.26,8.63-3.25,8.63-7.26,8.63-7.26-3.86-7.26-8.63Z"/>
  <path class="st1" d="M594.7,137.96c0-4.76,3.25-8.63,7.26-8.63s7.26,3.86,7.26,8.63-3.25,8.63-7.26,8.63-7.26-3.86-7.26-8.63Z"/>
  <path class="st1" d="M620.58,137.96c0-4.76,3.25-8.63,7.26-8.63s7.26,3.86,7.26,8.63-3.25,8.63-7.26,8.63-7.26-3.86-7.26-8.63Z"/>
  <path class="st1" d="M644.96,137.96c0-4.76,3.25-8.63,7.26-8.63s7.26,3.86,7.26,8.63-3.25,8.63-7.26,8.63-7.26-3.86-7.26-8.63Z"/>
  <path class="st1" d="M670.83,137.96c0-4.76,3.25-8.63,7.26-8.63s7.26,3.86,7.26,8.63-3.25,8.63-7.26,8.63-7.26-3.86-7.26-8.63Z"/>
  <path class="st1" d="M696.71,137.96c0-4.76,3.25-8.63,7.26-8.63s7.26,3.86,7.26,8.63-3.25,8.63-7.26,8.63-7.26-3.86-7.26-8.63Z"/>
  <path class="st1" d="M722.45,137.96c0-4.76,3.25-8.63,7.26-8.63s7.26,3.86,7.26,8.63-3.25,8.63-7.26,8.63-7.26-3.86-7.26-8.63Z"/>
  <path class="st1" d="M662.21,161.51c0-4.76,3.25-8.63,7.26-8.63s7.26,3.86,7.26,8.63-3.25,8.63-7.26,8.63-7.26-3.86-7.26-8.63Z"/>
  <path class="st1" d="M688.09,161.51c0-4.76,3.25-8.63,7.26-8.63s7.26,3.86,7.26,8.63-3.25,8.63-7.26,8.63-7.26-3.86-7.26-8.63Z"/>
  <path class="st1" d="M713.83,161.51c0-4.76,3.25-8.63,7.26-8.63s7.26,3.86,7.26,8.63-3.25,8.63-7.26,8.63-7.26-3.86-7.26-8.63Z"/>
  <path class="st1" d="M739.71,161.51c0-4.76,3.25-8.63,7.26-8.63s7.26,3.86,7.26,8.63-3.25,8.63-7.26,8.63-7.26-3.86-7.26-8.63Z"/>
  <path class="st1" d="M564.72,87.3c0-4.76,3.25-8.63,7.26-8.63s7.26,3.86,7.26,8.63-3.25,8.63-7.26,8.63-7.26-3.86-7.26-8.63Z"/>
  <path class="st1" d="M590.6,87.3c0-4.76,3.25-8.63,7.26-8.63s7.26,3.86,7.26,8.63-3.25,8.63-7.26,8.63-7.26-3.86-7.26-8.63Z"/>
  <path class="st1" d="M616.48,87.3c0-4.76,3.25-8.63,7.26-8.63s7.26,3.86,7.26,8.63-3.25,8.63-7.26,8.63-7.26-3.86-7.26-8.63Z"/>
  <path class="st1" d="M556.09,65.66c0-4.76,3.25-8.63,7.26-8.63s7.26,3.86,7.26,8.63-3.25,8.63-7.26,8.63-7.26-3.86-7.26-8.63Z"/>
  <path class="st1" d="M581.97,65.66c0-4.76,3.25-8.63,7.26-8.63s7.26,3.86,7.26,8.63-3.25,8.63-7.26,8.63-7.26-3.86-7.26-8.63Z"/>
  <path class="st1" d="M607.85,65.66c0-4.76,3.25-8.63,7.26-8.63s7.26,3.86,7.26,8.63-3.25,8.63-7.26,8.63-7.26-3.86-7.26-8.63Z"/>
  <path class="st1" d="M633.73,65.66c0-4.76,3.25-8.63,7.26-8.63s7.26,3.86,7.26,8.63-3.25,8.63-7.26,8.63-7.26-3.86-7.26-8.63Z"/>
  <path class="st1" d="M640.85,87.3c0-4.76,3.25-8.63,7.26-8.63s7.26,3.86,7.26,8.63-3.25,8.63-7.26,8.63-7.26-3.86-7.26-8.63Z"/>
  <path class="st1" d="M666.73,87.3c0-4.76,3.25-8.63,7.26-8.63s7.26,3.86,7.26,8.63-3.25,8.63-7.26,8.63-7.26-3.86-7.26-8.63Z"/>
  <path class="st1" d="M692.6,87.3c0-4.76,3.25-8.63,7.26-8.63s7.26,3.86,7.26,8.63-3.25,8.63-7.26,8.63-7.26-3.86-7.26-8.63Z"/>
  <path class="st1" d="M718.35,87.3c0-4.76,3.25-8.63,7.26-8.63s7.26,3.86,7.26,8.63-3.25,8.63-7.26,8.63-7.26-3.86-7.26-8.63Z"/>
  <path class="st1" d="M564.72,42.11c0-4.76,3.25-8.63,7.26-8.63s7.26,3.86,7.26,8.63-3.25,8.63-7.26,8.63-7.26-3.86-7.26-8.63Z"/>
  <path class="st1" d="M590.6,42.11c0-4.76,3.25-8.63,7.26-8.63s7.26,3.86,7.26,8.63-3.25,8.63-7.26,8.63-7.26-3.86-7.26-8.63Z"/>
  <path class="st1" d="M616.48,42.11c0-4.76,3.25-8.63,7.26-8.63s7.26,3.86,7.26,8.63-3.25,8.63-7.26,8.63-7.26-3.86-7.26-8.63Z"/>
  <path class="st1" d="M640.85,42.11c0-4.76,3.25-8.63,7.26-8.63s7.26,3.86,7.26,8.63-3.25,8.63-7.26,8.63-7.26-3.86-7.26-8.63Z"/>
  <path class="st1" d="M666.73,42.11c0-4.76,3.25-8.63,7.26-8.63s7.26,3.86,7.26,8.63-3.25,8.63-7.26,8.63-7.26-3.86-7.26-8.63Z"/>
  <path class="st1" d="M692.6,42.11c0-4.76,3.25-8.63,7.26-8.63s7.26,3.86,7.26,8.63-3.25,8.63-7.26,8.63-7.26-3.86-7.26-8.63Z"/>
  <path class="st1" d="M718.35,42.11c0-4.76,3.25-8.63,7.26-8.63s7.26,3.86,7.26,8.63-3.25,8.63-7.26,8.63-7.26-3.86-7.26-8.63Z"/>
  <path class="st1" d="M658.1,65.66c0-4.76,3.25-8.63,7.26-8.63s7.26,3.86,7.26,8.63-3.25,8.63-7.26,8.63-7.26-3.86-7.26-8.63Z"/>
  <path class="st1" d="M683.98,65.66c0-4.76,3.25-8.63,7.26-8.63s7.26,3.86,7.26,8.63-3.25,8.63-7.26,8.63-7.26-3.86-7.26-8.63Z"/>
  <path class="st1" d="M709.72,65.66c0-4.76,3.25-8.63,7.26-8.63s7.26,3.86,7.26,8.63-3.25,8.63-7.26,8.63-7.26-3.86-7.26-8.63Z"/>
  <path class="st1" d="M735.6,65.66c0-4.76,3.25-8.63,7.26-8.63s7.26,3.86,7.26,8.63-3.25,8.63-7.26,8.63-7.26-3.86-7.26-8.63Z"/>
  <path class="st1" d="M785.3,251.6c0-4.76,3.25-8.63,7.26-8.63s7.26,3.86,7.26,8.63-3.25,8.63-7.26,8.63-7.26-3.86-7.26-8.63Z"/>
  <path class="st1" d="M811.18,251.6c0-4.76,3.25-8.63,7.26-8.63s7.26,3.86,7.26,8.63-3.25,8.63-7.26,8.63-7.26-3.86-7.26-8.63Z"/>
  <path class="st1" d="M837.06,251.6c0-4.76,3.25-8.63,7.26-8.63s7.26,3.86,7.26,8.63-3.25,8.63-7.26,8.63-7.26-3.86-7.26-8.63Z"/>
  <path class="st1" d="M862.94,251.6c0-4.76,3.25-8.63,7.26-8.63s7.26,3.86,7.26,8.63-3.25,8.63-7.26,8.63-7.26-3.86-7.26-8.63Z"/>
  <path class="st1" d="M802.55,229.97c0-4.76,3.25-8.63,7.26-8.63s7.26,3.86,7.26,8.63-3.25,8.63-7.26,8.63-7.26-3.86-7.26-8.63Z"/>
  <path class="st1" d="M828.43,229.97c0-4.76,3.25-8.63,7.26-8.63s7.26,3.86,7.26,8.63-3.25,8.63-7.26,8.63-7.26-3.86-7.26-8.63Z"/>
  <path class="st1" d="M854.31,229.97c0-4.76,3.25-8.63,7.26-8.63s7.26,3.86,7.26,8.63-3.25,8.63-7.26,8.63-7.26-3.86-7.26-8.63Z"/>
  <path class="st1" d="M880.19,229.97c0-4.76,3.25-8.63,7.26-8.63s7.26,3.86,7.26,8.63-3.25,8.63-7.26,8.63-7.26-3.86-7.26-8.63Z"/>
  <path class="st1" d="M785.3,206.42c0-4.76,3.25-8.63,7.26-8.63s7.26,3.86,7.26,8.63-3.25,8.63-7.26,8.63-7.26-3.86-7.26-8.63Z"/>
  <path class="st1" d="M811.18,206.42c0-4.76,3.25-8.63,7.26-8.63s7.26,3.86,7.26,8.63-3.25,8.63-7.26,8.63-7.26-3.86-7.26-8.63Z"/>
  <path class="st1" d="M837.06,206.42c0-4.76,3.25-8.63,7.26-8.63s7.26,3.86,7.26,8.63-3.25,8.63-7.26,8.63-7.26-3.86-7.26-8.63Z"/>
  <path class="st1" d="M862.94,206.42c0-4.76,3.25-8.63,7.26-8.63s7.26,3.86,7.26,8.63-3.25,8.63-7.26,8.63-7.26-3.86-7.26-8.63Z"/>
  <path class="st1" d="M785.3,155.76c0-4.76,3.25-8.63,7.26-8.63s7.26,3.86,7.26,8.63-3.25,8.63-7.26,8.63-7.26-3.86-7.26-8.63Z"/>
  <path class="st1" d="M811.18,155.76c0-4.76,3.25-8.63,7.26-8.63s7.26,3.86,7.26,8.63-3.25,8.63-7.26,8.63-7.26-3.86-7.26-8.63Z"/>
  <path class="st1" d="M837.06,155.76c0-4.76,3.25-8.63,7.26-8.63s7.26,3.86,7.26,8.63-3.25,8.63-7.26,8.63-7.26-3.86-7.26-8.63Z"/>
  <path class="st1" d="M862.94,155.76c0-4.76,3.25-8.63,7.26-8.63s7.26,3.86,7.26,8.63-3.25,8.63-7.26,8.63-7.26-3.86-7.26-8.63Z"/>
  <path class="st1" d="M802.55,134.13c0-4.76,3.25-8.63,7.26-8.63s7.26,3.86,7.26,8.63-3.25,8.63-7.26,8.63-7.26-3.86-7.26-8.63Z"/>
  <path class="st1" d="M828.43,134.13c0-4.76,3.25-8.63,7.26-8.63s7.26,3.86,7.26,8.63-3.25,8.63-7.26,8.63-7.26-3.86-7.26-8.63Z"/>
  <path class="st1" d="M854.31,134.13c0-4.76,3.25-8.63,7.26-8.63s7.26,3.86,7.26,8.63-3.25,8.63-7.26,8.63-7.26-3.86-7.26-8.63Z"/>
  <path class="st1" d="M880.19,134.13c0-4.76,3.25-8.63,7.26-8.63s7.26,3.86,7.26,8.63-3.25,8.63-7.26,8.63-7.26-3.86-7.26-8.63Z"/>
  <path class="st1" d="M785.3,110.57c0-4.76,3.25-8.63,7.26-8.63s7.26,3.86,7.26,8.63-3.25,8.63-7.26,8.63-7.26-3.86-7.26-8.63Z"/>
  <path class="st1" d="M811.18,110.57c0-4.76,3.25-8.63,7.26-8.63s7.26,3.86,7.26,8.63-3.25,8.63-7.26,8.63-7.26-3.86-7.26-8.63Z"/>
  <path class="st1" d="M837.06,110.57c0-4.76,3.25-8.63,7.26-8.63s7.26,3.86,7.26,8.63-3.25,8.63-7.26,8.63-7.26-3.86-7.26-8.63Z"/>
  <path class="st1" d="M862.94,110.57c0-4.76,3.25-8.63,7.26-8.63s7.26,3.86,7.26,8.63-3.25,8.63-7.26,8.63-7.26-3.86-7.26-8.63Z"/>
  <path class="st1" d="M785.3,59.91c0-4.76,3.25-8.63,7.26-8.63s7.26,3.86,7.26,8.63-3.25,8.63-7.26,8.63-7.26-3.86-7.26-8.63Z"/>
  <path class="st1" d="M811.18,59.91c0-4.76,3.25-8.63,7.26-8.63s7.26,3.86,7.26,8.63-3.25,8.63-7.26,8.63-7.26-3.86-7.26-8.63Z"/>
  <path class="st1" d="M837.06,59.91c0-4.76,3.25-8.63,7.26-8.63s7.26,3.86,7.26,8.63-3.25,8.63-7.26,8.63-7.26-3.86-7.26-8.63Z"/>
  <path class="st1" d="M862.94,59.91c0-4.76,3.25-8.63,7.26-8.63s7.26,3.86,7.26,8.63-3.25,8.63-7.26,8.63-7.26-3.86-7.26-8.63Z"/>
  <path class="st1" d="M802.55,38.28c0-4.76,3.25-8.63,7.26-8.63s7.26,3.86,7.26,8.63-3.25,8.63-7.26,8.63-7.26-3.86-7.26-8.63Z"/>
  <path class="st1" d="M828.43,38.28c0-4.76,3.25-8.63,7.26-8.63s7.26,3.86,7.26,8.63-3.25,8.63-7.26,8.63-7.26-3.86-7.26-8.63Z"/>
  <path class="st1" d="M854.31,38.28c0-4.76,3.25-8.63,7.26-8.63s7.26,3.86,7.26,8.63-3.25,8.63-7.26,8.63-7.26-3.86-7.26-8.63Z"/>
  <path class="st1" d="M880.19,38.28c0-4.76,3.25-8.63,7.26-8.63s7.26,3.86,7.26,8.63-3.25,8.63-7.26,8.63-7.26-3.86-7.26-8.63Z"/>
  <path class="st1" d="M785.3,14.73c0-4.76,3.25-8.63,7.26-8.63s7.26,3.86,7.26,8.63-3.25,8.63-7.26,8.63-7.26-3.86-7.26-8.63Z"/>
  <path class="st1" d="M811.18,14.73c0-4.76,3.25-8.63,7.26-8.63s7.26,3.86,7.26,8.63-3.25,8.63-7.26,8.63-7.26-3.86-7.26-8.63Z"/>
  <path class="st1" d="M837.06,14.73c0-4.76,3.25-8.63,7.26-8.63s7.26,3.86,7.26,8.63-3.25,8.63-7.26,8.63-7.26-3.86-7.26-8.63Z"/>
  <path class="st1" d="M862.94,14.73c0-4.76,3.25-8.63,7.26-8.63s7.26,3.86,7.26,8.63-3.25,8.63-7.26,8.63-7.26-3.86-7.26-8.63Z"/>
  <path class="st1" d="M-72.66,251.6c0-4.76,3.25-8.63,7.26-8.63s7.26,3.86,7.26,8.63-3.25,8.63-7.26,8.63-7.26-3.86-7.26-8.63Z"/>
  <path class="st1" d="M-46.78,251.6c0-4.76,3.25-8.63,7.26-8.63s7.26,3.86,7.26,8.63-3.25,8.63-7.26,8.63-7.26-3.86-7.26-8.63Z"/>
  <path class="st1" d="M-21.04,251.6c0-4.76,3.25-8.63,7.26-8.63s7.26,3.86,7.26,8.63-3.25,8.63-7.26,8.63-7.26-3.86-7.26-8.63Z"/>
  <path class="st1" d="M-72.66,206.42c0-4.76,3.25-8.63,7.26-8.63s7.26,3.86,7.26,8.63-3.25,8.63-7.26,8.63-7.26-3.86-7.26-8.63Z"/>
  <path class="st1" d="M-46.78,206.42c0-4.76,3.25-8.63,7.26-8.63s7.26,3.86,7.26,8.63-3.25,8.63-7.26,8.63-7.26-3.86-7.26-8.63Z"/>
  <path class="st1" d="M-21.04,206.42c0-4.76,3.25-8.63,7.26-8.63s7.26,3.86,7.26,8.63-3.25,8.63-7.26,8.63-7.26-3.86-7.26-8.63Z"/>
  <path class="st1" d="M-81.28,229.97c0-4.76,3.25-8.63,7.26-8.63s7.26,3.86,7.26,8.63-3.25,8.63-7.26,8.63-7.26-3.86-7.26-8.63Z"/>
  <path class="st1" d="M-55.4,229.97c0-4.76,3.25-8.63,7.26-8.63s7.26,3.86,7.26,8.63-3.25,8.63-7.26,8.63-7.26-3.86-7.26-8.63Z"/>
  <path class="st1" d="M-29.66,229.97c0-4.76,3.25-8.63,7.26-8.63s7.26,3.86,7.26,8.63-3.25,8.63-7.26,8.63-7.26-3.86-7.26-8.63Z"/>
  <path class="st1" d="M-3.78,229.97c0-4.76,3.25-8.63,7.26-8.63s7.26,3.86,7.26,8.63-3.25,8.63-7.26,8.63-7.26-3.86-7.26-8.63Z"/>
  <path class="st1" d="M-72.66,155.76c0-4.76,3.25-8.63,7.26-8.63s7.26,3.86,7.26,8.63-3.25,8.63-7.26,8.63-7.26-3.86-7.26-8.63Z"/>
  <path class="st1" d="M-46.78,155.76c0-4.76,3.25-8.63,7.26-8.63s7.26,3.86,7.26,8.63-3.25,8.63-7.26,8.63-7.26-3.86-7.26-8.63Z"/>
  <path class="st1" d="M-21.04,155.76c0-4.76,3.25-8.63,7.26-8.63s7.26,3.86,7.26,8.63-3.25,8.63-7.26,8.63-7.26-3.86-7.26-8.63Z"/>
  <path class="st1" d="M-72.66,110.57c0-4.76,3.25-8.63,7.26-8.63s7.26,3.86,7.26,8.63-3.25,8.63-7.26,8.63-7.26-3.86-7.26-8.63Z"/>
  <path class="st1" d="M-46.78,110.57c0-4.76,3.25-8.63,7.26-8.63s7.26,3.86,7.26,8.63-3.25,8.63-7.26,8.63-7.26-3.86-7.26-8.63Z"/>
  <path class="st1" d="M-21.04,110.57c0-4.76,3.25-8.63,7.26-8.63s7.26,3.86,7.26,8.63-3.25,8.63-7.26,8.63-7.26-3.86-7.26-8.63Z"/>
  <path class="st1" d="M-81.28,134.13c0-4.76,3.25-8.63,7.26-8.63s7.26,3.86,7.26,8.63-3.25,8.63-7.26,8.63-7.26-3.86-7.26-8.63Z"/>
  <path class="st1" d="M-55.4,134.13c0-4.76,3.25-8.63,7.26-8.63s7.26,3.86,7.26,8.63-3.25,8.63-7.26,8.63-7.26-3.86-7.26-8.63Z"/>
  <path class="st1" d="M-29.66,134.13c0-4.76,3.25-8.63,7.26-8.63s7.26,3.86,7.26,8.63-3.25,8.63-7.26,8.63-7.26-3.86-7.26-8.63Z"/>
  <path class="st1" d="M-3.78,134.13c0-4.76,3.25-8.63,7.26-8.63s7.26,3.86,7.26,8.63-3.25,8.63-7.26,8.63-7.26-3.86-7.26-8.63Z"/>
  <path class="st1" d="M-72.66,59.91c0-4.76,3.25-8.63,7.26-8.63s7.26,3.86,7.26,8.63-3.25,8.63-7.26,8.63-7.26-3.86-7.26-8.63Z"/>
  <path class="st1" d="M-46.78,59.91c0-4.76,3.25-8.63,7.26-8.63s7.26,3.86,7.26,8.63-3.25,8.63-7.26,8.63-7.26-3.86-7.26-8.63Z"/>
  <path class="st1" d="M-21.04,59.91c0-4.76,3.25-8.63,7.26-8.63s7.26,3.86,7.26,8.63-3.25,8.63-7.26,8.63-7.26-3.86-7.26-8.63Z"/>
  <path class="st1" d="M-72.66,14.73c0-4.76,3.25-8.63,7.26-8.63s7.26,3.86,7.26,8.63-3.25,8.63-7.26,8.63-7.26-3.86-7.26-8.63Z"/>
  <path class="st1" d="M-46.78,14.73c0-4.76,3.25-8.63,7.26-8.63s7.26,3.86,7.26,8.63-3.25,8.63-7.26,8.63-7.26-3.86-7.26-8.63Z"/>
  <path class="st1" d="M-21.04,14.73c0-4.76,3.25-8.63,7.26-8.63s7.26,3.86,7.26,8.63-3.25,8.63-7.26,8.63-7.26-3.86-7.26-8.63Z"/>
  <path class="st1" d="M-81.28,38.28c0-4.76,3.25-8.63,7.26-8.63s7.26,3.86,7.26,8.63-3.25,8.63-7.26,8.63-7.26-3.86-7.26-8.63Z"/>
  <path class="st1" d="M-55.4,38.28c0-4.76,3.25-8.63,7.26-8.63s7.26,3.86,7.26,8.63-3.25,8.63-7.26,8.63-7.26-3.86-7.26-8.63Z"/>
  <path class="st1" d="M-29.66,38.28c0-4.76,3.25-8.63,7.26-8.63s7.26,3.86,7.26,8.63-3.25,8.63-7.26,8.63-7.26-3.86-7.26-8.63Z"/>
  <path class="st1" d="M-3.78,38.28c0-4.76,3.25-8.63,7.26-8.63s7.26,3.86,7.26,8.63-3.25,8.63-7.26,8.63-7.26-3.86-7.26-8.63Z"/>
  <path class="st9" d="M-121.81,295.83c0-55.43,233.01-100.36,520.44-100.36s520.44,44.93,520.44,100.36-233.01,100.36-520.44,100.36S-121.81,351.26-121.81,295.83h0Z"/>
  <path class="st11" d="M-121.81,334.17c0-55.43,233.01-100.36,520.44-100.36s520.44,44.93,520.44,100.36-233.01,100.36-520.44,100.36S-121.81,389.6-121.81,334.17h0Z"/>
  <path class="st3" d="M-137.51,420.5l21.56-99.95h1013.46l21.56,99.95H-137.51Z"/>
  <path class="st7" d="M391.92,326.02v172.52"/>
  <path class="st7" d="M104.25,420.5l13.28-94.48"/>
  <path class="st7" d="M695.89,420.5l-11.91-94.48"/>
  <path class="st10" d="M-137.51,528.81v-109.54H919.07v109.54H-137.51Z"/>
  <path class="st4" d="M318.32,352.35c0,12.64-39.25,22.89-87.67,22.89s-87.67-10.25-87.67-22.89,39.25-22.89,87.67-22.89,87.67,10.25,87.67,22.89Z"/>
  <path class="st8" d="M189.24,358.41c0-21.15,7.12-38.29,28.26-38.29s28.26,17.14,28.26,38.29"/>
  <path d="M234.24,333.85h-33.88l-10.02-72.96h53.92l-10.02,72.96Z"/>
  <path d="M200.37,230.22c0-13.01,10.54-23.55,23.55-23.55s23.55,10.54,23.55,23.55-10.54,23.55-23.55,23.55-23.55-10.54-23.55-23.55Z"/>
  <path class="st8" d="M200.37,270.71h-37.58v-40.49"/>
  <path class="st8" d="M262.42,270.42l-28.5.34"/>
  <path class="st5" d="M263.02,269.74l76.47-10.37"/>
  <path class="st4" d="M624.43,358.49c0,9.25-28.73,16.75-64.17,16.75s-64.17-7.5-64.17-16.75,28.73-16.75,64.17-16.75,64.17,7.5,64.17,16.75Z"/>
  <path class="st8" d="M530.12,358.41c0-21.15,7.12-38.29,28.26-38.29s28.26,17.14,28.26,38.29"/>
  <path d="M531.62,260.89h53.92l-10.02,72.96h-33.88l-10.02-72.96Z"/>
  <path d="M551.96,253.77c-13.01,0-23.55-10.54-23.55-23.55s10.54-23.55,23.55-23.55,23.55,10.54,23.55,23.55-10.54,23.55-23.55,23.55Z"/>
  <path class="st8" d="M613.1,230.22v40.49h-37.58"/>
  <path class="st8" d="M513.46,270.42l28.5.34"/>
  <path class="st6" d="M512.87,269.74l-76.47-10.37"/>
</svg>