<?xml version="1.0" encoding="UTF-8"?>
<svg id="_レイヤー_1" data-name="レイヤー_1" xmlns="http://www.w3.org/2000/svg" version="1.1" viewBox="0 0 800 500">
  <!-- Generator: Adobe Illustrator 30.1.0, SVG Export Plug-In . SVG Version: 2.1.1 Build 136)  -->
  <defs>
    <style>
      .st0 {
        fill: #727171;
      }

      .st1 {
        fill: #e5b42f;
      }

      .st2 {
        fill: #326b9d;
      }

      .st3 {
        fill: #231815;
      }

      .st4 {
        fill: #fff;
      }

      .st5 {
        fill: #db4c2f;
      }

      .st6 {
        fill: #dcdddd;
      }

      .st7 {
        fill: #b5b4b5;
      }

      .st8 {
        fill: #595757;
      }

      .st9 {
        fill: #46a7d8;
      }
    </style>
  </defs>
  <rect class="st9" width="800" height="440.28"/>
  <path id="ID0.1442520096898079" class="st4" d="M545.36,167.08c13.6,0,25.93,5.52,34.86,14.45,8.92,8.93,14.45,21.25,14.45,34.86s-5.52,25.93-14.45,34.86c-8.93,8.93-21.25,14.45-34.86,14.45s-25.93-5.52-34.86-14.45c-8.92-8.93-14.45-21.25-14.45-34.86s5.52-25.93,14.45-34.86c8.93-8.92,21.25-14.45,34.86-14.45Z"/>
  <path id="ID0.5386482630856335" class="st9" d="M0,0h800v289.58H0V0Z"/>
  <path id="ID0.6702359663322568" class="st4" d="M372.17,205.56L225.92,0h-108.06l255.56,231.25"/>
  <path id="ID0.593155334237963" class="st2" d="M67.59,500h666.67H67.59Z"/>
  <path id="ID0.9577403957955539" class="st2" d="M0,500h800v-223.61L0,384.86v115.14"/>
  <path id="ID0.754115373827517" class="st4" d="M545.36,167.08c13.6,0,25.93,5.52,34.86,14.45,8.92,8.93,14.45,21.25,14.45,34.86s-5.52,25.93-14.45,34.86c-8.93,8.93-21.25,14.45-34.86,14.45s-25.93-5.52-34.86-14.45c-8.92-8.93-14.45-21.25-14.45-34.86s5.52-25.93,14.45-34.86c8.93-8.92,21.25-14.45,34.86-14.45Z"/>
  <path id="ID0.474500656593591" class="st4" d="M482.73,189.44c8.51,0,16.22,3.46,21.8,9.04,5.58,5.58,9.04,13.29,9.04,21.8s-3.46,16.22-9.04,21.8c-5.58,5.58-13.29,9.04-21.8,9.04s-16.22-3.46-21.8-9.04c-5.58-5.58-9.04-13.29-9.04-21.8s3.46-16.22,9.04-21.8c5.58-5.58,13.29-9.04,21.8-9.04Z"/>
  <path id="ID0.09649045905098319" class="st6" d="M600.64,232.92c15.4,0,29.36,6.26,39.47,16.36,10.11,10.11,16.36,24.07,16.36,39.47s-6.26,29.36-16.36,39.47c-10.11,10.11-24.07,16.36-39.47,16.36s-29.36-6.26-39.47-16.36c-10.11-10.11-16.36-24.07-16.36-39.47s6.26-29.36,16.36-39.47c10.11-10.11,24.07-16.36,39.47-16.36Z"/>
  <path id="ID0.8936332291923463" class="st6" d="M614.67,190.69c12.42,0,23.67,5.04,31.81,13.19,8.15,8.15,13.19,19.4,13.19,31.81s-5.04,23.67-13.19,31.81c-8.15,8.15-19.4,13.19-31.81,13.19s-23.67-5.04-31.81-13.19c-8.15-8.15-13.19-19.4-13.19-31.81s5.04-23.67,13.19-31.81c8.15-8.15,19.4-13.19,31.81-13.19Z"/>
  <path id="ID0.5207179044373333" class="st6" d="M566.89,208.19c12.42,0,23.67,5.04,31.81,13.19,8.15,8.15,13.19,19.4,13.19,31.81s-5.04,23.67-13.19,31.81c-8.15,8.15-19.4,13.19-31.81,13.19s-23.67-5.04-31.81-13.19c-8.15-8.15-13.19-19.4-13.19-31.81s5.04-23.67,13.19-31.81c8.15-8.15,19.4-13.19,31.81-13.19Z"/>
  <path id="ID0.08924413193017244" class="st4" d="M597.45,234.44c13.26,0,25.27,5.38,33.97,14.08,8.7,8.7,14.08,20.71,14.08,33.97s-5.38,25.27-14.08,33.97c-8.7,8.7-20.71,14.08-33.97,14.08s-25.27-5.38-33.97-14.08c-8.7-8.7-14.08-20.71-14.08-33.97s5.38-25.27,14.08-33.97c8.7-8.7,20.71-14.08,33.97-14.08Z"/>
  <path id="ID0.05480169551447034" class="st4" d="M565.09,218.06c10.69,0,20.38,4.34,27.39,11.36s11.36,16.7,11.36,27.39-4.34,20.38-11.36,27.39c-7.02,7.02-16.7,11.36-27.39,11.36s-20.38-4.34-27.39-11.36c-7.02-7.02-11.36-16.7-11.36-27.39s4.34-20.38,11.36-27.39c7.02-7.02,16.7-11.36,27.39-11.36Z"/>
  <path id="ID0.9014540929347277" class="st4" d="M613.7,194.31c10.69,0,20.38,4.34,27.39,11.36,7.02,7.02,11.36,16.7,11.36,27.39s-4.34,20.38-11.36,27.39c-7.02,7.02-16.7,11.36-27.39,11.36s-20.38-4.34-27.39-11.36c-7.02-7.02-11.36-16.7-11.36-27.39s4.34-20.38,11.36-27.39c7.02-7.02,16.7-11.36,27.39-11.36Z"/>
  <path id="ID0.14225199446082115" class="st7" d="M468.14,253.47c-1.11,0-2.08.42-2.78.97-1.39-1.11-3.06-1.81-5-1.81-2.92,0-5.56,1.67-6.94,4.17-2.08-1.39-4.58-2.08-7.22-2.08h-.14c.28-.83.28-1.81.28-2.78,0-6.67-5.42-12.08-12.08-12.08-1.94,0-3.61.42-5.28,1.25.69-1.39,1.11-3.06,1.11-4.72,0-6.11-5-11.11-11.11-11.11-3.19,0-6.11,1.39-8.19,3.61-2.5-3.89-6.11-6.94-10.42-8.61.14-.69.14-1.25.14-1.94,0-6.25-5-11.25-11.25-11.25-2.36,0-4.58.69-6.39,2.08-1.53-1.25-3.47-2.08-5.56-2.08-.56,0-1.11,0-1.67.14-.83-1.11-2.08-1.94-3.61-1.94-2.36,0-4.31,1.94-4.31,4.31,0,1.25.56,2.5,1.53,3.19-.28.83-.42,1.81-.42,2.78,0,4.72,3.89,8.61,8.61,8.61h.97c-3.61,3.19-6.11,7.5-6.94,12.36-2.36-.83-4.86-1.39-7.5-1.39-4.31,0-8.19,1.25-11.53,3.33-1.39-2.64-4.17-4.58-7.36-4.58-4.58,0-8.19,3.61-8.19,8.19,0,3.89,2.64,7.08,6.25,7.92-.69,2.22-1.25,4.58-1.25,7.08,0,10.14,6.81,18.61,16.11,21.25,0,4.31.97,8.47,2.64,12.22-1.11-.28-2.36-.56-3.61-.56-7.22,0-13.06,5.83-13.06,13.06,0,.83.14,1.67.28,2.5-.97-.56-2.08-.83-3.19-.83-3.61,0-6.53,2.92-6.53,6.53v.42c-.56-.28-1.25-.42-1.94-.42-2.22,0-4.17,1.81-4.17,4.17,0,2.22,1.81,4.17,4.17,4.17,2.08,0,3.75-1.53,4.03-3.47,1.11.97,2.64,1.67,4.31,1.67,3.33,0,6.11-2.5,6.39-5.69,2.36,2.64,5.83,4.31,9.58,4.31,4.17,0,7.78-1.94,10.28-5,3.33,3.47,8.06,5.69,13.33,5.69,4.31,0,8.33-1.53,11.53-4.03,1.94,3.89,5.97,6.53,10.56,6.53,3.06,0,5.97-1.25,8.06-3.19h1.11c3.33,0,6.39-.83,9.03-2.22,1.39,3.19,4.58,5.42,8.33,5.42h.83c0,2.78,1.94,5.14,4.58,5.56-.14.42-.28.97-.28,1.39,0,2.08,1.67,3.89,3.89,3.89,2.08,0,3.89-1.67,3.89-3.89,0-1.39-.83-2.64-1.94-3.33.83-.97,1.39-2.36,1.39-3.75,0-2.5-1.67-4.72-4.03-5.42.42-1.11.69-2.36.69-3.61,0-4.58-3.47-8.33-7.78-9.03v-.14h.56c9.72,0,17.5-7.78,17.5-17.5,0-.69,0-1.39-.14-1.94,6.53-1.11,11.39-6.67,11.39-13.47h.56c3.61,0,6.81-2.5,7.64-5.97h.14c2.5,0,4.44-2.08,4.44-4.44s-1.81-4.44-4.31-4.44Z"/>
  <path id="ID0.3121518758125603" class="st1" d="M452.03,260.69c-12.22,1.67-13.33,5.56-6.81,14.44-10.42-2.22-13.19.56-10.83,10-9.03-5.56-12.92-4.44-13.61,5.42-7.64-9.86-11.53-10.97-15,.83-3.19-15.83-6.11-18.61-16.39-4.17,6.39-21.11,5.28-25-17.5-16.81,22.78-16.53,23.89-20.42,1.39-39.44,26.39,12.22,29.17,9.44,27.08-29.58,8.75,35.14,12.64,34.03,37.22,2.22-16.11,31.81-12.22,32.92,16.53,21.81-22.08,15.14-19.31,17.92,1.11,19.03-16.53,5.69-15.42,9.58-3.19,16.25Z"/>
  <path id="ID0.6310528903268278" class="st5" d="M410.78,268.47c-7.22,5.28-6.53,8.19.69,11.53-7.5,2.22-8.19,5-3.47,10.14-7.64-.28-9.72,1.67-6.81,8.19-8.33-3.61-11.25-2.92-9.17,5.83-7.64-8.89-10.28-9.72-11.81,3.06-3.33-15.69-5.42-17.78-16.94-4.58,8.61-18.47,8.06-21.39-12.92-25.56,20.97-1.39,21.81-4.17,6.81-28.33,17.92,19.31,20,17.22,24.44-11.67.83,25.97,3.75,25.28,18.06,8.06-8.75,17.36-5.97,18.06,7.36,11.67-8.47,9.58-6.39,11.67,3.75,11.67Z"/>
  <path id="ID0.3971853647381067" class="st7" d="M415.78,247.22c-13.75,0-24.86,11.11-24.86,24.86,0,2.92.56,5.83,1.53,8.47-6.81.14-12.36,5.69-12.36,12.5s5.56,12.5,12.5,12.5c6.39,0,11.67-4.86,12.36-11.11,3.19,1.53,6.81,2.36,10.69,2.36,13.75,0,24.86-11.11,24.86-24.86.14-13.61-10.97-24.72-24.72-24.72Z"/>
  <path id="ID0.8121720659546554" class="st4" d="M554.11,409.72c3.64,0,6.94,1.48,9.33,3.87,2.39,2.39,3.87,5.69,3.87,9.33s-1.48,6.94-3.87,9.33c-2.39,2.39-5.69,3.87-9.33,3.87s-6.94-1.48-9.33-3.87c-2.39-2.39-3.87-5.69-3.87-9.33s1.48-6.94,3.87-9.33c2.39-2.39,5.69-3.87,9.33-3.87Z"/>
  <path id="ID0.8213247223757207" class="st4" d="M579.53,471.39c1.03,0,1.97.42,2.65,1.1.68.68,1.1,1.62,1.1,2.65s-.42,1.97-1.1,2.65c-.68.68-1.62,1.1-2.65,1.1s-1.97-.42-2.65-1.1c-.68-.68-1.1-1.62-1.1-2.65s.42-1.97,1.1-2.65c.68-.68,1.62-1.1,2.65-1.1Z"/>
  <path id="ID0.9632094763219357" class="st4" d="M693.42,440.28c2.57,0,4.89,1.04,6.58,2.73,1.68,1.68,2.73,4.01,2.73,6.58s-1.04,4.89-2.73,6.58c-1.68,1.68-4.01,2.73-6.58,2.73s-4.89-1.04-6.58-2.73-2.73-4.01-2.73-6.58,1.04-4.89,2.73-6.58,4.01-2.73,6.58-2.73Z"/>
  <path id="ID0.07984683336690068" class="st4" d="M674.53,468.89c1.73,0,3.29.7,4.42,1.83,1.13,1.13,1.83,2.69,1.83,4.42s-.7,3.29-1.83,4.42c-1.13,1.13-2.69,1.83-4.42,1.83s-3.29-.7-4.42-1.83c-1.13-1.13-1.83-2.69-1.83-4.42s.7-3.29,1.83-4.42c1.13-1.13,2.69-1.83,4.42-1.83Z"/>
  <path id="ID0.5793154072016478" class="st4" d="M527.86,331.39c1.99,0,3.8.81,5.11,2.12,1.31,1.31,2.12,3.11,2.12,5.11s-.81,3.8-2.12,5.11c-1.31,1.31-3.11,2.12-5.11,2.12s-3.8-.81-5.11-2.12c-1.31-1.31-2.12-3.11-2.12-5.11s.81-3.8,2.12-5.11c1.31-1.31,3.11-2.12,5.11-2.12Z"/>
  <path id="ID0.33593614865094423" class="st3" d="M303.98,290.28c.54,0,1.02.22,1.38.57.35.35.57.84.57,1.37s-.22,1.02-.57,1.38c-.35.35-.84.57-1.38.57s-1.02-.22-1.37-.57c-.35-.35-.57-.84-.57-1.38s.22-1.02.57-1.37c.35-.35.84-.57,1.37-.57Z"/>
  <path id="ID0.6699346737004817" class="st3" d="M328.14,274.31c.5,0,.95.2,1.28.53s.53.78.53,1.28-.2.95-.53,1.28-.78.53-1.28.53-.95-.2-1.28-.53-.53-.78-.53-1.28.2-.95.53-1.28.78-.53,1.28-.53Z"/>
  <path id="ID0.3203437211923301" class="st3" d="M304.39,310c.65,0,1.24.26,1.67.69s.69,1.02.69,1.67-.26,1.24-.69,1.67-1.02.69-1.67.69-1.24-.26-1.67-.69-.69-1.02-.69-1.67.26-1.24.69-1.67,1.02-.69,1.67-.69Z"/>
  <path id="ID0.26791799208149314" class="st3" d="M402.03,347.78c1.07,0,2.04.44,2.75,1.14.7.7,1.14,1.68,1.14,2.75s-.44,2.04-1.14,2.75c-.7.7-1.68,1.14-2.75,1.14s-2.04-.44-2.75-1.14-1.14-1.68-1.14-2.75.44-2.04,1.14-2.75c.7-.7,1.68-1.14,2.75-1.14Z"/>
  <path id="ID0.47677477775141597" class="st3" d="M411.48,342.92c.65,0,1.24.26,1.67.69s.69,1.02.69,1.67-.26,1.24-.69,1.67-1.02.69-1.67.69-1.24-.26-1.67-.69-.69-1.02-.69-1.67.26-1.24.69-1.67,1.02-.69,1.67-.69Z"/>
  <path id="ID0.27832819474861026" class="st3" d="M329.67,175.14c.92,0,1.75.37,2.36.98.6.6.98,1.44.98,2.36s-.37,1.75-.98,2.36c-.6.6-1.44.98-2.36.98s-1.75-.37-2.36-.98c-.6-.6-.98-1.44-.98-2.36s.37-1.75.98-2.36c.6-.6,1.44-.98,2.36-.98Z"/>
  <path id="ID0.2611322910524905" class="st3" d="M320.23,185.83c.58,0,1.1.23,1.47.61.38.38.61.9.61,1.47s-.23,1.1-.61,1.47c-.38.38-.9.61-1.47.61s-1.1-.23-1.47-.61c-.38-.38-.61-.9-.61-1.47s.23-1.1.61-1.47c.38-.38.9-.61,1.47-.61Z"/>
  <path id="ID0.6792396423406899" class="st3" d="M336.06,211.67c.42,0,.8.17,1.08.45.28.28.45.66.45,1.08s-.17.8-.45,1.08c-.28.28-.66.45-1.08.45s-.8-.17-1.08-.45c-.28-.28-.45-.66-.45-1.08s.17-.8.45-1.08c.28-.28.66-.45,1.08-.45Z"/>
  <path id="ID0.23240835592150688" class="st4" d="M0,277.92l357.17,12.36L0,330.42v-52.5"/>
  <path id="ID0.10405913181602955" class="st0" d="M648.56,193.89l18.33,17.92,12.22,1.39-32.22-50.42,3.47-10.14-1.67-5.56,8.19-10-1.53-13.06,8.75-4.31,42.08-11.53.56-4.03-39.44,7.78,9.03-22.92,4.44-23.47-7.78,2.08-23.47,41.67,15.56-84.58-14.17.69-49.44,85.42-42.78,16.11-8.61,14.72-33.61,7.92-17.36,13.75,23.61,12.64,26.53-1.67,5,17.5,23.89-.14,10.83,64.31,10.83,1.25,29.72-70.14,6.67,23.47,9.72-3.61,2.64-13.06"/>
  <path id="ID0.27782045491039753" class="st8" d="M277.77,239.77l17.03-19.61,6.61,5.74-17.03,19.61-6.61-5.74Z"/>
  <path id="ID0.266892007086426" class="st8" d="M269.28,253.72l38.25-44.04,2.41,2.09-38.25,44.04-2.41-2.09Z"/>
  <path id="ID0.20265339175239205" class="st8" d="M272.44,230.86l1.91-2.2,7.45,6.47-1.91,2.2-7.45-6.47Z"/>
  <path id="ID0.04143678769469261" class="st8" d="M283.34,218.46l1.91-2.2,7.45,6.47-1.91,2.2-7.45-6.47Z"/>
  <path id="ID0.06674831686541438" class="st8" d="M203.35,241.1l15.02-7.54,2.56,5.09-15.02,7.54-2.56-5.09Z"/>
  <path id="ID0.7180512542836368" class="st8" d="M194.74,247.33l33.76-16.96.94,1.86-33.76,16.96-.94-1.86Z"/>
  <path id="ID0.6829392937943339" class="st8" d="M202.29,234.51l1.74-.87,2.87,5.71-1.74.87-2.87-5.71Z"/>
  <path id="ID0.801380711607635" class="st8" d="M211.86,229.68l1.74-.87,2.87,5.71-1.74.87-2.87-5.71Z"/>
  <path id="ID0.4588846634142101" class="st6" d="M655.36,300.42c17.17,0,32.72,6.97,43.99,18.24,11.26,11.26,18.24,26.82,18.24,43.99s-6.97,32.72-18.24,43.99c-11.26,11.26-26.82,18.24-43.99,18.24s-32.72-6.97-43.99-18.24c-11.26-11.26-18.24-26.82-18.24-43.99s6.97-32.72,18.24-43.99c11.26-11.26,26.82-18.24,43.99-18.24Z"/>
  <path id="ID0.20213431119918823" class="st6" d="M643.28,252.5c13.83,0,26.37,5.62,35.44,14.69,9.08,9.08,14.69,21.61,14.69,35.44s-5.62,26.37-14.69,35.44-21.61,14.69-35.44,14.69-26.37-5.62-35.44-14.69-14.69-21.61-14.69-35.44,5.62-26.37,14.69-35.44c9.08-9.08,21.61-14.69,35.44-14.69Z"/>
  <path id="ID0.5521458359435201" class="st6" d="M604.11,293.47c13.83,0,26.37,5.62,35.44,14.69,9.08,9.08,14.69,21.61,14.69,35.44s-5.62,26.37-14.69,35.44c-9.08,9.08-21.61,14.69-35.44,14.69s-26.37-5.62-35.44-14.69c-9.08-9.08-14.69-21.61-14.69-35.44s5.62-26.37,14.69-35.44c9.08-9.08,21.61-14.69,35.44-14.69Z"/>
  <path id="ID0.5102034984156489" class="st4" d="M649.11,304.31c14.79,0,28.19,6.01,37.9,15.71,9.71,9.71,15.71,23.11,15.71,37.9s-6.01,28.19-15.71,37.9c-9.71,9.71-23.11,15.71-37.9,15.71s-28.19-6.01-37.9-15.71c-9.71-9.71-15.71-23.11-15.71-37.9s6.01-28.19,15.71-37.9c9.71-9.71,23.11-15.71,37.9-15.71Z"/>
  <path id="ID0.06495330715551972" class="st4" d="M604.11,304.86c11.92,0,22.72,4.84,30.53,12.66,7.82,7.82,12.66,18.62,12.66,30.53s-4.84,22.72-12.66,30.53c-7.82,7.82-18.62,12.66-30.53,12.66s-22.72-4.84-30.53-12.66c-7.82-7.82-12.66-18.62-12.66-30.53s4.84-22.72,12.66-30.53c7.82-7.82,18.62-12.66,30.53-12.66Z"/>
  <path id="ID0.5793632636778057" class="st4" d="M641.06,257.22c11.92,0,22.72,4.84,30.53,12.66,7.82,7.82,12.66,18.62,12.66,30.53s-4.84,22.72-12.66,30.53c-7.82,7.82-18.62,12.66-30.53,12.66s-22.72-4.84-30.53-12.66c-7.82-7.82-12.66-18.62-12.66-30.53s4.84-22.72,12.66-30.53,18.62-12.66,30.53-12.66Z"/>
</svg>