<?xml version="1.0" encoding="UTF-8"?>
<svg id="_レイヤー_1" data-name="レイヤー_1" xmlns="http://www.w3.org/2000/svg" version="1.1" viewBox="0 0 800 500">
  <!-- Generator: Adobe Illustrator 30.1.0, SVG Export Plug-In . SVG Version: 2.1.1 Build 136)  -->
  <defs>
    <style>
      .st0, .st1 {
        fill: none;
      }

      .st2 {
        fill: #d0a142;
      }

      .st3 {
        fill: #95752c;
      }

      .st4 {
        fill: #bb8d52;
      }

      .st5 {
        fill: #cea83e;
      }

      .st1 {
        stroke: #b69043;
        stroke-miterlimit: 10;
      }

      .st6 {
        fill: #fff;
      }

      .st7 {
        fill: #b69043;
      }

      .st8 {
        fill: #6c5028;
      }

      .st9 {
        fill: #4f89c7;
      }

      .st10 {
        fill: #2b64ae;
      }

      .st11 {
        fill: #f5dfaf;
      }
    </style>
  </defs>
  <rect class="st10" width="800" height="500"/>
  <g>
    <circle class="st6" cx="259.99" cy="67.98" r="34.69"/>
    <circle class="st6" cx="244.57" cy="128.43" r="24.38"/>
    <circle class="st6" cx="318.09" cy="74.38" r="37.17"/>
    <circle class="st6" cx="294.52" cy="109.03" r="34.69"/>
    <circle class="st6" cx="231.61" cy="113.94" r="31.07" transform="translate(82.04 324.3) rotate(-80.78)"/>
  </g>
  <circle class="st6" cx="448.48" cy="115.03" r="21.93"/>
  <circle class="st6" cx="448.46" cy="153.24" r="15.41"/>
  <circle class="st6" cx="485.22" cy="119.08" r="23.5"/>
  <circle class="st6" cx="470.31" cy="140.98" r="21.93"/>
  <circle class="st6" cx="430.54" cy="144.09" r="19.64" transform="translate(219.35 545.98) rotate(-80.78)"/>
  <g>
    <rect class="st8" x="565.22" y="194.53" width="86.43" height="2.78" transform="translate(349.29 780.24) rotate(-83.93)"/>
    <polygon class="st5" points="626.08 231.15 583.76 226.65 586.3 211.09 626.87 215.41 626.08 231.15"/>
    <rect class="st8" x="605.88" y="191.36" width="1.43" height="43.76" transform="translate(330.43 793.89) rotate(-83.93)"/>
    <polygon class="st5" points="628.86 238.15 579.57 232.91 581.1 228.21 628.35 233.23 628.86 238.15"/>
    <polygon class="st5" points="624.89 211.85 588.98 208.03 594.39 182.18 625.04 185.43 624.89 211.85"/>
    <rect class="st8" x="609.01" y="167.02" width="1.43" height="33.56" transform="translate(362.51 770.67) rotate(-83.93)"/>
    <polygon class="st5" points="622.54 181.68 597.62 179.03 601.44 160.51 622.7 162.77 622.54 181.68"/>
    <rect class="st8" x="611.58" y="149.99" width=".99" height="23.29" transform="translate(386.65 753.2) rotate(-83.93)"/>
    <rect class="st8" x="604.02" y="205.36" width="1.43" height="50.71" transform="translate(311.39 807.67) rotate(-83.93)"/>
    <g>
      <path class="st4" d="M588.28,236.06s-3.23,13.77-.1,16.53,13.42,7.6,13.42,7.6l3-28.21-16.31,4.07Z"/>
      <path class="st8" d="M619.68,239.4s.26,14.14-3.37,16.18c-3.64,2.04-14.72,4.61-14.72,4.61l3-28.21,15.09,7.41Z"/>
      <line class="st0" x1="601.59" y1="260.2" x2="604.59" y2="231.99"/>
      <path class="st4" d="M588.28,236.06s-3.23,13.77-.1,16.53"/>
      <line class="st0" x1="601.59" y1="260.2" x2="604.59" y2="231.99"/>
      <path class="st8" d="M619.68,239.4s.26,14.14-3.37,16.18"/>
    </g>
    <rect class="st4" x="589.74" y="250.9" width="1" height="20.48" transform="translate(268.17 820.46) rotate(-83.93)"/>
    <rect class="st4" x="612.01" y="253.26" width="1" height="20.48" transform="translate(285.74 844.73) rotate(-83.93)"/>
    <rect class="st8" x="601.16" y="228.85" width="9.04" height="1.66" transform="translate(313.26 807.69) rotate(-83.93)"/>
    <rect class="st4" x="599.51" y="228.67" width="9.04" height="1.66" transform="translate(311.96 805.89) rotate(-83.93)"/>
  </g>
  <g>
    <rect class="st8" x="635.18" y="186.16" width="86.43" height="2.78" transform="translate(420.19 842.32) rotate(-83.93)"/>
    <polygon class="st5" points="696.04 222.78 653.72 218.28 656.26 202.72 696.83 207.03 696.04 222.78"/>
    <rect class="st8" x="675.84" y="182.99" width="1.43" height="43.76" transform="translate(401.32 855.98) rotate(-83.93)"/>
    <polygon class="st5" points="698.82 229.78 649.53 224.54 651.07 219.84 698.31 224.86 698.82 229.78"/>
    <polygon class="st5" points="694.85 203.48 658.94 199.66 664.35 173.81 695 177.06 694.85 203.48"/>
    <rect class="st8" x="678.97" y="158.64" width="1.43" height="33.56" transform="translate(433.4 832.76) rotate(-83.93)"/>
    <polygon class="st5" points="692.5 173.31 667.58 170.66 671.4 152.14 692.67 154.4 692.5 173.31"/>
    <rect class="st8" x="681.54" y="141.62" width=".99" height="23.29" transform="translate(457.54 815.28) rotate(-83.93)"/>
    <rect class="st8" x="673.98" y="196.99" width="1.43" height="50.71" transform="translate(382.28 869.76) rotate(-83.93)"/>
    <g>
      <path class="st4" d="M658.24,227.69s-3.23,13.77-.1,16.53,13.42,7.6,13.42,7.6l3-28.21-16.31,4.07Z"/>
      <path class="st8" d="M689.65,231.03s.26,14.14-3.37,16.18c-3.64,2.04-14.72,4.61-14.72,4.61l3-28.21,15.09,7.41Z"/>
      <line class="st0" x1="671.55" y1="251.82" x2="674.55" y2="223.62"/>
      <path class="st4" d="M658.24,227.69s-3.23,13.77-.1,16.53"/>
      <line class="st0" x1="671.55" y1="251.82" x2="674.55" y2="223.62"/>
      <path class="st8" d="M689.65,231.03s.26,14.14-3.37,16.18"/>
    </g>
    <rect class="st4" x="659.7" y="242.52" width="1" height="20.48" transform="translate(339.07 882.54) rotate(-83.93)"/>
    <rect class="st4" x="681.98" y="244.89" width="1" height="20.48" transform="translate(356.64 906.81) rotate(-83.93)"/>
    <rect class="st8" x="671.12" y="220.48" width="9.04" height="1.66" transform="translate(384.16 869.77) rotate(-83.93)"/>
    <rect class="st4" x="669.47" y="220.3" width="9.04" height="1.66" transform="translate(382.86 867.97) rotate(-83.93)"/>
  </g>
  <g>
    <rect class="st8" x="493.68" y="221.11" width="86.43" height="2.78" transform="translate(258.89 732.87) rotate(-83.93)"/>
    <polygon class="st5" points="554.54 257.72 512.22 253.23 514.76 237.67 555.33 241.98 554.54 257.72"/>
    <rect class="st8" x="534.34" y="217.94" width="1.43" height="43.76" transform="translate(240.02 746.52) rotate(-83.93)"/>
    <polygon class="st5" points="557.32 264.73 508.03 259.49 509.57 254.79 556.81 259.81 557.32 264.73"/>
    <polygon class="st5" points="553.35 238.43 517.44 234.61 522.85 208.75 553.5 212.01 553.35 238.43"/>
    <rect class="st8" x="537.47" y="193.59" width="1.43" height="33.56" transform="translate(272.1 723.31) rotate(-83.93)"/>
    <polygon class="st5" points="551 208.26 526.08 205.61 529.9 187.09 551.17 189.35 551 208.26"/>
    <rect class="st8" x="540.04" y="176.57" width=".99" height="23.29" transform="translate(296.25 705.83) rotate(-83.93)"/>
    <rect class="st8" x="532.48" y="231.94" width="1.43" height="50.71" transform="translate(220.99 760.3) rotate(-83.93)"/>
    <g>
      <path class="st4" d="M516.74,262.64s-3.23,13.77-.1,16.53,13.42,7.6,13.42,7.6l3-28.21-16.31,4.07Z"/>
      <path class="st8" d="M548.15,265.98s.26,14.14-3.37,16.18c-3.64,2.04-14.72,4.61-14.72,4.61l3-28.21,15.09,7.41Z"/>
      <line class="st0" x1="530.05" y1="286.77" x2="533.05" y2="258.57"/>
      <path class="st4" d="M516.74,262.64s-3.23,13.77-.1,16.53"/>
      <line class="st0" x1="530.05" y1="286.77" x2="533.05" y2="258.57"/>
      <path class="st8" d="M548.15,265.98s.26,14.14-3.37,16.18"/>
    </g>
    <rect class="st4" x="518.2" y="277.48" width="1" height="20.48" transform="translate(177.77 773.09) rotate(-83.93)"/>
    <rect class="st4" x="540.48" y="279.84" width="1" height="20.48" transform="translate(195.34 797.36) rotate(-83.93)"/>
    <rect class="st8" x="529.62" y="255.43" width="9.04" height="1.66" transform="translate(222.86 760.32) rotate(-83.93)"/>
    <rect class="st4" x="527.97" y="255.25" width="9.04" height="1.66" transform="translate(221.56 758.52) rotate(-83.93)"/>
  </g>
  <polygon class="st9" points="800 500 0 500 0 415.85 800 211.48 800 500"/>
  <g>
    <rect class="st8" x="204.52" y="3.94" width="10.31" height="320.46" transform="translate(-56.6 168.22) rotate(-38.93)"/>
    <polygon class="st11" points="348.28 210.2 225.52 309.37 191.4 261.92 309.07 166.87 348.28 210.2"/>
    <rect class="st8" x="169.12" y="211.75" width="162.24" height="5.29" transform="translate(-79.14 204.87) rotate(-38.93)"/>
    <polygon class="st11" points="373.93 221.27 230.96 336.77 222.66 320.43 359.7 209.73 373.93 221.27"/>
    <polygon class="st11" points="294.57 162.73 190.41 246.88 136.81 164.89 225.69 93.09 294.57 162.73"/>
    <rect class="st8" x="119.04" y="126.35" width="124.43" height="5.29" transform="translate(-40.8 142.55) rotate(-38.93)"/>
    <polygon class="st11" points="209.3 89.79 137.02 148.18 98.48 89.63 160.16 39.8 209.3 89.79"/>
    <rect class="st8" x="86.15" y="62.88" width="86.35" height="3.67" transform="translate(-11.94 95.64) rotate(-38.93)"/>
    <rect class="st8" x="197.18" y="262.44" width="188.01" height="5.29" transform="translate(-101.9 241.85) rotate(-38.93)"/>
    <g>
      <path class="st4" d="M262.05,322.2s27.64,44.58,43.07,43.61c15.43-.96,55.11-15.25,55.11-15.25l-66.09-81.82-32.09,53.45Z"/>
      <path class="st8" d="M353.15,248.61s37.77,36.4,33.58,51.28c-4.18,14.88-26.49,50.67-26.49,50.67l-66.09-81.82,59-20.14Z"/>
      <line class="st0" x1="360.24" y1="350.57" x2="294.14" y2="268.75"/>
      <path class="st4" d="M262.05,322.2s27.64,44.58,43.07,43.61"/>
      <line class="st0" x1="360.24" y1="350.57" x2="294.14" y2="268.75"/>
      <path class="st8" d="M353.15,248.61s37.77,36.4,33.58,51.28"/>
    </g>
    <rect class="st4" x="294.96" y="381" width="75.93" height="3.69" transform="translate(-166.63 294.24) rotate(-38.93)"/>
    <rect class="st4" x="359.58" y="328.8" width="75.93" height="3.69" transform="translate(-119.48 323.25) rotate(-38.93)"/>
    <rect class="st8" x="287.87" y="243.13" width="6.15" height="33.52" transform="translate(-98.69 240.55) rotate(-38.93)"/>
    <rect class="st4" x="283.09" y="247" width="6.15" height="33.52" transform="translate(-102.18 238.41) rotate(-38.93)"/>
    <path class="st3" d="M214.23,153.76c-.98.79-1.94,1.02-2.87.68-.64-.25-1.66-1.02-3.04-2.33-1.07,1.42-2.63,3.72-4.68,6.88-1.95,3.47-2.26,6.05-.92,7.75.7-.24,1.34-.52,1.93-.85,4.71-2.59,8.58-4.05,11.62-4.38,4.43-.48,8.09,1.07,10.96,4.62,2.36,2.92,2.87,6.13,1.55,9.66-1.11,2.91-3.27,5.65-6.47,8.24-2.34,1.89-4.9,3.31-7.66,4.24-3.56,1.22-6.07.94-7.51-.85-.58-.72-.8-1.57-.67-2.56.13-.99.55-1.78,1.27-2.35.55-.45,1.62-.6,3.19-.45.76.07,2-.38,3.72-1.32,1.37-.75,2.47-1.46,3.29-2.13,1.5-1.21,2.68-2.46,3.54-3.74,1.24-1.86,1.41-3.36.5-4.48-1.97-2.43-4.99-2.71-9.08-.82l-3.29,1.64c-2.8,1.4-4.98,2.16-6.54,2.27-2.26.17-4.2-.76-5.83-2.78-3.02-3.74-3.41-7.83-1.17-12.26.68-1.35,1.93-3.31,3.75-5.89,1.82-2.58,3.05-4.51,3.69-5.8.47-.91,1.14-1.72,2-2.41.77-.62,1.6-.88,2.5-.78.9.1,1.67.56,2.32,1.36.42.52,1.14,1.19,2.18,2.01,1.03.82,1.76,1.49,2.18,2.01.65.8.93,1.66.84,2.55-.09.9-.51,1.66-1.28,2.28Z"/>
  </g>
  <circle class="st6" cx="255.21" cy="403.05" r="24.42" transform="translate(-164.91 629.05) rotate(-85.93)"/>
  <circle class="st6" cx="328.82" cy="433.76" r="15.35"/>
  <circle class="st6" cx="388.2" cy="414.84" r="20.59"/>
  <circle class="st6" cx="463.17" cy="464.12" r="15.02"/>
  <circle class="st6" cx="447.53" cy="345.77" r="15.64"/>
  <g>
    <line class="st1" x1="505.33" y1="63.06" x2="525.63" y2="79.51"/>
    <line class="st1" x1="508.33" y1="61.31" x2="528.63" y2="77.76"/>
    <line class="st1" x1="511.33" y1="59.57" x2="531.63" y2="76.02"/>
    <line class="st1" x1="533.36" y1="46.75" x2="537.62" y2="72.53"/>
    <line class="st1" x1="530.36" y1="48.5" x2="534.62" y2="74.28"/>
    <line class="st1" x1="527.36" y1="50.24" x2="531.62" y2="76.03"/>
    <g>
      <path class="st3" d="M533.4,46.73c3.9,6.71,1.37,16.81-6.38,21.32-7.75,4.51-17.78,1.72-21.68-4.99-3.9-6.71-.2-14.81,7.55-19.32s16.62-3.72,20.52,2.99Z"/>
      <path class="st7" d="M525.39,51.39c3.9,6.71,4.95,14.73,1.62,16.66s-9.78-2.93-13.68-9.65-3.79-12.72-.46-14.66c3.33-1.94,8.61.93,12.52,7.64Z"/>
    </g>
    <g>
      <path class="st2" d="M527.01,68.05c-7.75,4.51-17.78,1.72-21.68-4.99-3.9-6.71-.2-14.81,7.55-19.32"/>
      <path class="st7" d="M525.39,51.39c3.9,6.71,4.95,14.73,1.62,16.66s-9.78-2.93-13.68-9.65-3.79-12.72-.46-14.66c3.33-1.94,8.61.93,12.52,7.64Z"/>
    </g>
    <g>
      <path class="st4" d="M524.99,78.95s2.54,5.96,4.44,6.13,7.01-.83,7.01-.83l-6.53-11.22-4.92,5.92Z"/>
      <path class="st8" d="M537.49,71.68s3.92,5.15,3.13,6.89c-.79,1.74-4.18,5.68-4.18,5.68l-6.53-11.22,7.58-1.35Z"/>
      <line class="st0" x1="536.44" y1="84.26" x2="529.91" y2="73.03"/>
      <path class="st4" d="M524.99,78.95s2.54,5.96,4.44,6.13"/>
      <line class="st0" x1="536.44" y1="84.26" x2="529.91" y2="73.03"/>
      <path class="st8" d="M537.49,71.68s3.92,5.15,3.13,6.89"/>
    </g>
    <rect class="st4" x="530" y="86.84" width="7.1" height=".46" transform="translate(28.55 280.03) rotate(-30.18)"/>
    <rect class="st4" x="536.72" y="82.94" width="7.1" height=".46" transform="translate(31.42 282.88) rotate(-30.18)"/>
    <rect class="st8" x="529.29" y="69.84" width=".76" height="4.14" transform="translate(35.65 276.03) rotate(-30.18)"/>
    <rect class="st4" x="528.63" y="70.22" width=".76" height="4.14" transform="translate(35.37 275.75) rotate(-30.18)"/>
  </g>
  <g>
    <line class="st1" x1="599.4" y1="82.69" x2="619.7" y2="99.14"/>
    <line class="st1" x1="602.4" y1="80.94" x2="622.7" y2="97.39"/>
    <line class="st1" x1="605.4" y1="79.19" x2="625.7" y2="95.64"/>
    <line class="st1" x1="627.43" y1="66.38" x2="631.69" y2="92.17"/>
    <line class="st1" x1="624.43" y1="68.13" x2="628.69" y2="93.91"/>
    <line class="st1" x1="621.43" y1="69.88" x2="625.69" y2="95.66"/>
    <g>
      <path class="st3" d="M627.47,66.36c3.9,6.71,1.37,16.81-6.38,21.32-7.75,4.51-17.78,1.72-21.68-4.99-3.9-6.71-.2-14.81,7.55-19.32s16.62-3.72,20.52,2.99Z"/>
      <path class="st7" d="M619.46,71.02c3.9,6.71,4.95,14.73,1.62,16.66-3.33,1.94-9.78-2.93-13.68-9.65s-3.79-12.72-.46-14.66,8.61.93,12.52,7.64Z"/>
    </g>
    <g>
      <path class="st2" d="M621.08,87.68c-7.75,4.51-17.78,1.72-21.68-4.99s-.2-14.81,7.55-19.32"/>
      <path class="st7" d="M619.46,71.02c3.9,6.71,4.95,14.73,1.62,16.66-3.33,1.94-9.78-2.93-13.68-9.65s-3.79-12.72-.46-14.66,8.61.93,12.52,7.64Z"/>
    </g>
    <g>
      <path class="st4" d="M619.06,98.58s2.54,5.96,4.44,6.13,7.01-.83,7.01-.83l-6.53-11.22-4.92,5.92Z"/>
      <path class="st8" d="M631.56,91.31s3.92,5.15,3.13,6.89c-.79,1.74-4.18,5.68-4.18,5.68l-6.53-11.22,7.58-1.35Z"/>
      <line class="st0" x1="630.51" y1="103.88" x2="623.98" y2="92.66"/>
      <path class="st4" d="M619.06,98.58s2.54,5.96,4.44,6.13"/>
      <line class="st0" x1="630.51" y1="103.88" x2="623.98" y2="92.66"/>
      <path class="st8" d="M631.56,91.31s3.92,5.15,3.13,6.89"/>
    </g>
    <rect class="st4" x="624.07" y="106.48" width="7.1" height=".46" transform="translate(31.43 329.99) rotate(-30.18)"/>
    <rect class="st4" x="630.78" y="102.57" width="7.1" height=".46" transform="translate(34.31 332.83) rotate(-30.18)"/>
    <rect class="st8" x="623.35" y="89.48" width=".76" height="4.14" transform="translate(38.53 325.98) rotate(-30.18)"/>
    <rect class="st4" x="622.7" y="89.86" width=".76" height="4.14" transform="translate(38.25 325.7) rotate(-30.18)"/>
  </g>
</svg>