<?xml version="1.0" encoding="UTF-8"?>
<svg id="_レイヤー_1" data-name="レイヤー_1" xmlns="http://www.w3.org/2000/svg" version="1.1" viewBox="0 0 800 500">
  <!-- Generator: Adobe Illustrator 30.1.0, SVG Export Plug-In . SVG Version: 2.1.1 Build 136)  -->
  <defs>
    <style>
      .st0 {
        fill: #7be0fc;
      }

      .st1 {
        fill: #1a8f5a;
      }

      .st2 {
        fill: #94e6fb;
      }

      .st3 {
        stroke: #256ab4;
      }

      .st3, .st4 {
        stroke-linejoin: round;
        stroke-width: 4px;
      }

      .st3, .st4, .st5, .st6 {
        fill: none;
        stroke-linecap: round;
      }

      .st7 {
        fill: #453126;
      }

      .st8 {
        fill: #479947;
      }

      .st9 {
        fill: #54b252;
      }

      .st10 {
        fill: #54af50;
      }

      .st11 {
        fill: #77abda;
      }

      .st12 {
        fill: #24ae9e;
      }

      .st4 {
        stroke: #3a88ce;
      }

      .st13 {
        fill: #fff;
      }

      .st5 {
        stroke: #6992a6;
        stroke-width: 2px;
      }

      .st5, .st6 {
        stroke-miterlimit: 10;
      }

      .st6 {
        stroke: #2d662d;
        stroke-width: 3px;
      }

      .st14 {
        fill: #f9ffdd;
      }

      .st15 {
        fill: #6fce70;
      }

      .st16 {
        fill: #c43d1d;
      }

      .st17 {
        fill: #01a894;
      }

      .st18 {
        fill: #a6c8e4;
      }
    </style>
  </defs>
  <rect class="st2" y="167.44" width="800" height="302.79"/>
  <rect class="st0" width="800" height="311.59"/>
  <rect class="st18" x="358.44" y="138.14" width="96.28" height="278.1"/>
  <rect class="st11" x="433.79" y="138.14" width="20.93" height="278.1"/>
  <polyline class="st12" points="566.49 404.66 650.91 318.84 735.05 404.38"/>
  <polyline class="st12" points="459.19 404.66 555.61 295.82 651.75 404.38"/>
  <polyline class="st17" points="555.61 295.82 555.61 396.28 644.63 396.28"/>
  <polyline class="st17" points="650.91 318.84 650.91 389.59 719.43 389.03"/>
  <rect class="st18" x="428.21" y="206.93" width="96.28" height="209.31"/>
  <rect class="st11" x="503.56" y="206.93" width="20.93" height="209.31"/>
  <rect class="st18" x="200.07" y="329.17" width="96.28" height="87.07"/>
  <rect class="st11" x="275.42" y="329.17" width="20.93" height="87.07"/>
  <rect class="st8" y="474.43" width="800" height="27.91"/>
  <rect class="st10" y="440.94" width="800" height="33.49"/>
  <rect class="st1" y="404.66" width="800" height="23.3"/>
  <rect class="st14" y="427.96" width="800" height="12.98"/>
  <circle class="st1" cx="668.22" cy="399.08" r="20.93"/>
  <circle class="st1" cx="635.01" cy="391.54" r="28.47"/>
  <circle class="st1" cx="717.05" cy="404.66" r="20.93"/>
  <circle class="st1" cx="89.14" cy="404.66" r="20.93"/>
  <circle class="st1" cx="680.63" cy="391.54" r="28.47"/>
  <circle class="st1" cx="597.89" cy="399.08" r="20.93"/>
  <circle class="st1" cx="572.49" cy="402.98" r="17.02"/>
  <circle class="st1" cx="544.03" cy="397.54" r="22.47"/>
  <circle class="st1" cx="506.21" cy="399.08" r="20.93"/>
  <circle class="st1" cx="787.89" cy="404.08" r="20.93"/>
  <circle class="st1" cx="751.21" cy="402.08" r="20.93"/>
  <circle class="st1" cx="473" cy="391.54" r="28.47"/>
  <circle class="st1" cx="366.96" cy="402.98" r="17.02"/>
  <circle class="st1" cx="338.35" cy="397.54" r="22.47"/>
  <circle class="st1" cx="244.02" cy="398.52" r="21.49"/>
  <circle class="st1" cx="274.58" cy="403.96" r="16.05"/>
  <circle class="st1" cx="303.88" cy="403.96" r="16.05"/>
  <circle class="st1" cx="4.02" cy="398.52" r="21.49"/>
  <circle class="st1" cx="34.58" cy="403.96" r="16.05"/>
  <circle class="st1" cx="63.88" cy="403.96" r="16.05"/>
  <circle class="st1" cx="436.03" cy="399.08" r="20.93"/>
  <circle class="st1" cx="398.07" cy="397.54" r="22.47"/>
  <circle class="st1" cx="201.05" cy="391.54" r="28.47"/>
  <circle class="st1" cx="164.07" cy="399.08" r="20.93"/>
  <circle class="st1" cx="126.11" cy="397.54" r="22.47" transform="translate(-275.4 510.36) rotate(-88.09)"/>
  <line class="st3" x1="347.42" y1="260.38" x2="457.79" y2="457.82"/>
  <line class="st4" x1="347.42" y1="260.38" x2="228.39" y2="457.82"/>
  <line class="st6" x1="229.51" y1="460.61" x2="270.81" y2="502.33"/>
  <line class="st6" x1="459.47" y1="460.61" x2="500.77" y2="502.33"/>
  <line class="st5" x1="347.42" y1="263.31" x2="347.42" y2="437.31"/>
  <rect class="st16" x="329.28" y="435.08" width="36.98" height="4.47"/>
  <path class="st15" d="M640.31,419.45c-16.6,0-30-13.4-30-30s13.4-30,30-30"/>
  <path class="st9" d="M640.31,419.45c16.6,0,30-13.4,30-30s-13.4-30-30-30"/>
  <rect class="st7" x="636.68" y="399.91" width="7.26" height="27.91"/>
  <path class="st15" d="M143.14,419.45c-16.6,0-30-13.4-30-30s13.4-30,30-30"/>
  <path class="st9" d="M143.14,419.45c16.6,0,30-13.4,30-30s-13.4-30-30-30"/>
  <rect class="st7" x="139.51" y="399.91" width="7.26" height="27.91"/>
  <path class="st15" d="M548.21,419.45c-16.6,0-30-13.4-30-30s13.4-30,30-30"/>
  <path class="st9" d="M548.21,419.45c16.6,0,30-13.4,30-30s-13.4-30-30-30"/>
  <rect class="st7" x="544.59" y="399.91" width="7.26" height="27.91"/>
  <path class="st13" d="M667.66,180.98c-2.79,0-5.44.7-7.67,1.81-3.91-6.7-11.3-11.16-19.54-11.16-.98,0-1.95.14-2.93.28-5.3-7.95-14.23-13.26-24.56-13.26-15.35,0-27.91,11.72-29.16,26.79-.98-.14-1.95-.28-2.93-.28-8.23,0-14.93,6.14-15.91,14.09h120.84c-.14-10.19-8.23-18.28-18.14-18.28Z"/>
  <path class="st13" d="M279.74,119.86c-3.77,0-7.4.84-10.47,2.37-5.44-9.21-15.35-15.35-26.79-15.35-1.4,0-2.65.14-4.05.28-7.12-10.88-19.4-18.14-33.49-18.14-20.93,0-38.09,16.05-39.77,36.56-1.26-.28-2.65-.42-3.91-.42-11.16,0-20.37,8.37-21.77,19.12h164.93c0-13.4-11.16-24.42-24.7-24.42Z"/>
</svg>