<?xml version="1.0" encoding="UTF-8"?>
<svg id="_レイヤー_1" data-name="レイヤー_1" xmlns="http://www.w3.org/2000/svg" version="1.1" viewBox="0 0 800 500">
  <!-- Generator: Adobe Illustrator 30.1.0, SVG Export Plug-In . SVG Version: 2.1.1 Build 136)  -->
  <defs>
    <style>
      .st0 {
        fill: #77ab56;
      }

      .st1 {
        fill: #d3d8bd;
      }

      .st2 {
        fill: #efbd34;
      }

      .st3 {
        fill: #546c44;
      }

      .st4 {
        fill: #080103;
      }

      .st5 {
        fill: #5a8d37;
      }

      .st6 {
        fill: #fff;
      }

      .st7 {
        fill: #e7edd2;
      }

      .st8 {
        fill: #583216;
      }

      .st9 {
        fill: #aa8e48;
      }

      .st10 {
        fill: #abb099;
      }

      .st11 {
        fill: #aebd4f;
      }
    </style>
  </defs>
  <rect class="st7" x="68.62" width="731.38" height="499.86"/>
  <rect class="st11" width="405.84" height="499.86"/>
  <rect class="st10" x="480.23" y="289.55" width="319.77" height="175.53"/>
  <g>
    <path class="st9" d="M512.24,464.95c18.01,0,32.7-14.69,32.7-32.7v-110c0-18.01-14.69-32.7-32.7-32.7h-8.59v175.53h8.59v-.14Z"/>
    <path class="st2" d="M462.5,322.25v110c0,18.01,14.69,32.7,32.7,32.7h8.31v-175.39h-8.31c-18.01,0-32.7,14.69-32.7,32.7Z"/>
    <path id="ID0.2783210715278983" class="st4" d="M529.28,368.52l9.42-18.01v65.11h-9.42v-47.1"/>
    <path id="ID0.1127717923372984" class="st4" d="M478.57,368.52l-9.42-18.01v65.11h9.42v-47.1"/>
    <path id="ID0.11042927904054523" class="st4" d="M469.15,339.98h69.69l-11.22,26.46h-47.24l-11.22-26.46"/>
    <path id="ID0.04779583914205432" class="st4" d="M488.96,445.97h29.51l20.37-21.47h-69.69l19.81,21.47"/>
    <path id="ID0.8961320458911359" class="st4" d="M490.62,289.55h25.91c1.25,0,2.22,1.11,2.22,2.22h0c0,1.25-1.11,2.22-2.22,2.22h-25.91c-1.25,0-2.22-1.11-2.22-2.22h0c0-1.39.83-2.22,2.22-2.22Z"/>
    <path id="ID0.9723921809345484" class="st4" d="M525.95,300.91c-1.8-.97-3.33-2.22-4.29-3.33s-1.39-2.22-.97-2.91,1.52-.97,2.91-.69c1.52.14,3.33.83,5.13,1.8s3.33,2.22,4.29,3.33c.97,1.11,1.39,2.22.97,2.91s-1.52.97-2.91.69c-1.39-.14-3.19-.83-5.13-1.8Z"/>
    <path id="ID0.7810433045960963" class="st4" d="M477.6,295.79c1.8-.97,3.6-1.66,5.13-1.8s2.49,0,2.91.69c.42.69,0,1.8-.97,2.91s-2.49,2.36-4.29,3.33c-1.8.97-3.6,1.66-5.13,1.8s-2.49,0-2.91-.69c-.42-.69,0-1.8.97-2.91.97-1.11,2.49-2.36,4.29-3.33Z"/>
    <path id="ID0.430691946297884" class="st4" d="M538.7,351.21c0-1.8,1.39-3.33,3.33-3.33h6.51c1.8,0,3.33,1.39,3.33,3.33h0c0,1.8-1.39,3.33-3.33,3.33h-6.51c-1.8,0-3.33-1.52-3.33-3.33h0Z"/>
    <path id="ID0.38434313191100955" class="st4" d="M455.99,351.21c0-1.8,1.39-3.33,3.33-3.33h6.51c1.8,0,3.33,1.39,3.33,3.33h0c0,1.8-1.39,3.33-3.33,3.33h-6.51c-1.94,0-3.33-1.52-3.33-3.33h0Z"/>
    <path id="ID0.5946205109357834" class="st4" d="M495.47,457.05c0-.83.69-1.25,1.25-1.25h14.55c.83,0,1.25.69,1.25,1.25h0c0,.83-.69,1.25-1.25,1.25h-14.55c-.69.14-1.25-.55-1.25-1.25h0Z"/>
    <path id="ID0.07256953371688724" class="st4" d="M530.39,457.33c-1.52,1.11-3.05,1.94-4.29,2.36-1.25.42-2.08.55-2.49,0-.28-.42,0-1.25.83-2.36.83-.97,2.08-2.22,3.6-3.33s3.05-1.94,4.29-2.36c1.25-.42,2.08-.55,2.49,0,.28.42,0,1.25-.83,2.36-.83.97-2.08,2.22-3.6,3.33Z"/>
    <path id="ID0.6484085442498326" class="st4" d="M479.54,454.28c1.52,1.11,2.77,2.36,3.6,3.33.83.97,1.11,1.8.83,2.36-.28.42-1.25.42-2.49,0s-2.77-1.25-4.29-2.36c-1.52-1.11-2.77-2.36-3.6-3.33-.83-.97-1.11-1.8-.83-2.36.28-.42,1.25-.42,2.49,0,1.39.42,2.77,1.25,4.29,2.36Z"/>
  </g>
  <g>
    <rect class="st3" x="228.09" y="151.15" width="150.6" height="10.81"/>
    <rect class="st3" x="119.19" y="305.07" width="150.6" height="10.81"/>
    <rect class="st3" x="255.24" y="410.5" width="150.6" height="10.81"/>
    <g>
      <g>
        <rect class="st8" x="228.09" y="115.82" width="13.85" height="46.27"/>
        <path class="st0" d="M235.01,129.68c-26.46,0-47.8-21.47-47.8-47.8s21.47-47.8,47.8-47.8"/>
        <path class="st5" d="M235.01,33.94c26.46,0,47.8,21.47,47.8,47.8s-21.47,47.8-47.8,47.8"/>
      </g>
      <g>
        <rect class="st8" x="119.19" y="269.6" width="13.85" height="46.27"/>
        <path class="st0" d="M126.26,283.46c-26.46,0-47.8-21.47-47.8-47.8s21.47-47.8,47.8-47.8"/>
        <path class="st5" d="M126.26,187.73c26.46,0,47.8,21.47,47.8,47.8s-21.47,47.8-47.8,47.8"/>
      </g>
      <g>
        <rect class="st8" x="255.24" y="375.03" width="13.85" height="46.27"/>
        <path class="st0" d="M262.17,388.89c-26.46,0-47.8-21.47-47.8-47.8s21.47-47.8,47.8-47.8"/>
        <path class="st5" d="M262.17,293.16c26.46,0,47.8,21.47,47.8,47.8s-21.47,47.8-47.8,47.8"/>
      </g>
    </g>
  </g>
  <rect class="st6" x="670.45" y="1.11" width="17.04" height="165.28"/>
  <rect class="st6" x="670.45" y="330.98" width="17.04" height="169.02"/>
  <rect class="st1" x="670.45" y="330.98" width="17.04" height="133.97"/>
</svg>