<?xml version="1.0" encoding="UTF-8"?>
<svg id="_レイヤー_1" data-name="レイヤー_1" xmlns="http://www.w3.org/2000/svg" version="1.1" viewBox="0 0 800 250">
  <!-- Generator: Adobe Illustrator 30.1.0, SVG Export Plug-In . SVG Version: 2.1.1 Build 136)  -->
  <defs>
    <style>
      .st0 {
        fill: #fffbe9;
      }

      .st1 {
        fill: #efa154;
      }

      .st2 {
        fill: #dc3a2e;
      }

      .st3 {
        fill: #fffa3b;
      }

      .st4 {
        fill: #2c2917;
      }

      .st5 {
        fill: none;
        stroke: #000;
        stroke-linecap: round;
        stroke-linejoin: round;
      }

      .st6 {
        fill: #f7595e;
      }

      .st7 {
        fill: #df4836;
      }

      .st8 {
        fill: #e15249;
      }

      .st9 {
        fill: #5d703e;
      }

      .st10 {
        fill: #57434a;
      }

      .st11 {
        fill: #453f47;
      }

      .st12 {
        fill: #4e594a;
      }

      .st13 {
        fill: #f9e645;
      }
    </style>
  </defs>
  <rect class="st9" x="-11.52" y="-13.05" width="825.94" height="273.46"/>
  <g>
    <g>
      <path class="st0" d="M407.8,200.89V44.16h113.34v156.73h-113.34Z"/>
      <path d="M475.98,64.53c-.38,0-.76-.14-1.04-.43l-6.49-6.49c-.58-.58-.58-1.51,0-2.09s1.51-.58,2.09,0l6.49,6.49c.58.58.58,1.51,0,2.09-.29.29-.67.43-1.04.43Z"/>
      <path d="M480.11,57.44c-.38,0-.76-.14-1.04-.43l-6.49-6.49c-.58-.58-.58-1.51,0-2.09s1.51-.58,2.09,0l6.49,6.49c.58.58.58,1.51,0,2.09-.29.29-.67.43-1.04.43Z"/>
      <path d="M489.85,100.83c-.07,0-.15,0-.22-.02-.81-.12-1.36-.87-1.24-1.68,4.42-29.44,18.04-54.26,18.17-54.51.4-.71,1.29-.97,2.01-.58.71.39.97,1.29.58,2.01-.14.24-13.5,24.62-17.84,53.52-.11.73-.74,1.26-1.46,1.26Z"/>
      <path d="M484.83,82.24c-.59,0-1.15-.36-1.37-.94-.3-.76.08-1.62.84-1.91l9.15-3.54c.76-.29,1.62.08,1.91.84.3.76-.08,1.62-.84,1.91l-9.15,3.54c-.18.07-.35.1-.53.1Z"/>
      <path d="M482.77,91.68c-.58,0-1.12-.34-1.36-.91-.32-.75.04-1.62.79-1.93l9.15-3.84c.76-.32,1.62.04,1.93.79.32.75-.04,1.62-.79,1.93l-9.15,3.84c-.19.08-.38.12-.57.12Z"/>
      <path d="M480.11,103.49c-.58,0-1.12-.34-1.36-.91-.32-.75.04-1.62.79-1.93l9.15-3.84c.75-.32,1.62.04,1.93.79.32.75-.04,1.62-.79,1.93l-9.15,3.84c-.19.08-.38.12-.57.12Z"/>
      <path d="M436.43,76.04c-.23,0-.47-.05-.68-.17-.72-.38-1-1.27-.62-1.99l15.35-29.22c.38-.72,1.27-.99,1.99-.62.72.38,1,1.27.62,1.99l-15.35,29.22c-.27.5-.78.79-1.31.79Z"/>
      <path d="M500.77,95.52c-.36,0-.72-.13-1-.39l-8.27-7.67c-.6-.55-.63-1.49-.08-2.09.56-.6,1.49-.63,2.08-.08l8.27,7.67c.6.55.63,1.49.08,2.09-.29.31-.69.47-1.08.47Z"/>
      <path d="M500.77,107.91c-.36,0-.72-.13-1-.39l-8.27-7.67c-.6-.55-.63-1.49-.08-2.09s1.49-.63,2.08-.08l8.27,7.67c.6.55.63,1.49.08,2.09-.29.31-.69.47-1.08.47Z"/>
      <path d="M496.05,55.67c-.67,0-1.27-.45-1.44-1.13-.19-.79.3-1.59,1.09-1.78l8.56-2.07c.8-.19,1.59.3,1.78,1.09.19.79-.3,1.59-1.09,1.78l-8.56,2.07c-.12.03-.23.04-.35.04Z"/>
      <path class="st10" d="M521.14,103.19l-3.54-2.07-6.49,15.64-13.28,21.25v-31.88l1.18-20.96s-11.81-5.9-20.96-13.58c-9.15-7.67.89-19.19.89-19.19l12.69-1.18c13.87-.59,29.52,24.79,29.52,24.79v27.15Z"/>
      <path class="st10" d="M519.96,197.35h-15.94l.89-42.5,15.05-43.68v86.19Z"/>
      <path class="st13" d="M440.86,102.9c2.07,0,9.15-2.95,12.1-5.9s7.97-5.02,12.69-5.02,17.71,1.77,18.3,3.54c.59,1.77-7.67,5.9-7.67,5.9-.89,2.95-7.67,8.56-7.67,8.56v12.4c-1.77,5.02-18.59,5.02-18.59,5.02l-2.36-4.72-10.92,3.54c-1.77,1.77-12.69,7.38-15.64,7.08s2.36-12.99,3.54-16.53c1.18-3.54,10.33-13.28,10.33-13.28,0,0,3.84-.59,5.9-.59h0Z"/>
      <path class="st8" d="M467.42,124.44s24.5,14.46,26.27,41.62c1.77,27.15-5.31,27.15-5.31,27.15-.3-17.71-17.41-43.09-17.41-43.09,3.25,23.32-6.49,36.6-6.49,36.6,4.13-25.97-14.76-59.62-14.76-59.62,5.61-7.97,17.71-2.66,17.71-2.66Z"/>
      <path class="st8" d="M427.87,104.37c0-3.42,3.83-6.2,8.56-6.2s8.56,2.78,8.56,6.2-3.83,6.2-8.56,6.2-8.56-2.78-8.56-6.2Z"/>
      <path d="M418.72,182.59c-.59,0-1.14-.35-1.37-.93-.13-.34-13.38-34.34-11.02-67.06,2.35-32.55,13.23-69.31,13.34-69.68.23-.78,1.05-1.23,1.84-.99.78.23,1.23,1.05.99,1.84-.11.36-10.9,36.83-13.22,69.05-2.31,32.03,10.69,65.43,10.82,65.76.3.76-.07,1.61-.83,1.91-.18.07-.36.1-.54.1Z"/>
      <path d="M419.9,155.73c-.32,0-.65-.11-.92-.32l-10.33-8.26c-.64-.51-.74-1.44-.23-2.08.51-.63,1.44-.74,2.08-.23l10.33,8.26c.64.51.74,1.44.23,2.08-.29.36-.72.55-1.15.55Z"/>
      <path d="M422.55,168.42c-.33,0-.66-.11-.94-.34l-10.04-8.26c-.63-.52-.72-1.45-.2-2.08.52-.63,1.45-.72,2.08-.2l10.04,8.26c.63.52.72,1.45.2,2.08-.29.35-.71.54-1.14.54Z"/>
      <path d="M425.21,179.34c-.32,0-.65-.11-.92-.32l-10.33-8.26c-.64-.51-.74-1.44-.23-2.08.51-.63,1.44-.74,2.08-.23l10.33,8.26c.64.51.74,1.44.23,2.08-.29.36-.72.55-1.15.55Z"/>
      <path d="M428.75,190.85c-.33,0-.66-.11-.94-.34l-10.04-8.26c-.63-.52-.72-1.45-.2-2.08.51-.63,1.45-.72,2.08-.2l10.04,8.26c.63.52.72,1.45.2,2.08-.29.35-.71.54-1.14.54Z"/>
      <path d="M417.54,144.22c-.26,0-.53-.07-.77-.22l-9.15-5.61c-.69-.43-.91-1.33-.49-2.03s1.33-.91,2.03-.49l9.15,5.61c.69.43.91,1.33.49,2.03-.28.46-.76.71-1.26.71Z"/>
      <path d="M415.77,133.3c-.26,0-.53-.07-.77-.22l-9.15-5.61c-.69-.43-.91-1.33-.49-2.03.43-.69,1.33-.91,2.03-.49l9.15,5.61c.69.43.91,1.33.49,2.03-.28.46-.76.71-1.26.71Z"/>
      <path d="M415.77,124.44c-.25,0-.51-.07-.74-.2l-9.15-5.31c-.7-.41-.95-1.31-.54-2.02s1.31-.94,2.02-.54l9.15,5.31c.7.41.95,1.31.54,2.02-.27.47-.77.74-1.28.74Z"/>
      <path d="M415.47,114.41c-.26,0-.53-.07-.77-.22l-9.15-5.61c-.69-.43-.91-1.33-.49-2.03.42-.69,1.33-.92,2.03-.49l9.15,5.61c.69.43.91,1.33.49,2.03-.28.45-.76.7-1.26.7Z"/>
      <path d="M416.95,106.44c-.26,0-.53-.07-.77-.22l-9.15-5.61c-.69-.43-.91-1.33-.49-2.03.43-.69,1.33-.91,2.03-.49l9.15,5.61c.69.43.91,1.33.49,2.03-.28.45-.76.7-1.26.7Z"/>
      <path class="st10" d="M455.91,66.59c-.3,5.02-3.54,12.99-14.17,19.48-10.92,6.49-23.02,26.27-23.02,26.27,0,0-10.04-24.5-4.43-43.09,5.61-18.59,21.84-17.71,21.84-17.71,16.23.3,20.07,10.04,19.78,15.05h0Z"/>
      <path d="M407.5,174.62c-.22,0-.44-.05-.64-.15-.73-.36-1.04-1.24-.68-1.97l5.02-10.33c.36-.73,1.24-1.04,1.97-.68.73.36,1.04,1.24.68,1.97l-5.02,10.33c-.26.52-.78.83-1.33.83Z"/>
      <path d="M411.04,183.18c-.2,0-.41-.04-.61-.13-.74-.34-1.07-1.22-.73-1.96l4.72-10.33c.34-.74,1.21-1.06,1.96-.73.74.34,1.07,1.22.73,1.96l-4.72,10.33c-.25.54-.78.86-1.34.86Z"/>
      <path d="M413.41,191.74c-.2,0-.41-.04-.61-.13-.74-.34-1.07-1.22-.73-1.96l4.72-10.33c.34-.74,1.21-1.06,1.96-.73.74.34,1.07,1.22.73,1.96l-4.72,10.33c-.25.54-.78.86-1.34.86Z"/>
      <path d="M407.5,53.6c-.65,0-1.25-.44-1.43-1.1-.21-.79.27-1.59,1.05-1.8l12.4-3.25c.78-.2,1.59.27,1.8,1.05.21.79-.27,1.59-1.05,1.8l-12.4,3.25c-.12.03-.25.05-.37.05Z"/>
      <path d="M406.91,61.28c-.65,0-1.25-.44-1.43-1.1-.21-.79.26-1.6,1.05-1.8l10.04-2.66c.79-.21,1.59.26,1.8,1.05.21.79-.26,1.6-1.05,1.8l-10.04,2.66c-.13.03-.25.05-.38.05Z"/>
      <path d="M405.14,68.66c-.65,0-1.24-.43-1.42-1.09-.21-.79.25-1.6,1.04-1.81l9.74-2.66c.78-.21,1.6.25,1.81,1.04.21.79-.25,1.6-1.04,1.81l-9.74,2.66c-.13.04-.26.05-.39.05Z"/>
      <path d="M407.21,74.86c-.64,0-1.23-.42-1.42-1.06-.23-.78.22-1.6,1-1.83l7.08-2.07c.79-.23,1.6.22,1.83,1s-.22,1.6-1,1.83l-7.08,2.07c-.14.04-.28.06-.41.06Z"/>
      <path d="M405.73,81.35c-.66,0-1.26-.45-1.43-1.12-.2-.79.28-1.59,1.07-1.79l7.08-1.77c.78-.2,1.59.28,1.79,1.07.2.79-.28,1.59-1.07,1.79l-7.08,1.77c-.12.03-.24.04-.36.04Z"/>
      <path d="M429.34,54.49c-.21,0-.43-.05-.64-.15l-8.56-4.13c-.73-.35-1.04-1.24-.69-1.97.35-.73,1.24-1.04,1.97-.69l8.56,4.13c.73.35,1.04,1.24.69,1.97-.25.53-.78.83-1.33.83Z"/>
      <path d="M421.67,58.62c-.24,0-.48-.06-.7-.18l-3.25-1.77c-.72-.39-.98-1.29-.59-2,.39-.72,1.29-.98,2-.59l3.25,1.77c.72.39.98,1.29.59,2-.27.49-.77.77-1.3.77Z"/>
      <path d="M413.7,94.63c-.24,0-.49-.06-.71-.19l-2.66-1.48c-.71-.4-.97-1.29-.57-2.01.39-.71,1.3-.97,2.01-.57l2.66,1.48c.71.4.97,1.29.57,2.01-.27.49-.77.76-1.29.76Z"/>
      <path d="M462.4,77.81c-.13,0-.27-.02-.4-.05-.79-.22-1.24-1.04-1.02-1.82,3.28-11.68,10.45-26.57,13.38-32.43.37-.73,1.25-1.02,1.98-.66.73.36,1.02,1.25.66,1.98-2.89,5.78-9.97,20.47-13.18,31.91-.18.65-.78,1.08-1.42,1.08Z"/>
      <path d="M463.88,54.49c-.55,0-1.09-.32-1.34-.85-.34-.74-.03-1.62.71-1.96l8.85-4.13c.74-.34,1.61-.03,1.96.71.35.74.03,1.62-.71,1.96l-8.85,4.13c-.2.09-.42.14-.63.14Z"/>
      <path d="M461.22,61.87c-.55,0-1.08-.31-1.33-.83-.35-.73-.05-1.62.69-1.97l8.56-4.13c.74-.35,1.62-.05,1.97.69.35.73.05,1.62-.69,1.97l-8.56,4.13c-.21.1-.43.15-.64.15Z"/>
      <path d="M458.27,69.54c-.53,0-1.05-.29-1.31-.8-.37-.72-.09-1.61.63-1.99l8.56-4.43c.72-.37,1.61-.09,1.99.63.37.72.09,1.61-.63,1.99l-8.56,4.43c-.22.11-.45.16-.68.16Z"/>
      <path d="M454.73,78.1c-.55,0-1.08-.31-1.33-.83-.35-.73-.05-1.62.69-1.97l8.56-4.13c.74-.35,1.62-.05,1.97.69.35.73.05,1.62-.69,1.97l-8.56,4.13c-.21.1-.43.15-.64.15Z"/>
      <path d="M469.78,80.46c-.38,0-.76-.14-1.04-.43l-6.49-6.49c-.58-.58-.58-1.51,0-2.09s1.51-.58,2.09,0l6.49,6.49c.58.58.58,1.51,0,2.09-.29.29-.67.43-1.04.43Z"/>
      <path d="M473.03,72.79c-.38,0-.76-.14-1.04-.43l-6.49-6.49c-.58-.58-.58-1.51,0-2.09s1.51-.58,2.09,0l6.49,6.49c.58.58.58,1.51,0,2.09-.29.29-.67.43-1.04.43Z"/>
      <path d="M454.73,86.07c-.36,0-.71-.13-1-.39-.6-.55-.64-1.48-.09-2.09l6.49-7.08c.55-.6,1.48-.64,2.09-.09.6.55.64,1.48.09,2.09l-6.49,7.08c-.29.32-.69.48-1.09.48Z"/>
      <path d="M464.46,89.02c-.74,0-1.38-.56-1.46-1.32l-1.18-10.92c-.09-.81.5-1.54,1.31-1.63.81-.07,1.54.5,1.63,1.31l1.18,10.92c.09.81-.5,1.54-1.31,1.63-.05,0-.11,0-.16,0Z"/>
      <path d="M456.5,57.44c-.37,0-.73-.14-1.02-.41l-6.25-5.97-10.77,1.93c-.8.15-1.57-.39-1.71-1.19-.14-.8.39-1.57,1.19-1.71l11.51-2.07c.46-.09.94.06,1.28.39l6.79,6.49c.59.56.61,1.5.05,2.09-.29.3-.68.46-1.07.46Z"/>
      <path d="M460.04,50.36c-.33,0-.67-.11-.94-.34l-7.08-5.9c-.63-.52-.71-1.45-.19-2.08.52-.62,1.45-.71,2.08-.19l7.08,5.9c.63.52.71,1.45.19,2.08-.29.35-.71.53-1.14.53Z"/>
      <path d="M484.54,109.98c-.23,0-.47-.05-.69-.17-.72-.38-1-1.27-.62-1.99l2.65-5.02c.38-.72,1.28-.99,1.99-.61.72.38,1,1.27.62,1.99l-2.65,5.02c-.27.5-.78.79-1.31.79Z"/>
      <path d="M493.69,116.47c-.69,0-1.3-.48-1.44-1.19l-2.36-11.81c-.16-.8.36-1.58,1.16-1.74.77-.16,1.57.35,1.74,1.16l2.36,11.81c.16.8-.36,1.58-1.16,1.74-.1.02-.19.03-.29.03Z"/>
      <path d="M498.71,49.77c-.67,0-1.27-.45-1.44-1.13-.19-.79.3-1.59,1.09-1.78l8.56-2.07c.8-.2,1.59.3,1.78,1.09.19.79-.3,1.59-1.09,1.78l-8.56,2.07c-.12.03-.23.04-.35.04Z"/>
      <path d="M512.58,53.6c-.42,0-.83-.18-1.12-.52l-5.02-5.9c-.53-.62-.45-1.55.17-2.08.63-.53,1.56-.45,2.08.17l5.02,5.9c.53.62.45,1.55-.17,2.08-.28.24-.62.35-.96.35Z"/>
      <path d="M509.63,59.21c-.4,0-.81-.17-1.1-.49l-5.02-5.61c-.54-.61-.49-1.54.12-2.08.6-.54,1.53-.5,2.08.12l5.02,5.61c.54.61.49,1.54-.12,2.08-.28.25-.63.38-.98.38Z"/>
    </g>
    <g>
      <path d="M418.72,116.18c-.64,0-1.21-.41-1.4-1.02-.53-1.64-12.8-40.28,1.43-56.76,5.39-6.23,13.8-8.44,24.99-6.55,5.27.79,15.02,4.85,14.23,14.56-.72,8.92-9.45,15.87-17.88,22.59-2.64,2.11-5.14,4.1-7.39,6.13-9.01,8.16-12.53,19.87-12.56,19.98-.18.62-.75,1.05-1.4,1.06h-.02ZM436.46,54.15c-6.74,0-11.93,2.07-15.48,6.17-10.53,12.19-4.83,39.18-2.07,49.66,1.9-4.42,5.61-11.42,11.8-17.04,2.32-2.1,4.97-4.21,7.53-6.25,7.94-6.33,16.16-12.87,16.78-20.52.76-9.4-11.22-11.33-11.73-11.41,0,0-.02,0-.03,0-2.42-.41-4.69-.61-6.8-.61Z"/>
      <path d="M521.43,107.91h-.3c-.57,0-1.09-.33-1.33-.85-4.54-9.62-25.04-22.45-37.29-30.11l-2.3-1.44c-4.1-2.58-6.56-5.84-7.3-9.71-1.25-6.5,2.88-12.24,3.06-12.48.12-.17.28-.31.47-.41.16-.1,17.41-9.52,33.37,7.05,14.27,15.09,13.58,16.68,13.13,17.73,0,.02-.02.04-.03.06v28.69c0,.82-.66,1.48-1.48,1.48ZM478.18,55.33c-.71,1.09-3.24,5.4-2.36,9.94.59,3.02,2.59,5.63,5.97,7.75l2.3,1.44c11.67,7.3,28.55,17.87,35.88,27.36v-24.6c0-.16.03-.32.07-.47-.44-.97-2.52-4.33-12.37-14.75-13.4-13.92-27.25-7.8-29.49-6.67Z"/>
      <path d="M499.3,139.2c-.23,0-.46-.05-.68-.17-.72-.37-1.01-1.27-.63-1.99l1-1.91c4.42-8.45,13.61-26.01,16.29-37.01.19-.79,1-1.27,1.78-1.08.79.19,1.28.99,1.08,1.78-2.77,11.35-12.07,29.13-16.54,37.68l-.99,1.91c-.26.51-.78.8-1.31.8Z"/>
      <path d="M497.52,138.61c-.72,0-1.36-.53-1.46-1.27-1.35-9.73-.11-33.14,1.17-51.07.06-.82.85-1.44,1.58-1.37.82.06,1.43.76,1.37,1.58-1.8,25.15-2.22,43.07-1.19,50.46.11.81-.45,1.55-1.26,1.66-.07,0-.14.01-.2.01Z"/>
      <path d="M519.96,199.71h-15.05c-.81,0-1.46-.65-1.48-1.46,0-.22-.29-22.33,0-37.24.3-14.86,15.97-54.33,16.63-56.01.27-.66.96-1.04,1.66-.9.7.14,1.2.76,1.18,1.47l-1.48,92.68c-.01.81-.67,1.45-1.48,1.45ZM506.36,196.75h12.14l1.32-82.88c-4.68,12.51-13.24,36.75-13.45,47.2-.25,12.64-.07,30.51-.02,35.68Z"/>
      <path d="M442.92,100.24c-.19,0-.39-.04-.57-.12-.75-.32-1.1-1.18-.79-1.93l.49-1.16-3.63,2.38c-.68.45-1.6.26-2.04-.43-.45-.68-.26-1.6.43-2.04l7.67-5.02c.54-.36,1.25-.31,1.75.1.5.42.67,1.11.42,1.7l-2.36,5.61c-.24.56-.79.9-1.36.9Z"/>
      <path d="M436.43,109.98c-4.39,0-7.97-2.91-7.97-6.49s3.58-6.49,7.97-6.49,7.97,2.91,7.97,6.49-3.58,6.49-7.97,6.49ZM436.43,99.94c-2.72,0-5.02,1.62-5.02,3.54s2.3,3.54,5.02,3.54,5.02-1.62,5.02-3.54-2.3-3.54-5.02-3.54Z"/>
      <path d="M420.94,135c-.86,0-1.5-.18-1.96-.55-1.36-1.09-1.72-3.07,5.42-20.09l.34-.81c1.62-3.9,6.52-7.29,6.72-7.44.67-.47,1.59-.3,2.05.38.46.67.29,1.59-.38,2.05-.04.03-4.39,3.05-5.67,6.14l-.34.82c-4.75,11.33-5.84,15.3-5.97,16.67,2.14-.07,10.62-2.97,13.81-7.14.22-.28.53-.48.87-.55,2.29-.48,8.65-2.04,10.61-3.56.64-.5,1.57-.38,2.07.26.5.64.38,1.57-.26,2.07-2.54,1.97-9.25,3.55-11.3,4-3.68,4.34-11.51,7.25-15.02,7.68-.36.04-.69.07-.99.07Z"/>
      <path d="M468.6,123.56c-.7,0-1.32-.5-1.45-1.21-.14-.8.39-1.57,1.19-1.72.6-.8,0-6.44-1.45-11.74-.12-.43-.03-.89.22-1.25.26-.36.66-.59,1.11-.61,3.08-.19,5.44-4.7,6.09-6.43.13-.35.4-.64.74-.81,3.33-1.61,6.53-3.61,7.8-4.82-4.01-1.03-18.62-1.26-24.12-.65-4.8.51-6.21,3.06-7.01,5.75-1.22,4.06-7.69,3.21-8.42,3.1-.81-.12-1.36-.87-1.24-1.68.12-.81.88-1.34,1.68-1.24,1.62.24,4.8.18,5.16-1.03.91-3.03,2.88-7.13,9.52-7.83,2.61-.29,24.81-1.11,27.42,1.88.43.49.58,1.11.43,1.71-.65,2.58-6.46,5.74-9.43,7.22-.7,1.6-2.96,6.11-6.72,7.42.86,3.49,2.16,10.1.56,12.64-.44.69-1.06,1.13-1.82,1.27-.09.02-.18.03-.27.03Z"/>
      <path d="M466.54,183.77c-.1,0-.2,0-.29-.03-.8-.16-1.32-.94-1.16-1.74,5.71-28.25-18.69-62.85-18.94-63.2-.47-.66-.32-1.59.34-2.06.66-.47,1.58-.32,2.06.34,1.04,1.46,25.39,35.98,19.43,65.49-.14.7-.76,1.18-1.44,1.18Z"/>
      <path d="M490.15,188.2c-.8,0-1.45-.63-1.48-1.44-.86-30.6-22.08-52.21-22.3-52.42-.58-.58-.58-1.51,0-2.09s1.51-.58,2.09,0c.91.91,22.27,22.62,23.16,54.43.02.81-.62,1.49-1.44,1.52h-.04Z"/>
      <path d="M459.75,113.82c-.43,0-.85-.18-1.14-.54-2-2.45-7.56-5.44-9.53-6.39-.74-.35-1.04-1.23-.69-1.97.35-.73,1.23-1.05,1.97-.69.31.15,7.71,3.72,10.54,7.18.52.63.42,1.56-.21,2.08-.27.22-.6.33-.93.33Z"/>
      <path d="M462.4,107.03c-.24,0-.49-.06-.71-.18l-5.9-3.25c-.71-.39-.98-1.29-.58-2,.39-.71,1.29-.97,2-.58l5.91,3.25c.71.39.97,1.29.58,2-.27.49-.78.77-1.29.77Z"/>
      <path d="M468.31,102.9c-.2,0-.41-.04-.61-.13l-5.9-2.66c-.74-.33-1.08-1.21-.74-1.95.34-.75,1.22-1.07,1.95-.74l5.9,2.66c.74.33,1.08,1.21.74,1.95-.25.55-.78.87-1.35.87Z"/>
      <path d="M472.74,98.17c-.07,0-.13,0-.2-.01l-4.43-.59c-.81-.11-1.37-.85-1.27-1.66.11-.81.86-1.37,1.66-1.27l4.43.59c.81.11,1.37.85,1.27,1.66-.1.74-.74,1.28-1.46,1.28Z"/>
      <path d="M425.21,129.46c-.82,0-1.48-.66-1.48-1.48v-2.65c0-.82.66-1.48,1.48-1.48s1.48.66,1.48,1.48v2.65c0,.82-.66,1.48-1.48,1.48Z"/>
      <path d="M429.93,126.8c-.69,0-1.31-.49-1.45-1.2l-1.18-6.2c-.15-.8.37-1.57,1.17-1.73.82-.15,1.57.37,1.73,1.17l1.18,6.2c.15.8-.37,1.57-1.17,1.73-.09.02-.19.03-.28.03Z"/>
      <path d="M434.95,122.67c-.65,0-1.24-.43-1.42-1.08l-1.48-5.31c-.22-.79.24-1.6,1.03-1.82.78-.21,1.6.24,1.82,1.03l1.48,5.31c.22.79-.24,1.6-1.03,1.82-.13.04-.27.05-.4.05Z"/>
      <path d="M441.45,120.01c-.57,0-1.11-.33-1.35-.88l-2.36-5.31c-.33-.75,0-1.62.75-1.95.75-.33,1.62,0,1.95.75l2.36,5.31c.33.75,0,1.62-.75,1.95-.19.09-.4.13-.6.13Z"/>
      <path d="M464.47,126.51c-.41,0-.82-.17-1.11-.51l-7.97-9.15c-.54-.62-.47-1.55.14-2.08.61-.53,1.55-.47,2.08.14l7.97,9.15c.54.61.47,1.54-.14,2.08-.28.25-.63.36-.97.36Z"/>
      <path d="M421.38,97.58c-.06,0-.12,0-.18-.01-.81-.1-1.39-.83-1.29-1.64,4.2-35.42,20.48-40.03,21.17-40.21.79-.21,1.6.27,1.8,1.06.2.79-.27,1.59-1.06,1.8-.14.04-15.04,4.52-18.98,37.71-.09.75-.73,1.3-1.46,1.3Z"/>
      <path d="M513.17,72.79c-.42,0-.84-.18-1.13-.53-4.58-5.5-22.93-10.89-29.61-12.5-.79-.19-1.28-.99-1.09-1.78.19-.79.97-1.28,1.78-1.09,1.02.25,25.04,6.1,31.19,13.48.52.63.44,1.56-.19,2.08-.28.23-.61.34-.95.34Z"/>
      <path d="M443.51,77.22c-.65,0-1.25-.43-1.42-1.09l-3.25-12.1c-.21-.79.26-1.6,1.04-1.81.79-.21,1.6.26,1.81,1.04l3.25,12.1c.21.79-.26,1.6-1.04,1.81-.13.03-.26.05-.38.05Z"/>
      <path d="M432.3,86.07c-.82,0-1.48-.66-1.48-1.48v-11.22c0-.82.66-1.48,1.48-1.48s1.48.66,1.48,1.48v11.22c0,.82-.66,1.48-1.48,1.48Z"/>
      <path d="M419.9,70.43c-.48,0-.95-.23-1.23-.66-.45-.68-.27-1.59.41-2.05l7.97-5.31c.68-.45,1.6-.27,2.05.41.45.68.27,1.59-.41,2.05l-7.97,5.31c-.25.17-.54.25-.82.25Z"/>
      <path d="M492.51,74.56c-.59,0-1.14-.35-1.37-.94l-3.25-8.27c-.3-.76.08-1.61.84-1.91s1.61.08,1.91.83l3.25,8.27c.3.76-.08,1.61-.84,1.91-.18.07-.36.1-.54.1Z"/>
      <path d="M509.92,82.24c-.52,0-1.03-.28-1.3-.77l-5.9-10.92c-.39-.72-.12-1.61.6-2,.71-.38,1.61-.12,2,.6l5.9,10.92c.39.72.12,1.61-.6,2-.22.12-.46.18-.7.18Z"/>
      <path d="M507.86,111.46c-.8,0-1.46-.64-1.48-1.44l-.29-13.58c-.02-.81.63-1.49,1.44-1.51.86,0,1.49.63,1.51,1.44l.29,13.58c.02.81-.63,1.49-1.44,1.51h-.03Z"/>
      <path d="M509.92,159.27c-.21,0-.42-.04-.62-.14-.74-.34-1.06-1.22-.71-1.96l10.04-21.55c.34-.74,1.22-1.06,1.96-.71.74.34,1.06,1.22.71,1.96l-10.04,21.55c-.25.54-.78.85-1.34.85Z"/>
      <path d="M513.17,182.59c-.12,0-.24-.01-.37-.05-.79-.2-1.27-1.01-1.06-1.8l3.54-13.87c.2-.79,1-1.27,1.8-1.06.79.2,1.27,1.01,1.06,1.8l-3.54,13.87c-.17.67-.77,1.11-1.43,1.11Z"/>
    </g>
    <path d="M524.09,202.36h-120.42V40.91h120.42v161.45ZM409.57,196.46h108.62V46.82h-108.62v149.64Z"/>
  </g>
  <g>
    <g>
      <path class="st0" d="M255.05,200.89V44.16h113.34v156.73h-113.34Z"/>
      <path class="st4" d="M307.89,199.41s-30.11-32.76-21.55-39.85c8.56-7.08,20.37,0,20.37,0,0,0,1.77-99.76,19.78-99.76s22.14,97.11,22.14,97.11c0,0,4.43-6.49,12.1-2.07,7.67,4.43,7.38,30.7,0,44.86l-52.83-.3Z"/>
      <path class="st4" d="M290.77,199.41h-38.37l1.18-69.66s4.43-25.97,15.64-25.97,17.71,41.03,18.59,58.44c1.18,17.41,2.95,37.19,2.95,37.19Z"/>
    </g>
    <g>
      <path d="M306.41,161.34h-.03c-.82-.02-1.46-.69-1.44-1.51,1.51-66.47,8.57-100.41,20.98-100.9.76-.24,2.56-.55,4.86.84,7.48,4.52,16.91,24.93,19.32,96.51.03.81-.61,1.5-1.42,1.52-.77,0-1.5-.61-1.52-1.43-2.56-75.96-13.23-91-17.69-93.95-1.62-1.07-2.63-.69-2.67-.68-.17.07-.41.13-.6.13-10.06,0-16.91,36.65-18.3,98.03-.02.8-.68,1.44-1.48,1.44Z"/>
      <path d="M290.77,201.18c-.82,0-1.48-.66-1.48-1.48,0-5.57-.29-10.8-.57-15.86-.12-2.12-.23-4.19-.32-6.21-.04-.81.6-1.5,1.41-1.54.84,0,1.5.6,1.54,1.41.09,2.01.2,4.06.32,6.17.28,5.1.57,10.38.57,16.03,0,.82-.66,1.48-1.48,1.48Z"/>
      <path d="M288.41,158.97c-.75,0-1.39-.57-1.47-1.33-4.1-40.61-11.28-50.71-15.19-53.11-1.54-.94-2.49-.59-2.53-.58-.17.06-.41.12-.59.12-4.73,0-9.03,8.7-12.13,24.49-.16.8-.92,1.32-1.73,1.16-.8-.16-1.32-.93-1.16-1.73,3.5-17.83,8.33-26.63,14.76-26.87.73-.23,2.45-.52,4.63.71,5.45,3.07,12.81,15.18,16.88,55.51.08.81-.51,1.53-1.32,1.61-.05,0-.1,0-.15,0Z"/>
      <path d="M313.79,199.71c-.28,0-.56-.08-.81-.24-.68-.45-.87-1.36-.43-2.04,22-33.57,37.59-48.09,47.61-44.33.85.09,3.06.57,4.95,3.14,4.67,6.37,3.64,20.84-2.98,41.85-.25.78-1.07,1.21-1.85.96-.78-.25-1.21-1.07-.96-1.85,8.34-26.45,5.78-35.84,3.51-39.09-1.4-1.99-2.95-2.09-3.02-2.09-.17,0-.37-.05-.52-.11-5.77-2.33-18.13,3.25-44.25,43.13-.28.43-.76.67-1.24.67Z"/>
      <path d="M307.89,202.36c-.42,0-.84-.18-1.13-.52-19.89-23.51-26.85-38.34-20.71-44.09.36-.59,1.25-1.66,3.17-2.24,4.72-1.43,15.2.31,38.37,16.23l-2.88-111.61c-.02-.81.62-1.49,1.44-1.51h.04c.8,0,1.45.64,1.48,1.44l2.95,114.52c.01.56-.29,1.08-.78,1.34-.49.27-1.09.23-1.55-.09-24.62-17.31-34.33-18.44-37.92-17.57-1.42.34-1.78,1-1.79,1.03-.09.22-.2.36-.38.52-4.83,4.17,2.76,18.79,20.82,40.13.53.62.45,1.55-.17,2.08-.28.23-.62.35-.95.35Z"/>
      <path d="M269.52,199.71c-.82,0-1.48-.66-1.48-1.48v-94.15c0-.82.66-1.48,1.48-1.48s1.48.66,1.48,1.48v94.15c0,.82-.66,1.48-1.48,1.48Z"/>
      <path d="M336.81,201.18c-.23,0-.47-.05-.69-.17-.72-.38-.99-1.28-.61-2l23.61-44.27c.38-.72,1.28-.99,2-.61.72.38.99,1.28.61,2l-23.61,44.27c-.27.5-.78.78-1.3.78Z"/>
      <path d="M320.28,190.26c-.35,0-.71-.13-.99-.38l-33.06-30.11c-.6-.55-.65-1.48-.1-2.09.55-.6,1.48-.64,2.09-.1l33.06,30.11c.6.55.65,1.48.1,2.09-.29.32-.69.48-1.09.48Z"/>
      <path class="st5" d="M287.23,157.5"/>
      <path d="M325.3,72.2c-.39,0-.77-.15-1.06-.45l-7.67-7.97c-.56-.59-.55-1.52.04-2.09.59-.56,1.52-.55,2.09.04l7.67,7.97c.56.59.55,1.52-.04,2.09-.29.28-.65.41-1.02.41Z"/>
      <path d="M329.43,72.2c-.37,0-.74-.14-1.02-.41-.59-.57-.61-1.5-.04-2.09l7.67-7.97c.57-.59,1.5-.6,2.09-.04.59.57.61,1.5.04,2.09l-7.67,7.97c-.29.3-.68.45-1.06.45Z"/>
      <path d="M324.42,81.05c-.37,0-.74-.14-1.03-.42l-10.33-10.04c-.58-.57-.6-1.5-.03-2.09.56-.59,1.5-.6,2.09-.03l10.33,10.04c.58.57.6,1.5.03,2.09-.29.3-.67.45-1.06.45Z"/>
      <path d="M326.19,93.45c-.38,0-.76-.14-1.04-.43l-14.76-14.76c-.58-.58-.58-1.51,0-2.09s1.51-.58,2.09,0l14.76,14.76c.58.58.58,1.51,0,2.09-.29.29-.67.43-1.04.43Z"/>
      <path d="M325.3,104.67c-.38,0-.76-.14-1.04-.43l-16.53-16.53c-.58-.58-.58-1.51,0-2.09s1.51-.58,2.09,0l16.53,16.53c.58.58.58,1.51,0,2.09-.29.29-.67.43-1.04.43Z"/>
      <path d="M327.07,118.24c-.37,0-.75-.14-1.04-.42l-19.78-19.48c-.58-.57-.59-1.51-.02-2.09.57-.58,1.5-.59,2.09-.02l19.78,19.48c.58.57.59,1.51.02,2.09-.29.29-.67.44-1.05.44Z"/>
      <path d="M325.89,129.46c-.38,0-.76-.14-1.04-.43l-20.07-20.07c-.58-.58-.58-1.51,0-2.09s1.51-.58,2.09,0l20.07,20.07c.58.58.58,1.51,0,2.09-.29.29-.67.43-1.04.43Z"/>
      <path d="M327.37,142.74c-.38,0-.76-.14-1.04-.43l-22.43-22.43c-.58-.58-.58-1.51,0-2.09s1.51-.58,2.09,0l22.43,22.43c.58.58.58,1.51,0,2.09-.29.29-.67.43-1.04.43Z"/>
      <path d="M327.37,154.55c-.37,0-.75-.14-1.04-.43l-23.32-23.02c-.58-.57-.59-1.51-.01-2.09.58-.58,1.51-.59,2.09-.01l23.32,23.02c.58.57.59,1.51.01,2.09-.29.29-.67.44-1.05.44Z"/>
      <path d="M328.55,168.42c-.38,0-.76-.14-1.04-.43l-25.38-25.38c-.58-.58-.58-1.51,0-2.09s1.51-.58,2.09,0l25.38,25.38c.58.58.58,1.51,0,2.09-.29.29-.67.43-1.04.43Z"/>
      <path d="M316.15,167.54c-.38,0-.76-.14-1.04-.43l-13.87-13.87c-.58-.58-.58-1.51,0-2.09s1.51-.58,2.09,0l13.87,13.87c.58.58.58,1.51,0,2.09-.29.29-.67.43-1.04.43Z"/>
      <path d="M330.02,81.05c-.38,0-.77-.15-1.06-.45-.57-.58-.55-1.52.03-2.09l10.33-10.04c.58-.57,1.52-.55,2.09.03.57.58.55,1.52-.03,2.09l-10.33,10.04c-.29.28-.66.42-1.03.42Z"/>
      <path d="M327.96,93.45c-.38,0-.77-.15-1.05-.44-.57-.58-.56-1.52.02-2.09l15.05-14.76c.58-.57,1.52-.56,2.09.02s.56,1.52-.02,2.09l-15.05,14.76c-.29.28-.66.42-1.03.42Z"/>
      <path d="M328.84,104.67c-.38,0-.76-.14-1.04-.43-.58-.58-.58-1.51,0-2.09l16.53-16.53c.58-.58,1.51-.58,2.09,0s.58,1.51,0,2.09l-16.53,16.53c-.29.29-.67.43-1.04.43Z"/>
      <path d="M327.37,118.24c-.38,0-.76-.15-1.05-.44-.57-.58-.56-1.52.02-2.09l19.78-19.48c.58-.57,1.51-.56,2.09.02.57.58.56,1.52-.02,2.09l-19.78,19.48c-.29.28-.66.42-1.04.42Z"/>
      <path d="M328.55,129.46c-.38,0-.76-.14-1.04-.43-.58-.58-.58-1.51,0-2.09l20.07-20.07c.58-.58,1.51-.58,2.09,0s.58,1.51,0,2.09l-20.07,20.07c-.29.29-.67.43-1.04.43Z"/>
      <path d="M327.07,142.74c-.37,0-.75-.14-1.04-.43-.58-.57-.59-1.5-.01-2.09l22.14-22.43c.57-.58,1.51-.59,2.09-.01.58.57.59,1.51.01,2.09l-22.14,22.43c-.29.29-.67.44-1.05.44Z"/>
      <path d="M327.07,154.55c-.38,0-.76-.14-1.04-.43-.58-.58-.58-1.51,0-2.09l23.02-23.02c.58-.58,1.51-.58,2.09,0s.58,1.51,0,2.09l-23.02,23.02c-.29.29-.67.43-1.04.43Z"/>
      <path d="M325.89,168.42c-.38,0-.76-.14-1.04-.43-.58-.58-.58-1.51,0-2.09l25.38-25.38c.58-.58,1.51-.58,2.09,0s.58,1.51,0,2.09l-25.38,25.38c-.29.29-.67.43-1.04.43Z"/>
      <path d="M338.29,167.54c-.38,0-.76-.14-1.04-.43-.58-.58-.58-1.51,0-2.09l13.87-13.87c.58-.58,1.51-.58,2.09,0s.58,1.51,0,2.09l-13.87,13.87c-.29.29-.67.43-1.04.43Z"/>
      <g>
        <path class="st3" d="M324.12,60.1c0-4.08,1.32-7.38,2.95-7.38s2.95,3.3,2.95,7.38-1.32,7.38-2.95,7.38-2.95-3.3-2.95-7.38Z"/>
        <path d="M327.07,68.95c-3.04,0-4.43-4.59-4.43-8.85s1.38-8.85,4.43-8.85,4.43,4.59,4.43,8.85-1.38,8.85-4.43,8.85ZM326.99,54.18c-.28.2-1.4,2.25-1.4,5.92s1.11,5.72,1.56,5.92c.28-.2,1.4-2.25,1.4-5.92s-1.11-5.72-1.56-5.92Z"/>
      </g>
      <path d="M353.64,169.6c-.66,0-1.26-.45-1.43-1.12-.2-.79.28-1.59,1.07-1.79l12.99-3.25c.78-.19,1.59.28,1.79,1.08.2.79-.28,1.59-1.07,1.79l-12.99,3.25c-.12.03-.24.04-.36.04Z"/>
      <path d="M350.09,176.39c-.68,0-1.29-.47-1.44-1.16-.18-.8.33-1.58,1.12-1.76l15.94-3.54c.79-.17,1.58.33,1.76,1.12.18.8-.33,1.58-1.12,1.76l-15.94,3.54c-.11.02-.21.03-.32.03Z"/>
      <path d="M358.06,162.52c-.64,0-1.23-.42-1.42-1.06-.23-.78.22-1.6,1-1.83l7.08-2.07c.79-.22,1.6.22,1.83,1.01.23.78-.22,1.6-1,1.83l-7.08,2.07c-.14.04-.28.06-.41.06Z"/>
      <path d="M347.14,182.29c-.71,0-1.33-.51-1.45-1.23-.13-.8.41-1.57,1.21-1.7l19.48-3.25c.81-.15,1.57.41,1.7,1.21.13.8-.41,1.57-1.21,1.7l-19.48,3.25c-.08.01-.16.02-.24.02Z"/>
      <path d="M342.71,190.26c-.73,0-1.36-.54-1.46-1.28-.11-.81.46-1.55,1.27-1.66l22.43-2.95c.82-.11,1.55.47,1.66,1.27.11.81-.46,1.55-1.27,1.66l-22.43,2.95c-.07,0-.13.01-.19.01Z"/>
      <path d="M338.58,198.23c-.72,0-1.35-.52-1.46-1.26-.12-.81.44-1.56,1.24-1.68l23.61-3.54c.83-.12,1.56.44,1.68,1.24.12.81-.44,1.56-1.24,1.68l-23.61,3.54c-.07.01-.15.02-.22.02Z"/>
      <path d="M354.82,167.54c-.74,0-1.38-.56-1.47-1.31l-1.18-10.63c-.09-.81.49-1.54,1.3-1.63.83-.08,1.54.5,1.63,1.3l1.18,10.63c.09.81-.49,1.54-1.3,1.63-.05,0-.11,0-.16,0Z"/>
      <path d="M349.21,175.21c-.73,0-1.36-.54-1.46-1.28l-2.07-15.64c-.11-.81.46-1.55,1.27-1.66.81-.12,1.55.46,1.66,1.27l2.07,15.64c.11.81-.46,1.55-1.27,1.66-.06,0-.13.01-.19.01Z"/>
      <path class="st5" d="M340.35,163.99"/>
      <path d="M344.49,187.31c-.71,0-1.33-.51-1.45-1.23l-4.13-24.79c-.13-.8.41-1.57,1.21-1.7.8-.15,1.56.41,1.7,1.21l4.13,24.79c.13.8-.41,1.57-1.21,1.7-.08.01-.16.02-.24.02Z"/>
      <path d="M338.58,196.46c-.72,0-1.35-.53-1.46-1.26l-4.13-28.04c-.12-.81.44-1.56,1.25-1.68.8-.1,1.56.44,1.67,1.25l4.13,28.04c.12.81-.44,1.56-1.25,1.68-.07,0-.15.01-.22.01Z"/>
      <path d="M331.79,199.71c-.73,0-1.37-.54-1.46-1.29l-2.66-20.66c-.1-.81.47-1.55,1.28-1.65.84-.1,1.55.47,1.65,1.28l2.66,20.66c.1.81-.47,1.55-1.28,1.65-.06,0-.13.01-.19.01Z"/>
      <path d="M325.6,199.71c-.72,0-1.35-.52-1.46-1.25l-2.66-17.41c-.12-.8.43-1.56,1.24-1.68.8-.12,1.56.43,1.68,1.24l2.66,17.41c.12.8-.43,1.56-1.24,1.68-.07.01-.15.02-.22.02Z"/>
      <path d="M320.28,199.71c-.65,0-1.25-.44-1.43-1.1l-1.77-6.79c-.21-.79.27-1.59,1.05-1.8.79-.22,1.6.26,1.8,1.05l1.77,6.79c.21.79-.27,1.59-1.05,1.8-.13.03-.25.05-.37.05Z"/>
      <path d="M294.02,166.35c-.82,0-1.48-.66-1.48-1.48v-10.62c0-.82.66-1.48,1.48-1.48s1.48.66,1.48,1.48v10.62c0,.82-.66,1.48-1.48,1.48Z"/>
      <path d="M300.21,171.37c-.82,0-1.48-.66-1.48-1.48v-14.17c0-.82.66-1.48,1.48-1.48s1.48.66,1.48,1.48v14.17c0,.82-.66,1.48-1.48,1.48Z"/>
      <path d="M306.41,176.98c-.82,0-1.48-.66-1.48-1.48v-16.53c0-.82.66-1.48,1.48-1.48s1.48.66,1.48,1.48v16.53c0,.82-.66,1.48-1.48,1.48Z"/>
      <path d="M316.74,187.31s-.09,0-.13,0c-.81-.07-1.41-.79-1.34-1.6l1.77-20.07c.07-.81.79-1.38,1.6-1.34.81.07,1.41.79,1.34,1.6l-1.77,20.07c-.07.77-.71,1.35-1.47,1.35Z"/>
      <path d="M323.53,185.84h-.06c-.81-.03-1.45-.72-1.41-1.54l.59-14.46c.03-.81.69-1.42,1.53-1.42.81.03,1.45.72,1.41,1.54l-.59,14.46c-.03.79-.69,1.42-1.47,1.42Z"/>
      <path d="M285.75,167.54c-.77,0-1.42-.6-1.47-1.38-.05-.81.56-1.52,1.37-1.57l8.85-.59c.8-.06,1.52.56,1.57,1.37.05.81-.56,1.52-1.37,1.57l-8.85.59s-.07,0-.1,0Z"/>
      <path d="M287.52,172.85c-.78,0-1.44-.62-1.47-1.41-.04-.81.59-1.5,1.41-1.54l12.99-.59c.83-.12,1.5.59,1.54,1.41.04.81-.59,1.5-1.41,1.54l-12.99.59s-.05,0-.07,0Z"/>
      <path d="M287.23,178.16c-.79,0-1.44-.62-1.47-1.41-.04-.82.6-1.5,1.41-1.54l20.07-.88c.81.04,1.5.6,1.54,1.41.04.82-.6,1.5-1.41,1.54l-20.07.89h-.07Z"/>
      <path d="M291.65,184.65c-.74,0-1.37-.55-1.46-1.3-.1-.81.48-1.54,1.29-1.64l18.53-2.21.83-17.35c.04-.82.77-1.49,1.54-1.4.81.04,1.44.73,1.4,1.54l-.89,18.59c-.03.72-.58,1.31-1.3,1.4l-19.77,2.36c-.06,0-.12.01-.18.01Z"/>
      <path d="M293.42,189.67c-.75,0-1.39-.56-1.47-1.32-.08-.81.51-1.54,1.32-1.62l22.73-2.36c.81-.09,1.54.5,1.62,1.31.08.81-.51,1.54-1.32,1.62l-22.73,2.36c-.05,0-.1,0-.15,0Z"/>
      <path d="M296.08,194.69c-.73,0-1.37-.54-1.46-1.29-.1-.81.47-1.55,1.28-1.65l23.02-2.95c.82-.11,1.55.47,1.65,1.28.1.81-.47,1.55-1.28,1.65l-23.02,2.95c-.06,0-.13.01-.19.01Z"/>
      <path d="M303.16,198.82c-.75,0-1.4-.57-1.47-1.34-.07-.81.52-1.53,1.33-1.61l12.69-1.18c.83-.05,1.53.52,1.61,1.33.07.81-.52,1.53-1.33,1.61l-12.69,1.18s-.09,0-.14,0Z"/>
      <path d="M270.7,113.52c-.38,0-.76-.14-1.04-.43-.58-.58-.58-1.51,0-2.09l6.79-6.79c.58-.58,1.51-.58,2.09,0s.58,1.51,0,2.09l-6.79,6.79c-.29.29-.67.43-1.04.43Z"/>
      <path d="M270.99,122.38c-.38,0-.76-.14-1.04-.43-.58-.58-.58-1.51,0-2.09l10.33-10.33c.58-.58,1.51-.58,2.09,0s.58,1.51,0,2.09l-10.33,10.33c-.29.29-.67.43-1.04.43Z"/>
      <path d="M271.29,130.93c-.38,0-.76-.14-1.04-.43-.58-.58-.58-1.51,0-2.09l12.69-12.69c.58-.58,1.51-.58,2.09,0s.58,1.51,0,2.09l-12.69,12.69c-.29.29-.67.43-1.04.43Z"/>
      <path d="M270.7,140.09c-.38,0-.76-.15-1.05-.44-.57-.58-.56-1.52.02-2.09l15.64-15.35c.58-.57,1.51-.56,2.09.02.57.58.56,1.51-.02,2.09l-15.64,15.35c-.29.28-.66.42-1.03.42Z"/>
      <path d="M270.99,148.64c-.38,0-.76-.14-1.04-.43-.58-.58-.58-1.51,0-2.09l17.12-17.12c.58-.58,1.51-.58,2.09,0s.58,1.51,0,2.09l-17.12,17.12c-.29.29-.67.43-1.04.43Z"/>
      <path d="M270.7,157.5c-.38,0-.76-.14-1.04-.43-.58-.58-.58-1.51,0-2.09l18.3-18.3c.58-.58,1.51-.58,2.09,0s.58,1.51,0,2.09l-18.3,18.3c-.29.29-.67.43-1.04.43Z"/>
      <path d="M270.99,166.35c-.38,0-.76-.15-1.05-.44-.57-.58-.56-1.51.02-2.09l19.48-19.19c.58-.57,1.51-.56,2.09.02.57.58.56,1.51-.02,2.09l-19.48,19.19c-.29.28-.66.42-1.04.42Z"/>
      <path d="M270.4,175.5c-.38,0-.76-.14-1.04-.43-.58-.58-.58-1.51,0-2.09l20.96-20.96c.58-.58,1.51-.58,2.09,0s.58,1.51,0,2.09l-20.96,20.96c-.29.29-.67.43-1.04.43Z"/>
      <path d="M270.4,183.47c-.38,0-.76-.14-1.04-.43-.58-.58-.58-1.51,0-2.09l14.17-14.17c.58-.58,1.51-.58,2.09,0s.58,1.51,0,2.09l-14.17,14.17c-.29.29-.67.43-1.04.43Z"/>
      <path d="M269.52,191.15c-.38,0-.76-.14-1.04-.43-.58-.58-.58-1.51,0-2.09l14.76-14.76c.58-.58,1.51-.58,2.09,0s.58,1.51,0,2.09l-14.76,14.76c-.29.29-.67.43-1.04.43Z"/>
      <path d="M270.7,198.82c-.38,0-.76-.15-1.05-.44-.57-.58-.56-1.52.02-2.09l17.71-17.41c.58-.57,1.51-.57,2.09.02.57.58.56,1.52-.02,2.09l-17.71,17.41c-.29.28-.66.42-1.03.42Z"/>
      <path d="M279.55,199.71c-.38,0-.76-.14-1.04-.43-.58-.58-.58-1.51,0-2.09l10.33-10.33c.58-.58,1.51-.58,2.09,0s.58,1.51,0,2.09l-10.33,10.33c-.29.29-.67.43-1.04.43Z"/>
      <path d="M268.34,114.41c-.37,0-.74-.14-1.03-.42l-8.85-8.56c-.59-.57-.6-1.5-.03-2.09.57-.59,1.5-.6,2.09-.03l8.85,8.56c.59.57.6,1.5.03,2.09-.29.3-.67.45-1.06.45Z"/>
      <path d="M268.93,123.85c-.37,0-.74-.14-1.03-.42l-12.1-11.81c-.58-.57-.6-1.5-.03-2.09.57-.58,1.51-.59,2.09-.03l12.1,11.81c.58.57.6,1.5.03,2.09-.29.3-.67.45-1.06.45Z"/>
      <path d="M269.22,131.53c-.38,0-.77-.15-1.05-.44l-13.58-13.87c-.57-.58-.56-1.52.02-2.09.58-.57,1.52-.56,2.09.02l13.58,13.87c.57.58.56,1.52-.02,2.09-.29.28-.66.42-1.03.42Z"/>
      <path d="M268.93,139.2c-.38,0-.76-.14-1.04-.43l-12.99-12.99c-.58-.58-.58-1.51,0-2.09s1.51-.58,2.09,0l12.99,12.99c.58.58.58,1.51,0,2.09-.29.29-.67.43-1.04.43Z"/>
      <path d="M269.22,148.64c-.38,0-.76-.14-1.04-.43l-12.69-12.69c-.58-.58-.58-1.51,0-2.09s1.51-.58,2.09,0l12.69,12.69c.58.58.58,1.51,0,2.09-.29.29-.67.43-1.04.43Z"/>
      <path d="M269.22,156.32c-.38,0-.77-.15-1.05-.44l-12.99-13.28c-.57-.58-.56-1.52.02-2.09.58-.56,1.52-.56,2.09.02l12.99,13.28c.57.58.56,1.52-.02,2.09-.29.28-.66.42-1.03.42Z"/>
      <path d="M269.22,166.35c-.38,0-.76-.14-1.04-.43l-12.4-12.4c-.58-.58-.58-1.51,0-2.09s1.51-.58,2.09,0l12.4,12.4c.58.58.58,1.51,0,2.09-.29.29-.67.43-1.04.43Z"/>
      <path d="M269.22,173.44c-.38,0-.77-.15-1.06-.44l-12.1-12.4c-.57-.59-.56-1.52.03-2.09.58-.57,1.52-.55,2.09.02l12.1,12.4c.57.59.56,1.52-.03,2.09-.29.28-.66.42-1.03.42Z"/>
      <path d="M269.22,181.41c-.38,0-.77-.15-1.05-.44l-12.69-12.99c-.57-.58-.56-1.52.02-2.09.58-.57,1.52-.56,2.09.02l12.69,12.99c.57.58.56,1.52-.02,2.09-.29.28-.66.42-1.03.42Z"/>
      <path d="M269.52,189.08c-.38,0-.76-.14-1.04-.43l-13.28-13.28c-.58-.58-.58-1.51,0-2.09s1.51-.58,2.09,0l13.28,13.28c.58.58.58,1.51,0,2.09-.29.29-.67.43-1.04.43Z"/>
      <path d="M269.22,197.34c-.38,0-.77-.15-1.05-.44l-12.69-12.99c-.57-.58-.56-1.52.02-2.09.58-.56,1.52-.56,2.09.02l12.69,12.99c.57.58.56,1.52-.02,2.09-.29.28-.66.42-1.03.42Z"/>
      <path d="M265.09,201.48c-.38,0-.76-.14-1.04-.43l-9.45-9.45c-.58-.58-.58-1.51,0-2.09s1.51-.58,2.09,0l9.45,9.45c.58.58.58,1.51,0,2.09-.29.29-.67.43-1.04.43Z"/>
      <g>
        <path class="st3" d="M266.57,103.19c0-4.08,1.32-7.38,2.95-7.38s2.95,3.3,2.95,7.38-1.32,7.38-2.95,7.38-2.95-3.3-2.95-7.38Z"/>
        <path d="M269.52,112.04c-3.04,0-4.43-4.59-4.43-8.85s1.38-8.85,4.43-8.85,4.43,4.59,4.43,8.85-1.38,8.85-4.43,8.85ZM269.44,97.27c-.28.2-1.4,2.25-1.4,5.92s1.11,5.72,1.56,5.92c.28-.2,1.4-2.25,1.4-5.92s-1.11-5.72-1.56-5.92Z"/>
      </g>
      <g>
        <path class="st3" d="M284.87,160.13c-2.88-2.88-4.28-6.15-3.13-7.3s4.42.25,7.3,3.13,4.28,6.15,3.13,7.3-4.42-.25-7.3-3.13Z"/>
        <path d="M291.02,165.14c-.65,0-1.46-.16-2.43-.57-1.55-.67-3.24-1.87-4.76-3.39-3.01-3.01-5.28-7.24-3.13-9.39.58-.59,1.96-1.41,4.63-.26,1.55.67,3.24,1.87,4.76,3.39,1.52,1.52,2.73,3.21,3.39,4.76,1.14,2.66.33,4.04-.26,4.63-.37.37-1.06.84-2.19.84ZM282.9,153.89c-.08,0-.14,0-.18.03-.06.34.6,2.58,3.2,5.17h0c2.59,2.59,4.85,3.26,5.28,3.08.06-.34-.6-2.58-3.2-5.17-2.34-2.34-4.39-3.11-5.1-3.11Z"/>
      </g>
      <g>
        <path class="st3" d="M357.95,153.2c1.43-3.82,3.83-6.44,5.36-5.87,1.53.57,1.6,4.13.17,7.95-1.43,3.82-3.83,6.44-5.36,5.87-1.53-.57-1.6-4.13-.17-7.95Z"/>
        <path d="M358.56,162.7c-.39,0-.71-.08-.96-.17-2.85-1.07-2.53-5.85-1.03-9.85h0c1.5-3.99,4.4-7.78,7.25-6.74,2.85,1.07,2.54,5.86,1.04,9.85-.76,2.01-1.8,3.81-2.93,5.06-1.34,1.47-2.51,1.85-3.36,1.85ZM359.33,153.72c-1.29,3.43-.97,5.74-.62,6.09.34-.09,2.1-1.62,3.39-5.05,1.29-3.43.97-5.74.62-6.09-.33.09-2.1,1.62-3.39,5.05h0Z"/>
      </g>
      <g>
        <path class="st7" d="M342.72,176.09h-36.3s-26.86-25.38-26.86-110.39h29.52s-.3,69.66,33.94,108.62"/>
        <path d="M342.72,177.57h-36.3c-.38,0-.74-.14-1.01-.4-1.12-1.05-27.32-26.79-27.32-111.46,0-.82.66-1.48,1.48-1.48h29.52c.39,0,.77.16,1.05.43.28.28.43.66.43,1.05,0,.69.11,69.55,33.58,107.64.53.6.48,1.51-.1,2.05.11.2.17.44.17.69,0,.82-.66,1.48-1.48,1.48ZM307.04,174.62h34.27c-30.88-35.88-33.48-97.14-33.7-107.44h-26.58c.29,76.48,22.77,103.88,26.01,107.44Z"/>
      </g>
      <path d="M284.86,80.46c-.67,0-1.28-.46-1.44-1.14-.19-.79.31-1.59,1.1-1.78l15.05-3.54c.78-.19,1.59.31,1.78,1.1.19.79-.31,1.59-1.1,1.78l-15.05,3.54c-.11.03-.23.04-.34.04Z"/>
      <path d="M294.9,91.68c-.49,0-.97-.25-1.25-.69-1.52-2.44-5.09-16.52-5.79-19.31-.2-.79.28-1.59,1.07-1.79.78-.2,1.59.28,1.79,1.07,1.58,6.3,4.44,16.89,5.43,18.46.43.69.22,1.6-.47,2.03-.24.15-.51.22-.78.22Z"/>
      <path d="M300.21,94.34c-.24,0-.49-.06-.71-.19-.71-.4-.97-1.29-.57-2.01,1.31-2.35,1.52-4.71.58-6.31-.39-.67-.98-1.21-1.74-1.6-1.84,4.22-4.89,9.4-8.65,8.91-2.56-.32-4.16-2.45-3.98-5.29.22-3.58,3.31-7.38,8.59-7.38.81,0,1.58.06,2.3.18.27-.71.51-1.42.72-2.09.24-.78,1.07-1.2,1.85-.97.78.24,1.21,1.07.97,1.85-.13.43-.37,1.16-.7,2.07,1.38.66,2.47,1.61,3.19,2.85,1.5,2.55,1.3,5.91-.55,9.24-.27.49-.77.76-1.29.76ZM293.72,83.42c-3.93,0-5.53,2.76-5.64,4.62-.04.6.02,2.01,1.4,2.18,1.63.21,3.7-3.05,5.38-6.75-.36-.03-.74-.05-1.14-.05Z"/>
      <path d="M303.46,108.8c-.25,0-.49-.06-.72-.19-.71-.4-.96-1.3-.56-2.01,1.11-1.97,1.23-4.18.31-5.75-.68-1.15-1.8-1.79-3.15-1.79-2.13,0-5.18,4-5.18,6.18,0,.27.05.42.1.47.05.05.24.14.65.14.91,0,1.58-.26,2.04-.79,1.05-1.19,1.02-3.54.92-4.34-.1-.81.47-1.55,1.28-1.65.81-.12,1.54.46,1.65,1.27.06.43.49,4.26-1.62,6.66-1.03,1.18-2.51,1.8-4.27,1.8-1.46,0-2.31-.56-2.76-1.03-.61-.63-.94-1.5-.94-2.52,0-3.44,3.94-9.14,8.13-9.14,2.42,0,4.49,1.18,5.7,3.25,1.47,2.51,1.36,5.76-.28,8.69-.27.48-.77.75-1.29.75Z"/>
      <path d="M304.64,118.24h-3.25c-.82,0-1.48-.66-1.48-1.48s.66-1.48,1.48-1.48h3.25c.82,0,1.48.66,1.48,1.48s-.66,1.48-1.48,1.48Z"/>
      <path d="M301.69,129.46c-1.97,0-3.16-.74-3.82-1.35-.89-.84-1.39-2-1.39-3.27,0-1.92,1.17-3.89,3.25-4.94-.93-1.85-2.11-3.9-3.41-5.86-.45-.68-.26-1.6.42-2.05.68-.44,1.6-.26,2.05.42,1.02,1.55,2.61,4.09,3.91,6.73.15,0,.31-.01.47-.01,2.69,0,4.71.7,6,2.09,1.47,1.58,1.39,3.42,1.37,3.62-.06.81-.76,1.43-1.58,1.37-.81-.06-1.43-.76-1.37-1.58,0,0,.01-.78-.62-1.43-.6-.61-1.62-.99-2.99-1.09.86,2.32,1.23,4.47.51,5.82-.31.57-1.08,1.53-2.8,1.53ZM300.96,122.58c-1,.53-1.53,1.41-1.53,2.26,0,.31.08.76.45,1.11.39.36,1.01.55,1.8.55.38-.5.06-1.97-.73-3.93Z"/>
      <path d="M307,147.17c-.49,0-.98-.25-1.26-.7-.43-.69-.22-1.6.48-2.03,2.12-1.32,5.35-3.98,5.52-5.49.02-.17,0-.3-.18-.48-1.43-1.43-5.24,1.43-6.77,2.95-.47.47-1.19.56-1.77.24-.58-.32-.87-.99-.71-1.63l1.7-7.03-2.11.79c-.76.3-1.61-.1-1.9-.86-.29-.76.1-1.61.86-1.9l4.72-1.77c.51-.19,1.09-.09,1.5.28.41.36.59.92.46,1.45l-1.36,5.6c2.3-1.4,5.27-2.4,7.46-.21.8.8,1.15,1.8,1.03,2.9-.4,3.46-5.82,6.99-6.9,7.66-.24.15-.51.22-.78.22Z"/>
      <path d="M323.57,170.08c-.75,0-1.5-.11-2.25-.33-8.55-2.49-13.74-19.08-13.96-19.79-.24-.78.2-1.61.98-1.84.78-.25,1.61.2,1.84.97,1.35,4.38,6.13,16.12,11.96,17.82,1.88.55,3.76,0,5.74-1.69.62-.52,1.55-.45,2.08.17.53.62.45,1.55-.17,2.08-2.04,1.73-4.12,2.6-6.23,2.6Z"/>
      <path d="M260.37,53.01c-1.77,0-1.77-2.95,0-2.95,2.07,0,2.07,2.95,0,2.95Z"/>
      <path d="M263.61,61.28c-1.77,0-1.77-2.95,0-2.95,2.07,0,2.07,2.95,0,2.95Z"/>
      <path d="M271.58,56.56c-1.77,0-1.77-2.95,0-2.95s1.77,2.95,0,2.95Z"/>
      <path d="M272.47,66c-1.77,0-1.77-2.95,0-2.95,2.07,0,2.07,2.95,0,2.95Z"/>
      <path d="M261.84,72.2c-1.77,0-1.77-2.95,0-2.95s1.77,2.95,0,2.95Z"/>
      <path d="M268.63,76.92c-1.77,0-1.77-2.95,0-2.95s1.77,2.95,0,2.95Z"/>
      <path d="M261.25,85.48c-1.77,0-1.77-2.95,0-2.95s1.77,2.95,0,2.95Z"/>
      <path d="M268.04,92.56c-1.77,0-1.77-2.95,0-2.95s1.77,2.95,0,2.95Z"/>
      <path d="M261.25,99.35c-1.77,0-1.77-2.95,0-2.95s1.77,2.95,0,2.95Z"/>
      <path d="M280.44,51.24c-1.77,0-1.77-2.95,0-2.95s1.77,2.95,0,2.95Z"/>
      <path d="M285.46,55.08c-1.77,0-1.77-2.95,0-2.95,2.07,0,2.07,2.95,0,2.95Z"/>
      <path d="M294.9,53.01c-1.77,0-1.77-2.95,0-2.95,2.07,0,2.07,2.95,0,2.95Z"/>
      <path d="M308.48,53.01c-1.77,0-1.77-2.95,0-2.95s1.77,2.95,0,2.95Z"/>
      <path d="M302.87,58.92c-1.77,0-1.77-2.95,0-2.95s1.77,2.95,0,2.95Z"/>
      <path d="M321.76,52.72c-1.77,0-1.77-2.95,0-2.95s1.77,2.95,0,2.95Z"/>
      <path d="M343.9,52.42c-1.77,0-1.77-2.95,0-2.95s1.77,2.95,0,2.95Z"/>
      <path d="M348.62,60.98c-1.77,0-1.77-2.95,0-2.95,2.07,0,2.07,2.95,0,2.95Z"/>
      <path d="M358.36,54.78c-1.77,0-1.77-2.95,0-2.95,2.07,0,2.07,2.95,0,2.95Z"/>
      <path d="M337.11,54.49c-1.77,0-1.77-2.95,0-2.95s1.77,2.95,0,2.95Z"/>
      <path d="M358.36,65.12c-1.77,0-1.77-2.95,0-2.95,2.07,0,2.07,2.95,0,2.95Z"/>
      <path d="M356,73.67c-1.77,0-1.77-2.95,0-2.95s1.77,2.95,0,2.95Z"/>
      <path d="M363.38,85.48c-1.77,0-1.77-2.95,0-2.95s1.77,2.95,0,2.95Z"/>
      <path d="M356.29,84.89c-1.77,0-1.77-2.95,0-2.95s1.77,2.95,0,2.95Z"/>
      <path d="M360.72,93.45c-1.77,0-1.77-2.95,0-2.95,2.07,0,2.07,2.95,0,2.95Z"/>
      <path d="M358.95,105.26c-1.77,0-1.77-2.95,0-2.95s1.77,2.95,0,2.95Z"/>
      <path d="M361.61,119.42c-1.77,0-1.77-2.95,0-2.95,2.07,0,2.07,2.95,0,2.95Z"/>
      <path d="M358.06,113.23c-1.77,0-1.77-2.95,0-2.95,2.07,0,2.07,2.95,0,2.95Z"/>
      <path d="M359.83,138.61c-1.77,0-1.77-2.95,0-2.95s1.77,2.95,0,2.95Z"/>
      <path d="M362.49,75.45c-1.77,0-1.77-2.95,0-2.95s1.77,2.95,0,2.95Z"/>
      <path d="M363.08,128.28c-1.77,0-1.77-2.95,0-2.95s1.77,2.95,0,2.95Z"/>
      <path d="M363.08,144.81c-1.77,0-1.77-2.95,0-2.95s1.77,2.95,0,2.95Z"/>
      <path d="M268.04,52.13c-1.77,0-1.77-2.95,0-2.95s1.77,2.95,0,2.95Z"/>
      <path d="M260.07,78.69c-1.77,0-1.77-2.95,0-2.95,2.07,0,2.07,2.95,0,2.95Z"/>
      <path d="M351.57,51.24c-1.77,0-1.77-2.95,0-2.95,2.07,0,2.07,2.95,0,2.95Z"/>
    </g>
    <path d="M371.35,202.36h-120.42V40.91h120.42v161.45ZM256.83,196.46h108.62V46.82h-108.62v149.64Z"/>
  </g>
  <g>
    <g>
      <path class="st0" d="M551.69,200.59V43.86h113.34v156.73h-113.34Z"/>
      <path class="st12" d="M572.05,135.36l-14.46-15.05,9.15-4.43-3.84-13.28-1.18-9.44,2.07-1.77,12.4,3.54,6.49,5.9,5.9-7.08,5.02,11.51,3.25,13.28-24.79,16.82Z"/>
      <g>
        <path class="st12" d="M601.86,167.24c1.48,18.59-17.71,28.34-17.71,28.34v-7.97c-11.22,5.02-28.04,4.43-28.04,4.43l4.43-10.33-9.74-2.95c7.08-14.17,19.48-17.71,19.48-17.71"/>
        <path d="M584.15,197.05c-.27,0-.54-.07-.77-.22-.44-.27-.7-.74-.7-1.26v-5.77c-11.24,4.19-25.95,3.73-26.62,3.71-.49-.02-.93-.27-1.19-.69-.26-.41-.3-.92-.11-1.37l3.78-8.81-8.16-2.47c-.42-.13-.76-.43-.93-.83-.17-.4-.16-.85.03-1.24,7.29-14.58,19.87-18.32,20.4-18.47.79-.23,1.6.23,1.82,1.01.22.78-.23,1.6-1.01,1.83-.12.03-10.96,3.3-17.75,15.4l8.03,2.43c.4.12.74.41.91.79.18.38.18.82.02,1.2l-3.55,8.29c4.85-.04,16.77-.54,25.21-4.31.46-.2.98-.16,1.4.11.42.27.67.74.67,1.24v5.37c4.79-3.13,15.85-11.9,14.76-25.62-.07-.81.54-1.52,1.35-1.59.74-.06,1.52.54,1.59,1.35,1.54,19.36-17.69,29.35-18.51,29.77-.21.11-.44.16-.67.16Z"/>
      </g>
      <g>
        <path class="st12" d="M632.26,138.02c15.35-6.49,30.99,0,30.99,0v36.3l-23.91-6.49v10.33c-13.28-7.38-20.66-26.86-20.66-26.86"/>
        <path d="M639.35,179.64c-.25,0-.49-.06-.72-.18-13.6-7.55-21.02-26.81-21.32-27.63-.29-.76.1-1.61.86-1.9.76-.28,1.61.1,1.91.86.07.18,6.51,16.89,17.8,24.73v-7.67c0-.46.21-.89.58-1.17.37-.28.84-.37,1.28-.25l22.05,5.99v-33.34c-3.49-1.2-16.42-4.97-28.94.33-.76.31-1.62-.03-1.94-.78-.32-.75.03-1.62.78-1.94,15.74-6.65,31.48-.28,32.13,0,.55.23.91.77.91,1.36v36.3c0,.46-.21.89-.58,1.17s-.84.37-1.28.25l-22.05-5.99v8.4c0,.52-.28,1.01-.73,1.27-.23.14-.49.2-.75.2Z"/>
      </g>
      <path class="st12" d="M618.69,120.31l1.77-7.08,8.56-6.2,11.81-2.95-1.18,10.92,16.23,4.43-23.02,10.33-14.17-9.44Z"/>
      <path class="st2" d="M563.2,147.76l-2.66-5.31,1.48-5.61,6.2-7.08,3.25-.3,2.07-5.02,5.9-5.61,7.97-3.54,6.49,1.77,5.9-2.95,7.38-1.18,5.61,2.36,3.25,1.77h3.25l3.25,1.48,6.2,6.2,3.54-.3,4.13,1.48,4.43,7.97-.59,7.38-5.61,8.85.59,2.95-.59,2.95-6.79,7.08-6.79,3.25-2.07,4.72-6.2,5.9-10.92-2.66-5.02-2.07-2.66-8.26-3.54,2.66-7.67,2.95-9.44-1.48-5.61-8.85.89-6.2-5.61-5.31Z"/>
      <path class="st2" d="M616.62,66.89s5.02-8.26,8.85-7.67,6.2,6.79,6.2,6.79c0,0,.89-1.77,2.95-1.48s3.54,9.74.89,17.12c-2.66,7.38-12.4,2.95-12.4,2.95,0,0-7.38.89-9.74-2.07-2.36-2.95-.89-11.51-.89-11.51l4.13-4.13Z"/>
      <path class="st12" d="M608.95,113.23l7.38-17.71-2.36-8.26,2.95-2.07,10.63,1.48-.89,4.13-6.2,7.67-5.02,10.63-2.36,6.49-4.13-2.36Z"/>
      <path class="st12" d="M613.08,70.13l-14.76-10.92.89-2.36,7.67,1.48,8.56,8.56-2.36,3.25"/>
    </g>
    <g>
      <path d="M615.44,68.36c-.51,0-1.01-.27-1.28-.74-4.33-7.51-11.35-9.42-15.14-9.9-.81-.1-1.38-.84-1.28-1.65.1-.81.84-1.37,1.65-1.28,4.34.54,12.36,2.74,17.33,11.35.41.71.17,1.61-.54,2.02-.23.13-.49.2-.74.2Z"/>
      <path d="M614.26,71.61c-.38,0-.76-.14-1.04-.43-2.86-2.86-10.8-9.88-15.79-12.09-.74-.33-1.08-1.2-.75-1.95.33-.75,1.2-1.08,1.95-.75,5.95,2.64,14.67,10.69,16.68,12.7.58.58.58,1.51,0,2.09-.29.29-.67.43-1.04.43Z"/>
      <path d="M613.67,116.18c-.09,0-.18,0-.28-.03-.8-.15-1.33-.92-1.18-1.72,2.11-11.18,8.61-18.95,8.88-19.27,1.34-1.28,4.67-4.82,5.3-7.37.1-.41,0-.5-.03-.54-.65-.65-3.3-.61-4.38-.33-1.01.25-4.48.18-6.89.1.24,2.74,2.02,6.4,2.8,7.77.26.46.26,1.03-.01,1.48-.05.08-4.65,7.91-6.92,16.74-.2.79-1,1.26-1.8,1.06-.79-.2-1.26-1.01-1.06-1.8,2-7.75,5.59-14.56,6.83-16.77-.99-1.9-3.26-6.72-2.72-10.24.12-.74.76-1.32,1.52-1.25,3.11.14,6.88.19,7.55.04.05-.01,5-1.08,7.18,1.11.84.84,1.13,2.03.8,3.34-.96,3.85-5.52,8.2-6.03,8.69h0s-6.16,7.45-8.12,17.79c-.13.71-.75,1.2-1.45,1.2Z"/>
      <path d="M592.42,158.38c-.28,0-.55-.08-.79-.23-.86-.54-8.41-5.46-8.81-10.44-.13-1.63.5-3.12,1.83-4.3,1.65-1.47,3.47-2.07,5.39-1.81,3.12.44,5.55,3.19,6.61,4.57,2.58-.32,9.48-.86,12.64,1.71,1.06.86,1.65,2.01,1.72,3.34.06,1.14-.36,2.22-1.21,3.12-3.73,3.93-15.99,4.04-17.38,4.04ZM589.18,144.49c-.87,0-1.72.37-2.57,1.12-.83.74-.88,1.42-.84,1.86.2,2.54,4.31,6.12,7.08,7.96,4.81-.05,12.72-.92,14.81-3.12.38-.4.42-.71.4-.93h0c-.03-.5-.22-.86-.64-1.2-2.03-1.65-7.98-1.46-11.24-.96-.63.09-1.16-.18-1.48-.67-.64-1.01-2.81-3.7-5.09-4.02-.15-.02-.3-.03-.44-.03Z"/>
      <path d="M609.83,153.07c-.82,0-1.48-.66-1.48-1.48s.66-1.48,1.48-1.48c4.2,0,7.36-1.08,8.91-3.04,1.11-1.41,1.41-3.25.88-5.48-.22-.91-.55-1.44-.99-1.57-1.16-.36-3.59,1.17-4.85,2.32-.34.31-.82.43-1.26.36-5.1-.92-6.81,4.37-6.89,4.59-.24.78-1.08,1.22-1.84.97-.78-.24-1.21-1.06-.98-1.84.81-2.67,3.81-7.36,9.51-6.74,1.34-1.1,4.47-3.31,7.17-2.49,1.04.32,2.4,1.22,2.99,3.71.74,3.11.25,5.87-1.43,7.99-2.15,2.72-6.03,4.16-11.22,4.16Z"/>
      <path d="M612.78,178.75c-.22,0-.45-.05-.66-.16-.04-.02-4.04-1.97-11.32-2.8-8.94-1.03-8.41-14.54-8.38-15.11.04-.81.63-1.51,1.54-1.4.82.04,1.44.73,1.41,1.54,0,.12-.43,11.33,5.78,12.04,5.84.67,9.7,2.01,11.37,2.69,3.94-3.54,7.34-8.09,6.22-9.43-1.01-1.22-1.75-2.74-2.53-4.34-1.91-3.95-3.31-6.34-6.67-6.34-.82,0-1.48-.66-1.48-1.48s.66-1.48,1.48-1.48c5.45,0,7.6,4.44,9.33,8.01.7,1.44,1.35,2.8,2.14,3.74,3.7,4.44-5.4,12.58-7.26,14.17-.27.23-.61.35-.96.35Z"/>
      <path d="M581.55,171.21c-4.04,0-7.58-1-7.84-1.08s-.5-.22-.68-.42c-.27-.29-6.58-7.27-6.58-12.8,0-5.04,5.49-6.82,8.74-7.08.8-.05,1.52.54,1.59,1.35.07.81-.54,1.52-1.35,1.59-.06,0-6.02.55-6.02,4.14s3.75,8.46,5.53,10.49c1.86.47,9.85,2.21,13.64-1.13,1.79-1.59,2.4-4.26,1.81-7.94-.13-.8.42-1.56,1.23-1.69.78-.13,1.56.42,1.69,1.23.76,4.75-.17,8.32-2.77,10.62-2.4,2.12-5.83,2.73-8.96,2.73Z"/>
      <path d="M621.56,166.98c-.79,0-1.56-.13-2.29-.45-.75-.33-1.09-1.2-.76-1.94.33-.74,1.2-1.08,1.94-.76,1.27.55,3.62-.06,6.15-1.61,3.8-2.33,7-6.07,7.13-8.34.22-3.69-6.23-5.55-6.29-5.57-.78-.21-1.25-1.02-1.04-1.81.21-.78,1.03-1.25,1.81-1.04.36.1,8.83,2.45,8.47,8.59-.22,3.71-4.46,8.19-8.53,10.68-1.54.94-4.12,2.25-6.59,2.25Z"/>
      <path d="M569.67,154.07c-.88,0-1.86-.35-2.91-1.06-3.33-2.26-7.41-8.26-7.41-12.04,0-4.06,1.74-5.9,5.19-9.57l1.11-1.18c1.45-1.55,3.13-2.37,4.99-2.43,3.23-.14,5.85,2.26,5.95,2.36.59.56.63,1.49.07,2.08-.56.6-1.49.63-2.08.07-.37-.34-3.76-3.29-6.77-.07l-1.12,1.19c-3.28,3.48-4.39,4.66-4.39,7.54,0,2.47,3.2,7.53,6,9.51.88.62,1.34.65,1.42.63.76-.28,1.62.11,1.9.86.29.75-.06,1.58-.8,1.88-.37.15-.75.22-1.16.22Z"/>
      <path d="M637.87,127.98c-.55,0-1.09-.31-1.34-.85-.35-.74-.03-1.62.71-1.96,5.11-2.38,10.91-4.26,15.01-5.45l-13.3-3.59c-.75-.2-1.21-.95-1.07-1.71l1.69-8.7c-9.51,1.02-15.93,4.78-19.61,11.47-.39.72-1.3.97-2.01.58-.71-.39-.97-1.29-.58-2,4.44-8.08,12.27-12.38,23.92-13.16.45-.01.91.15,1.2.5.3.34.43.81.34,1.26l-1.8,9.28,17.27,4.66c.65.18,1.1.77,1.09,1.45-.01.67-.48,1.26-1.14,1.41-.11.03-11.18,2.67-19.79,6.69-.2.1-.42.14-.63.14Z"/>
      <path d="M633.44,151.3c-.57,0-1.12-.33-1.36-.89-.32-.75.03-1.62.78-1.94h0s1.87-1.03,5.25-6.23c3.36-5.16-.5-13.8-3.79-16.33-2.82-2.17-6.54.99-6.69,1.12-.61.53-1.55.47-2.08-.15-.53-.61-.47-1.54.14-2.08.23-.2,5.69-4.89,10.43-1.24,4.63,3.56,8.63,13.87,4.47,20.27-3.88,5.98-6.15,7.16-6.56,7.34-.19.08-.39.12-.58.12Z"/>
      <path d="M582.86,153.57c-3.31,0-6.21-1.37-8.24-3.99-3.25-4.18-3.38-10.55-.3-15.84,1.97-3.4,4.38-5.34,7.14-5.77,3.85-.6,6.82,2.06,6.94,2.17.61.55.65,1.48.1,2.08-.55.61-1.48.65-2.08.1-.02-.01-2.11-1.82-4.53-1.44-1.83.29-3.52,1.75-5.01,4.33-2.48,4.27-2.45,9.31.07,12.55,2.03,2.61,5.19,3.46,8.87,2.41.79-.24,1.6.23,1.82,1.01.22.78-.23,1.6-1.01,1.82-1.3.37-2.56.55-3.77.55Z"/>
      <path d="M585.63,144.51c-.48,0-.94-.23-1.23-.66-.13-.2-3.16-4.83-1.57-9.42,1.01-2.91,3.59-5.06,7.65-6.38,3.57-1.26,6.58-1.16,8.91.33,3.47,2.22,3.92,6.65,3.94,6.84.07.81-.52,1.53-1.33,1.61-.8.05-1.53-.52-1.61-1.33,0-.03-.35-3.21-2.61-4.64-1.51-.96-3.65-.97-6.36-.01-3.16,1.03-5.1,2.55-5.8,4.54-1.12,3.2,1.21,6.79,1.23,6.83.45.68.26,1.59-.42,2.04-.25.17-.53.25-.81.25Z"/>
      <path d="M616.62,139.79c-.15,0-.3-.02-.44-.07-.78-.25-1.21-1.07-.96-1.85.14-.45,1.21-4.56-3.44-7.12-4.9-2.93-9.59,1.37-9.79,1.55-.59.55-1.53.53-2.08-.07-.56-.59-.53-1.52.06-2.08,2.22-2.1,7.86-5.22,13.28-1.97,5.46,3,5.52,8.23,4.78,10.56-.2.63-.78,1.03-1.41,1.03Z"/>
      <path d="M627.54,125.33c-.55,0-1.09-.32-1.34-.85-.03-.05-2.53-5.31-6.32-5.95-1.91-.32-3.93.63-6.04,2.8-.57.59-1.5.6-2.09.03-.59-.57-.6-1.5-.03-2.09,2.83-2.92,5.72-4.14,8.66-3.66,5.32.9,8.37,7.33,8.5,7.61.34.74.02,1.61-.71,1.96-.2.09-.41.14-.62.14Z"/>
      <path d="M593.87,121.77c-.53,0-1.04-.29-1.3-.8-.09-.19-.88-1.88.09-3.94,1.13-2.39,4.12-4.16,8.87-5.24,11.46-2.64,14.67,5.87,14.7,5.96.27.77-.12,1.61-.89,1.89-.76.27-1.61-.12-1.89-.89-.09-.24-2.41-6.1-11.27-4.08-4.93,1.13-6.4,2.72-6.83,3.56-.4.79-.16,1.39-.14,1.46.31.73,0,1.61-.73,1.94-.21.1-.42.14-.63.14Z"/>
      <path d="M595.66,116.18c-.71,0-1.34-.52-1.46-1.25-1.27-8.26-4.29-15.83-5.78-19.22-2.32,2.56-4.48,5.89-4.51,5.93-.25.38-.66.63-1.12.67-.45.06-.9-.14-1.21-.47-5.82-6.38-15.16-8.41-18.91-8.98-.8-.12-1.36-.88-1.23-1.68s.89-1.35,1.68-1.23c3.79.58,12.89,2.56,19.34,8.59,1.23-1.75,3.37-4.61,5.42-6.46.34-.31.82-.44,1.26-.35.45.09.84.38,1.05.79.21.42,5.14,10.38,6.93,21.98.12.81-.43,1.56-1.23,1.68-.08.01-.15.02-.23.02Z"/>
      <path d="M566.45,131.53c-.43,0-.85-.18-1.14-.54-.9-1.1-2.12-2.14-3.41-3.25-2.38-2.04-4.84-4.16-5.71-6.99-.23-.75.16-1.54.89-1.82l8.08-3.03c-1.45-4.08-5.45-16.1-5.2-23.68.03-.81.59-1.51,1.52-1.43.82.03,1.45.71,1.43,1.52-.29,8.46,5.45,23.77,5.51,23.93.14.37.12.77-.04,1.13-.16.36-.46.63-.82.77l-7.97,2.99c.94,1.53,2.61,2.96,4.23,4.35,1.33,1.14,2.71,2.33,3.77,3.63.52.63.42,1.56-.21,2.08-.27.22-.61.33-.93.33Z"/>
      <path d="M572.68,131.53c-.3,0-.6-.08-.86-.26-.59-.39-1.31-1.33-1.38-2.68-.13-2.54,1.92-5.53,6.27-9.13,9.17-7.59,17.44-3.9,17.79-3.75.74.34,1.06,1.22.72,1.96-.34.74-1.22,1.06-1.96.72-.28-.13-6.99-3.03-14.67,3.34-4.63,3.83-5.19,5.88-5.21,6.58-.01.39.13.54.15.55.68.45.82,1.34.37,2.02-.28.42-.75.64-1.23.64Z"/>
      <path d="M582.97,129.75c-.28,0-.57-.08-.82-.25-.67-.45-.86-1.37-.41-2.04,2.21-3.31,8.45-8.72,16.48-6.09,2.49-1.14,11.94-4.85,17.75,2.13.52.63.44,1.56-.19,2.08-.63.52-1.56.44-2.08-.19-5.06-6.07-14.61-1.16-14.71-1.11-.37.2-.81.22-1.2.07-8.19-3.08-13.39,4.43-13.6,4.75-.29.42-.75.65-1.23.65Z"/>
      <path d="M621.05,146.28c-.82,0-1.48-.66-1.48-1.48s.66-1.48,1.48-1.48c1.76,0,4.02-.27,4.81-1.56,1.39-2.26-1.21-7.44-3.11-11.22l-.37-.73c-.61-1.23-1.42-1.95-2.47-2.21-2.25-.57-5.29,1.15-6.26,1.86-.66.48-1.58.33-2.06-.33-.48-.66-.33-1.58.32-2.06.19-.14,4.61-3.33,8.69-2.34,1.92.47,3.41,1.73,4.42,3.76l.36.72c2.46,4.89,5.25,10.44,2.99,14.09-1.23,1.99-3.62,2.96-7.33,2.96Z"/>
      <path d="M592.12,146.28c-.82,0-1.48-.66-1.48-1.48v-4.43c0-.82.66-1.48,1.48-1.48s1.48.66,1.48,1.48v4.43c0,.82-.66,1.48-1.48,1.48Z"/>
      <path d="M596.85,149.83c-.82,0-1.48-.66-1.48-1.48v-10.04c0-.82.66-1.48,1.48-1.48s1.48.66,1.48,1.48v10.04c0,.82-.66,1.48-1.48,1.48Z"/>
      <path d="M600.98,148.35c-.82,0-1.48-.66-1.48-1.48v-8.56c0-.82.66-1.48,1.48-1.48s1.48.66,1.48,1.48v8.56c0,.82-.66,1.48-1.48,1.48Z"/>
      <path d="M605.4,144.81c-.82,0-1.48-.66-1.48-1.48v-6.49c0-.82.66-1.48,1.48-1.48s1.48.66,1.48,1.48v6.49c0,.82-.66,1.48-1.48,1.48Z"/>
      <path d="M610.42,141.86c-.82,0-1.48-.66-1.48-1.48v-4.72c0-.82.66-1.48,1.48-1.48s1.48.66,1.48,1.48v4.72c0,.82-.66,1.48-1.48,1.48Z"/>
      <path d="M628.9,87.58c-3.01,0-6.09-1.19-8-2.3-.69-.4-.93-1.27-.56-1.97-.2-.19-.36-.44-.43-.74-1.18-4.96,3.93-11.36,5.53-13.2.92-1.05,5.68-6.31,8.73-6.02.84.08,2.03.56,2.97,2.43,2.06,4.12,1.96,12.93-1.25,18.12-1.7,2.75-4.31,3.69-6.98,3.69ZM622.67,82.89c1.46.76,8,3.82,10.7-.54,2.45-3.95,2.72-10.81,1.43-14.5-.4-1.15-.81-1.52-.92-1.56h0c-.76,0-3.84,2.03-6.98,5.94-3.06,3.81-4.63,7.51-4.12,9.67.08.35.03.69-.11.99Z"/>
      <path d="M619.42,86.8c-4.59,0-7.89-2.3-9.2-6.52-1.3-4.17-.32-9.76,1.9-10.88,2.44-1.2,5.76,2.08,9.93,9.77.39.72.12,1.61-.59,2-.71.38-1.61.12-2-.59-2.18-4.03-4.93-7.78-6.12-8.4-.6.95-1.42,5.08.12,8.29,1.29,2.7,3.89,3.79,7.69,3.26.79-.13,1.55.45,1.67,1.26.11.81-.45,1.55-1.26,1.66-.74.1-1.44.15-2.12.15Z"/>
      <path d="M614.56,73.09c-.11,0-.23-.01-.34-.04-.79-.19-1.28-.98-1.09-1.78.33-1.38,3.41-13.53,9.99-13.53,5.37,0,7.73,4.23,8.23,6.47.18.8-.33,1.58-1.12,1.76-.8.17-1.59-.33-1.76-1.12-.1-.42-1.1-4.16-5.35-4.16-3.62,0-6.42,8.34-7.12,11.26-.16.68-.77,1.13-1.44,1.13Z"/>
      <g>
        <path class="st12" d="M612.78,85.19s-27.74-4.72-29.22-6.49c-1.48-1.77,20.66-6.2,29.52,4.13"/>
        <path d="M612.79,86.66c-.08,0-.17,0-.25-.02-12.9-2.19-28.6-5.19-30.1-7-.56-.68-.63-1.79.33-2.6,3.01-2.54,23.03-4.98,31.44,4.83.53.62.46,1.55-.16,2.08-.07.07-.16.12-.24.17.35.33.53.82.44,1.32-.12.72-.75,1.23-1.45,1.23ZM586.93,78.51c4.53,1.23,14.92,3.29,24.78,5-6.35-6.99-19.41-6.2-24.78-5Z"/>
      </g>
      <g>
        <path class="st12" d="M628.43,86.07c.59-.3,1.48-.3,2.07-.59,9.44-2.95,22.43,12.99,22.43,12.99-7.38-.3-25.09-10.33-25.09-10.33"/>
        <path d="M652.93,99.94s-.04,0-.06,0c-7.65-.31-25.02-10.1-25.76-10.52-.71-.4-.96-1.3-.56-2.01.14-.26.36-.46.61-.58-.02-.03-.03-.06-.05-.09-.37-.73-.07-1.62.65-1.98.47-.24.97-.34,1.4-.42.24-.05.54-.11.66-.17,10.49-3.31,23.68,12.69,24.24,13.37.37.45.44,1.07.18,1.59s-.76.82-1.32.82ZM629.37,87.3c2.86,1.57,12.67,6.84,19.5,8.88-4.67-4.76-12.38-11.02-17.94-9.29-.25.15-.75.25-1.18.33-.12.02-.26.05-.38.08Z"/>
      </g>
      <g>
        <path class="st12" d="M637.58,68.07c12.69-10.63,25.09.89,20.96,0-4.13-.89-21.84,2.07-21.84,2.07"/>
        <path d="M636.69,71.61c-.71,0-1.33-.51-1.45-1.23-.12-.74.32-1.44,1.02-1.65-.3-.6-.16-1.34.37-1.79,9.31-7.8,18.7-4.56,22.36-1.76,1.59,1.21,2.14,2.35,1.67,3.39-.14.31-.78,1.3-2.44.94-2.83-.62-14.28.91-21.29,2.08-.08.01-.16.02-.25.02ZM649.14,65.01c-2.61,0-5.83.71-9.24,3.12,4.17-.63,11.03-1.57,15.52-1.69-.99-.48-2.25-.94-3.77-1.21-.75-.13-1.59-.22-2.51-.22Z"/>
      </g>
      <path d="M567.33,188.2c-.26,0-.52-.07-.75-.21-.7-.42-.93-1.32-.52-2.02,9.27-15.64,13.39-17.55,14.12-17.78.78-.25,1.61.2,1.84.98.24.78-.2,1.6-.98,1.84-.06.04-3.74,1.78-12.45,16.46-.27.46-.77.72-1.27.72Z"/>
      <path d="M662.96,162.52c-.39,0-.78-.16-1.08-.46-13.38-14.22-26-12.27-26.12-12.25-.79.13-1.57-.4-1.7-1.2-.14-.8.39-1.56,1.19-1.7.58-.09,14.24-2.32,28.78,13.13.56.59.53,1.53-.06,2.09-.29.27-.65.4-1.01.4Z"/>
      <path d="M582.97,118.83c-.42,0-.84-.18-1.13-.53-1.5-1.8-10.61-14.89-11-15.45-.47-.67-.3-1.59.37-2.06.67-.47,1.59-.3,2.05.37,3.25,4.68,9.71,13.88,10.84,15.25.52.63.44,1.56-.19,2.08-.28.23-.61.34-.95.34Z"/>
      <path d="M626.65,123.56c-.27,0-.54-.07-.78-.22-.69-.43-.9-1.34-.47-2.03.14-.22,3.44-5.42,8.34-5.42.82,0,1.48.66,1.48,1.48s-.66,1.48-1.48,1.48c-3.25,0-5.81,3.99-5.83,4.03-.28.44-.76.69-1.25.69Z"/>
    </g>
    <path d="M667.98,202.36h-120.42V40.91h120.42v161.45ZM553.46,196.46h108.62V46.82h-108.62v149.64Z"/>
  </g>
  <g>
    <g>
      <path class="st0" d="M108.95,200.89V44.16h113.34v156.73h-113.34Z"/>
      <path class="st11" d="M107.77,149.24s18-12.69,57.26-12.69,57.26,21.25,57.26,21.25l-1.48,43.09h-111.86l-1.18-51.65Z"/>
      <path class="st1" d="M215.8,76.63c-3.54,1.48-23.91-8.56-23.91-8.56l-6.49.89-20.37,10.33c-5.31-3.84,6.79-11.81,6.79-11.81,0,0-5.9.3-7.38-.89-1.18-1.18,11.51-8.26,23.32-11.81,11.81-3.54,20.96-3.25,22.73-1.77s-5.31,6.79-5.31,6.79c4.43.89,14.17,15.35,10.63,16.82Z"/>
      <path class="st6" d="M174.77,66.59s8.56-1.18,8.26,2.66l-18,10.63s-1.48-7.38,2.36-8.85,7.38-4.43,7.38-4.43Z"/>
      <path class="st1" d="M164.74,97.29c-3.54,1.48-23.91-8.56-23.91-8.56l-6.49.89-20.37,10.33c-5.31-3.84,6.79-11.81,6.79-11.81,0,0-5.9.3-7.38-.89-1.18-1.18,11.51-8.26,23.32-11.81,11.81-3.54,20.96-3.25,22.73-1.77,1.77,1.48-5.31,6.79-5.31,6.79,4.72.89,14.17,15.35,10.63,16.82Z"/>
      <path class="st6" d="M124,87.25s8.56-1.18,8.26,2.66l-18,10.63s-1.48-7.38,2.36-8.85c3.54-1.48,7.38-4.43,7.38-4.43Z"/>
      <path class="st1" d="M209.01,112.05c-3.54,1.48-23.91-8.56-23.91-8.56l-6.49.89-20.37,10.33c-5.31-3.84,6.79-11.81,6.79-11.81,0,0-5.9.3-7.38-.89-1.18-1.18,11.51-8.26,23.32-11.81s20.96-3.25,22.73-1.77c1.77,1.48-5.31,6.79-5.31,6.79,4.72.89,14.17,15.35,10.63,16.82Z"/>
      <path class="st6" d="M168.28,102.01s8.56-1.18,8.26,2.66l-18,10.63s-1.48-7.38,2.36-8.85c3.54-1.48,7.38-4.43,7.38-4.43Z"/>
    </g>
    <g>
      <path d="M219.9,160.43c-.26-.21-26.56-20.64-58.12-20.64s-50.68,11.76-50.87,11.88l-1.57-2.5c.8-.5,19.92-12.33,52.44-12.33s59.68,21.06,59.95,21.27l-1.83,2.32Z"/>
      <g>
        <path d="M158.54,116.77c-.48,0-.95-.23-1.23-.66-.45-.68-.27-1.59.41-2.05.77-.52,19.05-12.63,27.92-12.94.24,0,.52.05.74.17,9.17,4.88,20.17,9.59,22.74,9.34-.22-2.05-5.91-9.22-12.67-15.84-.58-.57-.59-1.51-.02-2.09.57-.58,1.5-.59,2.09-.02,5.67,5.55,14.94,15.45,13.32,19.33-.18.44-.58,1.02-1.45,1.33-4.14,1.48-19.75-6.46-25.03-9.26-8.22.63-25.83,12.3-26.01,12.42-.25.17-.54.25-.82.25Z"/>
        <path d="M158.52,116.17c-.49,0-.96-.24-1.24-.69-.14-.23-1.36-2.35-.31-5.46,1.49-4.41,6.71-8.36,15.5-11.75.76-.29,1.61.09,1.91.85.29.76-.09,1.62-.85,1.91-9.77,3.76-12.86,7.42-13.73,9.83-.67,1.85-.02,3.05,0,3.1.39.7.16,1.6-.53,2.01-.24.14-.5.21-.76.21Z"/>
        <path d="M158.83,104.12c-3.39,0-3.79-.72-4.07-1.23-.38-.68-.27-1.48.29-2.13,2.07-2.41,20.23-12.01,27.92-12.32.79-.1,1.5.6,1.53,1.42s-.6,1.5-1.42,1.53c-5.72.23-18.46,6.58-23.63,9.76,2.29-.09,5.65-.45,8.6-.88.81-.1,1.56.44,1.68,1.24s-.44,1.56-1.24,1.68c-4.64.69-7.67.94-9.66.94Z"/>
        <path d="M198.68,96.7c-.59,0-1.14-.36-1.37-.94-.3-.76.07-1.61.83-1.91.04-.02,4.38-1.78,4.38-5.42-.89-1.12-8.77-.6-16.5,1.14-.78.18-1.58-.32-1.76-1.12-.18-.79.32-1.58,1.11-1.76,3.6-.81,15.6-3.25,18.98-.55.72.58,1.12,1.39,1.12,2.28,0,5.67-6,8.06-6.25,8.16-.18.07-.36.1-.53.1Z"/>
        <path d="M176.54,106.14c-.76,0-1.41-.59-1.47-1.36-.18-2.33-3.62-2.18-3.76-2.18-.76.06-1.5-.58-1.55-1.39-.04-.81.57-1.51,1.38-1.55,2.23-.13,6.55.72,6.87,4.9.06.81-.55,1.52-1.36,1.59-.04,0-.08,0-.12,0Z"/>
        <path d="M201.63,107.91c-.24,0-.48-.06-.7-.18l-16.23-8.85c-.72-.39-.98-1.29-.59-2,.39-.72,1.29-.98,2-.59l16.23,8.85c.72.39.98,1.29.59,2-.27.49-.77.77-1.3.77Z"/>
        <path d="M170.64,99.06c-.66,0-1.26-.45-1.43-1.12-.2-.79.28-1.59,1.07-1.79l5.9-1.48c.79-.2,1.59.28,1.79,1.07.2.79-.28,1.59-1.07,1.79l-5.9,1.48c-.12.03-.24.04-.36.04Z"/>
        <path d="M192.48,95.22c-.56,0-1.1-.32-1.34-.86-1.02-2.24-5.02-2.09-5.07-2.09-.77.07-1.51-.58-1.55-1.39-.04-.81.57-1.51,1.38-1.56.24-.02,6.05-.31,7.92,3.81.34.74.01,1.62-.73,1.95-.2.09-.41.13-.61.13Z"/>
      </g>
      <g>
        <path d="M113.38,102.31c-.48,0-.95-.23-1.23-.66-.45-.68-.27-1.59.41-2.05.77-.52,19.05-12.63,27.92-12.94.26,0,.51.05.74.17,9.18,4.88,20.2,9.63,22.74,9.34-.22-2.05-5.91-9.22-12.66-15.84-.58-.57-.59-1.5-.02-2.09.57-.58,1.5-.59,2.09-.02,5.67,5.55,14.93,15.45,13.32,19.33-.18.44-.58,1.02-1.45,1.33-4.13,1.48-19.75-6.46-25.03-9.26-8.22.63-25.83,12.3-26.01,12.42-.25.17-.54.25-.82.25Z"/>
        <path d="M113.36,101.7c-.49,0-.96-.24-1.24-.69-.14-.23-1.36-2.35-.31-5.46,1.49-4.41,6.71-8.36,15.5-11.75.76-.29,1.61.09,1.91.85.29.76-.09,1.62-.85,1.91-9.77,3.76-12.86,7.42-13.73,9.83-.67,1.85-.02,3.05,0,3.1.39.7.16,1.6-.53,2.01-.24.14-.5.21-.76.21Z"/>
        <path d="M113.67,89.65c-3.39,0-3.79-.72-4.07-1.23-.38-.68-.27-1.48.29-2.13,2.07-2.41,20.23-12.01,27.92-12.32.81-.11,1.5.6,1.53,1.42s-.6,1.5-1.42,1.53c-5.72.23-18.46,6.58-23.63,9.76,2.29-.09,5.65-.45,8.6-.88.82-.1,1.56.44,1.68,1.24.12.81-.44,1.56-1.24,1.68-4.64.69-7.67.94-9.66.94Z"/>
        <path d="M153.52,82.24c-.59,0-1.14-.36-1.37-.94-.3-.76.07-1.61.83-1.91.04-.02,4.38-1.78,4.38-5.42-.89-1.12-8.76-.6-16.5,1.14-.79.18-1.58-.32-1.76-1.12-.18-.79.32-1.58,1.11-1.76,3.6-.81,15.6-3.25,18.98-.55.72.58,1.12,1.39,1.12,2.28,0,5.67-6,8.06-6.25,8.16-.18.07-.36.1-.53.1Z"/>
        <path d="M131.38,91.68c-.76,0-1.41-.59-1.47-1.36-.18-2.34-3.62-2.19-3.76-2.18-.77.05-1.51-.58-1.55-1.39s.57-1.51,1.38-1.55c2.23-.15,6.55.72,6.87,4.9.06.81-.55,1.52-1.36,1.59-.04,0-.08,0-.12,0Z"/>
        <path d="M156.77,93.45c-.23,0-.47-.06-.7-.17l-16.53-8.85c-.72-.38-.99-1.28-.6-2,.38-.72,1.28-.99,2-.6l16.53,8.85c.72.38.99,1.28.6,2-.27.5-.78.78-1.3.78Z"/>
        <path d="M125.48,84.6c-.69,0-1.31-.48-1.45-1.19-.16-.8.36-1.58,1.16-1.74l5.9-1.18c.81-.16,1.58.36,1.74,1.16.16.8-.36,1.58-1.16,1.74l-5.9,1.18c-.1.02-.2.03-.29.03Z"/>
        <path d="M147.62,81.05c-.56,0-1.1-.32-1.34-.86-1.02-2.24-5.02-2.09-5.07-2.09-.8.04-1.51-.58-1.55-1.39-.04-.81.57-1.51,1.38-1.56.25-.02,6.05-.31,7.92,3.81.34.74.01,1.62-.73,1.95-.2.09-.41.13-.61.13Z"/>
      </g>
      <g>
        <path d="M164.74,81.64c-.48,0-.95-.23-1.23-.66-.45-.68-.27-1.59.41-2.05.77-.52,19.05-12.63,27.92-12.94.23,0,.51.05.74.17,9.18,4.88,20.2,9.66,22.74,9.34-.22-2.05-5.91-9.22-12.66-15.84-.58-.57-.59-1.5-.02-2.09.57-.58,1.5-.59,2.09-.02,5.67,5.55,14.93,15.45,13.32,19.33-.18.44-.58,1.02-1.45,1.33-4.14,1.48-19.75-6.46-25.03-9.26-8.22.63-25.83,12.3-26.01,12.42-.25.17-.54.25-.82.25Z"/>
        <path d="M164.72,81.04c-.49,0-.96-.24-1.24-.69-.14-.23-1.36-2.35-.31-5.46,1.49-4.41,6.71-8.36,15.5-11.75.76-.29,1.61.09,1.91.85.29.76-.09,1.62-.85,1.91-9.77,3.76-12.86,7.42-13.73,9.83-.67,1.86-.02,3.05,0,3.1.39.7.16,1.6-.53,2.01-.24.14-.5.21-.76.21Z"/>
        <path d="M165.03,68.99c-3.39,0-3.79-.72-4.07-1.23-.38-.68-.27-1.48.29-2.13,2.07-2.41,20.23-12.01,27.92-12.32.76-.08,1.5.6,1.53,1.42.03.81-.6,1.5-1.42,1.53-5.72.23-18.46,6.58-23.63,9.76,2.29-.09,5.65-.45,8.6-.88.81-.11,1.56.44,1.68,1.24.12.81-.44,1.56-1.24,1.68-4.64.69-7.67.94-9.66.94Z"/>
        <path d="M204.58,61.57c-.59,0-1.14-.36-1.37-.94-.3-.76.07-1.61.83-1.91.04-.02,4.38-1.78,4.38-5.42-.89-1.12-8.76-.6-16.5,1.14-.78.18-1.58-.32-1.76-1.12-.18-.79.32-1.58,1.11-1.76,3.6-.81,15.6-3.25,18.98-.55.72.58,1.12,1.39,1.12,2.28,0,5.67-6,8.06-6.25,8.16-.18.07-.36.1-.53.1Z"/>
        <path d="M182.74,71.02c-.76,0-1.41-.59-1.47-1.36-.18-2.34-3.62-2.18-3.76-2.18-.79.07-1.51-.58-1.55-1.39-.04-.81.57-1.51,1.38-1.55,2.23-.14,6.55.72,6.87,4.9.06.81-.55,1.52-1.36,1.58-.04,0-.08,0-.11,0Z"/>
        <path d="M207.83,72.79c-.24,0-.48-.06-.7-.18l-16.23-8.85c-.72-.39-.98-1.29-.59-2,.39-.72,1.29-.98,2-.59l16.23,8.85c.72.39.98,1.29.59,2-.27.49-.77.77-1.3.77Z"/>
        <path d="M176.84,63.93c-.66,0-1.26-.45-1.43-1.12-.2-.79.28-1.59,1.07-1.79l5.9-1.48c.78-.21,1.59.28,1.79,1.07.2.79-.28,1.59-1.07,1.79l-5.9,1.48c-.12.03-.24.04-.36.04Z"/>
        <path d="M198.68,60.1c-.56,0-1.1-.32-1.34-.86-1.02-2.24-5.03-2.09-5.07-2.09-.8.08-1.51-.58-1.55-1.39-.04-.81.57-1.51,1.38-1.56.24-.02,6.05-.31,7.92,3.81.34.74.01,1.62-.73,1.95-.2.09-.41.13-.61.13Z"/>
      </g>
      <path d="M221.11,169.6c-.29,0-.58-.08-.83-.26-.34-.23-34.01-22.53-73.44-1.4-.72.39-1.61.12-2-.6-.39-.72-.12-1.61.6-2,41.05-22.01,76.15,1.32,76.5,1.56.67.46.85,1.37.39,2.05-.29.42-.75.65-1.22.65Z"/>
      <path d="M185.99,184.65c-.3,0-.6-.09-.87-.28-36.69-26.66-74.45-14.96-74.83-14.84-.77.26-1.61-.17-1.86-.95-.25-.78.17-1.61.95-1.86.39-.13,39.52-12.31,77.47,15.26.66.48.81,1.4.33,2.06-.29.4-.74.61-1.19.61Z"/>
      <path d="M109.84,201.48c-.55,0-1.08-.31-1.33-.84-.35-.74-.04-1.62.7-1.97.56-.27,56.92-26.63,112.3-11.3.79.22,1.25,1.03,1.03,1.81-.22.79-1.04,1.25-1.82,1.03-54.3-15.01-109.69,10.87-110.25,11.13-.2.1-.42.14-.63.14Z"/>
      <path d="M153.52,163.55c-.14,0-.28-.04-.4-.12-16.22-10.43-36.75-15.2-36.96-15.24-.4-.09-.65-.49-.55-.88s.48-.64.88-.56c.21.05,20.98,4.87,37.42,15.45.34.22.44.67.22,1.02-.14.22-.38.34-.62.34Z"/>
      <path d="M175.36,157.94c-.2,0-.4-.08-.54-.24-6.88-7.46-32.51-16.83-32.77-16.93-.38-.14-.58-.56-.44-.95.14-.38.56-.58.95-.44,1.07.39,26.22,9.59,33.35,17.31.28.3.26.77-.04,1.04-.14.13-.32.2-.5.2Z"/>
      <path d="M197.5,159.42c-.22,0-.44-.1-.58-.28-9.53-12.13-20.05-18.35-20.16-18.41-.35-.2-.47-.66-.27-1.01.2-.35.65-.48,1.01-.27.11.06,10.86,6.41,20.57,18.78.25.32.2.78-.13,1.03-.13.11-.3.16-.46.16Z"/>
      <path d="M177.13,178.01c-.21,0-.42-.09-.56-.26-.26-.31-.22-.78.09-1.04.78-.66,19.32-16.13,35.09-14.33.4.05.7.41.65.82-.05.41-.42.68-.82.65-15.13-1.7-33.79,13.84-33.97,14-.14.12-.31.17-.48.17Z"/>
      <path d="M136.99,191.29c-.15,0-.3-.04-.43-.14-8.07-5.76-28.79-11.93-29-11.99-.39-.12-.61-.52-.5-.92.12-.39.53-.62.92-.5.86.25,21.17,6.3,29.44,12.21.33.24.41.7.17,1.03-.14.2-.37.31-.6.31Z"/>
      <path d="M165.03,185.69c-.18,0-.35-.06-.49-.19-11.27-10.12-36.41-19.54-36.66-19.63-.38-.14-.58-.57-.43-.95.14-.38.57-.58.95-.44,1.04.39,25.65,9.61,37.13,19.91.3.27.33.74.06,1.04-.15.16-.35.25-.55.25Z"/>
      <path d="M174.77,200.44c-.19,0-.38-.07-.52-.22-.29-.29-.29-.76,0-1.04,9.49-9.49,31.9-13.89,32.85-14.07.4-.1.79.18.86.59.08.4-.19.79-.59.86-.23.05-22.91,4.5-32.09,13.67-.14.14-.33.22-.52.22Z"/>
    </g>
    <path d="M225.24,202.36h-120.42V40.91h120.42v161.45ZM110.72,196.46h108.62V46.82h-108.62v149.64Z"/>
  </g>
</svg>