<?xml version="1.0" encoding="UTF-8"?>
<svg id="_レイヤー_1" data-name="レイヤー_1" xmlns="http://www.w3.org/2000/svg" version="1.1" viewBox="0 0 800 500">
  <!-- Generator: Adobe Illustrator 30.1.0, SVG Export Plug-In . SVG Version: 2.1.1 Build 136)  -->
  <defs>
    <style>
      .st0 {
        fill: #ff7d6c;
      }

      .st1 {
        fill: #1f2524;
      }

      .st2 {
        fill: #bbc7c5;
      }

      .st3 {
        fill: #fff;
      }

      .st4 {
        fill: #7faaa5;
      }

      .st5 {
        fill: #ff398a;
      }

      .st6 {
        fill: #bee1de;
      }
    </style>
  </defs>
  <path id="ID0.7894273176789284" class="st6" d="M0,0h800v500H0V0Z"/>
  <path id="ID0.9512851000763476" class="st4" d="M0,461.25h800v38.75H0v-38.75Z"/>
  <path id="ID0.43796758260577917" class="st3" d="M702.34,475.14l-13.33-92.08-11.11-57.22v-59.86l-20.28-92.08-31.39-2.92v19.58h-21.53v-20.14h-35.56l-113.75,6.94-11.11,26.53-27.92,76.67-9.03,43.89-25.69,87.22-10.56-17.5-7.08-64.86-16.67-15.97-174.31,11.81-14.03,27.22-54.31,147.64h602.5l-4.86-24.86"/>
  <path id="ID0.02576980646699667" class="st2" d="M364,329.31l7.08,64.86,10.56,17.5,18.06,88.33h-117.36v-57.22l-35.42-99.72,42.36-6.81,58.06-22.92,16.67,15.97"/>
  <path id="ID0.5697280457243323" class="st2" d="M480.11,175.83l7.08,93.61,12.64-94.86-19.72,1.25"/>
  <path id="ID0.2620850307866931" class="st2" d="M544.14,500l75-79.17,19.44-58.33,11.11-73.61,21.25-54.31,6.94,31.39v59.86l20.69,85.97,3.75,63.33,11.25,24.86h-169.44"/>
  <g id="ID0.24294709274545312">
    <g id="ID0.7002508258447051">
      <path id="ID0.9477263460867107" class="st1" d="M567.75,164.31h3.19v6.11h-3.19v-6.11Z"/>
      <path id="ID0.31264815805479884" class="st3" d="M567.75,166.25h1.53v4.03h-1.53v-4.03Z"/>
    </g>
    <g id="ID0.6307668429799378">
      <path id="ID0.7270407564938068" class="st1" d="M562.2,164.31h3.19v6.11h-3.19v-6.11Z"/>
      <path id="ID0.6311413403600454" class="st3" d="M562.2,166.25h1.53v4.03h-1.53v-4.03Z"/>
    </g>
    <g id="ID0.9268580689094961">
      <path id="ID0.7606201190501451" class="st1" d="M556.64,164.31h3.19v6.11h-3.19v-6.11Z"/>
      <path id="ID0.23257987387478352" class="st3" d="M556.64,166.25h1.53v4.03h-1.53v-4.03Z"/>
    </g>
  </g>
  <g id="ID0.3595051821321249">
    <path id="ID0.04579595662653446" class="st3" d="M626.22,148.47h1.39v22.64h-1.39v-22.64Z"/>
    <path id="ID0.6501173446886241" class="st0" d="M629,148.47l13.47,5.69-13.47,5.69v-11.39"/>
  </g>
  <g id="ID0.4114694697782397">
    <path id="ID0.8039128594100475" class="st6" d="M604.7,170.97h21.53v19.31h-21.53v-19.31Z"/>
    <path id="ID0.6159845408983529" class="st5" d="M604.7,190.42h21.53v2.22h-21.53v-2.22Z"/>
  </g>
  <circle class="st3" cx="203.11" cy="318.33" r="4.1"/>
</svg>