<?xml version="1.0" encoding="utf-8"?>
<!-- Generator: Adobe Illustrator 17.1.0, SVG Export Plug-In . SVG Version: 6.00 Build 0)  -->
<!DOCTYPE svg PUBLIC "-//W3C//DTD SVG 1.1//EN" "http://www.w3.org/Graphics/SVG/1.1/DTD/svg11.dtd">
<svg version="1.1" id="レイヤー_1" xmlns="http://www.w3.org/2000/svg" xmlns:xlink="http://www.w3.org/1999/xlink" x="0px"
	 y="0px" viewBox="0 0 801 495" enable-background="new 0 0 801 495" xml:space="preserve">
<rect x="0.1" y="0" fill="#54688E" width="800.9" height="495"/>
<rect x="0" y="46.2" fill="#FFFFFF" width="801" height="404.2"/>
<g>
	<line fill="none" stroke="#54688E" stroke-width="1.786" stroke-miterlimit="10" x1="285.3" y1="41.5" x2="285.3" y2="450.4"/>
</g>
<path fill="none" stroke="#FF151B" stroke-width="2" stroke-miterlimit="10" d="M401.9,296.7c-29.4,0-53.4-22.5-53.4-50.3
	s23.8-50.3,53.4-50.3"/>
<g>
	<ellipse fill="none" stroke="#FF151B" stroke-width="2" stroke-miterlimit="10" cx="104" cy="148.5" rx="48.7" ry="45.8"/>
	<ellipse fill="none" stroke="#FF151B" stroke-width="2" stroke-miterlimit="10" cx="104" cy="343.4" rx="48.7" ry="45.8"/>
</g>
<ellipse fill="#FF151B" cx="103.9" cy="148.9" rx="6.3" ry="5.1"/>
<ellipse fill="#FF151B" cx="103.9" cy="343" rx="6.3" ry="5.1"/>
<ellipse fill="#FF151B" cx="312.3" cy="148.9" rx="6.3" ry="5.1"/>
<ellipse fill="#FF151B" cx="312.3" cy="343" rx="6.3" ry="5.1"/>
<g>
	<rect x="0" y="445.6" fill="#00D7FF" width="401.9" height="9.5"/>
	<rect x="0" y="36.7" fill="#00D7FF" width="401.9" height="9.5"/>
</g>
<g>
	<line fill="none" stroke="#54688E" stroke-width="1.786" stroke-miterlimit="10" x1="518.4" y1="450.4" x2="518.4" y2="41.5"/>
</g>
<path fill="none" stroke="#FF151B" stroke-width="2" stroke-miterlimit="10" d="M401.9,196.2c29.6,0,53.4,22.5,53.4,50.3
	s-24,50.3-53.4,50.3"/>
<g>
	<ellipse fill="none" stroke="#FF151B" stroke-width="2" stroke-miterlimit="10" cx="699.7" cy="148.5" rx="48.7" ry="45.8"/>
	<ellipse fill="none" stroke="#FF151B" stroke-width="2" stroke-miterlimit="10" cx="699.7" cy="343.4" rx="48.7" ry="45.8"/>
</g>
<ellipse fill="#FF151B" cx="699.8" cy="148.9" rx="6.3" ry="5.1"/>
<ellipse fill="#FF151B" cx="699.8" cy="343" rx="6.3" ry="5.1"/>
<ellipse fill="#FF151B" cx="491.5" cy="148.9" rx="6.3" ry="5.1"/>
<ellipse fill="#FF151B" cx="491.5" cy="343" rx="6.3" ry="5.1"/>
<g>
	<rect x="401.9" y="445.6" fill="#00D7FF" width="399.2" height="9.5"/>
	<rect x="401.9" y="36.7" fill="#00D7FF" width="399.2" height="9.5"/>
</g>
<ellipse fill="#D3D3D3" cx="278" cy="332.2" rx="35.7" ry="21.4"/>
<ellipse fill="#D3D3D3" cx="532.2" cy="332.2" rx="35.7" ry="21.4"/>
<g>
	<g>
		<g id="Layer_8_1_">
			<path fill="#FAA51D" stroke="#231F20" stroke-width="1.2" d="M265.7,322.6c-2.2-1.1-7.9-1.9-11.2-5.1c-7.1-7-2.9-16.4,0.5-16.5
				c2.7-0.1,2.6,4.2,3.5,8.4c0.7,3,1.3,5.3,4.8,7.3c3.6,2,5.2,2.2,5.2,2.2s2.5,0.6,1.2,2C268.5,322.2,265.7,322.6,265.7,322.6z"/>
			<path fill="#FFFFFF" d="M258.5,310.4c-0.1-0.4-0.2-0.7-0.2-1.1c-0.9-4-0.7-7.9-3.3-7.9s-5.7,5.9-3.2,11.6
				c0.2-0.1,0.3-0.2,0.5-0.5c0.4-0.5,0.6-2.3,2-2.8C255.2,309.4,257.3,310,258.5,310.4z"/>
		</g>
		<path fill="#FAA51D" stroke="#231F20" stroke-width="1.2" d="M287.4,306.7c0,0,1.1,1.7,1.1,3.8c0.1,2-0.3,5.3,1.4,6.2
			c2.6,1.4,7.6-0.4,7.7,3.9s-7.7,2.7-10.1,1.9c-2-0.7-3.5-1.4-3.9-3.9c0,0-2.9-10.6-0.2-11.8C286.2,305.4,287.4,306.7,287.4,306.7z"
			/>
		<path fill="#FAA51D" stroke="#231F20" stroke-width="1.2" d="M258.7,327.9c0,0,1.1,7.9-4.5,6.4c-4.2-1.1-4.3-15.7-0.3-15.7
			c2.4,0,3.3,2.2,3.3,2.2s3.3,3.6,5.2,3.3c2-0.4,6.1-5.1,6.1-5.1s2.2-1.9,4.6,0c2.5,2,1.1,4.7,1.1,4.7s-4.6,5.4-8.3,6.1
			c-3.7,0.8-7.1-2-8.8-2.6"/>
		<g id="Layer_6_1_">
			<path fill="#FAA51D" stroke="#231F20" stroke-width="1.2" d="M279.7,317.8c0,0,3.7,3.1,6.2,5.7c3.3,3.5-2.5,11.4-2.5,11.4
				s8.5,4.9,2.3,8.3c-2,1.1-11.9-10-11.9-10s6.1-5.7,3.8-7.7c-3.8-3.3-8.2-3.8-8.8-7.4c-0.4-2.3,0.5-3.4,2-5.4
				c1.1-1.3,1.6-2.4,1.6-2.4s0.8-5.4,3.3-6.3c2.4-0.8,6.7,0.1,8.2,0.3c1.4,0.2,5,1.4,3.5,7.5c0,0-1.1,2.9-2.1,4.4
				c-1.2,1.8-2.2,3-3.1,3.7"/>
			<path fill="#FFFFFF" d="M285.6,315.1c0,0,1.9-2-2-4.2c-3.9-2-5.6,0-6.8,1.2c-2,2,2.5,5.7,2.5,5.7l2.6,2c0,0,1.4-1.2,2-2.3
				C284.6,316.4,285.6,315.1,285.6,315.1"/>
		</g>
		<path fill="#FAA51D" stroke="#231F20" stroke-width="1.2" d="M266.1,309.6c0.7,0.1,2.7,0.2,4.6,0.3c2.3,0.2,6.4-0.4,4.4-3.9
			c-2-3.5-5.1-2.8-9.1-2.9c-2.1,0-4.4-1.1-5.5,1.4c-1.1,2.5-3.9,10.1,1.7,11.7c5.6,1.6,3.5-6.1,3.7-7.9"/>
		<g id="Layer_2_1_">
			<path fill="#FAA51D" stroke="#231F20" stroke-width="1.2" d="M286.8,267.8c-1.1-0.1-3.6-0.2-4.9-0.2c-3.6,0.2-7,1.4-7,1.4
				l-9.8-6.4l1.7,14.3c0.5-0.6-8,9.7-2.6,18.3s16.8,12.5,31,9.7c14.2-2.8,17.6-11,16.7-15.3s-6.3-5.9-6.3-5.9s-0.1-3.4-2.5-7.6
				c-1.4-2.5-6.3-6.1-6.3-6.1l-2.2-8.8l-5.7,5.4L286.8,267.8z"/>
			<path fill="#FFFFFF" d="M304.7,283.6l-1.9-1.6l-6.9,2c0,0,0,2.6-3.3,3.3s-8.5-1.7-8.5-1.7l-5.9,2.6c0,0-6.4,0.7-6.6,4.6
				c-0.5,8.7,10.1,12.3,14.2,12.5c2.2,0.2,6.2-0.2,9.3-0.8c13.5-2.4,17.1-10.5,16.1-14.8c-0.9-4.3-6.1-5.4-6.1-5.4L304.7,283.6z"/>
			<path fill="none" stroke="#231F20" stroke-width="1.2" d="M255,292c0,0,3.1,0.3,4.5,0.2c1.4-0.1,4.2-0.5,4.2-0.5"/>
			<path fill="none" stroke="#231F20" stroke-width="1.2" d="M308.7,287.9c0,0,3.4-0.5,5.2-1.1c2-0.7,3.4-1.9,3.4-1.9"/>
			<path fill="none" stroke="#231F20" stroke-width="1.2" d="M263.8,288.8c0,0-1.8-1.4-4.6-2.6c-3.1-1.4-4.8-1.7-4.8-1.7"/>
			<path fill="none" stroke="#231F20" stroke-width="1.2" d="M309,292.4c0,0,2,0.8,4.2,1.1c2.1,0.2,3.5,0.1,3.5,0.1"/>
			<path fill="none" stroke="#000000" stroke-linecap="round" stroke-miterlimit="10" d="M286.5,267.8c2.1,0.5,3,1.1,3,1.1"/>
			<line fill="none" stroke="#000000" x1="272.6" y1="267.5" x2="277.2" y2="270.7"/>
		</g>
		<g id="Layer_5_1_">
			<path fill="#FFFFFF" stroke="#231F20" d="M301.2,276.3c2.2,3.4,2.3,7.3,0.2,8.6c-2.1,1.4-5.6-0.2-7.9-3.6
				c-2.2-3.4-2.3-7.3-0.2-8.6C295.6,271.2,299,272.9,301.2,276.3z"/>
			<path fill="#231F20" d="M300.7,281.7c0,0.8-0.6,1.5-1.4,1.5c-0.8,0-1.4-0.7-1.4-1.5s0.6-1.5,1.4-1.5
				C300.1,280.2,300.7,280.8,300.7,281.7"/>
		</g>
		<g id="Layer_7_1_">
			<path fill="#FFFFFF" stroke="#231F20" d="M283.2,278.7c2.2,3.4,2,7.5-0.5,9.1c-2.5,1.7-6.4,0.2-8.6-3.2c-2.2-3.4-2-7.5,0.5-9.1
				C277.1,274,280.9,275.3,283.2,278.7z"/>
			<path fill="#231F20" d="M281.8,283.2c0,0.8-0.6,1.5-1.4,1.5c-0.8,0-1.4-0.7-1.4-1.5s0.6-1.5,1.4-1.5
				C281.2,281.8,281.8,282.4,281.8,283.2"/>
		</g>
		<path fill="#5E4A42" stroke="#000000" d="M292.2,285.8c1.4,0,3.5-0.2,3.6,0.5c0.1,0.7-1.3,3.2-2.3,3.3s-4.6-1.8-4.7-3
			S290.9,285.8,292.2,285.8z"/>
		<g id="Layer_4_1_">
			<path fill="none" stroke="#231F20" stroke-width="1.2" d="M282.3,291.3c0,0,7.8,2.3,10.7,3c3,0.6,8.2,1.3,8.2,1.3
				s-6.1,7.7-13.1,5.8C281.1,299.4,281.2,294.9,282.3,291.3z"/>
		</g>
	</g>
	<polyline fill="none" stroke="#000000" stroke-width="3" stroke-miterlimit="10" points="262.7,319.1 286.1,335 302.1,335 	"/>
	<polyline fill="none" stroke="#FFFFFF" stroke-width="3" stroke-miterlimit="10" points="262.7,316.9 286.1,332.8 302.1,332.8 	"/>
</g>
<ellipse fill="#D3D3D3" cx="258" cy="220.2" rx="35.7" ry="21.4"/>
<ellipse fill="#D3D3D3" cx="542.9" cy="216.2" rx="35.7" ry="21.4"/>
<g>
	<g>
		<path id="Back_Leg" fill="#FAA51D" stroke="#000000" d="M256.5,212.6c0,0-6.9,4.9-13.4,6.6l0.1,0.2c0.9,1.4,4.6,5.9-0.2,7.5
			c-4.2,1.3-11.9-10.3-8.5-12.5c2-1.3,3.8-0.2,3.8-0.2s2.7-0.9,4.7-1.8c3.4-1.7,4.6-2.7,4.6-2.7s3.3-3.4,5.4-3.2
			C255,206.5,259.1,210.1,256.5,212.6z M241.2,219.9l1.8-0.5"/>
		<g id="Tail">
			<path id="Tail_1_" fill="#FAA51D" stroke="#000000" d="M244.1,206.6c-1.9-0.4-4.2-1-6-2.7c-4.3-3.8-5.7-10.2-8.6-8.6
				c-3.1,1.6-3,11.9,6.6,15.1c3.3,1.1,6.3,1.1,8.7,1c0.6,0,6-0.5,7.9-3.2c1.9-2.7,0.5-3.4-0.1-3.7
				C251.8,204.1,246.8,207.1,244.1,206.6z"/>
			<path id="Tail_Tip" fill="#FFFFFF" d="M229.5,195.5c-1.1,0.6-1.8,2.7-1.6,5c0.1,1.3,0.9,4.5,3.9,7.1c0.2-0.4-0.8-2.3,0.5-3.5
				c1.4-1.2,3.8-0.9,4.6-0.9c-1.3-1.4-2.4-3-3.3-4.4C232,196.1,231,194.7,229.5,195.5z"/>
		</g>
		<path id="R_Arm" fill="#FAA51D" stroke="#000000" d="M267.4,203.4c0,0,0.9,0.2,3.7,2.9c2.7,2.7,4.7,1.7,7,0.5
			c2.3-1.1,8.2-4.8,5.1-7.7c-3.2-2.9-4.9,0.9-7.6,1.9c-2.7,1-4-2-5.4-3.4c-0.5-0.5-0.9-0.9-1.3-1.2c0,0-0.8-0.6-1.5,2.2
			C266.6,201.4,265.8,202.2,267.4,203.4z"/>
		<g id="Front_Leg_x2F_Body_1_">
			<path id="Front_Leg_x2F_Body" fill="#FAA51D" stroke="#000000" d="M263.1,208.9c0.9-0.7,1.9-1.9,3.1-3.7c1-1.5,2.1-4.4,2.1-4.4
				c0.7-2,1.5-5.2-1.5-5.7c-1.3-0.2-3.2-0.1-6-0.6s-5.3-2-7.5,1.7c-2.1,3.8-7.5,6.5-0.9,13c0,0,3.8,3,8.5,7.5
				c3.8,3.8,9.4,8.3,9.4,8.3s14.9,1.7,15.3-0.5c1.5-7.7-11.6-5.4-11.6-5.4s-3.6-3.1-5.3-4.6c-2.7-2.4-8.7-8.5-8.7-8.5"/>
			<path id="Belly" fill="#FFFFFF" d="M264.9,199.8c-3.8-2.1-5.7,0-6.8,1.2c-2,2.1,2.7,5.2,2.7,5.2l2.4,2.4c2.4-2.7,3.6-4.6,4.2-6.2
				C267.2,201.6,266.6,200.7,264.9,199.8z"/>
		</g>
		<path id="L_Arm" fill="#FAA51D" stroke="#000000" d="M250,202c0.5-0.5,2.3-1.7,3.8-2.9c1.9-1.4,4.8-4.6,0.9-6
			c-3.9-1.4-5.9,1.3-9,3.8c-1.7,1.4-4.2,2.1-3.4,4.9c0.8,2.7,3.8,10.5,9.3,8s-1.4-7.2-2.4-8.8"/>
		<g id="Head">
			<g id="Head_1_">
				<path id="Head_Fill" fill="#FAA51D" stroke="#000000" d="M293.8,178.5c-1.2-5-7-6-7-6s0.2-4.2-2-8.1c-1.5-2.6-6.6-6.3-6.6-6.3
					l-2.3-9.1l-5.8,5.7l-2.3,0.9c-1.2-0.1-3.7-0.2-5.1-0.2c-3.7,0.2-7.2,1.6-7.2,1.6l-10.1-6.7l1.7,14.8c0.5-0.6-8.3,10.1-2.7,19
					c2.6,4.2,8,7.9,12.3,9.3c3.2,1.1,8.5,1.3,11,1.3c2,0,6.1-0.4,8.1-0.8c2.4-0.4,5.1-1.3,7.9-2.4
					C291.1,188.7,294.9,183.6,293.8,178.5z M257.1,158.7l-1.6-1.6 M268,155.5c1.6,0.2,3.4,1.1,3.4,1.1"/>
				<path id="Muzzle" fill="#FFFFFF" d="M286.4,172.7l-2.3-2.4l-7.1,2.1c0,0,0,1.3-1.1,2.3c-0.5,0.5-1.3,0.9-2.3,1.1
					c-3.5,0.8-8.8-1.8-8.8-1.8l-6.1,2.7c0,0-3.7,0.4-5.7,2.4c-0.6,0.6-1.1,1.4-1.2,2.4c-0.4,6.6,6.8,10.4,11.9,12.3
					c1.4,0.5,1.9,0.7,2.7,0.9c0,0,5.8-0.2,8-0.5c2.4-0.3,6-1.4,8.8-2.5c7.5-3.1,11.5-7.9,10.3-13
					C292.3,173.6,286.4,172.7,286.4,172.7z"/>
			</g>
			<g id="L_Eye">
				<path id="Eyeball_1_" fill="#FFFFFF" stroke="#000000" d="M264,167c2.3,3.5,2,7.8-0.5,9.4c-2.6,1.7-6.6,0.2-8.9-3.3
					c-2.3-3.5-2-7.8,0.5-9.4C257.8,162,261.7,163.5,264,167"/>
				<path id="Pupil_1_" d="M262.7,171.6c0,0.9-0.6,1.6-1.4,1.6s-1.4-0.7-1.4-1.6s0.6-1.6,1.4-1.6C262,170.1,262.7,170.8,262.7,171.6
					"/>
			</g>
			<g id="R_Eye">
				<path id="Eyeball" fill="#FFFFFF" stroke="#000000" d="M282.7,164.6c2.3,3.5,2.6,7.4,0.4,8.8c-2.2,1.4-5.7-0.5-7.9-3.9
					c-2.3-3.5-2.4-7.1-0.2-8.6C277,159.4,280.3,161,282.7,164.6"/>
				<path id="Pupil" d="M282.3,170.1c0,0.9-0.6,1.6-1.4,1.6s-1.4-0.7-1.4-1.6s0.6-1.6,1.4-1.6S282.3,169.2,282.3,170.1"/>
			</g>
			<path id="Nose" fill="#5E4A42" stroke="#000000" d="M273.4,174.3c1.5,0,3.6-0.2,3.7,0.5s-1.3,3.3-2.4,3.4c-1,0.1-4.8-1.9-4.9-3.1
				C269.8,173.8,272,174.3,273.4,174.3"/>
			<path id="Whisker_3_" d="M243.7,177.8c0,0-1.9-1.4-4.7-2.7c-3.1-1.4-4.9-1.8-4.9-1.8l0.2-0.9c0.1,0,1.9,0.4,5.1,1.8
				c3,1.3,4.8,2.7,4.9,2.7L243.7,177.8L243.7,177.8z"/>
			<path id="Whisker_2_" d="M238.9,181.5c-1.6,0-4-0.2-4.1-0.2l0.1-0.9c0,0,3.2,0.3,4.6,0.2c1.4-0.1,4.2-0.5,4.2-0.5l0.2,0.9
				c-0.1,0-2.9,0.4-4.3,0.5C239.4,181.5,239.1,181.5,238.9,181.5L238.9,181.5z"/>
			<path id="Whisker_1_" d="M290.6,176.9l-0.2-0.9c0,0,3.5-0.5,5.3-1.2c2-0.7,3.4-1.9,3.4-1.9l0.6,0.7c-0.1,0.1-1.5,1.3-3.7,2.1
				C294.3,176.4,290.8,176.9,290.6,176.9L290.6,176.9z"/>
			<path id="Whisker" d="M297.8,182.8c-0.6,0-1.5,0-2.5-0.2c-2.3-0.2-4.4-1.1-4.5-1.1l0.3-0.9c0,0,2.1,0.9,4.2,1
				c2.1,0.2,3.5,0.1,3.5,0.1l0.1,0.9C299,182.8,298.5,182.8,297.8,182.8L297.8,182.8z"/>
			<path id="Mouth" fill="none" stroke="#231F20" stroke-width="1.2" d="M263.1,180c0,0,8.1,2.4,11.2,3.1c3.1,0.6,8.6,1.3,8.6,1.3
				s-6.3,8-13.6,6C261.9,188.4,262,183.8,263.1,180z"/>
		</g>
	</g>
	<polyline fill="none" stroke="#000000" stroke-width="3" stroke-miterlimit="10" points="249.3,210.4 273.6,226.8 290.2,226.8 	"/>
	<polyline fill="none" stroke="#FFFFFF" stroke-width="3" stroke-miterlimit="10" points="249.3,208 273.6,224.4 290.2,224.4 	"/>
</g>
<g>
	<g>
		<g id="Layer_8_2_">
			<path fill="#EC708B" stroke="#231F20" stroke-width="1.2" d="M538.8,323.2c-1.3-1.4,1.2-2,1.2-2s1.7-0.2,5.2-2.2
				c3.6-2,4.2-4.4,4.8-7.3c0.9-4.2,0.8-8.5,3.5-8.4c3.4,0.1,7.6,9.5,0.5,16.5c-3.3,3.2-9,4-11.2,5.1
				C542.9,324.9,540,324.6,538.8,323.2z"/>
			<path fill="#FFFFFF" d="M554.3,312.1c1.4,0.5,1.7,2.3,2,2.8c0.2,0.2,0.3,0.4,0.5,0.5c2.5-5.7-0.6-11.6-3.2-11.6s-2.3,3.9-3.3,7.9
				c-0.1,0.4-0.2,0.7-0.2,1.1C551.2,312.3,553.4,311.7,554.3,312.1z"/>
		</g>
		<path fill="#EC708B" stroke="#231F20" stroke-width="1.2" d="M525.1,309.1c2.7,1.2-0.2,11.8-0.2,11.8c-0.5,2.6-1.9,3.3-3.9,3.9
			c-2.3,0.8-10.2,2.4-10.1-1.9s5.1-2.6,7.7-3.9c1.7-0.9,1.3-4.2,1.4-6.2c0-2,1.1-3.8,1.1-3.8S522.4,307.8,525.1,309.1z"/>
		<path fill="#EC708B" stroke="#231F20" stroke-width="1.2" d="M551.4,329.5c-1.7,0.7-5.1,3.4-8.8,2.6s-8.3-6.1-8.3-6.1
			s-1.4-2.7,1.1-4.7c2.4-1.9,4.6,0,4.6,0s4.1,4.7,6.1,5.1c1.9,0.4,5.2-3.3,5.2-3.3s0.9-2.2,3.3-2.2c4,0,3.9,14.5-0.3,15.7
			c-5.6,1.5-4.5-6.4-4.5-6.4"/>
		<g id="Layer_6_2_">
			<path fill="#EC708B" stroke="#231F20" stroke-width="1.2" d="M526.4,322.2c-0.9-0.8-1.9-1.9-3.1-3.7c-1-1.5-2.1-4.4-2.1-4.4
				c-1.5-6.1,2-7.3,3.5-7.5c1.5-0.2,5.8-1.1,8.2-0.3c2.4,0.8,3.3,6.3,3.3,6.3s0.5,1.1,1.6,2.4c1.6,2,2.4,3.1,2,5.4
				c-0.6,3.6-5,4.1-8.8,7.4c-2.3,2,3.8,7.7,3.8,7.7s-9.8,11.1-11.9,10c-6.2-3.4,2.3-8.3,2.3-8.3s-5.8-7.9-2.5-11.4
				c2.5-2.6,6.2-5.7,6.2-5.7"/>
			<path fill="#FFFFFF" d="M522.9,317.4c0,0,1.1,1.4,1.7,2.4c0.6,1.1,2,2.3,2,2.3l2.6-2c0,0,4.5-3.6,2.5-5.7c-1.2-1.2-3-3.3-6.8-1.2
				C521,315.4,522.9,317.4,522.9,317.4"/>
		</g>
		<path fill="#EC708B" stroke="#231F20" stroke-width="1.2" d="M542.6,310.7c0.2,1.8-1.9,9.5,3.7,7.9c5.6-1.6,2.9-9.2,1.7-11.7
			c-1.1-2.5-3.4-1.4-5.5-1.4c-4,0.1-7.1-0.6-9.1,2.9c-2,3.5,2.1,4,4.4,3.9c1.9-0.2,3.9-0.2,4.6-0.3"/>
		<g id="Layer_2_2_">
			<path fill="#EC708B" stroke="#231F20" stroke-width="1.2" d="M519.8,269.2l-5.7-5.4l-2.2,8.8c0,0-4.8,3.6-6.3,6.1
				c-2.4,4.2-2.5,7.6-2.5,7.6s-5.4,1.6-6.3,5.9s2.4,12.5,16.7,15.3c14.2,2.8,25.7-1.1,31-9.7s-3.1-18.9-2.6-18.3l1.7-14.3l-9.8,6.4
				c0,0-3.4-1.3-7-1.4c-1.3-0.1-3.8,0.1-4.9,0.2L519.8,269.2z"/>
			<path fill="#FFFFFF" d="M503.4,286.6c0,0-5.1,1.1-6.1,5.4c-1,4.3,2.6,12.4,16.1,14.8c3.1,0.6,7.1,1,9.3,0.8
				c4-0.2,14.7-3.8,14.2-12.5c-0.2-3.9-6.6-4.6-6.6-4.6l-5.9-2.6c0,0-5.1,2.5-8.5,1.7c-3.3-0.8-3.3-3.3-3.3-3.3l-6.9-2l-1.9,1.6
				L503.4,286.6z"/>
			<path fill="none" stroke="#231F20" stroke-width="1.2" d="M544.9,294.2c0,0,2.7,0.4,4.2,0.5c1.4,0.1,4.5-0.2,4.5-0.2"/>
			<path fill="none" stroke="#231F20" stroke-width="1.2" d="M491.2,287.2c0,0,1.4,1.2,3.4,1.9c1.8,0.6,5.2,1.1,5.2,1.1"/>
			<path fill="none" stroke="#231F20" stroke-width="1.2" d="M554.3,286.8c0,0-1.7,0.4-4.8,1.7c-2.8,1.2-4.6,2.6-4.6,2.6"/>
			<path fill="none" stroke="#231F20" stroke-width="1.2" d="M491.9,295.8c0,0,1.4,0.2,3.5-0.1s4.2-1.1,4.2-1.1"/>
			<path fill="none" stroke="#000000" stroke-linecap="round" stroke-miterlimit="10" d="M519.2,271.3c0,0,0.8-0.6,3-1.1"/>
			<line fill="none" stroke="#000000" x1="531.4" y1="273.1" x2="536" y2="269.8"/>
		</g>
		<g id="Layer_5_2_">
			<path fill="#FFFFFF" stroke="#231F20" d="M515.2,275c2.1,1.4,2,5.2-0.2,8.6c-2.3,3.4-5.8,5-7.9,3.6c-2.1-1.4-2-5.2,0.2-8.6
				C509.5,275.2,513,273.6,515.2,275z"/>
			<path fill="#231F20" d="M507.9,284c0-0.8,0.6-1.4,1.4-1.5c0.8,0,1.4,0.7,1.4,1.5s-0.6,1.5-1.4,1.5
				C508.5,285.5,507.9,284.9,507.9,284"/>
		</g>
		<g id="Layer_7_2_">
			<path fill="#FFFFFF" stroke="#231F20" d="M534,277.9c2.5,1.6,2.7,5.7,0.5,9.1c-2.2,3.4-6.1,4.8-8.6,3.2c-2.5-1.6-2.7-5.7-0.5-9.1
				C527.7,277.7,531.5,276.3,534,277.9z"/>
			<path fill="#231F20" d="M526.8,285.5c0-0.8,0.6-1.4,1.4-1.5c0.8,0,1.4,0.7,1.4,1.5s-0.6,1.5-1.4,1.5
				C527.4,287.1,526.8,286.4,526.8,285.5"/>
		</g>
		<path fill="#5E4A42" stroke="#000000" d="M519.8,288.9c-0.1,1.1-3.7,3-4.7,3c-1-0.1-2.3-2.6-2.3-3.3c0.1-0.7,2.1-0.5,3.6-0.5
			C517.7,288.1,519.9,287.7,519.8,288.9z"/>
		<g id="Layer_4_2_">
			<path fill="none" stroke="#231F20" stroke-width="1.2" d="M520.4,303.6c-7,2-13.1-5.8-13.1-5.8s5.3-0.7,8.2-1.3
				c3-0.6,10.7-3,10.7-3C527.4,297.3,527.5,301.7,520.4,303.6z"/>
		</g>
	</g>
	<polyline fill="none" stroke="#000000" stroke-width="3" stroke-miterlimit="10" points="506.5,337.4 522.5,337.4 545.9,321.5 	"/>
	<polyline fill="none" stroke="#FFFFFF" stroke-width="3" stroke-miterlimit="10" points="506.5,335.1 522.5,335.1 545.9,319.2 	"/>
</g>
<g>
	<g>
		<path id="Back_Leg_1_" fill="#EC708B" stroke="#231F20" stroke-width="1.2" d="M549.6,204.7c2.1-0.2,5.4,3.2,5.4,3.2
			s1.2,1,4.6,2.7c2,0.9,4.7,1.8,4.7,1.8s1.8-1.1,3.8,0.2c3.4,2.2-4.3,13.8-8.5,12.5c-4.9-1.6-1.2-6-0.2-7.5l0.1-0.2
			c-6.5-1.7-13.4-6.6-13.4-6.6C543.4,208.5,547.6,204.9,549.6,204.7z M559.5,217.7l1.8,0.5"/>
		<g id="Tail_2_">
			<path id="Tail_3_" fill="#EC708B" stroke="#231F20" stroke-width="1.2" d="M550,202.8c-0.6,0.3-2,1-0.1,3.7s7.3,3.2,7.9,3.2
				c2.4,0.1,5.4,0.1,8.7-1c9.6-3.1,9.7-13.4,6.6-15.1c-3-1.6-4.3,4.7-8.6,8.6c-1.9,1.7-4.2,2.4-6,2.7
				C555.8,205.4,550.7,202.4,550,202.8z"/>
			<path id="Tail_Tip_1_" fill="#FFFFFF" d="M568.9,197.3c-0.9,1.4-2,3-3.3,4.4c0.8-0.1,3.2-0.3,4.6,0.9c1.3,1.2,0.3,3.1,0.5,3.5
				c3.1-2.7,3.8-5.9,3.9-7.1c0.2-2.4-0.5-4.4-1.6-5C571.6,193.1,570.6,194.5,568.9,197.3z"/>
		</g>
		<path id="R_Arm_1_" fill="#EC708B" stroke="#231F20" stroke-width="1.2" d="M535.3,197c-0.7-2.8-1.5-2.2-1.5-2.2
			c-0.4,0.3-0.9,0.7-1.3,1.2c-1.4,1.4-2.7,4.4-5.4,3.4c-2.7-1-4.4-4.8-7.6-1.9c-3.1,2.9,2.8,6.6,5.1,7.7c2.3,1.2,4.2,2.2,7-0.5
			c2.7-2.7,3.7-2.9,3.7-2.9C536.8,200.5,536,199.8,535.3,197z"/>
		<g id="Front_Leg_x2F_Body_2_">
			<path id="Front_Leg_x2F_Body_3_" fill="#EC708B" stroke="#231F20" stroke-width="1.2" d="M542.4,204.5c0,0-6,6-8.7,8.5
				c-1.6,1.5-5.3,4.6-5.3,4.6s-13.1-2.3-11.6,5.4c0.4,2.3,15.3,0.5,15.3,0.5s5.7-4.6,9.4-8.3c4.6-4.6,8.5-7.5,8.5-7.5
				c6.7-6.5,1.3-9.3-0.9-13c-2.1-3.7-4.6-2.3-7.5-1.7s-4.8,0.4-6,0.6c-3,0.5-2.2,3.8-1.5,5.7c0,0,1.1,2.9,2.1,4.4
				c1.3,1.8,2.2,3,3.1,3.7"/>
			<path id="Belly_1_" fill="#FFFFFF" d="M535.3,200.7c0.5,1.6,1.8,3.5,4.2,6.2l2.4-2.4c0,0,4.7-3.1,2.7-5.2c-1.2-1.2-3-3.3-6.8-1.2
				C536,199,535.4,200,535.3,200.7z"/>
		</g>
		<path id="L_Arm_1_" fill="#EC708B" stroke="#231F20" stroke-width="1.2" d="M553.5,199.4c-1,1.6-7.9,6.3-2.4,8.8s8.5-5.3,9.3-8
			s-1.6-3.5-3.4-4.9c-3.1-2.6-5.1-5.3-9-3.8c-3.9,1.4-1,4.6,0.9,6c1.6,1.2,3.3,2.4,3.8,2.9"/>
		<g id="Head_2_">
			<g id="Head_3_">
				<path id="Head_Fill_1_" fill="#EC708B" stroke="#231F20" stroke-width="1.2" d="M519,190c2.8,1.2,5.6,2,7.9,2.4
					c2,0.4,6,0.8,8.1,0.8c2.5,0,7.8-0.2,11-1.3c4.2-1.4,9.7-5.1,12.3-9.3c5.6-9-3.2-19.6-2.7-19l1.7-14.8l-10.1,6.7
					c0,0-3.5-1.4-7.2-1.6c-1.4-0.1-3.9,0.1-5.1,0.2l-2.3-0.9l-5.8-5.7l-2.3,9.1c0,0-5.1,3.7-6.6,6.3c-2.2,3.8-2,8.1-2,8.1
					s-5.8,0.9-7,6C507.7,181.9,511.5,187,519,190z M547.1,155.5l-1.6,1.6 M531.2,155c0,0,1.8-0.9,3.4-1.1"/>
				<path id="Muzzle_1_" fill="#FFFFFF" d="M509,177c-1.2,5.1,2.8,9.9,10.3,13c2.8,1.1,6.4,2.2,8.8,2.5c2.2,0.3,8,0.5,8,0.5
					c0.9-0.2,1.3-0.3,2.7-0.9c5-1.8,12.3-5.7,11.9-12.3c-0.1-1-0.5-1.8-1.2-2.4c-2-2-5.7-2.4-5.7-2.4l-6.1-2.7c0,0-5.3,2.6-8.8,1.8
					c-1-0.2-1.8-0.6-2.3-1.1c-1.1-1-1.1-2.3-1.1-2.3l-7.1-2.1l-2.3,2.4C516.2,171.1,510.3,172,509,177z"/>
			</g>
			<g id="L_Eye_1_">
				<path id="Eyeball_3_" fill="#FFFFFF" stroke="#000000" d="M538.6,165.4c2.3-3.5,6.2-5,8.9-3.3c2.6,1.6,2.8,5.9,0.5,9.4
					s-6.3,5-8.9,3.3C536.5,173.1,536.3,168.9,538.6,165.4"/>
				<path id="Pupil_3_" d="M539.9,170c0-0.9,0.7-1.6,1.4-1.6c0.8,0,1.4,0.7,1.4,1.6s-0.6,1.6-1.4,1.6
					C540.5,171.6,539.9,170.9,539.9,170"/>
			</g>
			<g id="R_Eye_1_">
				<path id="Eyeball_2_" fill="#FFFFFF" stroke="#000000" d="M519.9,162.9c2.4-3.5,5.7-5.2,7.8-3.8c2.2,1.5,2,5.1-0.2,8.6
					c-2.3,3.5-5.7,5.3-7.9,3.9C517.3,170.3,517.6,166.5,519.9,162.9"/>
				<path id="Pupil_2_" d="M520.3,168.4c0-0.9,0.6-1.6,1.4-1.6c0.8,0,1.4,0.7,1.4,1.6s-0.6,1.6-1.4,1.6
					C520.9,170,520.3,169.3,520.3,168.4"/>
			</g>
			<path id="Nose_1_" fill="#5E4A42" stroke="#000000" d="M529.2,172.7c1.3,0,3.5-0.5,3.5,0.8c-0.1,1.2-3.8,3.1-4.9,3.1
				c-1-0.1-2.4-2.7-2.4-3.4C525.6,172.4,527.7,172.7,529.2,172.7"/>
			<path id="Whisker_7_" d="M558.9,176.2l-0.5-0.9c0.1-0.1,1.9-1.4,4.9-2.7c3.2-1.4,5-1.8,5.1-1.8l0.2,0.9c0,0-1.8,0.4-4.9,1.8
				C560.8,174.8,558.9,176.2,558.9,176.2L558.9,176.2z"/>
			<path id="Whisker_6_" d="M563.7,179.8c-0.2,0-0.5,0-0.7,0c-1.4-0.1-4.2-0.5-4.3-0.5l0.2-0.9c0,0,2.8,0.4,4.2,0.5
				c1.4,0.1,4.6-0.2,4.6-0.2l0.1,0.9C567.7,179.6,565.3,179.8,563.7,179.8L563.7,179.8z"/>
			<path id="Whisker_5_" d="M512,175.2c-0.2,0-3.7-0.5-5.5-1.2c-2.2-0.8-3.6-2-3.7-2.1l0.6-0.7c0,0,1.3,1.2,3.4,1.9
				c1.8,0.6,5.3,1.2,5.3,1.2L512,175.2L512,175.2z"/>
			<path id="Whisker_4_" d="M504.8,181.1c-0.7,0-1.2,0-1.2-0.1l0.1-0.9c0,0,1.4,0.2,3.5-0.1c2.1-0.2,4.2-1,4.2-1l0.3,0.9
				c-0.1,0-2.2,0.9-4.5,1.1C506.3,181.1,505.4,181.1,504.8,181.1L504.8,181.1z"/>
			<path id="Mouth_1_" fill="none" stroke="#231F20" stroke-width="1.2" d="M533.3,188.8c-7.3,2-13.6-6-13.6-6s5.5-0.7,8.6-1.3
				c3.1-0.6,11.2-3.1,11.2-3.1C540.5,182.2,540.7,186.7,533.3,188.8z"/>
		</g>
	</g>
	<polyline fill="none" stroke="#000000" stroke-width="3" stroke-miterlimit="10" points="512.4,225.1 529,225.1 553.3,208.7 	"/>
	<polyline fill="none" stroke="#FFFFFF" stroke-width="3" stroke-miterlimit="10" points="512.4,222.8 529,222.8 553.3,206.3 	"/>
</g>
<g>
	<g>
		<circle cx="401.9" cy="247.5" r="11.6"/>
	</g>
	<g>
		<path fill="#FFFFFF" d="M396.9,247.9h-5.7c0-7.6,6.3-11,9.6-11.7l1.1,5.5C401.5,241.9,396.9,243.2,396.9,247.9z"/>
	</g>
</g>
</svg>
