<?xml version="1.0" encoding="UTF-8"?>
<svg id="_レイヤー_1" data-name="レイヤー_1" xmlns="http://www.w3.org/2000/svg" version="1.1" viewBox="0 0 800 500">
  <!-- Generator: Adobe Illustrator 30.1.0, SVG Export Plug-In . SVG Version: 2.1.1 Build 136)  -->
  <defs>
    <style>
      .st0 {
        fill: #276a8b;
      }

      .st1 {
        fill: #cdaf31;
      }

      .st2 {
        fill: #8e8e8e;
      }

      .st3 {
        fill: #d5d5d6;
      }

      .st4 {
        fill: #959f53;
      }

      .st5 {
        fill: #0e1734;
      }

      .st6 {
        fill: #c9c9c9;
      }

      .st7 {
        fill: #fff;
      }

      .st8 {
        fill: #54a83e;
      }

      .st9 {
        fill: none;
        stroke: #d86a52;
        stroke-width: 6.12px;
      }

      .st10 {
        fill: #b4bdbc;
      }

      .st11 {
        fill: #cccbce;
      }

      .st12 {
        fill: #d3c99b;
      }

      .st13 {
        fill: #3a68aa;
      }

      .st14 {
        fill: #cea287;
      }

      .st15 {
        fill: #256c36;
      }

      .st16 {
        fill: #e7e0ba;
      }

      .st17 {
        fill: #1a2951;
      }

      .st18 {
        fill: #854a22;
      }

      .st19 {
        fill: #ca631a;
      }

      .st20 {
        fill: #d0cb99;
      }

      .st21 {
        fill: #a79f6d;
      }

      .st22 {
        fill: #ded7d8;
      }
    </style>
  </defs>
  <path id="ID0.5458214092068374" class="st13" d="M0,0h800v500H0V0Z"/>
  <path id="ID0.5277411872521043" class="st0" d="M793.06,500h-66.67l2.78-16.81-2.78-14.86,4.72-15-4.72-31.25,4.72-23.75-4.72-23.61,2.08-11.81,3.47-12.22,1.11-10.83-4.03-9.72-2.64-15.97v-16.25l5.97-13.75-5.97-21.81v-19.44l4.03-19.31-4.03-18.75,4.03-16.81-4.31-16.81,1.25-16.25-.97-23.75,4.03-23.75v-15l-1.25-9.86,1.25-18.75-4.03-28.06,1.39-9.58,2.64-8.75-4.03-17.5h66.67v500"/>
  <path id="ID0.5979555081576109" class="st12" d="M800,500h-66.67l2.78-16.81-2.78-14.86,4.72-15-4.72-31.25,4.72-23.75-4.72-23.61,2.08-11.81,3.47-12.22,1.11-10.83-4.03-9.72-2.64-15.97v-16.25l5.97-13.75-5.97-21.81v-19.44l4.03-19.31-4.03-18.75,4.03-16.81-4.31-16.81,1.25-16.25-.97-23.75,4.03-23.75v-43.61l-4.03-28.06,4.72-15.69-4.72-20.14h66.67v500"/>
  <path id="ID0.9993181265890598" class="st4" d="M800,500h-34.72l1.53-16.81-1.53-14.86,2.5-15-2.5-31.25,2.5-23.75-2.5-23.61,1.11-11.81,1.81-12.22.56-10.83-2.08-9.72-1.39-15.97v-16.25l3.06-13.75-3.06-21.81v-19.44l2.08-19.31-2.08-18.75,2.08-16.81-2.22-16.81.69-16.25-.56-23.75,2.08-23.75v-43.61l-2.08-28.06,2.5-15.69-2.5-20.14h34.72v500"/>
  <path id="ID0.4751999177969992" class="st7" d="M259.86,440.83h0c-12.22-.56-24.03-4.17-34.31-10.42-.97-.56-1.25-1.81-.69-2.64s1.81-1.25,2.64-.69c9.72,5.83,20.97,9.31,32.36,9.86,1.11,0,1.94.97,1.81,2.08.14.97-.69,1.81-1.81,1.81ZM283.06,438.19c-.83,0-1.67-.56-1.94-1.39-.28-.97.28-2.08,1.39-2.36,10.97-3.06,21.11-8.89,29.31-16.94.83-.69,2.08-.69,2.78,0,.69.83.69,2.08,0,2.78-8.75,8.33-19.44,14.58-30.97,17.78-.14.14-.42.14-.56.14ZM316.94,417.08c-.42,0-.97-.14-1.25-.56-.83-.69-.83-1.94-.14-2.78,7.64-8.47,13.06-18.89,15.83-30,.28-1.11,1.25-1.67,2.36-1.39s1.67,1.25,1.39,2.36c-2.92,11.67-8.61,22.64-16.67,31.67-.56.56-.97.69-1.53.69ZM208.75,415.56c-.56,0-1.11-.28-1.53-.69-7.78-9.17-13.33-20.28-15.83-32.08-.28-1.11.42-2.08,1.53-2.36s2.08.42,2.36,1.53c2.36,11.11,7.64,21.67,15,30.42.69.83.56,2.08-.28,2.78-.42.28-.83.42-1.25.42ZM335,363.06c-.97,0-1.81-.83-1.94-1.81-.97-11.39-4.72-22.5-10.97-32.08-.56-.97-.28-2.08.56-2.64.97-.56,2.08-.28,2.64.56,6.53,10.14,10.56,21.81,11.67,33.89.14,1.11-.69,2.08-1.94,2.08h0ZM192.22,361.11h-.28c-1.11-.14-1.81-1.11-1.67-2.22,1.39-12.08,5.69-23.61,12.5-33.47.56-.83,1.81-1.11,2.78-.56.83.56,1.11,1.81.56,2.78-6.53,9.44-10.56,20.28-11.94,31.67-.14.97-.97,1.81-1.94,1.81ZM307.92,312.78c-.42,0-.83-.14-1.25-.42-8.89-7.08-19.58-11.81-30.83-13.89-1.11-.14-1.81-1.25-1.53-2.22.14-1.11,1.25-1.81,2.22-1.53,11.94,2.08,23.19,7.22,32.64,14.72.83.69.97,1.94.28,2.78-.42.42-.97.56-1.53.56ZM220.56,311.67c-.56,0-1.25-.28-1.53-.83-.69-.83-.42-2.08.42-2.78,9.72-7.22,21.11-11.94,33.06-13.75,1.11-.14,2.08.56,2.22,1.67s-.56,2.08-1.67,2.22c-11.25,1.67-22.08,6.25-31.25,13.06-.42.28-.83.42-1.25.42Z"/>
  <path id="ID0.8433921472169459" class="st7" d="M264.17,415.83c-1.11,0-1.94-.83-1.94-1.94s.83-1.94,1.94-1.94c11.39-.14,22.22-4.58,30.42-12.5l.14-.14c.83-.69,1.94-.69,2.78,0,.69.83.69,1.94,0,2.78l-.14.14c-9.03,8.61-20.83,13.47-33.19,13.61h0ZM241.53,410.42c-.28,0-.56-.14-.97-.28-4.44-2.36-8.61-5.56-12.22-9.17-5-5.14-8.75-11.25-10.97-18.06-.42-.97.14-2.08,1.25-2.5.97-.42,2.08.14,2.5,1.25,2.08,6.25,5.56,11.81,10.14,16.53,3.33,3.47,7.08,6.25,11.25,8.47.97.56,1.25,1.67.83,2.64-.42.69-1.11,1.11-1.81,1.11ZM308.19,382.92c-.14,0-.42,0-.56-.14-.97-.28-1.67-1.39-1.25-2.5,1.25-4.31,1.94-8.61,1.94-13.06,0-6.81-1.53-13.61-4.58-19.72-.42-.97-.14-2.08.83-2.64.97-.42,2.08-.14,2.64.83,3.19,6.67,5,14.03,5,21.53,0,4.86-.69,9.58-2.08,14.17-.42.97-1.11,1.53-1.94,1.53ZM217.5,361.11h-.28c-1.11-.14-1.81-1.25-1.53-2.22,1.81-10.28,6.67-19.44,14.17-26.67,1.39-1.39,2.92-2.64,4.58-3.89.83-.69,2.08-.42,2.78.42.69.83.42,2.08-.42,2.78-1.39,1.11-2.92,2.36-4.17,3.61-6.94,6.67-11.39,15.14-13.06,24.44-.42.83-1.11,1.53-2.08,1.53ZM290.28,330.97c-.42,0-.83-.14-1.11-.42-7.5-5.28-16.39-8.06-25.69-8.06-2.08,0-4.17.14-6.25.42-1.11.14-2.08-.56-2.22-1.67s.56-2.08,1.67-2.22c2.22-.28,4.58-.42,6.81-.42,10.14,0,19.72,3.06,27.92,8.75.83.56,1.11,1.81.42,2.78-.28.56-.97.83-1.53.83Z"/>
  <path id="ID0.1938468785956502" class="st7" d="M263.47,391.11c-6.53,0-12.64-2.64-17.22-7.22-.28-.28-.42-.42-.56-.69-.69-.83-.69-2.08.14-2.78s2.08-.69,2.78.14c.14.14.28.42.56.56,3.75,3.89,8.89,6.11,14.31,6.11s10.14-1.94,13.75-5.56c3.89-3.75,6.11-8.89,6.11-14.31,0-.83,0-1.53-.14-2.36-.14-1.11.69-2.08,1.67-2.22,1.11-.14,2.08.69,2.22,1.67s.14,1.81.14,2.78c0,6.53-2.64,12.64-7.22,17.22-4.44,4.31-10.28,6.67-16.53,6.67ZM242.92,361.81c-.28,0-.42,0-.69-.14-.97-.42-1.53-1.53-1.25-2.5,1.25-3.47,3.19-6.53,5.83-9.17,4.44-4.31,10.28-6.67,16.53-6.67,3.06,0,6.11.56,8.89,1.67.97.42,1.53,1.53,1.11,2.5-.42.97-1.53,1.53-2.5,1.11-2.36-.97-4.86-1.39-7.36-1.39-5.14,0-10.14,1.94-13.75,5.56-2.22,2.22-3.89,4.72-5,7.64-.28.97-.97,1.39-1.81,1.39Z"/>
  <path id="ID0.32970967795699835" class="st9" d="M478.47,344.44c-21.81-21.81-49.58-29.17-62.22-16.67-12.64,12.64-5.14,40.42,16.67,62.22,1.67,1.67,65,65,65,65,14.17,14.17,35.83,15.42,48.47,2.78,12.64-12.64,11.39-34.31-2.78-48.47-.14.28-63.47-63.19-65.14-64.86Z"/>
  <path id="ID0.2971472218632698" class="st7" d="M478.47,344.44c-21.81-21.81-49.58-29.17-62.22-16.67-12.64,12.64-5.14,40.42,16.67,62.22,1.67,1.67,65,65,65,65,14.17,14.17,35.83,15.42,48.47,2.78,12.64-12.64,11.39-34.31-2.78-48.47-.14.28-63.47-63.19-65.14-64.86Z"/>
  <path id="ID0.7128623686730862" class="st11" d="M476.53,351.39c-20-20-44.44-27.92-54.72-17.78-10.14,10.14-2.22,34.72,17.78,54.72,1.53,1.53,59.72,59.72,59.72,59.72,12.92,12.92,31.81,15.28,41.94,5,10.14-10.14,7.92-29.03-5-41.94,0,0-58.19-58.19-59.72-59.72Z"/>
  <path id="ID0.7876392337493598" class="st11" d="M421.81,333.61c-9.58,9.58-3.19,31.67,14.17,50.83l36.67-36.67c-19.17-17.36-41.25-23.75-50.83-14.17Z"/>
  <path id="ID0.5164343677461147" class="st5" d="M541.25,453.06c6.81-6.81,8.06-17.64,4.17-27.78l-32.08,32.08c10.42,3.75,21.11,2.5,27.92-4.31Z"/>
  <path id="ID0.7340328437276185" class="st2" d="M499.31,447.92c4.31,4.31,9.17,7.36,14.17,9.31l32.08-32.08c-1.94-5-5-9.86-9.31-14.17,0,0-8.61-8.61-19.31-19.31l-36.94,36.94c10.69,10.69,19.31,19.31,19.31,19.31Z"/>
  <path id="ID0.032670849934220314" class="st1" d="M449.03,387.5l26.94-26.94,50.83,50.83-26.94,26.94-50.83-50.83Z"/>
  <path id="ID0.08110713306814432" class="st10" d="M462.5,415.69l41.53-41.53,40.83,40.83-41.53,41.53-40.83-40.83Z"/>
  <path id="ID0.03988366108387709" class="st7" d="M462.5,415.69l20.69-20.69,40.83,40.83-20.69,20.69-40.83-40.83Z"/>
  <path id="ID0.06768026202917099" class="st5" d="M421.81,333.61c-8.47,8.47-4.44,26.81,8.61,44.17l35.56-35.56c-17.36-13.06-35.69-17.08-44.17-8.61Z"/>
  <path id="ID0.02718999981880188" class="st7" d="M510.42,414.31c2.08,0,4.03.83,5.56,2.22,1.39,1.39,2.22,3.33,2.22,5.56,0,2.08-.83,4.03-2.22,5.56-1.39,1.39-3.33,2.22-5.56,2.22s-4.03-.83-5.56-2.22c-1.39-1.39-2.22-3.33-2.22-5.56,0-2.08.83-4.03,2.22-5.56,1.53-1.39,3.47-2.22,5.56-2.22Z"/>
  <path id="ID0.4336320594884455" class="st3" d="M505.97,409.86c2.08,0,4.03.83,5.56,2.22,1.39,1.39,2.22,3.33,2.22,5.56,0,2.08-.83,4.03-2.22,5.56-1.39,1.39-3.33,2.22-5.56,2.22-2.08,0-4.03-.83-5.56-2.22-1.39-1.39-2.22-3.33-2.22-5.56,0-2.08.83-4.03,2.22-5.56,1.53-1.39,3.47-2.22,5.56-2.22Z"/>
  <path id="ID0.07995649427175522" class="st21" d="M651.53,142.92c0,7.08,5.69,12.64,12.64,12.64h16.11l-28.89-13.33v.69h.14Z"/>
  <path id="ID0.4021884435787797" class="st16" d="M715,104.72c0-7.08-5.69-12.64-12.64-12.64h-38.06c-1.81,0-3.47.42-4.86.97l55.69,31.39v-19.72h-.14Z"/>
  <path id="ID0.8503752686083317" class="st21" d="M683.89,135.83l14.86,19.86h3.47c7.08,0,12.64-5.69,12.64-12.64v-7.78l-30.97.56Z"/>
  <path id="ID0.19269536947831511" class="st16" d="M654.44,96.67c-1.81,2.22-2.92,5-2.92,8.19v31.81l32.36-.83-29.44-39.17Z"/>
  <path id="ID0.4016383932903409" class="st20" d="M715,135v-10.56l-55.69-31.39c-1.94.83-3.61,2.08-4.86,3.61l29.44,39.17,31.11-.83Z"/>
  <path id="ID0.9924836498685181" class="st20" d="M651.53,136.53v5.69l28.75,13.33h18.47l-14.86-19.72-32.36.69"/>
  <path id="ID0.1418237527832389" class="st21" d="M651.53,67.92c0,7.08,5.69,12.64,12.64,12.64h16.11l-28.89-13.33v.69h.14Z"/>
  <path id="ID0.7741057234816253" class="st16" d="M715,29.72c0-7.08-5.69-12.64-12.64-12.64h-38.06c-1.81,0-3.47.42-4.86.97l55.69,31.39v-19.72h-.14Z"/>
  <path id="ID0.4112024796195328" class="st21" d="M683.89,60.83l14.86,19.72h3.47c7.08,0,12.64-5.69,12.64-12.64v-7.78l-30.97.69Z"/>
  <path id="ID0.669922276865691" class="st16" d="M654.44,21.67c-1.81,2.22-2.92,5-2.92,8.19v31.81l32.36-.83-29.44-39.17Z"/>
  <path id="ID0.1592343170195818" class="st20" d="M715,60v-10.56l-55.69-31.39c-1.94.83-3.61,2.08-4.86,3.61l29.44,39.17,31.11-.83Z"/>
  <path id="ID0.13376990193501115" class="st20" d="M651.53,61.53v5.69l28.75,13.33h18.47l-14.86-19.72-32.36.69"/>
  <path id="ID0.24198611406609416" class="st21" d="M651.53,292.92c0,7.08,5.69,12.64,12.64,12.64h16.11l-28.89-13.33v.69h.14Z"/>
  <path id="ID0.06467277556657791" class="st16" d="M715,254.72c0-7.08-5.69-12.64-12.64-12.64h-38.06c-1.81,0-3.47.42-4.86.97l55.69,31.39v-19.72h-.14Z"/>
  <path id="ID0.7334466706961393" class="st21" d="M683.89,285.83l14.86,19.86h3.47c7.08,0,12.64-5.69,12.64-12.64v-7.78l-30.97.56Z"/>
  <path id="ID0.8211687081493437" class="st16" d="M654.44,246.67c-1.81,2.22-2.92,5-2.92,8.19v31.81l32.36-.83-29.44-39.17Z"/>
  <path id="ID0.5865273755043745" class="st20" d="M715,285v-10.56l-55.69-31.39c-1.94.83-3.61,2.08-4.86,3.61l29.44,39.17,31.11-.83Z"/>
  <path id="ID0.3012270978651941" class="st20" d="M651.53,286.53v5.69l28.75,13.33h18.47l-14.86-19.72-32.36.69"/>
  <path id="ID0.7950788061134517" class="st21" d="M651.53,217.92c0,7.08,5.69,12.64,12.64,12.64h16.11l-28.89-13.33v.69h.14Z"/>
  <path id="ID0.8897493709810078" class="st16" d="M715,179.72c0-7.08-5.69-12.64-12.64-12.64h-38.06c-1.81,0-3.47.42-4.86.97l55.69,31.39v-19.72h-.14Z"/>
  <path id="ID0.9794905870221555" class="st21" d="M683.89,210.83l14.86,19.86h3.47c7.08,0,12.64-5.69,12.64-12.64v-7.78l-30.97.56Z"/>
  <path id="ID0.6584792439825833" class="st16" d="M654.44,171.67c-1.81,2.22-2.92,5-2.92,8.19v31.81l32.36-.83-29.44-39.17Z"/>
  <path id="ID0.7128486069850624" class="st20" d="M715,210v-10.56l-55.69-31.39c-1.94.83-3.61,2.08-4.86,3.61l29.44,39.17,31.11-.83Z"/>
  <path id="ID0.4378685774281621" class="st20" d="M651.53,211.53v5.69l28.75,13.33h18.47l-14.86-19.72-32.36.69"/>
  <path id="ID0.49479220202192664" class="st21" d="M572.36,142.92c0,7.08,5.69,12.64,12.64,12.64h16.11l-28.89-13.33v.69h.14Z"/>
  <path id="ID0.029834512621164322" class="st16" d="M635.83,104.72c0-7.08-5.69-12.64-12.64-12.64h-38.06c-1.81,0-3.47.42-4.86.97l55.69,31.39v-19.72h-.14Z"/>
  <path id="ID0.8857865822501481" class="st21" d="M604.72,135.83l14.86,19.86h3.47c7.08,0,12.64-5.69,12.64-12.64v-7.78l-30.97.56Z"/>
  <path id="ID0.9536432372406125" class="st16" d="M575.28,96.67c-1.81,2.22-2.92,5-2.92,8.19v31.81l32.36-.83-29.44-39.17Z"/>
  <path id="ID0.07130504446104169" class="st20" d="M635.83,135v-10.56l-55.69-31.39c-1.94.83-3.61,2.08-4.86,3.61l29.44,39.17,31.11-.83Z"/>
  <path id="ID0.7963368385098875" class="st20" d="M572.36,136.53v5.69l28.75,13.33h18.47l-14.86-19.72-32.36.69"/>
  <path id="ID0.16110108885914087" class="st21" d="M572.36,67.92c0,7.08,5.69,12.64,12.64,12.64h16.11l-28.89-13.33v.69h.14Z"/>
  <path id="ID0.7785426885820925" class="st16" d="M635.83,29.72c0-7.08-5.69-12.64-12.64-12.64h-38.06c-1.81,0-3.47.42-4.86.97l55.69,31.39v-19.72h-.14Z"/>
  <path id="ID0.2870962009765208" class="st21" d="M604.72,60.83l14.86,19.72h3.47c7.08,0,12.64-5.69,12.64-12.64v-7.78l-30.97.69Z"/>
  <path id="ID0.8635660968720913" class="st16" d="M575.28,21.67c-1.81,2.22-2.92,5-2.92,8.19v31.81l32.36-.83-29.44-39.17Z"/>
  <path id="ID0.5818251576274633" class="st20" d="M635.83,60v-10.56l-55.69-31.39c-1.94.83-3.61,2.08-4.86,3.61l29.44,39.17,31.11-.83Z"/>
  <path id="ID0.36480157589539886" class="st20" d="M572.36,61.53v5.69l28.75,13.33h18.47l-14.86-19.72-32.36.69"/>
  <path id="ID0.888721123803407" class="st21" d="M493.19,67.92c0,7.08,5.69,12.64,12.64,12.64h16.11l-28.89-13.33v.69h.14Z"/>
  <path id="ID0.5242930315434933" class="st16" d="M556.67,29.72c0-7.08-5.69-12.64-12.64-12.64h-38.06c-1.81,0-3.47.42-4.86.97l55.69,31.39v-19.72h-.14Z"/>
  <path id="ID0.03578468784689903" class="st21" d="M525.56,60.83l14.86,19.72h3.47c7.08,0,12.64-5.69,12.64-12.64v-7.78l-30.97.69Z"/>
  <path id="ID0.8846062263473868" class="st16" d="M496.11,21.67c-1.81,2.22-2.92,5-2.92,8.19v31.81l32.36-.83-29.44-39.17Z"/>
  <path id="ID0.244601771235466" class="st20" d="M556.67,60v-10.56l-55.69-31.39c-1.94.83-3.61,2.08-4.86,3.61l29.44,39.17,31.11-.83Z"/>
  <path id="ID0.8797417338937521" class="st20" d="M493.19,61.53v5.69l28.75,13.33h18.47l-14.86-19.72-32.36.69"/>
  <path id="ID0.012925549410283566" class="st21" d="M572.36,217.92c0,7.08,5.69,12.64,12.64,12.64h16.11l-28.89-13.33v.69h.14Z"/>
  <path id="ID0.11733906622976065" class="st16" d="M635.83,179.72c0-7.08-5.69-12.64-12.64-12.64h-38.06c-1.81,0-3.47.42-4.86.97l55.69,31.39v-19.72h-.14Z"/>
  <path id="ID0.041261456441134214" class="st21" d="M604.72,210.83l14.86,19.86h3.47c7.08,0,12.64-5.69,12.64-12.64v-7.78l-30.97.56Z"/>
  <path id="ID0.7122797495685518" class="st16" d="M575.28,171.67c-1.81,2.22-2.92,5-2.92,8.19v31.81l32.36-.83-29.44-39.17Z"/>
  <path id="ID0.17975216498598456" class="st20" d="M635.83,210v-10.56l-55.69-31.39c-1.94.83-3.61,2.08-4.86,3.61l29.44,39.17,31.11-.83Z"/>
  <path id="ID0.6759582064114511" class="st20" d="M572.36,211.53v5.69l28.75,13.33h18.47l-14.86-19.72-32.36.69"/>
  <path id="ID0.22508616466075182" class="st19" d="M384.44,51.53l20.56-20.56,90.83,90.69-20.56,20.56-90.83-90.69Z"/>
  <path id="ID0.18208169052377343" class="st14" d="M495.83,121.67c-5.69-5.69-14.86-5.69-20.56,0s-5.69,14.86,0,20.56"/>
  <path id="ID0.6739508546888828" class="st19" d="M405.14,30.97c-5.69-5.69-14.86-5.69-20.56,0-5.69,5.69-5.69,14.86,0,20.56"/>
  <path id="ID0.6289793481118977" class="st18" d="M400.28,40.42l2.92-2.92,21.11,21.11-2.92,2.92-21.11-21.11Z"/>
  <path id="ID0.7483976352959871" class="st18" d="M423.06,82.22l2.92-2.92,14.31,14.31-2.92,2.92-14.31-14.31Z"/>
  <path id="ID0.06845158152282238" class="st18" d="M459.72,98.89l2.92-2.92,12.08,12.08-2.92,2.92-12.08-12.08Z"/>
  <path id="ID0.03805830329656601" class="st19" d="M425.83,184.17l20.56-20.56,90.69,90.69-20.56,20.69-90.69-90.83Z"/>
  <path id="ID0.07883886341005564" class="st14" d="M537.22,254.44c-5.69-5.69-14.86-5.69-20.56,0-5.69,5.69-5.69,14.86,0,20.56"/>
  <path id="ID0.5685155056416988" class="st19" d="M446.39,163.61c-5.69-5.69-14.86-5.69-20.56,0-5.69,5.69-5.69,14.86,0,20.56"/>
  <path id="ID0.9303110684268177" class="st18" d="M441.67,173.06l2.92-2.92,21.11,21.11-2.92,2.92-21.11-21.11Z"/>
  <path id="ID0.8402290507219732" class="st18" d="M464.58,215l2.92-2.92,14.31,14.31-2.92,2.92-14.31-14.31Z"/>
  <path id="ID0.5432444834150374" class="st18" d="M501.11,231.81l2.92-2.92,12.08,12.08-2.92,2.92-12.08-12.08Z"/>
  <path id="ID0.6268579210154712" class="st7" d="M179.86,123.47l19.86-19.86,12.22,12.22-19.86,19.86-12.22-12.22Z"/>
  <path id="ID0.9224429819732904" class="st7" d="M178.75,102.5c1.39-1.39,3.19-2.08,5.14-2.22,1.81,0,3.75.83,5.14,2.22s2.08,3.19,2.22,5.14c0,1.81-.83,3.75-2.22,5.14s-3.19,2.08-5.14,2.22c-1.81,0-3.75-.83-5.14-2.22s-2.08-3.19-2.22-5.14c0-1.81.69-3.75,2.22-5.14Z"/>
  <path id="ID0.03361098002642393" class="st7" d="M167.08,120.69l4.86-4.86,13.89,13.89-4.86,4.86-13.89-13.89Z"/>
  <path id="ID0.033610980026423931" data-name="ID0.03361098002642393" class="st22" d="M191.94,95.83l4.86-4.86,13.89,13.89-4.86,4.86-13.89-13.89Z"/>
  <path id="ID0.62685792101547121" data-name="ID0.6268579210154712" class="st22" d="M189.72,113.61l10-10,12.22,12.22-10,10-12.22-12.22Z"/>
  <path id="ID0.7274231789633632" class="st17" d="M187.08,140.83l29.72-29.72,4.58,4.58-29.72,29.72-4.58-4.58Z"/>
  <path id="ID0.62685792101547122" data-name="ID0.6268579210154712" class="st7" d="M260.42,90.14l19.86-19.86,12.22,12.22-19.86,19.86-12.22-12.22Z"/>
  <path id="ID0.92244298197329041" data-name="ID0.9224429819732904" class="st7" d="M259.31,69.17c1.39-1.39,3.19-2.08,5.14-2.22,1.81,0,3.75.83,5.14,2.22s2.08,3.19,2.22,5.14c0,1.81-.83,3.75-2.22,5.14s-3.19,2.08-5.14,2.22c-1.81,0-3.75-.83-5.14-2.22s-2.08-3.19-2.22-5.14c0-1.81.69-3.75,2.22-5.14Z"/>
  <path id="ID0.033610980026423932" data-name="ID0.03361098002642393" class="st7" d="M247.64,87.36l4.86-4.86,13.89,13.89-4.86,4.86-13.89-13.89Z"/>
  <path id="ID0.033610980026423933" data-name="ID0.03361098002642393" class="st22" d="M272.5,62.5l4.86-4.86,13.89,13.89-4.86,4.86-13.89-13.89Z"/>
  <path id="ID0.62685792101547123" data-name="ID0.6268579210154712" class="st22" d="M270.28,80.28l10-10,12.22,12.22-10,10-12.22-12.22Z"/>
  <path id="ID0.72742317896336321" data-name="ID0.7274231789633632" class="st17" d="M267.64,107.5l29.72-29.72,4.58,4.58-29.72,29.72-4.58-4.58Z"/>
  <path id="ID0.6586273442953825" class="st0" d="M610.56,273.61c-1.39,1.25-2.5,2.64-2.92,4.17-.97,3.06.28,6.67,1.67,10.28,1.39-1.94,2.64-3.89,2.92-5.83.42-2.64-.56-5.69-1.67-8.61Z"/>
  <path id="ID0.36960749607533216" class="st0" d="M792.64,413.33c-5.97,3.06-8.61,14.58-15.14,16.67-6.39,2.08-15.28-5.69-22.08-4.58-6.67.97-12.64,11.11-19.58,11.11s-12.92-10.14-19.58-11.11c-6.81-1.11-15.69,6.67-22.08,4.58-6.53-2.08-9.17-13.61-15.14-16.67-6.11-3.06-16.94,1.53-22.36-2.5-5.56-4.03-4.44-15.69-9.31-20.56-4.86-4.86-16.53-3.75-20.56-9.31-4.03-5.56.69-16.39-2.5-22.36-2.36-4.58-9.44-7.22-13.75-10.97-1.81,4.72-4.17,9.58-2.92,13.47,2.08,6.53,13.61,9.17,16.67,15.14,3.06,6.11-1.53,16.94,2.5,22.36,4.03,5.56,15.69,4.44,20.56,9.31,4.86,4.86,3.75,16.53,9.31,20.56s16.39-.69,22.36,2.5c5.97,3.06,8.61,14.58,15.14,16.67,6.39,2.08,15.28-5.69,22.08-4.58,6.67.97,12.64,11.11,19.58,11.11s12.92-10.14,19.58-11.11c6.81-1.11,15.69,6.67,22.08,4.58,6.53-2.08,9.17-13.61,15.14-16.67,2.08-.97,4.58-1.25,7.36-1.11v-17.64c-2.78-.14-5.28,0-7.36,1.11Z"/>
  <path id="ID0.48685724288225174" class="st0" d="M612.22,321.39c-.56-3.75-4.03-7.22-6.81-10.83-2.36,2.92-4.31,5.69-4.31,8.89,0,4.86,4.86,9.17,8.19,13.75,1.53-4.17,3.47-8.19,2.92-11.81Z"/>
  <path id="ID0.8502698382362723" class="st15" d="M609.31,288.06c-3.33,4.44-8.19,8.89-8.19,13.75,0,3.06,1.94,5.97,4.31,8.89,2.92-3.61,6.25-7.08,6.81-10.83.56-3.61-1.39-7.78-2.92-11.81Z"/>
  <path id="ID0.10244395537301898" class="st15" d="M624.31,262.64c3.06-6.11-1.53-16.94,2.5-22.36,4.03-5.56,15.69-4.44,20.56-9.31,4.86-4.86,3.75-16.53,9.31-20.56s16.39.69,22.36-2.5c5.97-3.06,8.61-14.58,15.14-16.67,6.39-2.08,15.28,5.69,22.08,4.58,6.67-.97,12.64-11.11,19.58-11.11s12.92,10.14,19.58,11.11c6.81,1.11,15.69-6.67,22.08-4.58,6.53,2.08,9.17,13.61,15.14,16.67,2.08.97,4.58,1.25,7.36,1.11v-17.64c-2.78.14-5.28-.14-7.36-1.11-5.97-3.06-8.61-14.58-15.14-16.67-6.39-2.08-15.28,5.69-22.08,4.58-6.67-.97-12.64-11.11-19.58-11.11s-12.92,10.14-19.58,11.11c-6.81,1.11-15.69-6.67-22.08-4.58-6.53,2.08-9.17,13.61-15.14,16.67-6.11,3.06-16.94-1.53-22.36,2.5-5.56,4.03-4.44,15.69-9.31,20.56-4.86,4.86-16.53,3.75-20.56,9.31-4.03,5.56.69,16.39-2.5,22.36-3.06,5.97-14.58,8.61-16.67,15.14-1.25,3.89,1.11,8.75,2.92,13.47,4.17-3.89,11.39-6.53,13.75-10.97Z"/>
  <path id="ID0.9494119109585881" class="st15" d="M612.22,339.03c-.28-1.94-1.53-3.89-2.92-5.83-1.39,3.61-2.64,7.22-1.67,10.28.56,1.53,1.53,2.92,2.92,4.17,1.11-3.06,2.08-5.97,1.67-8.61Z"/>
  <path id="ID0.482153563760221" class="st15" d="M624.31,358.61c3.06,6.11-1.53,16.94,2.5,22.36,4.03,5.56,15.69,4.44,20.56,9.31,4.86,4.86,3.75,16.53,9.31,20.56,5.56,4.03,16.39-.69,22.36,2.5,5.97,3.06,8.61,14.58,15.14,16.67,6.39,2.08,15.28-5.69,22.08-4.58,6.67.97,12.64,11.11,19.58,11.11s12.92-10.14,19.58-11.11c6.81-1.11,15.69,6.67,22.08,4.58,6.53-2.08,9.17-13.61,15.14-16.67,2.08-.97,4.58-1.25,7.36-1.11v-20.42c-4.86,1.53-13.19-2.5-17.64-.28-4.86,2.5-6.39,13.47-11.67,15.28-5.14,1.67-12.78-6.39-18.33-5.56-5.42.83-10.14,10.83-15.83,10.83s-10.42-10-15.83-10.83c-5.56-.83-13.19,7.22-18.33,5.56-5.28-1.67-6.67-12.78-11.67-15.28-5-2.5-14.72,2.78-19.17-.42-4.44-3.19-2.5-14.17-6.39-18.06-3.89-3.89-14.86-1.81-18.06-6.39-3.19-4.44,2.08-14.17-.42-19.17-2.5-4.86-13.47-6.39-15.28-11.67-1.67-5.14,6.39-12.78,5.56-18.33-.83-5.42-10.83-10.14-10.83-15.83s10-10.42,10.83-15.83c.83-5.56-7.22-13.19-5.56-18.33,1.67-5.28,12.78-6.67,15.28-11.67,2.5-5-2.78-14.72.42-19.17,3.19-4.44,14.17-2.5,18.06-6.39,3.89-3.89,1.81-14.86,6.39-18.06,4.44-3.19,14.17,2.08,19.17-.42,4.86-2.5,6.39-13.47,11.67-15.28,5.14-1.67,12.78,6.39,18.33,5.56,5.42-.83,10.14-10.83,15.83-10.83s10.42,10,15.83,10.83c5.56.83,13.19-7.22,18.33-5.56,5.28,1.67,6.67,12.78,11.67,15.28,4.44,2.22,12.78-1.81,17.64-.28v-2.78c-2.78.14-5.28-.14-7.36-1.11-5.97-3.06-8.61-14.58-15.14-16.67-6.39-2.08-15.28,5.69-22.08,4.58-6.67-.97-12.64-11.11-19.58-11.11s-12.92,10.14-19.58,11.11c-6.81,1.11-15.69-6.67-22.08-4.58-6.53,2.08-9.17,13.61-15.14,16.67-6.11,3.06-16.94-1.53-22.36,2.5-5.56,4.03-4.44,15.69-9.31,20.56-4.86,4.86-16.53,3.75-20.56,9.31-4.03,5.56.69,16.39-2.5,22.36-2.36,4.58-9.44,7.22-13.75,10.97,1.11,3.06,2.08,5.97,1.67,8.61-.28,1.94-1.53,3.89-2.92,5.83,1.67,4.03,3.47,8.19,2.92,11.81-.56,3.75-4.03,7.22-6.81,10.83,2.92,3.61,6.25,7.08,6.81,10.83.56,3.61-1.25,7.78-2.92,11.81,1.39,1.94,2.64,3.89,2.92,5.83.42,2.64-.56,5.56-1.67,8.61,4.17,3.89,11.39,6.53,13.75,11.11Z"/>
  <path id="ID0.06975274393334985" class="st8" d="M782.36,211.94c-4.86-2.5-6.39-13.47-11.67-15.28-5.14-1.67-12.78,6.39-18.33,5.56-5.42-.83-10.14-10.83-15.83-10.83s-10.42,10-15.83,10.83c-5.56.83-13.19-7.22-18.33-5.56-5.28,1.67-6.67,12.78-11.67,15.28s-14.72-2.78-19.17.42c-4.44,3.19-2.5,14.17-6.39,18.06-3.89,3.89-14.86,1.81-18.06,6.39-3.19,4.44,2.08,14.17-.42,19.17-2.5,4.86-13.47,6.39-15.28,11.67-1.67,5.14,6.39,12.78,5.56,18.33-.83,5.42-10.83,10.14-10.83,15.83s10,10.42,10.83,15.83c.83,5.56-7.22,13.19-5.56,18.33,1.67,5.28,12.78,6.67,15.28,11.67,2.5,5-2.78,14.72.42,19.17,3.19,4.44,14.17,2.5,18.06,6.39,3.89,3.89,1.81,14.86,6.39,18.06,4.44,3.19,14.17-2.08,19.17.42,4.86,2.5,6.39,13.47,11.67,15.28,5.14,1.67,12.78-6.39,18.33-5.56,5.42.83,10.14,10.83,15.83,10.83s10.42-10,15.83-10.83c5.56-.83,13.19,7.22,18.33,5.56,5.28-1.67,6.67-12.78,11.67-15.28,4.44-2.22,12.78,1.81,17.64.28v-180.14c-4.86-1.67-13.19,2.5-17.64.14Z"/>
  <path id="ID0.8696786947548389" class="st7" d="M542.78,394.17c3.33,0,6.39,1.39,8.61,3.61s3.61,5.28,3.61,8.61-1.39,6.39-3.61,8.61-5.28,3.61-8.61,3.61-6.39-1.39-8.61-3.61-3.61-5.28-3.61-8.61,1.39-6.39,3.61-8.61c2.22-2.22,5.28-3.61,8.61-3.61Z"/>
  <path id="ID0.07755687134340405" class="st6" d="M604.72,426.53c6.81,0,12.92,2.78,17.22,7.22s7.22,10.56,7.22,17.22-2.78,12.92-7.22,17.22-10.56,7.22-17.22,7.22-12.92-2.78-17.22-7.22-7.22-10.56-7.22-17.22,2.78-12.92,7.22-17.22,10.42-7.22,17.22-7.22Z"/>
  <path id="ID0.9150141789577901" class="st7" d="M593.61,415.42c6.81,0,12.92,2.78,17.22,7.22,4.31,4.44,7.22,10.56,7.22,17.22s-2.78,12.92-7.22,17.22-10.56,7.22-17.22,7.22-12.92-2.78-17.22-7.22c-4.31-4.44-7.22-10.56-7.22-17.22s2.78-12.92,7.22-17.22,10.42-7.22,17.22-7.22Z"/>
</svg>