<?xml version="1.0" encoding="UTF-8"?>
<svg id="_レイヤー_1" data-name="レイヤー_1" xmlns="http://www.w3.org/2000/svg" version="1.1" viewBox="0 0 800 500">
  <!-- Generator: Adobe Illustrator 30.1.0, SVG Export Plug-In . SVG Version: 2.1.1 Build 136)  -->
  <defs>
    <style>
      .st0 {
        fill: #b39750;
      }

      .st1 {
        fill: #820000;
      }

      .st2 {
        fill: #b27936;
      }

      .st3 {
        fill: #bd5f5f;
      }

      .st4 {
        fill: #ffe482;
      }

      .st5 {
        fill: #ffad00;
      }

      .st6 {
        fill: #6c6137;
      }

      .st7 {
        fill: #810000;
      }

      .st8 {
        fill: #e3e3e3;
      }

      .st9 {
        fill: #86713b;
      }

      .st10 {
        fill: #000c5c;
      }

      .st11 {
        fill: #525252;
      }

      .st12 {
        fill: #63532b;
      }

      .st13 {
        fill: #ff9400;
      }

      .st14 {
        fill: #fff;
      }

      .st15 {
        fill: #b99c51;
      }

      .st16 {
        fill: #a68c4b;
      }

      .st17 {
        fill: #731d00;
      }

      .st18 {
        fill: #424242;
      }

      .st19 {
        fill: #534a2a;
      }

      .st20 {
        fill: #bf6f00;
      }

      .st21 {
        fill: #af934d;
      }

      .st22 {
        fill: #ffbb2b;
      }

      .st23 {
        fill: #732b00;
      }

      .st24 {
        fill: #adadad;
      }

      .st25 {
        fill: #d4b25d;
      }
    </style>
  </defs>
  <path class="st6" d="M-14,483.67V-1.6h827.4v485.28H-14Z"/>
  <path class="st19" d="M-14,449.48V124.65l166.86-28.93,204.77,20.6,242.66-24.27,100.99,19.7,106.43-9.46v347.19H-14Z"/>
  <g>
    <path class="st4" d="M147.36,67.74c-7.02-13.18-2.03-29.56,11.15-36.59,13.18-7.02,29.56-2.03,36.59,11.15,7.02,13.18,2.03,29.56-11.15,36.59-13.18,7.02-29.56,2.03-36.59-11.15Z"/>
    <path class="st6" d="M160.06,64.3c-6.36-11.94-1.84-26.78,10.1-33.14,11.94-6.36,26.78-1.84,33.14,10.1,6.36,11.94,1.84,26.78-10.1,33.14-11.94,6.36-26.78,1.84-33.14-10.1Z"/>
  </g>
  <path class="st21" d="M214.82,273.91V-12.11h376.41v286.02H214.82Z"/>
  <path class="st9" d="M294.55,342.08V-10.38h215.09v352.45h-215.09Z"/>
  <path class="st25" d="M285.82,350.85V-10.78h21.04v361.63h-21.04Z"/>
  <path class="st25" d="M497.51,350.85V-10.78h21.04v361.63h-21.04Z"/>
  <path class="st25" d="M186.87,273.91v-65.76h430.64v65.76H186.87Z"/>
  <path class="st0" d="M-225.04,503.53V238.93h1254.45v264.6H-225.04Z"/>
  <path class="st16" d="M-225.04,258.68v-11.85h1254.45v11.85H-225.04Z"/>
  <path class="st16" d="M-225.04,326.8v-29.62h1254.45v29.62H-225.04Z"/>
  <path class="st16" d="M-225.04,429.48v-57.26h1254.45v57.26H-225.04Z"/>
  <path class="st14" d="M756.33,404.18H44.35l82.34-126.25h547.31l82.34,126.25ZM54.06,398.92h692.56l-75.48-115.73H129.53l-75.48,115.73Z"/>
  <path class="st16" d="M378.74,348.72v-3.95h12.71v3.95h-12.71Z"/>
  <path class="st16" d="M398.46,361.87v-3.95h12.71v3.95h-12.71Z"/>
  <path class="st16" d="M437.92,342.15v-3.95h12.71v3.95h-12.71Z"/>
  <path class="st16" d="M260.38,342.15v-3.95h12.71v3.95h-12.71Z"/>
  <path class="st16" d="M280.1,355.3v-3.95h12.71v3.95h-12.71Z"/>
  <path class="st16" d="M319.56,335.57v-3.95h12.71v3.95h-12.71Z"/>
  <path class="st16" d="M138.73,348.72v-3.95h12.71v3.95h-12.71Z"/>
  <path class="st16" d="M158.46,361.87v-3.95h12.71v3.95h-12.71Z"/>
  <path class="st16" d="M197.91,342.15v-3.95h12.71v3.95h-12.71Z"/>
  <path class="st16" d="M207.77,447.36v-3.95h12.71v3.95h-12.71Z"/>
  <path class="st16" d="M227.5,460.51v-3.95h12.71v3.95h-12.71Z"/>
  <path class="st16" d="M266.95,440.78v-3.95h12.71v3.95h-12.71Z"/>
  <path class="st16" d="M86.12,453.93v-3.95h12.71v3.95h-12.71Z"/>
  <path class="st16" d="M105.85,467.08v-3.95h12.71v3.95h-12.71Z"/>
  <path class="st16" d="M145.3,447.36v-3.95h12.71v3.95h-12.71Z"/>
  <path class="st16" d="M441.21,444.07v-3.95h12.71v3.95h-12.71Z"/>
  <path class="st16" d="M460.93,457.22v-3.95h12.71v3.95h-12.71Z"/>
  <path class="st16" d="M500.39,437.49v-3.95h12.71v3.95h-12.71Z"/>
  <path class="st16" d="M319.56,450.64v-3.95h12.71v3.95h-12.71Z"/>
  <path class="st16" d="M339.28,463.79v-3.95h12.71v3.95h-12.71Z"/>
  <path class="st16" d="M378.74,444.07v-3.95h12.71v3.95h-12.71Z"/>
  <path class="st25" d="M300.93,222.72v-60.59h202.53v60.59h-202.53Z"/>
  <path class="st15" d="M301.58,238.4v-19.29h202.53v19.29h-202.53Z"/>
  <path class="st15" d="M300.93,214.12v-19.29h202.53v19.29h-202.53Z"/>
  <path class="st15" d="M300.93,188.31v-19.29h202.53v19.29h-202.53Z"/>
  <path class="st25" d="M517.75,162.11v-16.09h100.24v16.09h-100.24Z"/>
  <path class="st25" d="M188.19,162.11v-16.09h104.41v16.09h-104.41Z"/>
  <path class="st25" d="M341.7,161.77v-43.39h120.98v43.39h-120.98Z"/>
  <path class="st3" d="M400.1,130.72V7.24h5.84v123.48h-5.84Z"/>
  <path class="st25" d="M292,39.47v-19.87h217.05v19.87h-217.05Z"/>
  <path class="st25" d="M384.67,3.25c0-9.68,7.84-17.52,17.52-17.52s17.52,7.84,17.52,17.52-7.84,17.52-17.52,17.52-17.52-7.84-17.52-17.52Z"/>
  <g>
    <path class="st12" d="M320.01,109.02v-26.7h26.7v26.7h-26.7Z"/>
    <path class="st12" d="M354.12,108.93v-26.7h26.7v26.7h-26.7Z"/>
    <path class="st12" d="M319.91,74.72v-26.7h26.7v26.7h-26.7Z"/>
    <path class="st12" d="M354.02,74.62v-26.7h26.7v26.7h-26.7Z"/>
  </g>
  <g>
    <path class="st12" d="M423.37,110.59v-26.7h26.7v26.7h-26.7Z"/>
    <path class="st12" d="M457.48,110.5v-26.7h26.7v26.7h-26.7Z"/>
    <path class="st12" d="M423.27,76.29v-26.7h26.7v26.7h-26.7Z"/>
    <path class="st12" d="M457.38,76.19v-26.7h26.7v26.7h-26.7Z"/>
  </g>
  <g>
    <g>
      <path class="st14" d="M424.98,69.16l16.34-16.34,7.49,7.49-16.34,16.34-7.49-7.49Z"/>
      <path class="st14" d="M427.33,54.66l16.34-16.34,7.49,7.49-16.34,16.34-7.49-7.49Z"/>
    </g>
    <g>
      <path class="st14" d="M387.43,69.16l16.34-16.34,7.49,7.49-16.34,16.34-7.49-7.49Z"/>
      <path class="st14" d="M389.78,54.66l16.34-16.34,7.49,7.49-16.34,16.34-7.49-7.49Z"/>
    </g>
    <g>
      <path class="st14" d="M349.89,69.16l16.34-16.34,7.49,7.49-16.34,16.34-7.49-7.49Z"/>
      <path class="st14" d="M352.24,54.66l16.34-16.34,7.49,7.49-16.34,16.34-7.49-7.49Z"/>
    </g>
  </g>
  <path class="st14" d="M313.42,359.21c-.15,0-.29-.01-.44-.04-1.43-.24-2.4-1.6-2.16-3.03l5.7-33.76c.24-1.43,1.61-2.4,3.03-2.16,1.43.24,2.4,1.6,2.16,3.03l-5.7,33.76c-.22,1.28-1.33,2.19-2.59,2.19Z"/>
  <path class="st14" d="M490.52,359.65c-1.26,0-2.37-.91-2.59-2.19l-5.7-33.75c-.24-1.43.72-2.79,2.16-3.03,1.43-.25,2.79.72,3.03,2.16l5.7,33.75c.24,1.43-.72,2.79-2.16,3.03-.15.03-.3.04-.44.04Z"/>
  <g>
    <path class="st18" d="M628.48,263.6c-7.63,0-13.81-6.18-13.81-13.81v-19.07c0-7.63,6.18-13.81,13.81-13.81s13.81,6.18,13.81,13.81v19.07c0,7.63-6.18,13.81-13.81,13.81Z"/>
    <path class="st7" d="M628.81,264.79c-5.45,0-9.86-4.42-9.86-9.86v-19.07c0-5.45,4.42-9.86,9.86-9.86s9.86,4.42,9.86,9.86v19.07c0,5.45-4.42,9.86-9.86,9.86Z"/>
    <path class="st18" d="M615.33,270.01c-5.39,0-9.79-4.33-9.86-9.74-.07-5.45,4.29-9.92,9.74-9.99l26.3-.33s.08,0,.13,0c5.39,0,9.79,4.33,9.86,9.74.07,5.45-4.29,9.92-9.74,9.99l-26.3.33s-.08,0-.13,0Z"/>
    <path class="st18" d="M609.04,248.36c-.83,0-1.67-.17-2.47-.54-2.97-1.37-4.27-4.88-2.9-7.85l7.7-16.72c1.37-2.97,4.88-4.27,7.85-2.9,2.97,1.37,4.27,4.88,2.9,7.85l-7.7,16.72c-1,2.17-3.14,3.44-5.38,3.44Z"/>
    <path class="st22" d="M619.18,253.91c-.63,0-1.27-.15-1.87-.48l-9.39-5.07c-1.92-1.04-2.63-3.43-1.6-5.35,1.04-1.92,3.43-2.63,5.35-1.6l9.39,5.07c1.92,1.04,2.63,3.43,1.6,5.35-.71,1.32-2.07,2.07-3.48,2.07Z"/>
    <path class="st18" d="M613.92,250.8c0-3.68,2.99-6.67,6.67-6.67s6.67,2.99,6.67,6.67-2.99,6.67-6.67,6.67-6.67-2.99-6.67-6.67Z"/>
    <path class="st18" d="M649.06,248.17c-2.24,0-4.38-1.28-5.38-3.44l-7.7-16.72c-1.37-2.97-.07-6.48,2.9-7.85,2.97-1.37,6.48-.07,7.85,2.9l7.7,16.72c1.37,2.97.07,6.48-2.9,7.85-.8.37-1.64.54-2.47.54Z"/>
    <path class="st22" d="M638.92,253.72c-1.4,0-2.76-.75-3.48-2.07-1.04-1.92-.32-4.31,1.6-5.35l9.39-5.07c1.92-1.04,4.31-.32,5.35,1.6,1.04,1.92.32,4.31-1.6,5.35l-9.39,5.07c-.6.32-1.24.48-1.87.48Z"/>
    <path class="st18" d="M637.5,257.29c-3.68,0-6.67-2.99-6.67-6.67s2.99-6.67,6.67-6.67,6.67,2.99,6.67,6.67-2.99,6.67-6.67,6.67Z"/>
    <path class="st18" d="M641.35,225.07h-24.24c-2.54,0-4.6-2.06-4.6-4.6s2.06-4.6,4.6-4.6h24.24c2.54,0,4.6,2.06,4.6,4.6s-2.06,4.6-4.6,4.6Z"/>
    <path class="st18" d="M628.81,224.02c-5.45,0-9.86-4.42-9.86-9.86v-13.15c0-5.45,4.42-9.86,9.86-9.86s9.86,4.42,9.86,9.86v13.15c0,5.45-4.42,9.86-9.86,9.86Z"/>
    <path class="st14" d="M629.07,215.68c-.73,0-1.32-.59-1.32-1.32v-16.11c0-.73.59-1.32,1.32-1.32s1.32.59,1.32,1.32v16.11c0,.73-.59,1.32-1.32,1.32Z"/>
    <path class="st14" d="M633.65,204.12h-9.21c-.73,0-1.32-.59-1.32-1.32s.59-1.32,1.32-1.32h9.21c.73,0,1.32.59,1.32,1.32s-.59,1.32-1.32,1.32Z"/>
    <path class="st14" d="M633.46,210.5h-9.21c-.73,0-1.32-.59-1.32-1.32s.59-1.32,1.32-1.32h9.21c.73,0,1.32.59,1.32,1.32s-.59,1.32-1.32,1.32Z"/>
    <path class="st18" d="M687.66,263.6c-7.63,0-13.81-6.18-13.81-13.81v-19.07c0-7.63,6.18-13.81,13.81-13.81s13.81,6.18,13.81,13.81v19.07c0,7.63-6.18,13.81-13.81,13.81Z"/>
    <path class="st7" d="M687.99,264.79c-5.45,0-9.86-4.42-9.86-9.86v-19.07c0-5.45,4.42-9.86,9.86-9.86s9.86,4.42,9.86,9.86v19.07c0,5.45-4.42,9.86-9.86,9.86Z"/>
    <path class="st18" d="M674.51,270.01c-5.39,0-9.79-4.33-9.86-9.74-.07-5.45,4.29-9.92,9.74-9.99l26.3-.33s.08,0,.13,0c5.39,0,9.79,4.33,9.86,9.74.07,5.45-4.29,9.92-9.74,9.99l-26.3.33s-.08,0-.13,0Z"/>
    <path class="st18" d="M668.22,248.36c-.83,0-1.67-.17-2.47-.54-2.97-1.37-4.27-4.88-2.9-7.85l7.7-16.72c1.37-2.97,4.88-4.27,7.85-2.9,2.97,1.37,4.27,4.88,2.9,7.85l-7.7,16.72c-1,2.17-3.14,3.44-5.38,3.44Z"/>
    <path class="st22" d="M678.36,253.91c-.63,0-1.27-.15-1.87-.48l-9.39-5.07c-1.92-1.04-2.63-3.43-1.6-5.35,1.03-1.92,3.43-2.63,5.35-1.6l9.39,5.07c1.92,1.04,2.63,3.43,1.6,5.35-.71,1.32-2.07,2.07-3.48,2.07Z"/>
    <path class="st18" d="M673.1,250.8c0-3.68,2.99-6.67,6.67-6.67s6.67,2.99,6.67,6.67-2.99,6.67-6.67,6.67-6.67-2.99-6.67-6.67Z"/>
    <path class="st18" d="M708.24,248.17c-2.24,0-4.38-1.28-5.38-3.44l-7.7-16.72c-1.37-2.97-.07-6.48,2.9-7.85,2.97-1.37,6.48-.07,7.85,2.9l7.7,16.72c1.37,2.97.07,6.48-2.9,7.85-.8.37-1.64.54-2.47.54Z"/>
    <path class="st22" d="M698.1,253.72c-1.4,0-2.76-.75-3.48-2.07-1.04-1.92-.32-4.31,1.6-5.35l9.39-5.07c1.92-1.04,4.31-.32,5.35,1.6,1.04,1.92.32,4.31-1.6,5.35l-9.39,5.07c-.6.32-1.24.48-1.87.48Z"/>
    <path class="st18" d="M696.68,257.29c-3.68,0-6.67-2.99-6.67-6.67s2.99-6.67,6.67-6.67,6.67,2.99,6.67,6.67-2.99,6.67-6.67,6.67Z"/>
    <path class="st18" d="M700.53,225.07h-24.24c-2.54,0-4.6-2.06-4.6-4.6s2.06-4.6,4.6-4.6h24.24c2.54,0,4.6,2.06,4.6,4.6s-2.06,4.6-4.6,4.6Z"/>
    <path class="st18" d="M687.99,224.02c-5.45,0-9.86-4.42-9.86-9.86v-13.15c0-5.45,4.42-9.86,9.86-9.86s9.86,4.42,9.86,9.86v13.15c0,5.45-4.42,9.86-9.86,9.86Z"/>
    <path class="st14" d="M688.25,215.68c-.73,0-1.32-.59-1.32-1.32v-16.11c0-.73.59-1.32,1.32-1.32s1.32.59,1.32,1.32v16.11c0,.73-.59,1.32-1.32,1.32Z"/>
    <path class="st14" d="M692.83,204.12h-9.21c-.73,0-1.32-.59-1.32-1.32s.59-1.32,1.32-1.32h9.21c.73,0,1.32.59,1.32,1.32s-.59,1.32-1.32,1.32Z"/>
    <path class="st14" d="M692.64,210.5h-9.21c-.73,0-1.32-.59-1.32-1.32s.59-1.32,1.32-1.32h9.21c.73,0,1.32.59,1.32,1.32s-.59,1.32-1.32,1.32Z"/>
    <path class="st18" d="M510.12,263.6c-7.63,0-13.81-6.18-13.81-13.81v-19.07c0-7.63,6.18-13.81,13.81-13.81s13.81,6.18,13.81,13.81v19.07c0,7.63-6.18,13.81-13.81,13.81Z"/>
    <path class="st7" d="M510.45,264.79c-5.45,0-9.86-4.42-9.86-9.86v-19.07c0-5.45,4.42-9.86,9.86-9.86s9.86,4.42,9.86,9.86v19.07c0,5.45-4.42,9.86-9.86,9.86Z"/>
    <path class="st18" d="M496.97,270.01c-5.39,0-9.79-4.33-9.86-9.74-.07-5.45,4.29-9.92,9.74-9.99l26.3-.33s.08,0,.13,0c5.39,0,9.79,4.33,9.86,9.74.07,5.45-4.29,9.92-9.74,9.99l-26.3.33s-.08,0-.13,0Z"/>
    <path class="st18" d="M490.67,248.36c-.83,0-1.67-.17-2.47-.54-2.97-1.37-4.27-4.88-2.9-7.85l7.7-16.72c1.37-2.97,4.88-4.27,7.85-2.9,2.97,1.37,4.27,4.88,2.9,7.85l-7.7,16.72c-1,2.17-3.14,3.44-5.38,3.44Z"/>
    <path class="st22" d="M500.82,253.91c-.63,0-1.27-.15-1.87-.48l-9.39-5.07c-1.92-1.04-2.63-3.43-1.6-5.35,1.03-1.92,3.43-2.63,5.35-1.6l9.39,5.07c1.92,1.04,2.63,3.43,1.6,5.35-.71,1.32-2.07,2.07-3.48,2.07Z"/>
    <path class="st18" d="M495.56,250.8c0-3.68,2.99-6.67,6.67-6.67s6.67,2.99,6.67,6.67-2.99,6.67-6.67,6.67-6.67-2.99-6.67-6.67Z"/>
    <path class="st18" d="M530.7,248.17c-2.24,0-4.38-1.28-5.38-3.44l-7.7-16.72c-1.37-2.97-.07-6.48,2.9-7.85,2.97-1.37,6.48-.07,7.85,2.9l7.7,16.72c1.37,2.97.07,6.48-2.9,7.85-.8.37-1.64.54-2.47.54Z"/>
    <path class="st22" d="M520.55,253.72c-1.4,0-2.76-.75-3.48-2.07-1.04-1.92-.32-4.31,1.6-5.35l9.39-5.07c1.92-1.04,4.31-.32,5.35,1.6,1.04,1.92.32,4.31-1.6,5.35l-9.39,5.07c-.6.32-1.24.48-1.87.48Z"/>
    <path class="st18" d="M519.14,257.29c-3.68,0-6.67-2.99-6.67-6.67s2.99-6.67,6.67-6.67,6.67,2.99,6.67,6.67-2.99,6.67-6.67,6.67Z"/>
    <path class="st18" d="M522.99,225.07h-24.24c-2.54,0-4.6-2.06-4.6-4.6s2.06-4.6,4.6-4.6h24.24c2.54,0,4.6,2.06,4.6,4.6s-2.06,4.6-4.6,4.6Z"/>
    <path class="st18" d="M510.45,224.02c-5.45,0-9.86-4.42-9.86-9.86v-13.15c0-5.45,4.42-9.86,9.86-9.86s9.86,4.42,9.86,9.86v13.15c0,5.45-4.42,9.86-9.86,9.86Z"/>
    <path class="st14" d="M510.71,215.68c-.73,0-1.32-.59-1.32-1.32v-16.11c0-.73.59-1.32,1.32-1.32s1.32.59,1.32,1.32v16.11c0,.73-.59,1.32-1.32,1.32Z"/>
    <path class="st14" d="M515.29,204.12h-9.21c-.73,0-1.32-.59-1.32-1.32s.59-1.32,1.32-1.32h9.21c.73,0,1.32.59,1.32,1.32s-.59,1.32-1.32,1.32Z"/>
    <path class="st14" d="M515.1,210.5h-9.21c-.73,0-1.32-.59-1.32-1.32s.59-1.32,1.32-1.32h9.21c.73,0,1.32.59,1.32,1.32s-.59,1.32-1.32,1.32Z"/>
    <path class="st18" d="M569.3,263.6c-7.63,0-13.81-6.18-13.81-13.81v-19.07c0-7.63,6.18-13.81,13.81-13.81s13.81,6.18,13.81,13.81v19.07c0,7.63-6.18,13.81-13.81,13.81Z"/>
    <path class="st7" d="M569.63,264.79c-5.45,0-9.86-4.42-9.86-9.86v-19.07c0-5.45,4.42-9.86,9.86-9.86s9.86,4.42,9.86,9.86v19.07c0,5.45-4.42,9.86-9.86,9.86Z"/>
    <path class="st18" d="M556.15,270.01c-5.39,0-9.79-4.33-9.86-9.74-.07-5.45,4.29-9.92,9.74-9.99l26.3-.33s.08,0,.13,0c5.39,0,9.79,4.33,9.86,9.74.07,5.45-4.29,9.92-9.74,9.99l-26.3.33s-.08,0-.13,0Z"/>
    <path class="st18" d="M549.85,248.36c-.83,0-1.67-.17-2.47-.54-2.97-1.37-4.27-4.88-2.9-7.85l7.7-16.72c1.37-2.97,4.88-4.27,7.85-2.9,2.97,1.37,4.27,4.88,2.9,7.85l-7.7,16.72c-1,2.17-3.14,3.44-5.38,3.44Z"/>
    <path class="st22" d="M560,253.91c-.63,0-1.27-.15-1.87-.48l-9.39-5.07c-1.92-1.04-2.63-3.43-1.6-5.35,1.03-1.92,3.43-2.63,5.35-1.6l9.39,5.07c1.92,1.04,2.63,3.43,1.6,5.35-.71,1.32-2.07,2.07-3.48,2.07Z"/>
    <path class="st18" d="M554.74,250.8c0-3.68,2.99-6.67,6.67-6.67s6.67,2.99,6.67,6.67-2.99,6.67-6.67,6.67-6.67-2.99-6.67-6.67Z"/>
    <path class="st18" d="M589.88,248.17c-2.24,0-4.38-1.28-5.38-3.44l-7.7-16.72c-1.37-2.97-.07-6.48,2.9-7.85,2.97-1.37,6.48-.07,7.85,2.9l7.7,16.72c1.37,2.97.07,6.48-2.9,7.85-.8.37-1.64.54-2.47.54Z"/>
    <path class="st22" d="M579.74,253.72c-1.4,0-2.76-.75-3.48-2.07-1.04-1.92-.32-4.31,1.6-5.35l9.39-5.07c1.92-1.04,4.31-.32,5.35,1.6,1.04,1.92.32,4.31-1.6,5.35l-9.39,5.07c-.6.32-1.24.48-1.87.48Z"/>
    <path class="st18" d="M578.32,257.29c-3.68,0-6.67-2.99-6.67-6.67s2.99-6.67,6.67-6.67,6.67,2.99,6.67,6.67-2.99,6.67-6.67,6.67Z"/>
    <path class="st18" d="M582.17,225.07h-24.24c-2.54,0-4.6-2.06-4.6-4.6s2.06-4.6,4.6-4.6h24.24c2.54,0,4.6,2.06,4.6,4.6s-2.06,4.6-4.6,4.6Z"/>
    <path class="st18" d="M569.63,224.02c-5.45,0-9.86-4.42-9.86-9.86v-13.15c0-5.45,4.42-9.86,9.86-9.86s9.86,4.42,9.86,9.86v13.15c0,5.45-4.42,9.86-9.86,9.86Z"/>
    <path class="st14" d="M569.89,215.68c-.73,0-1.32-.59-1.32-1.32v-16.11c0-.73.59-1.32,1.32-1.32s1.32.59,1.32,1.32v16.11c0,.73-.59,1.32-1.32,1.32Z"/>
    <path class="st14" d="M574.47,204.12h-9.21c-.73,0-1.32-.59-1.32-1.32s.59-1.32,1.32-1.32h9.21c.73,0,1.32.59,1.32,1.32s-.59,1.32-1.32,1.32Z"/>
    <path class="st14" d="M574.28,210.5h-9.21c-.73,0-1.32-.59-1.32-1.32s.59-1.32,1.32-1.32h9.21c.73,0,1.32.59,1.32,1.32s-.59,1.32-1.32,1.32Z"/>
  </g>
  <g>
    <path class="st18" d="M233.95,263.6c-7.63,0-13.81-6.18-13.81-13.81v-19.07c0-7.63,6.18-13.81,13.81-13.81s13.81,6.18,13.81,13.81v19.07c0,7.63-6.18,13.81-13.81,13.81Z"/>
    <path class="st7" d="M234.28,264.79c-5.45,0-9.86-4.42-9.86-9.86v-19.07c0-5.45,4.42-9.86,9.86-9.86s9.86,4.42,9.86,9.86v19.07c0,5.45-4.42,9.86-9.86,9.86Z"/>
    <path class="st18" d="M220.8,270.01c-5.39,0-9.79-4.33-9.86-9.74-.07-5.45,4.29-9.92,9.74-9.99l26.3-.33s.08,0,.13,0c5.39,0,9.79,4.33,9.86,9.74.07,5.45-4.29,9.92-9.74,9.99l-26.3.33s-.08,0-.13,0Z"/>
    <path class="st18" d="M214.5,248.36c-.83,0-1.67-.17-2.47-.54-2.97-1.37-4.27-4.88-2.9-7.85l7.7-16.72c1.37-2.97,4.88-4.27,7.85-2.9,2.97,1.37,4.27,4.88,2.9,7.85l-7.7,16.72c-1,2.17-3.14,3.44-5.38,3.44Z"/>
    <path class="st22" d="M224.65,253.91c-.63,0-1.28-.15-1.87-.48l-9.39-5.07c-1.92-1.04-2.63-3.43-1.6-5.35,1.03-1.92,3.43-2.63,5.35-1.6l9.39,5.07c1.92,1.04,2.63,3.43,1.6,5.35-.71,1.32-2.07,2.07-3.47,2.07Z"/>
    <path class="st18" d="M219.39,250.8c0-3.68,2.99-6.67,6.67-6.67s6.67,2.99,6.67,6.67-2.99,6.67-6.67,6.67-6.67-2.99-6.67-6.67Z"/>
    <path class="st18" d="M254.53,248.17c-2.24,0-4.38-1.28-5.38-3.44l-7.7-16.72c-1.37-2.97-.07-6.48,2.9-7.85,2.97-1.37,6.48-.07,7.85,2.9l7.7,16.72c1.37,2.97.07,6.48-2.9,7.85-.8.37-1.64.54-2.47.54Z"/>
    <path class="st22" d="M244.38,253.72c-1.4,0-2.76-.75-3.47-2.07-1.04-1.92-.32-4.31,1.6-5.35l9.39-5.07c1.92-1.03,4.31-.32,5.35,1.6,1.04,1.92.32,4.31-1.6,5.35l-9.39,5.07c-.6.32-1.24.48-1.87.48Z"/>
    <path class="st18" d="M242.97,257.29c-3.68,0-6.67-2.99-6.67-6.67s2.99-6.67,6.67-6.67,6.67,2.99,6.67,6.67-2.99,6.67-6.67,6.67Z"/>
    <path class="st18" d="M246.82,225.07h-24.24c-2.54,0-4.6-2.06-4.6-4.6s2.06-4.6,4.6-4.6h24.24c2.54,0,4.6,2.06,4.6,4.6s-2.06,4.6-4.6,4.6Z"/>
    <path class="st18" d="M234.28,224.02c-5.45,0-9.86-4.42-9.86-9.86v-13.15c0-5.45,4.42-9.86,9.86-9.86s9.86,4.42,9.86,9.86v13.15c0,5.45-4.42,9.86-9.86,9.86Z"/>
    <path class="st14" d="M234.54,215.68c-.73,0-1.32-.59-1.32-1.32v-16.11c0-.73.59-1.32,1.32-1.32s1.32.59,1.32,1.32v16.11c0,.73-.59,1.32-1.32,1.32Z"/>
    <path class="st14" d="M239.12,204.12h-9.21c-.73,0-1.32-.59-1.32-1.32s.59-1.32,1.32-1.32h9.21c.73,0,1.32.59,1.32,1.32s-.59,1.32-1.32,1.32Z"/>
    <path class="st14" d="M238.93,210.5h-9.21c-.73,0-1.32-.59-1.32-1.32s.59-1.32,1.32-1.32h9.21c.73,0,1.32.59,1.32,1.32s-.59,1.32-1.32,1.32Z"/>
    <path class="st18" d="M293.13,263.6c-7.63,0-13.81-6.18-13.81-13.81v-19.07c0-7.63,6.18-13.81,13.81-13.81s13.81,6.18,13.81,13.81v19.07c0,7.63-6.18,13.81-13.81,13.81Z"/>
    <path class="st7" d="M293.46,264.79c-5.45,0-9.86-4.42-9.86-9.86v-19.07c0-5.45,4.42-9.86,9.86-9.86s9.86,4.42,9.86,9.86v19.07c0,5.45-4.42,9.86-9.86,9.86Z"/>
    <path class="st18" d="M279.98,270.01c-5.39,0-9.79-4.33-9.86-9.74-.07-5.45,4.29-9.92,9.74-9.99l26.3-.33s.08,0,.13,0c5.39,0,9.79,4.33,9.86,9.74.07,5.45-4.29,9.92-9.74,9.99l-26.3.33s-.08,0-.13,0Z"/>
    <path class="st18" d="M273.68,248.36c-.83,0-1.67-.17-2.47-.54-2.97-1.37-4.27-4.88-2.9-7.85l7.7-16.72c1.37-2.97,4.88-4.27,7.85-2.9,2.97,1.37,4.27,4.88,2.9,7.85l-7.7,16.72c-1,2.17-3.14,3.44-5.38,3.44Z"/>
    <path class="st22" d="M283.83,253.91c-.63,0-1.28-.15-1.87-.48l-9.39-5.07c-1.92-1.04-2.63-3.43-1.6-5.35,1.03-1.92,3.43-2.63,5.35-1.6l9.39,5.07c1.92,1.04,2.63,3.43,1.6,5.35-.71,1.32-2.07,2.07-3.47,2.07Z"/>
    <path class="st18" d="M278.57,250.8c0-3.68,2.99-6.67,6.67-6.67s6.67,2.99,6.67,6.67-2.99,6.67-6.67,6.67-6.67-2.99-6.67-6.67Z"/>
    <path class="st18" d="M313.71,248.17c-2.24,0-4.38-1.28-5.38-3.44l-7.7-16.72c-1.37-2.97-.07-6.48,2.9-7.85,2.97-1.37,6.48-.07,7.85,2.9l7.7,16.72c1.37,2.97.07,6.48-2.9,7.85-.8.37-1.64.54-2.47.54Z"/>
    <path class="st22" d="M303.56,253.72c-1.4,0-2.76-.75-3.47-2.07-1.04-1.92-.32-4.31,1.6-5.35l9.39-5.07c1.92-1.03,4.31-.32,5.35,1.6,1.04,1.92.32,4.31-1.6,5.35l-9.39,5.07c-.6.32-1.24.48-1.87.48Z"/>
    <path class="st18" d="M302.15,257.29c-3.68,0-6.67-2.99-6.67-6.67s2.99-6.67,6.67-6.67,6.67,2.99,6.67,6.67-2.99,6.67-6.67,6.67Z"/>
    <path class="st18" d="M306,225.07h-24.24c-2.54,0-4.6-2.06-4.6-4.6s2.06-4.6,4.6-4.6h24.24c2.54,0,4.6,2.06,4.6,4.6s-2.06,4.6-4.6,4.6Z"/>
    <path class="st18" d="M293.46,224.02c-5.45,0-9.86-4.42-9.86-9.86v-13.15c0-5.45,4.42-9.86,9.86-9.86s9.86,4.42,9.86,9.86v13.15c0,5.45-4.42,9.86-9.86,9.86Z"/>
    <path class="st14" d="M293.72,215.68c-.73,0-1.32-.59-1.32-1.32v-16.11c0-.73.59-1.32,1.32-1.32s1.32.59,1.32,1.32v16.11c0,.73-.59,1.32-1.32,1.32Z"/>
    <path class="st14" d="M298.3,204.12h-9.21c-.73,0-1.32-.59-1.32-1.32s.59-1.32,1.32-1.32h9.21c.73,0,1.32.59,1.32,1.32s-.59,1.32-1.32,1.32Z"/>
    <path class="st14" d="M298.11,210.5h-9.21c-.73,0-1.32-.59-1.32-1.32s.59-1.32,1.32-1.32h9.21c.73,0,1.32.59,1.32,1.32s-.59,1.32-1.32,1.32Z"/>
    <path class="st18" d="M115.59,263.6c-7.63,0-13.81-6.18-13.81-13.81v-19.07c0-7.63,6.18-13.81,13.81-13.81s13.81,6.18,13.81,13.81v19.07c0,7.63-6.18,13.81-13.81,13.81Z"/>
    <path class="st7" d="M115.92,264.79c-5.45,0-9.86-4.42-9.86-9.86v-19.07c0-5.45,4.42-9.86,9.86-9.86s9.86,4.42,9.86,9.86v19.07c0,5.45-4.42,9.86-9.86,9.86Z"/>
    <path class="st18" d="M102.44,270.01c-5.39,0-9.79-4.33-9.86-9.74-.07-5.45,4.29-9.92,9.74-9.99l26.3-.33s.08,0,.13,0c5.39,0,9.79,4.33,9.86,9.74.07,5.45-4.29,9.92-9.74,9.99l-26.3.33s-.08,0-.13,0Z"/>
    <path class="st18" d="M96.14,248.36c-.83,0-1.67-.17-2.47-.54-2.97-1.37-4.27-4.88-2.9-7.85l7.7-16.72c1.37-2.97,4.88-4.27,7.85-2.9,2.97,1.37,4.27,4.88,2.9,7.85l-7.7,16.72c-1,2.17-3.14,3.44-5.38,3.44Z"/>
    <path class="st22" d="M106.29,253.91c-.63,0-1.28-.15-1.87-.48l-9.39-5.07c-1.92-1.04-2.63-3.43-1.6-5.35,1.04-1.92,3.43-2.63,5.35-1.6l9.39,5.07c1.92,1.04,2.63,3.43,1.6,5.35-.71,1.32-2.07,2.07-3.47,2.07Z"/>
    <path class="st18" d="M101.03,250.8c0-3.68,2.99-6.67,6.67-6.67s6.67,2.99,6.67,6.67-2.99,6.67-6.67,6.67-6.67-2.99-6.67-6.67Z"/>
    <path class="st18" d="M136.16,248.17c-2.24,0-4.38-1.28-5.38-3.44l-7.7-16.72c-1.37-2.97-.07-6.48,2.9-7.85,2.97-1.37,6.48-.07,7.85,2.9l7.7,16.72c1.37,2.97.07,6.48-2.9,7.85-.8.37-1.64.54-2.47.54Z"/>
    <path class="st22" d="M126.02,253.72c-1.4,0-2.76-.75-3.47-2.07-1.04-1.92-.32-4.31,1.6-5.35l9.39-5.07c1.92-1.03,4.31-.32,5.35,1.6,1.04,1.92.32,4.31-1.6,5.35l-9.39,5.07c-.6.32-1.24.48-1.87.48Z"/>
    <path class="st18" d="M124.61,257.29c-3.68,0-6.67-2.99-6.67-6.67s2.99-6.67,6.67-6.67,6.67,2.99,6.67,6.67-2.99,6.67-6.67,6.67Z"/>
    <path class="st18" d="M128.46,225.07h-24.24c-2.54,0-4.6-2.06-4.6-4.6s2.06-4.6,4.6-4.6h24.24c2.54,0,4.6,2.06,4.6,4.6s-2.06,4.6-4.6,4.6Z"/>
    <path class="st18" d="M115.92,224.02c-5.45,0-9.86-4.42-9.86-9.86v-13.15c0-5.45,4.42-9.86,9.86-9.86s9.86,4.42,9.86,9.86v13.15c0,5.45-4.42,9.86-9.86,9.86Z"/>
    <path class="st14" d="M116.18,215.68c-.73,0-1.32-.59-1.32-1.32v-16.11c0-.73.59-1.32,1.32-1.32s1.32.59,1.32,1.32v16.11c0,.73-.59,1.32-1.32,1.32Z"/>
    <path class="st14" d="M120.75,204.12h-9.21c-.73,0-1.32-.59-1.32-1.32s.59-1.32,1.32-1.32h9.21c.73,0,1.32.59,1.32,1.32s-.59,1.32-1.32,1.32Z"/>
    <path class="st14" d="M120.57,210.5h-9.21c-.73,0-1.32-.59-1.32-1.32s.59-1.32,1.32-1.32h9.21c.73,0,1.32.59,1.32,1.32s-.59,1.32-1.32,1.32Z"/>
    <path class="st18" d="M174.77,263.6c-7.63,0-13.81-6.18-13.81-13.81v-19.07c0-7.63,6.18-13.81,13.81-13.81s13.81,6.18,13.81,13.81v19.07c0,7.63-6.18,13.81-13.81,13.81Z"/>
    <path class="st7" d="M175.1,264.79c-5.45,0-9.86-4.42-9.86-9.86v-19.07c0-5.45,4.42-9.86,9.86-9.86s9.86,4.42,9.86,9.86v19.07c0,5.45-4.42,9.86-9.86,9.86Z"/>
    <path class="st18" d="M161.62,270.01c-5.39,0-9.79-4.33-9.86-9.74-.07-5.45,4.29-9.92,9.74-9.99l26.3-.33s.08,0,.13,0c5.39,0,9.79,4.33,9.86,9.74.07,5.45-4.29,9.92-9.74,9.99l-26.3.33s-.08,0-.13,0Z"/>
    <path class="st18" d="M155.32,248.36c-.83,0-1.67-.17-2.47-.54-2.97-1.37-4.27-4.88-2.9-7.85l7.7-16.72c1.37-2.97,4.88-4.27,7.85-2.9,2.97,1.37,4.27,4.88,2.9,7.85l-7.7,16.72c-1,2.17-3.14,3.44-5.38,3.44Z"/>
    <path class="st22" d="M165.47,253.91c-.63,0-1.28-.15-1.87-.48l-9.39-5.07c-1.92-1.04-2.63-3.43-1.6-5.35,1.04-1.92,3.43-2.63,5.35-1.6l9.39,5.07c1.92,1.04,2.63,3.43,1.6,5.35-.71,1.32-2.07,2.07-3.47,2.07Z"/>
    <path class="st18" d="M160.21,250.8c0-3.68,2.99-6.67,6.67-6.67s6.67,2.99,6.67,6.67-2.99,6.67-6.67,6.67-6.67-2.99-6.67-6.67Z"/>
    <path class="st18" d="M195.34,248.17c-2.24,0-4.38-1.28-5.38-3.44l-7.7-16.72c-1.37-2.97-.07-6.48,2.9-7.85,2.97-1.37,6.48-.07,7.85,2.9l7.7,16.72c1.37,2.97.07,6.48-2.9,7.85-.8.37-1.64.54-2.47.54Z"/>
    <path class="st22" d="M185.2,253.72c-1.4,0-2.76-.75-3.47-2.07-1.04-1.92-.32-4.31,1.6-5.35l9.39-5.07c1.92-1.03,4.31-.32,5.35,1.6,1.04,1.92.32,4.31-1.6,5.35l-9.39,5.07c-.6.32-1.24.48-1.87.48Z"/>
    <path class="st18" d="M183.79,257.29c-3.68,0-6.67-2.99-6.67-6.67s2.99-6.67,6.67-6.67,6.67,2.99,6.67,6.67-2.99,6.67-6.67,6.67Z"/>
    <path class="st18" d="M187.64,225.07h-24.24c-2.54,0-4.6-2.06-4.6-4.6s2.06-4.6,4.6-4.6h24.24c2.54,0,4.6,2.06,4.6,4.6s-2.06,4.6-4.6,4.6Z"/>
    <path class="st18" d="M175.1,224.02c-5.45,0-9.86-4.42-9.86-9.86v-13.15c0-5.45,4.42-9.86,9.86-9.86s9.86,4.42,9.86,9.86v13.15c0,5.45-4.42,9.86-9.86,9.86Z"/>
    <path class="st14" d="M175.36,215.68c-.73,0-1.32-.59-1.32-1.32v-16.11c0-.73.59-1.32,1.32-1.32s1.32.59,1.32,1.32v16.11c0,.73-.59,1.32-1.32,1.32Z"/>
    <path class="st14" d="M179.94,204.12h-9.21c-.73,0-1.32-.59-1.32-1.32s.59-1.32,1.32-1.32h9.21c.73,0,1.32.59,1.32,1.32s-.59,1.32-1.32,1.32Z"/>
    <path class="st14" d="M179.75,210.5h-9.21c-.73,0-1.32-.59-1.32-1.32s.59-1.32,1.32-1.32h9.21c.73,0,1.32.59,1.32,1.32s-.59,1.32-1.32,1.32Z"/>
  </g>
  <path class="st11" d="M419.44,265.54c0,3.61-8.37,6.54-18.7,6.54s-18.7-2.93-18.7-6.54,8.37-6.54,18.7-6.54,18.7,2.93,18.7,6.54Z"/>
  <path class="st10" d="M411.87,204.99c-1.84,0-3.67-.73-5.03-2.17-2.61-2.78-2.49-7.15.29-9.76l15.91-14.99c2.78-2.61,7.15-2.48,9.76.29s2.49,7.15-.29,9.76l-15.91,14.99c-1.33,1.26-3.04,1.88-4.73,1.88Z"/>
  <path class="st8" d="M469.68,173.03l-13.02,13.02-14.13-14.13,13.02-13.02,14.13,14.13Z"/>
  <path class="st2" d="M429.23,185.33c-1.18,0-2.36-.45-3.26-1.35-1.8-1.8-1.8-4.71,0-6.51l3.42-3.42c1.8-1.8,4.71-1.8,6.51,0,1.8,1.8,1.8,4.71,0,6.51l-3.42,3.42c-.9.9-2.08,1.35-3.25,1.35Z"/>
  <path class="st23" d="M434.75,177.38c-.59,0-1.19-.23-1.64-.69-.89-.91-.88-2.36.02-3.25l17.75-17.49c.91-.89,2.36-.88,3.26.02.89.91.88,2.36-.02,3.25l-17.75,17.49c-.45.44-1.03.66-1.62.66Z"/>
  <path d="M393.8,267.13h-4.6c-3.05,0-5.52-2.47-5.52-5.52s2.47-5.52,5.52-5.52h4.6c3.05,0,5.52,2.47,5.52,5.52s-2.47,5.52-5.52,5.52Z"/>
  <path d="M412.21,267.13h-4.6c-3.05,0-5.52-2.47-5.52-5.52s2.47-5.52,5.52-5.52h4.6c3.05,0,5.52,2.47,5.52,5.52s-2.47,5.52-5.52,5.52Z"/>
  <path class="st24" d="M400.5,263.19c-5.08,0-9.21-4.12-9.21-9.21v-21.44c0-5.08,4.12-9.21,9.21-9.21s9.21,4.12,9.21,9.21v21.44c0,5.08-4.12,9.21-9.21,9.21Z"/>
  <path class="st10" d="M400.5,240.17c-7.63,0-13.81-6.18-13.81-13.81v-21.44c0-7.63,6.18-13.81,13.81-13.81s13.81,6.18,13.81,13.81v21.44c0,7.63-6.18,13.81-13.81,13.81Z"/>
  <path class="st2" d="M400.5,196.38c-4.58,0-8.28-3.71-8.28-8.28v-11.31c0-4.58,3.71-8.28,8.28-8.28s8.28,3.71,8.28,8.28v11.31c0,4.58-3.71,8.28-8.28,8.28Z"/>
  <path class="st17" d="M400.5,211.63c-1.02,0-1.84-.82-1.84-1.84v-11.7c0-1.02.82-1.84,1.84-1.84s1.84.82,1.84,1.84v11.7c0,1.02-.82,1.84-1.84,1.84Z"/>
  <path class="st2" d="M390.98,235.9c-2.54,0-4.6-2.06-4.6-4.6v-6.31c0-2.54,2.06-4.6,4.6-4.6s4.6,2.06,4.6,4.6v6.31c0,2.54-2.06,4.6-4.6,4.6Z"/>
  <path d="M263.11,268.57c-2.4,0-4.81-.87-6.71-2.63-3.99-3.71-4.23-9.95-.52-13.94l20.38-21.96c3.71-3.99,9.95-4.23,13.94-.52,3.99,3.71,4.23,9.95.52,13.94l-20.38,21.96c-1.94,2.09-4.58,3.15-7.23,3.15Z"/>
  <ellipse class="st19" cx="246.03" cy="354.15" rx="54.89" ry="5.75"/>
  <path class="st5" d="M279.81,353.4h-3.55c-5.45,0-9.86-4.42-9.86-9.86s4.42-9.86,9.86-9.86h3.55c5.45,0,9.86,4.42,9.86,9.86s-4.42,9.86-9.86,9.86Z"/>
  <path class="st5" d="M204.71,352.48c-2.23,0-4.46-.75-6.31-2.29-4.18-3.49-4.75-9.71-1.26-13.89l6.58-7.89c3.49-4.18,9.71-4.75,13.89-1.26,4.18,3.49,4.75,9.71,1.26,13.89l-6.58,7.89c-1.95,2.34-4.76,3.55-7.58,3.55Z"/>
  <path d="M213.01,348.4c-4.73,0-9.43-2.03-12.68-5.97-5.78-7-4.79-17.36,2.2-23.14l11.54-9.53,19.47-19.22c6.46-6.38,16.87-6.31,23.25.15,6.38,6.46,6.31,16.87-.15,23.25l-20.51,20.24-12.66,10.46c-3.06,2.53-6.77,3.77-10.46,3.77Z"/>
  <path d="M280.07,346.69c-4.15,0-8.3-1.56-11.5-4.69l-12.31-12.05-16.91-16.26c-6.55-6.29-6.75-16.7-.46-23.24,6.29-6.54,16.7-6.75,23.24-.46l17.07,16.41,12.36,12.1c6.49,6.35,6.6,16.76.25,23.25-3.22,3.29-7.48,4.94-11.75,4.94Z"/>
  <path d="M247.31,306.71c-6.75,0-12.5-5.17-13.09-12.03l-2.63-30.64c-.62-7.24,4.74-13.61,11.98-14.23,7.23-.64,13.61,4.74,14.23,11.98l2.63,30.64c.62,7.24-4.74,13.61-11.98,14.23-.38.03-.76.05-1.14.05Z"/>
  <path class="st1" d="M257.72,301.32c-7.26,0-13.15-5.89-13.15-13.15v-13.94c0-7.26,5.89-13.15,13.15-13.15s13.15,5.89,13.15,13.15v13.94c0,7.26-5.89,13.15-13.15,13.15Z"/>
  <path class="st20" d="M300.59,230.7c-1.1,0-2.21-.34-3.16-1.06-2.32-1.75-2.79-5.04-1.04-7.37l56.29-74.83c1.75-2.32,5.05-2.79,7.37-1.04,2.32,1.75,2.79,5.04,1.04,7.37l-56.29,74.83c-1.03,1.37-2.61,2.1-4.21,2.1Z"/>
  <g>
    <path class="st13" d="M286.65,230.83l24.72-18.28"/>
    <path class="st13" d="M286.66,237.41c-2.01,0-4-.92-5.29-2.67-2.16-2.92-1.54-7.04,1.38-9.2l24.72-18.28c2.92-2.16,7.04-1.54,9.2,1.38s1.54,7.04-1.38,9.2l-24.72,18.28c-1.18.87-2.55,1.29-3.9,1.29Z"/>
  </g>
  <path d="M311.9,202.55c5.52.26,9.86,5.13,9.47,10.65-.26,5.52-5.13,9.86-10.65,9.47-5.52-.26-9.86-5.13-9.47-10.65.39-5.52,5.13-9.86,10.65-9.47Z"/>
  <g>
    <path class="st13" d="M283.5,244.37l13.02-17.36"/>
    <path class="st13" d="M283.49,250.95c-1.37,0-2.76-.43-3.94-1.32-2.91-2.18-3.49-6.3-1.32-9.21l13.02-17.36c2.18-2.91,6.3-3.5,9.21-1.32,2.91,2.18,3.49,6.3,1.32,9.21l-13.02,17.36c-1.29,1.72-3.27,2.63-5.27,2.63Z"/>
  </g>
  <path d="M300.72,212.94c5.52.26,9.86,5.13,9.47,10.65-.26,5.52-5.13,9.86-10.65,9.47-2.63-.13-5-1.32-6.71-3.02-1.84-1.97-3.02-4.6-2.76-7.63.26-5.52,5.13-9.73,10.65-9.47h0Z"/>
  <path d="M256.27,255.29c-9.08,0-16.44-7.36-16.44-16.44v-16.04c0-9.08,7.36-16.44,16.44-16.44s16.44,7.36,16.44,16.44v16.04c0,9.08-7.36,16.44-16.44,16.44Z"/>
  <path d="M236.55,263.05c-3.83,0-7.47-2.24-9.07-5.99-2.14-5.01.19-10.8,5.19-12.95l13.55-5.79c5.01-2.14,10.81.19,12.95,5.19,2.14,5.01-.19,10.81-5.19,12.95l-13.55,5.79c-1.26.54-2.58.8-3.87.8Z"/>
  <path class="st14" d="M268.63,243.32c-1.09,0-1.97-.88-1.97-1.97v-19.86c0-1.09.88-1.97,1.97-1.97s1.97.88,1.97,1.97v19.86c0,1.09-.88,1.97-1.97,1.97Z"/>
  <path class="st14" d="M270.48,228.99h-6.97c-1.09,0-1.97-.88-1.97-1.97s.88-1.97,1.97-1.97h6.97c1.09,0,1.97.88,1.97,1.97s-.88,1.97-1.97,1.97Z"/>
  <path class="st14" d="M271.26,238.72h-7.76c-1.09,0-1.97-.88-1.97-1.97s.88-1.97,1.97-1.97h7.76c1.09,0,1.97.88,1.97,1.97s-.88,1.97-1.97,1.97Z"/>
  <path d="M255.75,268.58c-3.66,0-7.18-2.05-8.88-5.57-2.37-4.9-.32-10.8,4.58-13.18l24.99-12.1c4.9-2.37,10.8-.32,13.18,4.58,2.37,4.9.32,10.8-4.58,13.18l-24.99,12.1c-1.39.67-2.85.99-4.29.99Z"/>
  <path class="st20" d="M322.29,214.39c-1.09,0-2.19-.34-3.14-1.04l-12.89-9.6c-2.33-1.74-2.81-5.03-1.08-7.36,1.74-2.33,5.03-2.81,7.36-1.08l12.89,9.6c2.33,1.74,2.81,5.03,1.08,7.36-1.03,1.39-2.62,2.12-4.22,2.12Z"/>
  <path d="M221.16,250.16c-.68,0-1.35-.26-1.86-.78-1.02-1.03-1.02-2.69,0-3.72l24.86-24.72c1.03-1.02,2.69-1.02,3.72,0,1.02,1.03,1.02,2.7,0,3.72l-24.86,24.72c-.51.51-1.18.77-1.86.77Z"/>
  <path d="M542.9,268.06c-1.39,0-2.8-.3-4.14-.92l-28.93-13.41c-4.94-2.29-7.09-8.16-4.8-13.1,2.29-4.94,8.16-7.09,13.1-4.8l28.93,13.41c4.94,2.29,7.09,8.16,4.8,13.1-1.67,3.6-5.23,5.72-8.96,5.72Z"/>
  <ellipse class="st19" cx="563.29" cy="352.75" rx="54.89" ry="5.75"/>
  <path class="st5" d="M529.75,352.75h-3.55c-5.45,0-9.86-4.42-9.86-9.86s4.42-9.86,9.86-9.86h3.55c5.45,0,9.86,4.42,9.86,9.86s-4.42,9.86-9.86,9.86Z"/>
  <path class="st5" d="M605.12,351.83c-2.83,0-5.63-1.21-7.58-3.55l-6.58-7.89c-3.49-4.19-2.92-10.41,1.26-13.89,4.19-3.49,10.4-2.92,13.89,1.26l6.58,7.89c3.49,4.19,2.92,10.41-1.26,13.89-1.84,1.54-4.08,2.29-6.31,2.29Z"/>
  <path d="M595.63,347.76c-3.18,0-6.39-.92-9.21-2.84l-15.98-10.84-21.06-20.78c-6.46-6.38-6.53-16.79-.15-23.25,6.38-6.46,16.79-6.53,23.25-.15l18.92,18.67,13.48,9.15c7.51,5.1,9.47,15.32,4.37,22.83-3.18,4.69-8.35,7.21-13.62,7.21Z"/>
  <path d="M525.82,346.05c-.24,0-.48,0-.73-.02-9.07-.39-16.11-8.07-15.71-17.14l.92-21.2,36.73-20.8c7.9-4.47,17.93-1.69,22.4,6.21,4.47,7.9,1.69,17.93-6.21,22.4l-20.87,11.82-.13,3c-.38,8.83-7.66,15.73-16.41,15.73Z"/>
  <path d="M558.67,306.07c-6.75,0-12.5-5.17-13.09-12.03l-2.63-30.64c-.62-7.24,4.74-13.61,11.98-14.23,7.23-.63,13.61,4.74,14.23,11.98l2.63,30.64c.62,7.24-4.74,13.61-11.98,14.23-.38.03-.76.05-1.14.05Z"/>
  <path class="st1" d="M543.04,300.68c-7.26,0-13.15-5.89-13.15-13.15v-13.94c0-7.26,5.89-13.15,13.15-13.15s13.15,5.89,13.15,13.15v13.94c0,7.26-5.89,13.15-13.15,13.15Z"/>
  <path class="st20" d="M489.38,242.15c-.64,0-1.29-.12-1.93-.37l-87.19-34.32c-2.7-1.06-4.03-4.12-2.97-6.82,1.06-2.7,4.12-4.03,6.82-2.97l87.19,34.32c2.7,1.06,4.03,4.12,2.97,6.82-.81,2.07-2.8,3.33-4.9,3.33Z"/>
  <g>
    <path class="st13" d="M475.97,231.63l30.38,9.07"/>
    <path class="st13" d="M506.35,247.28c-.62,0-1.26-.09-1.88-.28l-30.38-9.07c-3.48-1.04-5.46-4.7-4.42-8.18,1.04-3.48,4.71-5.46,8.18-4.42l30.38,9.07c3.48,1.04,5.46,4.7,4.42,8.18-.85,2.85-3.47,4.7-6.3,4.7Z"/>
  </g>
  <path d="M481.75,225.85c3.16,4.6,2.1,10.92-2.5,14.07s-10.92,2.1-14.07-2.5c-3.16-4.6-2.1-10.92,2.5-14.07,4.47-3.16,10.78-2.1,14.07,2.5Z"/>
  <g>
    <path class="st13" d="M494.64,239.13l30.64,12.89"/>
    <path class="st13" d="M525.28,258.59c-.85,0-1.71-.17-2.55-.52l-30.64-12.89c-3.35-1.41-4.92-5.26-3.51-8.61,1.41-3.35,5.27-4.92,8.61-3.51l30.64,12.89c3.35,1.41,4.92,5.26,3.51,8.61-1.06,2.51-3.5,4.03-6.06,4.03Z"/>
  </g>
  <path d="M496.74,231.63c1.71,2.37,2.1,5.26,1.58,7.89-.53,2.37-1.97,4.6-4.08,6.05-4.6,3.16-10.92,2.1-14.07-2.5-3.16-4.6-2.1-10.92,2.5-14.07,4.6-3.16,10.92-1.97,14.07,2.63h0Z"/>
  <path d="M545.8,254.65c-9.08,0-16.44-7.36-16.44-16.44v-16.04c0-9.08,7.36-16.44,16.44-16.44s16.44,7.36,16.44,16.44v16.04c0,9.08-7.36,16.44-16.44,16.44Z"/>
  <path d="M565.52,262.41c-1.29,0-2.61-.26-3.87-.8l-13.55-5.79c-5.01-2.14-7.34-7.94-5.19-12.95,2.14-5.01,7.93-7.34,12.94-5.19l13.55,5.79c5.01,2.14,7.34,7.94,5.19,12.95-1.6,3.75-5.24,5.99-9.07,5.99Z"/>
  <path class="st14" d="M533.44,242.68c-1.09,0-1.97-.88-1.97-1.97v-19.86c0-1.09.88-1.97,1.97-1.97s1.97.88,1.97,1.97v19.86c0,1.09-.88,1.97-1.97,1.97Z"/>
  <path class="st14" d="M538.56,228.34h-6.97c-1.09,0-1.97-.88-1.97-1.97s.88-1.97,1.97-1.97h6.97c1.09,0,1.97.88,1.97,1.97s-.88,1.97-1.97,1.97Z"/>
  <path class="st14" d="M538.56,238.08h-7.76c-1.09,0-1.97-.88-1.97-1.97s.88-1.97,1.97-1.97h7.76c1.09,0,1.97.88,1.97,1.97s-.88,1.97-1.97,1.97Z"/>
  <path d="M550.28,267.93c-.77,0-1.55-.09-2.33-.28l-24.99-6.05c-5.29-1.28-8.55-6.61-7.27-11.91s6.61-8.55,11.91-7.27l24.99,6.05c5.29,1.28,8.55,6.61,7.27,11.91-1.09,4.51-5.13,7.55-9.58,7.55Z"/>
  <path class="st20" d="M462.29,239.66c-.65,0-1.31-.12-1.94-.37-2.7-1.07-4.02-4.13-2.94-6.83l5.92-14.86c1.08-2.7,4.14-4.01,6.83-2.94,2.7,1.07,4.02,4.13,2.94,6.83l-5.92,14.86c-.82,2.06-2.8,3.32-4.89,3.32Z"/>
  <path d="M582.22,241.76c-.49,0-.99-.14-1.43-.42l-26.17-16.97c-1.22-.79-1.57-2.42-.78-3.64.79-1.22,2.42-1.57,3.64-.78l26.17,16.97c1.22.79,1.57,2.42.78,3.64-.5.78-1.35,1.2-2.21,1.2Z"/>
</svg>