<?xml version="1.0" encoding="UTF-8"?>
<svg id="_レイヤー_1" data-name="レイヤー_1" xmlns="http://www.w3.org/2000/svg" version="1.1" viewBox="0 0 800 500">
  <!-- Generator: Adobe Illustrator 30.1.0, SVG Export Plug-In . SVG Version: 2.1.1 Build 136)  -->
  <defs>
    <style>
      .st0 {
        stroke: #231815;
      }

      .st0, .st1, .st2, .st3, .st4, .st5, .st6, .st7 {
        fill: none;
        stroke-miterlimit: 10;
      }

      .st0, .st4 {
        stroke-width: 8px;
      }

      .st8 {
        fill: #689945;
      }

      .st9 {
        fill: #c7e6fd;
      }

      .st10 {
        fill: #dcd2b4;
      }

      .st10, .st11, .st12, .st13 {
        fill-rule: evenodd;
      }

      .st1, .st3, .st5, .st6, .st7 {
        stroke: #fff;
      }

      .st2 {
        stroke: #cdcdcd;
      }

      .st2, .st3, .st5 {
        stroke-width: 2.5px;
      }

      .st2, .st5, .st7 {
        stroke-linecap: round;
      }

      .st11 {
        fill: #aaa082;
      }

      .st14 {
        fill: #92bf48;
      }

      .st4 {
        stroke: #fa0;
      }

      .st15 {
        fill: #4a7895;
      }

      .st16 {
        fill: #86bbd1;
      }

      .st17 {
        fill: #231815;
      }

      .st13 {
        fill: #f0e6d2;
      }

      .st18 {
        fill: #ffd53e;
      }

      .st19 {
        fill: #fff;
      }

      .st20 {
        fill: #e30000;
      }

      .st6 {
        stroke-width: 1.5px;
      }

      .st21 {
        fill: #317a34;
      }

      .st22 {
        fill: #b9b9b9;
        font-family: ArialMT, Arial;
        font-size: 17.01px;
        isolation: isolate;
      }

      .st23 {
        fill: #8a8a8a;
      }

      .st24 {
        fill: #4a5d69;
      }

      .st7 {
        stroke-width: 2px;
      }

      .st25 {
        fill: #ffd43c;
      }

      .st26 {
        fill: #29662c;
      }

      .st27 {
        fill: #d9f0ff;
      }
    </style>
  </defs>
  <path class="st27" d="M-561.02,367.01V-6.73h1917.16v373.73H-561.02Z"/>
  <path class="st19" d="M613.64,154.13c0,21.25-30.43,38.47-67.97,38.47s-67.97-17.22-67.97-38.47,30.43-38.47,67.97-38.47,67.97,17.22,67.97,38.47Z"/>
  <path class="st19" d="M643.13,120.79c0,16.29-17.8,29.49-39.75,29.49s-39.75-13.21-39.75-29.49,17.8-29.49,39.75-29.49,39.75,13.21,39.75,29.49Z"/>
  <path class="st19" d="M232.77,71.04c0,12.64-17.65,22.89-39.41,22.89s-39.41-10.25-39.41-22.89,17.65-22.89,39.41-22.89,39.41,10.25,39.41,22.89Z"/>
  <path class="st19" d="M203.87,85.81c0,12.64-17.65,22.89-39.41,22.89s-39.41-10.25-39.41-22.89,17.65-22.89,39.41-22.89,39.41,10.25,39.41,22.89Z"/>
  <path class="st16" d="M223.21,218.56L210.38,2.91h26.96l12.82,215.66h-26.96Z"/>
  <path class="st16" d="M562.73,221.12l12.82-215.66h26.96l-12.82,215.66h-26.96Z"/>
  <path class="st24" d="M-7.73,331.77v-44.88h811.27v44.88H-7.73Z"/>
  <path class="st16" d="M-7.27,287.1v-139.13h811.27v139.13H-7.27Z"/>
  <path class="st15" d="M273.65,322.12v-28.21h96.18v28.21h-96.18Z"/>
  <path class="st15" d="M572.44,322.12v-28.21h88.48v28.21h-88.48Z"/>
  <path class="st9" d="M323.66,258.71c0-5.28,4.28-9.56,9.56-9.56s9.56,4.28,9.56,9.56-4.28,9.56-9.56,9.56-9.56-4.28-9.56-9.56Z"/>
  <path class="st9" d="M350.64,258.71c0-5.28,4.28-9.56,9.56-9.56s9.56,4.28,9.56,9.56-4.28,9.56-9.56,9.56-9.56-4.28-9.56-9.56Z"/>
  <path class="st9" d="M377.63,258.71c0-5.28,4.28-9.56,9.56-9.56s9.56,4.28,9.56,9.56-4.28,9.56-9.56,9.56-9.56-4.28-9.56-9.56Z"/>
  <path class="st9" d="M404.62,258.71c0-5.28,4.28-9.56,9.56-9.56s9.56,4.28,9.56,9.56-4.28,9.56-9.56,9.56-9.56-4.28-9.56-9.56h0Z"/>
  <path class="st9" d="M432.73,258.71c0-5.28,4.28-9.56,9.56-9.56s9.56,4.28,9.56,9.56-4.28,9.56-9.56,9.56-9.56-4.28-9.56-9.56Z"/>
  <path class="st9" d="M459.71,258.71c0-5.28,4.28-9.56,9.56-9.56s9.56,4.28,9.56,9.56-4.28,9.56-9.56,9.56-9.56-4.28-9.56-9.56Z"/>
  <path class="st9" d="M308.27,230.49c0-5.28,4.28-9.56,9.56-9.56s9.56,4.28,9.56,9.56-4.28,9.56-9.56,9.56-9.56-4.28-9.56-9.56Z"/>
  <path class="st9" d="M335.26,230.49c0-5.28,4.28-9.56,9.56-9.56s9.56,4.28,9.56,9.56-4.28,9.56-9.56,9.56-9.56-4.28-9.56-9.56Z"/>
  <path class="st9" d="M362.24,230.49c0-5.28,4.28-9.56,9.56-9.56s9.56,4.28,9.56,9.56-4.28,9.56-9.56,9.56-9.56-4.28-9.56-9.56Z"/>
  <path class="st9" d="M389.23,230.49c0-5.28,4.28-9.56,9.56-9.56s9.56,4.28,9.56,9.56-4.28,9.56-9.56,9.56-9.56-4.28-9.56-9.56Z"/>
  <path class="st9" d="M417.34,230.49c0-5.28,4.28-9.56,9.56-9.56s9.56,4.28,9.56,9.56-4.28,9.56-9.56,9.56-9.56-4.28-9.56-9.56Z"/>
  <path class="st9" d="M444.32,230.49c0-5.28,4.28-9.56,9.56-9.56s9.56,4.28,9.56,9.56-4.28,9.56-9.56,9.56-9.56-4.28-9.56-9.56Z"/>
  <path class="st9" d="M312.12,203.56c0-5.28,4.28-9.56,9.56-9.56s9.56,4.28,9.56,9.56-4.28,9.56-9.56,9.56-9.56-4.28-9.56-9.56Z"/>
  <path class="st9" d="M339.1,203.56c0-5.28,4.28-9.56,9.56-9.56s9.56,4.28,9.56,9.56-4.28,9.56-9.56,9.56-9.56-4.28-9.56-9.56Z"/>
  <path class="st9" d="M366.09,203.56c0-5.28,4.28-9.56,9.56-9.56s9.56,4.28,9.56,9.56-4.28,9.56-9.56,9.56-9.56-4.28-9.56-9.56Z"/>
  <path class="st9" d="M393.07,203.56c0-5.28,4.28-9.56,9.56-9.56s9.56,4.28,9.56,9.56-4.28,9.56-9.56,9.56-9.56-4.28-9.56-9.56Z"/>
  <path class="st9" d="M421.18,203.56c0-5.28,4.28-9.56,9.56-9.56s9.56,4.28,9.56,9.56-4.28,9.56-9.56,9.56-9.56-4.28-9.56-9.56Z"/>
  <path class="st9" d="M448.17,203.56c0-5.28,4.28-9.56,9.56-9.56s9.56,4.28,9.56,9.56-4.28,9.56-9.56,9.56-9.56-4.28-9.56-9.56Z"/>
  <path class="st9" d="M296.73,175.35c0-5.28,4.28-9.56,9.56-9.56s9.56,4.28,9.56,9.56-4.28,9.56-9.56,9.56-9.56-4.28-9.56-9.56Z"/>
  <path class="st9" d="M323.71,175.35c0-5.28,4.28-9.56,9.56-9.56s9.56,4.28,9.56,9.56-4.28,9.56-9.56,9.56-9.56-4.28-9.56-9.56Z"/>
  <path class="st9" d="M350.7,175.35c0-5.28,4.28-9.56,9.56-9.56s9.56,4.28,9.56,9.56-4.28,9.56-9.56,9.56-9.56-4.28-9.56-9.56Z"/>
  <path class="st9" d="M377.69,175.35c0-5.28,4.28-9.56,9.56-9.56s9.56,4.28,9.56,9.56-4.28,9.56-9.56,9.56-9.56-4.28-9.56-9.56Z"/>
  <path class="st9" d="M405.8,175.35c0-5.28,4.28-9.56,9.56-9.56s9.56,4.28,9.56,9.56-4.28,9.56-9.56,9.56-9.56-4.28-9.56-9.56h0Z"/>
  <path class="st9" d="M432.78,175.35c0-5.28,4.28-9.56,9.56-9.56s9.56,4.28,9.56,9.56-4.28,9.56-9.56,9.56-9.56-4.28-9.56-9.56Z"/>
  <path class="st9" d="M136.43,259.99c0-5.28,4.28-9.56,9.56-9.56s9.56,4.28,9.56,9.56-4.28,9.56-9.56,9.56-9.56-4.28-9.56-9.56Z"/>
  <path class="st9" d="M163.42,259.99c0-5.28,4.28-9.56,9.56-9.56s9.56,4.28,9.56,9.56-4.28,9.56-9.56,9.56-9.56-4.28-9.56-9.56Z"/>
  <path class="st9" d="M190.4,259.99c0-5.28,4.28-9.56,9.56-9.56s9.56,4.28,9.56,9.56-4.28,9.56-9.56,9.56-9.56-4.28-9.56-9.56Z"/>
  <path class="st9" d="M217.39,259.99c0-5.28,4.28-9.56,9.56-9.56s9.56,4.28,9.56,9.56-4.28,9.56-9.56,9.56-9.56-4.28-9.56-9.56Z"/>
  <path class="st9" d="M245.5,259.99c0-5.28,4.28-9.56,9.56-9.56s9.56,4.28,9.56,9.56-4.28,9.56-9.56,9.56-9.56-4.28-9.56-9.56Z"/>
  <path class="st9" d="M272.48,259.99c0-5.28,4.28-9.56,9.56-9.56s9.56,4.28,9.56,9.56-4.28,9.56-9.56,9.56-9.56-4.28-9.56-9.56Z"/>
  <path class="st9" d="M121.04,231.78c0-5.28,4.28-9.56,9.56-9.56s9.56,4.28,9.56,9.56-4.28,9.56-9.56,9.56-9.56-4.28-9.56-9.56Z"/>
  <path class="st9" d="M148.03,231.78c0-5.28,4.28-9.56,9.56-9.56s9.56,4.28,9.56,9.56-4.28,9.56-9.56,9.56-9.56-4.28-9.56-9.56Z"/>
  <path class="st9" d="M175.01,231.78c0-5.28,4.28-9.56,9.56-9.56s9.56,4.28,9.56,9.56-4.28,9.56-9.56,9.56-9.56-4.28-9.56-9.56Z"/>
  <path class="st9" d="M202,231.78c0-5.28,4.28-9.56,9.56-9.56s9.56,4.28,9.56,9.56-4.28,9.56-9.56,9.56-9.56-4.28-9.56-9.56Z"/>
  <path class="st9" d="M230.11,231.78c0-5.28,4.28-9.56,9.56-9.56s9.56,4.28,9.56,9.56-4.28,9.56-9.56,9.56-9.56-4.28-9.56-9.56Z"/>
  <path class="st9" d="M257.1,231.78c0-5.28,4.28-9.56,9.56-9.56s9.56,4.28,9.56,9.56-4.28,9.56-9.56,9.56-9.56-4.28-9.56-9.56Z"/>
  <path class="st9" d="M124.89,204.85c0-5.28,4.28-9.56,9.56-9.56s9.56,4.28,9.56,9.56-4.28,9.56-9.56,9.56-9.56-4.28-9.56-9.56Z"/>
  <path class="st9" d="M151.88,204.85c0-5.28,4.28-9.56,9.56-9.56s9.56,4.28,9.56,9.56-4.28,9.56-9.56,9.56-9.56-4.28-9.56-9.56Z"/>
  <path class="st9" d="M178.86,204.85c0-5.28,4.28-9.56,9.56-9.56s9.56,4.28,9.56,9.56-4.28,9.56-9.56,9.56-9.56-4.28-9.56-9.56Z"/>
  <path class="st9" d="M205.85,204.85c0-5.28,4.28-9.56,9.56-9.56s9.56,4.28,9.56,9.56-4.28,9.56-9.56,9.56-9.56-4.28-9.56-9.56Z"/>
  <path class="st9" d="M233.96,204.85c0-5.28,4.28-9.56,9.56-9.56s9.56,4.28,9.56,9.56-4.28,9.56-9.56,9.56-9.56-4.28-9.56-9.56Z"/>
  <path class="st9" d="M260.94,204.85c0-5.28,4.28-9.56,9.56-9.56s9.56,4.28,9.56,9.56-4.28,9.56-9.56,9.56-9.56-4.28-9.56-9.56Z"/>
  <path class="st9" d="M109.5,176.63c0-5.28,4.28-9.56,9.56-9.56s9.56,4.28,9.56,9.56-4.28,9.56-9.56,9.56-9.56-4.28-9.56-9.56Z"/>
  <path class="st9" d="M136.49,176.63c0-5.28,4.28-9.56,9.56-9.56s9.56,4.28,9.56,9.56-4.28,9.56-9.56,9.56-9.56-4.28-9.56-9.56Z"/>
  <path class="st9" d="M163.47,176.63c0-5.28,4.28-9.56,9.56-9.56s9.56,4.28,9.56,9.56-4.28,9.56-9.56,9.56-9.56-4.28-9.56-9.56Z"/>
  <path class="st9" d="M190.46,176.63c0-5.28,4.28-9.56,9.56-9.56s9.56,4.28,9.56,9.56-4.28,9.56-9.56,9.56-9.56-4.28-9.56-9.56Z"/>
  <path class="st9" d="M218.57,176.63c0-5.28,4.28-9.56,9.56-9.56s9.56,4.28,9.56,9.56-4.28,9.56-9.56,9.56-9.56-4.28-9.56-9.56Z"/>
  <path class="st9" d="M245.55,176.63c0-5.28,4.28-9.56,9.56-9.56s9.56,4.28,9.56,9.56-4.28,9.56-9.56,9.56-9.56-4.28-9.56-9.56Z"/>
  <path class="st9" d="M501.91,257.42c0-5.28,4.28-9.56,9.56-9.56s9.56,4.28,9.56,9.56-4.28,9.56-9.56,9.56-9.56-4.28-9.56-9.56Z"/>
  <path class="st9" d="M528.9,257.42c0-5.28,4.28-9.56,9.56-9.56s9.56,4.28,9.56,9.56-4.28,9.56-9.56,9.56-9.56-4.28-9.56-9.56Z"/>
  <path class="st9" d="M555.88,257.42c0-5.28,4.28-9.56,9.56-9.56s9.56,4.28,9.56,9.56-4.28,9.56-9.56,9.56-9.56-4.28-9.56-9.56Z"/>
  <path class="st9" d="M582.87,257.42c0-5.28,4.28-9.56,9.56-9.56s9.56,4.28,9.56,9.56-4.28,9.56-9.56,9.56-9.56-4.28-9.56-9.56Z"/>
  <path class="st9" d="M610.98,257.42c0-5.28,4.28-9.56,9.56-9.56s9.56,4.28,9.56,9.56-4.28,9.56-9.56,9.56-9.56-4.28-9.56-9.56Z"/>
  <path class="st9" d="M637.96,257.42c0-5.28,4.28-9.56,9.56-9.56s9.56,4.28,9.56,9.56-4.28,9.56-9.56,9.56-9.56-4.28-9.56-9.56Z"/>
  <path class="st9" d="M486.52,229.21c0-5.28,4.28-9.56,9.56-9.56s9.56,4.28,9.56,9.56-4.28,9.56-9.56,9.56-9.56-4.28-9.56-9.56Z"/>
  <path class="st9" d="M513.51,229.21c0-5.28,4.28-9.56,9.56-9.56s9.56,4.28,9.56,9.56-4.28,9.56-9.56,9.56-9.56-4.28-9.56-9.56Z"/>
  <path class="st9" d="M540.49,229.21c0-5.28,4.28-9.56,9.56-9.56s9.56,4.28,9.56,9.56-4.28,9.56-9.56,9.56-9.56-4.28-9.56-9.56Z"/>
  <path class="st9" d="M567.48,229.21c0-5.28,4.28-9.56,9.56-9.56s9.56,4.28,9.56,9.56-4.28,9.56-9.56,9.56-9.56-4.28-9.56-9.56Z"/>
  <path class="st9" d="M595.59,229.21c0-5.28,4.28-9.56,9.56-9.56s9.56,4.28,9.56,9.56-4.28,9.56-9.56,9.56-9.56-4.28-9.56-9.56Z"/>
  <path class="st9" d="M622.57,229.21c0-5.28,4.28-9.56,9.56-9.56s9.56,4.28,9.56,9.56-4.28,9.56-9.56,9.56-9.56-4.28-9.56-9.56Z"/>
  <path class="st9" d="M490.37,202.28c0-5.28,4.28-9.56,9.56-9.56s9.56,4.28,9.56,9.56-4.28,9.56-9.56,9.56-9.56-4.28-9.56-9.56Z"/>
  <path class="st9" d="M517.35,202.28c0-5.28,4.28-9.56,9.56-9.56s9.56,4.28,9.56,9.56-4.28,9.56-9.56,9.56-9.56-4.28-9.56-9.56Z"/>
  <path class="st9" d="M544.34,202.28c0-5.28,4.28-9.56,9.56-9.56s9.56,4.28,9.56,9.56-4.28,9.56-9.56,9.56-9.56-4.28-9.56-9.56Z"/>
  <path class="st9" d="M571.33,202.28c0-5.28,4.28-9.56,9.56-9.56s9.56,4.28,9.56,9.56-4.28,9.56-9.56,9.56-9.56-4.28-9.56-9.56Z"/>
  <path class="st9" d="M599.44,202.28c0-5.28,4.28-9.56,9.56-9.56s9.56,4.28,9.56,9.56-4.28,9.56-9.56,9.56-9.56-4.28-9.56-9.56Z"/>
  <path class="st9" d="M626.42,202.28c0-5.28,4.28-9.56,9.56-9.56s9.56,4.28,9.56,9.56-4.28,9.56-9.56,9.56-9.56-4.28-9.56-9.56Z"/>
  <path class="st9" d="M474.98,174.07c0-5.28,4.28-9.56,9.56-9.56s9.56,4.28,9.56,9.56-4.28,9.56-9.56,9.56-9.56-4.28-9.56-9.56Z"/>
  <path class="st9" d="M501.97,174.07c0-5.28,4.28-9.56,9.56-9.56s9.56,4.28,9.56,9.56-4.28,9.56-9.56,9.56-9.56-4.28-9.56-9.56Z"/>
  <path class="st9" d="M528.95,174.07c0-5.28,4.28-9.56,9.56-9.56s9.56,4.28,9.56,9.56-4.28,9.56-9.56,9.56-9.56-4.28-9.56-9.56Z"/>
  <path class="st9" d="M555.94,174.07c0-5.28,4.28-9.56,9.56-9.56s9.56,4.28,9.56,9.56-4.28,9.56-9.56,9.56-9.56-4.28-9.56-9.56Z"/>
  <path class="st9" d="M584.05,174.07c0-5.28,4.28-9.56,9.56-9.56s9.56,4.28,9.56,9.56-4.28,9.56-9.56,9.56-9.56-4.28-9.56-9.56Z"/>
  <path class="st9" d="M611.03,174.07c0-5.28,4.28-9.56,9.56-9.56s9.56,4.28,9.56,9.56-4.28,9.56-9.56,9.56-9.56-4.28-9.56-9.56Z"/>
  <path class="st15" d="M124.89,322.12v-28.21h96.18v28.21h-96.18Z"/>
  <path class="st15" d="M423.68,322.12v-28.21h88.48v28.21h-88.48Z"/>
  <path class="st14" d="M-317.37,505.74v-175.69h1428.57v175.69H-317.37Z"/>
  <path class="st8" d="M101.97,506.79l117.98-175.69,87.2,1.28-102.59,174.4h-102.59Z"/>
  <path class="st5" d="M399.2,333.17v79.58"/>
  <path class="st6" d="M445.15,373.98c0,11.51-20.56,20.84-45.92,20.84s-45.92-9.33-45.92-20.84,20.56-20.84,45.92-20.84,45.92,9.33,45.92,20.84Z"/>
  <path class="st3" d="M2.5,395.54l49.37-47.45h85.92l-45.52,47.45H2.5Z"/>
  <path class="st8" d="M602.1,505.5l-102.59-174.4,87.2-1.28,117.98,175.69h-102.59Z"/>
  <path class="st21" d="M-314.81,508.95v-93.61h1428.57v93.61H-314.81Z"/>
  <path class="st3" d="M708.45,395.54l-45.52-47.45h85.92l49.37,47.45h-89.77Z"/>
  <path class="st1" d="M-56.67,407.16v-71.17h907.59v71.17H-56.67Z"/>
  <path class="st26" d="M163.25,508.7v-93.19h97.89v93.19h-97.89Z"/>
  <path class="st26" d="M546.25,509.12v-93.19h97.89v93.19h-97.89Z"/>
  <path class="st8" d="M-103.7,390.1l42.57-37.74H43.23l-38.18,37.74h-108.75Z"/>
  <path class="st2" d="M399.2,415.24v79.58"/>
  <path class="st20" d="M68.47,290.06v-17.95h17.95v17.95h-17.95Z"/>
  <path class="st18" d="M60.21,336.99v-65.4h5.13v65.4h-5.13Z"/>
  <path class="st20" d="M745.56,291.35v-17.95h17.95v17.95h-17.95Z"/>
  <path class="st25" d="M737.31,338.27v-65.4h5.13v65.4h-5.13Z"/>
  <path class="st8" d="M796.23,390.1l-38.18-37.74h104.36l42.57,37.74h-108.75Z"/>
  <path class="st4" d="M309.7,305.29s-13.93-3.98-20.85-2.6c-3.71.74-12.33-2.7-16.41-6.36-3.54-3.17,3.26-11.88,3.26-11.88"/>
  <path class="st4" d="M281.25,324.57l4.81-27.67"/>
  <path class="st17" d="M287.42,290.15c0-5.06,4.11-9.17,9.17-9.17s9.17,4.11,9.17,9.17-4.11,9.17-9.17,9.17-9.17-4.11-9.17-9.17Z"/>
  <path class="st0" d="M300.26,321.6s-20.91,10-24.99,6.21c-4.34-4.03,11-6.09,9.23-7.86-5.61-5.61,48.39-8.02,48.39-8.02"/>
  <path class="st7" d="M295.12,284.21l-3.67,3.4"/>
  <path class="st7" d="M271.28,284.99l-1.83,8.91"/>
  <path class="st4" d="M527.72,317.29l4.81,27.67"/>
  <path class="st17" d="M517.18,319.72c-5.06,0-9.17-4.11-9.17-9.17s4.11-9.17,9.17-9.17,9.17,4.11,9.17,9.17-4.11,9.17-9.17,9.17Z"/>
  <path class="st0" d="M500.69,351.12s43.8-21.87,28.69-6.15c-8.77,9.12-.13,21.02-.13,21.02"/>
  <path class="st4" d="M516.68,337.8c8.91-22.63,33.79-21.54,33.79-21.54"/>
  <path class="st7" d="M518.95,304.73l4.19,3.93"/>
  <path class="st7" d="M535.18,317.04l10.21-2.36"/>
  <path class="st11" d="M375.17,277.46l-2.25,3.16-4.98-.41-3.13-3.54s1.95-1.02,1.95-1.06c.88-.44,2.64-.26,3.63-.21.45.02,3.1.03,3.34.43.19.31,1.44,1.61,1.44,1.61h0Z"/>
  <path class="st11" d="M385.9,296.39c-1.93,4.73-5.11,8.88-10.31,10.15-.08-.1-3.54-5.14-3.54-5.14,1.47-1.33,2.32-2.57,4-3.63,2.12-1.35,4.77-3.07,6.88-4.44l2.98,3.05Z"/>
  <path class="st11" d="M367.34,297.35l-.31,4.25c-.07.93-.53,3.42-.53,3.42,0,0-1.83,1-2.41,1.07-.9.12-2.62-.95-3.38-1.44-2.55-1.63-4.08-4.2-5.33-6.86l4-4.77c.15-.15,7.79,4.22,7.96,4.33Z"/>
  <path class="st10" d="M367.13,279.19l-2.37,6.33s-3.83,2.53-4.75,3.11c0,0-4.42-1.62-4.44-1.67-.06-.02-.35-1.75-.43-1.78.64-2.32,2.27-4.47,4.08-6.04.88-.77,3.07-2.03,4.14-2.52.35-.16,2.34.42,2.34.42l1.43,2.16Z"/>
  <path class="st13" d="M375.59,306.55c-1.78.62-3.65.95-5.54.99-1.06,0-2.11-.12-3.15-.34-.8-.18-2.31-.46-2.92-1.04.57-1.04,1.24-2.02,1.99-2.93.4-.44,2.79-3.3,4.29-3.52l3.1,3.52,2.23,3.32Z"/>
  <path class="st10" d="M381.77,294.12l-5.73,3.65s-6.67-2.2-6.67-2.61c0-.06-.26-8.68-.26-8.74-.08-.32,7.19-4.15,7.41-4.33s5.97,5.47,6.19,5.29c.18-.15-.94,6.74-.94,6.74h0Z"/>
  <path class="st13" d="M369.35,293.89s-1.57,1.78-1.69,2.01c.03-.12-3.51,1.52-3.51,1.52,0,0-3.96-1.95-5.96-4.03v-5.75c.09-.06,5.95-3.85,6.03-3.91l3.72.73,1.36,4.18.05,5.24Z"/>
  <path class="st13" d="M367.65,295.89s0-.01,0-.02v.02Z"/>
  <path class="st12" d="M365.98,303.22s-1.64-4.75-1.87-5.8c1.42-1.5,5.22-3.56,5.22-3.56,2.21,1.27,4.65,2.42,6.7,3.92-.55,1.89-1.81,3.68-2.68,5.45-1.43.36-6.4-.04-7.37-.01h0Z"/>
  <path class="st13" d="M378.12,277.3h-.02.02Z"/>
  <path class="st13" d="M385.03,284.17l-3.73,2.98c-1.91-.94-6.43-3.45-6.43-3.45l-2.94-2.14.4-2.2s1.4-2.05,1.98-2.46c.25-.17,1.59-.56,1.82-.33.36-.09,1.66.57,1.97.72h-.08c.47.12,5.65,4.15,6.78,6.45.02.04.19.38.21.44h0Z"/>
  <path class="st12" d="M374.9,283.79s-5.11,4.51-5.37,4.74c-.06.04-.13.08-.2.11-.25-.12-2.97-2.68-3.31-3.02s-.65-.71-.96-1.07c-.15-.17-.68-.64-.81-.83l2.89-4.51c.05-.07,5.2.16,5.2.16l2.56,4.43Z"/>
  <path class="st12" d="M385.9,296.39c-1.48-.55-2.87-1.31-4.13-2.27-.03-.4-.72-7.01-.72-7.16.6-.54,3.41-2.81,3.98-2.79,1.51,3.48,2.63,8.63.87,12.22Z"/>
  <path class="st12" d="M359.08,294.23l-3.64,3.59-.07-.03c-1.87-3.98-1.62-8.54-.24-12.59.66.32,3.56,1.9,3.66,2.01.04.05.28,6.94.29,7.01h0Z"/>
  <path class="st12" d="M366.79,275.59l-1.12,1.44c-.32-.05-1.51-.21-1.83-.25-.17-.02-.34-.06-.5-.09v-.07c.13-.05.26-.1.39-.14.34-.11.68-.23,1.02-.33.22-.07.45-.12.67-.19.15-.03.3-.08.44-.14.3-.11.61-.18.93-.22Z"/>
  <path class="st12" d="M374.07,277.08s-.23-.83-.35-1.23c.78.18,1.55.4,2.31.66v.07c-.06.03-1.96.51-1.96.51h0Z"/>
  <path class="st23" d="M275.44,135.14V22.29h245.52v112.85h-245.52Z"/>
  <path d="M294.97,127.44V32.55h206.46v94.9h-206.46Z"/>
  <text class="st22" transform="translate(377 72.56)"><tspan x="0" y="0">TIME</tspan></text>
  <ellipse class="st17" cx="528.44" cy="369.98" rx="17.96" ry="4"/>
  <ellipse class="st17" cx="288.44" cy="369.98" rx="17.96" ry="4"/>
</svg>