<?xml version="1.0" encoding="UTF-8"?>
<svg id="_レイヤー_1" data-name="レイヤー_1" xmlns="http://www.w3.org/2000/svg" version="1.1" viewBox="0 0 800 500">
  <!-- Generator: Adobe Illustrator 30.1.0, SVG Export Plug-In . SVG Version: 2.1.1 Build 136)  -->
  <defs>
    <style>
      .st0 {
        fill: #65bee5;
      }

      .st1 {
        fill: #7a7a7a;
      }

      .st2 {
        fill: #ea3326;
      }

      .st3 {
        fill: #005cff;
      }

      .st4 {
        fill: #1c1e2b;
      }

      .st5 {
        fill: #ceae15;
      }

      .st6 {
        fill: #13bc1f;
      }

      .st7 {
        fill: #fff;
      }

      .st8 {
        fill: #4a8cdd;
      }

      .st9 {
        fill: #272d59;
      }

      .st10 {
        fill: #235627;
      }

      .st11 {
        fill: #328e39;
      }

      .st12 {
        fill: #514a28;
      }

      .st13 {
        fill: #a5880e;
      }

      .st14 {
        fill: #da4014;
      }

      .st15 {
        fill: #375b68;
      }
    </style>
  </defs>
  <path class="st3" d="M0,462.51V0h800v462.51H0Z"/>
  <path class="st8" d="M578.02,462.51V91.45h41.07v371.06h-41.07Z"/>
  <path class="st8" d="M472.18,462.51V91.45h41.07v371.06h-41.07Z"/>
  <path class="st8" d="M363.82,462.51V91.45h41.07v371.06h-41.07Z"/>
  <path class="st8" d="M257.99,462.51V91.45h41.07v371.06h-41.07Z"/>
  <path class="st8" d="M150.77,462.51V91.45h41.07v371.06h-41.07Z"/>
  <g>
    <g>
      <path class="st7" d="M584.69,118.54v-42.71h5.8v42.71h-5.8Z"/>
      <path class="st7" d="M606.24,118.54v-42.71h5.8v42.71h-5.8Z"/>
      <path class="st7" d="M595.53,94.86v-20.92h5.8v20.92h-5.8Z"/>
      <path class="st7" d="M625.52,82.38v11.72l-27.09,4.41-27.22-4.41v-11.72h54.3Z"/>
      <path class="st7" d="M582.17,118.54v-5.42h32.76v5.42h-32.76Z"/>
      <path class="st1" d="M588.35,118.54v-42.71h2.14v42.71h-2.14Z"/>
      <path class="st1" d="M609.89,118.54v-42.71h2.14v42.71h-2.14Z"/>
      <path class="st1" d="M599.18,98.01v-24.07h2.14v24.07h-2.14Z"/>
    </g>
    <g>
      <path class="st5" d="M167.27,113.63v-42.33h9.58v42.33h-9.58Z"/>
      <path class="st12" d="M174.2,113.63v-42.33h2.65v42.33h-2.65Z"/>
      <path class="st5" d="M161.73,117.03v-8.19h8.95v8.19h-8.95Z"/>
      <path class="st5" d="M174.33,117.03v-8.19h8.95v8.19h-8.95Z"/>
      <path class="st5" d="M197.89,77.72l2.52,15.37h-55.82l2.52-15.37h50.78Z"/>
      <path class="st12" d="M167.27,74.44v-1.39h9.58v1.39h-9.58Z"/>
      <path class="st7" d="M161.73,117.16v-3.15h3.15v3.15h-3.15Z"/>
      <path class="st7" d="M174.33,117.16v-3.15h3.15v3.15h-3.15Z"/>
      <path class="st13" d="M153.41,85.41c0-2.23,1.81-4.03,4.03-4.03s4.03,1.81,4.03,4.03-1.81,4.03-4.03,4.03-4.03-1.81-4.03-4.03Z"/>
      <path class="st13" d="M184.66,85.41c0-2.23,1.81-4.03,4.03-4.03s4.03,1.81,4.03,4.03-1.81,4.03-4.03,4.03-4.03-1.81-4.03-4.03Z"/>
      <path class="st13" d="M168.66,103.8v-1.64h1.64v1.64h-1.64Z"/>
      <path class="st13" d="M178.74,112.37v-1.64h1.64v1.64h-1.64Z"/>
      <path class="st13" d="M171.68,97.12v-1.64h1.64v1.64h-1.64Z"/>
      <path class="st13" d="M168.66,88.05v-1.64h1.64v1.64h-1.64Z"/>
      <path class="st13" d="M171.68,81.37v-1.64h1.64v1.64h-1.64Z"/>
      <path class="st13" d="M150.64,89.31v-1.64h1.64v1.64h-1.64Z"/>
      <path class="st13" d="M166.52,114.51v-1.64h1.64v1.64h-1.64Z"/>
      <path class="st13" d="M162.48,82.13v-1.64h1.64v1.64h-1.64Z"/>
      <path class="st13" d="M179.87,89.31v-1.64h1.64v1.64h-1.64Z"/>
      <path class="st13" d="M193.73,82.13v-1.64h1.64v1.64h-1.64Z"/>
      <path class="st7" d="M149,88.68v4.41h-4.41l.76-4.41h3.65Z"/>
      <path class="st6" d="M276.01,117.16v-45.86h7.31v45.86h-7.31Z"/>
      <path class="st6" d="M279.79,97.12l-27.84-8.19v-10.08h55.69v10.08l-27.84,8.19Z"/>
      <path class="st6" d="M289.61,110.98v5.92h-20.41v-5.92l10.21-2.39,10.21,2.39Z"/>
      <path class="st10" d="M281.05,117.16v-45.86h2.27v45.86h-2.27Z"/>
      <path class="st2" d="M278.02,98.26v-10.33h4.28v10.33h-4.28Z"/>
      <path class="st11" d="M255.34,84.65v-2.77h2.77v2.77h-2.77Z"/>
      <path class="st11" d="M267.06,92.08v-2.77h2.77v2.77h-2.77Z"/>
      <path class="st11" d="M269.83,84.65v-2.77h2.77v2.77h-2.77Z"/>
      <path class="st11" d="M287.22,90.7v-2.77h2.77v2.77h-2.77Z"/>
      <path class="st11" d="M289.61,84.02v-2.77h2.77v2.77h-2.77Z"/>
      <path class="st11" d="M302.09,87.67v-2.77h2.77v2.77h-2.77Z"/>
      <path class="st11" d="M284.45,115.27v-2.77h2.77v2.77h-2.77Z"/>
      <path class="st11" d="M273.36,114.51v-2.77h2.77v2.77h-2.77Z"/>
      <path class="st11" d="M293.77,87.67v-6.17h6.17v6.17h-6.17Z"/>
      <path class="st11" d="M259.88,87.67v-6.17h6.17v6.17h-6.17Z"/>
      <path class="st7" d="M269.2,116.9v-3.15h3.15v3.15h-3.15Z"/>
      <path class="st7" d="M255.97,84.78v5.42l-4.03-1.26v-4.16h4.03Z"/>
      <path class="st9" d="M381.97,114.38v-43.09h9.7v43.09h-9.7Z"/>
      <path class="st9" d="M414.73,93.47v9.83l-28.22-15.88-28.1,15.88v-9.83l28.1-21.55,28.22,21.55Z"/>
      <path class="st9" d="M377.56,91.83v-5.54h18.52v5.54h-18.52Z"/>
      <path class="st9" d="M400.87,112.12v4.91l-14.11-3.53-14.11,3.53v-4.91l14.11-10.71,14.11,10.71Z"/>
      <path class="st4" d="M389.02,114.38v-43.09h2.52v43.09h-2.52Z"/>
      <path class="st7" d="M381.97,105.06v-33.77h1.89v33.77h-1.89Z"/>
      <path class="st7" d="M375.92,113.88v2.39l-3.28.76v-3.15h3.28Z"/>
      <path class="st7" d="M365.59,95.99v3.15l-7.18,4.16v-7.31h7.18Z"/>
      <path class="st14" d="M385.12,84.65v-10.58h2.77v10.58h-2.77Z"/>
      <path class="st14" d="M365.59,94.1v-3.91h3.91v3.91h-3.91Z"/>
      <path class="st14" d="M403.51,94.1v-3.91h3.91v3.91h-3.91Z"/>
      <path class="st0" d="M491.33,112.75v-41.45h4.03v41.45h-4.03Z"/>
      <path class="st0" d="M521.32,94.73v6.3h-55.94v-6.3l27.34-9.83,28.6,9.83Z"/>
      <path class="st0" d="M506.96,114.13v2.9l-12.1-4.79-12.1,4.79v-2.9l11.84-12.35,12.35,12.35Z"/>
      <path class="st0" d="M487.3,112.75v-34.52h4.03v34.52h-4.03Z"/>
      <path class="st7" d="M487.3,109.6v-31.37h2.02v31.37h-2.02Z"/>
      <path class="st0" d="M495.36,112.75v-34.52h4.03v34.52h-4.03Z"/>
      <path class="st15" d="M497.38,109.6v-31.37h2.02v31.37h-2.02Z"/>
      <path class="st14" d="M491.96,86.29v-10.58h2.77v10.58h-2.77Z"/>
      <path class="st7" d="M465.38,100.9v-4.79h4.79v4.79h-4.79Z"/>
      <path class="st7" d="M485.16,114.76v1.39l-2.39.88v-2.27h2.39Z"/>
      <path class="st15" d="M505.44,98.64v-10.58h1.64v10.58h-1.64Z"/>
      <path class="st15" d="M513,98.64v-5.92h1.64v5.92h-1.64Z"/>
      <path class="st7" d="M473.82,98.64v-5.92h1.64v5.92h-1.64Z"/>
      <path class="st7" d="M481.5,98.64v-10.58h1.64v10.58h-1.64Z"/>
    </g>
  </g>
  <path class="st7" d="M-26.49,456.12c0-40.6,32.92-73.52,73.52-73.52s73.52,32.92,73.52,73.52-32.92,73.52-73.52,73.52-73.52-32.92-73.52-73.52h0Z"/>
  <path class="st7" d="M88.38,476.8c0-44.41,36-80.41,80.41-80.41s80.41,36,80.41,80.41-36,80.41-80.41,80.41-80.41-36-80.41-80.41Z"/>
  <path class="st7" d="M189.48,443.49c0-46.31,37.55-83.86,83.86-83.86s83.86,37.55,83.86,83.86-37.55,83.86-83.86,83.86-83.86-37.55-83.86-83.86Z"/>
  <path class="st7" d="M311.25,449.23c0-39.34,31.89-71.22,71.22-71.22s71.22,31.89,71.22,71.22-31.89,71.22-71.22,71.22-71.22-31.89-71.22-71.22h0Z"/>
  <path class="st7" d="M511.13,450.38c0-45.05,36.52-81.56,81.56-81.56s81.56,36.52,81.56,81.56-36.52,81.56-81.56,81.56-81.56-36.52-81.56-81.56Z"/>
  <path class="st7" d="M423.83,496.33c0-32.36,26.23-58.59,58.59-58.59s58.59,26.23,58.59,58.59-26.23,58.59-58.59,58.59-58.59-26.23-58.59-58.59h0Z"/>
  <path class="st7" d="M750.18,496.33c0-32.36,26.23-58.59,58.59-58.59s58.59,26.23,58.59,58.59-26.23,58.59-58.59,58.59-58.59-26.23-58.59-58.59h0Z"/>
  <path class="st7" d="M610.96,476.8c0-50.12,40.63-90.75,90.75-90.75s90.75,40.63,90.75,90.75-40.63,90.75-90.75,90.75-90.75-40.63-90.75-90.75h0Z"/>
</svg>