<?xml version="1.0" encoding="UTF-8"?>
<svg id="_レイヤー_1" data-name="レイヤー_1" xmlns="http://www.w3.org/2000/svg" version="1.1" viewBox="0 0 800 500">
  <!-- Generator: Adobe Illustrator 30.1.0, SVG Export Plug-In . SVG Version: 2.1.1 Build 136)  -->
  <defs>
    <style>
      .st0 {
        fill: #354492;
      }

      .st1 {
        fill: #98c465;
      }

      .st2 {
        fill: #346733;
      }

      .st3 {
        fill: #065493;
      }

      .st4 {
        fill: #582c5f;
      }

      .st5 {
        fill: #f2efa8;
      }

      .st6 {
        fill: #0e3461;
      }

      .st7 {
        fill: #070001;
        isolation: isolate;
        opacity: .3;
      }

      .st8 {
        fill: #d93243;
      }

      .st9 {
        fill: #a6c77d;
      }

      .st10 {
        fill: #eca924;
      }

      .st11 {
        fill: #996c27;
      }

      .st12 {
        fill: #999366;
      }

      .st13 {
        fill: #996126;
      }

      .st14 {
        fill: #7f3889;
      }

      .st15 {
        fill: #69bbb5;
      }

      .st16 {
        fill: #ddd;
      }

      .st17 {
        fill: #ea9823;
      }

      .st18 {
        fill: #fff;
      }

      .st19 {
        fill: #698053;
      }

      .st20 {
        fill: #8a2441;
      }

      .st21 {
        fill: #96424d;
      }

      .st22 {
        fill: #447b70;
      }

      .st23 {
        fill: #e7e351;
      }

      .st24 {
        fill: #b1dff5;
      }

      .st25 {
        fill: #0d418c;
      }

      .st26 {
        fill: #918c3c;
      }

      .st27 {
        fill: #dc6074;
      }

      .st28 {
        fill: #53adc1;
      }

      .st29 {
        fill: #8c363f;
      }

      .st30 {
        fill: #922733;
      }

      .st31 {
        fill: #253566;
      }

      .st32 {
        fill: #cb2b5b;
      }

      .st33 {
        fill: #d04858;
      }
    </style>
  </defs>
  <rect class="st28" width="800" height="500"/>
  <g>
    <polygon class="st3" points="350.83 286.25 350.83 448.75 521.17 448.75 350.83 286.25"/>
    <polygon class="st24" points="180.5 448.75 350.83 448.75 350.83 286.25 180.5 448.75"/>
  </g>
  <ellipse class="st16" cx="642.33" cy="182.08" rx="59.86" ry="35.28"/>
  <ellipse class="st16" cx="194.28" cy="88.61" rx="48.06" ry="28.33"/>
  <ellipse class="st18" cx="595.11" cy="144.86" rx="59.86" ry="35.28"/>
  <ellipse class="st18" cx="156.92" cy="64.44" rx="48.06" ry="28.33"/>
  <polygon class="st3" points="800 479.31 800 382.92 733.33 319.17 733.33 415.56 800 479.31"/>
  <polygon class="st24" points="733.33 319.17 682.83 367.36 733.33 415.56 733.33 319.17"/>
  <polygon class="st2" points="800 500 800 481.81 733.33 481.81 563 481.81 682.83 367.36 525.67 217.36 525.67 500 800 500"/>
  <polygon class="st2" points="733.33 415.56 733.33 481.81 800 481.81 800 479.31 733.33 415.56"/>
  <polygon class="st2" points="733.33 481.81 733.33 415.56 682.83 367.36 563 481.81 733.33 481.81"/>
  <polygon class="st1" points="525.67 500 525.67 217.36 345.5 389.44 461.33 500 525.67 500"/>
  <polygon class="st2" points="229.5 500 345.5 389.44 165.33 217.36 165.33 500 229.5 500"/>
  <polygon class="st2" points="461.33 500 345.5 389.44 229.5 500 461.33 500"/>
  <polygon class="st1" points="165.33 500 165.33 217.36 0 375.14 0 500 165.33 500"/>
  <g>
    <path class="st27" d="M614.28,416.11c-14.44-4.03-29.31,4.31-33.33,18.75l26.11,7.22,7.22-25.97Z"/>
    <path class="st32" d="M580.94,434.86c-4.03,14.44,4.31,29.31,18.75,33.33l7.22-26.11-25.97-7.22Z"/>
    <path class="st27" d="M614.28,416.11l-7.22,26.11,26.11,7.22c4.17-14.44-4.44-29.31-18.89-33.33Z"/>
    <path class="st21" d="M614.28,416.11l-7.22,26.11,26.11,7.22c4.17-14.44-4.44-29.31-18.89-33.33Z"/>
    <path class="st32" d="M599.69,468.47c14.44,4.03,29.31-4.31,33.33-18.75l-26.11-7.22-7.22,25.97Z"/>
    <path class="st20" d="M599.69,468.47c14.44,4.03,29.31-4.31,33.33-18.75l-26.11-7.22-7.22,25.97Z"/>
  </g>
  <g>
    <path class="st33" d="M398.17,314.03c-7.22,7.36-9.58,18.61-5.97,28.19l17.08-11.11-11.11-17.08Z"/>
    <path class="st33" d="M398.72,352.36c7.5,7.22,18.61,9.58,28.19,5.97l-11.11-17.08-17.08,11.11Z"/>
    <path class="st33" d="M436.36,313.47h0c-7.36-7.22-18.47-9.72-28.19-5.97h0c9.72-3.47,20.69-1.25,28.19,5.97Z"/>
    <path class="st33" d="M436.92,351.81h0c7.22-7.36,9.58-18.61,5.97-28.19h-.14c3.75,9.72,1.53,20.69-5.83,28.19Z"/>
    <path class="st9" d="M436.36,313.47c1.39,1.39,2.64,2.92,3.89,4.58,1.11,1.81,1.94,3.47,2.64,5.42l.14-.14c-.69-1.81-1.53-3.61-2.64-5.42s-2.5-3.06-4.03-4.44h0Z"/>
    <path class="st9" d="M409.28,331.11l-17.08,11.11c.69,1.81,1.53,3.61,2.64,5.42,1.11,1.81,2.5,3.19,3.89,4.58l17.08-11.11-6.53-10Z"/>
    <path class="st9" d="M408.17,307.5c-.14.14-.42.14-.56.14.14,0,.42,0,.56-.14h0Z"/>
    <path class="st9" d="M402.75,310.28h0c.69-.42,1.39-.97,2.22-1.25-.69.28-1.53.69-2.22,1.25Z"/>
    <path class="st9" d="M414.14,328.06l-11.53-17.64c-1.81,1.11-3.19,2.5-4.44,3.75l11.11,17.08,4.86-3.19Z"/>
    <path class="st9" d="M405.11,308.89c.83-.28,1.53-.69,2.36-.97-.83.28-1.53.56-2.36.97Z"/>
    <path class="st9" d="M432.33,355.69c.69-.42,1.39-.97,2.08-1.53-.69.56-1.39,1.11-2.08,1.53h0Z"/>
    <path class="st9" d="M436.5,352.36c-.56.56-1.25,1.11-1.81,1.67.56-.56,1.25-1.11,1.81-1.67Z"/>
    <path class="st9" d="M415.81,341.25l11.11,17.08c1.81-.69,3.61-1.53,5.28-2.64l-11.53-17.64-4.86,3.19Z"/>
    <path class="st9" d="M436.5,352.22c.14-.14.28-.28.42-.42h0c0,.14-.14.28-.42.42Z"/>
    <rect class="st23" x="412.06" y="328.6" width="5.83" height="11.94" transform="translate(-115.36 280.84) rotate(-33.09)"/>
    <path class="st7" d="M434.69,354.03h0q-.14.14,0,0Z"/>
    <path class="st7" d="M432.33,355.83s0-.14,0,0c0-.14,0,0,0,0h0Z"/>
    <path class="st7" d="M402.61,310.28h0s.14,0,0,0c.14,0,0,0,0,0Z"/>
    <path class="st7" d="M436.5,352.22h0c0,.14.14.14,0,0Z"/>
    <path class="st7" d="M407.47,307.78h0Z"/>
    <path class="st7" d="M404.97,308.89h0Z"/>
    <path class="st33" d="M408.17,307.5l11.11,17.08,16.94-11.11c-7.36-7.22-18.33-9.44-28.06-5.97Z"/>
    <path class="st29" d="M408.17,307.5l11.11,17.08,16.94-11.11c-7.36-7.22-18.33-9.44-28.06-5.97Z"/>
    <path class="st33" d="M436.92,351.81c7.22-7.5,9.58-18.47,5.83-28.19l-16.94,11.11,11.11,17.08Z"/>
    <path class="st29" d="M436.92,351.81c7.22-7.5,9.58-18.47,5.83-28.19l-16.94,11.11,11.11,17.08Z"/>
    <path class="st9" d="M425.81,334.72l16.94-11.11c-.69-1.81-1.53-3.61-2.64-5.42-1.11-1.81-2.5-3.19-3.89-4.58l-16.94,11.11,6.53,10Z"/>
    <path class="st19" d="M425.81,334.72l16.94-11.11c-.69-1.81-1.53-3.61-2.64-5.42-1.11-1.81-2.5-3.19-3.89-4.58l-16.94,11.11,6.53,10Z"/>
    <path class="st9" d="M419.28,324.72l-11.11-17.08c-.14.14-.42.14-.56.14l-.14.14c-.83.28-1.53.69-2.36.97l-.14.14c-.83.42-1.53.83-2.22,1.39h0l11.53,17.64,5-3.33Z"/>
    <path class="st19" d="M419.28,324.72l-11.11-17.08c-.14.14-.42.14-.56.14l-.14.14c-.83.28-1.53.69-2.36.97l-.14.14c-.83.42-1.53.83-2.22,1.39h0l11.53,17.64,5-3.33Z"/>
    <path class="st9" d="M425.81,334.72l-5.14,3.33,11.53,17.64h0c.69-.42,1.53-.97,2.08-1.53l.14-.14c.56-.56,1.25-1.11,1.81-1.67l.14-.14c.14-.14.28-.28.42-.42l-10.97-17.08h0Z"/>
    <path class="st19" d="M425.81,334.72l-5.14,3.33,11.53,17.64h0c.69-.42,1.53-.97,2.08-1.53l.14-.14c.56-.56,1.25-1.11,1.81-1.67l.14-.14c.14-.14.28-.28.42-.42l-10.97-17.08h0Z"/>
    <rect class="st23" x="416.89" y="325.28" width="6.11" height="11.94" transform="translate(-112.74 283.02) rotate(-33.09)"/>
    <rect class="st26" x="416.89" y="325.28" width="6.11" height="11.94" transform="translate(-112.74 283.02) rotate(-33.09)"/>
  </g>
  <g>
    <path class="st0" d="M229.14,371.67h0c-8.47-4.72-18.33-4.58-26.25-.28l20.14,11.39,6.11-11.11Z"/>
    <path class="st0" d="M229.28,371.81c.56.28,1.11.56,1.67,1.11-.56-.56-.97-.83-1.67-1.11Z"/>
    <path class="st0" d="M231.92,373.47c.28.14.42.42.69.56-.28-.28-.56-.42-.69-.56Z"/>
    <path class="st0" d="M206.22,420.69c-.28-.14-.69-.28-.97-.42.42.28.69.28.97.42Z"/>
    <path class="st0" d="M188.72,398.06c.83,8.47,5.69,16.39,13.61,20.83h.14l5.69-10-19.44-10.83Z"/>
    <path class="st0" d="M204.42,419.86c-.56-.28-1.11-.56-1.81-.83.69.28,1.25.56,1.81.83Z"/>
    <path class="st0" d="M218.58,390.28l-23.06-13.06c-1.25,1.39-2.5,2.92-3.33,4.58-1.11,2.08-2.08,4.31-2.5,6.53l23.06,12.92,5.83-10.97h0Z"/>
    <path class="st10" d="M222.89,382.64l-20.14-11.39c-2.78,1.53-5.28,3.47-7.5,5.83l23.19,13.06,4.44-7.5Z"/>
    <path class="st10" d="M212.33,401.25l-23.06-12.92c-.83,3.19-1.11,6.39-.83,9.58l19.31,10.97,4.58-7.64h0Z"/>
    <path class="st7" d="M229.14,371.67h0q.14,0,.28.14l-.28-.14Z"/>
    <path class="st7" d="M232.47,373.89c6.25,5,10,12.36,10.28,20,.14,3.06-.14,6.25-1.11,9.44-.56,1.81-1.25,3.61-2.22,5.42-1.11,2.08-2.5,4.03-4.31,5.56-2.36,2.36-5,4.17-7.78,5.69-6.53,3.06-14.17,3.47-21.11.83,12.36,4.72,26.39-.28,33.19-12.08,6.81-11.94,3.33-26.67-6.94-34.86Z"/>
    <path class="st7" d="M202.47,418.89q.14,0,.28.14-.14,0-.28-.14h0Z"/>
    <path class="st7" d="M205.39,420.28c-.28-.14-.56-.28-.97-.42.28.14.69.28.97.42Z"/>
    <path class="st7" d="M230.94,372.92c.42.14.56.28.83.69-.28-.42-.42-.56-.83-.69Z"/>
    <path class="st0" d="M242.75,393.89c-.56-7.64-4.03-15-10.28-19.86-.28-.14-.42-.42-.69-.56-.42-.14-.56-.42-.83-.69-.42-.42-.83-.69-1.53-.97q-.14,0-.28-.14l-6.25,10.97,19.86,11.25Z"/>
    <path class="st31" d="M242.75,393.89c-.56-7.64-4.03-15-10.28-19.86-.28-.14-.42-.42-.69-.56-.42-.14-.56-.42-.83-.69-.42-.42-.83-.69-1.53-.97q-.14,0-.28-.14l-6.25,10.97,19.86,11.25Z"/>
    <path class="st0" d="M227.33,419.72l-19.31-10.83-5.69,10q.14,0,.28.14c.56.28,1.25.69,1.81.83.28.14.56.28.97.42.28.14.69.28.97.42,6.81,2.64,14.44,2.08,20.97-.97Z"/>
    <path class="st31" d="M227.33,419.72l-19.31-10.83-5.69,10q.14,0,.28.14c.56.28,1.25.69,1.81.83.28.14.56.28.97.42.28.14.69.28.97.42,6.81,2.64,14.44,2.08,20.97-.97Z"/>
    <path class="st0" d="M212.33,401.25l22.78,12.78c1.53-1.67,3.06-3.33,4.31-5.56.97-1.67,1.67-3.47,2.22-5.42l-23.06-12.92s-6.25,11.11-6.25,11.11Z"/>
    <path class="st31" d="M212.33,401.25l22.78,12.78c1.53-1.67,3.06-3.33,4.31-5.56.97-1.67,1.67-3.47,2.22-5.42l-23.06-12.92s-6.25,11.11-6.25,11.11Z"/>
    <path class="st10" d="M218.58,390.28l23.06,12.92c.97-3.06,1.25-6.25,1.11-9.44l-19.86-11.25-4.31,7.78Z"/>
    <path class="st11" d="M218.58,390.28l23.06,12.92c.97-3.06,1.25-6.25,1.11-9.44l-19.86-11.25-4.31,7.78Z"/>
    <path class="st10" d="M208.03,408.89l19.31,10.83c2.92-1.39,5.56-3.33,7.78-5.69l-22.78-12.78-4.31,7.64Z"/>
    <path class="st11" d="M208.03,408.89l19.31,10.83c2.92-1.39,5.56-3.33,7.78-5.69l-22.78-12.78-4.31,7.64Z"/>
  </g>
  <g>
    <path class="st8" d="M233.72,106.25c-.14-.14-.28,0-.42-.14.28,0,.28.14.42.14Z"/>
    <path class="st8" d="M230.53,105c-.14-.14-.42-.14-.56-.28.14.14.28.14.56.28Z"/>
    <path class="st8" d="M223.44,60.28c-8.33,7.64-11.39,20-6.67,30.97l16.94-7.36-10.28-23.61Z"/>
    <path class="st8" d="M235.94,106.81c-.14-.14-.42-.14-.56-.28.28.28.42.28.56.28Z"/>
    <path class="st8" d="M219.28,95.56c-.42-.42-.56-.97-.97-1.39.42.42.69.97.97,1.39Z"/>
    <path class="st8" d="M218.03,93.47c-.42-.69-.83-1.67-1.25-2.36.42.83.83,1.67,1.25,2.36Z"/>
    <path class="st8" d="M238.17,107.22c-.14-.14-.28,0-.56-.14.28.14.28,0,.56.14Z"/>
    <path class="st8" d="M222.89,99.72c-.56-.56-.97-.97-1.39-1.53.42.69.97,1.11,1.39,1.53Z"/>
    <path class="st8" d="M220.94,97.64c-.42-.42-.69-.97-.97-1.25.28.42.56.69.97,1.25Z"/>
    <path class="st8" d="M224.83,101.53c-.42-.42-.97-.83-1.39-1.11.56.42.97.69,1.39,1.11Z"/>
    <path class="st8" d="M228.72,104.03c-.42-.14-.56-.28-.97-.42.28.14.56.28.97.42Z"/>
    <path class="st8" d="M226.78,102.92c-.42-.28-.69-.42-1.11-.69.42.28.69.42,1.11.69Z"/>
    <path class="st8" d="M267.75,88.19c-.14.14-.14.56-.14.69,0-.28,0-.56.14-.69Z"/>
    <path class="st8" d="M268.31,85.83c0,.28-.14.69-.28,1.11.14-.42.14-.83.28-1.11Z"/>
    <path class="st8" d="M266.36,91.67c-.14.14-.14.28-.14.42,0,0,0-.28.14-.42Z"/>
    <path class="st8" d="M268.58,83.33c0,.42-.14.83-.14,1.25.14-.42.28-.69.14-1.25Z"/>
    <path class="st8" d="M239.42,53.33l10.28,23.47,16.94-7.36c.28.69.69,1.53.83,2.36-.14-.83-.56-1.53-.83-2.36-4.72-10.97-15.97-17.08-27.22-16.11Z"/>
    <path class="st8" d="M265.39,93.61c-.14.14-.14.42-.28.56.14-.14.28-.42.28-.56Z"/>
    <path class="st8" d="M267.75,72.64c.14.56.28,1.11.42,1.67-.14-.69-.42-1.11-.42-1.67Z"/>
    <path class="st8" d="M268.72,77.64c0,.69.14,1.39.14,2.08,0-.69,0-1.39-.14-2.08Z"/>
    <path class="st8" d="M268.44,75.14c.14.56.14,1.11.28,1.53-.14-.56-.28-.97-.28-1.53Z"/>
    <path class="st8" d="M268.86,80.56c0,.56,0,1.25-.14,1.81.14-.69.14-1.25.14-1.81Z"/>
    <path class="st8" d="M264.28,95.42c-.14.14-.14.28-.28.42,0-.14.14-.14.28-.42Z"/>
    <path class="st15" d="M246.5,106.94c-.28.14-.42,0-.69.14.28,0,.42,0,.69-.14Z"/>
    <path class="st15" d="M249.14,106.39c-.42.14-.83.14-1.25.42.42-.14.83-.28,1.25-.42Z"/>
    <path class="st15" d="M249.69,76.81l-10.28-23.47c-2.92.28-5.69.97-8.47,2.22-2.78,1.25-5.28,2.92-7.36,4.72l10.28,23.47,15.83-6.94Z"/>
    <path class="st15" d="M256.78,102.78c-.28.28-.69.42-1.11.69.42-.14.83-.42,1.11-.69Z"/>
    <path class="st15" d="M250.25,106.11c.83-.14,1.53-.56,2.36-.83s1.53-.69,2.22-1.11c-.69.42-1.53.83-2.22,1.11s-1.53.56-2.36.83Z"/>
    <path class="st15" d="M258.58,101.53c-.28.14-.28.28-.56.42.28,0,.42-.28.56-.42Z"/>
    <path class="st7" d="M229.83,104.72c-.42-.14-.83-.42-1.11-.56.28.14.69.28,1.11.56Z"/>
    <path class="st7" d="M237.61,107.08c-.56-.14-1.11-.14-1.67-.28.56.14,1.25.28,1.67.28Z"/>
    <path class="st7" d="M223.44,100.42c-.28-.14-.42-.42-.56-.56.14.14.42.42.56.56Z"/>
    <path class="st7" d="M235.53,106.67c-.56-.14-1.11-.28-1.53-.42.28.14.83.28,1.53.42Z"/>
    <path class="st7" d="M265.11,94.03c-.28.42-.56.97-.83,1.39.28-.42.56-.83.83-1.39Z"/>
    <path class="st7" d="M230.53,105c.97.42,1.94.83,2.92,1.11-1.11-.28-1.94-.69-2.92-1.11Z"/>
    <path class="st7" d="M219.97,96.39c-.14-.28-.42-.42-.42-.69,0,.28.14.42.42.69Z"/>
    <path class="st7" d="M221.36,98.33c-.28-.14-.42-.42-.56-.69.28.28.42.42.56.69Z"/>
    <path class="st7" d="M264,95.83c-1.11,1.53-2.36,3.19-4.03,4.44,1.53-1.11,2.78-2.78,4.03-4.44Z"/>
    <path class="st7" d="M259.97,100.42c-.42.42-.83.83-1.25,1.11.28-.28.83-.69,1.25-1.11Z"/>
    <path class="st7" d="M227.75,103.61c-.42-.14-.69-.42-.97-.56.28,0,.56.42.97.56Z"/>
    <path class="st7" d="M266.36,91.67c.42-.97.83-1.94,1.11-2.92-.28.97-.69,1.94-1.11,2.92Z"/>
    <path class="st7" d="M225.67,102.22c-.28-.14-.69-.42-.83-.69.28.28.56.42.83.69Z"/>
    <path class="st7" d="M266.08,92.08c-.28.56-.42.97-.69,1.39.28-.42.56-.83.69-1.39Z"/>
    <path class="st7" d="M255.81,103.61c-.42.14-.56.42-.97.56.28-.28.69-.56.97-.56Z"/>
    <path class="st7" d="M268.72,82.22c0,.28-.14.83-.14,1.11.14-.28.28-.56.14-1.11Z"/>
    <path class="st7" d="M218.44,94.17c-.14-.28-.42-.42-.42-.69.14.14.14.42.42.69Z"/>
    <path class="st7" d="M248.03,106.67c-.56.14-.97.28-1.53.42.56-.14,1.11-.28,1.53-.42Z"/>
    <path class="st7" d="M268.58,84.58c-.14.42-.14.83-.28,1.11,0-.14.14-.69.28-1.11Z"/>
    <path class="st7" d="M268.03,86.81c-.14.56-.28.83-.42,1.25.14-.42.28-.69.42-1.25Z"/>
    <path class="st7" d="M250.25,106.11c-.42.14-.69.14-1.11.28.42-.14.83-.28,1.11-.28Z"/>
    <path class="st7" d="M268.86,79.72v.69-.69Z"/>
    <path class="st7" d="M245.81,107.22c-.56.14-1.11.14-1.81.14.69,0,1.25-.14,1.81-.14Z"/>
    <path class="st7" d="M267.61,71.94c.14.28.28.56.14.83-.14-.42-.28-.69-.14-.83Z"/>
    <path class="st7" d="M244.14,107.36c-2.08.14-4.03.14-5.97-.14,1.94.14,3.89.42,5.97.14Z"/>
    <path class="st7" d="M268.58,76.67c0,.28.14.56.14.83,0-.14-.14-.42-.14-.83Z"/>
    <path class="st7" d="M268.17,74.17c.14.28.14.56.14.83,0-.14,0-.42-.14-.83Z"/>
    <path class="st7" d="M258.17,101.94c-.42.42-.83.69-1.25.83.42-.14.69-.56,1.25-.83Z"/>
    <path class="st8" d="M233.86,83.75l-16.94,7.36h0c.28.69.69,1.53,1.11,2.22.14.28.28.56.42.69.42.42.56.97.97,1.39.14.28.42.42.42.69.42.42.69.97.97,1.25.28.14.42.42.56.69.56.56.97,1.11,1.39,1.53.28.14.42.42.56.56.42.42.97.83,1.39,1.11.28.14.69.42.83.69.28.28.69.42,1.11.69.42.14.69.42.97.56s.56.28.97.42c.42.28.83.42,1.11.56.14.14.42.14.56.28.97.42,1.94.83,2.92,1.11.14.14.28,0,.42.14.56.28,1.11.28,1.53.42.14.14.42.14.56.28.56.14,1.11.28,1.67.28.14.14.28,0,.56.14,1.94.28,4.03.42,5.97.14h0c.14.14-10-23.19-10-23.19Z"/>
    <path class="st30" d="M233.86,83.75l-16.94,7.36h0c.28.69.69,1.53,1.11,2.22.14.28.28.56.42.69.42.42.56.97.97,1.39.14.28.42.42.42.69.42.42.69.97.97,1.25.28.14.42.42.56.69.56.56.97,1.11,1.39,1.53.28.14.42.42.56.56.42.42.97.83,1.39,1.11.28.14.69.42.83.69.28.28.69.42,1.11.69.42.14.69.42.97.56s.56.28.97.42c.42.28.83.42,1.11.56.14.14.42.14.56.28.97.42,1.94.83,2.92,1.11.14.14.28,0,.42.14.56.28,1.11.28,1.53.42.14.14.42.14.56.28.56.14,1.11.28,1.67.28.14.14.28,0,.56.14,1.94.28,4.03.42,5.97.14h0c.14.14-10-23.19-10-23.19Z"/>
    <path class="st8" d="M249.69,76.81l10.28,23.47h0c1.53-1.39,2.78-2.92,4.03-4.44.14-.14.14-.28.28-.42.28-.42.69-.83.83-1.39.14-.14.14-.42.28-.56.28-.42.42-.97.69-1.39.14-.14.14-.28.14-.42.42-.97.83-1.94,1.11-2.92.14-.14.14-.42.14-.69.14-.42.28-.83.42-1.25.14-.42.14-.69.28-1.11.14-.42.14-.83.28-1.11.14-.56.14-.83.14-1.25,0-.28.14-.83.14-1.11,0-.56,0-1.25.14-1.81v-.69c0-.69,0-1.39-.14-2.08,0-.28-.14-.56-.14-.83-.14-.56-.14-1.11-.28-1.53-.14-.28-.14-.56-.14-.83-.14-.56-.28-1.11-.42-1.67-.14-.28-.14-.56-.14-.83-.14-.83-.56-1.53-.83-2.36l-17.08,7.22h0Z"/>
    <path class="st30" d="M249.69,76.81l10.28,23.47h0c1.53-1.39,2.78-2.92,4.03-4.44.14-.14.14-.28.28-.42.28-.42.69-.83.83-1.39.14-.14.14-.42.28-.56.28-.42.42-.97.69-1.39.14-.14.14-.28.14-.42.42-.97.83-1.94,1.11-2.92.14-.14.14-.42.14-.69.14-.42.28-.83.42-1.25.14-.42.14-.69.28-1.11.14-.42.14-.83.28-1.11.14-.56.14-.83.14-1.25,0-.28.14-.83.14-1.11,0-.56,0-1.25.14-1.81v-.69c0-.69,0-1.39-.14-2.08,0-.28-.14-.56-.14-.83-.14-.56-.14-1.11-.28-1.53-.14-.28-.14-.56-.14-.83-.14-.56-.28-1.11-.42-1.67-.14-.28-.14-.56-.14-.83-.14-.83-.56-1.53-.83-2.36l-17.08,7.22h0Z"/>
    <path class="st15" d="M249.69,76.81l-15.97,6.94,10.28,23.47h0c.56-.14,1.25,0,1.81-.14.28-.14.42,0,.69-.14.56-.14.97-.14,1.53-.42.42,0,.83-.14,1.25-.42.42-.14.69-.14,1.11-.28.83-.14,1.53-.56,2.36-.83.69-.28,1.53-.69,2.22-1.11.42-.14.56-.42.97-.56s.69-.42,1.11-.69c.42-.42.83-.56,1.25-.83.28-.14.28-.28.56-.42.42-.42.97-.69,1.25-1.11h0l-10.42-23.47h0Z"/>
    <path class="st22" d="M249.69,76.81l-15.97,6.94,10.28,23.47h0c.56-.14,1.25,0,1.81-.14.28-.14.42,0,.69-.14.56-.14.97-.14,1.53-.42.42,0,.83-.14,1.25-.42.42-.14.69-.14,1.11-.28.83-.14,1.53-.56,2.36-.83.69-.28,1.53-.69,2.22-1.11.42-.14.56-.42.97-.56s.69-.42,1.11-.69c.42-.42.83-.56,1.25-.83.28-.14.28-.28.56-.42.42-.42.97-.69,1.25-1.11h0l-10.42-23.47h0Z"/>
  </g>
  <g>
    <path class="st17" d="M651.78,30.97c-11.39-9.72-28.47-8.33-38.19,3.06l20.69,17.5,17.5-20.56Z"/>
    <path class="st25" d="M613.58,34.17c-9.72,11.39-8.33,28.47,3.06,38.19l17.5-20.69-20.56-17.5Z"/>
    <path class="st17" d="M654.97,69.31c9.72-11.39,8.19-28.61-3.19-38.33l-17.5,20.69,20.69,17.64Z"/>
    <path class="st13" d="M654.97,69.31c9.72-11.39,8.19-28.61-3.19-38.33l-17.5,20.69,20.69,17.64Z"/>
    <path class="st25" d="M634.14,51.67l-17.5,20.69c11.39,9.72,28.47,8.33,38.19-3.06l-20.69-17.64Z"/>
    <path class="st6" d="M634.14,51.67l-17.5,20.69c11.39,9.72,28.47,8.33,38.19-3.06l-20.69-17.64Z"/>
  </g>
  <g>
    <path class="st14" d="M404.28,114.86l14.86-5.42,3.89-15.28,9.72,12.5,15.69-.97,3.75-2.08c-7.5-13.06-23.89-17.5-36.94-10.14-13.06,7.5-17.5,23.89-10.14,36.94l12.36-7.08-13.19-8.47Z"/>
    <polygon class="st5" points="422.89 94.17 419.14 109.44 404.28 114.86 417.47 123.33 448.58 105.56 432.75 106.67 422.89 94.17"/>
    <path class="st14" d="M452.19,103.61l-3.61,2.08-8.89,13.06,5.83,14.58-15.14-4.44-12.22,10.14-.56-15.83-12.36,7.08c7.5,13.06,23.89,17.5,36.94,10.14,12.92-7.22,17.36-23.89,10-36.81Z"/>
    <path class="st4" d="M452.19,103.61l-3.61,2.08-8.89,13.06,5.83,14.58-15.14-4.44-12.22,10.14-.56-15.83-12.36,7.08c7.5,13.06,23.89,17.5,36.94,10.14,12.92-7.22,17.36-23.89,10-36.81Z"/>
    <polygon class="st5" points="418.03 139.17 430.25 129.17 445.39 133.47 439.69 118.75 448.58 105.56 417.47 123.33 418.03 139.17"/>
    <polygon class="st12" points="418.03 139.17 430.25 129.17 445.39 133.47 439.69 118.75 448.58 105.56 417.47 123.33 418.03 139.17"/>
  </g>
</svg>