<?xml version="1.0" encoding="UTF-8"?>
<svg id="_レイヤー_1" data-name="レイヤー_1" xmlns="http://www.w3.org/2000/svg" version="1.1" viewBox="0 0 800 500">
  <!-- Generator: Adobe Illustrator 30.1.0, SVG Export Plug-In . SVG Version: 2.1.1 Build 136)  -->
  <defs>
    <style>
      .st0, .st1 {
        fill: none;
      }

      .st0, .st1, .st2, .st3 {
        stroke: #231f20;
        stroke-linecap: round;
        stroke-linejoin: round;
      }

      .st0, .st3 {
        stroke-width: .9px;
      }

      .st1, .st2 {
        stroke-width: .63px;
      }

      .st2, .st4, .st5, .st6, .st3 {
        fill-rule: evenodd;
      }

      .st2, .st6 {
        fill: #231f20;
      }

      .st7 {
        fill: #544b27;
      }

      .st8 {
        fill: #e5dd48;
      }

      .st9 {
        fill: #ff5554;
      }

      .st4, .st10, .st3 {
        fill: #fff;
      }

      .st11 {
        fill: #8bfff3;
      }

      .st12 {
        fill: #55a4aa;
      }

      .st13 {
        fill: #feff55;
        stroke: #000;
        stroke-miterlimit: 10;
      }

      .st5 {
        fill: #f9a41e;
      }

      .st14 {
        fill: #dcfffb;
      }

      .st15 {
        fill: #827336;
      }

      .st16 {
        fill: #4659c6;
      }

      .st17 {
        fill: #e7c200;
      }

      .st18 {
        fill: #347070;
      }

      .st19 {
        fill: #e54600;
      }

      .st20 {
        fill: #e70032;
      }

      .st21 {
        fill: #e7b600;
      }
    </style>
  </defs>
  <path class="st11" d="M-7.12,506.16V-24.71h817.62V506.16H-7.12Z"/>
  <path class="st14" d="M460.78,169.46c0-37.77,30.62-68.39,68.39-68.39s68.39,30.62,68.39,68.39-30.62,68.39-68.39,68.39-68.39-30.62-68.39-68.39Z"/>
  <path class="st10" d="M478.23,169.46c0-28.13,22.81-50.94,50.94-50.94s50.94,22.81,50.94,50.94-22.81,50.94-50.94,50.94-50.94-22.81-50.94-50.94Z"/>
  <path class="st12" d="M810.5,227.83v100.93H272.19l416.9-142.4,121.4,41.47Z"/>
  <path class="st12" d="M83.78,184.92l312.13,142.4H-7.12v-100.93l90.9-41.47Z"/>
  <path class="st12" d="M-.31,328.76l401.22-183.88,401.22,183.88"/>
  <path class="st12" d="M73.13,486.43v-235.87h669.92v235.87H73.13Z"/>
  <path class="st18" d="M810.5,295.77v51.71h-507.08s17.46-6.55,58-14.98c70.36-14.63,210.26-34.98,449.08-36.73Z"/>
  <path class="st18" d="M437.4,347.48H-7.12v-51.64c209.35,1.76,332,22.11,393.68,36.73,35.55,8.36,50.85,14.91,50.85,14.91Z"/>
  <path class="st18" d="M-7.12,506.16v-172.45h817.62v172.45H-7.12Z"/>
  <path class="st18" d="M142.19,344.02h-53.43l26.71-101.62,26.71,101.62Z"/>
  <path class="st18" d="M163.87,356.83h-53.43l26.71-101.62,26.71,101.62Z"/>
  <path class="st18" d="M248.72,373.58h-79.01l39.51-124.84,39.5,124.84Z"/>
  <path class="st18" d="M309.14,372.18h-53.43l26.71-101.62,26.71,101.62Z"/>
  <path class="st18" d="M652.45,332.64h-49.02l24.51-98.63,24.51,98.63Z"/>
  <path class="st18" d="M677.46,348.45h-49.03l24.52-98.63,24.51,98.63Z"/>
  <path class="st18" d="M532.49,333.81h-49.03l24.51-75.56,24.52,75.56Z"/>
  <path class="st18" d="M557.49,328.91h-49.02l24.51-75.56,24.51,75.56Z"/>
  <path class="st18" d="M581.21,320.54h-49.02l24.51-75.56,24.51,75.56Z"/>
  <path class="st17" d="M275.65,370.78h-120.31c-7.68,0-13.82-6.14-13.82-13.82v-18.42c0-7.68,6.14-13.82,13.82-13.82h120.45c7.68,0,13.82,6.14,13.82,13.82v18.56c-.14,7.54-6.28,13.68-13.96,13.68Z"/>
  <path class="st15" d="M201.54,744.82v-374.04h29.31v374.04h-29.31Z"/>
  <path class="st7" d="M201.54,395.91v-25.12h29.31v25.12h-29.31Z"/>
  <path class="st19" d="M232.24,324.73c0,9.63-7.82,17.45-17.45,17.45s-17.45-7.82-17.45-17.45"/>
  <path class="st19" d="M158.27,370.78c0-9.63,7.82-17.45,17.45-17.45s17.45,7.82,17.45,17.45"/>
  <path class="st19" d="M239.22,370.78c0-9.63,7.82-17.45,17.45-17.45s17.45,7.82,17.45,17.45"/>
  <path class="st20" d="M406.52,341.48c-7.61,0-13.78-6.17-13.78-13.78v-18.51c0-7.61,6.17-13.78,13.78-13.78h81.31c7.61,0,13.78,6.17,13.78,13.78v18.51c0,7.61-6.17,13.78-13.78,13.78h-81.31Z"/>
  <path class="st15" d="M434.61,729.47v-388h29.31v388h-29.31Z"/>
  <path class="st7" d="M434.61,366.6v-25.12h29.31v25.12h-29.31Z"/>
  <path class="st21" d="M444.38,296.12c0,9.64-7.81,17.45-17.45,17.45s-17.45-7.81-17.45-17.45"/>
  <path class="st21" d="M452.76,341.48c0-9.64,7.81-17.45,17.45-17.45s17.45,7.81,17.45,17.45"/>
  <path class="st16" d="M626.33,273.09c-7.61,0-13.78-6.17-13.78-13.78v-18.51c0-7.61,6.17-13.78,13.78-13.78h46.42c7.61,0,13.78,6.17,13.78,13.78v18.51c0,7.61-6.17,13.78-13.78,13.78h-46.42Z"/>
  <path class="st15" d="M642.57,661.08v-388h13.96v388h-13.96Z"/>
  <path class="st7" d="M642.57,298.21v-25.12h13.96v25.12h-13.96Z"/>
  <path class="st8" d="M662.1,227.87c0,6.94-5.62,12.56-12.56,12.56s-12.56-5.62-12.56-12.56"/>
  <path class="st8" d="M636.98,273.09c0-6.94,5.62-12.56,12.56-12.56s12.56,5.62,12.56,12.56"/>
  <path class="st13" d="M222.11,267.26s-4.01-11.01-2.27-16.39c1.37-4.21,3.99,5.47,6.05,5s.36-10.37,2.41-10.84c2.37-.54,4.42,8.8,6.79,8.26,2.05-.47,1.12-9.29,3.89-6.27,3.29,3.59,5,15.28,5,15.28l-21.87,4.96Z"/>
  <path class="st9" d="M224.25,259.86c.42,1.83.17,3.45-.56,3.61-.73.16-1.66-1.18-2.08-3.01s-.17-3.45.56-3.61c.73-.16,1.66,1.18,2.08,3.01Z"/>
  <path class="st9" d="M232.42,256.47c.52,2.25.21,4.24-.68,4.44-.89.2-2.04-1.46-2.56-3.71s-.21-4.24.68-4.44c.89-.2,2.04,1.46,2.56,3.71Z"/>
  <path class="st9" d="M240.84,255.12c.42,1.83.17,3.45-.56,3.61s-1.66-1.18-2.08-3.01-.17-3.45.56-3.61,1.66,1.18,2.08,3.01h0Z"/>
  <path id="ID0.33640219923108816" class="st5" d="M206.68,309.24c6.11-8.27,14.03-12.44,14.03-12.44l13.82,6.67s-6.53,10.35-9.52,11.6c0,0-7.43-.76-10.56-2.5"/>
  <path id="ID0.2634306978434324" class="st0" d="M206.68,309.24c7.02-8.27,14.03-12.44,14.03-12.44l13.82,6.67s-6.53,10.35-9.52,11.6c0,0-7.43-.76-10.56-2.5"/>
  <path id="ID0.3834887407720089" class="st4" d="M230.65,304.86c-3.89,8.06-12.44,6.39-13.89,3.2-1.46-3.2,3.68-7.71,6.46-8.96,2.78-1.18,10.28,0,7.43,5.77Z"/>
  <path id="ID0.8955257972702384" class="st5" d="M215.23,311.67c-2.15,2.36-3.82,5.77-5.42,8.89-3.13,5.97-10.28,2.71-8.61-2.64,1.32-3.96,5.49-8.68,5.49-8.68"/>
  <path id="ID0.0825743293389678" class="st0" d="M215.23,311.67c-2.15,2.36-3.82,5.77-5.42,8.89-3.13,5.97-10.28,2.71-8.61-2.64,1.32-3.96,5.49-8.68,5.49-8.68"/>
  <path id="ID0.4248275365680456" class="st5" d="M228.98,317.64c-1.67,4.17-5.35,6.32-8.27,5.14-2.5-.97-2.99-4.59-1.25-7.71,1.95-3.47,5.35-5.49,7.92-4.72,2.43.83,2.99,3.75,1.6,7.29h0Z"/>
  <path id="ID0.4170016339048743" class="st0" d="M228.98,317.64c-1.67,4.17-5.35,6.32-8.27,5.14-2.5-.97-2.99-4.59-1.25-7.71,1.95-3.47,5.35-5.49,7.92-4.72,2.43.83,2.99,3.75,1.6,7.29h0Z"/>
  <path id="ID0.3072393317706883" class="st5" d="M249.89,276.45c3.96-2.92,8.34-10.56,9.52-13.55,1.88-4.93,9.31-.97,6.32,5.56-2.92,6.46-14.24,12.44-14.24,12.44-2.78,1.67-5.42-1.53-1.6-4.45Z"/>
  <path id="ID0.8974373424425721" class="st0" d="M249.89,276.45c3.96-2.92,8.34-10.56,9.52-13.55,1.88-4.93,9.31-.97,6.32,5.56-2.92,6.46-14.24,12.44-14.24,12.44-2.78,1.67-5.42-1.53-1.6-4.45Z"/>
  <path id="ID0.4534302558749914" class="st5" d="M216.76,298.05s-5.63-.69-8.13,4.38c-2.08,4.52-9.8,2.64-6.18-3.82,3.2-5.77,11.32-4.38,11.32-4.38l2.99,3.82Z"/>
  <path id="ID0.1449340949766338" class="st0" d="M216.76,298.05s-5.63-.69-8.13,4.38c-2.08,4.52-9.45,2.85-6.18-3.82,2.78-5.77,11.32-4.38,11.32-4.38l2.99,3.82Z"/>
  <path id="ID0.8441412895917892" class="st5" d="M238.78,261.86l6.95-7.02,2.22,9.73s4.17,2.08,6.81,6.95c2.64,4.79,2.22,8.75,2.22,8.75,0,0,4.65.63,5.35,6.67,1.25,11.53-12.37,19.17-29.94,17.58-13.27-1.11-23.41-9.66-22.86-20.15.56-9.45,5.07-12.78,5.07-12.78l-1.53-15.98,11.25,7.85s3.4-1.74,7.29-1.95c3.89-.07,7.16.35,7.16.35h0Z"/>
  <path id="ID0.7266229740343988" class="st4" d="M256.91,280.27c2.78.56,4.38,1.88,5.35,6.67,1.39,6.46-4.86,19.87-29.94,17.58-8.27-.69-17.23-4.52-14.24-15.49,2.64-10.14,18.06-3.54,24.18-4.72,6.18-1.11,8.48-5.14,14.66-4.03Z"/>
  <path id="ID0.07941257441416383" class="st1" d="M226.13,264.78l-3.2-2.29"/>
  <path id="ID0.3073604479432106" class="st0" d="M238.78,261.86l6.95-7.02,2.22,9.73s4.17,2.08,6.81,6.95c2.64,4.79,2.22,8.75,2.22,8.75,0,0,4.65.63,5.35,6.67,1.25,11.53-12.37,19.17-29.94,17.58-13.27-1.11-23.41-9.66-22.86-20.15.56-9.45,5.07-12.78,5.07-12.78l-1.53-15.98,11.25,7.85s3.4-1.74,7.29-1.95c3.89-.07,7.16.35,7.16.35h0Z"/>
  <path id="ID0.1148456297814846" class="st0" d="M211.55,288.05s-2.99.28-4.59.35c-1.6,0-5.07-.35-5.07-.35"/>
  <path id="ID0.3569164266809821" class="st0" d="M201.33,279.78s1.88.42,5.35,2.01c3.13,1.46,5.07,2.99,5.07,2.99"/>
  <path id="ID0.399786364287138" class="st3" d="M252.95,271.65c2.36,3.82,2.36,8.06,0,9.59s-6.18-.42-8.61-4.24c-2.36-3.82-2.36-8.06,0-9.59,2.36-1.46,6.25.42,8.61,4.24Z"/>
  <path id="ID0.012973028235137463" class="st6" d="M251.8,274.19c.28.9-.28,1.81-1.04,1.95-.76.21-1.67-.35-1.88-1.25-.28-.9.28-1.81,1.04-1.95.76-.14,1.6.42,1.88,1.25"/>
  <path id="ID0.4833636190742254" class="st3" d="M232.73,273.95c2.36,3.82,2.01,8.34-.76,10.07-2.78,1.74-7.02.07-9.38-3.75-2.36-3.82-2.01-8.34.76-10.07,2.78-1.74,7.02-.07,9.38,3.75Z"/>
  <path id="ID0.2379798092879355" class="st6" d="M231.38,276.69c0,.9-.69,1.6-1.53,1.6-.76,0-1.53-.76-1.53-1.67s.69-1.6,1.53-1.6c.9.07,1.53.76,1.53,1.67"/>
  <path id="ID0.00844710785895586" class="st2" d="M241.63,282.35c1.39-.21,3.89-.9,4.17.76,0,.69-1.39,3.54-3.13,3.61-1.67.07-4.72-1.88-4.52-3.2.21-1.25,2.22-.97,3.47-1.18h0Z"/>
  <path id="ID0.7077047214843333" class="st0" d="M247.39,289.3c.07,1.67-10.84,2.92-10.7.76"/>
  <path id="ID0.41016054805368185" class="st2" d="M217.31,299.23c-.56.42-1.18.9-1.88,1.39"/>
  <path id="ID0.8669978589750826" class="st2" d="M233.71,304.72c-.28.42-.69,1.04-1.18,1.67"/>
  <path id="ID0.8964151539839804" class="st0" d="M267.89,281.38s-1.6,1.32-3.89,2.01c-1.95.63-5.77,1.18-5.77,1.18"/>
  <path id="ID0.0632392056286335" class="st0" d="M266.98,291.04s-1.6.07-3.89-.21c-2.29-.28-4.59-1.25-4.59-1.25"/>
</svg>