<?xml version="1.0" encoding="UTF-8"?>
<svg id="_レイヤー_1" data-name="レイヤー_1" xmlns="http://www.w3.org/2000/svg" version="1.1" viewBox="0 0 800 500">
  <!-- Generator: Adobe Illustrator 30.1.0, SVG Export Plug-In . SVG Version: 2.1.1 Build 136)  -->
  <defs>
    <style>
      .st0 {
        fill: #c45959;
      }

      .st1 {
        fill: #dcca6c;
      }

      .st2 {
        fill: #fff;
      }

      .st3 {
        fill: #ffd663;
      }

      .st4 {
        fill: #493079;
      }

      .st5 {
        fill: #995757;
      }

      .st6 {
        fill: #001f48;
      }

      .st7 {
        fill: #755799;
      }

      .st8 {
        fill: #464173;
      }

      .st9 {
        fill: #e97373;
      }

      .st10 {
        fill: #8d8145;
      }
    </style>
  </defs>
  <path class="st6" d="M-12.1,517.27V-35.83h821.94v553.1H-12.1Z"/>
  <path class="st4" d="M195.58,211.68l62.21-62.21,62.21,62.21-62.21,62.21-62.21-62.21Z"/>
  <path class="st4" d="M195.58,109.78l62.21-62.21,62.21,62.21-62.21,62.21-62.21-62.21Z"/>
  <path class="st4" d="M195.58,313.57l62.21-62.21,62.21,62.21-62.21,62.21-62.21-62.21Z"/>
  <path class="st4" d="M195.58,517.37l62.21-62.21,62.21,62.21-62.21,62.21-62.21-62.21Z"/>
  <path class="st4" d="M195.58,415.47l62.21-62.21,62.21,62.21-62.21,62.21-62.21-62.21Z"/>
  <path class="st4" d="M505.58,61.68L567.79-.53l62.21,62.21-62.21,62.21-62.21-62.21Z"/>
  <path class="st4" d="M505.58-40.22l62.21-62.21,62.21,62.21-62.21,62.21-62.21-62.21Z"/>
  <path class="st4" d="M505.58,163.57l62.21-62.21,62.21,62.21-62.21,62.21-62.21-62.21Z"/>
  <path class="st4" d="M505.58,367.37l62.21-62.21,62.21,62.21-62.21,62.21-62.21-62.21Z"/>
  <path class="st4" d="M505.58,265.47l62.21-62.21,62.21,62.21-62.21,62.21-62.21-62.21Z"/>
  <path class="st1" d="M254.61,402.44v-76.32h313.13v76.32H254.61Z"/>
  <path class="st1" d="M317.46,517.37v-141.86h190.8v141.86h-190.8Z"/>
  <path class="st1" d="M286.04,424.89v-35.91h259.26v35.91h-259.26Z"/>
  <path class="st10" d="M262.47,393.46v-60.61h295.17v60.61h-295.17Z"/>
  <path class="st10" d="M325.08,517.27v-135.03h175.37v135.03h-175.37Z"/>
  <path class="st10" d="M292.09,418.16v-31.43h244.39v31.43h-244.39Z"/>
  <path class="st2" d="M506.13,393.67v-16.2h16.2v16.2h-16.2Z"/>
  <path class="st2" d="M478.88,410.47v-11.46h11.46v11.46h-11.46Z"/>
  <path class="st2" d="M372.57,416.11v-16.2h16.2v16.2h-16.2Z"/>
  <path class="st2" d="M345.32,432.91v-11.46h11.46v11.46h-11.46Z"/>
  <path class="st2" d="M300.43,388.02v-11.46h11.46v11.46h-11.46Z"/>
  <path class="st5" d="M405.3,323.92c0-1.47,1.19-2.67,2.67-2.67s2.67,1.19,2.67,2.67-1.19,2.67-2.67,2.67-2.67-1.19-2.67-2.67h0Z"/>
  <path class="st5" d="M420.45,323.92c0-1.47,1.19-2.67,2.67-2.67s2.67,1.19,2.67,2.67-1.19,2.67-2.67,2.67-2.67-1.19-2.67-2.67h0Z"/>
  <path class="st0" d="M398.14,305.69v-7.01h8.28v7.01h-8.28Z"/>
  <path class="st9" d="M400.57,323.67v-29.18h29.18v29.18h-29.18Z"/>
  <path class="st3" d="M409.92,316.28v-13.4h18.61v13.4h-18.61Z"/>
  <path class="st0" d="M401.69,322.55v-26.45h8.02v26.45h-8.02Z"/>
  <path d="M412.17,312.28v-3.65h3.65v3.65h-3.65Z"/>
  <path d="M423.11,312.45v-3.65h3.65v3.65h-3.65Z"/>
  <path class="st7" d="M409.64,321.93v-2.67h20.03v2.67h-20.03Z"/>
  <path class="st8" d="M401.9,321.93v-2.67h7.69v2.67h-7.69Z"/>
</svg>