<?xml version="1.0" encoding="utf-8"?>
<!-- Generator: Adobe Illustrator 17.1.0, SVG Export Plug-In . SVG Version: 6.00 Build 0)  -->
<!DOCTYPE svg PUBLIC "-//W3C//DTD SVG 1.1//EN" "http://www.w3.org/Graphics/SVG/1.1/DTD/svg11.dtd">
<svg version="1.1" id="レイヤー_1" xmlns="http://www.w3.org/2000/svg" xmlns:xlink="http://www.w3.org/1999/xlink" x="0px"
	 y="0px" viewBox="0 0 800 494" enable-background="new 0 0 800 494" xml:space="preserve">
<pattern  x="914" y="126" width="144.1" height="138.4" patternUnits="userSpaceOnUse" id="Alyssa" viewBox="100 -216.8 144.1 138.4" overflow="visible">
	<g>
		<polygon fill="none" points="100,-216.8 244.1,-216.8 244.1,-78.5 100,-78.5 		"/>
		<g>
			<path fill="#C6DD7F" d="M311-58.3c-11.8-1.4-19.4,0.3-22.7,3.1c-3,2.5-5,5.4-2.2,11.9c2.9,7.1,1.5,14.7-5.5,15.9
				c-6.2,1-10.9-4.8-11.2-12.3c-0.2-5.2-1.9-8.3-5.5-7.6c-3.6,0.7-4.6,5.9-3.6,11.8c1.4,8.1,5.5,11.8,6.2,20.2
				c0.5,6.1-2.9,13.7-12.5,15c-9.3,1.4-15.9-4.3-16.6-10.5c-0.7-6.6,3.6-10.9,3.1-17.6c-0.5-6.7-4-10.2-5.9-17.3
				c-2.8-10.5,1.2-19,7.8-22.7c14.7-8.1,22.8,3.6,36,1.6c10.9-1.7,23.3-18.2,33-19.5c8.2-1.2,13.8,4.7,15,14
				C327.6-63,321.7-57.1,311-58.3z M268.8-57.8c0-2.3-1.9-4.2-4.2-4.2c-2.3,0-4.2,1.9-4.2,4.2s1.9,4.2,4.2,4.2
				C267-53.6,268.8-55.5,268.8-57.8z M318.3-73.2c0-1-0.8-1.7-1.7-1.7s-1.7,0.8-1.7,1.7s0.8,1.7,1.7,1.7S318.3-72.2,318.3-73.2z"/>
		</g>
		<g>
			<path fill="#E9DDB7" d="M148.8-77.5c0,7.2,4.6,13.8-1,16.3c-8.5,3.8-28-14.3-28-36.2c0-12,8.7-19,17.8-19c12.3,0,18,8.2,18,17.5
				C155.6-89.5,148.8-85.7,148.8-77.5z M143.4-82.9c0-1.1-0.9-2.1-2.1-2.1c-1.1,0-2.1,0.9-2.1,2.1c0,1.1,0.9,2.1,2.1,2.1
				C142.5-80.8,143.4-81.7,143.4-82.9z"/>
			<path fill="#A6D0E4" d="M223.5-54c-7.9,2.7-19.4-15.3-17.7-27c1.2-8.2,7.1-13.2,13.1-14.2c7.5-1.3,12.9,2.6,13.3,7.2
				c0.5,6.3-3.6,7.5-4.2,15C227.4-65.9,231.7-56.8,223.5-54z M219.7-81.5c0-1.4-1.2-2.6-2.6-2.6c-1.4,0-2.6,1.2-2.6,2.6
				c0,1.4,1.2,2.6,2.6,2.6C218.5-78.9,219.7-80.1,219.7-81.5z"/>
			<path fill="#E9DDB7" d="M119.4-76.5c0,1.4-1.2,2.6-2.6,2.6c-1.4,0-2.6-1.2-2.6-2.6s1.2-2.6,2.6-2.6
				C118.2-79.1,119.4-77.9,119.4-76.5z"/>
			<path fill="#A6D0E4" d="M184.6-84.2c0.7,8.1,12.7,7,17.9,14.2c10.5,14.5-1.2,46.4-21.6,46.4c-11.7,0-24.2-9.7-24.2-29.2
				c0-15.8,10.2-21.5,8.2-42.2c-1-10.8-12.5-20.3-12.5-34.8c0-5.9,3.6-13.4,11.6-13.4c7.1,0,10.8,6,10.8,12.9c0,6.8-5.4,15.7,1.4,19
				c5.2,2.6,13.2-4.8,19.5-6.8c5.2-1.6,12.4,0.2,14.8,8.5c2.5,8.9-3.3,14.7-11.6,16.7C192.5-91.3,184-90.6,184.6-84.2z M168.6-114.7
				c0-1.8-1.5-3.3-3.3-3.3c-1.8,0-3.3,1.5-3.3,3.3c0,1.8,1.5,3.3,3.3,3.3C167.1-111.5,168.6-112.9,168.6-114.7z M194.6-105.1
				c1.3,0,2.3-1,2.3-2.3c0-1.3-1-2.3-2.3-2.3c-1.3,0-2.3,1-2.3,2.3C192.2-106.1,193.3-105.1,194.6-105.1z M174.6-45.4
				c0-1.8-1.5-3.3-3.3-3.3c-1.8,0-3.3,1.5-3.3,3.3c0,1.8,1.5,3.3,3.3,3.3C173.1-42.1,174.6-43.6,174.6-45.4z"/>
			<path fill="#C6DD7F" d="M166.9-58.3c-11.8-1.4-19.4,0.3-22.7,3.1c-3,2.5-5,5.4-2.2,11.9c2.9,7.1,1.5,14.7-5.5,15.9
				c-6.2,1-10.9-4.8-11.2-12.3c-0.2-5.2-1.9-8.3-5.5-7.6c-3.6,0.7-4.6,5.9-3.6,11.8c1.4,8.1,5.5,11.8,6.2,20.2
				c0.5,6.1-2.9,13.7-12.5,15c-9.3,1.4-15.9-4.3-16.6-10.5c-0.7-6.6,3.6-10.9,3.1-17.6c-0.5-6.7-4-10.2-5.9-17.3
				c-2.8-10.5,1.2-19,7.8-22.7c14.7-8.1,22.8,3.6,36,1.6c10.9-1.7,23.3-18.2,33-19.5c8.2-1.2,13.8,4.7,15,14
				C183.5-63,177.6-57.1,166.9-58.3z M124.7-57.8c0-2.3-1.9-4.2-4.2-4.2c-2.3,0-4.2,1.9-4.2,4.2s1.9,4.2,4.2,4.2
				C122.9-53.6,124.7-55.5,124.7-57.8z M174.2-73.2c0-1-0.8-1.7-1.7-1.7c-1,0-1.7,0.8-1.7,1.7s0.8,1.7,1.7,1.7
				C173.4-71.4,174.2-72.2,174.2-73.2z"/>
		</g>
		<g>
			<path fill="#A6D0E4" d="M290.3-104.8c0,6.2-4.2,10.7-8.6,11.6c-4.5,0.9-8.3-1.3-13,1.2c-4.8,2.6-7.1,11.1-16.8,11.1
				c-8,0-15.2-8-15.2-18.8c0-20.2,13.1-29.2,25.6-29.2C278.9-129.1,290.3-116.4,290.3-104.8z M270.6-119.2c0-2.1-1.7-3.8-3.8-3.8
				c-2.1,0-3.8,1.7-3.8,3.8c0,2.1,1.7,3.8,3.8,3.8C268.9-115.4,270.6-117.1,270.6-119.2z"/>
			<path fill="#C6DD7F" d="M311-196.7c-11.8-1.4-19.4,0.3-22.7,3.1c-3,2.5-5,5.4-2.2,11.9c2.9,7.1,1.5,14.7-5.5,15.9
				c-6.2,1-10.9-4.8-11.2-12.3c-0.2-5.2-1.9-8.3-5.5-7.6c-3.6,0.7-4.6,5.9-3.6,11.8c1.4,8.1,5.5,11.8,6.2,20.2
				c0.5,6.1-2.9,13.7-12.5,15c-9.3,1.4-15.9-4.3-16.6-10.5c-0.7-6.6,3.6-10.9,3.1-17.6c-0.5-6.7-4-10.2-5.9-17.3
				c-2.8-10.5,1.2-19,7.8-22.7c14.7-8.1,22.8,3.6,36,1.6c10.9-1.7,23.3-18.2,33-19.5c8.2-1.2,13.8,4.7,15,14
				C327.6-201.3,321.7-195.4,311-196.7z M268.8-196.2c0-2.3-1.9-4.2-4.2-4.2c-2.3,0-4.2,1.9-4.2,4.2c0,2.3,1.9,4.2,4.2,4.2
				C267-192,268.8-193.9,268.8-196.2z M318.3-211.5c0-1-0.8-1.7-1.7-1.7s-1.7,0.8-1.7,1.7c0,1,0.8,1.7,1.7,1.7
				S318.3-210.6,318.3-211.5z"/>
		</g>
		<g>
			<path fill="#A6D0E4" d="M131.8-133.2c-14,2-21.2-13.3-17.7-20.3c3.7-7.3,12.1-4.2,19.5-4.2c9.7,0,16.4-7.6,20.4-2.2
				C158.3-154.4,149-135.6,131.8-133.2z M132.3-150.7c0-1.2-1-2.2-2.2-2.2c-1.2,0-2.2,1-2.2,2.2c0,1.2,1,2.2,2.2,2.2
				C131.3-148.4,132.3-149.4,132.3-150.7z"/>
			<path fill="#E9DDB7" d="M148.8-215.9c0,7.2,4.6,13.8-1,16.3c-8.5,3.8-28-14.3-28-36.2c0-12,8.7-19,17.8-19c12.3,0,18,8.2,18,17.5
				C155.6-227.9,148.8-224.1,148.8-215.9z M143.4-221.2c0-1.1-0.9-2.1-2.1-2.1c-1.1,0-2.1,0.9-2.1,2.1c0,1.1,0.9,2.1,2.1,2.1
				C142.5-219.2,143.4-220.1,143.4-221.2z"/>
			<path fill="#A6D0E4" d="M146.2-104.8c0,6.2-4.2,10.7-8.6,11.6c-4.5,0.9-8.3-1.3-13,1.2c-4.8,2.6-7.1,11.1-16.8,11.1
				c-8,0-15.2-8-15.2-18.8c0-20.2,13.1-29.2,25.6-29.2C134.7-129.1,146.2-116.4,146.2-104.8z M126.4-119.2c0-2.1-1.7-3.8-3.8-3.8
				c-2.1,0-3.8,1.7-3.8,3.8c0,2.1,1.7,3.8,3.8,3.8C124.7-115.4,126.4-117.1,126.4-119.2z"/>
			<path fill="#C6DD7F" d="M145.5-128.5c0,1.3-1.1,2.4-2.4,2.4c-1.3,0-2.4-1.1-2.4-2.4c0-1.3,1.1-2.4,2.4-2.4
				C144.4-131,145.5-129.9,145.5-128.5z"/>
			<path fill="#A6D0E4" d="M229.2-147c-3.2,4.7,1,10.7-1.4,15.2c-2.4,4.5-6.7,5-9.9,2.6c-3.6-2.8-3.4-6.6-8.3-8.8
				c-5.5-2.5-18,2.2-19.7-7.3c-0.9-4.8,2.4-8.6,7.3-9.7c6.1-1.4,9.4-0.2,15.4-3.1c6.1-2.9,11.2-9,22.1-12.1
				c10.4-3,16.1,1.6,16.6,5.9C252.3-155.9,234.2-154.4,229.2-147z M226.9-154.5c0-1.2-1-2.2-2.2-2.2c-1.2,0-2.2,1-2.2,2.2
				c0,1.2,1,2.2,2.2,2.2C225.9-152.2,226.9-153.2,226.9-154.5z"/>
			<path fill="#E9DDB7" d="M256.1-107.9c0,17.2-14.5,25.5-27,22.8c-10.3-2.2-12.8-17.3-16.7-26.2c-3.7-8.6-8.8-22.5-20.2-22.5
				c-11.2,0-12.8,14.5-23.7,14.5c-11,0-24.5-15.7-24.5-39.7c0-14.7,9.8-31.5,20.8-30.7c11.7,0.8,4.5,19.7,15.3,19.7
				c9.5,0,7.9-16.3,9.2-23.3c1.7-9,6.8-14.2,18.5-13.2c14.4,1.2,22.3,13.5,18.9,23.3c-4,11.5-23.9,17.3-21.5,30.5
				c1.3,7.6,13,12,26,16.2C245.8-131.7,256.1-125,256.1-107.9z M211.2-183.7c0,1.8,1.5,3.3,3.3,3.3c1.8,0,3.3-1.5,3.3-3.3
				s-1.5-3.3-3.3-3.3C212.6-187,211.2-185.5,211.2-183.7z M164.5-158.8c0-1-0.8-1.7-1.7-1.7c-1,0-1.7,0.8-1.7,1.7
				c0,1,0.8,1.7,1.7,1.7C163.7-157.1,164.5-157.8,164.5-158.8z M182-148.1c0-2.1-1.7-3.8-3.8-3.8c-2.1,0-3.8,1.7-3.8,3.8
				c0,2.1,1.7,3.8,3.8,3.8C180.2-144.3,182-146,182-148.1z M201.8-163.6c0-0.9-0.7-1.6-1.6-1.6c-0.9,0-1.6,0.7-1.6,1.6
				c0,0.9,0.7,1.6,1.6,1.6C201.1-162.1,201.8-162.8,201.8-163.6z M231.5-108.9c0-1.8-1.4-3.2-3.2-3.2c-1.8,0-3.2,1.4-3.2,3.2
				c0,1.8,1.4,3.2,3.2,3.2C230.1-105.8,231.5-107.2,231.5-108.9z"/>
			<path fill="#A6D0E4" d="M223.5-192.4c-7.9,2.7-19.4-15.3-17.7-27c1.2-8.2,7.1-13.2,13.1-14.2c7.5-1.3,12.9,2.6,13.3,7.2
				c0.5,6.3-3.6,7.5-4.2,15C227.4-204.3,231.7-195.2,223.5-192.4z M219.7-219.9c0-1.4-1.2-2.6-2.6-2.6c-1.4,0-2.6,1.2-2.6,2.6
				c0,1.4,1.2,2.6,2.6,2.6C218.5-217.3,219.7-218.4,219.7-219.9z"/>
			<path fill="#E9DDB7" d="M119.4-214.8c0,1.4-1.2,2.6-2.6,2.6c-1.4,0-2.6-1.2-2.6-2.6c0-1.4,1.2-2.6,2.6-2.6
				C118.2-217.4,119.4-216.3,119.4-214.8z"/>
			<path fill="#E9DDB7" d="M253.3-128.1c0-8.4-5.1-15.2-11.3-15.2s-11.3,6.8-11.3,15.2c0,8.4,5.1,12.4,11.3,12.4
				S253.3-119.7,253.3-128.1z"/>
			<path fill="#A6D0E4" d="M184.6-222.6c0.7,8.1,12.7,7,17.9,14.2c10.5,14.5-1.2,46.4-21.6,46.4c-11.7,0-24.2-9.7-24.2-29.2
				c0-15.8,10.2-21.5,8.2-42.2c-1-10.8-12.5-20.3-12.5-34.8c0-5.9,3.6-13.4,11.6-13.4c7.1,0,10.8,6,10.8,12.9c0,6.8-5.4,15.7,1.4,19
				c5.2,2.6,13.2-4.8,19.5-6.8c5.2-1.6,12.4,0.2,14.8,8.5c2.5,8.9-3.3,14.7-11.6,16.7C192.5-229.7,184-229,184.6-222.6z
				 M168.6-253.1c0-1.8-1.5-3.3-3.3-3.3c-1.8,0-3.3,1.5-3.3,3.3c0,1.8,1.5,3.3,3.3,3.3C167.1-249.8,168.6-251.3,168.6-253.1z
				 M194.6-243.4c1.3,0,2.3-1,2.3-2.3c0-1.3-1-2.3-2.3-2.3c-1.3,0-2.3,1-2.3,2.3C192.2-244.5,193.3-243.4,194.6-243.4z M174.6-183.7
				c0-1.8-1.5-3.3-3.3-3.3c-1.8,0-3.3,1.5-3.3,3.3c0,1.8,1.5,3.3,3.3,3.3C173.1-180.5,174.6-181.9,174.6-183.7z"/>
			<path fill="#C6DD7F" d="M166.9-196.7c-11.8-1.4-19.4,0.3-22.7,3.1c-3,2.5-5,5.4-2.2,11.9c2.9,7.1,1.5,14.7-5.5,15.9
				c-6.2,1-10.9-4.8-11.2-12.3c-0.2-5.2-1.9-8.3-5.5-7.6c-3.6,0.7-4.6,5.9-3.6,11.8c1.4,8.1,5.5,11.8,6.2,20.2
				c0.5,6.1-2.9,13.7-12.5,15c-9.3,1.4-15.9-4.3-16.6-10.5c-0.7-6.6,3.6-10.9,3.1-17.6c-0.5-6.7-4-10.2-5.9-17.3
				c-2.8-10.5,1.2-19,7.8-22.7c14.7-8.1,22.8,3.6,36,1.6c10.9-1.7,23.3-18.2,33-19.5c8.2-1.2,13.8,4.7,15,14
				C183.5-201.3,177.6-195.4,166.9-196.7z M124.7-196.2c0-2.3-1.9-4.2-4.2-4.2c-2.3,0-4.2,1.9-4.2,4.2c0,2.3,1.9,4.2,4.2,4.2
				C122.9-192,124.7-193.9,124.7-196.2z M174.2-211.5c0-1-0.8-1.7-1.7-1.7c-1,0-1.7,0.8-1.7,1.7c0,1,0.8,1.7,1.7,1.7
				C173.4-209.8,174.2-210.6,174.2-211.5z"/>
			<path fill="#C6DD7F" d="M230.2-174.4c0,0.8-0.6,1.4-1.4,1.4c-0.8,0-1.4-0.6-1.4-1.4c0-0.8,0.6-1.4,1.4-1.4
				C229.6-175.7,230.2-175.1,230.2-174.4z"/>
			<path fill="#E9DDB7" d="M235.7-212.8c0,1.2-1,2.2-2.2,2.2s-2.2-1-2.2-2.2c0-1.2,1-2.2,2.2-2.2S235.7-214,235.7-212.8z"/>
			<path fill="#A6D0E4" d="M152.2-189.6c0,0.7-0.5,1.2-1.2,1.2s-1.2-0.5-1.2-1.2s0.5-1.2,1.2-1.2S152.2-190.2,152.2-189.6z"/>
			<path fill="#A6D0E4" d="M148.6-121.1c0,0.8-0.6,1.4-1.4,1.4s-1.4-0.6-1.4-1.4c0-0.8,0.6-1.4,1.4-1.4S148.6-121.9,148.6-121.1z"/>
			<path fill="#E9DDB7" d="M233.1-143.1c0,0.7-0.5,1.2-1.2,1.2c-0.7,0-1.2-0.5-1.2-1.2c0-0.7,0.5-1.2,1.2-1.2
				C232.6-144.3,233.1-143.7,233.1-143.1z"/>
			<path fill="#C6DD7F" d="M195.9-125.1c0,1.9-1.5,3.4-3.4,3.4c-1.9,0-3.4-1.5-3.4-3.4c0-1.9,1.5-3.4,3.4-3.4
				C194.3-128.5,195.9-127,195.9-125.1z"/>
			<path fill="#E9DDB7" d="M200.8-85.3c0,1.2-0.9,2.1-2.1,2.1s-2.1-0.9-2.1-2.1s0.9-2.1,2.1-2.1S200.8-86.4,200.8-85.3z"/>
			<path fill="#E9DDB7" d="M162-91.6c0,0.9-0.7,1.6-1.6,1.6c-0.9,0-1.6-0.7-1.6-1.6c0-0.9,0.7-1.6,1.6-1.6
				C161.3-93.1,162-92.4,162-91.6z"/>
			<path fill="#C6DD7F" d="M235.7-205.6c0,1.4-1.2,2.6-2.6,2.6c-1.4,0-2.6-1.2-2.6-2.6c0-1.4,1.2-2.6,2.6-2.6
				C234.5-208.2,235.7-207.1,235.7-205.6z"/>
			<path fill="#A6D0E4" d="M225.5-170.8c0,1.3-1.1,2.4-2.4,2.4c-1.3,0-2.4-1.1-2.4-2.4s1.1-2.4,2.4-2.4
				C224.4-173.1,225.5-172.1,225.5-170.8z"/>
			<path fill="#E9DDB7" d="M127.7-164.2c0,1.4-1.2,2.6-2.6,2.6c-1.4,0-2.6-1.2-2.6-2.6c0-1.4,1.2-2.6,2.6-2.6
				C126.5-166.8,127.7-165.6,127.7-164.2z"/>
			<path fill="#A6D0E4" d="M122.7-171.3c0,0.7-0.6,1.3-1.3,1.3c-0.7,0-1.3-0.6-1.3-1.3s0.6-1.3,1.3-1.3
				C122.1-172.6,122.7-172,122.7-171.3z"/>
			<path fill="#E9DDB7" d="M186.9-119.4c0,0.9-0.7,1.6-1.6,1.6c-0.9,0-1.6-0.7-1.6-1.6c0-0.9,0.7-1.6,1.6-1.6
				C186.2-120.9,186.9-120.2,186.9-119.4z"/>
		</g>
		<g>
			<path fill="#A6D0E4" d="M85-147c-3.2,4.7,1,10.7-1.4,15.2c-2.4,4.5-6.7,5-9.9,2.6c-3.6-2.8-3.4-6.6-8.3-8.8
				c-5.5-2.5-18,2.2-19.7-7.3c-0.9-4.8,2.4-8.6,7.3-9.7c6.1-1.4,9.4-0.2,15.4-3.1c6.1-2.9,11.2-9,22.1-12.1
				c10.4-3,16.1,1.6,16.6,5.9C108.2-155.9,90-154.4,85-147z M82.8-154.5c0-1.2-1-2.2-2.2-2.2c-1.2,0-2.2,1-2.2,2.2
				c0,1.2,1,2.2,2.2,2.2C81.8-152.2,82.8-153.2,82.8-154.5z"/>
			<path fill="#E9DDB7" d="M112-107.9c0,17.2-14.5,25.5-27,22.8c-10.3-2.2-12.8-17.3-16.7-26.2c-3.7-8.6-8.8-22.5-20.2-22.5
				c-11.2,0-12.8,14.5-23.7,14.5c-11,0-24.5-15.7-24.5-39.7c0-14.7,9.8-31.5,20.8-30.7c11.7,0.8,4.5,19.7,15.3,19.7
				c9.5,0,7.9-16.3,9.2-23.3c1.7-9,6.8-14.2,18.5-13.2c14.4,1.2,22.3,13.5,18.9,23.3c-4,11.5-23.9,17.3-21.5,30.5
				c1.3,7.6,13,12,26,16.2C101.7-131.7,112-125,112-107.9z M67-183.7c0,1.8,1.5,3.3,3.3,3.3c1.8,0,3.3-1.5,3.3-3.3s-1.5-3.3-3.3-3.3
				C68.5-187,67-185.5,67-183.7z M20.4-158.8c0-1-0.8-1.7-1.7-1.7c-1,0-1.7,0.8-1.7,1.7c0,1,0.8,1.7,1.7,1.7
				C19.6-157.1,20.4-157.8,20.4-158.8z M37.8-148.1c0-2.1-1.7-3.8-3.8-3.8c-2.1,0-3.8,1.7-3.8,3.8c0,2.1,1.7,3.8,3.8,3.8
				C36.1-144.3,37.8-146,37.8-148.1z M57.7-163.6c0-0.9-0.7-1.6-1.6-1.6c-0.9,0-1.6,0.7-1.6,1.6c0,0.9,0.7,1.6,1.6,1.6
				C57-162.1,57.7-162.8,57.7-163.6z M87.4-108.9c0-1.8-1.4-3.2-3.2-3.2c-1.8,0-3.2,1.4-3.2,3.2c0,1.8,1.4,3.2,3.2,3.2
				C85.9-105.8,87.4-107.2,87.4-108.9z"/>
			<path fill="#E9DDB7" d="M109.2-128.1c0-8.4-5.1-15.2-11.3-15.2s-11.3,6.8-11.3,15.2c0,8.4,5.1,12.4,11.3,12.4
				S109.2-119.7,109.2-128.1z"/>
		</g>
	</g>
</pattern>
<linearGradient id="SVGID_1_" gradientUnits="userSpaceOnUse" x1="1403.75" y1="538.75" x2="1403.75" y2="284.9992">
	<stop  offset="0" style="stop-color:#FFCA2A"/>
	<stop  offset="0.1325" style="stop-color:#B79D41"/>
	<stop  offset="0.2649" style="stop-color:#767456"/>
	<stop  offset="0.3841" style="stop-color:#435466"/>
	<stop  offset="0.4875" style="stop-color:#1E3D72"/>
	<stop  offset="0.571" style="stop-color:#082F79"/>
	<stop  offset="0.6244" style="stop-color:#002A7C"/>
	<stop  offset="0.9765" style="stop-color:#000038"/>
</linearGradient>
<rect x="1186.2" y="282.5" fill="url(#SVGID_1_)" width="435" height="251.9"/>
<g>
	<g>
		<g enable-background="new    ">
			<g>
				<path fill="#2F1708" d="M1440,567.3c2.8,1.6,0.4,3.5-5.2,4.2s-12.5,0.1-15.2-1.5c-2.8-1.6-0.4-3.5,5.2-4.2
					S1437.2,565.8,1440,567.3z"/>
			</g>
			<g enable-background="new    ">
				<defs>
					<path id="SVGID_2_" enable-background="new    " d="M1441.2,568.7c0-0.5-0.4-0.9-1.2-1.4l0.2-119.4c0.8,0.4,1.2,0.9,1.2,1.4
						C1441.3,485.1,1441.2,532.9,1441.2,568.7z"/>
				</defs>
				<clipPath id="SVGID_3_">
					<use xlink:href="#SVGID_2_"  overflow="visible"/>
				</clipPath>
				<g clip-path="url(#SVGID_3_)" enable-background="new    ">
					<path fill="#221106" d="M1441.2,568.7l0.2-119.4c0-0.5-0.4-0.9-1.2-1.4l-0.2,119.4C1440.8,567.8,1441.2,568.3,1441.2,568.7"/>
				</g>
			</g>
			<g enable-background="new    ">
				<defs>
					<path id="SVGID_4_" enable-background="new    " d="M1418.6,449.3c0-1.2,2.3-2.3,6.4-2.8c5.6-0.8,12.5-0.1,15.2,1.5l-0.2,119.4
						c-2.8-1.6-9.6-2.2-15.2-1.5c-4,0.5-6.4,1.7-6.4,2.8C1418.5,532.9,1418.5,485.1,1418.6,449.3z"/>
				</defs>
				<clipPath id="SVGID_5_">
					<use xlink:href="#SVGID_4_"  overflow="visible"/>
				</clipPath>
				<g clip-path="url(#SVGID_5_)" enable-background="new    ">
					<path fill="#221106" d="M1440,567.3l0.2-119.4c-0.5-0.3-1.1-0.5-1.8-0.7l-0.2,119.4C1438.9,566.8,1439.5,567.1,1440,567.3"/>
					<path fill="#241206" d="M1438.2,566.6l0.2-119.4c-0.3-0.1-0.6-0.2-0.8-0.2l-0.2,119.4C1437.7,566.5,1438,566.5,1438.2,566.6"/>
					<path fill="#251206" d="M1437.4,566.4l0.2-119.4c-0.2-0.1-0.5-0.1-0.7-0.2l-0.2,119.4C1436.9,566.3,1437.1,566.3,1437.4,566.4"
						/>
					<path fill="#261306" d="M1436.6,566.2l0.2-119.4c-0.2,0-0.4-0.1-0.7-0.1l-0.2,119.4C1436.2,566.1,1436.4,566.2,1436.6,566.2"/>
					<path fill="#281407" d="M1436,566.1l0.2-119.4c-0.2,0-0.4-0.1-0.6-0.1l-0.2,119.4C1435.5,566,1435.8,566,1436,566.1"/>
					<path fill="#291407" d="M1435.3,566l0.2-119.4c-0.2,0-0.4-0.1-0.6-0.1l-0.2,119.4C1434.9,565.9,1435.1,565.9,1435.3,566"/>
					<path fill="#2A1507" d="M1434.7,565.9l0.2-119.4c-0.2,0-0.4-0.1-0.6-0.1l-0.2,119.4C1434.3,565.8,1434.5,565.9,1434.7,565.9"/>
					<path fill="#2C1607" d="M1434.1,565.8l0.2-119.4c-0.2,0-0.4,0-0.6-0.1l-0.2,119.4C1433.6,565.8,1433.9,565.8,1434.1,565.8"/>
					<path fill="#2D1607" d="M1433.4,565.7l0.2-119.4c-0.2,0-0.4,0-0.6-0.1l-0.2,119.4C1433,565.7,1433.2,565.7,1433.4,565.7"/>
					<path fill="#2E1708" d="M1432.8,565.7l0.2-119.4c-0.2,0-0.4,0-0.6,0l-0.2,119.4C1432.4,565.7,1432.6,565.7,1432.8,565.7"/>
					<path fill="#301808" d="M1432.2,565.6l0.2-119.4c-0.2,0-0.4,0-0.6,0l-0.2,119.4C1431.7,565.6,1432,565.6,1432.2,565.6"/>
					<path fill="#311808" d="M1431.5,565.6l0.2-119.4c-0.2,0-0.4,0-0.6,0l-0.2,119.4C1431.1,565.6,1431.3,565.6,1431.5,565.6"/>
					<path fill="#321908" d="M1430.9,565.6l0.2-119.4c-0.2,0-0.4,0-0.6,0l-0.2,119.4C1430.5,565.6,1430.7,565.6,1430.9,565.6"/>
					<path fill="#331A09" d="M1430.2,565.6l0.2-119.4c-0.2,0-0.4,0-0.7,0l-0.2,119.4C1429.8,565.6,1430,565.6,1430.2,565.6"/>
					<path fill="#351A09" d="M1429.6,565.6l0.2-119.4c-0.2,0-0.4,0-0.7,0l-0.2,119.4C1429.1,565.6,1429.4,565.6,1429.6,565.6"/>
					<path fill="#361B09" d="M1428.9,565.6l0.2-119.4c-0.2,0-0.5,0-0.7,0l-0.2,119.4C1428.4,565.6,1428.7,565.6,1428.9,565.6"/>
					<path fill="#371C09" d="M1428.2,565.6l0.2-119.4c-0.3,0-0.6,0-0.9,0l-0.2,119.4C1427.6,565.6,1427.9,565.6,1428.2,565.6"/>
					<path fill="#391C09" d="M1427.3,565.6l0.2-119.4c-0.9,0.1-1.7,0.1-2.5,0.2c-0.6,0.1-1.2,0.2-1.7,0.3l-0.2,119.4
						c0.5-0.1,1.1-0.2,1.7-0.3C1425.6,565.8,1426.4,565.7,1427.3,565.6"/>
					<path fill="#371C09" d="M1423,566.2l0.2-119.4c-0.4,0.1-0.8,0.2-1.1,0.3l-0.2,119.4C1422.3,566.3,1422.6,566.2,1423,566.2"/>
					<path fill="#361B09" d="M1421.9,566.4l0.2-119.4c-0.3,0.1-0.5,0.1-0.8,0.2l-0.2,119.4C1421.4,566.6,1421.7,566.5,1421.9,566.4"
						/>
					<path fill="#351A09" d="M1421.2,566.6l0.2-119.4c-0.2,0.1-0.4,0.1-0.6,0.2l-0.2,119.4C1420.8,566.8,1421,566.7,1421.2,566.6"/>
					<path fill="#331A09" d="M1420.6,566.8l0.2-119.4c-0.2,0.1-0.3,0.1-0.5,0.2l-0.2,119.4C1420.3,567,1420.4,566.9,1420.6,566.8"/>
					<path fill="#321908" d="M1420.1,567l0.2-119.4c-0.1,0.1-0.3,0.1-0.4,0.2l-0.2,119.4C1419.9,567.1,1420,567.1,1420.1,567"/>
					<path fill="#311808" d="M1419.8,567.2l0.2-119.4c-0.1,0.1-0.2,0.1-0.3,0.2l-0.2,119.4C1419.6,567.3,1419.7,567.3,1419.8,567.2"
						/>
					<path fill="#301808" d="M1419.5,567.4l0.2-119.4c-0.1,0.1-0.2,0.1-0.3,0.2l-0.2,119.4C1419.3,567.5,1419.4,567.4,1419.5,567.4"
						/>
					<path fill="#2E1708" d="M1419.2,567.5l0.2-119.4c-0.1,0.1-0.2,0.1-0.2,0.2l-0.2,119.4C1419,567.7,1419.1,567.6,1419.2,567.5"/>
					<path fill="#2D1607" d="M1419,567.7l0.2-119.4c-0.1,0.1-0.1,0.1-0.2,0.2l-0.2,119.4C1418.8,567.8,1418.9,567.8,1419,567.7"/>
					<path fill="#2C1607" d="M1418.8,567.9l0.2-119.4c-0.1,0.1-0.1,0.1-0.2,0.2l-0.2,119.4C1418.7,568,1418.7,568,1418.8,567.9"/>
					<path fill="#2A1507" d="M1418.6,568.1l0.2-119.4c0,0.1-0.1,0.1-0.1,0.2l-0.2,119.4C1418.5,568.2,1418.6,568.1,1418.6,568.1"/>
					<path fill="#291407" d="M1418.5,568.3l0.2-119.4c0,0.1-0.1,0.1-0.1,0.2l-0.2,119.4C1418.4,568.4,1418.5,568.3,1418.5,568.3"/>
					<path fill="#281407" d="M1418.4,568.5l0.2-119.4c0,0.1,0,0.1,0,0.2l-0.2,119.4C1418.4,568.6,1418.4,568.5,1418.4,568.5"/>
					<path fill="#261306" d="M1418.4,568.7l0.2-119.4c0,0,0,0,0,0L1418.4,568.7C1418.4,568.7,1418.4,568.7,1418.4,568.7"/>
				</g>
			</g>
			<g enable-background="new    ">
				<defs>
					<path id="SVGID_6_" enable-background="new    " d="M1418.4,568.7l0.2-119.4c0,0.5,0.4,0.9,1.2,1.4c2.8,1.6,9.6,2.2,15.2,1.5
						c4-0.5,6.4-1.7,6.4-2.8l-0.2,119.4c0,1.2-2.3,2.3-6.4,2.8c-5.6,0.8-12.5,0.1-15.2-1.5C1418.8,569.6,1418.4,569.2,1418.4,568.7z
						"/>
				</defs>
				<clipPath id="SVGID_7_">
					<use xlink:href="#SVGID_6_"  overflow="visible"/>
				</clipPath>
				<g clip-path="url(#SVGID_7_)" enable-background="new    ">
					<path fill="#221106" d="M1418.4,568.7l0.2-119.4c0,0.5,0.4,0.9,1.2,1.4c0.5,0.3,1.1,0.5,1.8,0.7l-0.2,119.4
						c-0.7-0.2-1.3-0.5-1.8-0.7C1418.8,569.6,1418.4,569.2,1418.4,568.7"/>
					<path fill="#241206" d="M1421.3,570.8l0.2-119.4c0.3,0.1,0.6,0.2,0.8,0.2l-0.2,119.4C1421.9,571,1421.6,570.9,1421.3,570.8"/>
					<path fill="#251206" d="M1422.2,571.1l0.2-119.4c0.2,0.1,0.5,0.1,0.7,0.2l-0.2,119.4C1422.6,571.2,1422.4,571.1,1422.2,571.1"
						/>
					<path fill="#261306" d="M1422.9,571.2l0.2-119.4c0.2,0,0.4,0.1,0.7,0.1l-0.2,119.4C1423.3,571.3,1423.1,571.3,1422.9,571.2"/>
					<path fill="#281407" d="M1423.6,571.4l0.2-119.4c0.2,0,0.4,0.1,0.6,0.1l-0.2,119.4C1424,571.4,1423.8,571.4,1423.6,571.4"/>
					<path fill="#291407" d="M1424.2,571.5l0.2-119.4c0.2,0,0.4,0.1,0.6,0.1l-0.2,119.4C1424.6,571.5,1424.4,571.5,1424.2,571.5"/>
					<path fill="#2A1507" d="M1424.8,571.6l0.2-119.4c0.2,0,0.4,0.1,0.6,0.1l-0.2,119.4C1425.3,571.6,1425.1,571.6,1424.8,571.6"/>
					<path fill="#2C1607" d="M1425.5,571.6l0.2-119.4c0.2,0,0.4,0,0.6,0.1l-0.2,119.4C1425.9,571.7,1425.7,571.7,1425.5,571.6"/>
					<path fill="#2D1607" d="M1426.1,571.7l0.2-119.4c0.2,0,0.4,0,0.6,0.1l-0.2,119.4C1426.5,571.7,1426.3,571.7,1426.1,571.7"/>
					<path fill="#2E1708" d="M1426.7,571.8l0.2-119.4c0.2,0,0.4,0,0.6,0l-0.2,119.4C1427.2,571.8,1426.9,571.8,1426.7,571.8"/>
					<path fill="#301808" d="M1427.4,571.8l0.2-119.4c0.2,0,0.4,0,0.6,0l-0.2,119.4C1427.8,571.8,1427.6,571.8,1427.4,571.8"/>
					<path fill="#311808" d="M1428,571.8l0.2-119.4c0.2,0,0.4,0,0.6,0l-0.2,119.4C1428.4,571.9,1428.2,571.8,1428,571.8"/>
					<path fill="#321908" d="M1428.7,571.9l0.2-119.4c0.2,0,0.4,0,0.6,0l-0.2,119.4C1429.1,571.9,1428.9,571.9,1428.7,571.9"/>
					<path fill="#331A09" d="M1429.3,571.9l0.2-119.4c0.2,0,0.4,0,0.7,0l-0.2,119.4C1429.7,571.9,1429.5,571.9,1429.3,571.9"/>
					<path fill="#351A09" d="M1429.9,571.9l0.2-119.4c0.2,0,0.4,0,0.7,0l-0.2,119.4C1430.4,571.9,1430.2,571.9,1429.9,571.9"/>
					<path fill="#361B09" d="M1430.6,571.9l0.2-119.4c0.2,0,0.5,0,0.7,0l-0.2,119.4C1431.1,571.9,1430.9,571.9,1430.6,571.9"/>
					<path fill="#371C09" d="M1431.3,571.9l0.2-119.4c0.3,0,0.6,0,0.9,0l-0.2,119.4C1431.9,571.8,1431.6,571.8,1431.3,571.9"/>
					<path fill="#391C09" d="M1432.2,571.8l0.2-119.4c0.9-0.1,1.7-0.1,2.5-0.2c0.6-0.1,1.2-0.2,1.7-0.3l-0.2,119.4
						c-0.5,0.1-1.1,0.2-1.7,0.3C1434,571.7,1433.1,571.8,1432.2,571.8"/>
					<path fill="#371C09" d="M1436.5,571.3l0.2-119.4c0.4-0.1,0.8-0.2,1.1-0.3l-0.2,119.4C1437.3,571.1,1436.9,571.2,1436.5,571.3"
						/>
					<path fill="#361B09" d="M1437.6,571l0.2-119.4c0.3-0.1,0.5-0.1,0.8-0.2l-0.2,119.4C1438.1,570.9,1437.9,571,1437.6,571"/>
					<path fill="#351A09" d="M1438.4,570.8l0.2-119.4c0.2-0.1,0.4-0.1,0.6-0.2l-0.2,119.4C1438.8,570.7,1438.6,570.7,1438.4,570.8"
						/>
					<path fill="#331A09" d="M1438.9,570.6l0.2-119.4c0.2-0.1,0.3-0.1,0.5-0.2l-0.2,119.4C1439.3,570.5,1439.1,570.5,1438.9,570.6"
						/>
					<path fill="#321908" d="M1439.4,570.4l0.2-119.4c0.1-0.1,0.3-0.1,0.4-0.2l-0.2,119.4C1439.7,570.3,1439.5,570.4,1439.4,570.4"
						/>
					<path fill="#311808" d="M1439.8,570.2l0.2-119.4c0.1-0.1,0.2-0.1,0.3-0.2l-0.2,119.4C1440,570.1,1439.9,570.2,1439.8,570.2"/>
					<path fill="#301808" d="M1440.1,570.1l0.2-119.4c0.1-0.1,0.2-0.1,0.3-0.2l-0.2,119.4C1440.3,570,1440.2,570,1440.1,570.1"/>
					<path fill="#2E1708" d="M1440.4,569.9l0.2-119.4c0.1-0.1,0.2-0.1,0.2-0.2l-0.2,119.4C1440.5,569.8,1440.4,569.8,1440.4,569.9"
						/>
					<path fill="#2D1607" d="M1440.6,569.7l0.2-119.4c0.1-0.1,0.1-0.1,0.2-0.2l-0.2,119.4C1440.7,569.6,1440.7,569.7,1440.6,569.7"
						/>
					<path fill="#2C1607" d="M1440.8,569.5l0.2-119.4c0.1-0.1,0.1-0.1,0.2-0.2l-0.2,119.4C1440.9,569.4,1440.8,569.5,1440.8,569.5"
						/>
					<path fill="#2A1507" d="M1440.9,569.4l0.2-119.4c0-0.1,0.1-0.1,0.1-0.2l-0.2,119.4C1441,569.2,1441,569.3,1440.9,569.4"/>
					<path fill="#291407" d="M1441,569.2l0.2-119.4c0-0.1,0.1-0.1,0.1-0.2l-0.2,119.4C1441.1,569,1441.1,569.1,1441,569.2"/>
					<path fill="#281407" d="M1441.1,569l0.2-119.4c0-0.1,0-0.1,0-0.2l-0.2,119.4C1441.1,568.8,1441.1,568.9,1441.1,569"/>
					<path fill="#261306" d="M1441.1,568.8l0.2-119.4c0,0,0,0,0,0L1441.1,568.8C1441.2,568.8,1441.1,568.8,1441.1,568.8"/>
				</g>
			</g>
			<g>
				<path fill="#2F1708" d="M1440.2,447.9c2.8,1.6,0.4,3.5-5.2,4.2c-5.6,0.8-12.5,0.1-15.2-1.5c-2.8-1.6-0.4-3.5,5.2-4.2
					C1430.6,445.7,1437.4,446.4,1440.2,447.9z"/>
			</g>
		</g>
	</g>
</g>
<g opacity="0.25">
	<g>
		<g enable-background="new    ">
			<g>
				<path fill="#8D7E6C" d="M1440,448.4c2.8,1.6,0.4,3.5-5.2,4.2c-5.6,0.8-12.5,0.1-15.2-1.5c-2.8-1.6-0.4-3.5,5.2-4.2
					C1430.4,446.1,1437.2,446.8,1440,448.4z"/>
			</g>
			<g enable-background="new    ">
				<defs>
					<path id="SVGID_8_" enable-background="new    " d="M1441.2,449.8c0-0.5-0.4-0.9-1.2-1.4l0.2-119.4c0.8,0.4,1.2,0.9,1.2,1.4
						C1441.3,366.2,1441.2,413.9,1441.2,449.8z"/>
				</defs>
				<clipPath id="SVGID_9_">
					<use xlink:href="#SVGID_8_"  overflow="visible"/>
				</clipPath>
				<g clip-path="url(#SVGID_9_)" enable-background="new    ">
					<path fill="#675D50" d="M1441.2,449.8l0.2-119.4c0-0.5-0.4-0.9-1.2-1.4l-0.2,119.4C1440.8,448.8,1441.2,449.3,1441.2,449.8"/>
				</g>
			</g>
			<g enable-background="new    ">
				<defs>
					<path id="SVGID_10_" enable-background="new    " d="M1418.6,330.3c0-1.2,2.3-2.3,6.4-2.8c5.6-0.8,12.5-0.1,15.2,1.5
						l-0.2,119.4c-2.8-1.6-9.6-2.2-15.2-1.5c-4,0.5-6.4,1.7-6.4,2.8C1418.5,413.9,1418.5,366.1,1418.6,330.3z"/>
				</defs>
				<clipPath id="SVGID_11_">
					<use xlink:href="#SVGID_10_"  overflow="visible"/>
				</clipPath>
				<g clip-path="url(#SVGID_11_)" enable-background="new    ">
					<path fill="#675D50" d="M1440,448.4l0.2-119.4c-0.5-0.3-1.1-0.5-1.8-0.7l-0.2,119.4C1438.9,447.8,1439.5,448.1,1440,448.4"/>
					<path fill="#6B6053" d="M1438.2,447.6l0.2-119.4c-0.3-0.1-0.6-0.2-0.8-0.2l-0.2,119.4C1437.7,447.5,1438,447.5,1438.2,447.6"/>
					<path fill="#6F6456" d="M1437.4,447.4l0.2-119.4c-0.2-0.1-0.5-0.1-0.7-0.2l-0.2,119.4C1436.9,447.3,1437.1,447.3,1437.4,447.4"
						/>
					<path fill="#736759" d="M1436.6,447.2l0.2-119.4c-0.2,0-0.4-0.1-0.7-0.1l-0.2,119.4C1436.2,447.1,1436.4,447.2,1436.6,447.2"/>
					<path fill="#776B5C" d="M1436,447.1l0.2-119.4c-0.2,0-0.4-0.1-0.6-0.1l-0.2,119.4C1435.5,447,1435.8,447.1,1436,447.1"/>
					<path fill="#7B6E5F" d="M1435.3,447l0.2-119.4c-0.2,0-0.4-0.1-0.6-0.1l-0.2,119.4C1434.9,446.9,1435.1,447,1435.3,447"/>
					<path fill="#7F7262" d="M1434.7,446.9l0.2-119.4c-0.2,0-0.4-0.1-0.6-0.1l-0.2,119.4C1434.3,446.8,1434.5,446.9,1434.7,446.9"/>
					<path fill="#837565" d="M1434.1,446.8l0.2-119.4c-0.2,0-0.4,0-0.6-0.1l-0.2,119.4C1433.6,446.8,1433.9,446.8,1434.1,446.8"/>
					<path fill="#877968" d="M1433.4,446.7l0.2-119.4c-0.2,0-0.4,0-0.6-0.1l-0.2,119.4C1433,446.7,1433.2,446.7,1433.4,446.7"/>
					<path fill="#8B7D6B" d="M1432.8,446.7l0.2-119.4c-0.2,0-0.4,0-0.6,0l-0.2,119.4C1432.4,446.7,1432.6,446.7,1432.8,446.7"/>
					<path fill="#8F806E" d="M1432.2,446.6l0.2-119.4c-0.2,0-0.4,0-0.6,0l-0.2,119.4C1431.7,446.6,1432,446.6,1432.2,446.6"/>
					<path fill="#938471" d="M1431.5,446.6l0.2-119.4c-0.2,0-0.4,0-0.6,0l-0.2,119.4C1431.1,446.6,1431.3,446.6,1431.5,446.6"/>
					<path fill="#978774" d="M1430.9,446.6l0.2-119.4c-0.2,0-0.4,0-0.6,0l-0.2,119.4C1430.5,446.6,1430.7,446.6,1430.9,446.6"/>
					<path fill="#9B8B77" d="M1430.2,446.6l0.2-119.4c-0.2,0-0.4,0-0.7,0l-0.2,119.4C1429.8,446.6,1430,446.6,1430.2,446.6"/>
					<path fill="#9F8E7A" d="M1429.6,446.6l0.2-119.4c-0.2,0-0.4,0-0.7,0l-0.2,119.4C1429.1,446.6,1429.4,446.6,1429.6,446.6"/>
					<path fill="#A3927D" d="M1428.9,446.6l0.2-119.4c-0.2,0-0.5,0-0.7,0l-0.2,119.4C1428.4,446.6,1428.7,446.6,1428.9,446.6"/>
					<path fill="#A79681" d="M1428.2,446.6l0.2-119.4c-0.3,0-0.6,0-0.9,0l-0.2,119.4C1427.6,446.6,1427.9,446.6,1428.2,446.6"/>
					<path fill="#AB9984" d="M1427.3,446.6l0.2-119.4c-0.9,0.1-1.7,0.1-2.5,0.2c-0.6,0.1-1.2,0.2-1.7,0.3l-0.2,119.4
						c0.5-0.1,1.1-0.2,1.7-0.3C1425.6,446.8,1426.4,446.7,1427.3,446.6"/>
					<path fill="#A79681" d="M1423,447.2l0.2-119.4c-0.4,0.1-0.8,0.2-1.1,0.3l-0.2,119.4C1422.3,447.3,1422.6,447.3,1423,447.2"/>
					<path fill="#A3927D" d="M1421.9,447.4l0.2-119.4c-0.3,0.1-0.5,0.1-0.8,0.2l-0.2,119.4C1421.4,447.6,1421.7,447.5,1421.9,447.4"
						/>
					<path fill="#9F8E7A" d="M1421.2,447.7l0.2-119.4c-0.2,0.1-0.4,0.1-0.6,0.2l-0.2,119.4C1420.8,447.8,1421,447.7,1421.2,447.7"/>
					<path fill="#9B8B77" d="M1420.6,447.8l0.2-119.4c-0.2,0.1-0.3,0.1-0.5,0.2l-0.2,119.4C1420.3,448,1420.4,447.9,1420.6,447.8"/>
					<path fill="#978774" d="M1420.1,448l0.2-119.4c-0.1,0.1-0.3,0.1-0.4,0.2l-0.2,119.4C1419.9,448.1,1420,448.1,1420.1,448"/>
					<path fill="#938471" d="M1419.8,448.2l0.2-119.4c-0.1,0.1-0.2,0.1-0.3,0.2l-0.2,119.4C1419.6,448.3,1419.7,448.3,1419.8,448.2"
						/>
					<path fill="#8F806E" d="M1419.5,448.4l0.2-119.4c-0.1,0.1-0.2,0.1-0.3,0.2l-0.2,119.4C1419.3,448.5,1419.4,448.4,1419.5,448.4"
						/>
					<path fill="#8B7D6B" d="M1419.2,448.6l0.2-119.4c-0.1,0.1-0.2,0.1-0.2,0.2l-0.2,119.4C1419,448.7,1419.1,448.6,1419.2,448.6"/>
					<path fill="#877968" d="M1419,448.7l0.2-119.4c-0.1,0.1-0.1,0.1-0.2,0.2l-0.2,119.4C1418.8,448.8,1418.9,448.8,1419,448.7"/>
					<path fill="#837565" d="M1418.8,448.9l0.2-119.4c-0.1,0.1-0.1,0.1-0.2,0.2l-0.2,119.4C1418.7,449,1418.7,449,1418.8,448.9"/>
					<path fill="#7F7262" d="M1418.6,449.1l0.2-119.4c0,0.1-0.1,0.1-0.1,0.2l-0.2,119.4C1418.5,449.2,1418.6,449.2,1418.6,449.1"/>
					<path fill="#7B6E5F" d="M1418.5,449.3l0.2-119.4c0,0.1-0.1,0.1-0.1,0.2l-0.2,119.4C1418.4,449.4,1418.5,449.3,1418.5,449.3"/>
					<path fill="#776B5C" d="M1418.4,449.5l0.2-119.4c0,0.1,0,0.1,0,0.2l-0.2,119.4C1418.4,449.6,1418.4,449.5,1418.4,449.5"/>
					<path fill="#736759" d="M1418.4,449.7l0.2-119.4c0,0,0,0,0,0L1418.4,449.7C1418.4,449.7,1418.4,449.7,1418.4,449.7"/>
				</g>
			</g>
			<g enable-background="new    ">
				<defs>
					<path id="SVGID_12_" enable-background="new    " d="M1418.4,449.7l0.2-119.4c0,0.5,0.4,0.9,1.2,1.4c2.8,1.6,9.6,2.2,15.2,1.5
						c4-0.5,6.4-1.7,6.4-2.8l-0.2,119.4c0,1.2-2.3,2.3-6.4,2.8c-5.6,0.8-12.5,0.1-15.2-1.5C1418.8,450.7,1418.4,450.2,1418.4,449.7z
						"/>
				</defs>
				<clipPath id="SVGID_13_">
					<use xlink:href="#SVGID_12_"  overflow="visible"/>
				</clipPath>
				<g clip-path="url(#SVGID_13_)" enable-background="new    ">
					<path fill="#675D50" d="M1418.4,449.7l0.2-119.4c0,0.5,0.4,0.9,1.2,1.4c0.5,0.3,1.1,0.5,1.8,0.7l-0.2,119.4
						c-0.7-0.2-1.3-0.5-1.8-0.7C1418.8,450.7,1418.4,450.2,1418.4,449.7"/>
					<path fill="#6B6053" d="M1421.3,451.8l0.2-119.4c0.3,0.1,0.6,0.2,0.8,0.2l-0.2,119.4C1421.9,452,1421.6,451.9,1421.3,451.8"/>
					<path fill="#6F6456" d="M1422.2,452.1l0.2-119.4c0.2,0.1,0.5,0.1,0.7,0.2l-0.2,119.4C1422.6,452.2,1422.4,452.1,1422.2,452.1"
						/>
					<path fill="#736759" d="M1422.9,452.2l0.2-119.4c0.2,0,0.4,0.1,0.7,0.1l-0.2,119.4C1423.3,452.3,1423.1,452.3,1422.9,452.2"/>
					<path fill="#776B5C" d="M1423.6,452.4l0.2-119.4c0.2,0,0.4,0.1,0.6,0.1l-0.2,119.4C1424,452.4,1423.8,452.4,1423.6,452.4"/>
					<path fill="#7B6E5F" d="M1424.2,452.5l0.2-119.4c0.2,0,0.4,0.1,0.6,0.1l-0.2,119.4C1424.6,452.5,1424.4,452.5,1424.2,452.5"/>
					<path fill="#7F7262" d="M1424.8,452.6l0.2-119.4c0.2,0,0.4,0.1,0.6,0.1l-0.2,119.4C1425.3,452.6,1425.1,452.6,1424.8,452.6"/>
					<path fill="#837565" d="M1425.5,452.7l0.2-119.4c0.2,0,0.4,0,0.6,0.1l-0.2,119.4C1425.9,452.7,1425.7,452.7,1425.5,452.7"/>
					<path fill="#877968" d="M1426.1,452.7l0.2-119.4c0.2,0,0.4,0,0.6,0.1l-0.2,119.4C1426.5,452.8,1426.3,452.7,1426.1,452.7"/>
					<path fill="#8B7D6B" d="M1426.7,452.8l0.2-119.4c0.2,0,0.4,0,0.6,0l-0.2,119.4C1427.2,452.8,1426.9,452.8,1426.7,452.8"/>
					<path fill="#8F806E" d="M1427.4,452.8l0.2-119.4c0.2,0,0.4,0,0.6,0l-0.2,119.4C1427.8,452.8,1427.6,452.8,1427.4,452.8"/>
					<path fill="#938471" d="M1428,452.9l0.2-119.4c0.2,0,0.4,0,0.6,0l-0.2,119.4C1428.4,452.9,1428.2,452.9,1428,452.9"/>
					<path fill="#978774" d="M1428.7,452.9l0.2-119.4c0.2,0,0.4,0,0.6,0l-0.2,119.4C1429.1,452.9,1428.9,452.9,1428.7,452.9"/>
					<path fill="#9B8B77" d="M1429.3,452.9l0.2-119.4c0.2,0,0.4,0,0.7,0l-0.2,119.4C1429.7,452.9,1429.5,452.9,1429.3,452.9"/>
					<path fill="#9F8E7A" d="M1429.9,452.9l0.2-119.4c0.2,0,0.4,0,0.7,0l-0.2,119.4C1430.4,452.9,1430.2,452.9,1429.9,452.9"/>
					<path fill="#A3927D" d="M1430.6,452.9l0.2-119.4c0.2,0,0.5,0,0.7,0l-0.2,119.4C1431.1,452.9,1430.9,452.9,1430.6,452.9"/>
					<path fill="#A79681" d="M1431.3,452.9l0.2-119.4c0.3,0,0.6,0,0.9,0l-0.2,119.4C1431.9,452.8,1431.6,452.9,1431.3,452.9"/>
					<path fill="#AB9984" d="M1432.2,452.8l0.2-119.4c0.9-0.1,1.7-0.1,2.5-0.2c0.6-0.1,1.2-0.2,1.7-0.3l-0.2,119.4
						c-0.5,0.1-1.1,0.2-1.7,0.3C1434,452.7,1433.1,452.8,1432.2,452.8"/>
					<path fill="#A79681" d="M1436.5,452.3l0.2-119.4c0.4-0.1,0.8-0.2,1.1-0.3l-0.2,119.4C1437.3,452.1,1436.9,452.2,1436.5,452.3"
						/>
					<path fill="#A3927D" d="M1437.6,452l0.2-119.4c0.3-0.1,0.5-0.1,0.8-0.2l-0.2,119.4C1438.1,451.9,1437.9,452,1437.6,452"/>
					<path fill="#9F8E7A" d="M1438.4,451.8l0.2-119.4c0.2-0.1,0.4-0.1,0.6-0.2l-0.2,119.4C1438.8,451.7,1438.6,451.8,1438.4,451.8"
						/>
					<path fill="#9B8B77" d="M1438.9,451.6l0.2-119.4c0.2-0.1,0.3-0.1,0.5-0.2l-0.2,119.4C1439.3,451.5,1439.1,451.6,1438.9,451.6"
						/>
					<path fill="#978774" d="M1439.4,451.4l0.2-119.4c0.1-0.1,0.3-0.1,0.4-0.2l-0.2,119.4C1439.7,451.3,1439.5,451.4,1439.4,451.4"
						/>
					<path fill="#938471" d="M1439.8,451.3l0.2-119.4c0.1-0.1,0.2-0.1,0.3-0.2l-0.2,119.4C1440,451.1,1439.9,451.2,1439.8,451.3"/>
					<path fill="#8F806E" d="M1440.1,451.1l0.2-119.4c0.1-0.1,0.2-0.1,0.3-0.2l-0.2,119.4C1440.3,451,1440.2,451,1440.1,451.1"/>
					<path fill="#8B7D6B" d="M1440.4,450.9l0.2-119.4c0.1-0.1,0.2-0.1,0.2-0.2l-0.2,119.4C1440.5,450.8,1440.4,450.8,1440.4,450.9"
						/>
					<path fill="#877968" d="M1440.6,450.7l0.2-119.4c0.1-0.1,0.1-0.1,0.2-0.2l-0.2,119.4C1440.7,450.6,1440.7,450.7,1440.6,450.7"
						/>
					<path fill="#837565" d="M1440.8,450.6l0.2-119.4c0.1-0.1,0.1-0.1,0.2-0.2l-0.2,119.4C1440.9,450.4,1440.8,450.5,1440.8,450.6"
						/>
					<path fill="#7F7262" d="M1440.9,450.4l0.2-119.4c0-0.1,0.1-0.1,0.1-0.2l-0.2,119.4C1441,450.2,1441,450.3,1440.9,450.4"/>
					<path fill="#7B6E5F" d="M1441,450.2l0.2-119.4c0-0.1,0.1-0.1,0.1-0.2l-0.2,119.4C1441.1,450.1,1441.1,450.1,1441,450.2"/>
					<path fill="#776B5C" d="M1441.1,450l0.2-119.4c0-0.1,0-0.1,0-0.2l-0.2,119.4C1441.1,449.9,1441.1,449.9,1441.1,450"/>
					<path fill="#736759" d="M1441.1,449.8l0.2-119.4c0,0,0,0,0,0L1441.1,449.8C1441.2,449.8,1441.1,449.8,1441.1,449.8"/>
				</g>
			</g>
			<g>
				<path fill="#8D7E6C" d="M1440.2,328.9c2.8,1.6,0.4,3.5-5.2,4.2c-5.6,0.8-12.5,0.1-15.2-1.5c-2.8-1.6-0.4-3.5,5.2-4.2
					C1430.6,326.7,1437.4,327.4,1440.2,328.9z"/>
			</g>
		</g>
	</g>
</g>
<g>
	<g>
		<g enable-background="new    ">
			<g>
				<path fill="#8D7E6C" d="M1440,381.4c2.8,1.6,0.4,3.5-5.2,4.2c-5.6,0.8-12.5,0.1-15.2-1.5c-2.8-1.6-0.4-3.5,5.2-4.2
					C1430.4,379.1,1437.2,379.8,1440,381.4z"/>
			</g>
			<g enable-background="new    ">
				<defs>
					<path id="SVGID_14_" enable-background="new    " d="M1441.2,382.7c0-0.5-0.4-0.9-1.2-1.4l0.2-119.4c0.8,0.4,1.2,0.9,1.2,1.4
						C1441.3,299.2,1441.2,346.9,1441.2,382.7z"/>
				</defs>
				<clipPath id="SVGID_15_">
					<use xlink:href="#SVGID_14_"  overflow="visible"/>
				</clipPath>
				<g clip-path="url(#SVGID_15_)" enable-background="new    ">
					<path fill="#675D50" d="M1441.2,382.7l0.2-119.4c0-0.5-0.4-0.9-1.2-1.4l-0.2,119.4C1440.8,381.8,1441.2,382.3,1441.2,382.7"/>
				</g>
			</g>
			<g enable-background="new    ">
				<defs>
					<path id="SVGID_16_" enable-background="new    " d="M1418.6,263.3c0-1.2,2.3-2.3,6.4-2.8c5.6-0.8,12.5-0.1,15.2,1.5
						l-0.2,119.4c-2.8-1.6-9.6-2.2-15.2-1.5c-4,0.5-6.4,1.7-6.4,2.8C1418.5,346.9,1418.5,299.1,1418.6,263.3z"/>
				</defs>
				<clipPath id="SVGID_17_">
					<use xlink:href="#SVGID_16_"  overflow="visible"/>
				</clipPath>
				<g clip-path="url(#SVGID_17_)" enable-background="new    ">
					<path fill="#675D50" d="M1440,381.4l0.2-119.4c-0.5-0.3-1.1-0.5-1.8-0.7l-0.2,119.4C1438.9,380.8,1439.5,381.1,1440,381.4"/>
					<path fill="#6B6053" d="M1438.2,380.6l0.2-119.4c-0.3-0.1-0.6-0.2-0.8-0.2l-0.2,119.4C1437.7,380.5,1438,380.5,1438.2,380.6"/>
					<path fill="#6F6456" d="M1437.4,380.4l0.2-119.4c-0.2-0.1-0.5-0.1-0.7-0.2l-0.2,119.4C1436.9,380.3,1437.1,380.3,1437.4,380.4"
						/>
					<path fill="#736759" d="M1436.6,380.2l0.2-119.4c-0.2,0-0.4-0.1-0.7-0.1l-0.2,119.4C1436.2,380.1,1436.4,380.2,1436.6,380.2"/>
					<path fill="#776B5C" d="M1436,380.1l0.2-119.4c-0.2,0-0.4-0.1-0.6-0.1l-0.2,119.4C1435.5,380,1435.8,380.1,1436,380.1"/>
					<path fill="#7B6E5F" d="M1435.3,380l0.2-119.4c-0.2,0-0.4-0.1-0.6-0.1l-0.2,119.4C1434.9,379.9,1435.1,379.9,1435.3,380"/>
					<path fill="#7F7262" d="M1434.7,379.9l0.2-119.4c-0.2,0-0.4-0.1-0.6-0.1l-0.2,119.4C1434.3,379.8,1434.5,379.9,1434.7,379.9"/>
					<path fill="#837565" d="M1434.1,379.8l0.2-119.4c-0.2,0-0.4,0-0.6-0.1l-0.2,119.4C1433.6,379.8,1433.9,379.8,1434.1,379.8"/>
					<path fill="#877968" d="M1433.4,379.7l0.2-119.4c-0.2,0-0.4,0-0.6-0.1l-0.2,119.4C1433,379.7,1433.2,379.7,1433.4,379.7"/>
					<path fill="#8B7D6B" d="M1432.8,379.7l0.2-119.4c-0.2,0-0.4,0-0.6,0l-0.2,119.4C1432.4,379.7,1432.6,379.7,1432.8,379.7"/>
					<path fill="#8F806E" d="M1432.2,379.6l0.2-119.4c-0.2,0-0.4,0-0.6,0l-0.2,119.4C1431.7,379.6,1432,379.6,1432.2,379.6"/>
					<path fill="#938471" d="M1431.5,379.6l0.2-119.4c-0.2,0-0.4,0-0.6,0l-0.2,119.4C1431.1,379.6,1431.3,379.6,1431.5,379.6"/>
					<path fill="#978774" d="M1430.9,379.6l0.2-119.4c-0.2,0-0.4,0-0.6,0l-0.2,119.4C1430.5,379.6,1430.7,379.6,1430.9,379.6"/>
					<path fill="#9B8B77" d="M1430.2,379.6l0.2-119.4c-0.2,0-0.4,0-0.7,0l-0.2,119.4C1429.8,379.6,1430,379.6,1430.2,379.6"/>
					<path fill="#9F8E7A" d="M1429.6,379.6l0.2-119.4c-0.2,0-0.4,0-0.7,0l-0.2,119.4C1429.1,379.6,1429.4,379.6,1429.6,379.6"/>
					<path fill="#A3927D" d="M1428.9,379.6l0.2-119.4c-0.2,0-0.5,0-0.7,0l-0.2,119.4C1428.4,379.6,1428.7,379.6,1428.9,379.6"/>
					<path fill="#A79681" d="M1428.2,379.6l0.2-119.4c-0.3,0-0.6,0-0.9,0l-0.2,119.4C1427.6,379.6,1427.9,379.6,1428.2,379.6"/>
					<path fill="#AB9984" d="M1427.3,379.6l0.2-119.4c-0.9,0.1-1.7,0.1-2.5,0.2c-0.6,0.1-1.2,0.2-1.7,0.3l-0.2,119.4
						c0.5-0.1,1.1-0.2,1.7-0.3C1425.6,379.8,1426.4,379.7,1427.3,379.6"/>
					<path fill="#A79681" d="M1423,380.2l0.2-119.4c-0.4,0.1-0.8,0.2-1.1,0.3l-0.2,119.4C1422.3,380.3,1422.6,380.2,1423,380.2"/>
					<path fill="#A3927D" d="M1421.9,380.4l0.2-119.4c-0.3,0.1-0.5,0.1-0.8,0.2l-0.2,119.4C1421.4,380.6,1421.7,380.5,1421.9,380.4"
						/>
					<path fill="#9F8E7A" d="M1421.2,380.6l0.2-119.4c-0.2,0.1-0.4,0.1-0.6,0.2l-0.2,119.4C1420.8,380.8,1421,380.7,1421.2,380.6"/>
					<path fill="#9B8B77" d="M1420.6,380.8l0.2-119.4c-0.2,0.1-0.3,0.1-0.5,0.2l-0.2,119.4C1420.3,381,1420.4,380.9,1420.6,380.8"/>
					<path fill="#978774" d="M1420.1,381l0.2-119.4c-0.1,0.1-0.3,0.1-0.4,0.2l-0.2,119.4C1419.9,381.1,1420,381.1,1420.1,381"/>
					<path fill="#938471" d="M1419.8,381.2l0.2-119.4c-0.1,0.1-0.2,0.1-0.3,0.2l-0.2,119.4C1419.6,381.3,1419.7,381.3,1419.8,381.2"
						/>
					<path fill="#8F806E" d="M1419.5,381.4l0.2-119.4c-0.1,0.1-0.2,0.1-0.3,0.2l-0.2,119.4C1419.3,381.5,1419.4,381.4,1419.5,381.4"
						/>
					<path fill="#8B7D6B" d="M1419.2,381.6l0.2-119.4c-0.1,0.1-0.2,0.1-0.2,0.2l-0.2,119.4C1419,381.7,1419.1,381.6,1419.2,381.6"/>
					<path fill="#877968" d="M1419,381.7l0.2-119.4c-0.1,0.1-0.1,0.1-0.2,0.2l-0.2,119.4C1418.8,381.8,1418.9,381.8,1419,381.7"/>
					<path fill="#837565" d="M1418.8,381.9l0.2-119.4c-0.1,0.1-0.1,0.1-0.2,0.2l-0.2,119.4C1418.7,382,1418.7,382,1418.8,381.9"/>
					<path fill="#7F7262" d="M1418.6,382.1l0.2-119.4c0,0.1-0.1,0.1-0.1,0.2l-0.2,119.4C1418.5,382.2,1418.6,382.1,1418.6,382.1"/>
					<path fill="#7B6E5F" d="M1418.5,382.3l0.2-119.4c0,0.1-0.1,0.1-0.1,0.2l-0.2,119.4C1418.4,382.4,1418.5,382.3,1418.5,382.3"/>
					<path fill="#776B5C" d="M1418.4,382.5l0.2-119.4c0,0.1,0,0.1,0,0.2l-0.2,119.4C1418.4,382.6,1418.4,382.5,1418.4,382.5"/>
					<path fill="#736759" d="M1418.4,382.7l0.2-119.4c0,0,0,0,0,0L1418.4,382.7C1418.4,382.7,1418.4,382.7,1418.4,382.7"/>
				</g>
			</g>
			<g enable-background="new    ">
				<defs>
					<path id="SVGID_18_" enable-background="new    " d="M1418.4,382.7l0.2-119.4c0,0.5,0.4,0.9,1.2,1.4c2.8,1.6,9.6,2.2,15.2,1.5
						c4-0.5,6.4-1.7,6.4-2.8l-0.2,119.4c0,1.2-2.3,2.3-6.4,2.8c-5.6,0.8-12.5,0.1-15.2-1.5C1418.8,383.7,1418.4,383.2,1418.4,382.7z
						"/>
				</defs>
				<clipPath id="SVGID_19_">
					<use xlink:href="#SVGID_18_"  overflow="visible"/>
				</clipPath>
				<g clip-path="url(#SVGID_19_)" enable-background="new    ">
					<path fill="#675D50" d="M1418.4,382.7l0.2-119.4c0,0.5,0.4,0.9,1.2,1.4c0.5,0.3,1.1,0.5,1.8,0.7l-0.2,119.4
						c-0.7-0.2-1.3-0.5-1.8-0.7C1418.8,383.7,1418.4,383.2,1418.4,382.7"/>
					<path fill="#6B6053" d="M1421.3,384.8l0.2-119.4c0.3,0.1,0.6,0.2,0.8,0.2l-0.2,119.4C1421.9,385,1421.6,384.9,1421.3,384.8"/>
					<path fill="#6F6456" d="M1422.2,385.1l0.2-119.4c0.2,0.1,0.5,0.1,0.7,0.2l-0.2,119.4C1422.6,385.2,1422.4,385.1,1422.2,385.1"
						/>
					<path fill="#736759" d="M1422.9,385.2l0.2-119.4c0.2,0,0.4,0.1,0.7,0.1l-0.2,119.4C1423.3,385.3,1423.1,385.3,1422.9,385.2"/>
					<path fill="#776B5C" d="M1423.6,385.4l0.2-119.4c0.2,0,0.4,0.1,0.6,0.1l-0.2,119.4C1424,385.4,1423.8,385.4,1423.6,385.4"/>
					<path fill="#7B6E5F" d="M1424.2,385.5l0.2-119.4c0.2,0,0.4,0.1,0.6,0.1l-0.2,119.4C1424.6,385.5,1424.4,385.5,1424.2,385.5"/>
					<path fill="#7F7262" d="M1424.8,385.6l0.2-119.4c0.2,0,0.4,0.1,0.6,0.1l-0.2,119.4C1425.3,385.6,1425.1,385.6,1424.8,385.6"/>
					<path fill="#837565" d="M1425.5,385.6l0.2-119.4c0.2,0,0.4,0,0.6,0.1l-0.2,119.4C1425.9,385.7,1425.7,385.7,1425.5,385.6"/>
					<path fill="#877968" d="M1426.1,385.7l0.2-119.4c0.2,0,0.4,0,0.6,0.1l-0.2,119.4C1426.5,385.8,1426.3,385.7,1426.1,385.7"/>
					<path fill="#8B7D6B" d="M1426.7,385.8l0.2-119.4c0.2,0,0.4,0,0.6,0l-0.2,119.4C1427.2,385.8,1426.9,385.8,1426.7,385.8"/>
					<path fill="#8F806E" d="M1427.4,385.8l0.2-119.4c0.2,0,0.4,0,0.6,0l-0.2,119.4C1427.8,385.8,1427.6,385.8,1427.4,385.8"/>
					<path fill="#938471" d="M1428,385.8l0.2-119.4c0.2,0,0.4,0,0.6,0l-0.2,119.4C1428.4,385.9,1428.2,385.9,1428,385.8"/>
					<path fill="#978774" d="M1428.7,385.9l0.2-119.4c0.2,0,0.4,0,0.6,0l-0.2,119.4C1429.1,385.9,1428.9,385.9,1428.7,385.9"/>
					<path fill="#9B8B77" d="M1429.3,385.9l0.2-119.4c0.2,0,0.4,0,0.7,0l-0.2,119.4C1429.7,385.9,1429.5,385.9,1429.3,385.9"/>
					<path fill="#9F8E7A" d="M1429.9,385.9l0.2-119.4c0.2,0,0.4,0,0.7,0l-0.2,119.4C1430.4,385.9,1430.2,385.9,1429.9,385.9"/>
					<path fill="#A3927D" d="M1430.6,385.9l0.2-119.4c0.2,0,0.5,0,0.7,0l-0.2,119.4C1431.1,385.9,1430.9,385.9,1430.6,385.9"/>
					<path fill="#A79681" d="M1431.3,385.9l0.2-119.4c0.3,0,0.6,0,0.9,0l-0.2,119.4C1431.9,385.8,1431.6,385.8,1431.3,385.9"/>
					<path fill="#AB9984" d="M1432.2,385.8l0.2-119.4c0.9-0.1,1.7-0.1,2.5-0.2c0.6-0.1,1.2-0.2,1.7-0.3l-0.2,119.4
						c-0.5,0.1-1.1,0.2-1.7,0.3C1434,385.7,1433.1,385.8,1432.2,385.8"/>
					<path fill="#A79681" d="M1436.5,385.3l0.2-119.4c0.4-0.1,0.8-0.2,1.1-0.3l-0.2,119.4C1437.3,385.1,1436.9,385.2,1436.5,385.3"
						/>
					<path fill="#A3927D" d="M1437.6,385l0.2-119.4c0.3-0.1,0.5-0.1,0.8-0.2l-0.2,119.4C1438.1,384.9,1437.9,385,1437.6,385"/>
					<path fill="#9F8E7A" d="M1438.4,384.8l0.2-119.4c0.2-0.1,0.4-0.1,0.6-0.2l-0.2,119.4C1438.8,384.7,1438.6,384.7,1438.4,384.8"
						/>
					<path fill="#9B8B77" d="M1438.9,384.6l0.2-119.4c0.2-0.1,0.3-0.1,0.5-0.2l-0.2,119.4C1439.3,384.5,1439.1,384.6,1438.9,384.6"
						/>
					<path fill="#978774" d="M1439.4,384.4l0.2-119.4c0.1-0.1,0.3-0.1,0.4-0.2l-0.2,119.4C1439.7,384.3,1439.5,384.4,1439.4,384.4"
						/>
					<path fill="#938471" d="M1439.8,384.3l0.2-119.4c0.1-0.1,0.2-0.1,0.3-0.2l-0.2,119.4C1440,384.1,1439.9,384.2,1439.8,384.3"/>
					<path fill="#8F806E" d="M1440.1,384.1l0.2-119.4c0.1-0.1,0.2-0.1,0.3-0.2l-0.2,119.4C1440.3,384,1440.2,384,1440.1,384.1"/>
					<path fill="#8B7D6B" d="M1440.4,383.9l0.2-119.4c0.1-0.1,0.2-0.1,0.2-0.2l-0.2,119.4C1440.5,383.8,1440.4,383.8,1440.4,383.9"
						/>
					<path fill="#877968" d="M1440.6,383.7l0.2-119.4c0.1-0.1,0.1-0.1,0.2-0.2l-0.2,119.4C1440.7,383.6,1440.7,383.7,1440.6,383.7"
						/>
					<path fill="#837565" d="M1440.8,383.6l0.2-119.4c0.1-0.1,0.1-0.1,0.2-0.2l-0.2,119.4C1440.9,383.4,1440.8,383.5,1440.8,383.6"
						/>
					<path fill="#7F7262" d="M1440.9,383.4l0.2-119.4c0-0.1,0.1-0.1,0.1-0.2l-0.2,119.4C1441,383.2,1441,383.3,1440.9,383.4"/>
					<path fill="#7B6E5F" d="M1441,383.2l0.2-119.4c0-0.1,0.1-0.1,0.1-0.2l-0.2,119.4C1441.1,383.1,1441.1,383.1,1441,383.2"/>
					<path fill="#776B5C" d="M1441.1,383l0.2-119.4c0-0.1,0-0.1,0-0.2l-0.2,119.4C1441.1,382.8,1441.1,382.9,1441.1,383"/>
					<path fill="#736759" d="M1441.1,382.8l0.2-119.4c0,0,0,0,0,0L1441.1,382.8C1441.2,382.8,1441.1,382.8,1441.1,382.8"/>
				</g>
			</g>
			<g>
				<path fill="#8D7E6C" d="M1440.2,261.9c2.8,1.6,0.4,3.5-5.2,4.2c-5.6,0.8-12.5,0.1-15.2-1.5c-2.8-1.6-0.4-3.5,5.2-4.2
					C1430.6,259.7,1437.4,260.4,1440.2,261.9z"/>
			</g>
		</g>
	</g>
</g>
<path d="M1433.5,458.9c0,0-4.6,11.2,12.6,16.9C1446.1,475.8,1441.2,452.1,1433.5,458.9z"/>
<path fill="#006837" d="M1434.5,457.9c0,0-4.6,11.2,12.6,16.9C1447.1,474.8,1442.2,451.1,1434.5,457.9z"/>
<line fill="#FFFFFF" x1="1161" y1="417" x2="1389" y2="337"/>
<rect x="1127" y="215.7" fill="#FFFFFF" width="597.3" height="80.7"/>
<rect x="1127" y="523.7" fill="#FFFFFF" width="597.3" height="80.7"/>
<path opacity="0.38" fill="#FFFFFF" d="M1556.4,340.7c-8,0-14.5-6.5-14.5-14.5c0-6.4,4.2-11.8,9.9-13.8c-7.3,1.2-12.9,7.5-12.9,15.1
	c0,8.4,6.8,15.3,15.3,15.3c5.1,0,9.6-2.5,12.3-6.3C1564,339.1,1560.4,340.7,1556.4,340.7z"/>
<g>
	<polygon fill="#FFFFFF" points="1263.6,421.8 1273.6,444.1 1296.4,436.5 1349,417.8 1349,416 1255.5,408.1 1262.7,413.5 
		1250.8,419.1 	"/>
	<linearGradient id="SVGID_20_" gradientUnits="userSpaceOnUse" x1="1290.0568" y1="436.0567" x2="1342.844" y2="383.2694">
		<stop  offset="0" style="stop-color:#FFFFFF"/>
		<stop  offset="1" style="stop-color:#000000"/>
	</linearGradient>
	<polygon fill="url(#SVGID_20_)" points="1263.6,421.8 1275.1,424.4 1349,417.8 1273.6,444.1 	"/>
	<linearGradient id="SVGID_21_" gradientUnits="userSpaceOnUse" x1="1270.896" y1="417.8428" x2="1284.0005" y2="404.7383">
		<stop  offset="0" style="stop-color:#FFFFFF"/>
		<stop  offset="1" style="stop-color:#000000"/>
	</linearGradient>
	<path fill="url(#SVGID_21_)" d="M1262.7,413.5c0.7-0.2,24.5,1.4,24.5,1.4l-25.9-0.7"/>
</g>
<g>
	<polygon fill="#FFFFFF" points="1218.6,352.3 1223.8,364.1 1236,360.1 1264,350.2 1264,349.3 1214.5,345.1 1218.2,348 
		1211.9,350.9 	"/>
	<linearGradient id="SVGID_22_" gradientUnits="userSpaceOnUse" x1="1232.5151" y1="359.8377" x2="1260.3655" y2="331.9874">
		<stop  offset="0" style="stop-color:#FFFFFF"/>
		<stop  offset="1" style="stop-color:#000000"/>
	</linearGradient>
	<polygon fill="url(#SVGID_22_)" points="1218.6,352.3 1224.6,353.7 1263.6,350.2 1223.8,364.1 	"/>
	<linearGradient id="SVGID_23_" gradientUnits="userSpaceOnUse" x1="1222.4061" y1="350.2281" x2="1229.3199" y2="343.3143">
		<stop  offset="0" style="stop-color:#FFFFFF"/>
		<stop  offset="1" style="stop-color:#000000"/>
	</linearGradient>
	<path fill="url(#SVGID_23_)" d="M1218.1,348c0.4-0.1,12.9,0.7,12.9,0.7l-13.7-0.4"/>
</g>
<text transform="matrix(1 0 0 1 1299.5465 582.9997)" font-family="'Auriol'" font-size="39.6904">Peper Plane</text>
<text transform="matrix(1 0 0 1 1521.0004 582.9998)" font-family="'KozGoPr6N-Regular-83pv-RKSJ-H'" font-size="12">2016</text>
<rect x="943.4" y="155.2" fill="#0071BC" width="124.8" height="90.9"/>
<pattern  id="SVGID_24_" xlink:href="#Alyssa" patternTransform="matrix(1 0 0 1 -1 72)">
</pattern>
<path fill="url(#SVGID_24_)" d="M1572.9,496.3c0,10.1,6.3,15.3,14.2,15.3s14.2-5.2,14.2-15.3s-6.3-21.3-14.2-21.3
	S1572.9,486.2,1572.9,496.3z"/>
<linearGradient id="SVGID_25_" gradientUnits="userSpaceOnUse" x1="400" y1="-13" x2="400" y2="517.0009">
	<stop  offset="0" style="stop-color:#2638B7"/>
	<stop  offset="1" style="stop-color:#E7C57D"/>
</linearGradient>
<rect fill="url(#SVGID_25_)" width="800" height="494"/>
<g>
	<polygon fill="#FFFFFF" points="153.9,229.8 160.9,245.6 177.4,240.3 215,227 215,225.7 148.4,220.1 153.3,223.9 144.9,227.9 	"/>
	<polygon fill="#D9E7ED" points="153.9,229.8 162,231.6 214.5,227 160.9,245.6 	"/>
	<path fill="#D9E7ED" d="M153.2,223.9c0.5-0.1,17.4,1,17.4,1l-18.4-0.5"/>
</g>
<line fill="none" stroke="#FFFFFF" stroke-width="0.5" stroke-miterlimit="10" x1="1" y1="151" x2="229" y2="71"/>
<rect x="605" opacity="0.2" fill="#FFFFFF" width="112" height="256"/>
<rect x="400" y="337" opacity="0.2" fill="#FFFFFF" width="112" height="155"/>
<text transform="matrix(-0.7071 0.7071 -0.7071 -0.7071 135.6163 241.2992)" fill="#FFFFFF" font-family="'KozGoPr6N-Regular-83pv-RKSJ-H'" font-size="12">┐</text>
<text transform="matrix(-0.7071 0.7071 -0.7071 -0.7071 109.5616 235.393)" fill="#FFFFFF" font-family="'KozGoPr6N-Regular-83pv-RKSJ-H'" font-size="12">┐</text>
<text transform="matrix(-0.7071 0.7071 -0.7071 -0.7071 90.8018 252.8998)" fill="#FFFFFF" font-family="'KozGoPr6N-Regular-83pv-RKSJ-H'" font-size="12">┐</text>
<text transform="matrix(-0.7071 0.7071 -0.7071 -0.7071 62.3135 249.0785)" fill="#FFFFFF" font-family="'KozGoPr6N-Regular-83pv-RKSJ-H'" font-size="12">┐</text>
<text transform="matrix(-0.7071 0.7071 -0.7071 -0.7071 42.5108 259.848)" fill="#FFFFFF" font-family="'KozGoPr6N-Regular-83pv-RKSJ-H'" font-size="12">┐</text>
<text transform="matrix(-0.7071 0.7071 -0.7071 -0.7071 22.7081 249.0785)" fill="#FFFFFF" font-family="'KozGoPr6N-Regular-83pv-RKSJ-H'" font-size="12">┐</text>
</svg>
