<?xml version="1.0" encoding="UTF-8"?>
<svg id="_レイヤー_1" data-name="レイヤー_1" xmlns="http://www.w3.org/2000/svg" version="1.1" viewBox="0 0 800 500">
  <!-- Generator: Adobe Illustrator 30.1.0, SVG Export Plug-In . SVG Version: 2.1.1 Build 136)  -->
  <defs>
    <style>
      .st0, .st1, .st2 {
        fill: none;
      }

      .st3 {
        fill: #8aaa97;
      }

      .st4, .st5, .st6, .st7, .st8 {
        fill-rule: evenodd;
      }

      .st4, .st9, .st7 {
        fill: #fff;
      }

      .st10, .st1 {
        stroke: #000;
        stroke-width: 2px;
      }

      .st10, .st1, .st8 {
        stroke-miterlimit: 10;
      }

      .st11 {
        fill: #fffe73;
      }

      .st12 {
        fill: #e1f2f5;
      }

      .st13 {
        fill: #b8e2c9;
      }

      .st14 {
        fill: #f9d09e;
      }

      .st15 {
        fill: #fce6d7;
      }

      .st5, .st6 {
        fill: #001026;
      }

      .st5, .st7, .st8, .st2 {
        stroke: #001026;
        stroke-width: 1.2px;
      }

      .st5, .st7, .st2 {
        stroke-linecap: round;
        stroke-linejoin: round;
      }

      .st16 {
        fill: #408638;
      }

      .st17, .st8 {
        fill: #ffab19;
      }

      .st18 {
        fill: #502554;
      }

      .st19 {
        fill: #6f4075;
      }

      .st20 {
        fill: #ffe517;
      }
    </style>
  </defs>
  <path class="st16" d="M0,500V0h800v500H0Z"/>
  <path class="st0" d="M55.8,500V0h666.67v500H55.8Z"/>
  <g>
    <g>
      <path class="st20" d="M665.15,340.22l1.79,5.26h0c.86,3.82-5.79,9.3-15,12.43-9.21,3.13-17.82,2.82-19.46-.73h0l-1.79-5.26,5.13-1.74c2.71-2.39,6.69-4.47,11.43-6.08,4.73-1.61,9.3-2.42,12.77-2.14l5.13-1.74Z"/>
      <path d="M652.12,358.43c-9.21,3.13-17.64,2.91-19.99-.55l-.13.04-.22-.66-1.96-5.79,5.79-1.96c2.84-2.43,6.96-4.56,11.56-6.13,4.6-1.56,9.03-2.33,12.77-2.14l5.79-1.96,2.23,6.58-.13.04c.07,4.08-6.36,9.35-15.7,12.52h0ZM633.05,356.69h0c1.42,2.89,8.89,3.73,18.76.38,9.86-3.35,15.1-8.65,14.56-11.54l-.04-.13-1.47-4.34-4.6,1.56-.13.04c-3.56-.11-8.03.53-12.51,2.05s-8.59,3.65-11.34,5.9l-.09.18-4.6,1.56,1.47,4.34Z"/>
    </g>
    <g>
      <path class="st11" d="M664.27,339.35c1.3,3.81-5.17,9.38-14.38,12.51-9.21,3.13-17.6,2.6-18.89-1.21"/>
      <path d="M650.02,352.25c-9.47,3.22-18.04,2.6-19.42-1.47l.66-.22c1.21,3.55,9.73,4.03,18.54,1.04,8.81-2.99,15.28-8.56,14.07-12.11l.66-.22c1.38,4.08-4.91,9.73-14.51,12.99h0Z"/>
    </g>
    <g>
      <path class="st11" d="M630.78,352.18c-1.3-3.81,5.44-9.47,14.91-12.69,9.47-3.22,18.26-2.83,19.55.99"/>
      <path d="M666.03,340.21l-1.32.45c-1.03-3.02-8.81-3.9-18.8-.51-10,3.39-15.5,8.78-14.47,11.81l-1.32.45c-1.43-4.21,5.35-10.18,15.34-13.57,10-3.39,19.13-2.83,20.56,1.38h0Z"/>
    </g>
  </g>
  <g>
    <g>
      <path class="st20" d="M638.01,440.41l-2.88,4.75h0c-2.37,3.11-10.85,1.54-19.16-3.5-8.31-5.04-13.62-11.83-11.96-15.37h0l2.88-4.75,4.63,2.81c3.57.54,7.73,2.25,12.01,4.84,4.28,2.59,7.83,5.56,9.85,8.41l4.63,2.81Z"/>
      <path d="M615.68,442.13c-8.31-5.04-13.57-11.64-12.43-15.66l-.12-.07.36-.59,3.17-5.23,5.23,3.17c3.69.61,7.97,2.4,12.12,4.92,4.16,2.52,7.6,5.42,9.85,8.41l5.23,3.17-3.6,5.94-.12-.07c-3.09,2.68-11.25,1.14-19.68-3.98h0ZM604.75,426.41h0c-1.3,2.95,2.86,9.21,11.77,14.61,8.91,5.4,16.34,6.01,18.2,3.73l.07-.12,2.38-3.92-4.16-2.52-.12-.07c-2.2-2.8-5.57-5.81-9.61-8.26-4.04-2.45-8.32-4.23-11.82-4.89l-.19.05-4.16-2.52-2.38,3.92Z"/>
    </g>
    <g>
      <path class="st11" d="M638.11,439.17c-2.09,3.44-10.51,2.07-18.83-2.97s-13.31-11.81-11.22-15.25"/>
      <path d="M619.06,436.55c-8.55-5.19-13.59-12.14-11.36-15.82l.59.36c-1.94,3.21,3.17,10.04,11.12,14.87,7.96,4.83,16.38,6.2,18.33,2.99l.59.36c-2.23,3.68-10.61,2.5-19.28-2.76h0Z"/>
    </g>
    <g>
      <path class="st11" d="M606.75,421.77c2.09-3.44,10.75-1.93,19.3,3.26,8.55,5.19,13.9,12.17,11.81,15.61"/>
      <path d="M638.57,441.08l-1.19-.72c1.66-2.73-2.67-9.25-11.7-14.73s-16.69-6.22-18.35-3.49l-1.19-.72c2.3-3.8,11.23-2.45,20.26,3.03s14.47,12.84,12.16,16.64Z"/>
    </g>
  </g>
  <g>
    <g>
      <path class="st20" d="M686.62,454.05l1.36,5.39h0c.54,3.87-6.52,8.8-15.95,11.17-9.43,2.37-17.99,1.38-19.34-2.29h0l-1.36-5.39,5.25-1.32c2.89-2.16,7.03-3.92,11.88-5.14s9.46-1.67,12.9-1.1l5.25-1.32Z"/>
      <path d="M672.17,471.15c-9.43,2.37-17.82,1.48-19.88-2.16l-.13.03-.17-.67-1.49-5.93,5.93-1.49c3.03-2.19,7.3-3.99,12.02-5.17,4.71-1.19,9.19-1.6,12.9-1.1l5.93-1.49,1.69,6.73-.13.03c-.26,4.08-7.09,8.8-16.66,11.21h0ZM653.3,467.88h0c1.18,3,8.56,4.43,18.66,1.89,10.1-2.54,15.75-7.4,15.45-10.33l-.03-.13-1.12-4.44-4.71,1.19-.13.03c-3.54-.4-8.05-.12-12.63,1.03-4.58,1.15-8.85,2.94-11.78,4.97l-.1.17-4.71,1.19,1.12,4.44Z"/>
    </g>
    <g>
      <path class="st11" d="M685.81,453.11c.98,3.91-5.91,8.94-15.34,11.31-9.43,2.37-17.75,1.17-18.73-2.73"/>
      <path d="M670.57,464.82c-9.7,2.44-18.19,1.14-19.24-3.04l.67-.17c.92,3.64,9.37,4.8,18.4,2.53,9.02-2.27,15.92-7.3,15.01-10.94l.67-.17c1.05,4.18-5.68,9.31-15.51,11.78h0Z"/>
    </g>
    <g>
      <path class="st11" d="M651.4,463.2c-.98-3.91,6.18-9,15.88-11.44,9.7-2.44,18.42-1.34,19.41,2.56"/>
      <path d="M687.5,454.12l-1.35.34c-.78-3.1-8.46-4.6-18.7-2.03-10.24,2.58-16.16,7.5-15.38,10.6l-1.35.34c-1.08-4.31,6.15-9.71,16.39-12.29,10.24-2.58,19.3-1.28,20.38,3.03Z"/>
    </g>
  </g>
  <g>
    <g>
      <path class="st20" d="M188.76,74.94l1.79,5.26h0c.86,3.82-5.79,9.3-15,12.43-9.21,3.13-17.82,2.82-19.46-.73h0l-1.79-5.26,5.13-1.74c2.71-2.39,6.69-4.47,11.43-6.08,4.73-1.61,9.3-2.42,12.77-2.14l5.13-1.74Z"/>
      <path d="M175.73,93.15c-9.21,3.13-17.64,2.91-19.99-.55l-.13.04-.22-.66-1.96-5.79,5.79-1.96c2.84-2.43,6.96-4.56,11.56-6.13,4.6-1.56,9.03-2.33,12.77-2.14l5.79-1.96,2.23,6.58-.13.04c.07,4.08-6.36,9.35-15.7,12.52h0ZM156.66,91.42h0c1.42,2.89,8.89,3.73,18.76.38,9.86-3.35,15.1-8.65,14.56-11.54l-.04-.13-1.47-4.34-4.6,1.56-.13.04c-3.56-.11-8.03.53-12.51,2.05s-8.59,3.65-11.34,5.9l-.09.18-4.6,1.56,1.47,4.34Z"/>
    </g>
    <g>
      <path class="st11" d="M187.88,74.07c1.3,3.81-5.17,9.38-14.38,12.51-9.21,3.13-17.6,2.6-18.89-1.21"/>
      <path d="M173.63,86.97c-9.47,3.22-18.04,2.6-19.42-1.47l.66-.22c1.21,3.55,9.73,4.03,18.54,1.04,8.81-2.99,15.28-8.56,14.07-12.11l.66-.22c1.38,4.08-4.91,9.73-14.51,12.99h0Z"/>
    </g>
    <g>
      <path class="st11" d="M154.39,86.9c-1.3-3.81,5.44-9.47,14.91-12.69,9.47-3.22,18.26-2.83,19.55.99"/>
      <path d="M189.64,74.94l-1.32.45c-1.03-3.02-8.81-3.9-18.8-.51-10,3.39-15.5,8.78-14.47,11.81l-1.32.45c-1.43-4.21,5.35-10.18,15.34-13.57,10-3.39,19.13-2.83,20.56,1.38Z"/>
    </g>
  </g>
  <g>
    <g>
      <path class="st20" d="M201.29,192.11l3.97,3.89h0c2.49,3.02-.97,10.91-7.78,17.85-6.81,6.94-14.63,10.56-17.7,8.13h0l-3.97-3.89,3.79-3.87c1.34-3.35,3.96-7.01,7.46-10.58,3.5-3.57,7.2-6.36,10.43-7.67l3.79-3.87Z"/>
      <path d="M197.87,214.24c-6.81,6.94-14.43,10.55-18.08,8.53l-.1.1-.5-.49-4.36-4.28,4.28-4.36c1.44-3.45,4.15-7.21,7.55-10.68,3.4-3.47,7.01-6.16,10.43-7.67l4.28-4.36,4.96,4.86-.1.1c1.9,3.61-1.46,11.21-8.36,18.25h0ZM180.07,221.29h0c2.57,1.94,9.62-.68,16.91-8.12,7.29-7.44,9.58-14.53,7.79-16.87l-.1-.1-3.27-3.21-3.4,3.47-.1.1c-3.23,1.51-6.93,4.1-10.24,7.47-3.31,3.37-6.02,7.13-7.46,10.39v.2s-3.4,3.47-3.4,3.47l3.27,3.21Z"/>
    </g>
    <g>
      <path class="st11" d="M200.11,191.72c2.88,2.82-.38,10.71-7.19,17.65-6.81,6.94-14.53,10.26-17.41,7.44"/>
      <path d="M193.21,209.67c-7,7.14-14.92,10.46-18,7.45l.49-.5c2.68,2.63,10.5-.79,17.02-7.44s9.78-14.53,7.1-17.16l.49-.5c3.07,3.01.01,10.9-7.09,18.14Z"/>
    </g>
    <g>
      <path class="st11" d="M176.01,218.29c-2.88-2.82.58-10.91,7.58-18.05s15.02-10.76,17.89-7.94"/>
      <path d="M202.07,191.7l-.97.99c-2.28-2.24-9.62.49-17.01,8.03-7.39,7.54-9.87,14.83-7.59,17.07l-.97.99c-3.17-3.11.18-11.49,7.57-19.03,7.39-7.54,15.8-11.16,18.97-8.05h0Z"/>
    </g>
  </g>
  <g>
    <g>
      <path class="st20" d="M129.7,69.43l-3.61,4.22h0c-2.84,2.69-10.95-.22-18.34-6.54s-11.53-13.87-9.32-17.1h0l3.61-4.22,4.12,3.52c3.44,1.11,7.27,3.47,11.07,6.72,3.8,3.25,6.83,6.75,8.36,9.88l4.12,3.52Z"/>
      <path d="M107.39,67.53c-7.39-6.32-11.52-13.68-9.74-17.46l-.11-.09.45-.53,3.97-4.65,4.65,3.97c3.54,1.2,7.48,3.65,11.17,6.81,3.7,3.16,6.62,6.57,8.36,9.88l4.65,3.97-4.51,5.28-.11-.09c-3.48,2.14-11.28-.69-18.78-7.1ZM99.14,50.25h0c-1.76,2.7,1.34,9.55,9.26,16.32s15.15,8.56,17.36,6.62l.09-.11,2.98-3.48-3.7-3.16-.11-.09c-1.72-3.12-4.56-6.64-8.15-9.7s-7.53-5.52-10.87-6.73l-.2.02-3.7-3.16-2.98,3.48Z"/>
    </g>
    <g>
      <path class="st11" d="M130,68.22c-2.62,3.06-10.71.35-18.1-5.97-7.39-6.32-11.23-13.8-8.61-16.86"/>
      <path d="M111.63,62.57c-7.6-6.5-11.46-14.17-8.66-17.45l.53.45c-2.44,2.85,1.51,10.42,8.58,16.47,7.07,6.04,15.17,8.76,17.6,5.91l.53.45c-2.8,3.27-10.88.76-18.58-5.83Z"/>
    </g>
    <g>
      <path class="st11" d="M101.86,46c2.62-3.06,10.92-.17,18.52,6.33,7.6,6.5,11.76,14.25,9.14,17.31"/>
      <path d="M130.16,70.18l-1.06-.9c2.08-2.43-1.14-9.56-9.17-16.42-8.03-6.86-15.47-8.83-17.55-6.4l-1.06-.9c2.89-3.38,11.48-.61,19.5,6.25,8.03,6.86,12.21,15,9.32,18.38h0Z"/>
    </g>
  </g>
  <g>
    <g>
      <path class="st20" d="M552.65,372.16l1.79,5.26h0c.86,3.82-5.79,9.3-15,12.43-9.21,3.13-17.82,2.82-19.46-.73h0l-1.79-5.26,5.13-1.74c2.71-2.39,6.69-4.47,11.43-6.08s9.3-2.42,12.77-2.14l5.13-1.74Z"/>
      <path d="M539.62,390.38c-9.21,3.13-17.64,2.91-19.99-.55l-.13.04-.22-.66-1.96-5.79,5.79-1.96c2.84-2.43,6.96-4.56,11.56-6.13,4.6-1.56,9.03-2.33,12.77-2.14l5.79-1.96,2.23,6.58-.13.04c.07,4.08-6.36,9.35-15.7,12.52h0ZM520.55,388.64h0c1.42,2.89,8.89,3.73,18.76.38,9.86-3.35,15.1-8.65,14.56-11.54l-.04-.13-1.47-4.34-4.6,1.56-.13.04c-3.56-.11-8.03.53-12.51,2.05s-8.59,3.65-11.34,5.9l-.09.18-4.6,1.56,1.47,4.34Z"/>
    </g>
    <g>
      <path class="st11" d="M551.77,371.29c1.3,3.81-5.17,9.38-14.38,12.51-9.21,3.13-17.6,2.6-18.89-1.21"/>
      <path d="M537.52,384.19c-9.47,3.22-18.04,2.6-19.42-1.47l.66-.22c1.21,3.55,9.73,4.03,18.54,1.04,8.81-2.99,15.28-8.56,14.07-12.11l.66-.22c1.38,4.08-4.91,9.73-14.51,12.99h0Z"/>
    </g>
    <g>
      <path class="st11" d="M518.28,384.13c-1.3-3.81,5.44-9.47,14.91-12.69,9.47-3.22,18.26-2.83,19.55.99"/>
      <path d="M553.53,372.16l-1.32.45c-1.03-3.02-8.81-3.9-18.8-.51-10,3.39-15.5,8.78-14.47,11.81l-1.32.45c-1.43-4.21,5.35-10.18,15.34-13.57,10-3.39,19.13-2.83,20.56,1.38h0Z"/>
    </g>
  </g>
  <g>
    <g>
      <path class="st20" d="M525.51,472.35l-2.88,4.75h0c-2.37,3.11-10.85,1.54-19.16-3.5s-13.62-11.83-11.96-15.37h0l2.88-4.75,4.63,2.81c3.57.54,7.73,2.25,12.01,4.84,4.28,2.59,7.83,5.56,9.85,8.41l4.63,2.81Z"/>
      <path d="M503.18,474.08c-8.31-5.04-13.57-11.64-12.43-15.66l-.12-.07.36-.59,3.17-5.23,5.23,3.17c3.69.61,7.97,2.4,12.12,4.92,4.16,2.52,7.6,5.42,9.85,8.41l5.23,3.17-3.6,5.94-.12-.07c-3.09,2.68-11.25,1.14-19.68-3.98h0ZM492.25,458.35h0c-1.3,2.95,2.86,9.21,11.77,14.61,8.91,5.4,16.34,6.01,18.2,3.73l.07-.12,2.38-3.92-4.16-2.52-.12-.07c-2.2-2.8-5.57-5.81-9.61-8.26-4.04-2.45-8.32-4.23-11.82-4.89l-.19.05-4.16-2.52-2.38,3.92Z"/>
    </g>
    <g>
      <path class="st11" d="M525.61,471.11c-2.09,3.44-10.51,2.07-18.83-2.97s-13.31-11.81-11.22-15.25"/>
      <path d="M506.56,468.5c-8.55-5.19-13.59-12.14-11.36-15.82l.59.36c-1.94,3.21,3.17,10.04,11.12,14.87,7.96,4.83,16.38,6.2,18.33,2.99l.59.36c-2.23,3.68-10.61,2.5-19.28-2.76h0Z"/>
    </g>
    <g>
      <path class="st11" d="M494.25,453.72c2.09-3.44,10.75-1.93,19.3,3.26,8.55,5.19,13.9,12.17,11.81,15.61"/>
      <path d="M526.07,473.02l-1.19-.72c1.66-2.73-2.67-9.25-11.7-14.73-9.03-5.47-16.69-6.22-18.35-3.49l-1.19-.72c2.3-3.8,11.23-2.45,20.26,3.03,9.03,5.47,14.47,12.84,12.16,16.64Z"/>
    </g>
  </g>
  <g>
    <g>
      <path class="st20" d="M496.37,376.37l-3.61,4.22h0c-2.84,2.69-10.95-.22-18.34-6.54-7.39-6.32-11.53-13.87-9.32-17.1h0l3.61-4.22,4.12,3.52c3.44,1.11,7.27,3.47,11.07,6.72,3.8,3.25,6.83,6.75,8.36,9.88l4.12,3.52Z"/>
      <path d="M474.06,374.48c-7.39-6.32-11.52-13.68-9.74-17.46l-.11-.09.45-.53,3.97-4.65,4.65,3.97c3.54,1.2,7.48,3.65,11.17,6.81s6.62,6.57,8.36,9.88l4.65,3.97-4.51,5.28-.11-.09c-3.48,2.14-11.28-.69-18.78-7.1h0ZM465.8,357.2h0c-1.76,2.7,1.34,9.55,9.26,16.32s15.15,8.56,17.36,6.62l.09-.11,2.98-3.48-3.7-3.16-.11-.09c-1.72-3.12-4.56-6.64-8.15-9.7-3.59-3.07-7.53-5.52-10.87-6.73l-.2.02-3.7-3.16-2.98,3.48Z"/>
    </g>
    <g>
      <path class="st11" d="M496.67,375.17c-2.62,3.06-10.71.35-18.1-5.97-7.39-6.32-11.23-13.8-8.61-16.86"/>
      <path d="M478.3,369.52c-7.6-6.5-11.46-14.17-8.66-17.45l.53.45c-2.44,2.85,1.51,10.42,8.58,16.47s15.17,8.76,17.6,5.91l.53.45c-2.8,3.27-10.88.76-18.58-5.83h0Z"/>
    </g>
    <g>
      <path class="st11" d="M468.52,352.95c2.62-3.06,10.92-.17,18.52,6.33,7.6,6.5,11.76,14.25,9.14,17.31"/>
      <path d="M496.82,377.12l-1.06-.9c2.08-2.43-1.14-9.56-9.17-16.42-8.03-6.86-15.47-8.83-17.55-6.4l-1.06-.9c2.89-3.38,11.48-.61,19.5,6.25,8.03,6.86,12.21,15,9.32,18.38Z"/>
    </g>
  </g>
  <g>
    <path class="st10" d="M472.71,252.47c-3.06,0-5.56-2.5-5.56-5.56v-108.33c0-3.06,2.5-5.56,5.56-5.56h79.44c3.06,0,5.56,2.5,5.56,5.56v108.33c0,3.06-2.5,5.56-5.56,5.56h-79.44Z"/>
    <path class="st13" d="M470.25,250c-3.06,0-5.56-2.5-5.56-5.56v-108.33c0-3.06,2.5-5.56,5.56-5.56h79.44c3.06,0,5.56,2.5,5.56,5.56v108.33c0,3.06-2.5,5.56-5.56,5.56h-79.44Z"/>
    <path class="st1" d="M470.25,250c-3.06,0-5.56-2.5-5.56-5.56v-108.33c0-3.06,2.5-5.56,5.56-5.56h79.44c3.06,0,5.56,2.5,5.56,5.56v108.33c0,3.06-2.5,5.56-5.56,5.56h-79.44Z"/>
    <path class="st3" d="M510.69,217.7l-27.3-27.3,27.3-27.3,27.3,27.3-27.3,27.3Z"/>
  </g>
  <g>
    <path class="st10" d="M365.77,252.47c-3.06,0-5.56-2.5-5.56-5.56v-108.33c0-3.06,2.5-5.56,5.56-5.56h79.44c3.06,0,5.56,2.5,5.56,5.56v108.33c0,3.06-2.5,5.56-5.56,5.56h-79.44Z"/>
    <path class="st13" d="M363.3,250c-3.06,0-5.56-2.5-5.56-5.56v-108.33c0-3.06,2.5-5.56,5.56-5.56h79.44c3.06,0,5.56,2.5,5.56,5.56v108.33c0,3.06-2.5,5.56-5.56,5.56h-79.44Z"/>
    <path class="st1" d="M363.3,250c-3.06,0-5.56-2.5-5.56-5.56v-108.33c0-3.06,2.5-5.56,5.56-5.56h79.44c3.06,0,5.56,2.5,5.56,5.56v108.33c0,3.06-2.5,5.56-5.56,5.56h-79.44Z"/>
    <path class="st3" d="M403.75,217.7l-27.3-27.3,27.3-27.3,27.3,27.3-27.3,27.3Z"/>
  </g>
  <g>
    <path class="st10" d="M257.44,252.47c-3.06,0-5.56-2.5-5.56-5.56v-108.33c0-3.06,2.5-5.56,5.56-5.56h79.44c3.06,0,5.56,2.5,5.56,5.56v108.33c0,3.06-2.5,5.56-5.56,5.56h-79.44Z"/>
    <path class="st13" d="M254.97,250c-3.06,0-5.56-2.5-5.56-5.56v-108.33c0-3.06,2.5-5.56,5.56-5.56h79.44c3.06,0,5.56,2.5,5.56,5.56v108.33c0,3.06-2.5,5.56-5.56,5.56h-79.44Z"/>
    <path class="st1" d="M254.97,250c-3.06,0-5.56-2.5-5.56-5.56v-108.33c0-3.06,2.5-5.56,5.56-5.56h79.44c3.06,0,5.56,2.5,5.56,5.56v108.33c0,3.06-2.5,5.56-5.56,5.56h-79.44Z"/>
    <path class="st3" d="M295.42,217.7l-27.3-27.3,27.3-27.3,27.3,27.3-27.3,27.3Z"/>
  </g>
  <g>
    <path class="st10" d="M150.49,251.08c-3.06,0-5.56-2.5-5.56-5.56v-108.33c0-3.06,2.5-5.56,5.56-5.56h79.44c3.06,0,5.56,2.5,5.56,5.56v108.33c0,3.06-2.5,5.56-5.56,5.56h-79.44Z"/>
    <path class="st13" d="M148.03,248.61c-3.06,0-5.56-2.5-5.56-5.56v-108.33c0-3.06,2.5-5.56,5.56-5.56h79.44c3.06,0,5.56,2.5,5.56,5.56v108.33c0,3.06-2.5,5.56-5.56,5.56h-79.44Z"/>
    <path class="st1" d="M148.03,248.61c-3.06,0-5.56-2.5-5.56-5.56v-108.33c0-3.06,2.5-5.56,5.56-5.56h79.44c3.06,0,5.56,2.5,5.56,5.56v108.33c0,3.06-2.5,5.56-5.56,5.56h-79.44Z"/>
    <path class="st3" d="M188.47,216.31l-27.3-27.3,27.3-27.3,27.3,27.3-27.3,27.3Z"/>
  </g>
  <g>
    <path class="st10" d="M576.88,252.47c-3.06,0-5.56-2.5-5.56-5.56v-108.33c0-3.06,2.5-5.56,5.56-5.56h79.44c3.06,0,5.56,2.5,5.56,5.56v108.33c0,3.06-2.5,5.56-5.56,5.56h-79.44Z"/>
    <path class="st13" d="M574.41,250c-3.06,0-5.56-2.5-5.56-5.56v-108.33c0-3.06,2.5-5.56,5.56-5.56h79.44c3.06,0,5.56,2.5,5.56,5.56v108.33c0,3.06-2.5,5.56-5.56,5.56h-79.44Z"/>
    <path class="st1" d="M574.41,250c-3.06,0-5.56-2.5-5.56-5.56v-108.33c0-3.06,2.5-5.56,5.56-5.56h79.44c3.06,0,5.56,2.5,5.56,5.56v108.33c0,3.06-2.5,5.56-5.56,5.56h-79.44Z"/>
    <path class="st3" d="M614.86,217.7l-27.3-27.3,27.3-27.3,27.3,27.3-27.3,27.3Z"/>
  </g>
  <g>
    <path class="st10" d="M575.49,249.69c-3.06,0-5.56-2.5-5.56-5.56v-108.33c0-3.06,2.5-5.56,5.56-5.56h79.44c3.06,0,5.56,2.5,5.56,5.56v108.33c0,3.06-2.5,5.56-5.56,5.56h-79.44Z"/>
    <g>
      <path class="st9" d="M573.03,247.22c-3.06,0-5.56-2.5-5.56-5.56v-108.33c0-3.06,2.5-5.56,5.56-5.56h79.44c3.06,0,5.56,2.5,5.56,5.56v108.33c0,3.06-2.5,5.56-5.56,5.56h-79.44Z"/>
      <path class="st1" d="M573.03,247.22c-3.06,0-5.56-2.5-5.56-5.56v-108.33c0-3.06,2.5-5.56,5.56-5.56h79.44c3.06,0,5.56,2.5,5.56,5.56v108.33c0,3.06-2.5,5.56-5.56,5.56h-79.44Z"/>
    </g>
    <path class="st17" d="M602.32,170.91c-1.25,0-2.36-1.39-3.61-4.17-.83-1.81-1.53-3.89-2.08-6.11-1.11.14-2.92.28-5.56.56-2.36.14-4.17.42-5.56.56-.69,1.67-1.94,4.17-3.61,7.5-.69,1.11-1.53,1.67-2.78,1.67-.83,0-1.53-.28-2.22-.83s-.97-1.25-.97-2.22c0-.83,1.11-3.33,3.33-7.92-.28-.42-.28-.97-.28-1.25,0-.69.83-1.25,2.22-1.67,2.08-3.75,4.58-7.64,7.22-11.53,3.75-5.69,6.11-8.61,6.94-8.61,1.67,0,2.78.97,3.33,3.06.28,1.67.83,4.03,1.39,7.22.97,4.31,2.08,9.31,3.33,15,.14.42.56,1.39,1.11,3.06.56,1.25.83,2.22.83,2.92,0,.83-.28,1.67-.97,2.22-.42.42-1.25.69-2.08.56h0ZM593.99,147.72c-1.11,2.08-2.78,4.72-4.86,8.33.69-.14,1.81-.28,3.19-.42,1.67-.14,2.78-.14,3.19-.28-.42-1.94-.97-4.58-1.53-7.64h0Z"/>
    <g>
      <path class="st8" d="M619.28,193.82c.21-.14.56-.07.63.21l1.82,7.5s4.49,3.29,5.82,5.61c2.24,3.86,2.31,7.01,2.31,7.01,0,0,4.98,1.47,5.82,5.47.84,4-2.24,11.57-15.42,14.16s-23.76-.98-28.74-8.97,2.87-17.52,2.45-16.96l-1.47-12.55c-.07-.28.28-.49.56-.35l8.48,5.54s3.15-1.19,6.45-1.33c1.96-.14,3.64,0,5.26.28l6.03-5.61Z"/>
      <path class="st4" d="M629.65,214.43s4.84,1.26,5.68,5.26-2.52,11.21-15.56,13.74c-16.96,3.5-25.02-6.59-20.33-14.02,4.7-7.5,12.76-1.12,18.64-1.54,5.05-.35,5.61-4.77,11.57-3.43Z"/>
      <path class="st7" d="M607.57,221.93c0-.28.28-.49.56-.42,1.33.49,5.12,1.61,9.32,1.89,3.79.21,6.03,0,7.08-.21.35-.07.63.28.49.63-.63,1.89-3.29,7.15-10.65,6.73-6.38-.7-7.01-5.19-6.8-8.62h0Z"/>
      <path class="st2" d="M642.55,215.2c-3.29,2.66-8.34,2.73-8.34,2.73"/>
      <path class="st2" d="M641.64,223.05c-4.42.35-7.15-.98-7.15-.98"/>
      <path class="st5" d="M617.81,216.04c1.47,0,3.01.14,3.08.63.07.98-.98,2.94-2.1,3.01-1.26.14-4.21-1.61-4.21-2.73-.07-.84,1.82-.91,3.22-.91Z"/>
      <path class="st2" d="M586.27,214.99s6.03,1.96,8.48,4.14"/>
      <path class="st2" d="M594.96,221.57c-3.01,1.19-8.2.42-8.2.42"/>
      <g>
        <path class="st7" d="M626.08,207.84c2.03,3.15,2.1,6.73.14,7.99-1.96,1.26-5.19-.21-7.29-3.36-2.03-3.15-2.1-6.73-.14-7.99,1.96-1.33,5.26.21,7.29,3.36Z"/>
        <path class="st6" d="M625.8,211.83c0,.77-.56,1.4-1.26,1.4s-1.26-.63-1.26-1.4.56-1.4,1.26-1.4,1.26.63,1.26,1.4"/>
      </g>
      <g>
        <path class="st7" d="M608.7,209.8c2.1,3.08,1.96,6.87.07,8.2-2.31,1.33-5.4.35-7.5-2.73-2.17-3.08-2.31-7.08-.14-8.62,2.17-1.61,5.47.07,7.57,3.15h0Z"/>
        <path class="st6" d="M608.28,213.86c0,.77-.56,1.4-1.26,1.4s-1.26-.63-1.26-1.4.56-1.4,1.26-1.4c.7.07,1.26.63,1.26,1.4"/>
      </g>
    </g>
  </g>
  <path class="st10" d="M471.32,251.08c-3.06,0-5.56-2.5-5.56-5.56v-108.33c0-3.06,2.5-5.56,5.56-5.56h79.44c3.06,0,5.56,2.5,5.56,5.56v108.33c0,3.06-2.5,5.56-5.56,5.56h-79.44Z"/>
  <g>
    <path class="st9" d="M468.86,248.61c-3.06,0-5.56-2.5-5.56-5.56v-108.33c0-3.06,2.5-5.56,5.56-5.56h79.44c3.06,0,5.56,2.5,5.56,5.56v108.33c0,3.06-2.5,5.56-5.56,5.56h-79.44Z"/>
    <path class="st1" d="M468.86,248.61c-3.06,0-5.56-2.5-5.56-5.56v-108.33c0-3.06,2.5-5.56,5.56-5.56h79.44c3.06,0,5.56,2.5,5.56,5.56v108.33c0,3.06-2.5,5.56-5.56,5.56h-79.44Z"/>
  </g>
  <path class="st17" d="M480.25,165.28v9.58c0,.69-.14,1.25-.56,1.81-.56.83-1.25,1.11-2.36,1.11-1.25,0-2.08-.42-2.78-1.39-.56-.69-.83-1.53-.83-2.36,0-3.33.14-8.33.28-15.14.28-6.67.28-11.81.28-15.14,0-.83.28-1.53.97-2.22.56-.56,1.39-.97,2.22-.97s1.67.28,2.22.97c.56.56.83,1.39.83,2.22,0,1.39,0,3.19-.14,5.56-.14,2.64-.28,4.58-.28,5.56,1.11-.97,5-5.14,11.81-12.64.69-.69,1.53-1.11,2.36-1.11s1.67.28,2.22.97c.69.56.97,1.39.97,2.22,0,.97-1.81,3.33-5.42,7.36-2.64,2.92-5.42,5.69-8.47,8.61,1.67,1.53,3.33,3.06,5,4.72,1.94,1.81,3.61,3.19,5.28,4.44.83.56,1.67.97,2.5,1.25,1.67.56,2.36,1.53,2.36,2.92,0,.69-.14,1.25-.56,1.94-.56.83-1.39,1.25-2.36,1.25-2.22,0-5-1.39-8.47-4.31-.83-1.25-3.33-3.61-7.08-7.22h0Z"/>
  <g>
    <path class="st8" d="M515.11,195.21c.21-.14.56-.07.63.21l1.82,7.5s4.49,3.29,5.82,5.61c2.24,3.86,2.31,7.01,2.31,7.01,0,0,4.98,1.47,5.82,5.47.84,4-2.24,11.57-15.42,14.16s-23.76-.98-28.74-8.97,2.87-17.52,2.45-16.96l-1.47-12.55c-.07-.28.28-.49.56-.35l8.48,5.54s3.15-1.19,6.45-1.33c1.96-.14,3.64,0,5.26.28l6.03-5.61Z"/>
    <path class="st4" d="M525.49,215.81s4.84,1.26,5.68,5.26-2.52,11.21-15.56,13.74c-16.96,3.5-25.02-6.59-20.33-14.02,4.7-7.5,12.76-1.12,18.64-1.54,5.05-.35,5.61-4.77,11.57-3.43Z"/>
    <path class="st7" d="M503.41,223.31c0-.28.28-.49.56-.42,1.33.49,5.12,1.61,9.32,1.89,3.79.21,6.03,0,7.08-.21.35-.07.63.28.49.63-.63,1.89-3.29,7.15-10.65,6.73-6.38-.7-7.01-5.19-6.8-8.62h0Z"/>
    <path class="st2" d="M538.38,216.59c-3.29,2.66-8.34,2.73-8.34,2.73"/>
    <path class="st2" d="M537.47,224.44c-4.42.35-7.15-.98-7.15-.98"/>
    <path class="st5" d="M513.64,217.43c1.47,0,3.01.14,3.08.63.07.98-.98,2.94-2.1,3.01-1.26.14-4.21-1.61-4.21-2.73-.07-.84,1.82-.91,3.22-.91Z"/>
    <path class="st2" d="M482.1,216.37s6.03,1.96,8.48,4.14"/>
    <path class="st2" d="M490.79,222.96c-3.01,1.19-8.2.42-8.2.42"/>
    <g>
      <path class="st7" d="M521.91,209.23c2.03,3.15,2.1,6.73.14,7.99-1.96,1.26-5.19-.21-7.29-3.36-2.03-3.15-2.1-6.73-.14-7.99,1.96-1.33,5.26.21,7.29,3.36Z"/>
      <path class="st6" d="M521.63,213.22c0,.77-.56,1.4-1.26,1.4s-1.26-.63-1.26-1.4.56-1.4,1.26-1.4,1.26.63,1.26,1.4"/>
    </g>
    <g>
      <path class="st7" d="M504.53,211.19c2.1,3.08,1.96,6.87.07,8.2-2.31,1.33-5.4.35-7.5-2.73-2.17-3.08-2.31-7.08-.14-8.62,2.17-1.61,5.47.07,7.57,3.15h0Z"/>
      <path class="st6" d="M504.11,215.25c0,.77-.56,1.4-1.26,1.4s-1.26-.63-1.26-1.4.56-1.4,1.26-1.4c.7.07,1.26.63,1.26,1.4"/>
    </g>
  </g>
  <path class="st10" d="M364.38,251.08c-3.06,0-5.56-2.5-5.56-5.56v-108.33c0-3.06,2.5-5.56,5.56-5.56h79.44c3.06,0,5.56,2.5,5.56,5.56v108.33c0,3.06-2.5,5.56-5.56,5.56h-79.44Z"/>
  <g>
    <path class="st9" d="M361.91,248.61c-3.06,0-5.56-2.5-5.56-5.56v-108.33c0-3.06,2.5-5.56,5.56-5.56h79.44c3.06,0,5.56,2.5,5.56,5.56v108.33c0,3.06-2.5,5.56-5.56,5.56h-79.44Z"/>
    <path class="st1" d="M361.91,248.61c-3.06,0-5.56-2.5-5.56-5.56v-108.33c0-3.06,2.5-5.56,5.56-5.56h79.44c3.06,0,5.56,2.5,5.56,5.56v108.33c0,3.06-2.5,5.56-5.56,5.56h-79.44Z"/>
  </g>
  <path class="st17" d="M402.32,184.95c-1.11,0-4.72-2.78-10.97-8.33-2.5.97-5,1.39-7.36,1.39-4.86,0-9.03-1.81-12.64-5.56-3.61-3.61-5.42-7.78-5.42-12.36,0-5.42,2.08-10,6.39-13.89,4.17-3.61,8.89-5.56,14.58-5.56s10.56,2.22,13.61,6.53c2.64,3.61,3.89,8.33,3.89,14.03,0,4.72-2.22,8.75-6.81,12.22.97.83,2.22,2.08,4.17,3.61l2.64,2.08c.97.97,1.53,1.81,1.53,2.78,0,.83-.28,1.53-.97,2.22-.97.56-1.67.83-2.64.83h0ZM386.76,146.9c-3.89,0-7.22,1.25-10.14,3.75-2.92,2.5-4.31,5.69-4.31,9.31,0,2.92,1.25,5.56,3.61,8.06,2.36,2.36,5.14,3.61,8.06,3.61h1.25c-2.22-2.08-3.33-3.89-3.33-5.14,0-.97.42-1.67,1.11-2.22s1.39-.83,2.22-.83c.97,0,1.94.42,2.64,1.39,1.39,1.67,2.78,3.19,4.44,4.44,3.61-2.22,5.42-4.86,5.42-8.06,0-4.17-.83-7.5-2.64-10-1.94-2.92-4.72-4.31-8.33-4.31Z"/>
  <g>
    <path class="st8" d="M408.17,195.21c.21-.14.56-.07.63.21l1.82,7.5s4.49,3.29,5.82,5.61c2.24,3.86,2.31,7.01,2.31,7.01,0,0,4.98,1.47,5.82,5.47.84,4-2.24,11.57-15.42,14.16-13.18,2.59-23.76-.98-28.74-8.97s2.87-17.52,2.45-16.96l-1.47-12.55c-.07-.28.28-.49.56-.35l8.48,5.54s3.15-1.19,6.45-1.33c1.96-.14,3.64,0,5.26.28l6.03-5.61Z"/>
    <path class="st4" d="M418.54,215.81s4.84,1.26,5.68,5.26-2.52,11.21-15.56,13.74c-16.96,3.5-25.02-6.59-20.33-14.02,4.7-7.5,12.76-1.12,18.64-1.54,5.05-.35,5.61-4.77,11.57-3.43Z"/>
    <path class="st7" d="M396.46,223.31c0-.28.28-.49.56-.42,1.33.49,5.12,1.61,9.32,1.89,3.79.21,6.03,0,7.08-.21.35-.07.63.28.49.63-.63,1.89-3.29,7.15-10.65,6.73-6.38-.7-7.01-5.19-6.8-8.62h0Z"/>
    <path class="st2" d="M431.44,216.59c-3.29,2.66-8.34,2.73-8.34,2.73"/>
    <path class="st2" d="M430.53,224.44c-4.42.35-7.15-.98-7.15-.98"/>
    <path class="st5" d="M406.7,217.43c1.47,0,3.01.14,3.08.63.07.98-.98,2.94-2.1,3.01-1.26.14-4.21-1.61-4.21-2.73-.07-.84,1.82-.91,3.22-.91h0Z"/>
    <path class="st2" d="M375.15,216.37s6.03,1.96,8.48,4.14"/>
    <path class="st2" d="M383.85,222.96c-3.01,1.19-8.2.42-8.2.42"/>
    <g>
      <path class="st7" d="M414.97,209.23c2.03,3.15,2.1,6.73.14,7.99-1.96,1.26-5.19-.21-7.29-3.36-2.03-3.15-2.1-6.73-.14-7.99,1.96-1.33,5.26.21,7.29,3.36h0Z"/>
      <path class="st6" d="M414.69,213.22c0,.77-.56,1.4-1.26,1.4s-1.26-.63-1.26-1.4.56-1.4,1.26-1.4,1.26.63,1.26,1.4"/>
    </g>
    <g>
      <path class="st7" d="M397.58,211.19c2.1,3.08,1.96,6.87.07,8.2-2.31,1.33-5.4.35-7.5-2.73-2.17-3.08-2.31-7.08-.14-8.62,2.17-1.61,5.47.07,7.57,3.15Z"/>
      <path class="st6" d="M397.16,215.25c0,.77-.56,1.4-1.26,1.4s-1.26-.63-1.26-1.4.56-1.4,1.26-1.4c.7.07,1.26.63,1.26,1.4"/>
    </g>
  </g>
  <path class="st10" d="M257.44,251.08c-3.06,0-5.56-2.5-5.56-5.56v-108.33c0-3.06,2.5-5.56,5.56-5.56h79.44c3.06,0,5.56,2.5,5.56,5.56v108.33c0,3.06-2.5,5.56-5.56,5.56h-79.44Z"/>
  <g>
    <path class="st9" d="M254.97,248.61c-3.06,0-5.56-2.5-5.56-5.56v-108.33c0-3.06,2.5-5.56,5.56-5.56h79.44c3.06,0,5.56,2.5,5.56,5.56v108.33c0,3.06-2.5,5.56-5.56,5.56h-79.44Z"/>
    <path class="st1" d="M254.97,248.61c-3.06,0-5.56-2.5-5.56-5.56v-108.33c0-3.06,2.5-5.56,5.56-5.56h79.44c3.06,0,5.56,2.5,5.56,5.56v108.33c0,3.06-2.5,5.56-5.56,5.56h-79.44Z"/>
  </g>
  <path class="st17" d="M284.68,145.73c-.28,0-.69,0-1.25-.14-.56,0-1.11-.14-1.39-.14h-1.81c0-.28,0,.28,0,1.67,0,10.83-.69,18.75-2.22,23.61-1.11,3.61-3.19,5.42-6.11,5.42s-5.56-.97-8.33-2.92c-3.06-2.22-4.72-4.72-4.72-7.64,0-2.36,1.11-3.47,3.19-3.47s3.19,1.11,3.19,3.47c0,.83.83,1.81,2.36,2.92,1.53.97,2.92,1.53,4.31,1.53.56,0,.97-.97,1.11-3.06,0-.42.28-2.78.56-7.08.28-3.47.28-7.78.28-12.92v-1.53h-3.19c-1.39,0-2.22-.14-2.64-.14-.83,0-1.67-.28-2.22-.83-.69-.56-.97-1.39-.97-2.22,0-2.08,1.39-3.06,4.03-3.06h4.44c.97,0,2.36,0,4.31-.14,1.94-.14,3.33-.14,4.31-.14,4.03,0,6.11,1.11,6.11,3.33,0,.83-.28,1.53-.83,2.08-.83,1.11-1.53,1.39-2.5,1.39h0Z"/>
  <g>
    <path class="st8" d="M301.22,195.21c.21-.14.56-.07.63.21l1.82,7.5s4.49,3.29,5.82,5.61c2.24,3.86,2.31,7.01,2.31,7.01,0,0,4.98,1.47,5.82,5.47.84,4-2.24,11.57-15.42,14.16-13.18,2.59-23.76-.98-28.74-8.97-4.98-7.99,2.87-17.52,2.45-16.96l-1.47-12.55c-.07-.28.28-.49.56-.35l8.48,5.54s3.15-1.19,6.45-1.33c1.96-.14,3.64,0,5.26.28l6.03-5.61Z"/>
    <path class="st4" d="M311.6,215.81s4.84,1.26,5.68,5.26c.84,4-2.52,11.21-15.56,13.74-16.96,3.5-25.02-6.59-20.33-14.02,4.7-7.5,12.76-1.12,18.64-1.54,5.05-.35,5.61-4.77,11.57-3.43h0Z"/>
    <path class="st7" d="M289.52,223.31c0-.28.28-.49.56-.42,1.33.49,5.12,1.61,9.32,1.89,3.79.21,6.03,0,7.08-.21.35-.07.63.28.49.63-.63,1.89-3.29,7.15-10.65,6.73-6.38-.7-7.01-5.19-6.8-8.62h0Z"/>
    <path class="st2" d="M324.5,216.59c-3.29,2.66-8.34,2.73-8.34,2.73"/>
    <path class="st2" d="M323.58,224.44c-4.42.35-7.15-.98-7.15-.98"/>
    <path class="st5" d="M299.75,217.43c1.47,0,3.01.14,3.08.63.07.98-.98,2.94-2.1,3.01-1.26.14-4.21-1.61-4.21-2.73-.07-.84,1.82-.91,3.22-.91h0Z"/>
    <path class="st2" d="M268.21,216.37s6.03,1.96,8.48,4.14"/>
    <path class="st2" d="M276.9,222.96c-3.01,1.19-8.2.42-8.2.42"/>
    <g>
      <path class="st7" d="M308.02,209.23c2.03,3.15,2.1,6.73.14,7.99s-5.19-.21-7.29-3.36c-2.03-3.15-2.1-6.73-.14-7.99,1.96-1.33,5.26.21,7.29,3.36Z"/>
      <path class="st6" d="M307.74,213.22c0,.77-.56,1.4-1.26,1.4s-1.26-.63-1.26-1.4.56-1.4,1.26-1.4,1.26.63,1.26,1.4"/>
    </g>
    <g>
      <path class="st7" d="M290.64,211.19c2.1,3.08,1.96,6.87.07,8.2-2.31,1.33-5.4.35-7.5-2.73-2.17-3.08-2.31-7.08-.14-8.62,2.17-1.61,5.47.07,7.57,3.15Z"/>
      <path class="st6" d="M290.22,215.25c0,.77-.56,1.4-1.26,1.4s-1.26-.63-1.26-1.4.56-1.4,1.26-1.4c.7.07,1.26.63,1.26,1.4"/>
    </g>
  </g>
  <path class="st10" d="M150.49,251.08c-3.06,0-5.56-2.5-5.56-5.56v-108.33c0-3.06,2.5-5.56,5.56-5.56h79.44c3.06,0,5.56,2.5,5.56,5.56v108.33c0,3.06-2.5,5.56-5.56,5.56h-79.44Z"/>
  <g>
    <path class="st9" d="M148.03,248.61c-3.06,0-5.56-2.5-5.56-5.56v-108.33c0-3.06,2.5-5.56,5.56-5.56h79.44c3.06,0,5.56,2.5,5.56,5.56v108.33c0,3.06-2.5,5.56-5.56,5.56h-79.44Z"/>
    <path class="st1" d="M148.03,248.61c-3.06,0-5.56-2.5-5.56-5.56v-108.33c0-3.06,2.5-5.56,5.56-5.56h79.44c3.06,0,5.56,2.5,5.56,5.56v108.33c0,3.06-2.5,5.56-5.56,5.56h-79.44Z"/>
  </g>
  <g>
    <path class="st17" d="M181.27,176.37c-5,0-8.61-2.22-10.83-6.53-1.67-3.19-2.5-7.36-2.5-12.36,0-4.31,1.11-8.06,3.33-11.39,2.64-3.89,6.25-5.83,10.83-5.83,4.31,0,7.64,1.81,10.14,5.28,1.94,2.92,3.06,6.53,3.06,10.69,0,6.81-1.11,11.81-3.47,15.14-2.5,3.33-5.97,5-10.56,5ZM181.96,146.09c-2.5,0-4.44,1.25-5.83,3.61-1.25,2.08-1.94,4.58-1.94,7.36,0,3.75.42,6.53,1.11,8.47,1.11,3.19,3.19,4.86,6.11,4.86,2.5,0,4.31-1.11,5.56-3.33s1.81-5.69,1.81-10.14c0-3.61-.56-6.39-1.67-8.06-1.25-1.94-2.92-2.78-5.14-2.78h0Z"/>
    <path class="st17" d="M165.57,175.95h-9.03c-2.92,0-4.31-.83-4.31-2.64,0-2.08,1.53-3.06,4.72-3.06h.97v-20.14c-1.25.97-2.22,1.39-2.5,1.39-.83,0-1.53-.28-2.22-.97-.69-.56-.97-1.25-.97-2.08s.56-1.67,1.53-2.5l2.5-1.81,2.78-2.22c1.11-.83,2.22-1.25,3.33-1.25,1.39,0,2.08.83,2.08,2.5,0,1.81-.14,4.31-.28,7.64s-.28,7.92-.28,14.03v5.56h1.53c.83,0,1.67.28,2.22.83s.83,1.25.83,2.08-.28,1.53-.83,2.08c-.42.28-1.25.56-2.08.56Z"/>
  </g>
  <g>
    <path class="st8" d="M194.28,195.21c.21-.14.56-.07.63.21l1.82,7.5s4.49,3.29,5.82,5.61c2.24,3.86,2.31,7.01,2.31,7.01,0,0,4.98,1.47,5.82,5.47.84,4-2.24,11.57-15.42,14.16-13.18,2.59-23.76-.98-28.74-8.97s2.87-17.52,2.45-16.96l-1.47-12.55c-.07-.28.28-.49.56-.35l8.48,5.54s3.15-1.19,6.45-1.33c1.96-.14,3.64,0,5.26.28l6.03-5.61Z"/>
    <path class="st4" d="M204.65,215.81s4.84,1.26,5.68,5.26c.84,4-2.52,11.21-15.56,13.74-16.96,3.5-25.02-6.59-20.33-14.02,4.7-7.5,12.76-1.12,18.64-1.54,5.05-.35,5.61-4.77,11.57-3.43h0Z"/>
    <path class="st7" d="M182.57,223.31c0-.28.28-.49.56-.42,1.33.49,5.12,1.61,9.32,1.89,3.79.21,6.03,0,7.08-.21.35-.07.63.28.49.63-.63,1.89-3.29,7.15-10.65,6.73-6.38-.7-7.01-5.19-6.8-8.62h0Z"/>
    <path class="st2" d="M217.55,216.59c-3.29,2.66-8.34,2.73-8.34,2.73"/>
    <path class="st2" d="M216.64,224.44c-4.42.35-7.15-.98-7.15-.98"/>
    <path class="st5" d="M192.81,217.43c1.47,0,3.01.14,3.08.63.07.98-.98,2.94-2.1,3.01-1.26.14-4.21-1.61-4.21-2.73-.07-.84,1.82-.91,3.22-.91Z"/>
    <path class="st2" d="M161.27,216.37s6.03,1.96,8.48,4.14"/>
    <path class="st2" d="M169.96,222.96c-3.01,1.19-8.2.42-8.2.42"/>
    <g>
      <path class="st7" d="M201.08,209.23c2.03,3.15,2.1,6.73.14,7.99-1.96,1.26-5.19-.21-7.29-3.36-2.03-3.15-2.1-6.73-.14-7.99,1.96-1.33,5.26.21,7.29,3.36Z"/>
      <path class="st6" d="M200.8,213.22c0,.77-.56,1.4-1.26,1.4s-1.26-.63-1.26-1.4.56-1.4,1.26-1.4,1.26.63,1.26,1.4"/>
    </g>
    <g>
      <path class="st7" d="M183.7,211.19c2.1,3.08,1.96,6.87.07,8.2-2.31,1.33-5.4.35-7.5-2.73-2.17-3.08-2.31-7.08-.14-8.62,2.17-1.61,5.47.07,7.57,3.15Z"/>
      <path class="st6" d="M183.28,215.25c0,.77-.56,1.4-1.26,1.4s-1.26-.63-1.26-1.4.56-1.4,1.26-1.4c.7.07,1.26.63,1.26,1.4"/>
    </g>
  </g>
  <g>
    <g>
      <path class="st20" d="M228.14,21.97l2.3,5.06h0c1.23,3.71-4.84,9.83-13.7,13.84-8.85,4.02-17.45,4.57-19.44,1.2h0l-2.3-5.06,4.93-2.24c2.46-2.64,6.22-5.11,10.77-7.18,4.55-2.07,9.01-3.33,12.5-3.38l4.93-2.24Z"/>
      <path d="M216.97,41.38c-8.85,4.02-17.27,4.64-19.94,1.43l-.13.06-.29-.63-2.53-5.56,5.56-2.53c2.59-2.7,6.47-5.23,10.9-7.24,4.43-2.01,8.76-3.21,12.5-3.38l5.56-2.53,2.87,6.32-.13.06c.47,4.06-5.41,9.93-14.39,14h0ZM197.82,41.54h0c1.7,2.74,9.22,2.83,18.7-1.47,9.49-4.31,14.18-10.1,13.35-12.92l-.06-.13-1.89-4.17-4.43,2.01-.13.06c-3.55.24-7.94,1.32-12.24,3.27-4.3,1.95-8.19,4.48-10.7,7l-.07.18-4.43,2.01,1.89,4.17Z"/>
    </g>
    <g>
      <path class="st11" d="M227.18,21.19c1.66,3.67-4.22,9.85-13.08,13.87-8.85,4.02-17.26,4.33-18.92.66"/>
      <path d="M214.28,35.44c-9.11,4.13-17.69,4.37-19.47.45l.63-.29c1.55,3.41,10.08,3.05,18.55-.8,8.47-3.85,14.36-10.03,12.81-13.44l.63-.29c1.78,3.92-3.92,10.17-13.16,14.36Z"/>
    </g>
    <g>
      <path class="st11" d="M195.12,37.27c-1.66-3.67,4.48-9.96,13.58-14.1,9.11-4.13,17.89-4.61,19.55-.94"/>
      <path d="M229.02,21.88l-1.26.57c-1.32-2.91-9.15-3.02-18.76,1.35-9.61,4.36-14.56,10.27-13.24,13.18l-1.26.57c-1.84-4.05,4.32-10.65,13.93-15.02,9.61-4.36,18.76-4.7,20.6-.66h0Z"/>
    </g>
  </g>
  <g>
    <g>
      <path class="st20" d="M617.3,153.3l-4.55-3.19h0c-2.95-2.57-.83-10.92,4.74-18.89s12.7-12.81,16.12-10.92h0l4.55,3.19-3.11,4.44c-.77,3.53-2.75,7.57-5.62,11.66-2.87,4.1-6.06,7.45-9.03,9.27l-3.11,4.44Z"/>
      <path d="M617.04,130.91c5.58-7.96,12.5-12.78,16.44-11.38l.08-.11.57.4,5.01,3.5-3.5,5.01c-.85,3.64-2.91,7.79-5.7,11.78-2.79,3.98-5.91,7.23-9.03,9.27l-3.5,5.01-5.69-3.98.08-.11c-2.47-3.25-.4-11.3,5.26-19.38h0ZM633.45,121.04h0c-2.86-1.49-9.38,2.25-15.35,10.79-5.97,8.53-7.07,15.91-4.92,17.92l.11.08,3.75,2.63,2.79-3.98.08-.11c2.94-2.01,6.17-5.18,8.88-9.05,2.71-3.87,4.77-8.02,5.65-11.47l-.03-.19,2.79-3.98-3.75-2.63Z"/>
    </g>
    <g>
      <path class="st11" d="M618.53,153.49c-3.3-2.31-1.38-10.63,4.2-18.59,5.58-7.96,12.65-12.5,15.95-10.19"/>
      <path d="M622.39,134.66c5.73-8.19,13.01-12.77,16.53-10.3l-.4.57c-3.07-2.15-10.23,2.5-15.57,10.13s-7.26,15.94-4.19,18.09l-.4.57c-3.53-2.47-1.8-10.75,4.02-19.06h0Z"/>
    </g>
    <g>
      <path class="st11" d="M637.94,123.33c3.3,2.31,1.22,10.85-4.52,19.05-5.73,8.19-13.05,13.07-16.35,10.76"/>
      <path d="M616.6,153.83l.8-1.14c2.62,1.83,9.41-2.06,15.46-10.71,6.05-8.65,7.3-16.25,4.69-18.08l.8-1.14c3.64,2.55,1.71,11.37-4.35,20.01-6.05,8.65-13.76,13.6-17.4,11.05h0Z"/>
    </g>
  </g>
  <g>
    <g>
      <path class="st20" d="M579.95,56.46l-.49-5.53h0c.07-3.91,7.83-7.66,17.52-8.51,9.68-.85,17.98,1.49,18.73,5.33h0l.49,5.53-5.4.47c-3.2,1.68-7.57,2.76-12.55,3.19-4.98.44-9.61.15-12.91-.96l-5.4.47Z"/>
      <path d="M596.93,41.86c9.68-.85,17.83,1.36,19.29,5.28h.14s.06.68.06.68l.53,6.09-6.09.53c-3.34,1.69-7.84,2.78-12.68,3.2-4.84.43-9.33.12-12.91-.96l-6.09.53-.61-6.92h.14c.91-4,8.4-7.58,18.22-8.44h0ZM615.04,48.08h0c-.69-3.15-7.75-5.73-18.13-4.82-10.38.91-16.73,4.81-16.89,7.76v.14s.41,4.57.41,4.57l4.84-.43h.14c3.43.94,7.93,1.38,12.63.97,4.7-.41,9.21-1.51,12.42-3.04l.13-.15,4.84-.43-.4-4.57Z"/>
    </g>
    <g>
      <path class="st11" d="M580.6,57.52c-.35-4.01,7.25-7.89,16.94-8.74,9.68-.85,17.71,1.65,18.06,5.66"/>
      <path d="M597.5,48.37c9.96-.87,18.14,1.75,18.52,6.04l-.69.06c-.33-3.74-8.49-6.23-17.76-5.41-9.27.81-16.88,4.69-16.55,8.42l-.69.06c-.38-4.29,7.08-8.29,17.18-9.18h0Z"/>
    </g>
    <g>
      <path class="st11" d="M616.17,53c.35,4.01-7.53,7.91-17.49,8.79-9.96.87-18.4-1.59-18.76-5.6"/>
      <path d="M579.09,56.26l1.38-.12c.28,3.18,7.63,5.88,18.14,4.96,10.52-.92,17.14-4.85,16.86-8.03l1.38-.12c.39,4.43-7.61,8.62-18.12,9.54-10.52.92-19.26-1.79-19.65-6.22h0Z"/>
    </g>
  </g>
  <g>
    <g>
      <path class="st20" d="M529.93,60.03l-5.5-.79h0c-3.79-.97-5.67-9.37-4.29-19,1.38-9.62,5.55-17.16,9.46-17.02h0l5.5.79-.77,5.36c.9,3.5.96,8,.24,12.94-.71,4.95-2.05,9.39-3.88,12.35l-.77,5.36Z"/>
      <path d="M519.59,40.16c1.38-9.62,5.4-17.04,9.54-17.57l.02-.14.69.1,6.05.87-.87,6.05c.88,3.63.92,8.27.22,13.08-.69,4.81-2.01,9.11-3.88,12.35l-.87,6.05-6.87-.99.02-.14c-3.67-1.79-5.45-9.9-4.05-19.66h0ZM529.78,23.95h0c-3.22-.04-7.35,6.24-8.83,16.55-1.48,10.31.87,17.38,3.7,18.21l.14.02,4.54.65.69-4.81.02-.14c1.71-3.12,3.17-7.4,3.84-12.08.67-4.67.64-9.31-.13-12.79l-.12-.16.69-4.81-4.54-.65Z"/>
    </g>
    <g>
      <path class="st11" d="M531.11,59.64c-3.99-.57-6.02-8.86-4.64-18.49s5.65-16.87,9.64-16.29"/>
      <path d="M526.05,41.09c1.42-9.9,5.85-17.26,10.11-16.65l-.1.69c-3.71-.53-8,6.85-9.32,16.06-1.32,9.21.71,17.5,4.42,18.03l-.1.69c-4.26-.61-6.45-8.79-5.01-18.82h0Z"/>
    </g>
    <g>
      <path class="st11" d="M534.83,23.97c3.99.57,5.98,9.14,4.56,19.04-1.42,9.9-5.75,17.56-9.74,16.98"/>
      <path d="M529.53,60.82l.2-1.37c3.16.45,7.47-6.08,8.97-16.53,1.5-10.45-.81-17.8-3.97-18.25l.2-1.37c4.4.63,6.65,9.37,5.15,19.82-1.5,10.45-6.14,18.34-10.54,17.71h0Z"/>
    </g>
  </g>
  <g>
    <g>
      <path class="st20" d="M660.2,116.63l.41-5.54h0c.7-3.85,8.96-6.3,18.66-5.57,9.7.72,17.5,4.37,17.63,8.28h0l-.41,5.54-5.4-.4c-3.43,1.14-7.91,1.5-12.9,1.13-4.99-.37-9.51-1.4-12.59-3.03l-5.4-.4Z"/>
      <path d="M679.31,104.96c9.7.72,17.37,4.22,18.18,8.32h.14s-.05.7-.05.7l-.45,6.09-6.09-.45c-3.57,1.13-8.19,1.48-13.04,1.12-4.85-.36-9.23-1.38-12.59-3.03l-6.09-.45.52-6.93h.14c1.54-3.78,9.51-6.11,19.34-5.37ZM696.19,114.02h0c-.18-3.22-6.73-6.91-17.12-7.68-10.39-.77-17.28,2.06-17.92,4.93v.14s-.35,4.57-.35,4.57l4.85.36h.14c3.23,1.5,7.6,2.67,12.31,3.02,4.71.35,9.33,0,12.75-1l.15-.13,4.85.36.34-4.57Z"/>
    </g>
    <g>
      <path class="st11" d="M660.67,117.78c.3-4.02,8.43-6.61,18.13-5.89,9.7.72,17.21,4.48,16.92,8.5"/>
      <path d="M678.83,111.47c9.97.74,17.62,4.65,17.3,8.95l-.69-.05c.28-3.74-7.38-7.51-16.66-8.2-9.28-.69-17.41,1.91-17.69,5.65l-.69-.05c.32-4.29,8.32-7.04,18.43-6.29Z"/>
    </g>
    <g>
      <path class="st11" d="M696.51,119.05c-.3,4.02-8.71,6.59-18.68,5.85-9.97-.74-17.91-4.54-17.61-8.55"/>
      <path d="M659.39,116.29l1.39.1c-.24,3.19,6.58,7.04,17.11,7.82,10.53.78,17.7-2.02,17.94-5.21l1.39.1c-.33,4.43-8.9,7.28-19.42,6.49-10.53-.78-18.72-4.88-18.39-9.31h0Z"/>
    </g>
  </g>
  <g>
    <g>
      <path class="st20" d="M400,88.15l3.07,4.63h0c1.8,3.47-3.22,10.47-11.33,15.84-8.1,5.37-16.51,7.28-19,4.27h0l-3.07-4.63,4.51-2.99c2.01-3,5.33-6.03,9.5-8.8,4.17-2.76,8.37-4.72,11.8-5.32l4.51-2.99Z"/>
      <path d="M392.05,109.08c-8.1,5.37-16.31,7.32-19.46,4.57l-.12.08-.38-.58-3.38-5.09,5.09-3.38c2.13-3.08,5.56-6.19,9.61-8.87,4.05-2.69,8.14-4.56,11.8-5.32l5.09-3.38,3.84,5.79-.12.08c1.11,3.93-3.76,10.66-11.98,16.11h0ZM373.17,112.27h0c2.11,2.43,9.55,1.33,18.23-4.42,8.68-5.76,12.4-12.22,11.13-14.88l-.08-.12-2.53-3.82-4.05,2.69-.12.08c-3.47.8-7.63,2.56-11.57,5.17-3.94,2.61-7.37,5.72-9.46,8.6l-.04.19-4.05,2.69,2.53,3.82Z"/>
    </g>
    <g>
      <path class="st11" d="M398.93,87.53c2.23,3.36-2.61,10.39-10.71,15.77-8.1,5.37-16.35,7.01-18.58,3.65"/>
      <path d="M388.45,103.64c-8.33,5.53-16.77,7.12-19.15,3.53l.58-.38c2.07,3.13,10.44,1.41,18.19-3.73,7.76-5.14,12.59-12.18,10.52-15.3l.58-.38c2.38,3.59-2.26,10.66-10.71,16.27h0Z"/>
    </g>
    <g>
      <path class="st11" d="M369.83,108.49c-2.23-3.36,2.84-10.55,11.17-16.07,8.33-5.53,16.93-7.39,19.16-4.03"/>
      <path d="M400.85,87.92l-1.16.77c-1.77-2.66-9.51-1.53-18.31,4.31-8.8,5.83-12.74,12.45-10.98,15.11l-1.16.77c-2.46-3.7,2.57-11.2,11.37-17.04,8.8-5.83,17.78-7.62,20.23-3.92Z"/>
    </g>
  </g>
  <g>
    <g>
      <path class="st20" d="M468.2,46.99l-1.37,5.39h0c-1.36,3.67-9.92,4.65-19.34,2.26-9.42-2.39-16.48-7.33-15.93-11.2h0l1.37-5.39,5.25,1.33c3.57-.53,8.05-.11,12.9,1.12,4.85,1.23,9.12,3.03,11.87,5.16l5.25,1.33Z"/>
      <path d="M447.35,55.17c-9.42-2.39-16.38-7.16-16.47-11.34l-.13-.03.17-.67,1.5-5.92,5.92,1.5c3.71-.49,8.32-.04,13.03,1.16,4.71,1.19,8.85,2.96,11.87,5.16l5.92,1.5-1.71,6.73-.13-.03c-2.17,3.46-10.42,4.38-19.98,1.95h0ZM432.3,43.33h0c-.38,3.2,5.43,7.97,15.53,10.53,10.1,2.56,17.38.97,18.5-1.76l.03-.13,1.13-4.44-4.71-1.19-.13-.03c-2.92-2.03-7.03-3.93-11.6-5.09-4.58-1.16-9.19-1.61-12.73-1.22l-.17.1-4.71-1.19-1.13,4.44Z"/>
    </g>
    <g>
      <path class="st11" d="M467.93,45.78c-.99,3.9-9.45,5.05-18.87,2.66-9.42-2.39-16.18-7.4-15.19-11.3"/>
      <path d="M448.96,48.84c-9.69-2.46-16.55-7.64-15.49-11.81l.67.17c-.92,3.63,5.97,8.68,14.99,10.96s17.48,1.14,18.4-2.5l.67.17c-1.06,4.17-9.42,5.49-19.24,3h0Z"/>
    </g>
    <g>
      <path class="st11" d="M432.86,38.31c.99-3.9,9.72-4.99,19.41-2.53s16.85,7.57,15.86,11.47"/>
      <path d="M468.94,47.46l-1.35-.34c.79-3.1-5.26-8.07-15.49-10.66-10.23-2.59-17.78-1.07-18.57,2.03l-1.35-.34c1.09-4.31,10.02-5.63,20.26-3.03,10.23,2.59,17.59,8.04,16.5,12.35h0Z"/>
    </g>
  </g>
  <g>
    <path class="st14" d="M254.72,394.49h-35.8v-12l-12.2-25.6v-16.8l7.6-9v-37.2s-1.2-9,7.6-9,7.8,9.5,7.8,9.5v32.3s7.3-2.7,11.9,2.2c0,0,9-2.7,13.2,4.1,0,0,9-.5,9.3,6.1s0,27.1,0,27.1l-8.5,16.1-.9,12.2Z"/>
    <path class="st12" d="M215.72,389.79h41.4v138.4h-41.4v-138.4Z"/>
    <path class="st18" d="M213.22,395.49h46.5v344.1h-46.5v-344.1Z"/>
    <path class="st19" d="M213.22,395.49h14.9v344.1h-14.9v-344.1Z"/>
  </g>
  <path class="st15" d="M227.76,294.61c0,4.34-2.63,3.45-5.82,3.45s-5.82.89-5.82-3.45,2.63-7.89,5.82-7.89,5.82,3.56,5.82,7.89Z"/>
  <g>
    <g>
      <path class="st20" d="M84.22,265.84l-2.88,4.75h0c-2.37,3.11-10.85,1.54-19.16-3.5-8.31-5.04-13.62-11.83-11.96-15.37h0l2.88-4.75,4.63,2.81c3.57.54,7.73,2.25,12.01,4.84,4.28,2.59,7.83,5.56,9.85,8.41l4.63,2.81Z"/>
      <path d="M61.89,267.56c-8.31-5.04-13.57-11.64-12.43-15.66l-.12-.07.36-.59,3.17-5.23,5.23,3.17c3.69.61,7.97,2.4,12.12,4.92s7.6,5.42,9.85,8.41l5.23,3.17-3.6,5.94-.12-.07c-3.09,2.68-11.25,1.14-19.68-3.98h0ZM50.96,251.84h0c-1.3,2.95,2.86,9.21,11.77,14.61,8.91,5.4,16.34,6.01,18.2,3.73l.07-.12,2.38-3.92-4.16-2.52-.12-.07c-2.2-2.8-5.57-5.81-9.61-8.26-4.04-2.45-8.32-4.23-11.82-4.89l-.19.05-4.16-2.52-2.38,3.92Z"/>
    </g>
    <g>
      <path class="st11" d="M84.32,264.6c-2.09,3.44-10.51,2.07-18.83-2.97-8.31-5.04-13.31-11.81-11.22-15.25"/>
      <path d="M65.28,261.98c-8.55-5.19-13.59-12.14-11.36-15.82l.59.36c-1.94,3.21,3.17,10.04,11.12,14.87,7.96,4.83,16.38,6.2,18.33,2.99l.59.36c-2.23,3.68-10.61,2.5-19.28-2.76Z"/>
    </g>
    <g>
      <path class="st11" d="M52.96,247.2c2.09-3.44,10.75-1.93,19.3,3.26,8.55,5.19,13.9,12.17,11.81,15.61"/>
      <path d="M84.79,266.51l-1.19-.72c1.66-2.73-2.67-9.25-11.7-14.73-9.03-5.47-16.69-6.22-18.35-3.49l-1.19-.72c2.3-3.8,11.23-2.45,20.26,3.03s14.47,12.84,12.16,16.64Z"/>
    </g>
  </g>
  <g>
    <g>
      <path class="st20" d="M534.22,335.84l-2.88,4.75h0c-2.37,3.11-10.85,1.54-19.16-3.5-8.31-5.04-13.62-11.83-11.96-15.37h0l2.88-4.75,4.63,2.81c3.57.54,7.73,2.25,12.01,4.84,4.28,2.59,7.83,5.56,9.85,8.41l4.63,2.81Z"/>
      <path d="M511.89,337.56c-8.31-5.04-13.57-11.64-12.43-15.66l-.12-.07.36-.59,3.17-5.23,5.23,3.17c3.69.61,7.97,2.4,12.12,4.92,4.16,2.52,7.6,5.42,9.85,8.41l5.23,3.17-3.6,5.94-.12-.07c-3.09,2.68-11.25,1.14-19.68-3.98h0ZM500.96,321.84h0c-1.3,2.95,2.86,9.21,11.77,14.61,8.91,5.4,16.34,6.01,18.2,3.73l.07-.12,2.38-3.92-4.16-2.52-.12-.07c-2.2-2.8-5.57-5.81-9.61-8.26-4.04-2.45-8.32-4.23-11.82-4.89l-.19.05-4.16-2.52-2.38,3.92Z"/>
    </g>
    <g>
      <path class="st11" d="M534.32,334.6c-2.09,3.44-10.51,2.07-18.83-2.97-8.31-5.04-13.31-11.81-11.22-15.25"/>
      <path d="M515.28,331.98c-8.55-5.19-13.59-12.14-11.36-15.82l.59.36c-1.94,3.21,3.17,10.04,11.12,14.87,7.96,4.83,16.38,6.2,18.33,2.99l.59.36c-2.23,3.68-10.61,2.5-19.28-2.76Z"/>
    </g>
    <g>
      <path class="st11" d="M502.96,317.2c2.09-3.44,10.75-1.93,19.3,3.26,8.55,5.19,13.9,12.17,11.81,15.61"/>
      <path d="M534.79,336.51l-1.19-.72c1.66-2.73-2.67-9.25-11.7-14.73-9.03-5.47-16.69-6.22-18.35-3.49l-1.19-.72c2.3-3.8,11.23-2.45,20.26,3.03s14.47,12.84,12.16,16.64Z"/>
    </g>
  </g>
</svg>