<?xml version="1.0" encoding="UTF-8"?>
<svg id="_レイヤー_1" data-name="レイヤー_1" xmlns="http://www.w3.org/2000/svg" version="1.1" viewBox="0 0 800 500">
  <!-- Generator: Adobe Illustrator 30.1.0, SVG Export Plug-In . SVG Version: 2.1.1 Build 136)  -->
  <defs>
    <style>
      .st0 {
        fill: #6f2e1b;
      }

      .st1 {
        fill: #384b66;
      }

      .st2 {
        fill: #938a67;
      }

      .st3 {
        fill: #f5c926;
      }

      .st4 {
        fill: #aea378;
      }

      .st5 {
        fill: #a59968;
      }

      .st6 {
        fill: #243242;
      }

      .st7 {
        fill: #060001;
      }

      .st8 {
        fill: #3a6d35;
      }

      .st9 {
        fill: #4c4543;
      }

      .st10 {
        fill: #22587c;
      }

      .st11 {
        fill: #446847;
      }

      .st12 {
        fill: #3282c5;
      }

      .st13 {
        fill: #e4e151;
      }

      .st14 {
        fill: #d5c687;
      }

      .st15 {
        fill: #c4341e;
      }

      .st16 {
        fill: #5c9664;
      }

      .st17 {
        fill: #de9213;
      }

      .st18 {
        fill: #293f2a;
      }

      .st19 {
        fill: #ee7b70;
      }

      .st20 {
        fill: #fff;
      }

      .st21 {
        fill: #fc635b;
      }

      .st22 {
        fill: #345137;
      }

      .st23 {
        fill: #af2f2c;
      }

      .st24 {
        fill: #547757;
      }

      .st25 {
        fill: #82bf27;
      }

      .st26 {
        fill: #9c5f24;
      }

      .st27 {
        fill: #d8c49c;
      }

      .st28 {
        fill: #c8599c;
      }

      .st29 {
        fill: #67c6ea;
      }
    </style>
  </defs>
  <rect class="st16" width="800" height="499.86"/>
  <path class="st14" d="M67.64,405.03h0c25.97,24.3,70.12,63.59,80.95,73.31,4.3,4.44,13.19,12.91,25.83,21.66h170.23c7.5-5.55,15.13-11.94,22.77-19.58,39.43-39.43,46.51-80.26,45.68-107.61-2.08-65.82-51.37-113.58-60.68-121.91l-62.07-59.01h0l-69.43-65.95-1.53-1.39c-4.17-3.61-25.41-26.66-26.1-47.35-.28-6.25,1.11-16.11,15-29.99,11.66-11.8,22.77-17.63,32.77-17.63.14,0,.28,0,.56.28,15.41.28,31.24,13.19,36.1,18.19l1.39,1.53,2.78,2.36c15.27,13.47,49.85,44.43,73.04,65.82h0c25.97,24.3,70.12,63.59,80.95,73.31,10.97,11.39,51.24,48.6,108.16,50.26,27.63.83,69.43-6.94,110.66-48.18,39.43-39.43,46.51-80.26,45.68-107.61-1.11-33.74-13.75-63.59-27.35-85.53h-145.52l40.41,40.13,1.53,1.39c4.17,3.61,25.41,26.66,26.1,47.35.28,6.25-1.11,16.11-15,29.99-11.66,11.8-22.77,17.63-32.77,17.63-.14,0-.28,0-.56-.28-15.41-.28-31.24-13.19-36.1-18.19l-1.39-1.53-2.78-2.36c-15.27-13.47-49.85-44.43-73.04-65.82h0c-15-13.89-35.82-32.91-52.9-48.18H111.93c-19.99,30.27-24.02,59.29-23.47,80.39,2.08,65.82,51.37,113.58,60.68,121.91l62.07,59.01h0l69.43,65.95,1.53,1.39c4.17,3.61,25.41,26.66,26.1,47.35.28,6.25-1.11,16.11-15,29.99-11.66,11.8-22.77,17.63-32.77,17.63-.14,0-.28,0-.56-.28-15.41-.28-31.24-13.19-36.1-18.19l-1.39-1.53-2.78-2.36c-15.27-13.47-49.85-44.43-73.04-65.82h0C121.23,311.86,11.94,219.52,0,208.83v138.71c.56.28,67.22,57.07,67.64,57.48Z"/>
  <path class="st5" d="M348.67,366.01c-.69,0-1.25-.56-1.39-1.11-.14-.83-.28-1.25-.28-1.25-.14-.69.28-1.53,1.11-1.67.69-.14,1.53.28,1.67,1.11,0,0,.14.56.28,1.39.14.69-.42,1.53-1.11,1.53-.14,0-.28,0-.28,0Z"/>
  <path class="st5" d="M313.12,447.93c-.56,0-1.11-.28-1.25-.83-.28-.69,0-1.53.69-1.81.83-.28,1.67-.69,2.36-1.11.69-.28,1.53,0,1.81.69s0,1.53-.69,1.81c-.83.42-1.67.69-2.5,1.11,0,.14-.28.14-.42.14ZM320.34,444.46c-.42,0-.97-.28-1.25-.69-.42-.69-.14-1.53.56-1.94.69-.42,1.53-.83,2.22-1.39.69-.42,1.53-.28,1.94.42s.28,1.53-.42,1.94c-.69.56-1.53.97-2.36,1.39-.28.14-.42.28-.69.28ZM327.01,439.88c-.42,0-.83-.14-1.11-.56-.42-.56-.42-1.53.28-1.94.69-.56,1.39-1.11,1.94-1.67s1.39-.42,1.94.14c.56.56.42,1.39-.14,1.94-.69.56-1.39,1.25-2.08,1.81-.28.14-.56.28-.83.28ZM332.84,434.32c-.28,0-.69-.14-.97-.42-.56-.56-.56-1.39-.14-1.94.56-.69,1.11-1.25,1.67-1.94.56-.56,1.39-.69,1.94-.14s.69,1.39.14,1.94c-.56.69-1.25,1.39-1.81,2.08-.14.28-.56.42-.83.42ZM337.84,428.08c-.28,0-.56-.14-.83-.28-.69-.42-.83-1.25-.42-1.94.56-.69.97-1.39,1.39-2.22.42-.69,1.25-.83,1.94-.42s.83,1.25.42,1.94c-.42.83-.97,1.53-1.53,2.36-.14.42-.56.56-.97.56ZM341.87,421.13c-.14,0-.42,0-.56-.14-.69-.28-.97-1.11-.69-1.81.42-.83.69-1.53,1.11-2.36.28-.69,1.11-.97,1.81-.69s.97,1.11.69,1.81c-.42.83-.69,1.67-1.11,2.5-.28.42-.83.69-1.25.69ZM344.92,413.77c-.14,0-.28,0-.42-.14-.69-.28-1.11-1.11-.83-1.81.28-.83.56-1.67.83-2.5.28-.69.97-1.11,1.81-.97.69.28,1.11.97.97,1.81-.28.83-.56,1.67-.83,2.64-.42.56-.97.97-1.53.97ZM347.28,406h-.28c-.69-.14-1.25-.97-.97-1.67.14-.83.42-1.67.56-2.64.14-.69.83-1.25,1.67-1.11.69.14,1.25.83,1.11,1.67-.14.83-.42,1.81-.56,2.64-.42.69-.97,1.11-1.53,1.11ZM348.67,398.08h-.14c-.69-.14-1.25-.83-1.11-1.53.14-.83.28-1.81.42-2.64.14-.69.83-1.25,1.53-1.25.69.14,1.25.83,1.25,1.53-.14.83-.28,1.81-.42,2.64-.14.83-.83,1.25-1.53,1.25ZM349.64,390.17q-.14,0,0,0c-.83,0-1.39-.69-1.39-1.53s.14-1.81.14-2.64.69-1.39,1.39-1.39c.83,0,1.39.69,1.39,1.39,0,.83-.14,1.81-.14,2.78-.14.83-.69,1.39-1.39,1.39ZM349.78,382.12c-.69,0-1.39-.56-1.39-1.39v-2.64c0-.83.56-1.39,1.39-1.39s1.39.56,1.39,1.39v2.78c0,.56-.56,1.25-1.39,1.25h0ZM349.5,374.06c-.69,0-1.39-.56-1.39-1.25-.14-.97-.14-1.81-.28-2.64-.14-.69.42-1.39,1.25-1.53.83,0,1.39.42,1.53,1.25.14.83.14,1.81.28,2.64,0,.83-.56,1.39-1.39,1.53.14,0,0,0,0,0Z"/>
  <path class="st5" d="M306.74,450.29c-.56,0-1.11-.42-1.39-.97-.28-.69.14-1.53.97-1.67.42-.14.83-.28,1.25-.42.69-.28,1.53.14,1.81.83s-.14,1.53-.83,1.81c-.42.14-.83.28-1.39.42-.14,0-.28,0-.42,0Z"/>
  <path class="st5" d="M333.81,362.4c-.69,0-1.25-.56-1.39-1.11-.14-.83-.28-1.25-.28-1.25-.14-.69.28-1.53,1.11-1.67.69-.14,1.53.28,1.67,1.11,0,0,.14.56.28,1.39.14.69-.42,1.53-1.11,1.53q-.14,0-.28,0Z"/>
  <path class="st5" d="M298.41,444.32c-.56,0-1.11-.28-1.25-.83-.28-.69,0-1.53.69-1.81.83-.28,1.67-.69,2.36-1.11.69-.28,1.53,0,1.81.69s0,1.53-.69,1.81c-.83.42-1.67.69-2.5,1.11-.14.14-.28.14-.42.14ZM305.49,440.85c-.42,0-.97-.28-1.25-.69-.42-.69-.14-1.53.56-1.94.69-.42,1.53-.83,2.22-1.39.69-.42,1.53-.28,1.94.42.42.69.28,1.53-.42,1.94-.69.56-1.53.97-2.36,1.39-.14.14-.42.28-.69.28ZM312.15,436.27c-.42,0-.83-.14-1.11-.56-.42-.56-.42-1.53.28-1.94.69-.56,1.39-1.11,1.94-1.67s1.39-.42,1.94.14.42,1.39-.14,1.94c-.69.56-1.39,1.25-2.08,1.81-.28.14-.56.28-.83.28ZM317.98,430.71c-.28,0-.69-.14-.97-.42-.56-.56-.56-1.39-.14-1.94.56-.69,1.11-1.25,1.67-1.94.56-.56,1.39-.69,1.94-.14s.69,1.39.14,1.94c-.56.69-1.25,1.39-1.81,2.08,0,.28-.42.42-.83.42ZM322.98,424.47c-.28,0-.56-.14-.83-.28-.69-.42-.83-1.25-.42-1.94.56-.69.97-1.39,1.39-2.22.42-.69,1.25-.83,1.94-.42s.83,1.25.42,1.94c-.42.83-.97,1.53-1.53,2.36-.14.28-.56.56-.97.56ZM327.01,417.52c-.14,0-.42,0-.56-.14-.69-.28-.97-1.11-.69-1.81.42-.83.69-1.53,1.11-2.36.28-.69,1.11-.97,1.81-.69s.97,1.11.69,1.81c-.42.83-.69,1.67-1.11,2.5-.28.42-.69.69-1.25.69ZM330.2,410.16c-.14,0-.28,0-.42-.14-.69-.28-1.11-1.11-.83-1.81.28-.83.56-1.67.83-2.5.28-.69.97-1.11,1.81-.97.69.28,1.11.97.97,1.81-.28.83-.56,1.67-.83,2.64-.42.56-.97.97-1.53.97ZM332.42,402.39h-.28c-.69-.14-1.25-.97-.97-1.67.14-.83.42-1.67.56-2.64.14-.69.83-1.25,1.67-1.11.69.14,1.25.83,1.11,1.67-.14.83-.42,1.81-.56,2.64-.28.69-.83,1.11-1.53,1.11ZM333.95,394.47h-.14c-.69-.14-1.25-.83-1.11-1.53.14-.83.28-1.81.42-2.64.14-.69.83-1.25,1.53-1.25.69.14,1.25.83,1.25,1.53-.14.83-.28,1.81-.42,2.64-.28.83-.83,1.25-1.53,1.25ZM334.78,386.42h0c-.83,0-1.39-.69-1.39-1.53s.14-1.81.14-2.64.69-1.39,1.39-1.39c.83,0,1.39.69,1.39,1.39,0,.83-.14,1.81-.14,2.78,0,.83-.69,1.39-1.39,1.39ZM335.06,378.51c-.69,0-1.39-.56-1.39-1.39v-2.64c0-.83.56-1.39,1.39-1.39.69,0,1.39.56,1.39,1.39v2.78c0,.56-.69,1.11-1.39,1.25h0ZM334.78,370.45c-.69,0-1.39-.56-1.39-1.25-.14-.97-.14-1.81-.28-2.64-.14-.69.42-1.39,1.25-1.53.83-.14,1.39.42,1.53,1.25.14.83.14,1.81.28,2.64,0,.69-.56,1.39-1.39,1.53h0Z"/>
  <path class="st5" d="M291.88,446.68c-.56,0-1.11-.42-1.39-.97-.28-.69.14-1.53.97-1.67.42-.14.83-.28,1.25-.42.69-.28,1.53.14,1.81.83s-.14,1.53-.83,1.81c-.42.14-.83.28-1.39.42-.14,0-.28,0-.42,0Z"/>
  <path class="st4" d="M441.14,177.31c-1.53,0-2.64-1.11-2.78-2.64v-.14c0-1.53,1.11-2.64,2.64-2.78l28.05-1.53-4.17-3.75c-.56-.56-.97-1.25-.97-2.08,0-.69.28-1.25.69-1.81.97-1.11,2.78-1.25,3.89-.28l9.16,8.19s.14,0,.14.14h0c.28.28.42.42.56.69.14.28.28.69.28,1.11v.14c0,.28,0,.69-.14.97s-.28.56-.56.83h0c-.28.28-.56.42-.83.56-.28.14-.69.28-1.11.28l-34.71,1.94-.14.14Z"/>
  <path class="st4" d="M411.01,151.62c-1.53,0-2.64-1.11-2.78-2.64v-.14c0-1.53,1.11-2.64,2.64-2.78l28.05-1.53-4.17-3.75c-.56-.56-.97-1.25-.97-2.08,0-.69.28-1.25.69-1.81.97-1.11,2.78-1.25,3.89-.28l9.16,8.19.14.14c.28.28.42.42.56.69.14.28.28.69.28.97h0v.14h0v.14c0,.28,0,.69-.14.97s-.28.69-.56.97h0c-.28.28-.56.42-.83.56-.28.14-.69.28-.97.28h0l-34.71,1.94q-.14,0-.28,0Z"/>
  <path class="st4" d="M174.83,201.75c-1.53,0-2.78-1.25-2.78-2.78v-28.05l-4.03,4.03c-1.11,1.11-2.78,1.11-3.89,0-.56-.56-.83-1.25-.83-1.94s.28-1.39.83-1.94l8.75-8.75h0c.28-.28.56-.42.83-.56.69-.28,1.53-.28,2.08,0,.28.14.56.28.83.56h0l.14.14h0c.28.28.42.56.56.83s.28.69.28,1.11v34.85c0,1.39-1.25,2.5-2.78,2.5Z"/>
  <path class="st4" d="M206.49,232.3c-1.53,0-2.78-1.25-2.78-2.78v-28.05l-4.03,4.03c-1.11,1.11-2.78,1.11-3.89,0-.56-.56-.83-1.25-.83-1.94s.28-1.39.83-1.94l8.75-8.75h0c.28-.28.56-.42.83-.56.69-.28,1.53-.28,2.08,0,.28.14.56.28.83.56h0l.14.14h0c.28.28.42.56.56.83s.28.69.28,1.11v34.85c0,1.25-1.25,2.5-2.78,2.5Z"/>
  <path class="st4" d="M142.62,456.26c-1.53,0-2.64-1.11-2.78-2.64v-.14c0-1.53,1.11-2.64,2.64-2.78l28.05-1.53-4.17-3.75c-.56-.56-.97-1.25-.97-2.08,0-.69.28-1.39.69-1.81.97-1.11,2.78-1.25,3.89-.28l9.16,8.19h0c.28.28.42.56.69.83.14.28.28.69.28.97h0v.14c0,.28,0,.69-.14.97s-.28.69-.56.97c-.28.28-.56.56-.83.69s-.69.28-1.11.28h0l-34.71,1.94h-.14Z"/>
  <path class="st4" d="M112.62,430.57c-1.53,0-2.64-1.11-2.78-2.64v-.14c0-1.53,1.11-2.64,2.64-2.78l28.05-1.53-4.17-3.75c-.56-.56-.97-1.25-.97-2.08,0-.69.28-1.25.69-1.81.97-1.11,2.78-1.25,3.89-.28l9.16,8.19s.14,0,.14.14c.28.28.42.42.56.69s.28.69.28,1.11v.14c0,.28,0,.69-.14.97s-.28.69-.56.97h0c-.28.28-.56.42-.83.56-.28.14-.69.28-1.11.28l-34.71,1.94h-.14Z"/>
  <circle class="st18" cx="272.72" cy="84.84" r="13.33" transform="translate(145.29 340.44) rotate(-80.78)"/>
  <circle class="st8" cx="271.05" cy="83.17" r="13.33" transform="translate(145.54 337.4) rotate(-80.78)"/>
  <circle class="st18" cx="231.06" cy="89" r="13.33"/>
  <circle class="st8" cx="229.4" cy="87.34" r="13.33"/>
  <circle class="st18" cx="272.58" cy="125.66" r="13.33"/>
  <circle class="st8" cx="270.91" cy="123.99" r="13.33" transform="translate(105.13 371.55) rotate(-80.78)"/>
  <circle class="st18" cx="315.48" cy="122.88" r="13.33"/>
  <circle class="st8" cx="313.82" cy="121.22" r="13.33"/>
  <circle class="st18" cx="305.76" cy="164.54" r="13.33"/>
  <circle class="st8" cx="304.1" cy="162.87" r="13.33"/>
  <circle class="st18" cx="350.47" cy="207.03" r="13.33"/>
  <circle class="st8" cx="348.81" cy="205.36" r="13.33"/>
  <circle class="st18" cx="392.13" cy="207.03" r="13.33"/>
  <circle class="st8" cx="390.46" cy="205.36" r="13.33"/>
  <circle class="st18" cx="350.47" cy="165.37" r="13.33"/>
  <circle class="st8" cx="348.81" cy="163.7" r="13.33"/>
  <circle class="st18" cx="458.78" cy="27.49" r="13.33"/>
  <circle class="st8" cx="457.11" cy="25.83" r="13.33"/>
  <circle class="st18" cx="515.71" cy="21.94" r="13.33"/>
  <circle class="st8" cx="514.04" cy="20.27" r="13.33"/>
  <circle class="st18" cx="499.04" cy="64.29" r="13.33"/>
  <circle class="st8" cx="497.38" cy="62.62" r="13.33"/>
  <circle class="st18" cx="545.98" cy="66.93" r="13.33"/>
  <circle class="st8" cx="544.31" cy="65.26" r="13.33"/>
  <circle class="st18" cx="543.2" cy="108.58" r="13.33"/>
  <circle class="st8" cx="541.53" cy="106.91" r="13.33"/>
  <circle class="st18" cx="698.71" cy="201.61" r="13.33"/>
  <circle class="st8" cx="697.04" cy="199.94" r="13.33"/>
  <circle class="st18" cx="668.16" cy="222.44" r="13.33"/>
  <circle class="st8" cx="666.5" cy="220.77" r="13.33"/>
  <circle class="st18" cx="644.56" cy="311.3" r="13.33"/>
  <circle class="st8" cx="642.89" cy="309.64" r="13.33"/>
  <circle class="st18" cx="602.9" cy="333.66" r="13.33"/>
  <circle class="st8" cx="601.24" cy="331.85" r="13.33"/>
  <circle class="st18" cx="602.9" cy="291.86" r="13.33"/>
  <circle class="st8" cx="601.24" cy="290.2" r="13.33"/>
  <circle class="st18" cx="700.1" cy="250.21" r="13.33"/>
  <circle class="st8" cx="698.43" cy="248.54" r="13.33"/>
  <rect class="st24" x="510.11" y="436.69" width="35.13" height="7.64" transform="translate(-156.94 502.14) rotate(-45)"/>
  <rect class="st27" x="507.46" y="434.09" width="35.13" height="7.64" transform="translate(-155.87 499.51) rotate(-45)"/>
  <rect class="st21" x="477.92" y="376.39" width="21.24" height="80.67" transform="translate(-151.58 467.51) rotate(-45)"/>
  <rect class="st23" x="492.84" y="360.98" width="21.24" height="80.67" transform="translate(-136.32 473.54) rotate(-45)"/>
  <rect class="st24" x="562.19" y="384.63" width="35.13" height="7.64" transform="translate(-104.87 523.72) rotate(-45)"/>
  <rect class="st27" x="559.54" y="382.03" width="35.13" height="7.64" transform="translate(-103.8 521.09) rotate(-45)"/>
  <rect class="st21" x="529.98" y="324.31" width="21.24" height="80.67" transform="translate(-99.5 489.06) rotate(-45)"/>
  <rect class="st23" x="544.9" y="308.9" width="21.24" height="80.67" transform="translate(-84.24 495.1) rotate(-45)"/>
  <rect class="st24" x="633.57" y="461.41" width="35.13" height="7.64" transform="translate(-138.25 596.68) rotate(-45)"/>
  <rect class="st27" x="630.91" y="458.8" width="35.13" height="7.64" transform="translate(-137.19 594.04) rotate(-45)"/>
  <rect class="st21" x="601.44" y="401" width="21.24" height="80.67" transform="translate(-132.8 562.05) rotate(-45)"/>
  <rect class="st23" x="616.26" y="385.69" width="21.24" height="80.67" transform="translate(-117.64 568.05) rotate(-45)"/>
  <rect class="st24" x="685.65" y="409.34" width="35.13" height="7.64" transform="translate(-86.18 618.26) rotate(-45)"/>
  <rect class="st27" x="683" y="406.74" width="35.13" height="7.64" transform="translate(-85.12 615.62) rotate(-45)"/>
  <rect class="st21" x="653.5" y="348.91" width="21.24" height="80.67" transform="translate(-80.72 583.61) rotate(-45)"/>
  <rect class="st23" x="668.42" y="333.7" width="21.24" height="80.67" transform="translate(-65.6 589.71) rotate(-45)"/>
  <path class="st6" d="M264.39,381.56h0c.69,0,1.39-.56,1.39-1.39v-6.11c0-.69-.56-1.39-1.39-1.39h0c-.69,0-1.39.56-1.39,1.39v6.11c0,.83.69,1.39,1.39,1.39Z"/>
  <path class="st1" d="M263.69,378.37h1.39c.69,0,1.39-.56,1.39-1.39v-2.92c0-.69-.56-1.39-1.39-1.39h-1.39c-.69,0-1.39.56-1.39,1.39v2.92c.14.83.69,1.39,1.39,1.39Z"/>
  <circle class="st15" cx="264.39" cy="371.56" r="2.08"/>
  <ellipse class="st17" cx="264.66" cy="372.4" rx=".97" ry="1.25"/>
  <path class="st6" d="M267.86,401h0c.69,0,1.39-.56,1.39-1.39v-6.11c0-.69-.56-1.39-1.39-1.39h0c-.69,0-1.39.56-1.39,1.39v6.11c0,.83.56,1.39,1.39,1.39Z"/>
  <path class="st1" d="M267.16,397.81h1.39c.69,0,1.39-.56,1.39-1.39v-2.92c0-.69-.56-1.39-1.39-1.39h-1.39c-.69,0-1.39.56-1.39,1.39v2.92c0,.69.56,1.39,1.39,1.39Z"/>
  <circle class="st15" cx="267.86" cy="391" r="2.08"/>
  <ellipse class="st17" cx="268.14" cy="391.84" rx=".97" ry="1.25"/>
  <path class="st6" d="M286.33,372.4h0c.69,0,1.39-.56,1.39-1.39v-6.11c0-.69-.56-1.39-1.39-1.39h0c-.69,0-1.39.56-1.39,1.39v6.11c.14.83.69,1.39,1.39,1.39Z"/>
  <path class="st1" d="M285.63,369.2h1.39c.69,0,1.39-.56,1.39-1.39v-2.92c0-.69-.56-1.39-1.39-1.39h-1.39c-.69,0-1.39.56-1.39,1.39v2.92c.14.69.69,1.39,1.39,1.39Z"/>
  <circle class="st15" cx="286.33" cy="362.4" r="2.08"/>
  <ellipse class="st17" cx="286.74" cy="363.09" rx=".97" ry="1.25"/>
  <path class="st6" d="M277.02,362.95h0c.69,0,1.39-.56,1.39-1.39v-6.11c0-.69-.56-1.39-1.39-1.39h0c-.69,0-1.39.56-1.39,1.39v6.11c.14.83.69,1.39,1.39,1.39Z"/>
  <path class="st1" d="M276.47,359.76h1.39c.69,0,1.39-.56,1.39-1.39v-2.92c0-.69-.56-1.39-1.39-1.39h-1.39c-.69,0-1.39.56-1.39,1.39v2.92c0,.83.56,1.39,1.39,1.39Z"/>
  <circle class="st15" cx="277.02" cy="352.96" r="2.08"/>
  <ellipse class="st17" cx="277.44" cy="353.79" rx=".97" ry="1.25"/>
  <path class="st0" d="M438.92,470.7h0c-.28,0-.42-.14-.42-.42v-2.64c0-.28.14-.42.42-.42h0c.28,0,.42.14.42.42v2.64c.14.28-.14.42-.42.42Z"/>
  <path class="st0" d="M440.73,470.7h0c-.28,0-.42-.14-.42-.42v-2.64c0-.28.14-.42.42-.42h0c.28,0,.42.14.42.42v2.64c0,.28-.28.42-.42.42Z"/>
  <path class="st0" d="M443.5,470.7h0c-.28,0-.42-.14-.42-.42v-2.64c0-.28.14-.42.42-.42h0c.28,0,.42.14.42.42v2.64c0,.28-.28.42-.42.42Z"/>
  <path class="st0" d="M445.17,470.7h0c-.28,0-.42-.14-.42-.42v-2.64c0-.28.14-.42.42-.42h0c.28,0,.42.14.42.42v2.64c0,.28-.14.42-.42.42Z"/>
  <path class="st20" d="M443.5,468.62h-3.05c-2.36,0-4.44-1.94-4.44-4.44h0c0-2.36,1.94-4.44,4.44-4.44h3.05c2.36,0,4.44,1.94,4.44,4.44h0c0,2.5-1.94,4.44-4.44,4.44Z"/>
  <path class="st20" d="M436.98,464.73h0c-1.53,0-2.78-1.25-2.78-2.78h0c0-1.53,1.25-2.78,2.78-2.78h0c1.53,0,2.78,1.25,2.78,2.78h0c0,1.53-1.25,2.78-2.78,2.78Z"/>
  <path class="st9" d="M436.56,464.87h0c-.56,0-.97-.42-.97-.97v-.97c0-.56.42-.97.97-.97h0c.56,0,.97.42.97.97v.97c0,.56-.42.97-.97.97Z"/>
  <path class="st0" d="M453.36,444.46h0c-.28,0-.42-.14-.42-.42v-2.64c0-.28.14-.42.42-.42h0c.28,0,.42.14.42.42v2.64c0,.28-.14.42-.42.42Z"/>
  <path class="st0" d="M455.03,444.46h0c-.28,0-.42-.14-.42-.42v-2.64c0-.28.14-.42.42-.42h0c.28,0,.42.14.42.42v2.64c0,.28-.14.42-.42.42Z"/>
  <path class="st0" d="M457.81,444.46h0c-.28,0-.42-.14-.42-.42v-2.64c0-.28.14-.42.42-.42h0c.28,0,.42.14.42.42v2.64c0,.28-.14.42-.42.42Z"/>
  <path class="st0" d="M459.47,444.46h0c-.28,0-.42-.14-.42-.42v-2.64c0-.28.14-.42.42-.42h0c.28,0,.42.14.42.42v2.64c0,.28-.14.42-.42.42Z"/>
  <path class="st20" d="M457.94,442.38h-3.05c-2.36,0-4.44-1.94-4.44-4.44h0c0-2.36,1.94-4.44,4.44-4.44h3.05c2.36,0,4.44,1.94,4.44,4.44h0c0,2.5-2.08,4.44-4.44,4.44Z"/>
  <path class="st20" d="M451.28,438.49h0c-1.53,0-2.78-1.25-2.78-2.78h0c0-1.53,1.25-2.78,2.78-2.78h0c1.53,0,2.78,1.25,2.78,2.78h0c0,1.53-1.25,2.78-2.78,2.78Z"/>
  <path class="st9" d="M451,438.63h0c-.56,0-.97-.42-.97-.97v-.97c0-.56.42-.97.97-.97h0c.56,0,.97.42.97.97v.97c-.14.56-.56.97-.97.97Z"/>
  <path class="st0" d="M467.25,486.12h0c-.28,0-.42-.14-.42-.42v-2.64c0-.28.14-.42.42-.42h0c.28,0,.42.14.42.42v2.64c0,.28-.14.42-.42.42Z"/>
  <path class="st0" d="M468.91,486.12h0c-.28,0-.42-.14-.42-.42v-2.64c0-.28.14-.42.42-.42h0c.28,0,.42.14.42.42v2.64c0,.28-.14.42-.42.42Z"/>
  <path class="st0" d="M471.69,486.12h0c-.28,0-.42-.14-.42-.42v-2.64c0-.28.14-.42.42-.42h0c.28,0,.42.14.42.42v2.64c0,.28-.14.42-.42.42Z"/>
  <path class="st0" d="M473.36,486.12h0c-.28,0-.42-.14-.42-.42v-2.64c0-.28.14-.42.42-.42h0c.28,0,.42.14.42.42v2.64c0,.28-.14.42-.42.42Z"/>
  <path class="st20" d="M471.83,484.03h-3.05c-2.36,0-4.44-1.94-4.44-4.44h0c0-2.36,1.94-4.44,4.44-4.44h3.05c2.36,0,4.44,1.94,4.44,4.44h0c0,2.5-2.08,4.44-4.44,4.44Z"/>
  <path class="st20" d="M465.16,480.14h0c-1.53,0-2.78-1.25-2.78-2.78h0c0-1.53,1.25-2.78,2.78-2.78h0c1.53,0,2.78,1.25,2.78,2.78h0c0,1.53-1.25,2.78-2.78,2.78Z"/>
  <path class="st9" d="M464.89,480.28h0c-.56,0-.97-.42-.97-.97v-.97c0-.56.42-.97.97-.97h0c.56,0,.97.42.97.97v.97c-.14.56-.56.97-.97.97Z"/>
  <path class="st0" d="M551.95,458.34h0c-.28,0-.42-.14-.42-.42v-2.64c0-.28.14-.42.42-.42h0c.28,0,.42.14.42.42v2.64c0,.28-.14.42-.42.42Z"/>
  <path class="st0" d="M553.61,458.34h0c-.28,0-.42-.14-.42-.42v-2.64c0-.28.14-.42.42-.42h0c.28,0,.42.14.42.42v2.64c0,.28-.14.42-.42.42Z"/>
  <path class="st0" d="M556.39,458.34h0c-.28,0-.42-.14-.42-.42v-2.64c0-.28.14-.42.42-.42h0c.28,0,.42.14.42.42v2.64c0,.28-.14.42-.42.42Z"/>
  <path class="st0" d="M558.06,458.34h0c-.28,0-.42-.14-.42-.42v-2.64c0-.28.14-.42.42-.42h0c.28,0,.42.14.42.42v2.64c0,.28-.14.42-.42.42Z"/>
  <path class="st20" d="M556.53,456.26h-3.05c-2.36,0-4.44-1.94-4.44-4.44h0c0-2.36,1.94-4.44,4.44-4.44h3.05c2.36,0,4.44,1.94,4.44,4.44h0c0,2.5-2.08,4.44-4.44,4.44Z"/>
  <path class="st20" d="M549.86,452.37h0c-1.53,0-2.78-1.25-2.78-2.78h0c0-1.53,1.25-2.78,2.78-2.78h0c1.53,0,2.78,1.25,2.78,2.78h0c0,1.53-1.25,2.78-2.78,2.78Z"/>
  <path class="st9" d="M549.59,452.51h0c-.56,0-.97-.42-.97-.97v-.97c0-.56.42-.97.97-.97h0c.56,0,.97.42.97.97v.97c-.14.56-.56.97-.97.97Z"/>
  <path class="st0" d="M579.72,476.4h0c-.28,0-.42-.14-.42-.42v-2.64c0-.28.14-.42.42-.42h0c.28,0,.42.14.42.42v2.64c0,.28-.14.42-.42.42Z"/>
  <path class="st0" d="M581.38,476.4h0c-.28,0-.42-.14-.42-.42v-2.64c0-.28.14-.42.42-.42h0c.28,0,.42.14.42.42v2.64c0,.28-.14.42-.42.42Z"/>
  <path class="st0" d="M584.16,476.4h0c-.28,0-.42-.14-.42-.42v-2.64c0-.28.14-.42.42-.42h0c.28,0,.42.14.42.42v2.64c0,.28-.14.42-.42.42Z"/>
  <path class="st0" d="M585.83,476.4h0c-.28,0-.42-.14-.42-.42v-2.64c0-.28.14-.42.42-.42h0c.28,0,.42.14.42.42v2.64c0,.28-.14.42-.42.42Z"/>
  <path class="st20" d="M584.3,474.31h-3.05c-2.36,0-4.44-1.94-4.44-4.44h0c0-2.36,1.94-4.44,4.44-4.44h3.05c2.36,0,4.44,1.94,4.44,4.44h0c0,2.5-2.08,4.44-4.44,4.44Z"/>
  <path class="st20" d="M577.63,470.42h0c-1.53,0-2.78-1.25-2.78-2.78h0c0-1.53,1.25-2.78,2.78-2.78h0c1.53,0,2.78,1.25,2.78,2.78h0c0,1.53-1.25,2.78-2.78,2.78Z"/>
  <path class="st9" d="M577.36,470.56h0c-.56,0-.97-.42-.97-.97v-.97c0-.56.42-.97.97-.97h0c.56,0,.97.42.97.97v.97c-.14.56-.56.97-.97.97Z"/>
  <path class="st0" d="M675.11,322.13h0c-.28,0-.42-.14-.42-.42v-2.64c0-.28.14-.42.42-.42h0c.28,0,.42.14.42.42v2.64c0,.28-.28.42-.42.42Z"/>
  <path class="st0" d="M676.77,322.13h0c-.28,0-.42-.14-.42-.42v-2.64c0-.28.14-.42.42-.42h0c.28,0,.42.14.42.42v2.64c0,.28-.28.42-.42.42Z"/>
  <path class="st0" d="M679.55,322.13h0c-.28,0-.42-.14-.42-.42v-2.64c0-.28.14-.42.42-.42h0c.28,0,.42.14.42.42v2.64c0,.28-.14.42-.42.42Z"/>
  <path class="st0" d="M681.22,322.13h0c-.28,0-.42-.14-.42-.42v-2.64c0-.28.14-.42.42-.42h0c.28,0,.42.14.42.42v2.64c0,.28-.14.42-.42.42Z"/>
  <path class="st20" d="M679.69,320.05h-3.05c-2.36,0-4.44-1.94-4.44-4.44h0c0-2.36,1.94-4.44,4.44-4.44h3.05c2.36,0,4.44,1.94,4.44,4.44h0c-.14,2.5-2.08,4.44-4.44,4.44Z"/>
  <path class="st20" d="M673.02,316.16h0c-1.53,0-2.78-1.25-2.78-2.78h0c0-1.53,1.25-2.78,2.78-2.78h0c1.53,0,2.78,1.25,2.78,2.78h0c0,1.53-1.25,2.78-2.78,2.78Z"/>
  <path class="st9" d="M672.61,316.3h0c-.56,0-.97-.42-.97-.97v-.97c0-.56.42-.97.97-.97h0c.56,0,.97.42.97.97v.97c0,.56-.42.97-.97.97Z"/>
  <path class="st0" d="M689.41,295.89h0c-.28,0-.42-.14-.42-.42v-2.64c0-.28.14-.42.42-.42h0c.28,0,.42.14.42.42v2.64c0,.28-.14.42-.42.42Z"/>
  <path class="st0" d="M691.07,295.89h0c-.28,0-.42-.14-.42-.42v-2.64c0-.28.14-.42.42-.42h0c.28,0,.42.14.42.42v2.64c0,.28-.14.42-.42.42Z"/>
  <path class="st0" d="M693.85,295.89h0c-.28,0-.42-.14-.42-.42v-2.64c0-.28.14-.42.42-.42h0c.28,0,.42.14.42.42v2.64c0,.28-.14.42-.42.42Z"/>
  <path class="st0" d="M695.52,295.89h0c-.28,0-.42-.14-.42-.42v-2.64c0-.28.14-.42.42-.42h0c.28,0,.42.14.42.42v2.64c0,.28-.14.42-.42.42Z"/>
  <path class="st20" d="M693.99,293.81h-3.05c-2.36,0-4.44-1.94-4.44-4.44h0c0-2.36,1.94-4.44,4.44-4.44h3.05c2.36,0,4.44,1.94,4.44,4.44h0c0,2.5-2.08,4.44-4.44,4.44Z"/>
  <path class="st20" d="M687.33,289.92h0c-1.53,0-2.78-1.25-2.78-2.78h0c0-1.53,1.25-2.78,2.78-2.78h0c1.53,0,2.78,1.25,2.78,2.78h0c0,1.53-1.25,2.78-2.78,2.78Z"/>
  <path class="st9" d="M687.05,290.06h0c-.56,0-.97-.42-.97-.97v-.97c0-.56.42-.97.97-.97h0c.56,0,.97.42.97.97v.97c-.14.56-.56.97-.97.97Z"/>
  <path class="st0" d="M703.29,337.55h0c-.28,0-.42-.14-.42-.42v-2.64c0-.28.14-.42.42-.42h0c.28,0,.42.14.42.42v2.64c0,.28-.14.42-.42.42Z"/>
  <path class="st0" d="M704.96,337.55h0c-.28,0-.42-.14-.42-.42v-2.64c0-.28.14-.42.42-.42h0c.28,0,.42.14.42.42v2.64c0,.28-.14.42-.42.42Z"/>
  <path class="st0" d="M707.74,337.55h0c-.28,0-.42-.14-.42-.42v-2.64c0-.28.14-.42.42-.42h0c.28,0,.42.14.42.42v2.64c0,.28-.14.42-.42.42Z"/>
  <path class="st0" d="M709.4,337.55h0c-.28,0-.42-.14-.42-.42v-2.64c0-.28.14-.42.42-.42h0c.28,0,.42.14.42.42v2.64c.14.28-.14.42-.42.42Z"/>
  <path class="st20" d="M707.88,335.46h-3.05c-2.36,0-4.44-1.94-4.44-4.44h0c0-2.36,1.94-4.44,4.44-4.44h3.05c2.36,0,4.44,1.94,4.44,4.44h0c0,2.5-2.08,4.44-4.44,4.44Z"/>
  <path class="st20" d="M701.21,331.57h0c-1.53,0-2.78-1.25-2.78-2.78h0c0-1.53,1.25-2.78,2.78-2.78h0c1.53,0,2.78,1.25,2.78,2.78h0c0,1.53-1.25,2.78-2.78,2.78Z"/>
  <path class="st9" d="M700.93,331.71h0c-.56,0-.97-.42-.97-.97v-.97c0-.56.42-.97.97-.97h0c.56,0,.97.42.97.97v.97c-.14.56-.56.97-.97.97Z"/>
  <circle class="st18" cx="418.51" cy="259.79" r="13.33"/>
  <circle class="st8" cx="416.84" cy="258.12" r="13.33"/>
  <circle class="st18" cx="144.98" cy="294.78" r="13.33"/>
  <circle class="st8" cx="143.31" cy="293.11" r="13.33"/>
  <circle class="st18" cx="201.9" cy="289.23" r="13.33"/>
  <circle class="st8" cx="200.24" cy="287.56" r="13.33"/>
  <circle class="st18" cx="185.1" cy="323.24" r="13.33"/>
  <circle class="st8" cx="183.44" cy="321.58" r="13.33"/>
  <circle class="st18" cx="93.18" cy="195.5" r="13.33"/>
  <circle class="st8" cx="91.52" cy="193.84" r="13.33"/>
  <circle class="st18" cx="124.15" cy="219.8" r="13.33"/>
  <circle class="st8" cx="122.48" cy="218.13" r="13.33"/>
  <circle class="st18" cx="107.35" cy="253.82" r="13.33"/>
  <circle class="st8" cx="105.68" cy="252.01" r="13.33"/>
  <circle class="st18" cx="232.03" cy="334.21" r="13.33"/>
  <circle class="st8" cx="230.37" cy="332.55" r="13.33"/>
  <circle class="st18" cx="229.26" cy="375.87" r="13.33"/>
  <circle class="st8" cx="227.59" cy="374.2" r="13.33"/>
  <rect class="st11" x="449.68" y="316.56" width="30.13" height="26.94" transform="translate(-97.25 425.29) rotate(-45)"/>
  <rect class="st3" x="446.57" y="313.5" width="30.13" height="26.94" transform="translate(-95.99 422.19) rotate(-45)"/>
  <rect class="st12" x="440.97" y="306.42" width="32.21" height="32.21" transform="translate(-94.18 417.67) rotate(-45)"/>
  <rect class="st10" x="454.72" y="300.72" width="16.11" height="32.21" transform="translate(-88.49 420.02) rotate(-45)"/>
  <path class="st2" d="M504.6,180.37l-.14-7.91c0-2.36,2.08-4.3,4.58-4.44l23.74-.28c2.64,0,4.72,1.81,4.72,4.3l.14,7.91c0,2.36-2.08,4.3-4.58,4.44l-23.74.28c-2.5,0-4.58-1.81-4.72-4.3Z"/>
  <path class="st13" d="M537.23,172.87v3.19c0,3.47-2.78,6.39-6.25,6.39l-21.24.28c-3.47,0-6.39-2.78-6.39-6.25v-3.19c0-3.47,2.78-6.39,6.25-6.39l21.24-.28c3.47,0,6.25,2.78,6.39,6.25Z"/>
  <path class="st7" d="M522.09,179.67l3.47,1.81-12.5.14v-1.81l9.03-.14"/>
  <path class="st7" d="M521.95,169.81l3.47-1.81-12.5.14v1.81l9.03-.14"/>
  <path class="st7" d="M527.37,168.01l.14,13.47-5.14-2.08-.14-9.16,5.14-2.22"/>
  <path class="st7" d="M506.96,172.04l.14,5.69,4.17,3.89-.14-13.47-4.17,3.89"/>
  <path class="st7" d="M537.23,171.9l.14,5c0,.28-.14.42-.42.42h0c-.28,0-.42-.14-.42-.42l-.14-5c0-.28.14-.42.42-.42h0c.14,0,.42.28.42.42Z"/>
  <path class="st7" d="M535.01,178.84c.14-.42.42-.69.56-.83s.42-.28.56-.14c.14.14.14.28.14.56s-.14.69-.28.97c-.14.42-.42.69-.56.83-.28.14-.42.28-.56.14-.14-.14-.14-.28-.14-.56s.14-.69.28-.97Z"/>
  <path class="st7" d="M535.84,169.4c.14.42.28.69.42.97,0,.28,0,.56-.14.56-.14.14-.28,0-.56-.14s-.42-.42-.69-.83c-.14-.42-.28-.69-.42-.97,0-.28,0-.56.14-.56.14-.14.28,0,.56.14.28.28.56.56.69.83Z"/>
  <path class="st7" d="M525.43,181.48c.42,0,.69.28.69.56v1.25c0,.42-.28.69-.56.69h0c-.42,0-.69-.28-.69-.56v-1.25c-.14-.42.14-.69.56-.69h0Z"/>
  <path class="st7" d="M525.15,165.51c.42,0,.69.28.69.56v1.25c0,.42-.28.69-.56.69h0c-.42,0-.69-.28-.69-.56v-1.25c0-.42.28-.69.56-.69h0Z"/>
  <path class="st7" d="M504.88,173.29c.14,0,.28.14.28.28v2.78c0,.14-.14.28-.28.28h0c-.14,0-.28-.14-.28-.28v-2.78c0-.14.14-.28.28-.28h0Z"/>
  <path class="st7" d="M505.01,180.09c-.28-.28-.42-.56-.42-.83-.14-.28-.14-.42,0-.42s.28,0,.42.14.42.42.69.69.42.56.42.83c.14.28.14.42,0,.42s-.28,0-.42-.14c-.28-.14-.56-.42-.69-.69Z"/>
  <path class="st7" d="M505.43,170.23c-.28.28-.42.56-.69.69-.14.14-.42.28-.42.14-.14,0-.14-.28,0-.42.14-.28.28-.56.42-.83.28-.28.42-.56.69-.69.14-.14.42-.28.42-.14.14,0,.14.28,0,.42-.14.28-.28.56-.42.83Z"/>
  <path class="st2" d="M360.61,368.79l-3.33,7.08c-.97,2.22-3.75,3.05-6.11,1.94l-21.52-10c-2.36-1.11-3.47-3.75-2.36-5.83l3.33-7.08c.97-2.22,3.75-3.05,6.11-1.94l21.52,10c2.22.97,3.33,3.61,2.36,5.83Z"/>
  <path class="st13" d="M326.73,357.54l1.39-2.92c1.53-3.19,5.28-4.58,8.33-3.05l19.16,9.03c3.19,1.53,4.58,5.28,3.05,8.33l-1.39,2.92c-1.53,3.19-5.28,4.58-8.33,3.05l-19.16-9.03c-3.19-1.39-4.58-5.14-3.05-8.33Z"/>
  <path class="st7" d="M343.25,358.1l-2.36-3.19,11.39,5.28-.83,1.67-8.19-3.75"/>
  <path class="st7" d="M339.09,366.98l-3.89.14,11.39,5.28.83-1.67-8.33-3.75"/>
  <path class="st7" d="M333.4,366.29l5.69-12.22,3.75,4.17-3.89,8.19-5.55-.14"/>
  <path class="st7" d="M353.53,371.56l2.36-5.14-2.08-5.28-5.69,12.22,5.42-1.81"/>
  <path class="st7" d="M326.31,358.37l2.08-4.58c.14-.14.42-.28.56-.14h0c.14.14.28.42.14.56l-2.08,4.58c-.14.14-.42.28-.56.14h0c-.14,0-.28-.28-.14-.56Z"/>
  <path class="st7" d="M331.17,353.24c-.28.28-.69.42-.97.56s-.56,0-.56,0c-.14-.14,0-.28.14-.56s.42-.56.69-.69.69-.42.97-.56.56,0,.56,0c.14.14,0,.28-.14.56,0,.14-.28.42-.69.69Z"/>
  <path class="st7" d="M326.31,361.15c0-.42,0-.83.14-1.11s.28-.42.42-.42.28.14.42.42.14.56.28.97c0,.42,0,.83-.14,1.11s-.28.42-.42.42-.28-.14-.42-.42-.14-.56-.28-.97Z"/>
  <path class="st7" d="M341.03,355.04c-.28-.14-.42-.56-.28-.83l.56-1.11c.14-.28.56-.42.83-.28h0c.28.14.42.56.28.83l-.56,1.11c-.14.28-.56.42-.83.28h0Z"/>
  <path class="st7" d="M334.23,369.48c-.28-.14-.42-.56-.28-.83l.56-1.11c.14-.28.56-.42.83-.28h0c.28.14.42.56.28.83l-.56,1.11c-.14.28-.56.42-.83.28h0Z"/>
  <path class="st7" d="M356.03,371.29c-.14,0-.14-.28-.14-.28l1.25-2.5c0-.14.28-.14.28-.14h0c.14,0,.14.28.14.28l-1.25,2.5c0,.14-.14.14-.28.14h0Z"/>
  <path class="st7" d="M358.81,365.18c0,.42.14.69,0,.97,0,.28-.14.42-.14.42-.14,0-.28-.14-.28-.28-.14-.28-.28-.56-.28-.83,0-.42-.14-.69,0-.97,0-.28.14-.42.14-.42.14,0,.28.14.28.28.14.14.28.42.28.83Z"/>
  <path class="st7" d="M354.22,373.79c.28-.14.69-.28.83-.42h.42c0,.14,0,.28-.28.42-.14.14-.42.42-.69.56-.28.14-.69.28-.83.42h-.42c0-.14,0-.28.28-.42.14-.14.28-.28.69-.56Z"/>
  <path class="st2" d="M347,63.59l5.55-5.55c1.67-1.67,4.58-1.53,6.39.28l16.8,16.8c1.81,1.81,1.94,4.72.28,6.39l-5.55,5.55c-1.67,1.67-4.58,1.53-6.39-.28l-16.8-16.8c-1.81-1.81-1.94-4.58-.28-6.39Z"/>
  <path class="st28" d="M373.66,81.51l-2.36,2.36c-2.5,2.5-6.53,2.5-8.89,0l-15-15c-2.5-2.5-2.5-6.53,0-8.89l2.36-2.36c2.5-2.5,6.53-2.5,8.89,0l15,15c2.5,2.36,2.5,6.39,0,8.89Z"/>
  <path class="st7" d="M358.25,75.4l1.11,3.75-8.89-8.89,1.25-1.25,6.53,6.39"/>
  <path class="st7" d="M365.19,68.45l3.75,1.11-8.89-8.89-1.25,1.25,6.39,6.53"/>
  <path class="st7" d="M370.33,71.09l-9.44,9.44-2.08-5.14,6.39-6.39,5.14,2.08"/>
  <path class="st7" d="M353.25,59.29l-4.03,4.03.14,5.69,9.44-9.44-5.55-.28"/>
  <path class="st7" d="M374.36,80.81l-3.47,3.47c-.14.14-.42.14-.56,0h0c-.14-.14-.14-.42,0-.56l3.47-3.47c.14-.14.42-.14.56,0h0c.14.14.14.42,0,.56Z"/>
  <path class="st7" d="M367.97,84.14c.42-.14.69-.14.97-.14s.42.14.56.28c0,.14-.14.28-.28.56-.28.14-.56.28-.97.42-.42.14-.69.14-.97.14s-.42-.14-.56-.28c0-.14.14-.28.28-.56.28-.14.56-.42.97-.42Z"/>
  <path class="st7" d="M375.19,78.17c-.14.42-.28.69-.42.97s-.42.28-.56.28-.28-.28-.28-.56,0-.69.14-.97c.14-.42.28-.69.42-.97s.42-.28.56-.28.28.28.28.56c0,.28,0,.56-.14.97Z"/>
  <path class="st7" d="M359.36,79.01c.28.28.28.69,0,.83l-.83.83c-.28.28-.69.28-.83,0h0c-.28-.28-.28-.69,0-.83l.83-.83c.14-.28.56-.28.83,0h0Z"/>
  <path class="st7" d="M370.61,67.76c.28.28.28.69,0,.83l-.83.83c-.28.28-.69.28-.83,0h0c-.28-.28-.28-.69,0-.83l.83-.83c.28-.28.56-.28.83,0h0Z"/>
  <path class="st7" d="M350.89,58.59c.14.14.14.28,0,.42l-1.94,1.94c-.14.14-.28.14-.42,0h0c-.14-.14-.14-.28,0-.42l1.94-1.94h.42Z"/>
  <path class="st7" d="M346.03,63.45c0-.42.14-.69.28-.83.14-.28.28-.42.28-.28s.14.14.14.42v.97c0,.42-.14.69-.28.83-.14.28-.28.42-.28.28s-.14-.14-.14-.42v-.97Z"/>
  <path class="st7" d="M353.39,56.93h-.97c-.28,0-.42-.14-.42-.14,0-.14.14-.28.28-.28.28-.14.56-.14.83-.28h.97c.28,0,.42.14.42.14,0,.14-.14.28-.28.28-.14.14-.56.14-.83.28Z"/>
  <path class="st2" d="M437.95,109.28l5.55-5.55c1.67-1.67,4.58-1.53,6.39.28l16.8,16.8c1.81,1.81,1.94,4.72.28,6.39l-5.55,5.55c-1.67,1.67-4.58,1.53-6.39-.28l-16.8-16.94c-1.94-1.81-1.94-4.58-.28-6.25Z"/>
  <path class="st28" d="M464.61,127.05l-2.36,2.36c-2.5,2.5-6.53,2.5-8.89,0l-15-15c-2.5-2.5-2.5-6.53,0-8.89l2.36-2.36c2.5-2.5,6.53-2.5,8.89,0l15,15c2.36,2.36,2.36,6.39,0,8.89Z"/>
  <path class="st7" d="M449.2,120.94l1.11,3.75-8.89-8.89,1.25-1.25,6.53,6.39"/>
  <path class="st7" d="M456.14,114l3.75,1.11-8.89-8.89-1.25,1.25,6.39,6.53"/>
  <path class="st7" d="M461.28,116.63l-9.44,9.44-2.08-5.14,6.39-6.39,5.14,2.08"/>
  <path class="st7" d="M444.06,104.83l-4.03,4.03.14,5.69,9.44-9.44-5.55-.28"/>
  <path class="st7" d="M465.16,126.35l-3.47,3.47c-.14.14-.42.14-.56,0h0c-.14-.14-.14-.42,0-.56l3.47-3.47c.14-.14.42-.14.56,0h0c.28.14.28.42,0,.56Z"/>
  <path class="st7" d="M458.78,129.69c.42-.14.69-.14.97-.14s.42.14.56.28c0,.14-.14.28-.28.56-.28.14-.56.28-.97.42-.42.14-.69.14-.97.14s-.42-.14-.56-.28c0-.14.14-.28.28-.56.28-.14.69-.42.97-.42Z"/>
  <path class="st7" d="M466.14,123.72c-.14.42-.28.69-.42.97s-.42.28-.56.28-.28-.28-.28-.56,0-.69.14-.97c.14-.42.28-.69.42-.97s.42-.28.56-.28.28.28.28.56c0,.28,0,.69-.14.97Z"/>
  <path class="st7" d="M450.17,124.55c.28.28.28.69,0,.83l-.83.83c-.28.28-.69.28-.83,0h0c-.28-.28-.28-.69,0-.83l.83-.83c.28-.28.69-.28.83,0h0Z"/>
  <path class="st7" d="M461.55,113.3c.28.28.28.69,0,.83l-.83.83c-.28.28-.69.28-.83,0h0c-.28-.28-.28-.69,0-.83l.83-.83c.14-.28.56-.28.83,0h0Z"/>
  <path class="st7" d="M441.7,104.28c.14.14.14.28,0,.42l-1.94,1.94c-.14.14-.28.14-.42,0h0c-.14-.14-.14-.28,0-.42l1.94-1.94c.14-.14.28-.14.42,0h0Z"/>
  <path class="st7" d="M436.98,109c0-.42.14-.69.28-.83.14-.28.28-.42.28-.28.14,0,.14.14.14.42v.97c0,.42-.14.69-.28.83-.14.28-.28.42-.28.28-.14,0-.14-.14-.14-.42-.14-.28-.14-.69,0-.97Z"/>
  <path class="st7" d="M444.2,102.47h-.97c-.28,0-.42-.14-.42-.14,0,0,.14-.28.28-.28.28-.14.56-.14.83-.28s.69,0,.97,0,.42.14.42.14c0,.14-.14.28-.28.28-.14.14-.42.14-.83.28Z"/>
  <path class="st2" d="M105.96,389.48l5.55-5.55c1.67-1.67,4.58-1.53,6.39.28l16.8,16.8c1.81,1.81,1.94,4.72.28,6.39l-5.55,5.55c-1.67,1.67-4.58,1.53-6.39-.28l-16.8-16.8c-1.94-1.94-2.08-4.72-.28-6.39Z"/>
  <path class="st29" d="M132.62,407.25l-2.36,2.36c-2.5,2.5-6.53,2.5-8.89,0l-15-15c-2.5-2.5-2.5-6.53,0-8.89l2.36-2.36c2.5-2.5,6.53-2.5,8.89,0l15,15c2.36,2.36,2.36,6.39,0,8.89Z"/>
  <path class="st7" d="M117.21,401.14l1.11,3.75-8.89-8.89,1.25-1.25,6.53,6.39"/>
  <path class="st7" d="M124.15,394.2l3.75,1.11-8.89-8.89-1.25,1.25,6.39,6.53"/>
  <path class="st7" d="M129.29,396.83l-9.44,9.44-2.08-5.14,6.39-6.39,5.14,2.08"/>
  <path class="st7" d="M112.07,385.03l-4.03,4.03.14,5.69,9.44-9.44-5.55-.28"/>
  <path class="st7" d="M133.17,406.55l-3.47,3.47c-.14.14-.42.14-.56,0h0c-.14-.14-.14-.42,0-.56l3.47-3.47c.14-.14.42-.14.56,0h0c.28.14.28.42,0,.56Z"/>
  <path class="st7" d="M126.79,409.89c.42-.14.69-.14.97-.14s.42.14.56.28-.14.28-.28.56-.56.28-.97.42-.69.14-.97.14-.42-.14-.56-.28c0-.14.14-.28.28-.56s.56-.28.97-.42Z"/>
  <path class="st7" d="M134.15,403.92c-.14.42-.28.69-.42.97-.14.28-.42.28-.56.28s-.28-.28-.28-.56,0-.69.14-.97c.14-.42.28-.69.42-.97.14-.28.42-.28.56-.28s.28.28.28.56c0,.28,0,.69-.14.97Z"/>
  <path class="st7" d="M118.18,404.75c.28.28.28.69,0,.83l-.83.83c-.28.28-.69.28-.83,0h0c-.28-.28-.28-.69,0-.83l.83-.83c.28-.28.69-.28.83,0h0Z"/>
  <path class="st7" d="M129.56,393.5c.28.28.28.69,0,.83l-.83.83c-.28.28-.69.28-.83,0h0c-.28-.28-.28-.69,0-.83l.83-.83c.14-.28.56-.28.83,0h0Z"/>
  <path class="st7" d="M109.71,384.48c.14.14.14.28,0,.42l-1.94,1.94c-.14.14-.28.14-.42,0h0c-.14-.14-.14-.28,0-.42l1.94-1.94c.14-.14.28-.14.42,0h0Z"/>
  <path class="st7" d="M104.85,389.2c0-.42.14-.69.28-.83.14-.28.28-.42.28-.28.14,0,.14.14.14.42v.97c0,.42-.14.69-.28.83-.14.28-.28.42-.28.28-.14,0-.14-.14-.14-.42v-.97Z"/>
  <path class="st7" d="M112.21,382.67h-.97c-.28,0-.42-.14-.42-.14,0-.14.14-.28.28-.28.28-.14.56-.14.83-.28h.97c.28,0,.42.14.42.14,0,0-.14.28-.28.28-.14.14-.42.14-.83.28Z"/>
  <path class="st2" d="M145.95,68.87l-3.89-6.8c-1.11-2.08-.28-4.72,1.94-6.11l20.69-11.66c2.22-1.25,5-.56,6.25,1.53l3.89,6.8c1.11,2.08.28,4.72-1.94,6.11l-20.69,11.66c-2.22,1.11-5,.56-6.25-1.53Z"/>
  <path class="st25" d="M171.91,46.38l1.67,2.78c1.67,3.05.69,6.94-2.36,8.61l-18.47,10.41c-3.05,1.67-6.94.69-8.61-2.36l-1.67-2.78c-1.67-3.05-.69-6.94,2.36-8.61l18.47-10.41c3.05-1.81,6.94-.69,8.61,2.36Z"/>
  <path class="st7" d="M161.92,59.57l3.89-.14-10.97,6.11-.83-1.53,7.91-4.44"/>
  <path class="st7" d="M157.06,50.96l2.08-3.33-10.97,6.11.83,1.53,8.05-4.3"/>
  <path class="st7" d="M160.94,46.79l6.53,11.66-5.55.56-4.44-7.91,3.47-4.3"/>
  <path class="st7" d="M144.98,60.12l2.78,5,5.55,1.39-6.53-11.66-1.81,5.28"/>
  <path class="st7" d="M171.5,45.54l2.5,4.3c.14.14,0,.42-.14.56h0c-.14.14-.42,0-.56-.14l-2.5-4.3c-.14-.14,0-.42.14-.56h0c.14-.14.42,0,.56.14Z"/>
  <path class="st7" d="M172.88,52.62c0-.42,0-.83.14-.97.14-.28.28-.42.42-.42s.28.14.42.42c.14.28.14.69.14.97,0,.42,0,.83-.14.97-.14.28-.28.42-.42.42s-.28-.14-.42-.42c0-.28-.14-.56-.14-.97Z"/>
  <path class="st7" d="M169.14,44.02c.28.28.56.42.83.69s.28.42.14.56-.28.14-.56.14-.56-.14-.97-.42c-.28-.28-.56-.42-.83-.69-.14-.28-.28-.42-.14-.56s.28-.14.56-.14.69.14.97.42Z"/>
  <path class="st7" d="M165.66,59.57c.28-.14.69,0,.83.28l.56,1.11c.14.28,0,.69-.28.83h0c-.28.14-.69,0-.83-.28l-.56-1.11c-.14-.28,0-.69.28-.83h0Z"/>
  <path class="st7" d="M157.89,45.54c.28-.14.69,0,.83.28l.56,1.11c.14.28,0,.69-.28.83h0c-.28.14-.69,0-.83-.28l-.56-1.11c-.14-.28,0-.56.28-.83h0Z"/>
  <path class="st7" d="M143.73,62.2c.14-.14.28,0,.28.14l1.39,2.5c.14.14,0,.28-.14.28h0c-.14.14-.28,0-.28-.14l-1.39-2.5s.14-.14.14-.28h0Z"/>
  <path class="st7" d="M147.06,68.18c-.28-.14-.56-.28-.83-.56-.14-.14-.28-.28-.28-.42s.28-.14.42-.14c.28,0,.56.14.83.28s.56.28.83.56c.14.14.28.28.28.42s-.28.14-.42.14c-.14-.14-.42-.14-.83-.28Z"/>
  <path class="st7" d="M142.75,59.29c0,.42-.14.69-.28.97s-.14.42-.28.42-.14-.14-.28-.42v-.97c0-.42.14-.69.28-.97s.14-.42.28-.42.14.14.28.42v.97Z"/>
  <path class="st2" d="M213.15,449.04l.83-7.78c.28-2.36,2.5-4.03,5.14-3.89l23.6,2.36c2.64.28,4.44,2.36,4.17,4.72l-.83,7.78c-.28,2.36-2.5,4.03-5.14,3.89l-23.6-2.36c-2.5-.28-4.44-2.36-4.17-4.72Z"/>
  <path class="st19" d="M245.92,445.43l-.28,3.19c-.28,3.47-3.47,5.97-6.94,5.69l-21.11-2.08c-3.47-.28-5.97-3.47-5.69-6.94l.28-3.19c.28-3.47,3.47-5.97,6.94-5.69l21.11,2.08c3.47.28,6.11,3.47,5.69,6.94Z"/>
  <path class="st7" d="M230.09,450.43l3.33,2.08-12.5-1.25.14-1.81,9.03.97"/>
  <path class="st7" d="M231.06,440.71l3.61-1.53-12.5-1.25-.14,1.81,9.03.97"/>
  <path class="st7" d="M236.76,439.46l-1.25,13.33-4.86-2.64.83-9.03,5.28-1.67"/>
  <path class="st7" d="M216.07,441.27l-.56,5.69,3.75,4.3,1.25-13.33-4.44,3.33"/>
  <path class="st7" d="M246.06,444.46l-.42,5c0,.28-.28.42-.42.42h0c-.28,0-.42-.28-.42-.42l.42-5c0-.28.28-.42.42-.42h0c.28,0,.42.14.42.42Z"/>
  <path class="st7" d="M243.14,450.99c.28-.28.42-.56.69-.83.28-.14.42-.28.56-.14.14.14.14.28.14.56s-.28.56-.42.97-.42.56-.69.83c-.28.14-.42.28-.56.14-.14-.14-.14-.28-.14-.56,0-.28.14-.56.42-.97Z"/>
  <path class="st7" d="M245.09,441.82c.14.42.28.69.28.97s0,.56-.14.56-.28,0-.56-.28c-.14-.14-.42-.56-.56-.83-.14-.42-.28-.69-.28-.97s0-.56.14-.56.28,0,.56.28c.14.14.42.56.56.83Z"/>
  <path class="st7" d="M233.28,452.51c.42,0,.56.28.56.69l-.14,1.25c0,.42-.28.56-.69.56h0c-.42,0-.56-.28-.56-.69l.14-1.25c0-.28.42-.56.69-.56h0Z"/>
  <path class="st7" d="M234.81,436.68c.42,0,.56.28.56.69l-.14,1.25c0,.42-.28.56-.69.56h0c-.42,0-.56-.28-.56-.69l.14-1.25c.14-.28.42-.56.69-.56h0Z"/>
  <path class="st7" d="M213.85,442.24c.14,0,.28.14.28.28l-.28,2.78c0,.14-.14.28-.28.28h0c-.14,0-.28-.14-.28-.28l.28-2.78c0-.14.14-.28.28-.28h0Z"/>
  <path class="st7" d="M213.15,449.04l-.42-.83v-.42c.14,0,.28,0,.42.14.14.14.42.42.56.69l.42.83v.42c-.14,0-.28,0-.42-.14-.14-.14-.42-.42-.56-.69Z"/>
  <path class="st7" d="M214.68,439.32c-.28.28-.56.56-.69.56-.28.14-.42.14-.42.14v-.42c.14-.28.28-.56.56-.83.28-.28.56-.56.69-.56.28-.14.42-.14.42-.14.14.14,0,.28,0,.42-.14.28-.42.56-.56.83Z"/>
  <circle class="st20" cx="366.3" cy="389.75" r="9.44"/>
  <circle class="st20" cx="380.19" cy="408.5" r="13.61"/>
  <circle class="st20" cx="345.06" cy="436.13" r="19.72"/>
  <circle class="st20" cx="144.42" cy="82.34" r="6.53"/>
  <circle class="st20" cx="155.81" cy="95.95" r="9.58"/>
  <circle class="st20" cx="138.45" cy="116.63" r="13.75"/>
  <circle class="st22" cx="289.24" cy="399.33" r="1.39"/>
  <path class="st26" d="M289.24,399.75h0c-.42,0-.83-.42-.83-.83v-6.94c0-.42.42-.83.83-.83h0c.42,0,.83.42.83.83v6.94c0,.42-.42.83-.83.83Z"/>
  <circle class="st22" cx="297.57" cy="384.06" r="1.39"/>
  <path class="st26" d="M297.57,384.48h0c-.42,0-.83-.42-.83-.83v-6.94c0-.42.42-.83.83-.83h0c.42,0,.83.42.83.83v6.94c0,.42-.42.83-.83.83Z"/>
  <circle class="st22" cx="275.36" cy="410.44" r="1.39"/>
  <path class="st26" d="M275.36,410.86h0c-.42,0-.83-.42-.83-.83v-6.94c0-.42.42-.83.83-.83h0c.42,0,.83.42.83.83v6.94c0,.42-.42.83-.83.83Z"/>
  <circle class="st22" cx="233.7" cy="42.49" r="1.39"/>
  <path class="st26" d="M233.7,42.9h0c-.42,0-.83-.42-.83-.83v-6.94c0-.42.42-.83.83-.83h0c.42,0,.83.42.83.83v6.94c0,.42-.42.83-.83.83Z"/>
  <circle class="st22" cx="219.82" cy="50.82" r="1.39"/>
  <path class="st26" d="M219.82,51.24h0c-.42,0-.83-.42-.83-.83v-6.94c0-.42.42-.83.83-.83h0c.42,0,.83.42.83.83v6.94c0,.42-.42.83-.83.83Z"/>
  <circle class="st22" cx="207.32" cy="64.7" r="1.39"/>
  <path class="st26" d="M207.32,65.12h0c-.42,0-.83-.42-.83-.83v-6.94c0-.42.42-.83.83-.83h0c.42,0,.83.42.83.83v6.94c0,.42-.42.83-.83.83Z"/>
  <circle class="st22" cx="562.78" cy="124.41" r="1.39"/>
  <path class="st26" d="M562.78,124.83h0c-.42,0-.83-.42-.83-.83v-6.94c0-.42.42-.83.83-.83h0c.42,0,.83.42.83.83v6.94c0,.42-.42.83-.83.83Z"/>
  <circle class="st22" cx="575.27" cy="113.3" r="1.39"/>
  <path class="st26" d="M575.27,113.72h0c-.42,0-.83-.42-.83-.83v-6.94c0-.42.42-.83.83-.83h0c.42,0,.83.42.83.83v6.94c0,.42-.42.83-.83.83Z"/>
  <circle class="st22" cx="583.6" cy="99.42" r="1.39"/>
  <path class="st26" d="M583.6,99.83h0c-.42,0-.83-.42-.83-.83v-6.94c0-.42.42-.83.83-.83h0c.42,0,.83.42.83.83v6.94c0,.42-.42.83-.83.83Z"/>
  <circle class="st22" cx="584.99" cy="79.98" r="1.39"/>
  <path class="st26" d="M584.99,80.39h0c-.42,0-.83-.42-.83-.83v-6.94c0-.42.42-.83.83-.83h0c.42,0,.83.42.83.83v6.94c0,.42-.42.83-.83.83Z"/>
</svg>