<?xml version="1.0" encoding="UTF-8"?>
<svg id="_レイヤー_1" data-name="レイヤー_1" xmlns="http://www.w3.org/2000/svg" version="1.1" viewBox="0 0 800 500">
  <!-- Generator: Adobe Illustrator 30.1.0, SVG Export Plug-In . SVG Version: 2.1.1 Build 136)  -->
  <defs>
    <style>
      .st0 {
        fill: #2e81ff;
      }

      .st1 {
        fill: #29ff5e;
      }

      .st2 {
        fill: #9e66ff;
      }

      .st3 {
        fill: #f8ff66;
      }

      .st4 {
        fill: #34662c;
      }

      .st5 {
        fill: #ff6684;
      }

      .st6 {
        fill: #ff6d55;
      }
    </style>
  </defs>
  <g id="_レイヤー_11" data-name="レイヤー_1">
    <rect class="st4" width="800" height="498.61"/>
  </g>
  <g id="_レイヤー_3" data-name="レイヤー_3">
    <circle cx="108.84" cy="45.71" r="41.55"/>
    <circle cx="191.94" cy="45.71" r="41.55"/>
    <circle cx="274.21" cy="45.71" r="41.55"/>
    <circle cx="357.32" cy="45.71" r="41.55"/>
    <circle cx="441.25" cy="45.71" r="41.55"/>
    <circle cx="524.35" cy="45.71" r="41.55"/>
    <circle cx="606.62" cy="45.71" r="41.55"/>
    <circle cx="689.73" cy="45.71" r="41.55"/>
    <circle cx="108.84" cy="128.81" r="41.55"/>
    <circle cx="191.94" cy="128.81" r="41.55"/>
    <circle cx="274.21" cy="128.81" r="41.55"/>
    <circle cx="357.32" cy="128.81" r="41.55"/>
    <circle cx="441.25" cy="128.81" r="41.55"/>
    <circle cx="524.35" cy="128.81" r="41.55"/>
    <circle cx="606.62" cy="128.81" r="41.55"/>
    <circle cx="689.73" cy="128.81" r="41.55"/>
    <circle cx="108.84" cy="210.53" r="41.55"/>
    <circle cx="191.94" cy="210.53" r="41.55"/>
    <circle cx="274.21" cy="210.53" r="41.55"/>
    <circle cx="357.32" cy="210.53" r="41.55"/>
    <circle cx="441.25" cy="210.53" r="41.55"/>
    <circle cx="524.35" cy="210.53" r="41.55"/>
    <circle cx="606.62" cy="210.53" r="41.55"/>
    <circle cx="689.73" cy="210.53" r="41.55"/>
    <circle cx="108.84" cy="293.63" r="41.55"/>
    <circle cx="191.94" cy="293.63" r="41.55"/>
    <circle cx="274.21" cy="293.63" r="41.55"/>
    <circle cx="357.32" cy="293.63" r="41.55"/>
    <circle cx="441.25" cy="293.63" r="41.55"/>
    <circle cx="524.35" cy="293.63" r="41.55"/>
    <circle cx="606.62" cy="293.63" r="41.55"/>
    <circle cx="689.73" cy="293.63" r="41.55"/>
    <circle cx="108.84" cy="375.35" r="41.55"/>
    <circle cx="191.94" cy="375.35" r="41.55"/>
    <circle cx="274.21" cy="375.35" r="41.55"/>
    <circle cx="357.32" cy="375.35" r="41.55"/>
    <circle cx="441.25" cy="375.35" r="41.55"/>
    <circle cx="524.35" cy="375.35" r="41.55"/>
    <circle cx="606.62" cy="375.35" r="41.55"/>
    <circle cx="689.73" cy="375.35" r="41.55"/>
    <circle cx="108.84" cy="458.45" r="41.55"/>
    <circle cx="191.94" cy="458.45" r="41.55"/>
    <circle cx="274.21" cy="458.45" r="41.55"/>
    <circle cx="357.32" cy="458.45" r="41.55"/>
    <circle cx="441.25" cy="458.45" r="41.55"/>
    <circle cx="524.35" cy="458.45" r="41.55"/>
    <circle cx="606.62" cy="458.45" r="41.55"/>
    <circle cx="689.73" cy="458.45" r="41.55"/>
    <circle class="st3" cx="108.84" cy="41.55" r="41.55"/>
    <circle class="st1" cx="191.94" cy="41.55" r="41.55"/>
    <circle class="st2" cx="274.21" cy="41.55" r="41.55"/>
    <circle class="st1" cx="357.32" cy="41.55" r="41.55"/>
    <circle class="st0" cx="441.25" cy="41.55" r="41.55"/>
    <circle class="st0" cx="524.35" cy="41.55" r="41.55"/>
    <circle class="st0" cx="606.62" cy="41.55" r="41.55"/>
    <circle class="st0" cx="689.73" cy="41.55" r="41.55"/>
    <circle class="st0" cx="108.84" cy="124.65" r="41.55"/>
    <circle class="st2" cx="191.94" cy="124.65" r="41.55"/>
    <circle class="st5" cx="274.21" cy="124.65" r="41.55"/>
    <circle class="st2" cx="357.32" cy="124.65" r="41.55"/>
    <circle class="st2" cx="441.25" cy="124.65" r="41.55"/>
    <circle class="st6" cx="524.35" cy="124.65" r="41.55"/>
    <circle class="st0" cx="606.62" cy="124.65" r="41.55"/>
    <circle class="st3" cx="689.73" cy="124.65" r="41.55"/>
    <circle class="st3" cx="108.84" cy="206.37" r="41.55"/>
    <circle class="st5" cx="191.94" cy="206.37" r="41.55"/>
    <circle class="st5" cx="274.21" cy="206.37" r="41.55"/>
    <circle class="st2" cx="357.32" cy="206.37" r="41.55"/>
    <circle class="st1" cx="441.25" cy="206.37" r="41.55"/>
    <circle class="st1" cx="524.35" cy="206.37" r="41.55"/>
    <circle class="st0" cx="606.62" cy="206.37" r="41.55"/>
    <circle class="st1" cx="689.73" cy="206.37" r="41.55"/>
    <circle class="st1" cx="108.84" cy="289.47" r="41.55"/>
    <circle class="st1" cx="191.94" cy="289.47" r="41.55"/>
    <circle class="st5" cx="274.21" cy="289.47" r="41.55"/>
    <circle class="st5" cx="357.32" cy="289.47" r="41.55"/>
    <circle class="st5" cx="441.25" cy="289.47" r="41.55"/>
    <circle class="st3" cx="524.35" cy="289.47" r="41.55"/>
    <circle class="st3" cx="606.62" cy="289.47" r="41.55"/>
    <circle class="st3" cx="689.73" cy="289.47" r="41.55"/>
    <circle class="st0" cx="108.84" cy="371.19" r="41.55"/>
    <circle class="st0" cx="191.94" cy="371.19" r="41.55"/>
    <circle class="st3" cx="274.21" cy="371.19" r="41.55"/>
    <circle class="st3" cx="357.32" cy="371.19" r="41.55"/>
    <circle class="st1" cx="441.25" cy="371.19" r="41.55"/>
    <circle class="st2" cx="524.35" cy="371.19" r="41.55"/>
    <circle class="st5" cx="606.62" cy="371.19" r="41.55"/>
    <circle class="st3" cx="689.73" cy="371.19" r="41.55"/>
    <circle class="st5" cx="108.84" cy="454.29" r="41.55"/>
    <circle class="st0" cx="191.94" cy="454.29" r="41.55"/>
    <circle class="st0" cx="274.21" cy="454.29" r="41.55"/>
    <circle class="st0" cx="357.32" cy="454.29" r="41.55"/>
    <circle class="st1" cx="441.25" cy="454.29" r="41.55"/>
    <circle class="st1" cx="524.35" cy="454.29" r="41.55"/>
    <circle class="st2" cx="606.62" cy="454.29" r="41.55"/>
    <circle class="st1" cx="689.73" cy="454.29" r="41.55"/>
  </g>
</svg>