<?xml version="1.0" encoding="UTF-8"?>
<svg id="_レイヤー_1" data-name="レイヤー_1" xmlns="http://www.w3.org/2000/svg" version="1.1" viewBox="0 0 800 500">
  <!-- Generator: Adobe Illustrator 30.1.0, SVG Export Plug-In . SVG Version: 2.1.1 Build 136)  -->
  <defs>
    <style>
      .st0 {
        fill: #4b4a60;
      }

      .st1 {
        fill: #6b6696;
      }

      .st2 {
        fill: #e6bdb9;
      }

      .st3 {
        fill: #4675a6;
      }

      .st4 {
        fill: #6facd8;
      }

      .st5 {
        fill: #a6d8e0;
      }

      .st6 {
        fill: #365f8b;
      }

      .st7 {
        stroke-width: .85px;
      }

      .st7, .st8, .st9 {
        fill: none;
        stroke: #fff;
      }

      .st8 {
        stroke-width: .78px;
      }
    </style>
  </defs>
  <path id="ID0.11805733013898134" class="st4" d="M0,292.92h800v207.08H0v-207.08Z"/>
  <path id="ID0.7838383368216455" class="st5" d="M183.04,476.67h82.5v2.64h-82.5v-2.64Z"/>
  <path id="ID0.6532673169858754" class="st1" d="M0,80.56h800v190.28H0V80.56Z"/>
  <path id="ID0.9685287745669484" class="st4" d="M0,213.61h800v286.39H0V213.61Z"/>
  <path id="ID0.764765425119549" class="st5" d="M100.54,443.75h82.5v2.64h-82.5v-2.64Z"/>
  <path id="ID0.7541771633550525" class="st5" d="M183.04,476.67h82.5v2.64h-82.5v-2.64Z"/>
  <path id="ID0.6178993042558432" class="st5" d="M351.51,456.39h56.25v2.64h-56.25v-2.64Z"/>
  <path id="ID0.5588157344609499" class="st5" d="M194.01,379.03h13.89v2.64h-13.89v-2.64Z"/>
  <path id="ID0.8969360888004303" class="st5" d="M675.82,362.36h13.89v2.64h-13.89v-2.64Z"/>
  <path id="ID0.7535734721459448" class="st5" d="M516.23,365.14h13.89v2.64h-13.89v-2.64Z"/>
  <path id="ID0.8679257151670754" class="st5" d="M478.87,377.78h13.89v2.64h-13.89v-2.64Z"/>
  <path id="ID0.5674832407385111" class="st5" d="M411.1,403.89h30v2.64h-30v-2.64Z"/>
  <path id="ID0.6344954944215715" class="st5" d="M634.71,410.97h30v2.64h-30v-2.64Z"/>
  <path id="ID0.5702418615110219" class="st5" d="M520.12,420.56h30v2.64h-30v-2.64Z"/>
  <path id="ID0.3650163523852825" class="st5" d="M437.62,476.67h82.5v2.64h-82.5v-2.64Z"/>
  <path id="ID0.658114134799689" class="st5" d="M600.12,460.28h82.5v2.64h-82.5v-2.64Z"/>
  <path id="ID0.7311739828437567" class="st5" d="M126.79,411.25h30v2.64h-30v-2.64Z"/>
  <path id="ID0.5295819034799933" class="st6" d="M0,173.61h800v12.5H0v-12.5Z"/>
  <path id="ID0.05743954470381141" class="st3" d="M163.87,253.89h-16.25l-80.42-23.33h16.25l80.42,23.33"/>
  <path id="ID0.5572879244573414" class="st3" d="M330.82,253.89h-16.25l-80.42-23.33h16.25l80.42,23.33"/>
  <path id="ID0.292948835529387" class="st3" d="M497.21,253.89h-16.25l-80.42-23.33h16.25l80.42,23.33"/>
  <path id="ID0.36667148396372795" class="st3" d="M664.71,253.89h-16.25l-80.42-23.33h16.39l80.28,23.33"/>
  <path id="ID0.3019709838554263" class="st6" d="M234.15,184.17h16.25v46.39h-16.25v-46.39Z"/>
  <path id="ID0.30197098385542631" data-name="ID0.3019709838554263" class="st6" d="M64.15,184.17h16.25v46.39h-16.25v-46.39Z"/>
  <path id="ID0.19985292898491025" class="st6" d="M401.1,184.17h16.25v46.39h-16.25v-46.39Z"/>
  <path id="ID0.6633460950106382" class="st6" d="M568.04,184.17h16.25v46.39h-16.25v-46.39Z"/>
  <path id="ID0.366671483963727951" data-name="ID0.36667148396372795" class="st3" d="M834.71,253.89h-16.25l-80.42-23.33h16.39l80.28,23.33"/>
  <path id="ID0.66334609501063821" data-name="ID0.6633460950106382" class="st6" d="M738.04,184.17h16.25v46.39h-16.25v-46.39Z"/>
  <path id="ID0.0108289266936481" class="st2" d="M0,145.28l351.83-54.58,448.17,54.58V0H0v145.28"/>
  <path id="ID0.950887440238148" class="st3" d="M0,253.89h800v2.22H0v-2.22Z"/>
  <path id="ID0.9726489540189505" class="st1" d="M431.23,145.28l145-40.56,140.28,40.56"/>
  <path id="ID0.39686434995383024" class="st0" d="M226.7,500l-6.25-111.66v-20.76l6.25-54.03v-17.97l37.8-85.57,4.52-10.78-44.18,10.78-16.1,12.64-35.13,13.44-5.46,9.85-5.46,15.3-15.3,9.85v-8.38l-5.59-7.72v-18.37l16.77-5.59,52.83-36.2,7.19-6.79,36.6-9.32,19.3-10.51,26.08-2.79,12.11,5.32,8.12,4.39,17.43-2.79-2.66-23.69,9.98-19.3,22.62-9.58s16.77-1.6,19.56,1.86c2.79,3.46,6.25,20.49,6.25,20.49l-1.6,21.43-11.45,15.84-10.91,8.38-4.66,1.6-1.86,5.32-2.53,1.2,17.43,11.45,1.6,5.86,21.16,12.78,20.23,8.65,6.52.93,22.62-22.62,14.24-17.03v-23.95l3.46-17.03,8.12-7.19,9.05,7.72,6.52,8.38v22.36l-9.05,14.64-32.87,51.24-10.91,11.18-11.84-.67-10.51-3.73-32.87-12.11-13.71-4.92-8.12,16.1-8.65,30.74-14.24,26.08-6.79,14.24v9.58l2.79,9.05-.27,3.99,4.92,20.23,1.6,47.51.27,8.65,8.38,11.45,15.84,17.7,5.59,18.63,1.2,24.09h-39.79l-5.59-27.81-11.84-21.43-1.2-13.31-6.79-15.17-17.97-34.47-6.79-5.59-12.11,76.39-2.53,25.15,1.2,16.24-42.59.13h0Z"/>
  <path id="ID0.9996748096309602" class="st5" d="M100.54,443.75h82.5v2.64h-82.5v-2.64Z"/>
  <path id="ID0.8053525728173554" class="st5" d="M364.43,456.25l43.33.14v2.64l-43.33-.35v-2.43Z"/>
  <path id="ID0.1165901804342866" class="st5" d="M194.01,379.03h13.89v2.64h-13.89v-2.64Z"/>
  <path id="ID0.2234251224435866" class="st5" d="M675.82,362.36h13.89v2.64h-13.89v-2.64Z"/>
  <path id="ID0.7305051418952644" class="st5" d="M516.23,365.14h13.89v2.64h-13.89v-2.64Z"/>
  <path id="ID0.43175859516486526" class="st5" d="M478.87,377.78h13.89v2.64h-13.89v-2.64Z"/>
  <path id="ID0.6124854641966522" class="st5" d="M411.1,403.89h30v2.64h-30v-2.64Z"/>
  <path id="ID0.9460578719154" class="st5" d="M634.71,410.97h30v2.64h-30v-2.64Z"/>
  <path id="ID0.919811759609729" class="st5" d="M520.12,420.56h30v2.64h-30v-2.64Z"/>
  <path id="ID0.06810119794681668" class="st5" d="M437.62,476.67h82.5v2.64h-82.5v-2.64Z"/>
  <path id="ID0.5947748878970742" class="st5" d="M600.12,460.28h82.5v2.64h-82.5v-2.64Z"/>
  <path id="ID0.09626264264807105" class="st5" d="M126.79,411.25h30v2.64h-30v-2.64Z"/>
  <path id="ID0.9540821784175932" class="st9" d="M431.23,388.47c17.51,0,33.38,2.52,44.87,6.59,11.49,4.07,18.6,9.7,18.6,15.91s-7.11,11.83-18.6,15.91c-11.49,4.07-27.36,6.59-44.87,6.59s-33.38-2.52-44.87-6.59c-11.49-4.07-18.6-9.7-18.6-15.91s7.11-11.83,18.6-15.91c11.49-4.07,27.36-6.59,44.87-6.59Z"/>
  <path id="ID0.10435991501435637" class="st7" d="M621.37,316.81c4.44,0,8.47.45,11.39,1.18,2.92.73,4.72,1.74,4.72,2.85s-1.81,2.12-4.72,2.85c-2.92.73-6.94,1.18-11.39,1.18s-8.47-.45-11.39-1.18c-2.92-.73-4.72-1.74-4.72-2.85s1.81-2.12,4.72-2.85c2.92-.73,6.94-1.18,11.39-1.18Z"/>
  <path id="ID0.6842003082856536" class="st8" d="M550.12,355.69c8.24,0,15.7.89,21.11,2.32,5.41,1.43,8.75,3.41,8.75,5.6s-3.35,4.16-8.75,5.6c-5.41,1.43-12.87,2.32-21.11,2.32s-15.7-.89-21.11-2.32c-5.41-1.43-8.75-3.41-8.75-5.6s3.35-4.16,8.75-5.6c5.41-1.43,12.87-2.32,21.11-2.32Z"/>
</svg>