<?xml version="1.0" encoding="UTF-8"?>
<svg id="_レイヤー_1" data-name="レイヤー_1" xmlns="http://www.w3.org/2000/svg" version="1.1" viewBox="0 0 800 500">
  <!-- Generator: Adobe Illustrator 30.1.0, SVG Export Plug-In . SVG Version: 2.1.1 Build 136)  -->
  <defs>
    <style>
      .st0, .st1, .st2, .st3, .st4, .st5, .st6, .st7, .st8, .st9, .st10, .st11, .st12, .st13, .st14, .st15 {
        stroke-miterlimit: 10;
      }

      .st0, .st2 {
        fill: #404041;
      }

      .st0, .st2, .st6, .st10, .st11 {
        stroke-width: .9px;
      }

      .st0, .st7, .st9, .st11, .st13 {
        stroke: #231f20;
      }

      .st1 {
        stroke: #2ca6e0;
      }

      .st1, .st4, .st5, .st8, .st9, .st12, .st14 {
        fill: none;
      }

      .st1, .st14 {
        stroke-width: 2px;
      }

      .st16 {
        fill: #1c5366;
      }

      .st2, .st3, .st6, .st8, .st10, .st12, .st15 {
        stroke: #000;
      }

      .st17 {
        fill: #f7d05e;
      }

      .st18 {
        fill: #4c3928;
      }

      .st3 {
        stroke-width: .98px;
      }

      .st3, .st6, .st8, .st10, .st11 {
        stroke-linecap: round;
      }

      .st3, .st19, .st13 {
        fill: #fff;
      }

      .st20 {
        fill: #231f20;
      }

      .st4, .st5, .st14 {
        stroke: #fff;
      }

      .st21 {
        fill: #597c51;
      }

      .st5 {
        stroke-width: 3px;
      }

      .st6 {
        fill: #f05a28;
      }

      .st22 {
        fill: #6ebd6c;
      }

      .st7 {
        fill: #faa51d;
      }

      .st7, .st9 {
        stroke-width: 1.2px;
      }

      .st23 {
        fill: #876641;
      }

      .st24 {
        fill: #0e6596;
      }

      .st25 {
        fill: #4385c6;
      }

      .st26 {
        fill: #739b7a;
      }

      .st10 {
        fill: #e6e7e8;
      }

      .st11 {
        fill: #929497;
      }

      .st27 {
        fill: #5faf5b;
      }

      .st28 {
        fill: #036eb7;
      }

      .st29 {
        fill: #c79f62;
      }

      .st30 {
        fill: #a3e29c;
      }

      .st15 {
        fill: #5e4a42;
      }

      .st31 {
        fill: #599654;
      }
    </style>
  </defs>
  <rect class="st31" x="-55.86" y="26.25" width="903.31" height="462.68"/>
  <rect class="st24" y="-39.12" width="800" height="73.41"/>
  <rect class="st24" y="473.11" width="800" height="73.41"/>
  <path class="st27" d="M298.22,465.96V34.04h32.12v431.92h-32.12Z"/>
  <path class="st27" d="M233.97,465.96V34.04h32.12v431.92h-32.12Z"/>
  <path class="st22" d="M266.09,465.96V34.04h32.12v431.92h-32.12Z"/>
  <path class="st22" d="M330.34,465.96V34.04h32.12v431.92h-32.12Z"/>
  <path class="st27" d="M362.47,465.96V34.04h32.12v431.92h-32.12Z"/>
  <path class="st22" d="M394.59,465.96V34.04h32.12v431.92h-32.12Z"/>
  <path class="st27" d="M426.72,465.96V34.04h32.12v431.92h-32.12Z"/>
  <path class="st22" d="M458.84,465.96V34.04h32.12v431.92h-32.12Z"/>
  <path class="st27" d="M490.97,465.96V34.04h32.12v431.92h-32.12Z"/>
  <path class="st22" d="M523.09,465.96V34.04h32.12v431.92h-32.12Z"/>
  <path class="st27" d="M555.22,465.96V34.04h32.12v431.92h-32.12Z"/>
  <path class="st22" d="M587.34,465.96V34.04h32.12v431.92h-32.12Z"/>
  <path class="st26" d="M566.54,250.64c0-1.11,1.37-2.01,3.05-2.01s3.05.9,3.05,2.01-1.37,2.01-3.05,2.01-3.05-.9-3.05-2.01Z"/>
  <path class="st26" d="M279.67,249.44c0-1.11,1.37-2.01,3.05-2.01s3.05.9,3.05,2.01-1.37,2.01-3.05,2.01-3.05-.9-3.05-2.01Z"/>
  <path class="st14" d="M556.02,465.96V34.04"/>
  <path class="st14" d="M427.52,129.53v240.94"/>
  <path class="st14" d="M556.02,370.47h-258.6"/>
  <path class="st14" d="M556.02,129.53h-258.6"/>
  <path class="st14" d="M297.42,34.04v431.92"/>
  <path class="st24" d="M233.97,34.04V-39.12h385.5V34.04H233.97Z"/>
  <path class="st24" d="M233.97,539.12v-73.16h385.5v73.16H233.97Z"/>
  <path class="st4" d="M243.93,199.97"/>
  <path class="st23" d="M619.47,465.96l-4.26-8.03h-7.95l-12.21,8.03v-201.34l12.21-8.03h7.95l4.26,8.03v201.34Z"/>
  <path class="st17" d="M607.26,457.93v-201.34h7.95v201.34h-7.95Z"/>
  <path class="st18" d="M595.05,465.96l12.21-8.03h7.95l4.26,8.03h-24.41Z"/>
  <path class="st29" d="M595.05,264.62l12.21-8.03v201.34l-12.21,8.03v-201.34Z"/>
  <path class="st23" d="M619.47,235.62l-4.26-8.03h-7.95l-12.21,8.03V34.28l12.21-8.03h7.95l4.26,8.03v201.34Z"/>
  <path class="st17" d="M607.26,227.59V26.25h7.95v201.34h-7.95Z"/>
  <path class="st18" d="M595.05,235.62l12.21-8.03h7.95l4.26,8.03h-24.41Z"/>
  <path class="st29" d="M595.05,34.28l12.21-8.03v201.34l-12.21,8.03V34.28Z"/>
  <path class="st29" d="M233.89,264.62l4.26-8.03h7.95l12.13,8.03v201.34l-12.13-8.03h-7.95l-4.26,8.03v-201.34Z"/>
  <path class="st17" d="M238.15,457.93v-201.34h7.95v201.34h-7.95Z"/>
  <path class="st18" d="M233.89,465.96l4.26-8.03h7.95l12.13,8.03h-24.33Z"/>
  <path class="st23" d="M258.22,465.96l-12.13-8.03v-201.34l12.13,8.03v201.34Z"/>
  <path class="st29" d="M233.89,34.28l4.26-8.03h7.95l12.13,8.03v201.34l-12.13-8.03h-7.95l-4.26,8.03V34.28Z"/>
  <path class="st17" d="M238.15,227.59V26.25h7.95v201.34h-7.95Z"/>
  <path class="st18" d="M233.89,235.62l4.26-8.03h7.95l12.13,8.03h-24.33Z"/>
  <path class="st23" d="M258.22,235.62l-12.13-8.03V26.25l12.13,8.03v201.34Z"/>
  <path class="st26" d="M258.22,235.38V34.28h16.7v201.1h-16.7Z"/>
  <path class="st26" d="M258.22,465.96v-201.1h16.7v201.1h-16.7Z"/>
  <path class="st16" d="M233.89,478.97v-13.01h385.58v13.01H233.89Z"/>
  <path class="st21" d="M233.89,472.46v-6.51h385.58v6.51H233.89Z"/>
  <path class="st30" d="M563.25,249.04h-273.06l-8.03-15.82h289.12l-8.03,15.82Z"/>
  <path class="st19" d="M282.16,233.21v-3.21h289.12v3.21h-289.12Z"/>
  <path class="st26" d="M291.39,252.33v-3.29h272.26v3.29h-272.26Z"/>
  <path class="st25" d="M245.37,493.75v-1.85h16.22v1.85h-16.22Z"/>
  <path class="st25" d="M266.26,513.82v-1.85h16.22v1.85h-16.22Z"/>
  <path class="st25" d="M311.15,498.89v-1.85h16.22v1.85h-16.22Z"/>
  <path class="st25" d="M321.67,523.46v-1.85h16.22v1.85h-16.22Z"/>
  <path class="st25" d="M352.99,491.34v-1.85h16.22v1.85h-16.22Z"/>
  <path class="st25" d="M377.09,507.4v-1.85h16.22v1.85h-16.22Z"/>
  <path class="st25" d="M438.85,501.3v-1.85h16.22v1.85h-16.22Z"/>
  <path class="st25" d="M449.37,525.87v-1.85h16.22v1.85h-16.22Z"/>
  <path class="st25" d="M480.69,493.75v-1.85h16.22v1.85h-16.22Z"/>
  <path class="st25" d="M504.78,509.81v-1.85h16.22v1.85h-16.22Z"/>
  <path class="st25" d="M537.71,521.05v-1.85h16.22v1.85h-16.22Z"/>
  <path class="st25" d="M593.12,504.99v-1.85h16.22v1.85h-16.22Z"/>
  <path class="st25" d="M577.06,488.93v-1.85h16.22v1.85h-16.22Z"/>
  <path class="st25" d="M245.37-17.84v-1.85h16.22v1.85h-16.22Z"/>
  <path class="st25" d="M266.26,2.24V.39h16.22v1.85h-16.22Z"/>
  <path class="st25" d="M311.15-12.7v-1.85h16.22v1.85h-16.22Z"/>
  <path class="st25" d="M321.67,11.88v-1.85h16.22v1.85h-16.22Z"/>
  <path class="st25" d="M352.99-20.25v-1.85h16.22v1.85h-16.22Z"/>
  <path class="st25" d="M377.09-4.19v-1.85h16.22v1.85h-16.22Z"/>
  <path class="st25" d="M438.85-10.29v-1.85h16.22v1.85h-16.22Z"/>
  <path class="st25" d="M449.37,14.28v-1.85h16.22v1.85h-16.22Z"/>
  <path class="st25" d="M480.69-17.84v-1.85h16.22v1.85h-16.22Z"/>
  <path class="st25" d="M504.78-1.78v-1.85h16.22v1.85h-16.22Z"/>
  <path class="st25" d="M537.71,9.47v-1.85h16.22v1.85h-16.22Z"/>
  <path class="st25" d="M593.12-6.6v-1.85h16.22v1.85h-16.22Z"/>
  <path class="st25" d="M577.06-22.66v-1.85h16.22v1.85h-16.22Z"/>
  <path class="st5" d="M282.8,249.04l-11-17.43"/>
  <path class="st5" d="M579.71,231.61l-10.12,19.03"/>
  <path d="M375.7,129.41c5.19,0,9.89.91,13.3,2.37,3.41,1.47,5.51,3.49,5.51,5.72s-2.11,4.26-5.51,5.72c-3.41,1.47-8.11,2.37-13.3,2.37s-9.89-.91-13.3-2.37c-3.41-1.47-5.51-3.49-5.51-5.72s2.11-4.26,5.51-5.72c3.41-1.47,8.11-2.37,13.3-2.37Z"/>
  <path class="st6" d="M377.42,128.97l1.81,1.81s.48.39.4.94c-.08.55-1.27,3.49-1.27,3.49,0,0,2.27.15,2.26.82,0,.66-4.74.15-4.74.15l.82-4.06-1.75-2.42"/>
  <path class="st6" d="M370.78,123.4s-1.24,4.18-3.41,3.55c-1.16-.34-.86-2.28-.69-2.89.26-.89.29-1.14.97-1.8.67-.66,3.11-3.11,4.21-3.73,1.72-.95,5.1-1.87,2.1,1.67,0,0-1.85,1.81-3.06,3.05l-.12.14h0Z"/>
  <path class="st6" d="M378.9,124.25h0v.1c.19.6.33,1.35.27,2.13-.31,4.07-4.94,4.18-4.94,4.18-6.04,0-4.99-3.9-4.45-5.4.34-.96,1.34-4.07,1.34-4.07,0,0,.62-2.78.9-3.68.33-1.05,1.84-2.07,4.28-1.82,4.32.44,3.22,3.4,3.22,3.4-.1.71-.71,4.48-.62,5.16h0Z"/>
  <path class="st6" d="M374.79,130.22l-.53,5.92s2.61.42,2.66,1.31c.05.9-5.95,0-5.95,0l1.15-7.44"/>
  <path class="st6" d="M375.16,121.49s.51,2.2,1.39,3.37c1.1,1.45,2.63,2.58,2.29,3.54-.24.66-.93,2.11-4.13-.69-2.58-2.25-3.31-6.67-2.99-8.56"/>
  <path class="st6" d="M357.7,92.69s.36-1.49,3.47-4.67c3.1-3.17,6.46-4.27,8.68-5.18,2.23-.91,3.72-5.47,3.72-5.47,0,0,2.05,2.55,4.16,4.87,2.15,2.36,7.15,4.43,12.52,9.83.64.65,1.18,1.32,1.64,2.02l.09.08c1.2,1.04,5.45,5.18,4.9,11.22-.42,4.6-2.51,6.05-3.52,6.44v.03c.51-1.03.82-2.13.97-3.25.48-3.68-1.5-6.08-2.77-9.28-1.65-4.16-6.16-6.49-12.01-6.38-11.12.22-13.57,6.47-13.57,6.47v.08c2.06,3.83,2.88,12.33-1.35,14.88-4.55,2.74-11.29,1.78-13.92-8.79-2.4-9.68,4.79-12.73,6.91-12.7l.09-.2h0ZM391.87,94.08s2.92,4.64,1.97,10.37M357.61,92.89c2.05.06,3.42,1.52,3.42,1.52M365.95,99.51c-.34-.54-.58-.98-.58-.98"/>
  <path class="st2" d="M393.98,110.28s.92-1.67,1.54-4.73c.62-3.06-.21-7.23-.21-7.23,1.03,1.87,1.81,4.26,1.56,7.06-.4,4.48-2.48,6.01-3.52,6.44l.63-1.54h0Z"/>
  <path class="st0" d="M350.94,106.53h0c-.47-1.81-.88-4.64-.5-6.84.39-2.27,1.72-3.74,3.19-4.1,2.75-.67,6.08,3.3,7.43,8.86,1.27,5.24.35,10.03-2.07,11.13,0,0-.79.1-2.39-.78-1.59-.88-2.97-2.38-3.54-3.35-.56-.97-1.66-3.1-2.13-4.91Z"/>
  <path class="st11" d="M352.65,101.91c1.06-.45,2.85,1.37,4.01,4.07,1.16,2.7,1.24,5.26.18,5.72-1.06.45-2.85-1.37-4.01-4.07-1.16-2.7-1.24-5.26-.18-5.72h0ZM357.3,111.26c-4.36-2.76-4.31-9.42-4.31-9.42"/>
  <path class="st10" d="M364.25,114.63h0l-.02-.03c.13-.07.26-.14.39-.22,4.23-2.55,3.4-11.07,1.33-14.89l.02-.07s2.45-6.25,13.58-6.47c5.84-.12,10.36,2.22,12.01,6.38,1.27,3.2,3.26,5.6,2.77,9.28-.51,3.83-2.96,7.5-9.27,8.99-6.31,1.5-6.06.7-8.17,1.6-2.12.91-2.22,1.31-2.22,1.31,0,0,.68-1.33-2.03-2-4.09-1.02-7.86-3.53-8.37-3.88h0Z"/>
  <path class="st3" d="M381.18,113.79c-4.98.34-5.54-6.14-5.54-6.14,0,0,2.85-.09,6.52-.32,3.67-.23,4.56,0,4.56,0,0,0-.56,6.13-5.54,6.46h0Z"/>
  <path d="M388.74,103.62c-.06,0-.12,0-.19-.03-.35-.1-.56-.47-.45-.83.05-.16.06-.33.03-.5-.1-.64-.72-1.07-1.36-.97-.65.1-1.1.71-1,1.35.06.36-.19.7-.55.76-.37.06-.7-.19-.76-.55-.22-1.36.73-2.65,2.11-2.87,1.38-.21,2.67.72,2.89,2.08.06.37.03.73-.07,1.09-.09.29-.35.48-.64.48h0Z"/>
  <path d="M376.03,103.62c-.06,0-.12,0-.19-.03-.35-.1-.56-.47-.45-.83.05-.16.06-.33.03-.5-.1-.64-.72-1.07-1.37-.97-.65.1-1.1.71-1,1.35.06.36-.19.7-.55.76-.37.06-.7-.19-.76-.55-.22-1.36.73-2.65,2.11-2.87,1.37-.21,2.67.72,2.89,2.08.06.37.03.73-.07,1.09-.09.29-.35.48-.64.48h0Z"/>
  <path d="M490.22,367.62c5.78,0,11.02,1.35,14.81,3.52,3.79,2.17,6.14,5.18,6.14,8.49s-2.35,6.32-6.14,8.49c-3.79,2.17-9.03,3.52-14.81,3.52s-11.02-1.35-14.81-3.52c-3.79-2.17-6.14-5.18-6.14-8.49s2.35-6.32,6.14-8.49c3.79-2.17,9.03-3.52,14.81-3.52h0Z"/>
  <path class="st7" d="M476.01,365.36c-1.68-.82-6.16-1.48-8.65-3.92-5.53-5.42-2.24-12.73.41-12.77,2.12-.04,1.97,3.21,2.71,6.53.51,2.31.98,4.09,3.75,5.67,2.77,1.57,4.05,1.71,4.05,1.71,0,0,1.91.46.94,1.5-.97,1.03-3.21,1.29-3.21,1.29h0Z"/>
  <path class="st19" d="M467.18,355.45c-1.07.42-1.29,1.77-1.56,2.16-.1.15-.22.26-.33.34-1.96-4.4.44-8.93,2.46-8.96,1.97-.03,1.83,2.99,2.52,6.08.06.28.13.56.19.83-.89-.29-2.52-.75-3.28-.46h0Z"/>
  <path class="st7" d="M492.88,353.04s.85,1.37.89,2.91c.04,1.6-.21,4.09,1.06,4.78,1.98,1.08,5.84-.27,5.96,3.04.12,3.31-5.95,2.12-7.79,1.49-1.58-.54-2.67-1.03-3.04-3.04,0,0-2.21-8.18-.11-9.13,2.09-.95,3.03-.05,3.03-.05Z"/>
  <path class="st7" d="M470.65,369.51s.88,6.09-3.47,4.91c-3.27-.88-3.34-12.12-.24-12.12,1.9,0,2.59,1.68,2.59,1.68,0,0,2.57,2.82,4.07,2.53,1.5-.29,4.67-3.93,4.67-3.93,0,0,1.68-1.49,3.6.01,1.92,1.5.89,3.62.89,3.62,0,0-3.56,4.14-6.45,4.73-2.9.59-5.49-1.5-6.78-2.02"/>
  <path class="st7" d="M486.95,361.69s2.85,2.38,4.78,4.41c2.57,2.69-1.96,8.81-1.96,8.81,0,0,6.58,3.79,1.76,6.45-1.56.86-9.18-7.75-9.18-7.75,0,0,4.68-4.38,2.91-5.96-2.91-2.61-6.31-2.91-6.8-5.76-.29-1.73.36-2.64,1.56-4.13.79-.99,1.22-1.86,1.22-1.86,0,0,.67-4.24,2.51-4.84,1.85-.59,5.18.03,6.3.23,1.12.2,3.89,1.1,2.71,5.81,0,0-.85,2.21-1.63,3.38-.94,1.4-1.67,2.3-2.39,2.85"/>
  <path class="st19" d="M491.49,359.57s-.81,1.03-1.26,1.84c-.46.81-1.58,1.73-1.58,1.73l-1.98-1.5s-3.55-2.76-1.95-4.37c.92-.93,2.3-2.53,5.29-.92,2.99,1.61,1.49,3.22,1.49,3.22"/>
  <path class="st7" d="M476.31,354.38c-.19,1.36,1.42,7.33-2.9,6.13-4.31-1.21-2.25-7.08-1.36-9.02.9-1.94,2.64-1.14,4.29-1.11,3.06.05,5.46-.52,7.01,2.2,1.55,2.72-1.63,3.11-3.4,2.99-1.43-.1-3-.2-3.55-.23"/>
  <path class="st7" d="M493.95,322.2l4.37-4.22,1.68,6.77s3.76,2.8,4.89,4.71c1.9,3.22,1.95,5.84,1.95,5.84,0,0,4.15,1.24,4.88,4.58.73,3.35-1.89,9.68-12.88,11.86-10.99,2.18-19.87-.8-24.02-7.5-4.15-6.69,2.42-14.65,2.04-14.19l-1.31-11.08,7.63,4.98s2.63-1,5.4-1.13c1.04-.05,2.92.05,3.82.14l1.56-.76Z"/>
  <path class="st19" d="M506.64,335.66s3.95.87,4.67,4.22c.73,3.35-2.08,9.61-12.49,11.5-2.37.47-5.49.77-7.19.67-3.12-.18-11.35-2.98-10.96-9.69.18-3.02,5.12-3.56,5.12-3.56l4.56-2s4.01,1.89,6.57,1.33c2.56-.56,2.56-2.56,2.56-2.56l5.34-1.56,1.45,1.21.36.44Z"/>
  <path class="st9" d="M474.48,341.53s-2.13.28-3.22.34c-1.09.06-3.5-.16-3.5-.16"/>
  <path class="st9" d="M516.03,336.1s-1.07.94-2.66,1.49c-1.35.47-4.02.91-4.02.91"/>
  <path class="st9" d="M467.25,335.87s1.33.28,3.75,1.35c2.19.97,3.58,2.01,3.58,2.01"/>
  <path class="st9" d="M515.58,342.87s-1.1.1-2.72-.06c-1.64-.16-3.24-.81-3.24-.81"/>
  <path class="st8" d="M492.18,323c1.66.41,2.28.86,2.28.86"/>
  <path class="st12" d="M484.91,325.24l-3.55-2.55"/>
  <path class="st13" d="M503.6,329.54c1.71,2.62,1.78,5.62.14,6.69-1.64,1.07-4.35-.19-6.07-2.82-1.72-2.62-1.78-5.62-.14-6.69,1.64-1.07,4.35.19,6.07,2.82Z"/>
  <path class="st20" d="M503.16,333.73c0,.63-.47,1.15-1.05,1.15s-1.06-.51-1.06-1.15.47-1.15,1.06-1.15,1.05.51,1.05,1.15"/>
  <path class="st13" d="M489.55,331.44c1.71,2.62,1.53,5.78-.4,7.04-1.93,1.27-4.89.16-6.61-2.47-1.72-2.62-1.54-5.78.4-7.04,1.94-1.26,4.89-.16,6.61,2.47Z"/>
  <path class="st20" d="M488.5,334.89c0,.63-.47,1.15-1.06,1.15s-1.06-.51-1.06-1.15.48-1.15,1.06-1.15,1.06.51,1.06,1.15"/>
  <path class="st15" d="M496.52,336.89c1.09,0,2.67-.17,2.75.33.08.5-1,2.46-1.75,2.55-.75.08-3.59-1.38-3.63-2.3-.04-.92,1.63-.58,2.63-.58h0Z"/>
  <path class="st9" d="M488.91,341.18s6.06,1.79,8.33,2.28c2.27.49,6.36.99,6.36.99,0,0-4.68,6-10.15,4.48-5.47-1.52-5.37-4.97-4.54-7.75Z"/>
  <path class="st28" d="M426.72,239.56c4.42,0,8.43,1.28,11.32,3.29s4.74,4.82,4.74,7.95-1.77,5.86-4.74,7.95c-2.89,2.01-6.91,3.29-11.32,3.29s-8.43-1.37-11.32-3.37-4.74-4.82-4.74-7.95,1.77-5.86,4.74-7.95c2.89-1.93,6.91-3.21,11.32-3.21h0Z"/>
  <path class="st1" d="M426.72,240.76c3.53,0,6.75.88,9.08,2.33,2.33,1.45,3.77,3.45,3.77,5.7s-1.45,4.26-3.77,5.7-5.54,2.33-9.08,2.33-6.75-.88-9.08-2.33c-2.33-1.45-3.77-3.45-3.77-5.7s1.45-4.26,3.77-5.7c2.33-1.37,5.54-2.33,9.08-2.33Z"/>
  <path class="st19" d="M422.62,251.69c-.08.08-.24.16-.48.32-.16.16-.24.32-.16.4s.24,0,.56-.16c.48-.24.72-.24.96-.08.24.24.16.8-.4,1.28-.24.24-.48.4-.64.48l-.16-.4c.16-.08.4-.24.56-.4.24-.24.24-.4.16-.48s-.24,0-.56.16c-.48.24-.8.32-.96.08-.24-.24-.16-.72.32-1.28.24-.24.4-.32.56-.4l.24.48Z"/>
  <path class="st19" d="M425.27,251.2c-.08.08-.16.24-.32.4-.48.48-.96.56-1.37.24-.32-.32-.24-.88.32-1.45l.32-.32.16.32c-.08.08-.16.08-.24.16-.24.24-.24.48-.08.64s.48.16.64-.08l.24-.24.32.32Z"/>
  <path class="st19" d="M425.75,249.28c-.08,0-.08.08-.16.08-.16.16-.24.32-.16.4,0,0,.08.08.08.16l.56.56-.48.48-.72-.72-.32-.32.4-.4.16.16h0c-.08-.24.08-.48.16-.56l.08-.08.4.24Z"/>
  <path class="st19" d="M427.76,248.31l.24.24-.48.48-.16-.08h0c0,.16-.16.4-.32.56-.32.32-.64.32-.8.16-.32-.32,0-.8.48-1.28-.08-.08-.16-.08-.4.08-.16.16-.24.32-.32.48l-.32-.16c.08-.16.24-.4.48-.72.56-.56.88-.48,1.12-.24l.48.48ZM426.96,248.55c-.24.24-.32.4-.24.56.08.08.24.08.32-.08.08-.08.16-.24.08-.4l-.16-.08Z"/>
  <path class="st19" d="M427.12,246.87l.4-.56.32.32.32-.32.24.24-.32.24.4.4c.16.16.24.08.32,0l.16-.16.24.24c-.08.08-.16.24-.32.32-.48.48-.8.24-.88.08l-.48-.48-.16.16-.24-.24.16-.16-.16-.08Z"/>
  <path class="st19" d="M430.57,245.9c-.08.08-.16.24-.32.4-.48.48-.96.56-1.37.24-.32-.32-.24-.88.32-1.45l.32-.32.24.4c-.08.08-.16.08-.24.16-.24.24-.24.48-.08.64s.48.16.64-.08l.24-.24.24.24Z"/>
  <path class="st19" d="M432.26,244.3l-.48.48-.64-.64c-.16-.16-.24-.16-.4,0,0,.08-.16.24,0,.4l.64.64-.48.48-1.53-1.53.48-.48.56.56h0c0-.24.16-.4.24-.56.32-.32.64-.32.96-.08l.64.72Z"/>
  <ellipse cx="427.15" cy="276.4" rx="11.28" ry="4.41"/>
</svg>