<?xml version="1.0" encoding="UTF-8"?>
<svg id="_レイヤー_1" data-name="レイヤー_1" xmlns="http://www.w3.org/2000/svg" version="1.1" viewBox="0 0 800 500">
  <!-- Generator: Adobe Illustrator 30.1.0, SVG Export Plug-In . SVG Version: 2.1.1 Build 136)  -->
  <defs>
    <style>
      .st0, .st1, .st2 {
        stroke: #040000;
      }

      .st0, .st3, .st2, .st4 {
        fill: none;
      }

      .st5 {
        fill: #f1a127;
      }

      .st5, .st4 {
        stroke-width: 1.2px;
      }

      .st5, .st4, .st6 {
        stroke: #221f20;
      }

      .st1 {
        fill: #5e4a42;
      }

      .st3 {
        stroke: #fff;
        stroke-miterlimit: 10;
        stroke-width: 3px;
      }

      .st7 {
        fill: #040000;
      }

      .st2 {
        stroke-linecap: round;
      }

      .st8 {
        fill: #262525;
      }

      .st9, .st6 {
        fill: #fff;
      }

      .st10 {
        fill: #221f20;
      }

      .st11 {
        fill: #93c58e;
      }

      .st12 {
        fill: #6db780;
      }
    </style>
  </defs>
  <polygon class="st12" points="800 500 0 500 0 483.47 0 466.94 800 466.94 800 500"/>
  <polygon class="st11" points="800 466.94 0 466.94 0 424.17 0 381.25 800 381.25 800 466.94"/>
  <polygon class="st12" points="800 381.25 0 381.25 0 338.33 0 295.56 800 295.56 800 381.25"/>
  <polygon class="st11" points="800 295.56 0 295.56 0 252.64 0 209.86 800 209.86 800 295.56"/>
  <polygon class="st12" points="800 209.86 0 209.86 0 166.94 0 124.17 800 124.17 800 209.86"/>
  <polygon class="st11" points="800 124.17 0 124.17 0 81.25 0 38.33 800 38.33 800 124.17"/>
  <polygon class="st12" points="800 38.33 0 38.33 0 19.17 0 0 800 0 800 38.33"/>
  <circle class="st3" cx="382.19" cy="250.69" r="104.17"/>
  <line class="st3" x1="799.5" y1="250.69" x2="2.49" y2="250.69"/>
  <polygon class="st9" points="165.94 500 602.89 116.94 639.83 154.31 371.22 500 165.94 500"/>
  <path id="ID0.12555817235261202" class="st8" d="M622.8,108.76c7.81,0,14.82,3.17,19.91,8.26,5.09,5.09,8.26,12.1,8.26,19.91s-3.17,14.82-8.26,19.91c-5.09,5.09-12.1,8.26-19.91,8.26s-14.82-3.17-19.91-8.26c-5.09-5.09-8.26-12.1-8.26-19.91s3.17-14.82,8.26-19.91c5.09-5.09,12.1-8.26,19.91-8.26Z"/>
  <path id="ID0.5458583473227918" class="st9" d="M649.27,136.71c0,14.14-11.88,25.57-26.58,25.57s-25.57-11.31-25.57-25.45,10.86-25.68,25.57-25.68c14.71-.11,26.58,11.43,26.58,25.57h0Z"/>
  <path id="ID0.8007480315864086" class="st8" d="M616.69,121.66c1.02-.45,10.18.91,11.2,2.04,1.02,1.13.11,10.63-.57,11.54-.68,1.02-9.73,4.19-10.97,3.62-1.24-.57-7.01-6.9-6.56-8.37.34-1.58,5.88-8.48,6.9-8.82h0Z"/>
  <path id="ID0.3096846779808402" class="st8" d="M633.1,139.87c.23-.79,8.6-4.64,9.84-3.85,1.24.79,4.19,8.03,3.96,9.05-.23,1.13-5.77,8.82-7.01,9.28-1.24.45-7.92-2.26-8.48-3.17-.57-.9,1.47-10.52,1.7-11.31h0Z"/>
  <path id="ID0.7317186729051173" class="st8" d="M611.04,161.93s-4.64-7.92-4.3-8.82c.34-.91,7.58-2.83,8.82-2.72,1.36.11,8.71,6.22,8.82,7.24.11,1.13-3.05,7.13-3.05,7.13l-10.29-2.83h0Z"/>
  <path id="ID0.6810249714180827" class="st8" d="M648.93,127.09s-4.98,2.26-6,2.15c-1.02-.11-8.03-6.11-8.71-6.9-.68-.79-2.49-6.67-1.7-7.35.79-.68,7.69,1.13,7.69,1.13l8.71,10.97h0Z"/>
  <path id="ID0.9793273489922285" class="st8" d="M602.44,125.51c1.02.11,2.6,6.67,2.6,7.58,0,.79-2.04,10.18-2.6,10.97-.57.79-4.86,1.47-4.86,1.47-3.62-7.24-.68-14.25-.68-14.25,0,0,4.53-5.88,5.54-5.77h0Z"/>
  <path id="ID0.3751531937159598" class="st8" d="M623.25,110.46s.79,1.02.45,1.92c-.34.91-7.01,4.07-7.81,4.41-.79.34,0,0,0,0,0,0-5.66.9-6.22.45-.45-.45-.9-2.83-.9-2.83l6.67-3.62,7.81-.34h0Z"/>
  <path id="ID0.11882016761228442" class="st7" d="M626.36,433.06c7.22,3.75,11.67,9.03,11.67,14.86s-4.44,10.97-11.67,14.86c-7.22,3.75-17.08,6.11-28.06,6.11s-20.83-2.36-28.06-6.11c-7.22-3.75-11.67-9.03-11.67-14.86s4.44-10.97,11.67-14.86c7.22-3.75,17.08-6.11,28.06-6.11s20.83,2.22,28.06,6.11Z"/>
  <path id="ID0.3533330950886011" class="st5" d="M610.81,421.67c-1.81-1.81,1.67-2.64,1.67-2.64,0,0,2.22-.28,7.22-3.06s5.83-5.97,6.67-10.14c1.25-5.97,1.11-11.81,4.86-11.67,4.72,0,10.56,13.19.69,22.78-4.44,4.44-12.5,5.56-15.42,6.94.14.14-3.89-.42-5.69-2.22Z"/>
  <path id="ID0.5717224213294685" class="st9" d="M632.33,406.25c1.94.69,2.36,3.19,2.78,3.89.14.28.42.42.56.56,3.47-7.92-.83-15.97-4.44-15.97s-3.33,5.42-4.44,10.83c-.14.56-.28.97-.28,1.53,1.53-.56,4.44-1.39,5.83-.83Z"/>
  <path id="ID0.3678199606947601" class="st5" d="M591.78,402.08c3.75,1.67-.14,16.39-.14,16.39-.69,3.61-2.64,4.44-5.42,5.42-3.33,1.11-14.17,3.19-13.89-2.64.28-5.97,7.08-3.47,10.69-5.42,2.22-1.25,1.81-5.69,1.94-8.61,0-2.78,1.53-5.14,1.53-5.14,0,0,1.67-1.81,5.28,0Z"/>
  <path id="ID0.9222046374343336" class="st5" d="M628.17,430.28c-2.36.97-6.94,4.72-12.08,3.61-5.14-1.11-11.53-8.47-11.53-8.47,0,0-1.81-3.75,1.53-6.53,3.47-2.64,6.39,0,6.39,0,0,0,5.69,6.53,8.33,7.08s7.22-4.58,7.22-4.58c0,0,1.25-3.06,4.58-3.06,5.56,0,5.42,20.14-.42,21.67-7.78,2.08-6.25-8.75-6.25-8.75"/>
  <path id="ID0.8791533871553838" class="st5" d="M593.72,420.28c-1.25-.97-2.64-2.64-4.31-5.14-1.39-2.08-2.92-5.97-2.92-5.97-2.08-8.47,2.78-10,4.86-10.42,1.94-.42,7.92-1.53,11.25-.42,3.33,1.11,4.44,8.61,4.44,8.61,0,0,.83,1.53,2.22,3.33,2.08,2.64,3.33,4.31,2.78,7.36-.83,5.14-6.94,5.69-12.08,10.28-3.19,2.78,5.14,10.69,5.14,10.69,0,0-13.61,15.42-16.39,13.89-8.61-4.72,3.19-11.53,3.19-11.53,0,0-8.06-10.97-3.47-15.69,3.47-3.61,8.61-7.92,8.61-7.92"/>
  <path id="ID0.7576386001892388" class="st9" d="M588.86,413.61s1.39,1.81,2.22,3.33c.83,1.39,2.78,3.06,2.78,3.06l3.61-2.64s6.39-5,3.47-7.78c-1.67-1.67-4.17-4.58-9.44-1.67-5.28,2.78-2.64,5.69-2.64,5.69"/>
  <path id="ID0.2944107265211642" class="st5" d="M616.08,404.31c.42,2.36-2.5,13.06,5.14,10.97,7.78-2.22,4.03-12.64,2.36-16.11-1.67-3.47-4.72-2.08-7.64-1.94-5.42.14-9.72-.97-12.5,3.89s2.92,5.56,6.11,5.28c2.5-.14,5.42-.42,6.39-.42"/>
  <path id="ID0.8352607074193656" class="st5" d="M584.56,346.81l-7.78-7.5-3.06,12.08s-6.67,5-8.75,8.47c-3.33,5.69-3.47,10.42-3.47,10.42,0,0-7.36,2.22-8.75,8.19-1.25,5.97,3.33,17.36,23.06,21.25,19.58,3.89,35.56-1.39,42.92-13.33,7.36-11.94-4.31-26.25-3.61-25.42l2.36-19.86-13.61,8.89s-4.72-1.81-9.72-2.08c-1.81-.14-5.28.14-6.81.28l-2.78-1.39Z"/>
  <path id="ID0.8381271595135331" class="st9" d="M561.78,370.83s-7.08,1.53-8.33,7.5,3.75,17.22,22.36,20.56c4.17.83,9.86,1.39,12.92,1.25,5.56-.28,20.28-5.28,19.58-17.36-.28-5.42-9.17-6.39-9.17-6.39l-8.19-3.61s-7.22,3.33-11.81,2.36c-4.58-.97-4.58-4.58-4.58-4.58l-9.58-2.78-2.64,2.22-.56.83Z"/>
  <path id="ID0.7142933551222086" class="st4" d="M619.28,381.39s3.75.56,5.69.56c1.94.14,6.25-.28,6.25-.28"/>
  <path id="ID0.13471422623842955" class="st4" d="M544.97,371.67s1.94,1.67,4.72,2.64c2.36.83,7.22,1.67,7.22,1.67"/>
  <path id="ID0.29833568213507533" class="st4" d="M632.19,371.25s-2.36.56-6.67,2.36c-3.89,1.67-6.39,3.61-6.39,3.61"/>
  <path id="ID0.25782227143645287" class="st4" d="M545.81,383.75s1.94.14,4.86-.14,5.83-1.39,5.83-1.39"/>
  <path id="ID0.8217906653881073" class="st2" d="M583.58,349.72s1.11-.83,4.03-1.53"/>
  <path id="ID0.958498680498451" class="st0" d="M600.67,352.22l6.39-4.58"/>
  <path id="ID0.9615970174781978" class="st6" d="M578.17,354.86c2.92,1.94,2.78,7.22-.28,11.94-3.06,4.72-7.92,6.94-10.83,5-2.92-1.94-2.78-7.22.28-11.94,3.06-4.58,7.78-6.94,10.83-5Z"/>
  <path id="ID0.002003065310418606" class="st10" d="M568.03,367.36c0-1.11.83-2.08,1.94-2.08.97,0,1.94.97,1.94,2.08s-.83,2.08-1.94,2.08-1.94-.83-1.94-2.08"/>
  <path id="ID0.0629828367382288" class="st6" d="M604.14,358.89c3.47,2.22,3.75,7.92.69,12.64-3.06,4.72-8.33,6.67-11.81,4.44-3.47-2.22-3.75-7.92-.69-12.64,3.06-4.72,8.33-6.67,11.81-4.44Z"/>
  <path id="ID0.8628484434448183" class="st10" d="M594.28,369.44c0-1.11.83-2.08,1.94-2.08.97,0,1.94.97,1.94,2.08s-.83,2.08-1.94,2.08-1.94-.83-1.94-2.08"/>
  <path id="ID0.9000455182977021" class="st1" d="M584.56,374.17c-.14,1.67-5.14,4.31-6.53,4.17s-3.33-3.61-3.19-4.58c.14-.83,2.92-.56,4.86-.56,1.94-.14,5-.69,4.86.97Z"/>
  <path id="ID0.6073758937418461" class="st4" d="M585.39,394.58c-9.72,2.78-18.19-8.06-18.19-8.06,0,0,7.36-.83,11.39-1.81,4.03-.83,14.86-4.03,14.86-4.03,1.53,5,1.81,11.11-8.06,13.89Z"/>
  <path id="ID0.118820167612284421" data-name="ID0.11882016761228442" class="st7" d="M469.42,107.5c10.97,0,20.83,2.36,28.06,6.11,7.22,3.75,11.67,9.03,11.67,14.86s-4.44,10.97-11.67,14.86c-7.22,3.75-17.08,6.11-28.06,6.11s-20.83-2.36-28.06-6.11c-7.22-3.75-11.67-9.03-11.67-14.86s4.44-10.97,11.67-14.86c7.08-3.75,17.08-6.11,28.06-6.11Z"/>
  <path id="ID0.35333309508860111" data-name="ID0.3533330950886011" class="st5" d="M451.08,104.58c-3.06-1.53-10.97-2.64-15.42-6.94-9.86-9.72-4.03-22.78.69-22.78,3.75,0,3.47,5.69,4.86,11.67.97,4.17,1.81,7.36,6.67,10.14,5,2.78,7.22,3.06,7.22,3.06,0,0,3.47.83,1.67,2.64-1.67,1.81-5.69,2.22-5.69,2.22Z"/>
  <path id="ID0.57172242132946851" data-name="ID0.5717224213294685" class="st9" d="M441.22,87.64c-.14-.42-.28-.97-.28-1.53-1.25-5.56-.97-10.97-4.44-10.83-3.61,0-7.92,8.19-4.44,15.97.14-.14.42-.42.56-.56.42-.69.83-3.06,2.78-3.89,1.25-.42,4.17.42,5.83.83Z"/>
  <path id="ID0.36781996069476011" data-name="ID0.3678199606947601" class="st5" d="M481.22,82.5s1.53,2.5,1.53,5.14c0,2.92-.42,7.36,1.94,8.61,3.47,1.94,10.42-.42,10.69,5.42.28,5.97-10.69,3.75-13.89,2.64-2.78-.97-4.72-1.81-5.42-5.42,0,0-3.89-14.58-.14-16.39,3.61-1.53,5.28,0,5.28,0Z"/>
  <path id="ID0.92220463743433361" data-name="ID0.9222046374343336" class="st5" d="M441.5,111.94s1.53,10.83-6.25,8.75c-5.83-1.53-5.97-21.67-.42-21.67,3.33,0,4.58,3.06,4.58,3.06,0,0,4.58,5,7.22,4.58,2.64-.56,8.33-7.08,8.33-7.08,0,0,3.06-2.64,6.39,0,3.47,2.64,1.53,6.53,1.53,6.53,0,0-6.39,7.36-11.53,8.47-5.14,1.11-9.86-2.64-12.08-3.61"/>
  <path id="ID0.87915338715538381" data-name="ID0.8791533871553838" class="st5" d="M470.67,98.06s5.14,4.31,8.61,7.92c4.58,4.86-3.47,15.69-3.47,15.69,0,0,11.81,6.81,3.19,11.53-2.78,1.53-16.39-13.89-16.39-13.89,0,0,8.33-7.78,5.14-10.69-5.14-4.72-11.25-5.14-12.08-10.28-.56-3.06.69-4.72,2.78-7.36,1.39-1.81,2.22-3.33,2.22-3.33,0,0,1.25-7.64,4.44-8.61,3.33-1.11,9.31,0,11.25.42s6.94,1.94,4.86,10.42c0,0-1.53,3.89-2.92,5.97-1.67,2.5-3.06,4.17-4.31,5.14"/>
  <path id="ID0.75763860018923881" data-name="ID0.7576386001892388" class="st9" d="M478.72,94.31s2.64-2.92-2.64-5.69c-5.28-2.92-7.78,0-9.44,1.67-2.92,2.92,3.47,7.78,3.47,7.78l3.61,2.64s1.94-1.67,2.78-3.06c.83-1.53,2.22-3.33,2.22-3.33"/>
  <path id="ID0.29441072652116421" data-name="ID0.2944107265211642" class="st5" d="M451.78,86.67c.97,0,3.75.28,6.39.42,3.19.28,8.89-.42,6.11-5.28s-7.08-3.89-12.5-3.89c-2.92,0-6.11-1.53-7.64,1.94-1.67,3.47-5.28,14.03,2.36,16.11,7.78,2.22,4.86-8.47,5.14-10.97"/>
  <path id="ID0.83526070741936561" data-name="ID0.8352607074193656" class="st5" d="M480.39,28.75c-1.67-.14-5-.28-6.81-.28-5,.28-9.72,2.08-9.72,2.08l-13.61-8.89,2.36,19.86c.69-.83-11.11,13.47-3.61,25.42,7.36,11.94,23.33,17.36,42.92,13.33,19.58-3.89,24.31-15.28,23.06-21.25s-8.75-8.19-8.75-8.19c0,0-.14-4.72-3.47-10.42-2.08-3.47-8.75-8.47-8.75-8.47l-3.06-12.08-7.78,7.5-2.78,1.39Z"/>
  <path id="ID0.83812715951353311" data-name="ID0.8381271595135331" class="st9" d="M505.25,50.69l-2.64-2.22-9.58,2.78s0,3.61-4.58,4.58-11.81-2.36-11.81-2.36l-8.19,3.61s-8.89.97-9.17,6.39c-.69,11.94,14.03,16.94,19.58,17.36,3.06.14,8.61-.42,12.92-1.25,18.61-3.33,23.61-14.58,22.36-20.56-1.25-5.97-8.33-7.5-8.33-7.5l-.56-.83Z"/>
  <path id="ID0.71429335512220861" data-name="ID0.7142933551222086" class="st4" d="M436.36,62.36s4.31.42,6.25.28,5.69-.56,5.69-.56"/>
  <path id="ID0.134714226238429551" data-name="ID0.13471422623842955" class="st4" d="M510.67,56.53s4.72-.83,7.22-1.67c2.78-.97,4.72-2.64,4.72-2.64"/>
  <path id="ID0.298335682135075331" data-name="ID0.29833568213507533" class="st4" d="M448.58,57.92s-2.5-1.81-6.39-3.61c-4.31-1.94-6.67-2.36-6.67-2.36"/>
  <path id="ID0.257822271436452871" data-name="ID0.25782227143645287" class="st4" d="M511.22,62.78s2.92,1.11,5.83,1.39,4.86.14,4.86.14"/>
  <path id="ID0.82179066538810731" data-name="ID0.8217906653881073" class="st2" d="M479.97,28.89c2.92.69,4.03,1.53,4.03,1.53"/>
  <path id="ID0.9584986804984511" data-name="ID0.958498680498451" class="st0" d="M460.67,28.33l6.39,4.58"/>
  <path id="ID0.96159701747819781" data-name="ID0.9615970174781978" class="st6" d="M500.39,40.56c3.06,4.72,3.19,10,.28,11.94-2.92,1.94-7.78-.42-10.83-5-3.06-4.72-3.19-10-.28-11.94,2.92-1.94,7.78.28,10.83,5Z"/>
  <path id="ID0.0020030653104186061" data-name="ID0.002003065310418606" class="st10" d="M499.56,48.06c0,1.11-.83,2.08-1.94,2.08-.97,0-1.94-.97-1.94-2.08s.83-2.08,1.94-2.08,1.94.97,1.94,2.08"/>
  <path id="ID0.06298283673822881" data-name="ID0.0629828367382288" class="st6" d="M475.25,43.89c3.06,4.72,2.78,10.28-.69,12.64-3.47,2.22-8.75.28-11.81-4.44s-2.78-10.28.69-12.64c3.47-2.22,8.75-.14,11.81,4.44Z"/>
  <path id="ID0.86284844344481831" data-name="ID0.8628484434448183" class="st10" d="M473.44,50.14c0,1.11-.83,2.08-1.94,2.08-.97,0-1.94-.97-1.94-2.08s.83-2.08,1.94-2.08,1.94.97,1.94,2.08"/>
  <path id="ID0.90004551829770211" data-name="ID0.9000455182977021" class="st1" d="M487.75,53.75c1.94,0,4.72-.28,4.86.56.14.83-1.81,4.44-3.19,4.58s-6.39-2.5-6.53-4.17c.14-1.67,3.06-.97,4.86-.97Z"/>
  <path id="ID0.60737589374184611" data-name="ID0.6073758937418461" class="st4" d="M474.14,61.39s10.83,3.19,14.86,4.03c4.03.83,11.39,1.81,11.39,1.81,0,0-8.33,10.69-18.19,8.06-9.72-2.78-9.58-8.89-8.06-13.89Z"/>
  <path id="ID0.118820167612284422" data-name="ID0.11882016761228442" class="st7" d="M159.14,379.72c10.97,0,20.83,2.36,28.06,6.11,7.22,3.75,11.67,9.03,11.67,14.86s-4.44,10.97-11.67,14.86c-7.22,3.75-17.08,6.11-28.06,6.11s-20.83-2.36-28.06-6.11c-7.22-3.75-11.67-9.03-11.67-14.86s4.44-10.97,11.67-14.86c7.22-3.75,17.08-6.11,28.06-6.11Z"/>
  <path id="ID0.35333309508860112" data-name="ID0.3533330950886011" class="st5" d="M140.94,376.81c-3.06-1.53-10.97-2.64-15.42-6.94-9.86-9.72-4.03-22.78.69-22.78,3.75,0,3.47,5.69,4.86,11.67.97,4.17,1.81,7.36,6.67,10.14,5,2.78,7.22,3.06,7.22,3.06,0,0,3.47.83,1.67,2.64-1.81,1.81-5.69,2.22-5.69,2.22Z"/>
  <path id="ID0.57172242132946852" data-name="ID0.5717224213294685" class="st9" d="M130.94,360c-.14-.42-.28-.97-.28-1.53-1.25-5.56-.97-10.97-4.44-10.83-3.61,0-7.92,8.19-4.44,15.97.14-.14.42-.42.56-.56.42-.69.83-3.06,2.78-3.89,1.39-.56,4.31.28,5.83.83Z"/>
  <path id="ID0.36781996069476012" data-name="ID0.3678199606947601" class="st5" d="M171.08,354.86s1.53,2.5,1.53,5.14c0,2.92-.42,7.36,1.94,8.61,3.47,1.94,10.42-.42,10.69,5.42.28,5.97-10.69,3.75-13.89,2.64-2.78-.97-4.72-1.81-5.42-5.42,0,0-3.89-14.58-.14-16.39,3.61-1.67,5.28,0,5.28,0Z"/>
  <path id="ID0.92220463743433362" data-name="ID0.9222046374343336" class="st5" d="M131.36,384.31s1.53,10.83-6.25,8.75c-5.83-1.53-5.97-21.67-.42-21.67,3.33,0,4.58,3.06,4.58,3.06,0,0,4.58,5,7.22,4.58,2.64-.56,8.33-7.08,8.33-7.08,0,0,3.06-2.64,6.39,0,3.47,2.64,1.53,6.53,1.53,6.53,0,0-6.39,7.36-11.53,8.47-5.14,1.11-9.86-2.64-12.08-3.61"/>
  <path id="ID0.87915338715538382" data-name="ID0.8791533871553838" class="st5" d="M160.53,370.28s5.14,4.31,8.61,7.92c4.58,4.86-3.47,15.69-3.47,15.69,0,0,11.81,6.81,3.19,11.53-2.78,1.53-16.39-13.89-16.39-13.89,0,0,8.33-7.78,5.14-10.69-5.14-4.72-11.25-5.14-12.08-10.28-.56-3.06.69-4.72,2.78-7.36,1.39-1.81,2.22-3.33,2.22-3.33,0,0,1.25-7.64,4.44-8.61,3.33-1.11,9.31,0,11.25.42s6.94,1.94,4.86,10.42c0,0-1.53,3.89-2.92,5.97-1.67,2.5-3.06,4.17-4.31,5.14"/>
  <path id="ID0.75763860018923882" data-name="ID0.7576386001892388" class="st9" d="M168.58,366.53s2.64-2.92-2.64-5.69c-5.28-2.92-7.78,0-9.44,1.67-2.92,2.92,3.47,7.78,3.47,7.78l3.61,2.64s1.94-1.67,2.78-3.06c.83-1.53,2.22-3.33,2.22-3.33"/>
  <path id="ID0.29441072652116422" data-name="ID0.2944107265211642" class="st5" d="M141.64,358.89c.97,0,3.75.28,6.39.42,3.19.28,8.89-.42,6.11-5.28-2.78-4.86-7.08-3.89-12.5-3.89-2.92,0-6.11-1.53-7.64,1.94-1.67,3.47-5.28,14.03,2.36,16.11,7.78,2.22,4.86-8.47,5.14-10.97"/>
  <path id="ID0.83526070741936562" data-name="ID0.8352607074193656" class="st5" d="M170.11,301.11c-1.67-.14-5-.28-6.81-.28-5,.28-9.72,2.08-9.72,2.08l-13.61-8.89,2.36,19.86c.69-.83-11.11,13.47-3.61,25.42,7.36,11.94,23.33,17.36,42.92,13.33,19.58-3.89,24.31-15.28,23.06-21.25s-8.75-8.19-8.75-8.19c0,0-.14-4.72-3.47-10.42-2.08-3.47-8.75-8.47-8.75-8.47l-3.06-12.08-7.78,7.5-2.78,1.39Z"/>
  <path id="ID0.83812715951353312" data-name="ID0.8381271595135331" class="st9" d="M194.97,322.92l-2.64-2.22-9.58,2.78s0,3.61-4.58,4.58c-4.58.97-11.81-2.36-11.81-2.36l-8.19,3.61s-8.89.97-9.17,6.39c-.69,11.94,14.03,16.94,19.58,17.36,3.06.14,8.61-.42,12.92-1.25,18.61-3.33,23.61-14.58,22.36-20.56s-8.33-7.5-8.33-7.5l-.56-.83Z"/>
  <path id="ID0.71429335512220862" data-name="ID0.7142933551222086" class="st4" d="M126.08,334.58s4.31.42,6.25.28,5.69-.56,5.69-.56"/>
  <path id="ID0.134714226238429552" data-name="ID0.13471422623842955" class="st4" d="M200.53,328.89s4.72-.83,7.22-1.67c2.78-.97,4.72-2.64,4.72-2.64"/>
  <path id="ID0.298335682135075332" data-name="ID0.29833568213507533" class="st4" d="M138.31,330.14s-2.5-1.81-6.39-3.61c-4.31-1.94-6.67-2.36-6.67-2.36"/>
  <path id="ID0.257822271436452872" data-name="ID0.25782227143645287" class="st4" d="M200.94,335s2.92,1.11,5.83,1.39,4.86.14,4.86.14"/>
  <path id="ID0.82179066538810732" data-name="ID0.8217906653881073" class="st2" d="M169.83,301.11c2.92.69,4.03,1.53,4.03,1.53"/>
  <path id="ID0.9584986804984512" data-name="ID0.958498680498451" class="st0" d="M150.53,300.56l6.39,4.58"/>
  <path id="ID0.96159701747819782" data-name="ID0.9615970174781978" class="st6" d="M190.25,312.78c3.06,4.72,3.19,10,.28,11.94-2.92,1.94-7.78-.42-10.83-5-3.06-4.72-3.19-10-.28-11.94,2.92-1.94,7.78.28,10.83,5Z"/>
  <path id="ID0.0020030653104186062" data-name="ID0.002003065310418606" class="st10" d="M189.42,320.28c0,1.11-.83,2.08-1.94,2.08-.97,0-1.94-.97-1.94-2.08s.83-2.08,1.94-2.08,1.94.97,1.94,2.08"/>
  <path id="ID0.06298283673822882" data-name="ID0.0629828367382288" class="st6" d="M165.11,316.25c3.06,4.72,2.78,10.28-.69,12.64-3.47,2.22-8.75.28-11.81-4.44s-2.78-10.28.69-12.64c3.47-2.22,8.75-.28,11.81,4.44Z"/>
  <path id="ID0.86284844344481832" data-name="ID0.8628484434448183" class="st10" d="M163.17,322.36c0,1.11-.83,2.08-1.94,2.08-.97,0-1.94-.97-1.94-2.08s.83-2.08,1.94-2.08,1.94.97,1.94,2.08"/>
  <path id="ID0.90004551829770212" data-name="ID0.9000455182977021" class="st1" d="M177.61,325.97c1.94,0,4.72-.28,4.86.56.14.83-1.81,4.44-3.19,4.58s-6.39-2.5-6.53-4.17c0-1.53,3.06-.97,4.86-.97Z"/>
  <path id="ID0.60737589374184612" data-name="ID0.6073758937418461" class="st4" d="M164,333.61s10.83,3.19,14.86,4.03c4.03.83,11.39,1.81,11.39,1.81,0,0-8.33,10.69-18.19,8.06-9.72-2.78-9.58-8.89-8.06-13.89Z"/>
</svg>