<?xml version="1.0" encoding="UTF-8"?>
<svg id="_レイヤー_1" data-name="レイヤー_1" xmlns="http://www.w3.org/2000/svg" version="1.1" viewBox="0 0 800 500">
  <!-- Generator: Adobe Illustrator 30.1.0, SVG Export Plug-In . SVG Version: 2.1.1 Build 136)  -->
  <defs>
    <style>
      .st0, .st1 {
        fill: none;
      }

      .st2 {
        fill: #607fc6;
      }

      .st3 {
        fill: #008788;
      }

      .st4 {
        fill: #364d89;
      }

      .st5 {
        fill: #f89505;
      }

      .st1, .st6 {
        stroke: #364d89;
        stroke-miterlimit: 10;
        stroke-width: 5px;
      }

      .st7 {
        fill: #f55;
      }

      .st8, .st6 {
        fill: #fff;
      }

      .st9 {
        fill: #aee8ff;
      }

      .st10 {
        fill: #ffd67b;
      }

      .st11 {
        fill: #c83725;
      }

      .st12 {
        fill: #1870ab;
      }

      .st13 {
        fill: #9b4848;
      }

      .st14 {
        fill: #36bcff;
      }
    </style>
  </defs>
  <rect class="st14" y="-11.62" width="810.73" height="524.9"/>
  <rect class="st14" x="66.82" width="665.75" height="500"/>
  <polygon class="st3" points="572.49 5.39 561.71 39.09 537.96 12.85 572.49 5.39"/>
  <polygon class="st5" points="537.96 12.85 527.18 46.55 503.43 20.3 537.96 12.85"/>
  <polygon class="st12" points="503.43 20.3 492.52 53.87 468.9 27.76 503.43 20.3"/>
  <polygon class="st11" points="468.9 27.76 457.98 61.33 434.23 35.08 468.9 27.76"/>
  <polygon class="st3" points="434.23 35.08 423.45 68.78 399.7 42.54 434.23 35.08"/>
  <polygon class="st5" points="399.7 42.54 388.79 76.24 365.17 50 399.7 42.54"/>
  <polygon class="st12" points="365.17 50 354.26 83.7 330.5 57.46 365.17 50"/>
  <polygon class="st11" points="330.5 57.46 319.73 91.16 295.97 64.92 330.5 57.46"/>
  <polygon class="st3" points="295.97 64.92 285.19 98.48 261.44 72.38 295.97 64.92"/>
  <polygon class="st5" points="261.44 72.38 250.53 105.94 226.91 79.7 261.44 72.38"/>
  <polygon class="st12" points="226.91 79.7 216 113.4 192.24 87.15 226.91 79.7"/>
  <polygon class="st11" points="192.24 87.15 181.47 120.86 157.71 94.61 192.24 87.15"/>
  <polygon class="st3" points="157.71 94.61 146.8 128.31 123.18 102.07 157.71 94.61"/>
  <polygon class="st5" points="123.18 102.07 112.27 135.77 88.51 109.53 123.18 102.07"/>
  <path class="st9" d="M751.86,393.21c-8.41,0-16.48,1.85-23.88,5.05.17-1.68.34-3.36.34-5.05,0-26.41-21.53-47.94-47.94-47.94-22.54,0-41.55,15.64-46.59,36.67-1.85.34-3.7.84-5.38,1.35-12.11-13.12-29.6-21.53-48.95-21.53-16.15,0-30.78,5.72-42.22,15.14-5.05-25.4-27.42-44.57-54.5-44.57-18.5,0-34.82,9.08-44.91,22.88-3.36-.67-6.9-1.01-10.6-1.01-12.62,0-24.39,4.37-33.47,11.77.17-1.01.17-2.02.17-3.2,0-16.82-13.62-30.44-30.44-30.44-1.01,0-2.02,0-2.86.17-5.89-33.47-34.99-58.87-69.97-59.04,7.74-9.76,12.28-22.03,12.28-35.32,0-31.62-25.57-57.19-57.19-57.19s-57.19,25.57-57.19,57.19c0,4.04.5,7.91,1.18,11.77-36.16.34-65.26,29.6-65.26,65.6,0,10.93,2.69,21.36,7.4,30.44-27.42,4.37-49.79,23.55-58.7,49.11-4.54-1.18-9.42-1.85-14.3-1.85-32.46,0-58.87,26.41-58.87,58.87v117.4h810.73v-117.4c0-32.63-26.41-58.87-58.87-58.87Z"/>
  <polygon class="st3" points="699.97 9.25 703.01 0 691.55 0 699.97 9.25"/>
  <polygon class="st5" points="665.44 16.71 670.83 0 650.25 0 665.44 16.71"/>
  <polygon class="st12" points="630.91 24.17 638.65 0 608.95 0 630.91 24.17"/>
  <polygon class="st11" points="572.49 5.39 596.24 31.63 606.47 0 597.63 0 572.49 5.39"/>
  <line class="st0" x1="606.47" x2="608.95"/>
  <circle class="st8" cx="460.89" cy="98.48" r="17.96"/>
  <circle class="st7" cx="442.93" cy="372.93" r="17.96"/>
  <circle class="st8" cx="503.43" cy="283.43" r="17.96"/>
  <circle class="st7" cx="615.31" cy="317.13" r="17.96"/>
  <circle class="st8" cx="675.94" cy="212.71" r="17.96"/>
  <circle class="st8" cx="607.16" cy="133.98" r="17.96"/>
  <circle class="st7" cx="126.08" cy="170.72" r="17.96"/>
  <circle class="st8" cx="174.97" cy="35.36" r="17.96"/>
  <circle class="st8" cx="299.01" cy="141.44" r="17.96"/>
  <circle class="st8" cx="233.95" cy="309.39" r="17.96"/>
  <circle class="st8" cx="145.55" cy="331.49" r="17.96"/>
  <rect class="st2" x="319.59" y="345.3" width="7.73" height="154.7"/>
  <rect class="st4" x="327.32" y="345.3" width="7.73" height="154.7"/>
  <path class="st6" d="M365.31,287.29l-4.14,41.44c0,9.12-7.46,16.57-16.57,16.57h-34.53c-9.12,0-16.57-7.46-16.57-16.57l-4.14-41.44"/>
  <path class="st13" d="M126.63,500c0-17.54,14.23-31.77,31.77-31.77s31.77,14.23,31.77,31.77"/>
  <rect class="st10" x="102.18" y="456.91" width="18.09" height="43.09"/>
  <circle class="st10" cx="111.16" cy="453.31" r="14.92"/>
  <rect class="st10" x="199.7" y="456.91" width="18.09" height="43.09"/>
  <circle class="st10" cx="208.68" cy="453.31" r="14.92"/>
  <rect class="st8" x="102.18" y="490.33" width="18.09" height="9.67"/>
  <rect class="st8" x="199.7" y="490.33" width="18.09" height="9.67"/>
  <path class="st13" d="M286.99,500c0-17.54,14.23-31.77,31.77-31.77s31.77,14.23,31.77,31.77"/>
  <rect class="st10" x="262.54" y="456.91" width="18.09" height="43.09"/>
  <circle class="st10" cx="271.52" cy="453.31" r="14.92"/>
  <rect class="st10" x="360.06" y="456.91" width="18.09" height="43.09"/>
  <circle class="st10" cx="369.03" cy="453.31" r="14.92"/>
  <rect class="st8" x="262.54" y="490.33" width="18.09" height="9.67"/>
  <rect class="st8" x="360.06" y="490.33" width="18.09" height="9.67"/>
  <path class="st13" d="M452.05,500c0-17.54,14.23-31.77,31.77-31.77s31.77,14.23,31.77,31.77"/>
  <rect class="st10" x="427.6" y="456.91" width="18.09" height="43.09"/>
  <circle class="st10" cx="436.58" cy="453.31" r="14.92"/>
  <rect class="st10" x="525.11" y="456.91" width="18.09" height="43.09"/>
  <circle class="st10" cx="534.09" cy="453.31" r="14.92"/>
  <rect class="st8" x="427.6" y="490.33" width="18.09" height="9.67"/>
  <rect class="st8" x="525.11" y="490.33" width="18.09" height="9.67"/>
  <path class="st13" d="M611.3,500c0-17.54,14.23-31.77,31.77-31.77s31.77,14.23,31.77,31.77"/>
  <rect class="st10" x="586.85" y="456.91" width="18.09" height="43.09"/>
  <circle class="st10" cx="595.83" cy="453.31" r="14.92"/>
  <rect class="st10" x="684.37" y="456.91" width="18.09" height="43.09"/>
  <circle class="st10" cx="693.34" cy="453.31" r="14.92"/>
  <rect class="st8" x="586.85" y="490.33" width="18.09" height="9.67"/>
  <rect class="st8" x="684.37" y="490.33" width="18.09" height="9.67"/>
  <path class="st4" d="M370.14,283.43c0,4.28-3.45,7.73-7.73,7.73h-69.75c-4.28,0-7.73-3.45-7.73-7.73h0c0-4.28,3.45-7.73,7.73-7.73h69.75c4.28,0,7.73,3.45,7.73,7.73h0Z"/>
  <line class="st1" x1="336.58" y1="283.43" x2="362.4" y2="309.25"/>
  <line class="st1" x1="316.96" y1="283.43" x2="361.3" y2="327.62"/>
  <line class="st1" x1="300.94" y1="287.29" x2="356.47" y2="342.82"/>
  <line class="st1" x1="290.17" y1="297.38" x2="337.82" y2="345.03"/>
  <line class="st1" x1="292.1" y1="317.13" x2="319.17" y2="344.34"/>
  <line class="st1" x1="291" y1="304.28" x2="310.47" y2="284.94"/>
  <line class="st1" x1="331.47" y1="287.29" x2="293.9" y2="324.86"/>
  <line class="st1" x1="352.74" y1="287.29" x2="299.01" y2="341.02"/>
  <line class="st1" x1="364.75" y1="296.69" x2="319.17" y2="342.13"/>
  <line class="st1" x1="362.13" y1="318.37" x2="335.19" y2="345.44"/>
  <polygon class="st12" points="88.28 109.59 77.37 143.29 53.61 117.05 88.28 109.59"/>
  <polygon class="st11" points="53.61 117.05 42.84 150.75 19.08 124.51 53.61 117.05"/>
  <polygon class="st3" points="19.08 124.51 8.17 158.21 -15.45 131.97 19.08 124.51"/>
  <polygon class="st5" points="-15.45 131.97 -26.36 165.67 -50.12 139.43 -15.45 131.97"/>
</svg>