<?xml version="1.0" encoding="UTF-8"?>
<svg id="_レイヤー_1" data-name="レイヤー_1" xmlns="http://www.w3.org/2000/svg" version="1.1" viewBox="0 0 800 500">
  <!-- Generator: Adobe Illustrator 30.1.0, SVG Export Plug-In . SVG Version: 2.1.1 Build 136)  -->
  <defs>
    <style>
      .st0 {
        fill: #8e8e8e;
      }

      .st1 {
        fill: #1d1d1d;
      }

      .st2 {
        fill: #f4c329;
      }

      .st3 {
        fill: #ccc;
      }

      .st4 {
        fill: #fff;
      }
    </style>
  </defs>
  <rect width="800" height="500"/>
  <path class="st1" d="M.36,303.89c36.53,21.94,79.17,34.44,124.86,34.44,134.31,0,243.19-108.89,243.19-243.19,0-33.75-6.94-65.97-19.31-95.14H.36v303.89Z"/>
  <path class="st0" d="M541.22,394.17l-1.81,5.28-1.81,5.28s-6.11-6.53-17.64-10.56l.42-1.39.42-1.39c11.67,4.17,20.42,2.78,20.42,2.78Z"/>
  <path id="ID0.11160518415272236" class="st0" d="M515.39,409.86l-1.81-.56,11.81-33.75,1.81.56-11.81,33.75Z"/>
  <path id="ID0.111605184152722361" data-name="ID0.11160518415272236" class="st3" d="M521.36,393.06l-1.81-.56,5.97-16.81,1.81.56-5.97,16.81Z"/>
  <path class="st0" d="M556.22,399.44l-1.81,5.28-1.81,5.28s8.75-1.25,20.28,2.78l.42-1.39.42-1.39c-11.53-4.03-17.5-10.56-17.5-10.56Z"/>
  <path class="st3" d="M555.81,405.28c1.81-5-.83-10.56-5.83-12.36s-10.56.83-12.36,5.83"/>
  <path class="st0" d="M555.81,405.28c-1.81,5-7.22,7.64-12.36,5.83-5-1.81-7.64-7.22-5.83-12.36"/>
  <path id="ID0.111605184152722362" data-name="ID0.11160518415272236" class="st0" d="M578.31,394.31l1.81.56-11.81,33.75-1.81-.56,11.81-33.75Z"/>
  <path id="ID0.111605184152722363" data-name="ID0.11160518415272236" class="st3" d="M578.31,394.31l1.81.56-5.97,16.81-1.81-.56,5.97-16.81Z"/>
  <circle class="st0" cx="546.92" cy="402.08" r="4.17"/>
  <polyline class="st2" points="733.03 318.33 473.72 280.97 473.72 296.53 733.03 383.06"/>
  <polyline class="st2" points="315.81 238.33 237.75 227.08 237.75 231.81 315.81 257.78"/>
  <path class="st0" d="M216.5,350.56l6.25,22.78,6.25,22.78s-37.22-8.06-87.5,5.69l-1.67-5.97-1.67-5.97c50.83-13.61,78.33-39.31,78.33-39.31Z"/>
  <path id="ID0.111605184152722364" data-name="ID0.11160518415272236" class="st0" d="M163.72,468.61l-7.64,2.08-40.14-147.22,7.64-2.08,40.14,147.22Z"/>
  <path id="ID0.111605184152722365" data-name="ID0.11160518415272236" class="st3" d="M143.59,395l-7.64,2.08-20.14-73.61,7.64-2.08,20.14,73.61Z"/>
  <path class="st0" d="M281.64,332.78l6.25,22.78,6.25,22.78s27.92-25.83,78.33-39.58l-1.67-5.97-1.67-5.97c-50.69,14.17-87.5,5.97-87.5,5.97Z"/>
  <path class="st3" d="M294.56,353.75c-5.97-21.94-28.61-34.86-50.56-28.89-21.94,5.97-34.86,28.61-28.89,50.56"/>
  <path class="st0" d="M294.56,353.75c5.97,21.94-6.94,44.58-28.89,50.56-21.94,5.97-44.58-6.94-50.56-28.89"/>
  <path id="ID0.111605184152722366" data-name="ID0.11160518415272236" class="st0" d="M346.92,260.42l7.64-2.08,40.14,147.22-7.64,2.08-40.14-147.22Z"/>
  <path id="ID0.111605184152722367" data-name="ID0.11160518415272236" class="st3" d="M346.92,260.42l7.64-2.08,20.14,73.61-7.64,2.08-20.14-73.61Z"/>
  <circle class="st0" cx="255.25" cy="364.58" r="17.5"/>
  <path class="st0" d="M444.97,177.22l-2.08,10-2.08,10s-12.64-10.42-34.72-15.14l.56-2.64.56-2.64c22.08,4.86,37.78.42,37.78.42Z"/>
  <path id="ID0.111605184152722368" data-name="ID0.11160518415272236" class="st0" d="M401.36,212.08l-3.33-.69,13.61-64.44,3.33.69-13.61,64.44Z"/>
  <path id="ID0.111605184152722369" data-name="ID0.11160518415272236" class="st3" d="M408.17,179.86l-3.33-.69,6.81-32.22,3.33.69-6.81,32.22Z"/>
  <path class="st0" d="M473.45,183.19l-2.08,10-2.08,10s15.83-4.44,37.92.28l.56-2.64.56-2.64c-22.22-4.58-34.86-15-34.86-15Z"/>
  <path class="st3" d="M474.42,193.89c2.08-9.58-4.03-19.03-13.75-21.11-9.72-2.08-19.03,4.03-21.11,13.75"/>
  <path class="st0" d="M474.42,193.89c-2.08,9.58-11.53,15.83-21.11,13.75-9.58-2.08-15.83-11.53-13.75-21.11"/>
  <path id="ID0.1116051841527223610" data-name="ID0.11160518415272236" class="st0" d="M512.89,168.33l3.33.69-13.61,64.44-3.33-.69,13.61-64.44Z"/>
  <path id="ID0.1116051841527223611" data-name="ID0.11160518415272236" class="st3" d="M512.89,168.33l3.33.69-6.81,32.22-3.33-.69,6.81-32.22Z"/>
  <circle class="st0" cx="457.2" cy="190.14" r="7.64"/>
  <path class="st0" d="M616.09,186.53l-3.19,2.08-3.19,2.08s-.56-6.11-5.28-13.19l.83-.56.83-.56c4.72,7.08,10,10.14,10,10.14Z"/>
  <path id="ID0.1116051841527223612" data-name="ID0.11160518415272236" class="st0" d="M595.25,184.17l-.69-1.11,20.83-13.47.69,1.11-20.83,13.47Z"/>
  <path id="ID0.1116051841527223613" data-name="ID0.11160518415272236" class="st3" d="M605.67,177.5l-.69-1.11,10.42-6.81.69,1.11-10.42,6.81Z"/>
  <path class="st0" d="M622.06,195.69l-3.19,2.08-3.19,2.08s5.42,3.06,10,10.14l.83-.56.83-.56c-4.72-7.08-5.28-13.19-5.28-13.19Z"/>
  <path class="st3" d="M619.56,198.75c3.06-2.08,4.03-6.11,1.94-9.31s-6.11-4.03-9.31-1.94"/>
  <path class="st0" d="M619.56,198.75c-3.06,2.08-7.22,1.11-9.31-1.94-2.08-3.06-1.11-7.22,1.94-9.31"/>
  <path id="ID0.1116051841527223614" data-name="ID0.11160518415272236" class="st0" d="M636.5,202.22l.69,1.11-20.83,13.47-.69-1.11,20.83-13.47Z"/>
  <path id="ID0.1116051841527223615" data-name="ID0.11160518415272236" class="st3" d="M636.5,202.22l.69,1.11-10.42,6.81-.69-1.11,10.42-6.81Z"/>
  <circle class="st0" cx="615.95" cy="193.19" r="2.92"/>
  <circle class="st4" cx="13" cy="126.11" r="3.47"/>
  <circle class="st4" cx="17.5" cy="140.97" r="3.47"/>
  <circle class="st4" cx="27.86" cy="123.61" r="3.47"/>
  <circle class="st4" cx="32.36" cy="138.33" r="3.47"/>
  <circle class="st4" cx="42.59" cy="121.11" r="3.47"/>
  <circle class="st4" cx="47.09" cy="135.83" r="3.47"/>
  <circle class="st4" cx="57.45" cy="118.61" r="3.47"/>
  <circle class="st4" cx="61.95" cy="133.33" r="3.47"/>
  <circle class="st4" cx="72.17" cy="116.11" r="3.47"/>
  <circle class="st4" cx="76.67" cy="130.83" r="3.47"/>
  <circle class="st4" cx="87.03" cy="113.47" r="3.47"/>
  <circle class="st4" cx="89.53" cy="128.33" r="3.47"/>
  <circle class="st4" cx="101.75" cy="110.97" r="3.47"/>
  <circle class="st4" cx="104.25" cy="125.83" r="3.47"/>
  <circle class="st4" cx="116.61" cy="108.47" r="3.47"/>
  <circle class="st4" cx="119.11" cy="123.33" r="3.47"/>
  <circle class="st4" cx="131.34" cy="105.97" r="3.47"/>
  <circle class="st4" cx="133.84" cy="120.69" r="3.47"/>
  <circle class="st4" cx="146.2" cy="103.47" r="3.47"/>
  <circle class="st4" cx="148.7" cy="118.19" r="3.47"/>
  <circle class="st4" cx="160.92" cy="100.97" r="3.47"/>
  <circle class="st4" cx="163.42" cy="115.69" r="3.47"/>
  <circle class="st4" cx="175.78" cy="98.47" r="3.47"/>
  <circle class="st4" cx="178.28" cy="113.19" r="3.47"/>
  <circle class="st4" cx="190.5" cy="95.83" r="3.47"/>
  <circle class="st4" cx="193" cy="110.69" r="3.47"/>
  <circle class="st4" cx="205.36" cy="93.33" r="3.47"/>
  <circle class="st4" cx="207.86" cy="108.19" r="3.47"/>
  <circle class="st4" cx="220.09" cy="90.83" r="3.47"/>
  <circle class="st4" cx="222.59" cy="105.69" r="3.47"/>
  <circle class="st4" cx="234.95" cy="88.33" r="3.47"/>
  <circle class="st4" cx="237.45" cy="103.06" r="3.47"/>
  <circle class="st4" cx="249.67" cy="85.83" r="3.47"/>
  <circle class="st4" cx="252.17" cy="100.56" r="3.47"/>
  <circle class="st4" cx="264.53" cy="83.33" r="3.47"/>
  <circle class="st4" cx="267.03" cy="98.06" r="3.47"/>
  <circle class="st4" cx="279.25" cy="80.83" r="3.47"/>
  <circle class="st4" cx="281.75" cy="95.56" r="3.47"/>
  <circle class="st4" cx="294.11" cy="78.19" r="3.47"/>
  <circle class="st4" cx="296.61" cy="93.06" r="3.47"/>
  <circle class="st4" cx="308.84" cy="75.69" r="3.47"/>
  <circle class="st4" cx="311.34" cy="90.56" r="3.47"/>
  <circle class="st4" cx="323.7" cy="73.19" r="3.47"/>
  <circle class="st4" cx="326.2" cy="88.06" r="3.47"/>
  <circle class="st4" cx="338.42" cy="70.69" r="3.47"/>
  <circle class="st4" cx="340.92" cy="85.42" r="3.47"/>
  <circle class="st4" cx="353.28" cy="68.19" r="3.47"/>
  <circle class="st4" cx="355.78" cy="82.92" r="3.47"/>
</svg>