<?xml version="1.0" encoding="UTF-8"?>
<svg id="_レイヤー_1" data-name="レイヤー_1" xmlns="http://www.w3.org/2000/svg" version="1.1" viewBox="0 0 800 500">
  <!-- Generator: Adobe Illustrator 30.1.0, SVG Export Plug-In . SVG Version: 2.1.1 Build 136)  -->
  <defs>
    <style>
      .st0 {
        fill: #4a312b;
      }

      .st1 {
        fill: #1f485a;
      }

      .st2 {
        fill: #c91b3d;
      }

      .st2, .st3, .st4, .st5, .st6, .st7, .st8 {
        stroke: #231815;
        stroke-miterlimit: 10;
        stroke-width: 3px;
      }

      .st9 {
        fill: #2b4d5e;
      }

      .st10 {
        fill: #28301f;
      }

      .st3 {
        fill: #df6436;
      }

      .st11 {
        fill: #581a2f;
      }

      .st12 {
        fill: #3c3059;
      }

      .st4 {
        fill: #5597cb;
      }

      .st13 {
        fill: #7c263d;
      }

      .st14 {
        fill: #551a2c;
      }

      .st5 {
        fill: #4a7434;
      }

      .st6, .st15 {
        fill: #664699;
      }

      .st16, .st7 {
        fill: #231815;
      }

      .st17 {
        fill: #fff;
      }

      .st18 {
        fill: #26436a;
      }

      .st19 {
        fill: #445a2b;
      }

      .st20 {
        fill: #854e3d;
      }

      .st21 {
        fill: #314220;
      }

      .st22 {
        fill: #366684;
      }

      .st23 {
        fill: #50406f;
      }

      .st24 {
        fill: #244d97;
      }

      .st25 {
        fill: #5f1d33;
      }

      .st26 {
        fill: #212b12;
      }

      .st8 {
        fill: #040000;
      }

      .st27 {
        fill: #3a2853;
      }
    </style>
  </defs>
  <rect class="st24" width="800" height="500"/>
  <rect class="st18" x="178.83" y="272.72" width="106.17" height="17.58"/>
  <rect class="st18" x="278.71" y="342.64" width="106.17" height="17.58"/>
  <rect class="st18" x="498.44" y="392.58" width="106.17" height="17.58"/>
  <rect class="st18" x="162.85" y="382.59" width="106.17" height="17.58"/>
  <rect class="st18" x="358.61" y="192.82" width="106.17" height="17.58"/>
  <rect class="st18" x="378.59" y="302.69" width="106.17" height="17.58"/>
  <rect class="st18" x="488.45" y="223.58" width="106.17" height="17.58"/>
  <rect class="st18" x="514.72" y="163.06" width="106.17" height="17.58"/>
  <g>
    <polygon class="st16" points="504.73 198.31 494.35 187.93 494.35 179.54 471.67 179.54 471.67 189.92 464.88 189.92 456.69 198.31 454.1 198.31 435.22 201.81 428.53 196.22 405.75 196.22 411.95 206.1 408.95 206.7 408.95 215.09 413.25 216.19 405.75 230.67 417.34 230.67 425.53 219.49 475.27 232.67 550.58 232.67 579.64 212.5 579.64 198.31 504.73 198.31"/>
    <polygon class="st4" points="503.73 193.32 493.35 182.93 493.35 174.54 470.68 174.54 470.68 184.93 463.88 184.93 455.69 193.32 453.1 193.32 434.22 196.82 427.53 191.22 404.76 191.22 410.95 201.11 407.95 201.71 407.95 210.1 412.25 211.2 404.76 225.68 416.34 225.68 424.53 214.49 474.27 227.68 549.58 227.68 578.64 207.5 578.64 193.32 503.73 193.32"/>
    <polygon class="st9" points="549.58 225.58 474.57 225.58 425.03 211.9 568.66 211.9 549.58 225.58"/>
    <polygon class="st9" points="416.14 223.98 407.35 223.98 415.34 211.9 424.13 211.9 416.14 223.98"/>
    <rect class="st17" x="444.91" y="196.22" width="130.34" height="1.9"/>
    <rect class="st22" x="410.35" y="204.51" width="166.4" height="2.1"/>
    <rect class="st22" x="466.48" y="201.11" width="3.1" height="16.88"/>
    <rect class="st22" x="530.9" y="201.11" width="3.1" height="13.78"/>
    <rect class="st22" x="475.87" y="180.14" width="15.88" height="4.39"/>
    <rect class="st22" x="473.17" y="189.82" width="21.87" height="4"/>
    <rect class="st17" x="472.17" y="175.94" width="7.09" height="7.09"/>
    <rect class="st1" x="540.19" y="202.01" width="32.56" height="7.29"/>
    <rect class="st17" x="408.75" y="191.92" width="18.18" height="4.29"/>
    <rect class="st22" x="421.34" y="201.11" width="3.7" height="3.7"/>
    <rect class="st22" x="441.41" y="206.5" width="3.5" height="3.5"/>
    <rect class="st22" x="482.26" y="200.11" width="3.7" height="3.7"/>
    <rect class="st22" x="502.34" y="205.5" width="3.5" height="3.5"/>
    <rect class="st22" x="522.21" y="198.31" width="3.7" height="3.7"/>
    <rect class="st22" x="542.29" y="207.5" width="3.5" height="3.5"/>
    <rect class="st22" x="465.38" y="188.53" width="3.5" height="3.5"/>
  </g>
  <g>
    <polygon class="st8" points="344.73 377.19 344.73 356.32 353.42 354.32 343.23 339.74 368 339.74 374.89 349.73 404.46 335.65 422.43 335.65 429.73 316.67 456.49 316.67 467.38 321.86 471.07 332.85 503.83 325.66 596.92 325.66 616.2 340.24 616.2 369.7 568.36 386.98 407.35 386.98 374.99 381.89 368 392.08 343.23 392.08 352.72 378.49 344.73 377.19"/>
    <polygon class="st5" points="346.83 374.9 346.83 353.92 355.52 352.03 345.33 337.44 370 337.44 376.89 347.43 406.45 333.35 424.53 333.35 431.82 314.37 458.49 314.37 469.48 319.56 473.17 330.55 505.93 323.26 599.02 323.26 618.29 337.94 618.29 367.41 570.35 384.59 409.45 384.59 377.09 379.59 370 389.78 345.33 389.78 354.82 376.2 346.83 374.9"/>
    <polygon class="st5" points="346.83 374.9 346.83 353.92 355.52 352.03 345.33 337.44 370 337.44 376.89 347.43 406.45 333.35 424.53 333.35 431.82 314.37 458.49 314.37 469.48 319.56 473.17 330.55 505.93 323.26 599.02 323.26 618.29 337.94 618.29 367.41 570.35 384.59 409.45 384.59 377.09 379.59 370 389.78 345.33 389.78 354.82 376.2 346.83 374.9"/>
    <polygon class="st26" points="568.76 382.69 409.05 382.69 376.39 377.59 368.8 388.08 348.92 388.08 358.41 374.9 348.92 373.5 348.92 367.51 604.81 367.51 612.9 367.41 568.76 382.69"/>
    <rect class="st17" x="506.33" y="323.96" width="92.19" height="4.29"/>
    <rect class="st10" x="348.92" y="357.72" width="267.57" height="3.5"/>
    <rect class="st21" x="581.94" y="333.35" width="3.5" height="12.28"/>
    <rect class="st21" x="560.47" y="333.35" width="3.5" height="12.28"/>
    <rect class="st21" x="538.99" y="333.35" width="3.5" height="12.28"/>
    <rect class="st21" x="517.62" y="333.35" width="3.5" height="12.28"/>
    <rect class="st21" x="392.67" y="348.73" width="3.5" height="21.57"/>
    <rect class="st21" x="418.34" y="348.73" width="3.5" height="21.57"/>
    <rect class="st21" x="444.11" y="348.73" width="3.5" height="21.57"/>
    <rect class="st21" x="478.37" y="348.73" width="3.5" height="21.57"/>
    <rect class="st21" x="433.02" y="321.66" width="23.37" height="2.3"/>
    <rect class="st21" x="433.02" y="330.15" width="23.37" height="2.3"/>
    <rect class="st17" x="433.52" y="315.77" width="24.67" height="2"/>
    <polygon class="st17" points="462.88 330.35 471.37 330.35 468.28 320.66 462.88 317.67 462.88 330.35"/>
    <rect class="st17" x="406.65" y="334.35" width="18.48" height="2.3"/>
    <rect class="st17" x="348.92" y="337.84" width="19.68" height="3"/>
    <polygon class="st17" points="598.52 338.24 616.6 338.14 598.52 323.96 598.52 338.24"/>
    <rect class="st10" x="563.36" y="352.62" width="53.23" height="11.59"/>
    <rect class="st21" x="497.74" y="339.34" width="4.69" height="4.69"/>
    <rect class="st21" x="480.56" y="339.34" width="4.69" height="4.69"/>
    <rect class="st21" x="463.48" y="339.34" width="4.69" height="4.69"/>
    <rect class="st21" x="446.3" y="339.34" width="4.69" height="4.69"/>
    <rect class="st19" x="403.46" y="347.93" width="4.69" height="4.69"/>
    <rect class="st19" x="377.69" y="365.01" width="4.69" height="4.69"/>
    <rect class="st19" x="360.51" y="347.93" width="4.69" height="4.69"/>
    <rect class="st19" x="463.48" y="365.01" width="4.69" height="4.69"/>
    <rect class="st19" x="506.33" y="347.93" width="4.69" height="4.69"/>
    <rect class="st19" x="532" y="365.01" width="4.69" height="4.69"/>
    <rect class="st19" x="549.18" y="347.93" width="4.69" height="4.69"/>
    <rect class="st19" x="574.95" y="365.01" width="4.69" height="4.69"/>
    <rect class="st19" x="571.45" y="339.34" width="4.69" height="4.69"/>
    <rect class="st19" x="597.22" y="343.64" width="4.69" height="4.69"/>
    <rect class="st21" x="429.13" y="339.34" width="4.69" height="4.69"/>
    <rect class="st5" x="495.15" y="354.32" width="41.55" height="19.48"/>
    <rect class="st26" x="496.94" y="366.01" width="38.15" height="6.19"/>
    <rect class="st17" x="496.94" y="355.82" width="38.15" height="3.7"/>
  </g>
  <g>
    <rect class="st3" x="179.53" y="325.76" width="19.28" height="17.78"/>
    <rect class="st20" x="181.53" y="334.65" width="10.59" height="6.69"/>
    <polygon class="st7" points="323.16 327.46 313.87 327.46 313.87 324.86 282.41 324.86 280.91 311.87 246.75 311.87 241.95 324.86 191.52 324.86 197.31 350.03 313.87 350.03 313.87 347.03 323.16 347.03 323.16 327.46"/>
    <rect class="st3" x="265.53" y="300.49" width="5.59" height="12.78"/>
    <rect class="st3" x="209.69" y="314.87" width="19.08" height="12.68"/>
    <polygon class="st3" points="320.86 324.06 311.57 324.06 311.57 321.36 280.11 321.36 278.61 308.48 244.45 308.48 239.66 321.36 189.22 321.36 195.01 346.63 311.57 346.63 311.57 343.64 320.86 343.64 320.86 324.06"/>
    <polygon class="st20" points="309.97 344.53 197.11 344.53 194.91 334.15 309.97 334.15 309.97 344.53"/>
    <rect class="st20" x="219.68" y="326.26" width="2.2" height="16.08"/>
    <rect class="st20" x="271.12" y="326.16" width="2.2" height="16.08"/>
    <rect class="st20" x="248.15" y="316.87" width="22.97" height="2.7"/>
    <rect class="st17" x="313.97" y="325.76" width="5.39" height="5.09"/>
    <rect class="st17" x="192.12" y="324.06" width="49.44" height="2.2"/>
    <rect class="st17" x="278.51" y="324.06" width="30.76" height="2.1"/>
    <rect class="st20" x="248.15" y="312.27" width="22.97" height="2.7"/>
    <rect class="st17" x="269.52" y="311.08" width="7.49" height="7.49"/>
    <rect class="st20" x="305.58" y="334.15" width="13.88" height="8.09"/>
    <rect class="st3" x="186.52" y="328.95" width="52.64" height="10.39"/>
    <rect class="st20" x="191.32" y="334.35" width="45.84" height="3.2"/>
    <rect class="st17" x="211.29" y="316.87" width="3" height="3"/>
    <rect class="st17" x="265.53" y="301.79" width="2.8" height="2.8"/>
    <rect class="st0" x="287.8" y="331.65" width="31.56" height="4.99"/>
    <rect class="st17" x="187.42" y="330.65" width="6.39" height="6.39"/>
  </g>
  <rect class="st18" x="160.85" y="129.8" width="188.07" height="31.16"/>
  <rect class="st18" x="390.57" y="89.85" width="188.07" height="31.16"/>
  <g>
    <polygon class="st16" points="198.41 183.93 198.41 175.64 203.5 175.54 196.71 167.45 211.89 167.45 218.28 175.04 253.24 174.04 267.02 163.66 293.59 163.66 310.07 151.17 330.85 151.17 330.85 162.26 356.12 162.26 364.5 168.55 373.89 168.55 382.58 175.14 382.58 189.82 371.4 195.22 263.53 195.22 217.38 187.23 211.89 193.82 196.71 193.82 204.2 184.93 198.41 183.93"/>
    <g>
      <polygon class="st15" points="266.82 192.82 221.48 185.03 215.99 191.42 196.91 191.42 204.8 182.13 200.41 181.33 200.41 170.35 203.8 170.25 196.91 162.06 215.99 162.06 222.38 169.65 256.14 168.75 270.02 158.26 296.49 158.26 312.97 145.78 335.84 145.78 335.84 156.86 360.11 156.86 368.4 163.16 377.79 163.16 387.48 170.55 387.48 186.93 375.19 192.82 266.82 192.82"/>
      <path class="st16" d="M334.34,147.28v10.99h25.27l8.29,6.29h9.39l8.79,6.59v14.68l-11.19,5.39h-107.87l-46.14-7.99-5.49,6.59h-15.28l7.39-8.89-5.69-1v-8.19l5.09-.1-6.79-8.09h15.18l6.39,7.59,34.96-1,13.88-10.39h26.57l16.38-12.38h20.87M337.34,144.28h-24.87l-.8.6-15.68,11.89h-26.57l-.8.6-13.08,9.89-32.56.9-5.49-6.49-.9-1.1h-22.87l4.09,4.89,2.8,3.3-1.8.1v13.68l2.5.4.6.1-4.09,4.89-4.09,4.89h22.97l.9-1.1,4.39-5.19,44.45,7.69h109.17l.6-.3,11.19-5.39,1.7-.8v-17.98l-1.2-.9-8.79-6.59-.8-.6h-9.29l-7.49-5.69-.8-.6h-23.27v-11.09h-.1Z"/>
    </g>
    <polygon class="st27" points="374.79 191.52 266.92 191.52 220.78 183.53 215.29 190.02 200.11 190.02 207.5 181.23 201.8 180.24 201.8 176.14 385.98 176.14 385.98 186.13 374.79 191.52"/>
    <rect class="st17" x="367.7" y="164.65" width="9.59" height="1.6"/>
    <rect class="st17" x="334.34" y="158.36" width="25.07" height="1.4"/>
    <rect class="st17" x="313.07" y="147.28" width="21.27" height="1.7"/>
    <rect class="st17" x="270.52" y="159.76" width="26.07" height="1.7"/>
    <rect class="st17" x="201.2" y="163.76" width="14.28" height="1.1"/>
    <polygon class="st17" points="377.29 171.35 385.98 171.35 377.29 164.65 377.29 171.35"/>
    <rect class="st12" x="356.61" y="169.35" width="2.8" height="14.48"/>
    <rect class="st12" x="330.95" y="169.35" width="2.8" height="14.48"/>
    <rect class="st12" x="294.09" y="169.35" width="2.8" height="14.48"/>
    <rect class="st12" x="268.42" y="169.35" width="2.8" height="14.48"/>
    <rect class="st12" x="313.87" y="152.77" width="16.18" height="3.2"/>
    <rect class="st12" x="313.87" y="159.26" width="16.18" height="3.2"/>
    <g>
      <rect class="st12" x="355.42" y="162.46" width="3.9" height="3"/>
      <rect class="st12" x="346.93" y="162.46" width="3.9" height="3"/>
      <rect class="st12" x="338.34" y="162.46" width="3.9" height="3"/>
    </g>
    <g>
      <rect class="st12" x="290.3" y="164.35" width="3.9" height="3"/>
      <rect class="st12" x="281.81" y="164.35" width="3.9" height="3"/>
      <rect class="st12" x="273.22" y="164.35" width="3.9" height="3"/>
    </g>
    <rect class="st23" x="367" y="170.55" width="3.5" height="2.7"/>
    <rect class="st23" x="358.41" y="177.04" width="3.5" height="2.7"/>
    <rect class="st23" x="341.33" y="170.55" width="3.5" height="2.7"/>
    <rect class="st23" x="332.74" y="177.04" width="3.5" height="2.7"/>
    <rect class="st23" x="315.56" y="170.55" width="3.5" height="2.7"/>
    <rect class="st23" x="307.08" y="177.04" width="3.5" height="2.7"/>
    <rect class="st23" x="281.31" y="170.55" width="3.5" height="2.7"/>
    <rect class="st23" x="272.72" y="177.04" width="3.5" height="2.7"/>
    <rect class="st23" x="250.44" y="171.85" width="3.5" height="2.7"/>
    <rect class="st23" x="241.95" y="178.34" width="3.5" height="2.7"/>
    <rect class="st23" x="211.89" y="168.65" width="3.5" height="2.7"/>
    <rect class="st23" x="229.07" y="173.14" width="3.5" height="2.7"/>
    <rect class="st23" x="303.58" y="160.16" width="3.5" height="2.7"/>
    <rect class="st23" x="203.4" y="175.14" width="3.5" height="2.7"/>
    <g>
      <rect class="st6" x="318.36" y="179.64" width="32.66" height="6.39"/>
      <rect class="st27" x="320.06" y="183.43" width="29.56" height="1.8"/>
      <rect class="st17" x="320.06" y="179.64" width="29.56" height="1.8"/>
    </g>
  </g>
  <g>
    <polygon class="st16" points="549.28 117.21 549.28 108.22 538.39 108.22 538.39 95.24 522.11 95.24 517.92 108.22 493.45 108.22 489.75 117.21 461.29 117.21 451.9 119.11 449.7 113.02 430.62 113.02 434.12 122.61 423.83 124.6 423.83 139.78 433.62 141.68 430.52 150.77 449.6 150.77 451.5 145.18 461.29 147.08 590.03 147.08 615.5 126.8 615.5 117.21 549.28 117.21"/>
    <polygon class="st2" points="552.28 114.62 552.28 105.53 541.39 105.53 541.39 92.54 525.11 92.54 520.81 105.53 496.34 105.53 492.75 114.62 464.28 114.62 454.89 116.41 452.7 110.42 433.52 110.42 437.02 119.91 426.83 121.91 426.83 137.09 436.52 138.99 433.42 148.07 452.6 148.07 454.49 142.48 464.28 144.38 593.03 144.38 618.49 124.1 618.49 114.62 552.28 114.62"/>
    <polygon class="st25" points="592.23 143.68 464.28 143.68 427.93 136.29 427.93 128.9 610.2 128.9 592.23 143.68"/>
    <rect class="st14" x="427.93" y="126.1" width="182.18" height="2.9"/>
    <rect class="st17" x="465.68" y="115.91" width="151.12" height="1.6"/>
    <rect class="st17" x="435.12" y="110.42" width="17.08" height="2.5"/>
    <rect class="st17" x="427.93" y="121.71" width="5.09" height="5.09"/>
    <rect class="st17" x="526.01" y="93.84" width="14.08" height="2.4"/>
    <rect class="st17" x="497.24" y="106.43" width="24.37" height="2"/>
    <rect class="st17" x="524.71" y="93.84" width="5.09" height="5.09"/>
    <rect class="st17" x="546.18" y="106.43" width="5.19" height="5.19"/>
    <rect class="st11" x="577.34" y="121.71" width="17.18" height="14.68"/>
    <rect class="st13" x="530.1" y="120.31" width="4.49" height="21.37"/>
    <rect class="st13" x="561.16" y="120.31" width="4.49" height="21.37"/>
    <rect class="st13" x="467.88" y="120.31" width="4.49" height="21.37"/>
    <rect class="st13" x="498.94" y="120.31" width="4.49" height="21.37"/>
    <rect class="st13" x="445.11" y="120.31" width="4.49" height="4.49"/>
    <rect class="st13" x="479.96" y="120.31" width="4.49" height="4.49"/>
    <rect class="st13" x="525.01" y="105.23" width="4.49" height="4.49"/>
    <rect class="st13" x="554.67" y="120.31" width="4.49" height="4.49"/>
    <rect class="st13" x="600.92" y="118.11" width="4.49" height="4.49"/>
    <rect class="st13" x="497.64" y="111.62" width="23.87" height="2.4"/>
    <rect class="st16" x="428.63" y="131" width="37.05" height="2.9"/>
  </g>
</svg>