<?xml version="1.0" encoding="utf-8"?>
<!-- Generator: Adobe Illustrator 17.1.0, SVG Export Plug-In . SVG Version: 6.00 Build 0)  -->
<!DOCTYPE svg PUBLIC "-//W3C//DTD SVG 1.1//EN" "http://www.w3.org/Graphics/SVG/1.1/DTD/svg11.dtd">
<svg version="1.1" id="レイヤー_1" xmlns="http://www.w3.org/2000/svg" xmlns:xlink="http://www.w3.org/1999/xlink" x="0px"
	 y="0px" viewBox="-856.5 -60.5 801 495" enable-background="new -856.5 -60.5 801 495" xml:space="preserve">
<g>
	<rect x="-856.5" y="-60.5" fill="#AEBAB1" width="801" height="495"/>
</g>
<g>
	<rect x="-784.8" y="-60.5" fill="#56919B" width="662.9" height="33.1"/>
</g>
<g>
	<polygon fill="#56919B" points="-707.7,-60.5 -707.7,-27.4 -856.5,266.8 -856.5,-60.5 	"/>
</g>
<g>
	<polygon fill="#56919B" points="-199.1,-60.5 -199.1,-28.8 -55.5,248 -55.5,-60.5 	"/>
</g>
<g>
	<polygon points="-271.6,434.5 -641,434.5 -604.6,98 -308.1,98 	"/>
</g>
<g>
	<g>
		<polygon fill="#5DC17B" points="-671.4,359.8 -617.4,15.3 -287,15.3 -232.9,359.8 		"/>
	</g>
	<g>
		<path fill="#FFFFFF" d="M-289.9,19.4l52.9,337.6h-430.4l52.9-337.6H-289.9 M-284,12.5h-336.3L-675.4,364h446.5L-284,12.5
			L-284,12.5z"/>
	</g>
</g>
<g>
	<ellipse cx="-361.9" cy="46.6" rx="23.9" ry="11.8"/>
</g>
<g>
	<ellipse cx="-519.5" cy="236.9" rx="17.8" ry="13.8"/>
</g>
<g>
	<rect x="-676" y="362.6" fill="#4D6652" width="446.5" height="13.8"/>
</g>
<g>
	<rect x="-455.3" y="19.4" fill="#FFFFFF" width="1" height="343.2"/>
</g>
<g>
	<rect x="-663.6" y="143.5" fill="#56919B" width="412.1" height="35.8"/>
</g>
<g>
	<polygon fill="#FFFFFF" points="-250.5,179.3 -252.5,179.3 -252.5,144.5 -662.6,144.5 -662.6,179.3 -664.6,179.3 -664.6,142.5 
		-250.5,142.5 	"/>
</g>
<g>
	<rect x="-455.3" y="146.2" fill="#A7D1D3" width="1" height="31.7"/>
</g>
<g>
	<polygon fill="#A7D1D3" points="-641,146.2 -634.7,146.2 -639.4,177.9 -645.8,177.9 	"/>
</g>
<g>
	<polygon fill="#A7D1D3" points="-262.7,146.2 -269.5,146.2 -265.6,176.5 -258.5,176.5 	"/>
</g>
<g>
	<g id="ID0.12530470034107566" transform="matrix(-1, 0, 0, 1, 122.6, 0)">
		<g id="L_Arm">
			<path fill="#9A8479" d="M478.3,14.8c-1.5-2.7-4.1,1-4.1,1s-1.1,2.3-1.6,3.5c-0.1,0.2-0.1,0.4-0.2,0.6v0c0,0-1.4,0.5-1.1,1.1
				c0.2,0.4,0.5,0.6,0.8,0.6c0,0.8,0.3,1.4,0.9,1.7c1.4,0.8,3.5-1.5,3.5-1.5c0,0-0.4,0.4,0,0C476.8,21.5,479.8,17.5,478.3,14.8
				L478.3,14.8L478.3,14.8L478.3,14.8L478.3,14.8L478.3,14.8L478.3,14.8L478.3,14.8z"/>
			<path d="M473.7,24.1c1.5,0,3.1-1.6,3.2-1.8c0,0,0,0,0.1-0.1c0,0,0,0,0,0c1-1.4,3.1-5,1.7-7.6c-0.6-1-1.3-1.3-1.8-1.3
				c-1.5,0-3,2-3.1,2.2c-0.1,0.2-1.2,2.4-1.7,3.6c-0.1,0.1-0.1,0.3-0.1,0.4c-0.3,0.2-0.9,0.5-1.1,1c-0.1,0.2-0.1,0.5,0,0.7
				c0.1,0.3,0.4,0.6,0.8,0.8c0.1,1,0.7,1.5,1.1,1.8C473.1,24,473.4,24.1,473.7,24.1z M476,21.7c-0.6,0.6-2,1.6-2.7,1.2
				c-0.3-0.1-0.6-0.4-0.6-1.3c0-0.2-0.1-0.4-0.3-0.5c-0.2-0.1-0.4-0.2-0.5-0.4c0-0.1,0.4-0.3,0.7-0.4c0.2,0,0.3-0.2,0.4-0.3
				c0.1-0.2,0.1-0.4,0.2-0.6c0.4-1.2,1.6-3.5,1.6-3.5c0.3-0.4,1.4-1.7,2.3-1.7c0.1,0,0.5,0,0.9,0.7c1.2,2.2-1,5.5-1.7,6.5
				C476.2,21.6,476.1,21.6,476,21.7C476.1,21.7,476.1,21.7,476,21.7L476,21.7C476.1,21.7,476.1,21.7,476,21.7z"/>
		</g>
		<g id="R_Arm">
			<path fill="#9A8479" d="M494.7,18.8L494.7,18.8c-0.1-0.2-0.1-0.4-0.2-0.6c-0.3-0.8-1.3-2-2.2-2.9c0,0-3.9-1.8-4.3,0
				c-0.4,1.8,1.6,5,2.4,5.5c0.3,0.2,0.7,0.4,1,0.6c0.7,0.6,1.8,1.3,2.8,0.8c0.6-0.3,0.9-0.9,0.9-1.7c0.3-0.1,0.6-0.3,0.8-0.7
				C496.1,19.3,494.7,18.8,494.7,18.8L494.7,18.8L494.7,18.8L494.7,18.8L494.7,18.8L494.7,18.8L494.7,18.8L494.7,18.8z"/>
			<path d="M493.5,22.9c0.3,0,0.6-0.1,0.9-0.2c0.5-0.3,1-0.8,1.1-1.8c0.4-0.2,0.6-0.5,0.8-0.8c0.1-0.2,0.1-0.5,0-0.7
				c-0.2-0.5-0.8-0.8-1.1-1c0-0.1-0.1-0.3-0.1-0.4c-0.5-1.2-1.9-2.6-2.3-3.1c0,0-0.1-0.1-0.1-0.1c-0.1,0-1.9-0.8-3.2-0.8
				c-1.3,0-1.7,0.8-1.8,1.2c-0.4,2.1,1.7,5.5,2.6,6c0.3,0.2,0.7,0.4,1,0.6C492,22.6,492.8,22.9,493.5,22.9z M494.7,19.3
				c0.3,0.1,0.7,0.4,0.7,0.5c-0.1,0.1-0.2,0.2-0.5,0.3c-0.2,0.1-0.3,0.3-0.3,0.5c0,0.6-0.2,1-0.6,1.3c-0.5,0.3-1.3,0-2.2-0.8
				c-0.4-0.3-0.8-0.5-1.1-0.7c-0.7-0.4-2.5-3.4-2.2-4.9c0-0.1,0.1-0.4,0.8-0.4c1,0,2.4,0.6,2.7,0.7c1,1,1.8,2,2,2.6
				c0.1,0.2,0.1,0.4,0.2,0.6C494.3,19.1,494.5,19.3,494.7,19.3z"/>
		</g>
		<g id="L_Leg_1_">
			<path fill="#9A8479" d="M479.9,21.6c-2.6-1-3,1.6-3,1.6s0.2,3.4,0.2,4.7c0,1.2-0.1,2.4-0.1,2.4s-0.4,0.2-0.2,0.7
				c0.2,0.5,1.8,0.5,3.9,0.6c2,0.1,3.6-0.2,3.8-0.8c0.2-0.5-0.4-0.7-0.4-0.7s-1.3-3.4-1-4.9C483.5,23.2,482.5,22.6,479.9,21.6
				L479.9,21.6L479.9,21.6L479.9,21.6L479.9,21.6L479.9,21.6L479.9,21.6L479.9,21.6z"/>
			<path d="M481.5,32.1c0.9,0,3.2-0.1,3.6-1.1c0.1-0.3,0.1-0.6,0-0.8c-0.1-0.2-0.3-0.4-0.5-0.5c-0.4-1-1.1-3.4-0.9-4.5
				c0.4-2.5-1-3.1-3.5-4.1c-0.4-0.2-0.9-0.3-1.3-0.3c-1.6,0-2.3,1.5-2.4,2.2l0,0.1l0,0.1c0,0,0.2,3.4,0.2,4.6c0,0.9,0,1.8-0.1,2.2
				c-0.2,0.3-0.4,0.7-0.2,1.2c0.3,0.7,1.4,0.7,3.4,0.8l1,0C481,32.1,481.3,32.1,481.5,32.1z M478.8,21.9c0.3,0,0.6,0.1,0.9,0.2
				c2.6,1,3.2,1.4,2.9,3c-0.3,1.6,0.9,4.8,1.1,5.2l0.1,0.2l0.2,0.1c0,0,0.1,0,0.1,0.1c-0.1,0.1-1,0.4-2.7,0.4c-0.2,0-0.5,0-0.7,0
				l-1,0c-1,0-2.3-0.1-2.5-0.3l0.2-0.1l0-0.3c0,0,0.1-1.2,0.1-2.4c0-1.2-0.2-4.2-0.2-4.6C477.5,23,477.8,21.9,478.8,21.9z"/>
		</g>
		<g id="R_Leg_2_">
			<path fill="#9A8479" d="M486.6,22.1c-1.9,0.9-1.3,3.2-1.3,3.2s0.5,2.1,0.5,3.3c0,1.2,0,1.6,0,1.6s-0.3,0-0.3,0.5
				c0.1,0.4,1.1,0.9,4.1,0.8c2.9-0.1,3.5-0.7,3.5-1.1c0-0.3-0.6-0.7-0.6-0.7s-0.3-2.2-0.8-4.1c-0.5-1.9-1.5-3.7-1.5-3.7
				C489.7,21.1,488.5,21.2,486.6,22.1L486.6,22.1L486.6,22.1L486.6,22.1L486.6,22.1L486.6,22.1L486.6,22.1L486.6,22.1z"/>
			<path d="M489,32.1c0.2,0,0.4,0,0.6,0c3.3-0.1,4-0.9,4-1.6c0-0.5-0.4-0.8-0.7-1c-0.1-0.6-0.4-2.3-0.8-3.9
				c-0.5-1.9-1.5-3.7-1.5-3.8c-0.3-0.6-0.9-1-1.6-1c-0.6,0-1.5,0.2-2.6,0.8c-1.8,0.8-1.8,2.9-1.6,3.8c0,0,0.5,2.1,0.5,3.2
				c0,0.6,0,1.1,0,1.3c0,0-0.1,0.1-0.1,0.1c-0.1,0.1-0.2,0.4-0.1,0.8C485.2,31.7,486.6,32.1,489,32.1z M492.6,30.5
				c-0.2,0.1-0.8,0.5-3,0.6c-2.2,0.1-3.1-0.2-3.4-0.4l0.1,0l0-0.4c0,0,0-0.5,0-1.7c0-1.2-0.5-3.3-0.5-3.4c0-0.1-0.5-2,1-2.7
				c1.8-0.8,2.6-0.9,3-0.2c0,0,1,1.8,1.4,3.6c0.5,1.8,0.8,4,0.8,4l0,0.2l0.2,0.1C492.4,30.4,492.5,30.5,492.6,30.5z"/>
		</g>
		<g id="Belly">
			<path fill="#9A8479" d="M482.2,12.4c-5.3,0.4-6.3,3.6-6.3,3.6c-0.1,0.7-0.4,2.2-0.3,3.8c0,0,0.1,1,0.4,1.7c0.4,1,1,1.9,2.1,2.4
				c3.3,1.6,6.5,1.7,9.4,0.5c1.9-0.8,2.7-2.4,3.2-4c0.1-0.4,0.1-1.6,0.1-1.6c0-0.3,0-0.7-0.1-1c-0.2-1-0.8-2.2-1.2-3
				C489.5,15.1,487.5,12,482.2,12.4L482.2,12.4L482.2,12.4L482.2,12.4L482.2,12.4L482.2,12.4L482.2,12.4L482.2,12.4z"/>
			<path d="M483.5,25.8c1.4,0,2.9-0.3,4.2-0.8c2.1-0.9,3-2.7,3.5-4.3c0.1-0.4,0.2-1.5,0.2-1.7c0-0.4-0.1-0.7-0.1-1.1
				c-0.2-1.1-0.8-2.3-1.2-3.1c0,0-2.2-3.4-7.9-2.9c-5.6,0.4-6.7,3.8-6.7,4c-0.2,0.8-0.4,2.4-0.3,4c0,0,0.1,1,0.4,1.8
				c0.4,1.3,1.2,2.2,2.4,2.7C479.8,25.4,481.7,25.8,483.5,25.8z M489.1,15.4c0.4,0.7,0.9,1.8,1.1,2.8c0.1,0.3,0.1,0.5,0.1,0.9
				c0,0.5-0.1,1.2-0.1,1.4c-0.4,1.3-1.1,2.9-2.9,3.6c-2.9,1.1-5.9,1-9-0.5c-0.9-0.4-1.5-1.1-1.9-2.2c-0.2-0.7-0.3-1.6-0.3-1.6
				c-0.2-1.5,0.1-3.1,0.3-3.7c0-0.1,0.9-2.8,5.8-3.2C487,12.5,489,15.2,489.1,15.4z"/>
		</g>
		<g id="Head_1_">
			<g id="Head">
				<path fill="#9A8479" d="M454.5,3.3c0.2,0.3,0.4,0.6,0.6,1c0,0,0,0,0,0.1c0.2,0.3,0.5,0.7,0.7,1c0,0.1,0.7,0.9,1,1.2
					c0,0,0.1,0.1,0.1,0.1c0.3,0.3,0.6,0.6,0.9,1c0,0,0.1,0.1,0.1,0.1c0.3,0.3,0.7,0.7,1.1,1c0.1,0.1,0.1,0.1,0.2,0.2
					c0.4,0.3,0.8,0.6,1.2,1c0,0,0.1,0.1,0.1,0.1c0.4,0.3,0.8,0.6,1.3,0.9c0.1,0,0.1,0.1,0.2,0.1c0.5,0.3,0.9,0.6,1.4,0.9
					c0.1,0.1,0.2,0.1,0.3,0.2c0.5,0.3,1.1,0.6,1.6,0.8c0,0,0,0,0.1,0c0.5,0.3,1.1,0.5,1.7,0.7c0.1,0,0.2,0.1,0.3,0.1
					c0.6,0.2,1.2,0.5,1.8,0.7c0.1,0,0.2,0.1,0.3,0.1c0.7,0.2,1.3,0.4,2,0.6c0,0,0,0,0,0c0.7,0.2,1.4,0.3,2.2,0.5
					c0.1,0,0.3,0.1,0.4,0.1c0.7,0.1,1.5,0.3,2.2,0.4c3.1,0.4,6.5,0.5,10.3,0.2c3.3-0.2,6.4-1,9.3-2.2c0.7-0.3,1.3-0.6,2-0.9
					c0.1-0.1,0.3-0.1,0.4-0.2c0.8-0.4,1.5-0.8,2.2-1.3c0.2-0.1,0.3-0.2,0.5-0.3c0.6-0.4,1.2-0.8,1.7-1.3c0.1-0.1,0.3-0.2,0.4-0.4
					c0.7-0.5,1.3-1.1,1.9-1.7c0.1-0.1,0.2-0.2,0.4-0.4c0.5-0.5,1-1,1.5-1.6c0.1-0.2,0.3-0.3,0.4-0.5c0.6-0.7,1.1-1.4,1.6-2.1
					c0.1-0.1,0.1-0.2,0.2-0.3c0.4-0.6,0.9-1.3,1.3-2c0.1-0.2,0.2-0.4,0.4-0.6c0.4-0.8,0.9-1.5,1.3-2.3c2.3-4.5,2-13.7,0-18.8
					c-0.6-1.4-1.4-2.6-2.2-3.9c-3.6-5.7-8.2-11.7-8.2-11.7l0.7-6.2c0,0-2.7-0.9-5.8,1.1c-1.8,1.1-3.9,4.2-3.9,4.2l3.7-10
					c0,0-6.9-0.6-11.6,3.4c-4.7,4-4.6,6.3-4.6,6.3l-0.4-8c0,0-11.6,0.3-19.2,8.2c-3.4,3.5-9.1,10-9.8,22.3l0,0.1
					c-0.2,2.9,0.3,12.2,2.9,16.3C453.5,1.7,454.4,3.3,454.5,3.3L454.5,3.3L454.5,3.3L454.5,3.3L454.5,3.3L454.5,3.3L454.5,3.3
					L454.5,3.3z"/>
				<path d="M482.7,16.9c1.3,0,2.7-0.1,4.1-0.2c3.2-0.2,6.4-1,9.4-2.3c0.7-0.3,1.4-0.6,2-0.9l0.2-0.1c0.1,0,0.2-0.1,0.3-0.1
					c0.7-0.4,1.5-0.8,2.2-1.3l0.5-0.4c0.6-0.4,1.2-0.8,1.7-1.3l0.4-0.4c0.7-0.6,1.3-1.2,1.9-1.7c0.1-0.1,0.2-0.2,0.2-0.3l0.1-0.1
					c0.5-0.5,1-1.1,1.5-1.6l0.2-0.2c0.1-0.1,0.2-0.2,0.3-0.3c0.6-0.7,1.1-1.4,1.6-2.1l0.2-0.3c0.4-0.6,0.9-1.3,1.3-2
					c0.1-0.2,0.2-0.4,0.4-0.6c0.5-0.9,0.9-1.6,1.3-2.4c2.4-4.8,2-14.1,0-19.2c-0.5-1.2-1.1-2.2-1.8-3.2c-0.2-0.2-0.3-0.5-0.5-0.7
					c-3.2-5.1-7.4-10.6-8.1-11.6l0.8-6.4l-0.4-0.1c0,0-0.7-0.2-1.6-0.2c-1.1,0-2.8,0.2-4.6,1.4c-0.7,0.5-1.5,1.2-2.1,1.9l2.8-7.7
					l-0.7-0.1c0,0-0.4,0-1,0c-2,0-7.2,0.3-10.9,3.6c-2.1,1.8-3.3,3.3-3.9,4.3l-0.3-6.2l-0.5,0c-0.5,0-11.9,0.4-19.6,8.3
					c-2.5,2.6-9.2,9.4-9.9,22.6l0,0.1c-0.2,3,0.3,12.3,3,16.6l0,0c0,0.1,0.1,0.2,0.3,0.4c0.3,0.5,0.7,1.1,0.7,1.1
					c0.2,0.3,0.4,0.6,0.6,1c0.3,0.4,0.5,0.8,0.8,1.1c0.1,0.1,0.7,0.9,1,1.2l0.1,0.1c0.3,0.3,0.6,0.7,0.9,1l0.1,0.1
					c0.3,0.3,0.7,0.7,1.1,1l0.2,0.2c0.4,0.3,0.8,0.7,1.2,1c0,0,0.1,0.1,0.1,0.1c0.4,0.3,0.8,0.6,1.3,0.9l0.2,0.1
					c0.5,0.3,1,0.6,1.5,0.9l0.3,0.2c0.5,0.3,1.1,0.6,1.6,0.8c0.6,0.3,1.2,0.5,1.8,0.8l0.3,0.1c0.6,0.2,1.2,0.5,1.9,0.7l0.4,0.1
					c0.7,0.2,1.4,0.4,2,0.6c0.7,0.2,1.4,0.3,2.2,0.5l0.4,0.1c0.7,0.1,1.5,0.3,2.3,0.4C478.4,16.8,480.5,16.9,482.7,16.9z M501.8-42
					l-0.7,5.9l0.1,0.2c0,0.1,4.7,6.1,8.2,11.7c0.2,0.2,0.3,0.5,0.5,0.7c0.6,1,1.3,1.9,1.7,3c1.9,4.8,2.4,13.9,0.1,18.4
					c-0.4,0.7-0.8,1.5-1.3,2.3c-0.1,0.2-0.2,0.4-0.3,0.6c-0.4,0.7-0.8,1.3-1.3,1.9l-0.2,0.3c-0.5,0.7-1,1.3-1.6,2l-0.4,0.5
					c-0.5,0.5-1,1.1-1.5,1.6l-0.3,0.4c-0.6,0.6-1.2,1.1-1.9,1.7l-0.4,0.3c-0.5,0.4-1.1,0.8-1.7,1.2l-0.5,0.3
					c-0.7,0.5-1.4,0.9-2.2,1.3c-0.1,0-0.1,0.1-0.2,0.1l-0.2,0.1c-0.6,0.3-1.3,0.6-1.9,0.9c-2.9,1.2-6,2-9.1,2.2
					c-3.6,0.3-7,0.2-10.2-0.2c-0.8-0.1-1.5-0.2-2.2-0.3l-0.4-0.1c-0.7-0.1-1.4-0.3-2.1-0.5c-0.7-0.2-1.4-0.4-2-0.6l-0.3-0.1
					c-0.6-0.2-1.2-0.4-1.8-0.6l-0.3-0.1c-0.6-0.2-1.1-0.5-1.7-0.7c-0.6-0.3-1.1-0.6-1.6-0.8l-0.3-0.2c-0.5-0.3-1-0.6-1.4-0.9
					l-0.2-0.1c-0.4-0.3-0.8-0.6-1.2-0.9l-0.1-0.1c-0.4-0.3-0.8-0.6-1.2-0.9l-0.2-0.2c-0.4-0.3-0.7-0.6-1.1-1l-0.5,0.2l0.4-0.4
					c-0.3-0.3-0.6-0.6-0.9-0.9l-0.1-0.1c-0.3-0.4-0.9-1.2-1-1.2c-0.2-0.3-0.5-0.7-0.7-1c-0.2-0.4-0.4-0.7-0.6-1c0,0-0.4-0.7-0.7-1.2
					l-0.3-0.4c-2.5-4-3-13.2-2.8-16l0-0.1c0.7-11.4,5.5-17.7,9.7-22c6.5-6.7,16.2-7.8,18.4-8l0.4,7.5l1,0c0,0,0.1-2.2,4.5-5.9
					c3.7-3.1,8.8-3.3,10.5-3.3l-3.4,9.3l0.9,0.5c0,0,2.1-3,3.8-4.1C499.1-42.2,501-42.1,501.8-42z"/>
			</g>
			<g id="Face">
				<path fill="#E6E7E8" d="M499.5-14.6c0,0-1.8,3.7-6.5,5.6c-4.7,1.9-10.2,1.9-10.2,1.9l4.1-5.8c0,0-2,1.4-3.8,2.4
					c-1.8,1-4,1.4-4,1.4l2.8-5.3c0,0-17.2,3.5-19.4,10.8c-2.1,7.4,3.9,15.1,16.9,16c9.8,0.6,22.6-2.8,24.8-11
					C506.5-6.7,499.5-14.6,499.5-14.6L499.5-14.6L499.5-14.6L499.5-14.6L499.5-14.6L499.5-14.6L499.5-14.6L499.5-14.6z"/>
				<path d="M481.8,12.9c9.6,0,20.9-3.6,23-11.4c2.2-8.3-4.6-16.1-4.9-16.4l-0.5-0.6l-0.3,0.7c0,0-1.8,3.5-6.3,5.3
					c-3.4,1.4-7.2,1.8-9,1.9l3.5-5l-0.7-0.7c0,0-2,1.4-3.7,2.4c-1,0.5-2.1,0.9-2.8,1.1l2.8-5.3l-1,0.2c-0.7,0.1-17.5,3.6-19.7,11.2
					c-0.9,3.2-0.4,6.6,1.6,9.4c3,4.2,8.5,6.8,15.7,7.2C480.2,12.9,481,12.9,481.8,12.9z M499.6-13.7c1.5,1.9,6,8.4,4.2,15
					c-1.8,7-12.5,10.7-22,10.7c-0.8,0-1.5,0-2.2-0.1c-6.9-0.4-12.2-2.8-15-6.8c-1.8-2.6-2.3-5.6-1.5-8.5c1.7-6,14.2-9.4,17.9-10.3
					l-2.8,5.2l1-0.2c0.1,0,2.3-0.4,4.2-1.4c0.5-0.3,1.1-0.6,1.6-1l-3.2,4.5l1,0c0.2,0,5.6-0.1,10.3-2
					C496.8-10,498.8-12.5,499.6-13.7z"/>
			</g>
			<g id="R_Ear_1_">
				<g id="Outer_Ear_1_">
					<path fill="#9A8479" d="M508.4-18.8c0,0,11.2-6.3,13.7-0.9c2.6,5.3-2,11.6-11.5,17.2C510.6-2.5,510.8-11.8,508.4-18.8
						L508.4-18.8L508.4-18.8L508.4-18.8L508.4-18.8L508.4-18.8L508.4-18.8L508.4-18.8z M508.4-18.8c-0.2-0.8-0.9-2.4-0.9-2.4
						 M510.3-1.1l0.1-1.5"/>
					<path d="M510.3-0.6c0.3,0,0.5-0.2,0.5-0.5l0.1-1.1c10-5.9,14.2-12.4,11.7-17.8c-0.5-1.1-1.4-1.8-2.5-2.2
						c-3.7-1.2-9.5,1.6-11.4,2.6c-0.3-0.8-0.7-1.8-0.7-1.9c-0.1-0.3-0.4-0.4-0.7-0.3c-0.3,0.1-0.4,0.4-0.3,0.7c0,0,0.5,1.1,0.7,2
						l0,0l0.1,0.4c0,0,0,0,0,0c2.1,6.1,2.2,13.9,2.2,15.7c-0.1,0.1-0.1,0.2-0.1,0.3l-0.1,1.5C509.8-0.8,510-0.6,510.3-0.6
						C510.3-0.6,510.3-0.6,510.3-0.6z M518-21.4c0.6,0,1.2,0.1,1.7,0.2c0.9,0.3,1.5,0.8,1.9,1.6c2.3,4.7-1.6,10.6-10.6,16.1
						c0-2.5-0.2-9.4-2.1-15.2C510.3-19.3,514.7-21.4,518-21.4z"/>
				</g>
				<g id="Inner_Ear">
					<path fill="#EE4036" d="M510.4-2.6c0.1-1.7,0.1-4.6-0.3-8.1c-0.2-2.1-0.7-4.2-1.1-6l0,0c6.5-1.7,12.4,4.4,12.4,4.4h0
						c-3.3,5.4-10.9,9.6-10.9,9.6L510.4-2.6L510.4-2.6L510.4-2.6L510.4-2.6L510.4-2.6L510.4-2.6L510.4-2.6L510.4-2.6z"/>
					<path d="M510.7-2.3c0.3-0.2,7.8-4.3,11.1-9.8l0.5-0.8h-0.7c-0.9-0.8-5.1-4.7-10.2-4.7c-0.8,0-1.7,0.1-2.5,0.3l0.1,0.4l-0.5,0.2
						c0.5,2.2,0.9,4.2,1.1,6c0.4,3.5,0.4,6.3,0.3,8l0.7,0.1L510.7-2.3z M520.7-12.2c-2.7,4.1-7.9,7.5-9.8,8.6c0-1.8,0-4.2-0.4-7.1
						c-0.2-1.7-0.5-3.5-1-5.6c0.6-0.1,1.1-0.2,1.7-0.2C515.8-16.5,519.7-13.2,520.7-12.2z"/>
				</g>
			</g>
			<g id="L_Ear">
				<g id="Outer_Ear_2_">
					<path fill="#9A8479" d="M456,1.6c-9.3-3.7-14.3-8.7-12.9-13.9c1.4-5.2,12.2-1.2,12.2-1.2C454.3-6.9,456,1.6,456,1.6L456,1.6
						L456,1.6L456,1.6L456,1.6L456,1.6L456,1.6L456,1.6z M455.7-15.9c0,0-0.3,1.5-0.4,2.3 M456.1,1.5l0.3,1.3"/>
					<path d="M456.4,3.3c0,0,0.1,0,0.1,0c0.3-0.1,0.4-0.3,0.4-0.6l-0.3-1.3c0-0.1-0.1-0.2-0.2-0.3c-0.3-1.7-1.4-8.8-0.6-14.6
						c0,0,0,0,0,0l0.1-0.4l0,0c0.1-0.8,0.3-1.9,0.3-1.9c0.1-0.3-0.1-0.5-0.4-0.6c-0.3-0.1-0.5,0.1-0.6,0.4c0,0-0.2,1-0.3,1.7
						c-1.8-0.6-7.3-2.2-10.3-0.6c-1,0.5-1.7,1.3-1.9,2.4C441.2-7.2,446-1.9,455.7,2l0.2,1C456,3.2,456.2,3.3,456.4,3.3z M454.8-13.3
						c-0.7,5.4,0.2,11.7,0.6,14c-8.7-3.6-13-8.4-11.7-13c0.2-0.8,0.7-1.4,1.4-1.8C447.8-15.4,453.3-13.8,454.8-13.3z"/>
				</g>
				<g id="Inner_Ear_1_">
					<path fill="#EE4036" d="M456,1.4c0,0-7.4-2.6-11.1-7l0,0c0,0,4.2-6.4,10.2-5.9l0,0c-0.1,1.7-0.1,3.7,0,5.6
						c0.2,3.3,0.7,5.9,1,7.4L456,1.4L456,1.4L456,1.4L456,1.4L456,1.4L456,1.4L456,1.4L456,1.4z"/>
					<path d="M455.8,1.8l0.1-0.2l0.7-0.2c-0.3-1.6-0.8-4.1-1-7.3c-0.1-1.6-0.1-3.5,0-5.6l-0.5-0.1l0-0.4c-5.8-0.5-9.8,4.9-10.5,5.9
						L444-6l0.5,0.6C448.3-0.9,455.5,1.7,455.8,1.8z M454.6-11.1c-0.1,1.9-0.1,3.7,0,5.2c0.2,2.7,0.5,4.9,0.8,6.5
						c-1.9-0.8-6.9-3-9.8-6.3C446.4-6.9,449.9-11.2,454.6-11.1z"/>
				</g>
			</g>
			<g id="R_Eye">
				<path fill="#231F20" d="M491.9-1.8c-0.4,0-0.8-0.3-0.9-0.8c-0.1-0.5,0.3-0.9,0.7-1c0.4-0.1,4.4-0.7,5.8-0.5
					c0.5,0.1,0.8,0.5,0.8,1c-0.1,0.5-0.5,0.8-1,0.8c-0.9-0.1-3.7,0.2-5.3,0.5C492-1.8,492-1.8,491.9-1.8L491.9-1.8L491.9-1.8
					L491.9-1.8L491.9-1.8L491.9-1.8L491.9-1.8L491.9-1.8L491.9-1.8z"/>
			</g>
			<g id="L_Eye">
				<path fill="#231F20" d="M477.5-1.6c-0.1,0-0.1,0-0.2,0c-2.1-0.4-5.7,0-5.7,0c-0.5,0.1-0.9-0.3-1-0.8c-0.1-0.5,0.3-0.9,0.8-1
					c0.2,0,3.9-0.4,6.3,0c0.5,0.1,0.8,0.6,0.7,1C478.2-1.9,477.9-1.6,477.5-1.6L477.5-1.6L477.5-1.6L477.5-1.6L477.5-1.6L477.5-1.6
					L477.5-1.6L477.5-1.6L477.5-1.6z"/>
			</g>
			<g id="Mouth">
				<path fill="#231F20" d="M484.7,6.1c5.6,0,8.1-3.3,8.2-3.5c0.2-0.2,0.1-0.5-0.1-0.7c-0.2-0.2-0.5-0.1-0.7,0.1
					c-0.1,0.1-2.3,3-7.4,3c-5,0-6.4-1.9-6.4-1.9c-0.2-0.2-0.5-0.3-0.7-0.1c-0.2,0.2-0.3,0.5-0.1,0.7C477.5,3.9,479.1,6.1,484.7,6.1z
					"/>
			</g>
		</g>
	</g>
	<g id="ID0.7832664530724287">
		<path fill="#660000" d="M-371.3,19.6l-9.3-1.4l-0.3,1.8l9.3,1.4L-371.3,19.6z"/>
		
			<rect x="-381.8" y="17.9" transform="matrix(0.9889 0.1483 -0.1483 0.9889 -1.2261 56.0034)" fill="#660000" width="11.4" height="3.8"/>
	</g>
	<g id="ID0.005990299861878157">
		<path fill="#FF0000" d="M-385.8,10.7c-2.6-0.4-5.1,0-7,1c-1.9,1-3.2,2.5-3.5,4.4s0.5,3.8,2,5.3c1.5,1.5,3.8,2.6,6.4,3s5.1,0,7-1
			c1.9-1,3.2-2.5,3.5-4.4s-0.5-3.8-2-5.3C-381,12.3-383.2,11.1-385.8,10.7z"/>
		<path d="M-385.9,25.6L-385.9,25.6c-0.7,0-1.4-0.1-2.1-0.2c-2.7-0.4-5.2-1.6-6.9-3.3c-1.8-1.8-2.7-4-2.3-6.1c0.3-2.2,1.8-4,4-5.2
			c2.1-1.1,4.9-1.5,7.6-1.1c2.7,0.4,5.2,1.6,6.9,3.3c1.8,1.8,2.7,4,2.3,6.1c-0.3,2.2-1.8,4-4,5.2C-382,25.2-383.9,25.6-385.9,25.6z
			 M-387.8,11.6c-1.7,0-3.3,0.4-4.6,1c-1.7,0.9-2.7,2.2-3,3.7c-0.2,1.5,0.4,3.1,1.8,4.4c1.4,1.4,3.5,2.4,5.8,2.7
			c2.3,0.3,4.6,0,6.4-0.9c1.7-0.9,2.7-2.2,3-3.7c0.2-1.5-0.4-3.1-1.8-4.4c-1.4-1.4-3.5-2.4-5.8-2.7
			C-386.6,11.6-387.2,11.6-387.8,11.6z"/>
	</g>
</g>
<g id="ID0.5390788740478456">
	<path fill="#660000" d="M-451.7,380l-11.4-13.8l3.2-2.6l11.4,13.8L-451.7,380z"/>
	<path fill="#660000" d="M-451.8,381.4l-12.6-15.4l4.7-3.9l12.6,15.4L-451.8,381.4z M-461.7,366.3l10.1,12.3l1.6-1.3L-460,365
		L-461.7,366.3z"/>
</g>
<g id="ID0.5752993929199874">
	<path fill="#666666" d="M-493,361.1c-3.7-5.9-5-12.6-4.1-18.6c0.9-6,4-11.3,9.1-14.5c5.1-3.2,11.2-3.7,17-1.9
		c5.8,1.8,11.2,5.9,14.9,11.8c3.7,5.9,5,12.6,4.1,18.6c-0.9,6-4,11.3-9.1,14.5c-5.1,3.2-11.2,3.7-17,1.9
		C-483.9,371.1-489.3,367-493,361.1z"/>
	<path d="M-471.4,375c-2.3,0-4.7-0.4-7-1.1c-6.3-2-11.8-6.3-15.5-12.3c-3.7-6-5.2-12.8-4.3-19.3c1-6.6,4.4-11.9,9.6-15.2
		c5.1-3.2,11.6-3.9,17.9-2c6.3,2,11.8,6.3,15.5,12.3c3.7,6,5.2,12.8,4.3,19.3c-1,6.6-4.4,11.9-9.6,15.2
		C-463.7,373.9-467.5,375-471.4,375z M-477.7,326.1c-3.5,0-6.9,1-9.8,2.8c-4.7,2.9-7.8,7.8-8.7,13.8c-0.9,6,0.5,12.4,4,17.9
		c3.5,5.5,8.6,9.6,14.4,11.4c5.7,1.8,11.6,1.1,16.2-1.8c4.7-2.9,7.8-7.8,8.7-13.8c0.9-6-0.5-12.4-4-17.9c-3.5-5.5-8.6-9.6-14.4-11.4
		C-473.4,326.4-475.6,326.1-477.7,326.1z"/>
</g>
<g id="ID0.775925035122782" transform="matrix(1, 0, 0, 1, 7, 0)">
	<g id="ID0.6144626368768513">
		<path fill="#231F20" d="M-380.2,318.9c-0.4,0-0.8,0-1.2,0c-3-0.2-8.6-0.9-8.9-1l0.2-1.2c0.1,0,5.8,0.8,8.8,1
			c3,0.2,9.4-0.5,9.5-0.5l0.1,1.2C-372,318.4-377,318.9-380.2,318.9z"/>
	</g>
	<g id="ID0.39772236067801714">
		<path fill="#231F20" d="M-390,311.4l-0.7-1c0.2-0.1,4-3,9.9-5.5c6.5-2.9,10.2-3.7,10.4-3.7l0.3,1.2c0,0-3.7,0.8-10.1,3.6
			C-386.1,308.5-389.9,311.4-390,311.4z"/>
	</g>
	<g id="ID0.6538653178140521">
		<path fill="#FAA51D" d="M-395.3,354.9c-1.4,0.2-5.8,0.3-9.8,0.6c-4.8,0.3-13.6-0.8-9.3-8.2c4.2-7.5,10.7-5.9,19.2-6.1
			c4.5,0,9.3-2.2,11.7,3c2.4,5.3,8.2,21.3-3.7,24.7c-11.8,3.4-7.4-13-7.8-16.8"/>
		<path fill="#231F20" d="M-390,370.1c-1.4,0-2.6-0.4-3.5-1.2c-3.1-2.5-2.6-8.6-2.2-13c0-0.1,0-0.2,0-0.4c-0.8,0.1-1.9,0.1-3.3,0.2
			c-1.8,0.1-4,0.2-6.1,0.4c-1.4,0.1-8.4,0.4-10.5-3.1c-1-1.6-0.7-3.6,0.7-6c3.6-6.6,9.2-6.5,15.7-6.4c1.3,0,2.6,0,4,0
			c1,0,2.1-0.1,3.1-0.2c3.5-0.4,7.1-0.8,9.1,3.6c1.4,3,5.6,13.4,2.4,20.2c-1.2,2.6-3.4,4.4-6.5,5.3
			C-388.1,369.9-389.1,370.1-390,370.1z M-394.4,352.1c0.1,0.9,0,2.2-0.2,3.9c-0.3,3.9-0.9,9.8,1.8,12c1.2,1,3,1.1,5.5,0.4
			c2.7-0.8,4.7-2.3,5.8-4.6c3-6.5-1.5-17.1-2.5-19.2c-1.7-3.7-4.6-3.3-7.9-2.9c-1.1,0.1-2.1,0.2-3.2,0.2c-1.4,0-2.7,0-4,0
			c-6.6-0.1-11.3-0.2-14.6,5.8c-1.2,2-1.4,3.6-0.7,4.7c1.3,2.1,5.7,2.8,9.4,2.5c2.1-0.2,4.3-0.3,6.1-0.4c1.5-0.1,2.7-0.2,3.4-0.2
			c0.1-0.9,0.1-1.6,0-2.1L-394.4,352.1z"/>
	</g>
	<g id="ID0.03185550542548299">
		<path fill="#FAA51D" d="M-440.3,348.7c0,0-2.4,3.7-2.4,8c-0.2,4.3,0.6,11.2-2.9,13.1c-5.4,2.9-16-0.8-16.3,8.3s16.3,5.8,21.3,4
			c4.3-1.4,7.4-2.9,8.3-8.3c0,0,6.1-22.4,0.3-25C-437.7,346.1-440.3,348.7-440.3,348.7z"/>
		<path fill="#231F20" d="M-452.8,384.8C-452.8,384.8-452.8,384.8-452.8,384.8c-3.9,0-6.6-0.8-8.2-2.5c-1.1-1.1-1.6-2.5-1.5-4.3
			c0.2-6.6,5.5-7.1,10.2-7.5c2.3-0.2,4.7-0.4,6.5-1.4c2.6-1.4,2.5-6.2,2.5-10c0-0.9,0-1.8,0-2.6c0-4.4,2.4-8.2,2.5-8.3l0.1-0.1
			c0.1-0.1,1.3-1.3,3.9-1.3c1.6,0,3.3,0.4,5.1,1.3c6,2.7,0.6,23.3,0,25.7c-1,5.7-4.4,7.3-8.7,8.7
			C-442.8,383.6-448.1,384.8-452.8,384.8z M-439.8,349.1c-0.3,0.5-2.3,3.8-2.3,7.6c0,0.8,0,1.7,0,2.6c0,4.2,0,9.4-3.2,11.1
			c-2,1-4.5,1.3-6.9,1.5c-4.8,0.4-8.9,0.8-9.1,6.3c0,1.4,0.3,2.5,1.2,3.4c1.3,1.4,3.9,2.1,7.3,2.1c0,0,0,0,0,0c4.6,0,9.7-1.2,12-2
			c4.2-1.4,7-2.7,7.9-7.9c1.7-6.1,5-22.4,0.7-24.3c-1.7-0.8-3.2-1.2-4.6-1.2C-438.7,348.2-439.6,348.9-439.8,349.1z"/>
	</g>
	<g id="ID0.800017770845443">
		<path fill="#FAA51D" d="M-379.6,393.7c0,0-2.4,16.6,9.4,13.4c9-2.4,9.1-33.1,0.6-33.1c-5.1,0-7,4.6-7,4.6s-7,7.7-11,6.9
			c-4.2-0.8-12.8-10.7-12.8-10.7s-4.6-4-9.8,0c-5.3,4.2-2.4,9.9-2.4,9.9s9.8,11.4,17.6,13c7.8,1.6,15-4.2,18.6-5.6"/>
		<path fill="#231F20" d="M-373,408.1c-1.7,0-3.2-0.5-4.4-1.5c-3.3-2.9-3.2-9.1-3-11.8c-3.8,2.1-9.1,4.6-14.8,3.4
			c-8-1.6-17.5-12.7-17.9-13.2l-0.1-0.1c0-0.1-3-6.3,2.6-10.7c5.4-4.3,10.5,0,10.5,0c2.4,2.8,9.3,10,12.5,10.6
			c3,0.6,8.5-4.5,10.4-6.6c0.3-0.7,2.5-4.9,7.6-4.9c3.3,0,5.6,3.8,6.5,10.5c1.1,8.7-0.7,22.2-7,23.9
			C-371.1,408-372.1,408.1-373,408.1z M-379.1,394.1c-0.2,1.7-0.7,8.7,2.5,11.6c1.5,1.3,3.5,1.6,6.2,0.9c4.1-1.1,7.6-11,6.1-22.5
			c-0.8-5.9-2.8-9.4-5.3-9.4c-4.6,0-6.4,4.1-6.5,4.3l-0.1,0.2c-0.3,0.3-7.3,7.9-11.6,7.1c-4.3-0.8-12.8-10.5-13.1-10.9
			c-0.1-0.1-4.3-3.6-8.9,0.1c-4.6,3.6-2.6,8.5-2.3,9.1c0.8,0.9,10,11.2,17.2,12.7c5.8,1.2,11.5-1.9,15.2-4c1.2-0.6,2.2-1.2,3-1.5
			l0.5,1.1C-377,393-377.9,393.5-379.1,394.1C-379.1,394.1-379.1,394.1-379.1,394.1z"/>
	</g>
	<g id="ID0.41618469590321183">
		<path fill="#FAA51D" d="M-424.1,372.2c0,0-7.8,6.6-13.1,12c-7,7.4,5.3,24,5.3,24s-17.9,10.4-4.8,17.6c4.3,2.4,25.1-21.1,25.1-21.1
			s-12.8-12-8-16.3c8-7,17.3-8,18.6-15.7c0.8-4.8-1-7.2-4.3-11.4c-2.2-2.7-3.4-5.1-3.4-5.1s-1.8-11.5-6.9-13.3
			c-5.1-1.6-14.1,0.2-17.3,0.6c-3,0.5-10.6,3-7.4,15.8c0,0,2.4,6.1,4.5,9.3c2.6,3.8,4.6,6.2,6.6,7.8"/>
		<path fill="#231F20" d="M-436.1,426.6c-0.4,0-0.7-0.1-0.9-0.2c-3.4-1.8-5.1-4.1-5.1-6.7c-0.1-5.3,7.2-10.3,9.3-11.6
			c-2.1-3-11.5-17.3-4.9-24.3c2.3-2.4,5.2-5,7.6-7.2c-1.9-1.7-3.9-4.2-6.2-7.6c-2.1-3.2-4.4-9.1-4.5-9.4c-1.3-5.3-1-9.5,0.9-12.5
			c2-3,5.2-3.9,6.9-4.2c0.4-0.1,0.8-0.1,1.3-0.2c4.1-0.7,11.6-1.9,16.3-0.4c5.2,1.8,7.1,12.5,7.3,13.7c0.2,0.4,1.3,2.6,3.2,4.9
			c3.5,4.3,5.3,6.8,4.5,11.8c-0.8,5.1-5,7.4-9.7,10c-2.8,1.6-6,3.4-9,6c-0.6,0.5-0.9,1.2-0.9,2.1c-0.1,4.9,8.8,13.3,8.9,13.4
			l0.4,0.4l-0.4,0.4C-414.5,408.9-430.5,426.6-436.1,426.6z M-424.5,371.8l0.8,0.9c-0.1,0.1-7.9,6.6-13.1,12
			c-6.6,6.9,5.2,23.1,5.3,23.2l0.4,0.5l-0.6,0.3c-0.1,0.1-9.4,5.5-9.3,10.9c0,2.1,1.5,4,4.5,5.6c2.7,1.5,15.5-11,24-20.6
			c-1.8-1.8-8.9-9-8.9-13.9c0-1.2,0.4-2.2,1.3-2.9c3.1-2.7,6.3-4.5,9.2-6.1c4.7-2.6,8.4-4.7,9.2-9.2c0.8-4.5-0.8-6.7-4.2-10.9
			c-2.3-2.7-3.4-5.1-3.4-5.2l0-0.2c0-0.1-1.8-11.2-6.5-12.8c-4.4-1.4-12-0.1-15.7,0.5c-0.5,0.1-0.9,0.2-1.3,0.2
			c-1.5,0.2-4.3,1-6.1,3.7c-1.8,2.6-2,6.5-0.8,11.4l0,0c0,0,2.4,6,4.4,9.1c2.3,3.4,4.2,5.8,6.1,7.4
			C-426.5,373.5-424.5,371.8-424.5,371.8z"/>
	</g>
	<g id="ID0.19275283254683018">
		<path fill="#FAA51D" d="M-439,266.6c2.4-0.2,7.7-0.5,10.4-0.3c7.5,0.3,14.7,3,14.7,3l20.8-13.6l-3.5,30.3c-1-1.3,17,20.5,5.6,38.7
			s-35.5,26.4-65.6,20.5c-30.1-5.9-37.1-23.2-35.2-32.3c1.9-9.1,13.3-12.5,13.3-12.5s0.2-7.2,5.3-16c3-5.3,13.3-12.8,13.3-12.8
			l4.6-18.6l12,11.5L-439,266.6z"/>
		<path fill="#231F20" d="M-437.9,347.7c-6,0-12.3-0.6-18.8-1.9c-19.2-3.8-28-11.9-32.1-18c-3.3-5-4.6-10.4-3.6-15.1
			c1.8-8.5,11.2-12.1,13.3-12.8c0.1-1.7,0.8-8.1,5.3-15.9c2.9-5,11.9-11.8,13.3-12.9l4.8-19.4L-443,264l4.1,2
			c3.1-0.2,7.8-0.5,10.3-0.3c6.8,0.3,13.2,2.5,14.6,3l21.6-14.1l-3.6,31.3c0.8,1.1,4.6,6.2,7.1,13.3c3.5,9.7,2.9,18.7-1.6,26
			C-399.6,339.6-416.4,347.7-437.9,347.7z M-455,254.1l-4.4,17.8l-0.2,0.1c-0.1,0.1-10.2,7.5-13.1,12.6c-5,8.6-5.2,15.7-5.2,15.7
			l0,0.4l-0.4,0.1c-0.1,0-11,3.4-12.9,12c-0.9,4.3,0.3,9.5,3.4,14.2c3.9,5.9,12.5,13.8,31.3,17.5c6.4,1.3,12.6,1.9,18.6,1.9
			c21.1,0,37.6-7.9,46.4-22.1c9.6-15.4-2.4-33.6-5-37.4l-0.7-1l0.1-0.4l3.3-28.7l-20,13.1l-0.3-0.1c-0.1,0-7.2-2.7-14.5-3
			c-0.5,0-1.1,0-1.8,0c-2,0-5,0.1-8.6,0.4l-0.2,0l-4.6-2.3L-455,254.1z"/>
	</g>
	<g id="ID0.3144085840322077">
		<path fill="#231F20" d="M-485.5,309.6c-0.3,0-7.3-1.1-11.1-2.4c-4.4-1.5-7.3-4-7.4-4.1l0.8-0.9c0,0,2.9,2.5,7,3.9
			c3.8,1.2,10.9,2.4,10.9,2.4L-485.5,309.6z"/>
	</g>
	<g id="ID0.026716643944382668">
		<path fill="#231F20" d="M-499.7,321.5c-1.6,0-2.6-0.1-2.6-0.1l0.1-1.2c0,0,2.9,0.3,7.2-0.2c4.3-0.5,8.6-2.2,8.6-2.2l0.5,1.1
			c-0.2,0.1-4.5,1.8-9,2.3C-496.8,321.5-498.4,321.5-499.7,321.5z"/>
	</g>
	<g id="ID0.590466542635113">
		<path d="M-444.6,269.5c-0.2,0-0.3-0.1-0.4-0.2c-0.2-0.2-0.1-0.5,0.1-0.7c0.1-0.1,1.9-1.4,6.4-2.5c0.3-0.1,0.5,0.1,0.6,0.4
			c0.1,0.3-0.1,0.5-0.4,0.6c-4.3,1.1-6.1,2.3-6.1,2.3C-444.4,269.4-444.5,269.5-444.6,269.5z"/>
	</g>
	<g id="ID0.4037351761944592">
		<rect x="-414.3" y="263.2" transform="matrix(0.5757 0.8177 -0.8177 0.5757 44.5532 452.5777)" width="1" height="11.9"/>
	</g>
	<g id="Layer_8_1_">
		<g id="ID0.03912406461313367">
			<path fill="#FAA51D" d="M-406,376.2c4.6-2.2,16.8-4,23.7-10.7c15-14.7,6.1-34.7-1.1-34.9c-5.8-0.2-5.4,8.8-7.4,17.8
				c-1.4,6.2-2.7,11.2-10.2,15.5c-7.5,4.3-11,4.6-11,4.6s-5.3,1.3-2.6,4.2C-412.1,375.6-406,376.2-406,376.2z"/>
			<path fill="#231F20" d="M-405.9,376.8l-0.2,0c-0.3,0-6.3-0.7-9-3.7c-0.8-0.9-1.1-1.7-0.8-2.5c0.5-1.8,3.4-2.5,3.7-2.6
				c0.1,0,3.6-0.4,10.9-4.6c7.5-4.3,8.6-9.3,10-15.1c0.4-2,0.8-4.1,1.1-6c1-6.6,1.9-12.2,6.7-12.2l0.2,0c3.1,0.1,6.3,3.3,8.2,8.1
				c2.9,7.4,2.7,18.6-6.7,27.8c-4.9,4.8-12.6,7.2-18.1,8.9c-2.3,0.7-4.4,1.3-5.7,2L-405.9,376.8z M-383.6,331.2
				c-3.6,0-4.5,4.3-5.6,11.2c-0.3,2-0.6,4-1.1,6.1c-1.4,6.1-2.6,11.4-10.5,15.9c-7.6,4.3-11.1,4.7-11.3,4.7
				c-0.6,0.1-2.5,0.8-2.8,1.8c-0.1,0.4,0.1,0.9,0.6,1.4c2.2,2.4,7.1,3.2,8.1,3.3c1.4-0.7,3.4-1.3,5.7-2c5.5-1.7,12.9-3.9,17.7-8.6
				c9-8.8,9.2-19.5,6.4-26.5c-1.7-4.3-4.6-7.3-7.2-7.4L-383.6,331.2z"/>
		</g>
		<g id="ID0.8972524818964303">
			<path fill="#FFFFFF" d="M-390.8,350.5c0.2-0.8,0.3-1.4,0.5-2.2c1.9-8.5,1.4-16.6,6.9-16.6c5.4,0,12,12.5,6.7,24.5
				c-0.3-0.2-0.6-0.5-1-1c-0.8-1.1-1.3-4.8-4.3-5.9C-383.9,348.4-388.4,349.7-390.8,350.5z"/>
		</g>
	</g>
</g>
<g>
	<g id="ID0.5892176600173116">
		<g id="ID0.12555817235261202">
			<path fill="#272525" d="M-519.5,191.1c4.7,0,9,1.9,12.2,5s5,7.4,5,12.2c0,4.7-1.9,9-5,12.2c-3.1,3.1-7.4,5-12.2,5
				c-4.7,0-9-1.9-12.2-5c-3.1-3.1-5-7.4-5-12.2c0-4.7,1.9-9,5-12.2C-528.6,193-524.3,191.1-519.5,191.1z"/>
		</g>
		<g id="ID0.5458583473227918">
			<path fill="#FFFFFF" d="M-503.4,208.2c0,8.6-7.3,15.6-16.3,15.6c-9,0-15.6-6.9-15.6-15.6c0-8.6,6.7-15.7,15.6-15.7
				C-510.6,192.5-503.4,199.5-503.4,208.2L-503.4,208.2z"/>
		</g>
	</g>
	<g id="ID0.051054058130830526" enable-background="new    ">
		<path d="M-514.4,220.1c0.1,0.1,0.2,0.2,0.3,0.2c0.2,0,0.4,0,0.6-0.2c0.1-0.1,0.2-0.2,0.2-0.3c0.1-0.2,0.1-0.4-0.1-0.5
			c-0.1-0.1-0.2-0.1-0.3-0.1c-0.1,0-0.2,0.1-0.4,0.2l-0.3,0.2c-0.2,0.1-0.4,0.2-0.5,0.2c-0.2,0-0.4,0-0.5-0.2
			c-0.2-0.2-0.3-0.4-0.2-0.6c0-0.2,0.1-0.4,0.3-0.6c0.2-0.2,0.4-0.3,0.6-0.3c0.2,0,0.4,0,0.7,0.3l-0.2,0.2c-0.1-0.1-0.2-0.1-0.3-0.2
			c-0.2,0-0.3,0.1-0.5,0.2c-0.1,0.1-0.2,0.3-0.2,0.4c0,0.1,0,0.2,0.1,0.3c0.1,0.1,0.2,0.1,0.3,0.1c0.1,0,0.2-0.1,0.4-0.2l0.3-0.2
			c0.2-0.1,0.3-0.2,0.4-0.2c0.2,0,0.4,0,0.6,0.2c0.2,0.2,0.3,0.4,0.2,0.7c-0.1,0.2-0.2,0.5-0.4,0.6c-0.2,0.2-0.5,0.3-0.7,0.4
			s-0.5-0.1-0.7-0.3L-514.4,220.1z"/>
		<path d="M-512.6,217c0.2,0,0.4,0,0.6,0.2l-0.2,0.2c-0.1-0.1-0.2-0.1-0.3-0.1c-0.1,0-0.2,0-0.3,0.2c-0.1,0.1-0.2,0.3-0.1,0.5
			c0.1,0.1,0.1,0.3,0.3,0.4c0.1,0.1,0.3,0.2,0.4,0.3c0.2,0,0.3,0,0.4-0.1c0.1-0.1,0.1-0.2,0.1-0.3c0-0.1,0-0.2-0.1-0.4l0.2-0.2
			c0.2,0.2,0.2,0.4,0.2,0.6c0,0.2-0.1,0.4-0.3,0.5c-0.2,0.2-0.4,0.3-0.6,0.2c-0.2,0-0.5-0.1-0.6-0.3c-0.2-0.2-0.4-0.5-0.4-0.7
			c0-0.2,0.1-0.5,0.2-0.6C-512.9,217.1-512.8,217-512.6,217z"/>
		<path d="M-512.3,216.5l0.2-0.2l0.2,0.2c0-0.1,0-0.2,0-0.3c0-0.1,0.1-0.2,0.1-0.3c0,0,0,0,0,0c0,0,0,0,0.1,0l0.2,0.2c0,0,0,0,0,0
			c0,0,0,0,0,0c-0.1,0.1-0.2,0.2-0.2,0.4s0.1,0.3,0.2,0.4l0.8,0.8l-0.2,0.2L-512.3,216.5z"/>
		<path d="M-510.1,215.5c0-0.1,0.1-0.1,0-0.2c0,0,0-0.1-0.1-0.1c-0.1-0.1-0.2-0.1-0.3-0.1c-0.1,0-0.2,0.1-0.3,0.2
			c-0.1,0.1-0.2,0.2-0.2,0.4c0,0.1,0,0.1,0.1,0.2l-0.2,0.2c-0.2-0.2-0.2-0.3-0.2-0.5c0-0.2,0.1-0.3,0.3-0.5c0.2-0.2,0.3-0.3,0.5-0.3
			c0.2,0,0.3,0,0.4,0.1l0.8,0.8c0,0,0,0,0.1,0c0,0,0.1,0,0.1,0c0,0,0,0,0,0c0,0,0,0,0,0l0.2,0.2c0,0,0,0.1-0.1,0.1c0,0,0,0-0.1,0.1
			c-0.1,0.1-0.2,0.1-0.3,0.1c0,0-0.1,0-0.2-0.1c0,0.1,0,0.2,0,0.4c0,0.1-0.1,0.3-0.2,0.4c-0.1,0.1-0.3,0.2-0.4,0.2
			c-0.2,0-0.3-0.1-0.4-0.2c-0.1-0.1-0.2-0.3-0.2-0.4c0-0.1,0.1-0.3,0.2-0.4L-510.1,215.5z M-510,216.6c0.1,0,0.2,0,0.2-0.1
			c0.1-0.1,0.1-0.2,0.2-0.3c0.1-0.2,0-0.4-0.1-0.5l-0.2-0.2c0,0,0,0.1-0.1,0.2c0,0.1-0.1,0.1-0.1,0.2l-0.1,0.2
			c-0.1,0.1-0.1,0.2-0.1,0.2c0,0.1,0,0.2,0.1,0.3C-510.2,216.5-510.1,216.6-510,216.6z"/>
		<path d="M-510.3,213.8l0.2-0.2l0.4,0.4l0.2-0.2l0.2,0.2l-0.2,0.2l0.9,0.9c0,0,0.1,0.1,0.1,0c0,0,0.1,0,0.1-0.1c0,0,0,0,0,0
			c0,0,0,0,0,0l0.2,0.2c0,0,0,0.1-0.1,0.1c0,0-0.1,0.1-0.1,0.1c-0.1,0.1-0.2,0.2-0.3,0.1c-0.1,0-0.2-0.1-0.3-0.2l-0.9-0.9l-0.2,0.2
			l-0.2-0.2l0.2-0.2L-510.3,213.8z"/>
		<path d="M-508.3,212.6c0.2,0,0.4,0,0.6,0.2l-0.2,0.2c-0.1-0.1-0.2-0.1-0.3-0.1c-0.1,0-0.2,0-0.3,0.2c-0.1,0.1-0.2,0.3-0.1,0.5
			c0.1,0.1,0.1,0.3,0.3,0.4c0.1,0.1,0.3,0.2,0.4,0.3c0.2,0,0.3,0,0.4-0.1c0.1-0.1,0.1-0.2,0.1-0.3c0-0.1,0-0.2-0.1-0.4l0.2-0.2
			c0.2,0.2,0.2,0.4,0.2,0.6c0,0.2-0.1,0.4-0.3,0.5c-0.2,0.2-0.4,0.3-0.6,0.2c-0.2,0-0.5-0.1-0.6-0.3c-0.2-0.2-0.4-0.5-0.4-0.7
			c0-0.2,0.1-0.5,0.2-0.6C-508.6,212.7-508.4,212.6-508.3,212.6z"/>
		<path d="M-508.5,211.6l0.2-0.2l0.7,0.7c0-0.1,0-0.2,0-0.3c0-0.1,0.1-0.2,0.2-0.3c0.2-0.2,0.4-0.3,0.6-0.2c0.1,0,0.2,0.1,0.4,0.3
			l0.9,0.9l-0.2,0.2l-0.9-0.9c-0.1-0.1-0.2-0.2-0.3-0.2c-0.1,0-0.2,0-0.3,0.1c-0.1,0.1-0.1,0.2-0.2,0.4c0,0.1,0.1,0.3,0.3,0.5
			l0.7,0.7l-0.2,0.2L-508.5,211.6z"/>
	</g>
	<g id="ID0.5378912421874702">
		<path d="M-515.9,209.5c0.5,0,0.9,0.2,1.3,0.5c0.3,0.3,0.5,0.8,0.5,1.3c0,0.5-0.2,0.9-0.5,1.3c-0.3,0.3-0.8,0.5-1.3,0.5
			s-0.9-0.2-1.3-0.5c-0.3-0.3-0.5-0.8-0.5-1.3c0-0.5,0.2-0.9,0.5-1.3C-516.9,209.7-516.4,209.5-515.9,209.5z"/>
	</g>
</g>
</svg>
