<?xml version="1.0" encoding="UTF-8"?>
<svg id="_レイヤー_1" data-name="レイヤー_1" xmlns="http://www.w3.org/2000/svg" version="1.1" viewBox="0 0 800 500">
  <!-- Generator: Adobe Illustrator 30.1.0, SVG Export Plug-In . SVG Version: 2.1.1 Build 136)  -->
  <defs>
    <style>
      .st0 {
        fill: #966036;
      }

      .st1 {
        fill: #285d9c;
      }

      .st2 {
        fill: #f3e99f;
      }

      .st3 {
        fill: #efbd71;
      }

      .st4 {
        fill: #a78c48;
      }

      .st5 {
        fill: #726b59;
      }

      .st6 {
        fill: #aea096;
      }

      .st7 {
        fill: #837b67;
      }

      .st8 {
        fill: #40210f;
      }

      .st9 {
        fill: #52785f;
      }

      .st10 {
        fill: #4c4241;
      }

      .st11 {
        fill: #3b696e;
      }

      .st12 {
        fill: #50b6d7;
      }

      .st13 {
        fill: #1d813b;
      }

      .st14 {
        fill: #577543;
      }

      .st15 {
        fill: #859ec6;
      }

      .st16 {
        fill: #e6b73a;
      }

      .st17 {
        fill: #d9487d;
      }

      .st18 {
        fill: #76c28d;
      }

      .st19 {
        fill: #aecc60;
      }

      .st20 {
        fill: #4b7234;
      }

      .st21 {
        fill: #63a978;
      }

      .st22 {
        fill: #fff;
      }

      .st23 {
        fill: #b8c8ca;
      }

      .st24 {
        fill: #0a0205;
      }

      .st25 {
        fill: #c4c41c;
      }

      .st26 {
        fill: #c99b5d;
      }

      .st27 {
        fill: #192d79;
      }

      .st28 {
        fill: #384e97;
      }

      .st29 {
        fill: #da5883;
      }

      .st30 {
        fill: #83b4bb;
      }

      .st31 {
        fill: #cbcabc;
      }

      .st32 {
        fill: #e4ab80;
      }

      .st33 {
        fill: #82b366;
      }

      .st34 {
        fill: #e5e88f;
      }

      .st35 {
        fill: #704a34;
      }

      .st36 {
        fill: #dbb884;
      }

      .st37 {
        fill: #8d7d79;
      }

      .st38 {
        fill: #6d391d;
      }

      .st39 {
        fill: #ecce50;
      }

      .st40 {
        fill: #6f4d36;
      }

      .st41 {
        fill: #e2829e;
      }

      .st42 {
        fill: #e9934a;
      }

      .st43 {
        fill: #519136;
      }

      .st44 {
        fill: #9f9e9f;
      }

      .st45 {
        fill: #95bd5c;
      }

      .st46 {
        fill: #f0e428;
      }

      .st47 {
        fill: #c6ba99;
      }

      .st48 {
        fill: #4c4c4c;
      }
    </style>
  </defs>
  <rect class="st18" width="800" height="500"/>
  <path id="ID0.20883229468017817" class="st18" d="M65.83-7.65h677.38v29.25H65.83V-7.65Z"/>
  <path id="ID0.8260163869708776" class="st18" d="M443.12,29.48l-3.09,3.09,4.36,4.5.98.98-57.94,57.94h0l-46.41,46.41-43.45-43.45h0l-3.23-3.09-20.39-20.39,40.92-41.06-4.92-4.92L342.86-3.43h-17.86l-77.2,77.2,344.53,344.67,128.25-128.39L426.95-3.43h-16.73l32.91,32.91"/>
  <path id="ID0.6625003637745976" class="st18" d="M698.77,284.99l-3.23,3.09,4.5,4.5.98.98-57.94,57.94h0l-46.55,46.55-43.45-43.59h0l-10.41-10.41h0l-13.22-13.08,41.06-40.92-5.06-5.06,66.66-66.66,66.66,66.66"/>
  <path id="ID0.3968067206442356" class="st18" d="M613.56,199.77l-3.23,3.23,1.12.98,3.37,3.37h0l.98.98-60.47,60.47h0l-44.01,44.01-43.45-43.45-10.41-10.41h0l-13.08-13.22,40.92-40.92-5.06-5.06,66.66-66.66,66.66,66.66"/>
  <path id="ID0.6050381548702717" class="st18" d="M528.34,114.55l-3.09,3.23,4.36,4.36.98,1.12-57.94,57.94-2.39,2.39-44.01,44.01-67.08-67.08,40.92-40.92-5.06-5.06,66.66-66.51,66.66,66.51"/>
  <path id="ID0.2651913892477751" class="st18" d="M68.36,117.22v22.5l55.26,55.26-2.67,2.67,1.41,1.41,3.8,3.8.98.98-52.59,52.73-.98-.98-3.8-3.8-1.27-1.27v27.7c1.97,2.25,1.97,5.77,0,8.02v7.17l7.59-7.59,58.64,58.64-2.67,2.67,1.41,1.41,3.8,3.8.98.98-52.73,52.73-.98-.98-3.8-3.8-1.41-1.41-2.67,2.67-8.3-8.02v15.05l90.42,90.42h10.55c-.84-2.25-.42-4.92,1.41-6.75,2.53-2.53,6.47-2.53,9,0,1.83,1.83,2.25,4.5,1.41,6.75h39.8l37.69-37.69h0l.98-.98h0l48.09-48.09,55.26,55.26-31.22,31.5h32.62l-.84-.84,4.92-4.92,1.69,1.69,3.09,3.09.84.84h7.45l6.47-6.47,6.47,6.47h8.86c-.56-3.09.42-6.33,2.81-8.72h0c3.94-3.94,10.27-3.94,14.2,0,2.39,2.39,3.23,5.62,2.81,8.72h12.23L96.91,161.66c-12.94-13.08-22.5-28.27-28.55-44.44ZM112.24,225.08c2.39-2.39,6.33-2.39,8.72,0s2.39,6.33,0,8.72-6.33,2.39-8.72,0-2.39-6.33,0-8.72ZM95.78,241.68c2.39-2.39,6.33-2.39,8.72,0s2.39,6.33,0,8.72-6.33,2.39-8.72,0c-2.39-2.53-2.39-6.33,0-8.72ZM79.33,266.85c-2.39-2.39-2.39-6.33,0-8.72,2.39-2.39,6.33-2.39,8.72,0,2.39,2.39,2.39,6.33,0,8.72s-6.33,2.39-8.72,0ZM139.66,358.11c2.39-2.39,6.33-2.39,8.72,0,2.39,2.39,2.39,6.33,0,8.72-2.39,2.39-6.33,2.39-8.72,0-2.39-2.39-2.39-6.33,0-8.72ZM123.21,374.56c2.39-2.39,6.33-2.39,8.72,0,2.39,2.39,2.39,6.33,0,8.72s-6.33,2.39-8.72,0c-2.53-2.39-2.53-6.33,0-8.72ZM106.61,391.02c2.39-2.39,6.33-2.39,8.72,0,2.39,2.39,2.39,6.33,0,8.72-2.39,2.39-6.33,2.39-8.72,0-2.39-2.39-2.39-6.33,0-8.72ZM90.16,416.19c-2.39-2.39-2.39-6.33,0-8.72,2.39-2.39,6.33-2.39,8.72,0,2.39,2.39,2.39,6.33,0,8.72-2.39,2.39-6.33,2.53-8.72,0ZM165.95,491.7l-1.12-1.13-5.34-5.34-2.81,2.81-60.61-60.61,30.09-30.09,30.09-30.09,60.61,60.61-2.81,2.81,1.41,1.41h0l3.94,3.94,1.12,1.12-54.56,54.56ZM159.49,338.28c2.39-2.39,6.33-2.39,8.72,0,2.39,2.39,2.39,6.33,0,8.72-2.39,2.39-6.33,2.39-8.72,0-2.39-2.39-2.39-6.33,0-8.72ZM196.89,485.23c-2.53,2.53-6.47,2.53-9,0-2.53-2.53-2.53-6.47,0-9,2.53-2.53,6.47-2.53,9,0,2.53,2.53,2.53,6.47,0,9ZM204.91,468.22c-2.53-2.53-2.53-6.47,0-9,2.53-2.53,6.47-2.53,9,0,2.53,2.53,2.53,6.47,0,9-2.39,2.39-6.47,2.39-9,0ZM219.39,496.06l-1.69-1.69-3.09-3.09-1.69-1.69,4.92-4.92,1.69,1.69,3.09,3.09,1.69,1.69-4.92,4.92ZM225.3,490.16l-1.69-1.69-3.09-3.09-1.69-1.69,4.92-4.92,1.69,1.69,4.92,4.92-5.06,4.78ZM231.06,451.06c-2.53,2.53-6.47,2.53-9,0-2.53-2.53-2.53-6.47,0-9,2.53-2.53,6.47-2.53,9,0,2.53,2.53,2.53,6.47,0,9ZM254.13,461.19l-4.64-4.64-3.09-3.09,4.92-4.92,3.94,3.94h0l3.94,3.94-5.06,4.78ZM284.08,431.38l-1.69-1.69-3.09-3.09-1.69-1.69,4.92-4.92,1.69,1.69,4.92,4.92-5.06,4.78ZM289.98,425.47l-1.69-1.69-3.09-3.09-1.69-1.69,4.92-4.92,1.69,1.69,3.09,3.09,1.69,1.69-4.92,4.92ZM387.58,472.72h0c3.94-3.94,10.27-3.94,14.2,0,3.66,3.66,3.94,9.42.7,13.36l1.55,1.55-1.41,1.41-1.55-1.55c-3.94,3.23-9.7,2.95-13.36-.7-3.94-3.8-3.94-10.12-.14-14.06h0ZM362.83,447.83h0c3.94-3.94,10.27-3.94,14.2,0,3.66,3.66,3.94,9.42.7,13.36l1.55,1.55-1.41,1.41-1.55-1.55c-3.94,3.23-9.7,2.95-13.36-.7-4.08-3.8-4.08-10.12-.14-14.06h0ZM344.26,429.27h0c3.94-3.94,10.27-3.94,14.2,0,3.66,3.66,3.94,9.42.7,13.36l1.55,1.55-1.41,1.41-1.55-1.55c-3.94,3.23-9.7,2.95-13.36-.7-4.08-3.8-4.08-10.12-.14-14.06h0ZM325.98,410.99h0c3.94-3.94,10.27-3.94,14.2,0,3.66,3.66,3.94,9.42.7,13.36l1.55,1.55-1.41,1.41-1.55-1.55c-3.94,3.23-9.7,2.95-13.36-.7-4.08-3.8-4.08-10.12-.14-14.06h0c-.14,0,0,0,0,0h0ZM307.42,392.42h0c3.94-3.94,10.27-3.94,14.2,0,3.66,3.66,3.94,9.42.7,13.36l1.55,1.55-1.41,1.41-1.55-1.55c-3.94,3.23-9.7,2.95-13.36-.7-4.08-3.8-4.08-10.12-.14-14.06h0ZM305.03,375.83l-65.67,65.67-21.66-21.52-14.48-14.48-42.61-42.61,65.67-65.67,78.75,78.61ZM175.94,321.83c2.39-2.39,6.33-2.39,8.72,0s2.39,6.33,0,8.72-6.33,2.39-8.72,0c-2.39-2.39-2.39-6.33,0-8.72ZM192.39,305.38c2.39-2.39,6.33-2.39,8.72,0,2.39,2.39,2.39,6.33,0,8.72-2.39,2.39-6.33,2.39-8.72,0-2.39-2.39-2.39-6.33,0-8.72ZM217.56,288.78c2.39,2.39,2.39,6.33,0,8.72-2.39,2.39-6.33,2.39-8.72,0-2.39-2.39-2.39-6.33,0-8.72,2.39-2.39,6.33-2.39,8.72,0ZM203.92,275.14l-2.67,2.67,1.41,1.41,3.8,3.8.98.98-52.73,52.87-.98-.98-3.8-3.8-1.41-1.41-2.67,2.67-58.64-58.64,29.11-29.11,29.11-29.11,58.5,58.64ZM137.41,208.63c2.39,2.39,2.39,6.33,0,8.72-2.39,2.39-6.33,2.39-8.72,0s-2.39-6.33,0-8.72c2.39-2.39,6.33-2.39,8.72,0Z"/>
  <path id="ID0.8392435028217733" class="st18" d="M70.89-3.43l-2.53,2.53v31.36c4.5-11.95,10.83-23.48,19.27-33.89h-16.73Z"/>
  <path id="ID0.5239402544684708" class="st48" d="M743.21-5.4v-1.27h-1.27l1.27,1.27"/>
  <path id="ID0.15386259369552135" class="st19" d="M529.55,330.89l40.97-40.97,13.13,13.13-40.97,40.97-13.13-13.13Z"/>
  <path id="ID0.3647799794562161" class="st19" d="M639.57,353.05l-4.5-4.5-3.09,3.09-38.11-38.11-40.92,40.92,43.45,43.45,46.55-46.55h0l-2.53,2.53-.84-.84ZM600.62,389.61c-1.83,1.83-4.78,1.83-6.47,0-1.83-1.83-1.83-4.78,0-6.47,1.83-1.69,4.78-1.83,6.47,0,1.69,1.83,1.69,4.64,0,6.47ZM610.46,379.63c-1.83,1.83-4.78,1.83-6.47,0-1.69-1.83-1.83-4.78,0-6.47,1.83-1.69,4.78-1.83,6.47,0,1.69,1.83,1.83,4.64,0,6.47ZM620.45,369.64c-1.83,1.83-4.78,1.83-6.47,0-1.83-1.83-1.83-4.78,0-6.47,1.83-1.83,4.78-1.83,6.47,0,1.69,1.83,1.83,4.64,0,6.47ZM630.43,359.66c-1.83,1.83-4.78,1.83-6.47,0-1.69-1.83-1.83-4.78,0-6.47,1.83-1.83,4.78-1.83,6.47,0,1.83,1.83,1.83,4.78,0,6.47Z"/>
  <path id="ID0.4178906730376184" class="st2" d="M583.6,303.13l-40.92,40.92h0l10.41,10.41h0l40.92-40.92-10.41-10.41"/>
  <path id="ID0.7152983578853309" class="st42" d="M692.17,284.99l.14-.14.14.14h6.33l-66.66-66.66v66.66h60.05"/>
  <path id="ID0.5067463875748217" class="st42" d="M594.01,313.53l38.11,38.11v-6.19l-.28-.14.28-.28v-60.05h-66.66l5.06,5.06,13.08,13.08,10.41,10.41"/>
  <path id="ID0.060571548994630575" class="st6" d="M680.63,311.99l-6.19,6.05-3.8,3.94-31.08,31.08.98.98,2.53-2.53,57.94-57.94-.98-.98-15.61,15.61-3.8,3.8"/>
  <path id="ID0.150074431207031" class="st32" d="M692.31,284.85l-.14.14h.28l-.14-.14"/>
  <path id="ID0.25356575194746256" class="st32" d="M632.12,345.46v-.42l-.28.28.28.14"/>
  <path id="ID0.9102099970914423" class="st32" d="M676.13,307.57l4.47,4.47-6.07,6.07-4.47-4.47,6.07-6.07Z"/>
  <path id="ID0.9513793396763504" class="st32" d="M700.02,292.55l-15.61,15.61-4.47-4.47,15.61-15.61,4.47,4.47Z"/>
  <path id="ID0.6859013382345438" class="st32" d="M666.12,317.47l4.47,4.47-31.02,31.02-4.47-4.47,31.02-31.02Z"/>
  <path id="ID0.9517311658710241" class="st0" d="M692.17,284.99h-60.05v66.66l3.09-3.09,30.94-31.08,3.94-3.8,6.05-6.19,3.8-3.8,15.61-15.61,3.23-3.09h-6.61"/>
  <path id="ID0.5513703315518796" class="st32" d="M632.12,284.99v-66.66l-66.66,66.66h66.66"/>
  <path id="ID0.4562923931516707" class="st40" d="M679.96,303.67l4.47,4.47-3.88,3.88-4.47-4.47,3.88-3.88Z"/>
  <path id="ID0.9427873399108648" class="st40" d="M670.01,313.75l4.47,4.47-3.88,3.88-4.47-4.47,3.88-3.88Z"/>
  <path id="ID0.5880988156422973" class="st13" d="M594.01,383c-1.83,1.83-1.83,4.78,0,6.47,1.83,1.83,4.78,1.83,6.47,0,1.83-1.83,1.83-4.78,0-6.47-1.83-1.69-4.64-1.83-6.47,0ZM596.26,386.8c-.28.28-.84.28-1.13,0-.28-.28-.28-.84,0-1.12s.84-.28,1.13,0,.28.84,0,1.12ZM600.2,386.8c-.28.28-.84.28-1.12,0-.28-.28-.28-.84,0-1.12.28-.28.84-.28,1.12,0,.28.28.28.84,0,1.12Z"/>
  <path id="ID0.09923720825463533" class="st13" d="M603.99,373.16c-1.83,1.83-1.83,4.78,0,6.47,1.83,1.69,4.78,1.83,6.47,0,1.69-1.83,1.83-4.78,0-6.47-1.83-1.69-4.64-1.83-6.47,0ZM606.1,376.96c-.28.28-.84.28-1.13,0-.28-.28-.28-.84,0-1.12s.84-.28,1.13,0,.42.7,0,1.12ZM610.18,376.96c-.28.28-.84.28-1.13,0-.28-.28-.28-.84,0-1.12s.84-.28,1.13,0,.28.7,0,1.12Z"/>
  <path id="ID0.5666348175145686" class="st13" d="M613.98,363.17c-1.83,1.83-1.83,4.78,0,6.47,1.83,1.83,4.78,1.83,6.47,0,1.69-1.83,1.83-4.78,0-6.47-1.83-1.69-4.78-1.83-6.47,0ZM616.09,366.97c-.28.28-.84.28-1.12,0-.28-.28-.28-.84,0-1.12.28-.28.84-.28,1.12,0,.28.28.28.84,0,1.12ZM620.03,366.97c-.28.28-.84.28-1.13,0s-.28-.84,0-1.12.84-.28,1.13,0,.42.84,0,1.12Z"/>
  <path id="ID0.5901483315974474" class="st13" d="M623.82,353.19c-1.83,1.83-1.83,4.78,0,6.47,1.83,1.69,4.78,1.83,6.47,0,1.69-1.83,1.83-4.78,0-6.47-1.69-1.83-4.64-1.83-6.47,0ZM626.07,356.99c-.28.28-.84.28-1.12,0-.28-.28-.28-.84,0-1.12.28-.28.84-.28,1.12,0,.28.28.28.84,0,1.12ZM630.01,356.99c-.28.28-.84.28-1.13,0s-.28-.84,0-1.12c.28-.28.84-.28,1.13,0,.28.28.28.84,0,1.12Z"/>
  <path id="ID0.21073788590729237" class="st29" d="M595.56,385.39c.23,0,.44.09.6.25.15.15.25.36.25.6s-.09.44-.25.6c-.15.15-.36.25-.6.25s-.44-.09-.6-.25c-.15-.15-.25-.36-.25-.6s.09-.44.25-.6c.15-.15.36-.25.6-.25Z"/>
  <path id="ID0.5597548857331276" class="st29" d="M605.54,375.41c.23,0,.44.09.6.25.15.15.25.36.25.6s-.09.44-.25.6c-.15.15-.36.25-.6.25s-.44-.09-.6-.25c-.15-.15-.25-.36-.25-.6s.09-.44.25-.6c.15-.15.36-.25.6-.25Z"/>
  <path id="ID0.07950624451041222" class="st29" d="M615.53,365.56c.23,0,.44.09.6.25.15.15.25.36.25.6s-.09.44-.25.6c-.15.15-.36.25-.6.25s-.44-.09-.6-.25c-.15-.15-.25-.36-.25-.6s.09-.44.25-.6c.15-.15.36-.25.6-.25Z"/>
  <path id="ID0.45845005195587873" class="st29" d="M599.64,385.39c.23,0,.44.09.6.25.15.15.25.36.25.6s-.09.44-.25.6c-.15.15-.36.25-.6.25s-.44-.09-.6-.25c-.15-.15-.25-.36-.25-.6s.09-.44.25-.6c.15-.15.36-.25.6-.25Z"/>
  <path id="ID0.6942329597659409" class="st29" d="M609.48,375.41c.23,0,.44.09.6.25.15.15.25.36.25.6s-.09.44-.25.6c-.15.15-.36.25-.6.25s-.44-.09-.6-.25c-.15-.15-.25-.36-.25-.6s.09-.44.25-.6c.15-.15.36-.25.6-.25Z"/>
  <path id="ID0.25143409008160233" class="st29" d="M619.46,365.56c.23,0,.44.09.6.25.15.15.25.36.25.6s-.09.44-.25.6c-.15.15-.36.25-.6.25s-.44-.09-.6-.25c-.15-.15-.25-.36-.25-.6s.09-.44.25-.6c.15-.15.36-.25.6-.25Z"/>
  <path id="ID0.7577565601095557" class="st29" d="M625.51,355.58c.23,0,.44.09.6.25.15.15.25.36.25.6s-.09.44-.25.6c-.15.15-.36.25-.6.25s-.44-.09-.6-.25c-.15-.15-.25-.36-.25-.6s.09-.44.25-.6c.15-.15.36-.25.6-.25Z"/>
  <path id="ID0.3676508469507098" class="st29" d="M629.45,355.58c.23,0,.44.09.6.25.15.15.25.36.25.6s-.09.44-.25.6c-.15.15-.36.25-.6.25s-.44-.09-.6-.25c-.15-.15-.25-.36-.25-.6s.09-.44.25-.6c.15-.15.36-.25.6-.25Z"/>
  <path id="ID0.5812928453087807" class="st19" d="M444.34,245.74l40.97-40.97,13.13,13.13-40.97,40.97-13.13-13.13Z"/>
  <path id="ID0.6921850857324898" class="st19" d="M554.35,267.83l-3.37-3.37-1.12-1.12-3.09,3.09-37.97-38.11-40.92,41.06,43.45,43.45,44.01-44.01-.98-.98h0ZM494.45,281.05c-3.37-3.37-3.37-8.72,0-12.09,2.53-2.53,6.33-3.09,9.42-1.69-.14-3.52.98-7.03,3.66-9.7,4.92-4.92,12.94-4.92,17.86,0s4.92,12.94,0,17.86c-4.5,4.5-11.67,4.92-16.59,1.12-.28,1.69-1.12,3.23-2.39,4.5-3.23,3.37-8.72,3.37-11.95,0ZM515.4,304.39c-1.83,1.83-4.78,1.83-6.47,0-1.69-1.83-1.83-4.78,0-6.47,1.83-1.69,4.78-1.83,6.47,0,1.69,1.83,1.83,4.64,0,6.47ZM525.39,294.41c-1.83,1.83-4.78,1.83-6.47,0-1.83-1.83-1.83-4.78,0-6.47,1.83-1.69,4.78-1.83,6.47,0,1.69,1.83,1.69,4.64,0,6.47ZM535.23,284.43c-1.83,1.83-4.78,1.83-6.47,0-1.69-1.83-1.83-4.78,0-6.47,1.83-1.69,4.78-1.83,6.47,0,1.69,1.83,1.83,4.78,0,6.47ZM545.21,274.58c-1.83,1.83-4.78,1.83-6.47,0-1.69-1.83-1.83-4.78,0-6.47,1.83-1.69,4.78-1.83,6.47,0,1.69,1.83,1.83,4.64,0,6.47Z"/>
  <path id="ID0.3260074662975967" class="st2" d="M498.39,217.91l-40.92,41.06h0l10.41,10.41,40.92-41.06-10.41-10.41"/>
  <path id="ID0.8361724684946239" class="st42" d="M610.32,203l3.23-3.23-3.23,3.23h0"/>
  <path id="ID0.6227435045875609" class="st42" d="M606.95,199.77l.14-.14.14.14h6.33l-66.66-66.66v66.66h60.05"/>
  <path id="ID0.7422130145132542" class="st42" d="M508.79,228.32l38.11,38.11,3.09-3.09h0l-3.09,3.09v-6.19l-.28-.14.28-.28v-60.05h-66.66l5.06,5.06,13.08,13.08,10.41,10.41"/>
  <path id="ID0.8544274200685322" class="st6" d="M595.42,226.77l-6.05,6.19-3.94,3.8-31.08,31.08.98.98h0l60.47-60.47-.98-.98-15.61,15.61-3.8,3.8"/>
  <path id="ID0.08549513015896082" class="st6" d="M550.98,264.46l-.98-1.12h0l.98,1.12"/>
  <path id="ID0.01592723559588194" class="st6" d="M610.32,203l1.12.98-1.12-.98h0"/>
  <path id="ID0.7282693050801754" class="st32" d="M607.09,199.63l-.14.14h.28l-.14-.14"/>
  <path id="ID0.6558065032586455" class="st32" d="M546.9,260.24v-.42l-.28.28.28.14"/>
  <path id="ID0.7980755199678242" class="st32" d="M610.32,203l-60.33,60.33.98,1.12,3.37,3.37h0l31.08-31.08-4.36-4.5,3.8-3.8,4.5,4.5,6.05-6.19-4.5-4.36,3.94-3.94,4.36,4.5,15.61-15.61h0l-3.37-3.37-1.12-.98"/>
  <path id="ID0.3058034051209688" class="st0" d="M606.95,199.77h-60.05v66.66l3.09-3.09h0l60.33-60.33h0l3.23-3.23h-6.61"/>
  <path id="ID0.45761488238349557" class="st32" d="M546.9,199.77v-66.66l-66.66,66.66h66.66"/>
  <path id="ID0.5340337525121868" class="st40" d="M590.9,222.35l3.88-3.88,4.47,4.47-3.88,3.88-4.47-4.47Z"/>
  <path id="ID0.30271613132208586" class="st40" d="M581.08,232.22l3.88-3.88,4.47,4.47-3.88,3.88-4.47-4.47Z"/>
  <path id="ID0.36348415073007345" class="st13" d="M508.93,297.78c-1.83,1.83-1.83,4.78,0,6.47,1.83,1.69,4.78,1.83,6.47,0,1.69-1.83,1.83-4.78,0-6.47-1.83-1.69-4.78-1.69-6.47,0ZM511.04,301.72c-.28.28-.84.28-1.13,0-.28-.28-.28-.84,0-1.12.28-.28.84-.28,1.13,0,.28.28.28.7,0,1.12ZM514.98,301.72c-.28.28-.84.28-1.12,0-.28-.28-.28-.84,0-1.12.28-.28.84-.28,1.12,0,.28.28.28.7,0,1.12Z"/>
  <path id="ID0.8597874590195715" class="st13" d="M518.78,287.94c-1.83,1.83-1.83,4.78,0,6.47,1.83,1.83,4.78,1.83,6.47,0,1.83-1.83,1.83-4.78,0-6.47-1.83-1.69-4.64-1.83-6.47,0ZM521.03,291.74c-.28.28-.84.28-1.13,0-.28-.28-.28-.84,0-1.12.28-.28.84-.28,1.13,0,.28.28.28.84,0,1.12ZM524.96,291.74c-.28.28-.84.28-1.12,0-.28-.28-.28-.84,0-1.12.28-.28.84-.28,1.12,0,.28.28.28.84,0,1.12Z"/>
  <path id="ID0.35240270337089896" class="st13" d="M528.76,277.96c-1.83,1.83-1.83,4.78,0,6.47,1.83,1.69,4.78,1.83,6.47,0,1.69-1.83,1.83-4.78,0-6.47-1.83-1.69-4.64-1.83-6.47,0ZM530.87,281.75c-.28.28-.84.28-1.13,0-.28-.28-.28-.84,0-1.12.28-.28.84-.28,1.13,0,.28.28.42.84,0,1.12ZM534.95,281.75c-.28.28-.84.28-1.13,0-.28-.28-.28-.84,0-1.12.28-.28.84-.28,1.13,0,.28.28.28.84,0,1.12Z"/>
  <path id="ID0.8289669803343713" class="st13" d="M538.75,267.97c-1.83,1.83-1.83,4.78,0,6.47,1.83,1.69,4.78,1.83,6.47,0,1.69-1.83,1.83-4.78,0-6.47-1.83-1.69-4.78-1.69-6.47,0ZM540.86,271.77c-.28.28-.84.28-1.12,0s-.28-.84,0-1.12c.28-.28.84-.28,1.12,0,.28.28.28.84,0,1.12ZM544.79,271.77c-.28.28-.84.28-1.13,0-.28-.28-.28-.84,0-1.12.28-.28.84-.28,1.13,0,.28.28.42.84,0,1.12Z"/>
  <path id="ID0.6029274621978402" class="st29" d="M510.48,300.18c.23,0,.44.09.6.25.15.15.25.36.25.6s-.09.44-.25.6c-.15.15-.36.25-.6.25s-.44-.09-.6-.25c-.15-.15-.25-.36-.25-.6s.09-.44.25-.6c.15-.15.36-.25.6-.25Z"/>
  <path id="ID0.5378516213968396" class="st29" d="M520.32,290.33c.23,0,.44.09.6.25.15.15.25.36.25.6s-.09.44-.25.6c-.15.15-.36.25-.6.25s-.44-.09-.6-.25c-.15-.15-.25-.36-.25-.6s.09-.44.25-.6c.15-.15.36-.25.6-.25Z"/>
  <path id="ID0.8468204233795404" class="st29" d="M530.31,280.35c.23,0,.44.09.6.25.15.15.25.36.25.6s-.09.44-.25.6c-.15.15-.36.25-.6.25s-.44-.09-.6-.25c-.15-.15-.25-.36-.25-.6s.09-.44.25-.6c.15-.15.36-.25.6-.25Z"/>
  <path id="ID0.7792755151167512" class="st29" d="M514.42,300.18c.23,0,.44.09.6.25.15.15.25.36.25.6s-.09.44-.25.6c-.15.15-.36.25-.6.25s-.44-.09-.6-.25c-.15-.15-.25-.36-.25-.6s.09-.44.25-.6c.15-.15.36-.25.6-.25Z"/>
  <path id="ID0.7787965685129166" class="st29" d="M524.4,290.33c.23,0,.44.09.6.25.15.15.25.36.25.6s-.09.44-.25.6c-.15.15-.36.25-.6.25s-.44-.09-.6-.25c-.15-.15-.25-.36-.25-.6s.09-.44.25-.6c.15-.15.36-.25.6-.25Z"/>
  <path id="ID0.3410315690562129" class="st29" d="M534.25,280.35c.23,0,.44.09.6.25.15.15.25.36.25.6s-.09.44-.25.6c-.15.15-.36.25-.6.25s-.44-.09-.6-.25c-.15-.15-.25-.36-.25-.6s.09-.44.25-.6c.15-.15.36-.25.6-.25Z"/>
  <path id="ID0.2465607551857829" class="st29" d="M540.29,270.36c.23,0,.44.09.6.25.15.15.25.36.25.6s-.09.44-.25.6c-.15.15-.36.25-.6.25s-.44-.09-.6-.25c-.15-.15-.25-.36-.25-.6s.09-.44.25-.6c.15-.15.36-.25.6-.25Z"/>
  <path id="ID0.5889101652428508" class="st29" d="M544.23,270.36c.23,0,.44.09.6.25.15.15.25.36.25.6s-.09.44-.25.6c-.15.15-.36.25-.6.25s-.44-.09-.6-.25c-.15-.15-.25-.36-.25-.6s.09-.44.25-.6c.15-.15.36-.25.6-.25Z"/>
  <path id="ID0.451149785425514" class="st19" d="M464.78,178.11l-3.09,3.09-38.11-38.11-40.92,40.92-10.41-10.41,40.92-40.92-13.22-13.22-40.92,40.92,67.08,67.08,44.01-44.01-.98-.98-4.36-4.36ZM430.18,219.18c-1.83,1.83-4.78,1.83-6.47,0-1.69-1.83-1.83-4.78,0-6.47s4.78-1.83,6.47,0c1.69,1.83,1.83,4.64,0,6.47ZM440.17,209.19c-1.83,1.83-4.78,1.83-6.47,0-1.69-1.83-1.83-4.78,0-6.47,1.83-1.69,4.78-1.83,6.47,0,1.69,1.83,1.83,4.78,0,6.47ZM450.15,199.35c-1.83,1.83-4.78,1.83-6.47,0-1.69-1.83-1.83-4.78,0-6.47,1.83-1.83,4.78-1.83,6.47,0,1.69,1.69,1.69,4.64,0,6.47ZM460,189.36c-1.83,1.83-4.78,1.83-6.47,0-1.83-1.83-1.83-4.78,0-6.47,1.83-1.83,4.78-1.83,6.47,0,1.69,1.83,1.83,4.64,0,6.47Z"/>
  <path id="ID0.20980857126414776" class="st2" d="M382.59,184.12l-10.44-10.44,40.97-40.97,10.44,10.44-40.97,40.97Z"/>
  <path id="ID0.7058595563285053" class="st42" d="M521.73,114.55h6.61l-66.66-66.51v66.51h60.05"/>
  <path id="ID0.9822462177835405" class="st42" d="M423.58,143.24l38.11,37.97v-6.05l-.14-.28.14-.14v-60.19h-66.66l5.06,5.06,13.22,13.22,10.27,10.41"/>
  <path id="ID0.1962806936353445" class="st6" d="M510.2,141.55l-6.05,6.19-3.94,3.8-30.94,31.08.98.98,2.39-2.39,57.94-57.94-.98-1.12-15.61,15.61-3.8,3.8"/>
  <path id="ID0.011423294432461262" class="st32" d="M521.87,114.55h-.14.28-.14"/>
  <path id="ID0.9516673791222274" class="st32" d="M461.68,175.16v-.42l-.14.14.14.28"/>
  <path id="ID0.1891116201877594" class="st32" d="M505.66,137.23l4.47,4.47-6.07,6.07-4.47-4.47,6.07-6.07Z"/>
  <path id="ID0.9293196718208492" class="st32" d="M529.53,122.26l-15.61,15.61-4.47-4.47,15.61-15.61,4.47,4.47Z"/>
  <path id="ID0.7053086985833943" class="st32" d="M495.75,147.23l4.47,4.47-31.02,31.02-4.47-4.47,31.02-31.02Z"/>
  <path id="ID0.8666840046644211" class="st0" d="M521.73,114.55h-60.05v66.66l3.09-3.09,31.08-30.94h0l3.8-3.94h0l6.19-6.05h0l3.8-3.8h0l15.61-15.61,3.09-3.23h-6.61"/>
  <path id="ID0.41776927281171083" class="st32" d="M461.68,114.55V48.04l-66.66,66.51h66.66"/>
  <path id="ID0.2619839711114764" class="st40" d="M514,137.76l-4.36-4.36h0l-3.8,3.8h0l4.36,4.36,3.8-3.8"/>
  <path id="ID0.09357629343867302" class="st40" d="M504.15,147.74l-4.5-4.5h0l-3.8,3.94h0l4.36,4.36,3.94-3.8"/>
  <path id="ID0.5305481599643826" class="st13" d="M423.72,212.71c-1.83,1.83-1.83,4.78,0,6.47s4.78,1.83,6.47,0c1.69-1.83,1.83-4.78,0-6.47-1.83-1.69-4.64-1.83-6.47,0ZM425.83,216.5c-.28.28-.84.28-1.12,0-.28-.28-.28-.84,0-1.12.28-.28.84-.28,1.12,0,.28.28.28.7,0,1.12ZM429.76,216.5c-.28.28-.84.28-1.12,0-.28-.28-.28-.84,0-1.12.28-.28.84-.28,1.12,0,.28.28.42.7,0,1.12Z"/>
  <path id="ID0.06589213153347373" class="st13" d="M433.56,202.72c-1.83,1.83-1.83,4.78,0,6.47s4.78,1.83,6.47,0c1.69-1.83,1.83-4.78,0-6.47-1.83-1.69-4.64-1.83-6.47,0ZM435.81,206.52c-.28.28-.84.28-1.13,0-.28-.28-.28-.84,0-1.12.28-.28.84-.28,1.13,0,.28.28.28.84,0,1.12ZM439.75,206.52c-.28.28-.84.28-1.12,0-.28-.28-.28-.84,0-1.12.28-.28.84-.28,1.12,0,.28.28.28.84,0,1.12Z"/>
  <path id="ID0.15565027482807636" class="st13" d="M443.54,192.74c-1.83,1.83-1.83,4.78,0,6.47,1.83,1.69,4.78,1.83,6.47,0,1.69-1.83,1.83-4.78,0-6.47-1.69-1.83-4.64-1.83-6.47,0ZM445.65,196.54c-.28.28-.84.28-1.13,0-.28-.28-.28-.84,0-1.12.28-.28.84-.28,1.13,0,.28.28.42.84,0,1.12ZM449.73,196.54c-.28.28-.84.28-1.12,0-.28-.28-.28-.84,0-1.12.28-.28.84-.28,1.12,0,.28.28.28.84,0,1.12Z"/>
  <path id="ID0.3686306760646403" class="st13" d="M453.53,182.9c-1.83,1.83-1.83,4.78,0,6.47,1.83,1.83,4.78,1.83,6.47,0,1.69-1.83,1.83-4.78,0-6.47-1.83-1.69-4.64-1.83-6.47,0ZM455.64,186.69c-.28.28-.84.28-1.13,0-.28-.28-.28-.84,0-1.12.28-.28.84-.28,1.13,0,.42.28.42.7,0,1.12ZM459.58,186.69c-.28.28-.84.28-1.12,0-.28-.28-.28-.84,0-1.12.28-.28.84-.28,1.12,0,.42.28.42.7,0,1.12Z"/>
  <path id="ID0.0742275444790721" class="st29" d="M425.26,215.1c.23,0,.44.09.6.25.15.15.25.36.25.6s-.09.44-.25.6c-.15.15-.36.25-.6.25s-.44-.09-.6-.25c-.15-.15-.25-.36-.25-.6s.09-.44.25-.6c.15-.15.36-.25.6-.25Z"/>
  <path id="ID0.8114240285940468" class="st29" d="M435.25,205.11c.23,0,.44.09.6.25.15.15.25.36.25.6s-.09.44-.25.6c-.15.15-.36.25-.6.25s-.44-.09-.6-.25c-.15-.15-.25-.36-.25-.6s.09-.44.25-.6c.15-.15.36-.25.6-.25Z"/>
  <path id="ID0.13501754170283675" class="st29" d="M445.09,195.13c.23,0,.44.09.6.25.15.15.25.36.25.6s-.09.44-.25.6c-.15.15-.36.25-.6.25s-.44-.09-.6-.25c-.15-.15-.25-.36-.25-.6s.09-.44.25-.6c.15-.15.36-.25.6-.25Z"/>
  <path id="ID0.22800500504672527" class="st29" d="M429.2,215.1c.23,0,.44.09.6.25.15.15.25.36.25.6s-.09.44-.25.6c-.15.15-.36.25-.6.25s-.44-.09-.6-.25c-.15-.15-.25-.36-.25-.6s.09-.44.25-.6c.15-.15.36-.25.6-.25Z"/>
  <path id="ID0.10655166208744049" class="st29" d="M439.18,205.11c.23,0,.44.09.6.25.15.15.25.36.25.6s-.09.44-.25.6c-.15.15-.36.25-.6.25s-.44-.09-.6-.25c-.15-.15-.25-.36-.25-.6s.09-.44.25-.6c.15-.15.36-.25.6-.25Z"/>
  <path id="ID0.4985858085565269" class="st29" d="M449.17,195.13c.23,0,.44.09.6.25.15.15.25.36.25.6s-.09.44-.25.6c-.15.15-.36.25-.6.25s-.44-.09-.6-.25c-.15-.15-.25-.36-.25-.6s.09-.44.25-.6c.15-.15.36-.25.6-.25Z"/>
  <path id="ID0.5525877755135298" class="st29" d="M455.08,185.15c.23,0,.44.09.6.25.15.15.25.36.25.6s-.09.44-.25.6c-.15.15-.36.25-.6.25s-.44-.09-.6-.25c-.15-.15-.25-.36-.25-.6s.09-.44.25-.6c.15-.15.36-.25.6-.25Z"/>
  <path id="ID0.2648659194819629" class="st29" d="M459.01,185.15c.23,0,.44.09.6.25.15.15.25.36.25.6s-.09.44-.25.6c-.15.15-.36.25-.6.25s-.44-.09-.6-.25c-.15-.15-.25-.36-.25-.6s.09-.44.25-.6c.15-.15.36-.25.6-.25Z"/>
  <path id="ID0.07291562529280782" class="st19" d="M328.09,47.62l-13.22-13.22-40.92,41.06,20.39,20.39-7.17-7.31,40.92-40.92"/>
  <path id="ID0.6299697756767273" class="st19" d="M384.06,97.4l-4.5-4.5-3.09,3.09-38.11-38.11-40.92,40.92,43.45,43.45,46.55-46.55h0l-2.53,2.53-.84-.84ZM344.97,133.96c-1.83,1.83-4.78,1.83-6.47,0-1.83-1.83-1.83-4.78,0-6.47,1.83-1.69,4.78-1.83,6.47,0,1.69,1.83,1.83,4.78,0,6.47ZM354.95,124.12c-1.83,1.83-4.78,1.83-6.47,0-1.69-1.83-1.83-4.78,0-6.47,1.83-1.69,4.78-1.83,6.47,0,1.69,1.83,1.83,4.64,0,6.47ZM364.94,114.13c-1.83,1.83-4.78,1.83-6.47,0-1.69-1.83-1.83-4.78,0-6.47,1.83-1.69,4.78-1.83,6.47,0s1.83,4.64,0,6.47ZM374.78,104.15c-1.83,1.83-4.78,1.83-6.47,0-1.69-1.83-1.83-4.78,0-6.47,1.83-1.83,4.78-1.83,6.47,0,1.83,1.83,1.83,4.64,0,6.47Z"/>
  <path id="ID0.9640698484145105" class="st2" d="M328.09,47.62l-40.92,40.92,7.17,7.31,3.23,3.09h0l40.92-40.92-10.41-10.41"/>
  <path id="ID0.7416795580647886" class="st42" d="M376.47,29.48h60.19l.14-.14v.14h6.33L410.22-3.43l-3.09-3.23h-30.66V29.48"/>
  <path id="ID0.36343039525672793" class="st42" d="M328.09,47.62l10.41,10.41,37.97,38.11v-6.19l-.14-.28.14-.14V29.48h-66.51l4.92,4.92,13.22,13.22"/>
  <path id="ID0.014882840681821108" class="st6" d="M424.98,56.48l-6.05,6.05-3.8,3.8-31.08,31.08.98.98,2.39-2.39,57.94-57.94-.98-.98-15.47,15.47-3.94,3.94"/>
  <path id="ID0.8018506085500121" class="st32" d="M436.79,29.34l-.14.14h.14v-.14"/>
  <path id="ID0.7870912086218596" class="st32" d="M376.33,89.66l.14.28v-.42l-.14.14"/>
  <path id="ID0.32977411011233926" class="st32" d="M444.38,37.04l-15.61,15.61-4.47-4.47,15.61-15.61,4.47,4.47Z"/>
  <path id="ID0.48481650138273835" class="st32" d="M420.62,52.04l4.47,4.47-6.07,6.07-4.47-4.47,6.07-6.07Z"/>
  <path id="ID0.803944256156683" class="st32" d="M410.61,61.94l4.47,4.47-31.02,31.02-4.47-4.47,31.02-31.02Z"/>
  <path id="ID0.4670741939917207" class="st0" d="M376.47,89.52v6.61l3.09-3.09,31.08-31.08,3.8-3.8,6.19-6.19,3.8-3.8,15.61-15.61,3.09-3.09h-66.66v60.05"/>
  <path id="ID0.8283314630389214" class="st32" d="M309.95,29.48h66.51V-6.66h-30.52l-3.09,3.23-32.91,32.91"/>
  <path id="ID0.9746193955652416" class="st40" d="M424.37,48.21l4.47,4.47-3.88,3.88-4.47-4.47,3.88-3.88Z"/>
  <path id="ID0.10248225182294846" class="st40" d="M414.4,58.13l4.47,4.47-3.88,3.88-4.47-4.47,3.88-3.88Z"/>
  <path id="ID0.8161141281016171" class="st13" d="M338.5,127.49c-1.83,1.83-1.83,4.78,0,6.47,1.83,1.83,4.78,1.83,6.47,0,1.83-1.83,1.83-4.78,0-6.47-1.83-1.69-4.64-1.83-6.47,0ZM340.61,131.29c-.28.28-.84.28-1.12,0-.28-.28-.28-.84,0-1.12.28-.28.84-.28,1.12,0,.28.28.42.84,0,1.12ZM344.69,131.29c-.28.28-.84.28-1.12,0-.28-.28-.28-.84,0-1.12s.84-.28,1.12,0,.28.84,0,1.12Z"/>
  <path id="ID0.8249907097779214" class="st13" d="M348.48,117.51c-1.83,1.83-1.83,4.78,0,6.47,1.83,1.69,4.78,1.83,6.47,0,1.69-1.83,1.83-4.78,0-6.47-1.83-1.69-4.64-1.83-6.47,0ZM350.59,121.3c-.28.28-.84.28-1.12,0-.28-.28-.28-.84,0-1.12.28-.28.84-.28,1.12,0,.28.28.28.84,0,1.12ZM354.53,121.3c-.28.28-.84.28-1.12,0-.28-.28-.28-.84,0-1.12.28-.28.84-.28,1.12,0,.28.28.42.84,0,1.12Z"/>
  <path id="ID0.03281710995361209" class="st13" d="M358.33,107.66c-1.83,1.83-1.83,4.78,0,6.47,1.83,1.69,4.78,1.83,6.47,0,1.69-1.83,1.83-4.78,0-6.47-1.83-1.69-4.64-1.83-6.47,0ZM360.58,111.46c-.28.28-.84.28-1.12,0-.28-.28-.28-.84,0-1.12.28-.28.84-.28,1.12,0,.28.28.28.7,0,1.12ZM364.51,111.46c-.28.28-.84.28-1.12,0-.28-.28-.28-.84,0-1.12.28-.28.84-.28,1.12,0,.28.28.28.7,0,1.12Z"/>
  <path id="ID0.3677086574025452" class="st13" d="M368.31,97.68c-1.83,1.83-1.83,4.78,0,6.47,1.83,1.69,4.78,1.83,6.47,0s1.83-4.78,0-6.47c-1.69-1.83-4.64-1.83-6.47,0ZM370.42,101.48c-.28.28-.84.28-1.12,0-.28-.28-.28-.84,0-1.12.28-.28.84-.28,1.12,0,.42.28.42.84,0,1.12ZM374.5,101.48c-.28.28-.84.28-1.12,0-.28-.28-.28-.84,0-1.12.28-.28.84-.28,1.12,0,.28.28.28.84,0,1.12Z"/>
  <path id="ID0.818150108680129" class="st29" d="M340.05,129.88c.23,0,.44.09.6.25.15.15.25.36.25.6s-.09.44-.25.6c-.15.15-.36.25-.6.25s-.44-.09-.6-.25c-.15-.15-.25-.36-.25-.6s.09-.44.25-.6c.15-.15.36-.25.6-.25Z"/>
  <path id="ID0.09973564418032765" class="st29" d="M350.03,119.9c.23,0,.44.09.6.25.15.15.25.36.25.6s-.09.44-.25.6c-.15.15-.36.25-.6.25s-.44-.09-.6-.25c-.15-.15-.25-.36-.25-.6s.09-.44.25-.6c.15-.15.36-.25.6-.25Z"/>
  <path id="ID0.9603225076571107" class="st29" d="M360.01,109.91c.23,0,.44.09.6.25.15.15.25.36.25.6s-.09.44-.25.6c-.15.15-.36.25-.6.25s-.44-.09-.6-.25c-.15-.15-.25-.36-.25-.6s.09-.44.25-.6c.15-.15.36-.25.6-.25Z"/>
  <path id="ID0.28494788473472" class="st29" d="M343.98,129.88c.23,0,.44.09.6.25.15.15.25.36.25.6s-.09.44-.25.6c-.15.15-.36.25-.6.25s-.44-.09-.6-.25c-.15-.15-.25-.36-.25-.6s.09-.44.25-.6c.15-.15.36-.25.6-.25Z"/>
  <path id="ID0.22195956902578473" class="st29" d="M353.97,119.9c.23,0,.44.09.6.25.15.15.25.36.25.6s-.09.44-.25.6c-.15.15-.36.25-.6.25s-.44-.09-.6-.25c-.15-.15-.25-.36-.25-.6s.09-.44.25-.6c.15-.15.36-.25.6-.25Z"/>
  <path id="ID0.0377959837205708" class="st29" d="M363.95,109.91c.23,0,.44.09.6.25.15.15.25.36.25.6s-.09.44-.25.6c-.15.15-.36.25-.6.25s-.44-.09-.6-.25c-.15-.15-.25-.36-.25-.6s.09-.44.25-.6c.15-.15.36-.25.6-.25Z"/>
  <path id="ID0.1896003196015954" class="st29" d="M369.86,100.07c.23,0,.44.09.6.25.15.15.25.36.25.6s-.09.44-.25.6c-.15.15-.36.25-.6.25s-.44-.09-.6-.25c-.15-.15-.25-.36-.25-.6s.09-.44.25-.6c.15-.15.36-.25.6-.25Z"/>
  <path id="ID0.36513507878407836" class="st29" d="M373.94,100.07c.23,0,.44.09.6.25.15.15.25.36.25.6s-.09.44-.25.6c-.15.15-.36.25-.6.25s-.44-.09-.6-.25c-.15-.15-.25-.36-.25-.6s.09-.44.25-.6c.15-.15.36-.25.6-.25Z"/>
  <path id="ID0.7116824924014509" class="st33" d="M307.84,413.24l-47.95,48.09,11.53,11.53,33.05-33.05,33.19,33.19-26.86,27h20.95l31.5-31.36-55.41-55.41"/>
  <path id="ID0.7758613415062428" class="st33" d="M258.77,462.31l-37.69,37.69h23.34l26.02-26.16-11.67-11.53"/>
  <path id="ID0.2898157103918493" class="st33" d="M304.46,441.87l15.11,15.11-32.02,32.02-15.11-15.11,32.02-32.02Z"/>
  <path id="ID0.01760629378259182" class="st33" d="M278.59,500h17.86l-8.86-9-9,9"/>
  <path id="ID0.07867943309247494" class="st33" d="M320.64,457.95l-32.06,32.06,9.98,9.98h10.27l26.86-27-15.05-15.05"/>
  <path id="ID0.8379398221150041" class="st33" d="M271.42,474.97l-25.03,25.03h30.23l9.98-9.98-15.19-15.05"/>
  <path id="ID0.5568989836610854" class="st34" d="M272.3,473.9l15.11,15.11-.99.99-15.11-15.11.99-.99Z"/>
  <path id="ID0.9964901111088693" class="st34" d="M287.59,491l8.86,9h2.11l-9.98-9.98-.98.98"/>
  <path id="ID0.7361253462731838" class="st34" d="M271.42,472.86l-11.53-11.53h0l-1.12.98h0l11.67,11.53.98-.98"/>
  <path id="ID0.0956186717376113" class="st34" d="M304.47,439.81l-33.05,33.05-.98.98-26.02,26.16h1.97l25.03-25.03.98-1.13,32.06-32.06,15.19,15.19.42-.56.98.98-.42.56,15.05,15.05-26.86,27h1.97l26.86-27-33.19-33.19"/>
  <path id="ID0.273282534442842" class="st34" d="M288.58,490.02l32.06-32.06.42-.56-.98-.98-.42.56-32.06,32.06-.98.98-9.98,9.98h1.97l9-9,.98-.98"/>
  <path id="ID0.9889188073575497" class="st26" d="M250.33,457.39l-.84-.84,4.64,4.64,4.92-4.78-3.94-3.94-4.78,4.92"/>
  <path id="ID0.12037136405706406" class="st3" d="M255.11,452.47h0l-3.8-3.94-4.92,4.92,3.09,3.09.84.84,4.78-4.92"/>
  <path id="ID0.8000971763394773" class="st26" d="M287.17,424.91l-4.92,4.78,1.83,1.69,4.78-4.78-4.78-4.92,3.09,3.23"/>
  <path id="ID0.9159308644011617" class="st3" d="M284.08,421.67l-1.83-1.69-4.78,4.92,1.69,1.69,3.09,3.09,4.92-4.78-3.09-3.23"/>
  <path id="ID0.7340119890868664" class="st26" d="M289.87,425.38l-1.69-1.69,4.87-4.87,1.69,1.69-4.87,4.87Z"/>
  <path id="ID0.19134632730856538" class="st3" d="M289.98,415.77l-1.69-1.69-4.92,4.78,1.69,1.69,3.23,3.23,4.78-4.92-3.09-3.09"/>
  <path id="ID0.2682010759599507" class="st26" d="M219.34,495.97l-1.69-1.69,4.87-4.87,1.69,1.69-4.87,4.87Z"/>
  <path id="ID0.7573198010213673" class="st3" d="M219.39,486.36l-1.69-1.69-4.92,4.78,1.69,1.69,3.23,3.23,4.78-4.92-3.09-3.09"/>
  <path id="ID0.11482943361625075" class="st26" d="M228.53,483.55l-4.92,4.78,1.69,1.83,4.92-4.92-4.92-4.92,3.23,3.23"/>
  <path id="ID0.6513687768019736" class="st3" d="M225.3,480.31l-1.69-1.69-4.78,4.92,1.69,1.69,3.09,3.09,4.92-4.78-3.23-3.23"/>
  <path id="ID0.6980713307857513" class="st38" d="M340.05,425.05h0c-.28.28-.42.42-.7.7l1.55,1.55,1.41-1.41-1.55-1.55c-.28.28-.42.56-.7.7h0Z"/>
  <path id="ID0.6364754792302847" class="st33" d="M325.98,410.99h0"/>
  <path id="ID0.17153974575921893" class="st33" d="M325.84,410.99c-3.94,3.94-3.94,10.27,0,14.2,3.66,3.66,9.42,3.94,13.36.7.28-.14.56-.42.7-.7l-14.06-14.2Z"/>
  <path id="ID0.37416477920487523" class="st33" d="M340.05,425.05h0"/>
  <path id="ID0.8227805914357305" class="st14" d="M325.84,410.99l14.2,14.2h0c.28-.28.42-.42.7-.7,3.23-3.94,2.95-9.7-.7-13.36-3.94-4.08-10.27-4.08-14.2-.14q.14,0,0,0c.14,0,0,0,0,0h0Z"/>
  <path id="ID0.17763206735253334" class="st38" d="M321.48,406.63h0c-.28.28-.42.42-.7.7l1.55,1.55,1.41-1.41-1.55-1.55c-.14.14-.42.42-.7.7h0Z"/>
  <path id="ID0.5944332387298346" class="st33" d="M307.42,392.42h0"/>
  <path id="ID0.8353764479979873" class="st33" d="M307.42,392.42c-3.94,3.94-3.94,10.27,0,14.2,3.66,3.66,9.42,3.94,13.36.7.28-.14.56-.42.7-.7l-14.06-14.2Z"/>
  <path id="ID0.3468520506285131" class="st33" d="M321.48,406.63h0"/>
  <path id="ID0.26517261704429984" class="st14" d="M307.42,392.42l14.2,14.2h0c.28-.28.42-.42.7-.7,3.23-3.94,2.95-9.7-.7-13.36-3.94-4.08-10.27-4.08-14.2-.14h0Z"/>
  <path id="ID0.6671419059857726" class="st38" d="M376.89,462.03h0c-.28.28-.42.42-.7.7l1.55,1.55,1.41-1.41-1.55-1.55c-.28.14-.42.42-.7.7h0Z"/>
  <path id="ID0.15153211168944836" class="st33" d="M362.83,447.83h0"/>
  <path id="ID0.7270309617742896" class="st33" d="M376.89,462.03h0"/>
  <path id="ID0.7978638093918562" class="st33" d="M362.83,447.83c-3.94,3.94-3.94,10.27,0,14.2,3.66,3.66,9.42,3.94,13.36.7.28-.14.56-.42.7-.7l-14.06-14.2Z"/>
  <path id="ID0.16765705961734056" class="st14" d="M362.83,447.83l14.2,14.2h0c.28-.28.42-.42.7-.7,3.23-3.94,2.95-9.7-.7-13.36-4.08-4.08-10.41-4.08-14.2-.14h0Z"/>
  <path id="ID0.5842313007451594" class="st38" d="M358.47,443.47h0c-.28.28-.42.42-.7.7l1.55,1.55,1.41-1.41-1.55-1.55c-.28.14-.56.42-.7.7h0Z"/>
  <path id="ID0.5024599609896541" class="st33" d="M344.26,429.27h0"/>
  <path id="ID0.6146623017266393" class="st33" d="M344.26,429.27c-3.94,3.94-3.94,10.27,0,14.2,3.66,3.66,9.42,3.94,13.36.7.28-.14.56-.42.7-.7l-14.06-14.2Z"/>
  <path id="ID0.9373407894745469" class="st33" d="M358.47,443.47h0"/>
  <path id="ID0.17206687200814486" class="st14" d="M344.26,429.27l14.2,14.2h0c.28-.28.42-.42.7-.7,3.23-3.94,2.95-9.7-.7-13.36-3.94-3.94-10.27-3.94-14.2-.14h0Z"/>
  <path id="ID0.15472824312746525" class="st33" d="M381.67,500h12.94l-6.47-6.47-6.47,6.47"/>
  <path id="ID0.9455517590977252" class="st26" d="M372.53,500h1.69l-.84-.84-.84.84"/>
  <path id="ID0.6100757019594312" class="st3" d="M370.28,495.92l-1.83-1.69-4.78,4.92.84.84h8.02l.84-.84-3.09-3.23"/>
  <path id="ID0.5744648375548422" class="st33" d="M403.33,500h11.53l-8.72-8.72c-2.39,2.39-3.23,5.62-2.81,8.72Z"/>
  <path id="ID0.06593263987451792" class="st33" d="M406.14,491.14h0"/>
  <path id="ID0.8473347602412105" class="st14" d="M420.34,491.28c-3.94-3.94-10.27-3.94-14.2,0h0l8.72,8.72h8.16c.56-3.09-.28-6.47-2.67-8.72Z"/>
  <path id="ID0.36726595740765333" class="st38" d="M401.78,486.78h0c-.28.28-.42.42-.7.7l1.55,1.55,1.41-1.41-1.55-1.55c-.28.28-.42.56-.7.7h0Z"/>
  <path id="ID0.19423079350963235" class="st33" d="M387.72,472.72h-.14.14"/>
  <path id="ID0.15534521965309978" class="st33" d="M387.72,486.78c3.66,3.66,9.42,3.94,13.36.7.28-.14.56-.42.7-.7l-14.2-14.2c-3.8,4.08-3.8,10.41.14,14.2Z"/>
  <path id="ID0.01126576354727149" class="st33" d="M401.78,486.78h0"/>
  <path id="ID0.4748229682445526" class="st14" d="M401.78,486.78h0c.28-.28.42-.42.7-.7,3.23-3.94,2.95-9.7-.7-13.36-3.94-3.94-10.27-3.94-14.2,0h0l14.2,14.06Z"/>
  <path id="ID0.6229805401526392" class="st41" d="M126.16,397.35l-30.09,30.09,60.61,60.61,2.81-2.67,27.28-27.42-60.61-60.61"/>
  <path id="ID0.22829379234462976" class="st17" d="M201.25,443.47l8.16-8.16,4.64-4.64,2.81-2.81-60.61-60.61-30.09,30.09,60.61,60.61,14.48-14.48"/>
  <path id="ID0.06638658279553056" class="st47" d="M215.59,432.08l-4.64,4.64,3.94,3.94-8.3,8.3-3.94-3.94-41.76,41.76-1.41-1.41,5.34,5.34,54.7-54.7-3.94-3.94"/>
  <path id="ID0.4364192155189812" class="st7" d="M210.95,436.72l4.64-4.64h0l-1.55-1.41-4.64,4.64,1.55,1.41"/>
  <path id="ID0.6226363838650286" class="st7" d="M202.66,445.02l-1.41-1.55-14.48,14.48-27.28,27.42,1.41,1.41,41.76-41.76"/>
  <path id="ID0.5269468282349408" class="st5" d="M201.25,443.47l1.41,1.55,3.94,3.94,8.3-8.3-3.94-3.94-1.55-1.41-8.16,8.16"/>
  <path id="ID0.44912819378077984" class="st9" d="M222.06,442.06c-2.53,2.53-2.53,6.47,0,9,2.53,2.53,6.47,2.53,9,0,2.53-2.53,2.53-6.47,0-9-2.53-2.53-6.47-2.53-9,0ZM223.89,443.75c.42-.42,1.27-.42,1.69,0,.42.42.42,1.27,0,1.69-.42.42-1.27.42-1.69,0-.42-.56-.42-1.27,0-1.69ZM226.56,450.78c-.42.42-1.27.42-1.69,0-.42-.42-.42-1.27,0-1.69.42-.42,1.27-.42,1.69,0,.56.56.56,1.27,0,1.69ZM230.92,446.42c-.42.42-1.27.42-1.69,0-.42-.42-.42-1.27,0-1.69.42-.42,1.27-.42,1.69,0,.42.42.56,1.27,0,1.69Z"/>
  <path id="ID0.7723499806597829" class="st21" d="M224.74,443.33c.35,0,.67.14.89.37.23.23.37.55.37.89s-.14.67-.37.89-.55.37-.89.37-.67-.14-.89-.37-.37-.55-.37-.89.14-.67.37-.89c.23-.23.55-.37.89-.37Z"/>
  <path id="ID0.5544936889782548" class="st21" d="M230.08,444.31c.35,0,.67.14.89.37.23.23.37.55.37.89s-.14.67-.37.89c-.23.23-.55.37-.89.37s-.67-.14-.89-.37-.37-.55-.37-.89.14-.67.37-.89.55-.37.89-.37Z"/>
  <path id="ID0.4781918744556606" class="st21" d="M225.72,448.67c.35,0,.67.14.89.37s.37.55.37.89-.14.67-.37.89c-.23.23-.55.37-.89.37s-.67-.14-.89-.37c-.23-.23-.37-.55-.37-.89s.14-.67.37-.89c.23-.23.55-.37.89-.37Z"/>
  <path id="ID0.4176912996917963" class="st9" d="M214.05,459.08c-2.53-2.53-6.47-2.53-9,0-2.53,2.53-2.53,6.47,0,9,2.53,2.53,6.47,2.53,9,0,2.39-2.39,2.39-6.47,0-9ZM206.88,460.77c.42-.42,1.27-.42,1.69,0,.42.42.42,1.27,0,1.69-.42.42-1.27.42-1.69,0-.56-.42-.56-1.27,0-1.69ZM209.55,467.94c-.42.42-1.27.42-1.69,0-.42-.42-.42-1.27,0-1.69s1.27-.42,1.69,0c.42.42.42,1.12,0,1.69ZM212.22,463.58c-.42-.42-.42-1.27,0-1.69.42-.42,1.27-.42,1.69,0,.42.42.42,1.27,0,1.69-.42.42-1.27.42-1.69,0Z"/>
  <path id="ID0.597468875348568" class="st21" d="M207.72,460.34c.35,0,.67.14.89.37.23.23.37.55.37.89s-.14.67-.37.89c-.23.23-.55.37-.89.37s-.67-.14-.89-.37-.37-.55-.37-.89.14-.67.37-.89.55-.37.89-.37Z"/>
  <path id="ID0.19925648905336857" class="st21" d="M213.06,461.47c.35,0,.67.14.89.37.23.23.37.55.37.89s-.14.67-.37.89c-.23.23-.55.37-.89.37s-.67-.14-.89-.37c-.23-.23-.37-.55-.37-.89s.14-.67.37-.89c.23-.23.55-.37.89-.37Z"/>
  <path id="ID0.7618458960205317" class="st21" d="M208.7,465.83c.35,0,.67.14.89.37.23.23.37.55.37.89s-.14.67-.37.89-.55.37-.89.37-.67-.14-.89-.37c-.23-.23-.37-.55-.37-.89s.14-.67.37-.89c.23-.23.55-.37.89-.37Z"/>
  <path id="ID0.26391417859122157" class="st9" d="M187.89,476.23c-2.53,2.53-2.53,6.47,0,9,2.53,2.53,6.47,2.53,9,0,2.53-2.53,2.53-6.47,0-9-2.53-2.53-6.47-2.53-9,0ZM189.72,477.78c.42-.42,1.27-.42,1.69,0,.42.42.42,1.27,0,1.69-.42.42-1.27.42-1.69,0-.42-.42-.42-1.12,0-1.69ZM192.53,484.95c-.42.42-1.27.42-1.69,0-.42-.42-.42-1.27,0-1.69.42-.42,1.27-.42,1.69,0,.42.42.42,1.27,0,1.69ZM196.89,480.59c-.42.42-1.27.42-1.69,0-.42-.42-.42-1.27,0-1.69s1.27-.42,1.69,0c.42.42.42,1.27,0,1.69Z"/>
  <path id="ID0.8598798643797636" class="st21" d="M190.56,477.36c.35,0,.67.14.89.37s.37.55.37.89-.14.67-.37.89-.55.37-.89.37-.67-.14-.89-.37c-.23-.23-.37-.55-.37-.89s.14-.67.37-.89c.23-.23.55-.37.89-.37Z"/>
  <path id="ID0.6974260290153325" class="st21" d="M196.05,478.48c.35,0,.67.14.89.37.23.23.37.55.37.89s-.14.67-.37.89-.55.37-.89.37-.67-.14-.89-.37c-.23-.23-.37-.55-.37-.89s.14-.67.37-.89c.23-.23.55-.37.89-.37Z"/>
  <path id="ID0.9951618779450655" class="st21" d="M191.69,482.84c.35,0,.67.14.89.37s.37.55.37.89-.14.67-.37.89-.55.37-.89.37-.67-.14-.89-.37-.37-.55-.37-.89.14-.67.37-.89.55-.37.89-.37Z"/>
  <path id="ID0.3715036432258785" class="st9" d="M179.88,493.25c-2.53-2.53-6.47-2.53-9,0-1.83,1.83-2.25,4.5-1.41,6.75h11.95c.7-2.25.28-4.92-1.55-6.75ZM174.39,496.63c-.42.42-1.27.42-1.69,0-.42-.42-.42-1.27,0-1.69.42-.42,1.27-.42,1.69,0,.42.42.42,1.13,0,1.69ZM178.05,497.61c-.42-.42-.42-1.27,0-1.69.42-.42,1.27-.42,1.69,0,.42.42.42,1.27,0,1.69-.42.56-1.12.56-1.69,0Z"/>
  <path id="ID0.27824798226356506" class="st21" d="M173.55,494.52c.35,0,.67.14.89.37.23.23.37.55.37.89s-.14.67-.37.89c-.23.23-.55.37-.89.37s-.67-.14-.89-.37c-.23-.23-.37-.55-.37-.89s.14-.67.37-.89c.23-.23.55-.37.89-.37Z"/>
  <path id="ID0.7540435614064336" class="st21" d="M178.89,495.5c.35,0,.67.14.89.37.23.23.37.55.37.89s-.14.67-.37.89c-.23.23-.55.37-.89.37s-.67-.14-.89-.37-.37-.55-.37-.89.14-.67.37-.89.55-.37.89-.37Z"/>
  <path id="ID0.6596632585860789" class="st23" d="M164.79,490.72l54.59-54.59,1.09,1.09-54.59,54.59-1.09-1.09Z"/>
  <path id="ID0.2792846472002566" class="st33" d="M203.22,405.36l65.67-65.67,14.48,14.48-65.67,65.81,21.66,21.66,65.67-65.67-78.75-78.75-65.67,65.67,42.61,42.47ZM232.61,422.38c-1.27,1.27-3.09,1.27-4.36,0-1.27-1.27-1.27-3.09,0-4.36,1.27-1.27,3.09-1.27,4.36,0,1.12,1.12,1.12,3.09,0,4.36ZM241.61,431.38c-1.27,1.27-3.09,1.27-4.36,0-1.27-1.27-1.27-3.09,0-4.36s3.09-1.27,4.36,0c1.27,1.12,1.27,3.09,0,4.36ZM208,341.1c1.12-1.12,2.53-2.11,3.8-2.81-4.36-5.34-3.94-13.22.98-18.28,5.34-5.34,14.06-5.34,19.41,0,5.34,5.34,5.34,14.06,0,19.41-.56.56-1.27,1.12-1.83,1.55l.14.14c6.19,6.19,6.19,16.31,0,22.5-6.19,6.19-16.31,6.19-22.5,0-6.19-6.19-6.19-16.31,0-22.5ZM200.13,389.89c1.27-1.27,3.09-1.27,4.36,0,1.27,1.27,1.27,3.09,0,4.36-1.27,1.27-3.09,1.27-4.36,0-1.27-1.27-1.27-3.23,0-4.36ZM190.42,380.19c1.27-1.27,3.09-1.27,4.36,0,1.27,1.27,1.27,3.09,0,4.36-1.27,1.27-3.09,1.27-4.36,0s-1.27-3.23,0-4.36ZM180.72,370.49c1.27-1.27,3.09-1.27,4.36,0,1.27,1.27,1.27,3.09,0,4.36-1.27,1.27-3.09,1.27-4.36,0-1.12-1.27-1.12-3.09,0-4.36ZM175.38,360.78c1.27,1.27,1.27,3.09,0,4.36s-3.09,1.27-4.36,0c-1.27-1.27-1.27-3.09,0-4.36,1.27-1.27,3.23-1.12,4.36,0Z"/>
  <path id="ID0.7713016765192151" class="st39" d="M203.31,405.38l65.63-65.63,14.52,14.52-65.63,65.63-14.52-14.52Z"/>
  <path id="ID0.13672575540840626" class="st20" d="M173.27,359.94c.85,0,1.63.35,2.19.91.56.56.91,1.33.91,2.19s-.35,1.63-.91,2.19c-.56.56-1.33.91-2.19.91s-1.63-.35-2.19-.91c-.56-.56-.91-1.33-.91-2.19s.35-1.63.91-2.19c.56-.56,1.33-.91,2.19-.91Z"/>
  <path id="ID0.012893663719296455" class="st20" d="M182.97,369.5c.85,0,1.63.35,2.19.91.56.56.91,1.33.91,2.19s-.35,1.63-.91,2.19c-.56.56-1.33.91-2.19.91s-1.63-.35-2.19-.91c-.56-.56-.91-1.33-.91-2.19s.35-1.63.91-2.19c.56-.56,1.33-.91,2.19-.91Z"/>
  <path id="ID0.8114085532724857" class="st20" d="M192.53,379.21c.85,0,1.63.35,2.19.91.56.56.91,1.33.91,2.19s-.35,1.63-.91,2.19c-.56.56-1.33.91-2.19.91s-1.63-.35-2.19-.91c-.56-.56-.91-1.33-.91-2.19s.35-1.63.91-2.19c.56-.56,1.33-.91,2.19-.91Z"/>
  <path id="ID0.9958554925397038" class="st20" d="M202.24,388.91c.85,0,1.63.35,2.19.91.56.56.91,1.33.91,2.19s-.35,1.63-.91,2.19-1.33.91-2.19.91-1.63-.35-2.19-.91-.91-1.33-.91-2.19.35-1.63.91-2.19c.56-.56,1.33-.91,2.19-.91Z"/>
  <path id="ID0.46930799167603254" class="st20" d="M230.36,417.03c.85,0,1.63.35,2.19.91.56.56.91,1.33.91,2.19s-.35,1.63-.91,2.19-1.33.91-2.19.91-1.63-.35-2.19-.91-.91-1.33-.91-2.19.35-1.63.91-2.19c.56-.56,1.33-.91,2.19-.91Z"/>
  <path id="ID0.36876361398026347" class="st20" d="M239.5,426.03c.85,0,1.63.35,2.19.91.56.56.91,1.33.91,2.19s-.35,1.63-.91,2.19-1.33.91-2.19.91-1.63-.35-2.19-.91-.91-1.33-.91-2.19.35-1.63.91-2.19c.56-.56,1.33-.91,2.19-.91Z"/>
  <path id="ID0.026928866747766733" class="st12" d="M230.5,340.96c.7-.42,1.27-.98,1.83-1.55,5.34-5.34,5.34-14.06,0-19.41-5.34-5.34-14.06-5.34-19.41,0-4.92,4.92-5.34,12.8-.98,18.28,5.91-3.23,13.5-2.25,18.56,2.67Z"/>
  <path id="ID0.015176793094724417" class="st12" d="M230.64,363.6c6.19-6.19,6.19-16.31,0-22.5l-.14-.14c-5.06-4.92-12.52-5.77-18.56-2.67-1.41.7-2.67,1.69-3.8,2.81-6.19,6.19-6.19,16.31,0,22.5,6.19,6.33,16.31,6.33,22.5,0Z"/>
  <path id="ID0.6112290075980127" class="st30" d="M79.19,399.88l26.44-26.44-37.27-37.12v58.22l8.16,8.02,2.67-2.67"/>
  <path id="ID0.4565603472292423" class="st11" d="M119.55,359.52l7.87-7.87,4.5-4.5,2.67-2.67-58.5-58.64-7.73,7.73v42.75l37.27,37.12,13.92-13.92"/>
  <path id="ID0.6430927771143615" class="st47" d="M80.68,401.24l40.37-40.37,3.78,3.78-40.37,40.37-3.78-3.78Z"/>
  <path id="ID0.1707814233377576" class="st47" d="M137.14,352.29l-4.47,4.47-3.78-3.78,4.47-4.47,3.78,3.78Z"/>
  <path id="ID0.049143905751407146" class="st7" d="M133.27,348.49l-4.47,4.47-1.39-1.39,4.47-4.47,1.39,1.39Z"/>
  <path id="ID0.3109567314386368" class="st7" d="M119.55,359.52l-13.92,13.92-26.44,26.44,1.41,1.41,40.36-40.36-1.41-1.41"/>
  <path id="ID0.21095039043575525" class="st5" d="M124.75,364.72l7.87-7.87-3.8-3.8-1.41-1.41-7.87,7.87,1.41,1.41,3.8,3.8"/>
  <path id="ID0.24517202423885465" class="st9" d="M148.38,366.83c2.39-2.39,2.39-6.33,0-8.72-2.39-2.39-6.33-2.39-8.72,0-2.39,2.39-2.39,6.33,0,8.72,2.39,2.39,6.33,2.39,8.72,0ZM146.69,360.78c.42-.42,1.12-.42,1.69,0,.42.42.42,1.12,0,1.69-.42.42-1.12.42-1.69,0-.56-.56-.56-1.27,0-1.69ZM144.02,364.86c.42.42.42,1.13,0,1.69-.42.42-1.12.42-1.69,0-.42-.42-.42-1.13,0-1.69.56-.42,1.27-.42,1.69,0ZM141.35,359.66c.42-.42,1.12-.42,1.69,0,.42.42.42,1.12,0,1.69-.42.42-1.12.42-1.69,0-.42-.42-.42-1.27,0-1.69Z"/>
  <path id="ID0.1678438037633896" class="st21" d="M142.19,359.38c.31,0,.59.13.8.33.2.2.33.49.33.8s-.13.59-.33.8c-.2.2-.49.33-.8.33s-.59-.13-.8-.33c-.2-.2-.33-.49-.33-.8s.13-.59.33-.8c.2-.2.49-.33.8-.33Z"/>
  <path id="ID0.006394150201231241" class="st21" d="M147.39,360.36c.31,0,.59.13.8.33.2.2.33.49.33.8s-.13.59-.33.8c-.2.2-.49.33-.8.33s-.59-.13-.8-.33c-.2-.2-.33-.49-.33-.8s.13-.59.33-.8c.2-.2.49-.33.8-.33Z"/>
  <path id="ID0.16675646929070354" class="st21" d="M143.17,364.58c.31,0,.59.13.8.33.2.2.33.49.33.8s-.13.59-.33.8c-.2.2-.49.33-.8.33s-.59-.13-.8-.33c-.2-.2-.33-.49-.33-.8s.13-.59.33-.8c.2-.2.49-.33.8-.33Z"/>
  <path id="ID0.8673508781939745" class="st9" d="M131.92,383.28c2.39-2.39,2.39-6.33,0-8.72-2.39-2.39-6.33-2.39-8.72,0-2.39,2.39-2.39,6.33,0,8.72s6.19,2.39,8.72,0ZM130.1,377.24c.42-.42,1.12-.42,1.69,0,.42.42.42,1.12,0,1.69-.42.42-1.12.42-1.69,0-.42-.56-.42-1.27,0-1.69ZM127.56,381.46c.42.42.42,1.12,0,1.69-.42.42-1.12.42-1.69,0-.42-.42-.42-1.12,0-1.69.56-.56,1.27-.56,1.69,0ZM124.89,376.11c.42-.42,1.12-.42,1.69,0,.42.42.42,1.13,0,1.69-.42.42-1.12.42-1.69,0-.42-.42-.42-1.13,0-1.69Z"/>
  <path id="ID0.9776130192913115" class="st21" d="M125.74,375.83c.31,0,.59.13.8.33.2.2.33.49.33.8s-.13.59-.33.8c-.2.2-.49.33-.8.33s-.59-.13-.8-.33c-.2-.2-.33-.49-.33-.8s.13-.59.33-.8c.2-.2.49-.33.8-.33Z"/>
  <path id="ID0.09971459535881877" class="st21" d="M130.94,376.81c.31,0,.59.13.8.33.2.2.33.49.33.8s-.13.59-.33.8c-.2.2-.49.33-.8.33s-.59-.13-.8-.33c-.2-.2-.33-.49-.33-.8s.13-.59.33-.8c.2-.2.49-.33.8-.33Z"/>
  <path id="ID0.6445155218243599" class="st21" d="M126.72,381.03c.31,0,.59.13.8.33.2.2.33.49.33.8s-.13.59-.33.8c-.2.2-.49.33-.8.33s-.59-.13-.8-.33c-.2-.2-.33-.49-.33-.8s.13-.59.33-.8c.2-.2.49-.33.8-.33Z"/>
  <path id="ID0.9187358468770981" class="st9" d="M115.33,399.74c2.39-2.39,2.39-6.33,0-8.72-2.39-2.39-6.33-2.39-8.72,0-2.39,2.39-2.39,6.33,0,8.72,2.39,2.39,6.33,2.39,8.72,0ZM113.64,393.69c.42-.42,1.12-.42,1.69,0,.42.42.42,1.13,0,1.69-.42.42-1.12.42-1.69,0-.42-.56-.42-1.27,0-1.69ZM111.11,397.91c.42.42.42,1.13,0,1.69-.42.42-1.12.42-1.69,0-.42-.42-.42-1.13,0-1.69.42-.42,1.27-.42,1.69,0ZM108.44,392.7c.42-.42,1.12-.42,1.69,0,.42.42.42,1.12,0,1.69-.42.42-1.12.42-1.69,0-.42-.56-.42-1.27,0-1.69Z"/>
  <path id="ID0.6473433799110353" class="st21" d="M109.28,392.28c.31,0,.59.13.8.33.2.2.33.49.33.8s-.13.59-.33.8c-.2.2-.49.33-.8.33s-.59-.13-.8-.33c-.2-.2-.33-.49-.33-.8s.13-.59.33-.8c.2-.2.49-.33.8-.33Z"/>
  <path id="ID0.7533151488751173" class="st21" d="M114.49,393.41c.31,0,.59.13.8.33.2.2.33.49.33.8s-.13.59-.33.8c-.2.2-.49.33-.8.33s-.59-.13-.8-.33c-.2-.2-.33-.49-.33-.8s.13-.59.33-.8c.2-.2.49-.33.8-.33Z"/>
  <path id="ID0.8839517585001886" class="st21" d="M110.27,397.63c.31,0,.59.13.8.33.2.2.33.49.33.8s-.13.59-.33.8c-.2.2-.49.33-.8.33s-.59-.13-.8-.33c-.2-.2-.33-.49-.33-.8s.13-.59.33-.8c.2-.2.49-.33.8-.33Z"/>
  <path id="ID0.433954497333616" class="st9" d="M98.88,407.47c-2.39-2.39-6.33-2.39-8.72,0-2.39,2.39-2.39,6.33,0,8.72,2.39,2.39,6.33,2.39,8.72,0,2.39-2.39,2.39-6.19,0-8.72ZM91.99,409.16c.42-.42,1.12-.42,1.69,0,.42.42.42,1.13,0,1.69-.42.42-1.12.42-1.69,0-.42-.56-.42-1.27,0-1.69ZM94.66,416.05c-.42.42-1.12.42-1.69,0-.42-.42-.42-1.12,0-1.69.42-.42,1.12-.42,1.69,0,.42.42.42,1.12,0,1.69ZM97.19,411.83c-.42-.42-.42-1.12,0-1.69.42-.42,1.12-.42,1.69,0,.42.42.42,1.12,0,1.69-.56.42-1.27.42-1.69,0Z"/>
  <path id="ID0.28094885777682066" class="st21" d="M92.83,408.88c.31,0,.59.13.8.33.2.2.33.49.33.8s-.13.59-.33.8c-.2.2-.49.33-.8.33s-.59-.13-.8-.33c-.2-.2-.33-.49-.33-.8s.13-.59.33-.8c.2-.2.49-.33.8-.33Z"/>
  <path id="ID0.8725791862234473" class="st21" d="M98.03,409.86c.31,0,.59.13.8.33.2.2.33.49.33.8s-.13.59-.33.8c-.2.2-.49.33-.8.33s-.59-.13-.8-.33c-.2-.2-.33-.49-.33-.8s.13-.59.33-.8c.2-.2.49-.33.8-.33Z"/>
  <path id="ID0.8123347144573927" class="st21" d="M93.82,414.08c.31,0,.59.13.8.33.2.2.33.49.33.8s-.13.59-.33.8c-.2.2-.49.33-.8.33s-.59-.13-.8-.33c-.2-.2-.33-.49-.33-.8s.13-.59.33-.8c.2-.2.49-.33.8-.33Z"/>
  <path id="ID0.03345018718391657" class="st23" d="M124.75,364.72l-40.36,40.36.98.98,52.73-52.73-.98-.98-4.5,4.5-7.87,7.87"/>
  <path id="ID0.9233185052871704" class="st30" d="M116.32,245.61l-29.11,29.11,58.5,58.64,2.81-2.81,26.3-26.3-58.5-58.64"/>
  <path id="ID0.13846916891634464" class="st11" d="M174.81,304.25l14.06-14.06,7.87-7.87,4.5-4.5,2.67-2.67-58.64-58.5-28.97,28.97,58.5,58.64"/>
  <path id="ID0.9686157731339335" class="st47" d="M149.94,331.88l40.37-40.37,3.78,3.78-40.37,40.37-3.78-3.78Z"/>
  <path id="ID0.6512259435839951" class="st47" d="M206.3,283.03l-4.47,4.47-3.78-3.78,4.47-4.47,3.78,3.78Z"/>
  <path id="ID0.6963591850362718" class="st7" d="M188.88,290.19l-14.06,14.06-26.3,26.3,1.41,1.41,40.36-40.36-1.41-1.41"/>
  <path id="ID0.1766641205176711" class="st7" d="M202.63,279.23l-4.47,4.47-1.39-1.39,4.47-4.47,1.39,1.39Z"/>
  <path id="ID0.745612280908972" class="st5" d="M194.08,295.39l7.87-7.87-3.8-3.8-1.41-1.41-7.87,7.87,1.41,1.41,3.8,3.8"/>
  <path id="ID0.9823898244649172" class="st9" d="M208.84,297.5c2.39,2.39,6.33,2.39,8.72,0,2.39-2.39,2.39-6.33,0-8.72-2.39-2.39-6.33-2.39-8.72,0-2.39,2.39-2.39,6.33,0,8.72ZM215.88,291.46c.42-.42,1.12-.42,1.69,0,.42.42.42,1.12,0,1.69-.42.42-1.12.42-1.69,0-.42-.56-.42-1.27,0-1.69ZM213.34,295.68c.42.42.42,1.12,0,1.69-.42.42-1.12.42-1.69,0-.42-.42-.42-1.12,0-1.69.42-.42,1.27-.42,1.69,0ZM210.67,290.47c.42-.42,1.12-.42,1.69,0,.42.42.42,1.12,0,1.69-.42.42-1.12.42-1.69,0-.42-.56-.42-1.27,0-1.69Z"/>
  <path id="ID0.25535537116229534" class="st21" d="M211.52,290.05c.31,0,.59.13.8.33.2.2.33.49.33.8s-.13.59-.33.8c-.2.2-.49.33-.8.33s-.59-.13-.8-.33c-.2-.2-.33-.49-.33-.8s.13-.59.33-.8c.2-.2.49-.33.8-.33Z"/>
  <path id="ID0.8743947446346283" class="st21" d="M216.72,291.18c.31,0,.59.13.8.33.2.2.33.49.33.8s-.13.59-.33.8c-.2.2-.49.33-.8.33s-.59-.13-.8-.33c-.2-.2-.33-.49-.33-.8s.13-.59.33-.8c.2-.2.49-.33.8-.33Z"/>
  <path id="ID0.9722206555306911" class="st21" d="M212.5,295.39c.31,0,.59.13.8.33.2.2.33.49.33.8s-.13.59-.33.8c-.2.2-.49.33-.8.33s-.59-.13-.8-.33c-.2-.2-.33-.49-.33-.8s.13-.59.33-.8c.2-.2.49-.33.8-.33Z"/>
  <path id="ID0.03348240675404668" class="st9" d="M201.11,314.1c2.39-2.39,2.39-6.33,0-8.72-2.39-2.39-6.33-2.39-8.72,0-2.39,2.39-2.39,6.33,0,8.72,2.39,2.39,6.33,2.39,8.72,0ZM199.42,307.91c.42-.42,1.12-.42,1.69,0,.42.42.42,1.12,0,1.69-.42.42-1.12.42-1.69,0-.42-.42-.42-1.27,0-1.69ZM194.22,306.93c.42-.42,1.12-.42,1.69,0,.42.42.42,1.12,0,1.69-.42.42-1.12.42-1.69,0-.56-.56-.56-1.27,0-1.69ZM195.2,313.82c-.42-.42-.42-1.12,0-1.69.42-.42,1.12-.42,1.69,0,.42.42.42,1.12,0,1.69-.56.42-1.27.42-1.69,0Z"/>
  <path id="ID0.6979235238395631" class="st21" d="M195.06,306.64c.31,0,.59.13.8.33.2.2.33.49.33.8s-.13.59-.33.8c-.2.2-.49.33-.8.33s-.59-.13-.8-.33c-.2-.2-.33-.49-.33-.8s.13-.59.33-.8c.2-.2.49-.33.8-.33Z"/>
  <path id="ID0.985127286054194" class="st21" d="M200.27,307.63c.31,0,.59.13.8.33.2.2.33.49.33.8s-.13.59-.33.8c-.2.2-.49.33-.8.33s-.59-.13-.8-.33c-.2-.2-.33-.49-.33-.8s.13-.59.33-.8c.2-.2.49-.33.8-.33Z"/>
  <path id="ID0.10202429350465536" class="st21" d="M196.05,311.85c.31,0,.59.13.8.33.2.2.33.49.33.8s-.13.59-.33.8c-.2.2-.49.33-.8.33s-.59-.13-.8-.33c-.2-.2-.33-.49-.33-.8s.13-.59.33-.8c.2-.2.49-.33.8-.33Z"/>
  <path id="ID0.8337548240087926" class="st9" d="M184.66,330.55c2.39-2.39,2.39-6.33,0-8.72s-6.33-2.39-8.72,0c-2.39,2.39-2.39,6.33,0,8.72,2.39,2.39,6.33,2.39,8.72,0ZM182.97,324.36c.42-.42,1.12-.42,1.69,0,.42.42.42,1.12,0,1.69-.42.42-1.12.42-1.69,0-.42-.42-.42-1.12,0-1.69ZM177.77,323.38c.42-.42,1.12-.42,1.69,0,.42.42.42,1.12,0,1.69-.42.42-1.12.42-1.69,0-.56-.56-.56-1.27,0-1.69ZM178.75,330.27c-.42-.42-.42-1.12,0-1.69.42-.42,1.12-.42,1.69,0,.42.42.42,1.12,0,1.69-.56.42-1.27.42-1.69,0Z"/>
  <path id="ID0.8696067524142563" class="st21" d="M178.47,323.1c.31,0,.59.13.8.33.2.2.33.49.33.8s-.13.59-.33.8c-.2.2-.49.33-.8.33s-.59-.13-.8-.33c-.2-.2-.33-.49-.33-.8s.13-.59.33-.8c.2-.2.49-.33.8-.33Z"/>
  <path id="ID0.17979231290519238" class="st21" d="M183.81,324.08c.31,0,.59.13.8.33.2.2.33.49.33.8s-.13.59-.33.8c-.2.2-.49.33-.8.33s-.59-.13-.8-.33c-.2-.2-.33-.49-.33-.8s.13-.59.33-.8c.2-.2.49-.33.8-.33Z"/>
  <path id="ID0.8322286745533347" class="st21" d="M179.6,328.3c.31,0,.59.13.8.33.2.2.33.49.33.8s-.13.59-.33.8c-.2.2-.49.33-.8.33s-.59-.13-.8-.33c-.2-.2-.33-.49-.33-.8s.13-.59.33-.8c.2-.2.49-.33.8-.33Z"/>
  <path id="ID0.06550587574020028" class="st9" d="M168.2,347c2.39-2.39,2.39-6.33,0-8.72-2.39-2.39-6.33-2.39-8.72,0-2.39,2.39-2.39,6.33,0,8.72,2.39,2.39,6.33,2.39,8.72,0ZM166.52,340.82c.42-.42,1.12-.42,1.69,0,.42.42.42,1.12,0,1.69-.42.42-1.12.42-1.69,0s-.56-1.12,0-1.69ZM161.17,339.83c.42-.42,1.12-.42,1.69,0,.42.42.42,1.12,0,1.69-.42.42-1.12.42-1.69,0-.42-.42-.42-1.27,0-1.69ZM162.3,346.72c-.42-.42-.42-1.12,0-1.69.42-.42,1.12-.42,1.69,0,.42.42.42,1.12,0,1.69-.56.42-1.27.42-1.69,0Z"/>
  <path id="ID0.439455880317837" class="st21" d="M162.02,339.55c.31,0,.59.13.8.33.2.2.33.49.33.8s-.13.59-.33.8c-.2.2-.49.33-.8.33s-.59-.13-.8-.33c-.2-.2-.33-.49-.33-.8s.13-.59.33-.8c.2-.2.49-.33.8-.33Z"/>
  <path id="ID0.13485680939629674" class="st21" d="M167.22,340.53c.31,0,.59.13.8.33.2.2.33.49.33.8s-.13.59-.33.8c-.2.2-.49.33-.8.33s-.59-.13-.8-.33c-.2-.2-.33-.49-.33-.8s.13-.59.33-.8c.2-.2.49-.33.8-.33Z"/>
  <path id="ID0.09839954553171992" class="st21" d="M163,344.75c.31,0,.59.13.8.33.2.2.33.49.33.8s-.13.59-.33.8c-.2.2-.49.33-.8.33s-.59-.13-.8-.33c-.2-.2-.33-.49-.33-.8s.13-.59.33-.8c.2-.2.49-.33.8-.33Z"/>
  <path id="ID0.6863108924590051" class="st23" d="M194.08,295.39l-40.36,40.36.98,1.12,52.73-52.73-.98-1.12-4.5,4.5-7.87,7.87"/>
  <path id="ID0.8485147361643612" class="st9" d="M68.36,278.24v8.02c2.11-2.25,2.11-5.77,0-8.02Z"/>
  <path id="ID0.7683607032522559" class="st30" d="M68.36,197.8v52.45l26.3-26.16-26.3-26.3"/>
  <path id="ID0.8958609886467457" class="st11" d="M108.72,210.04l7.87-7.87,4.36-4.5,2.81-2.67-55.41-55.26v58.08l26.3,26.3,14.06-14.06"/>
  <path id="ID0.13191067660227418" class="st47" d="M126.29,202.8l-4.47,4.47-3.78-3.78,4.47-4.47,3.78,3.78Z"/>
  <path id="ID0.6844334248453379" class="st47" d="M69.67,251.83l40.37-40.37,3.78,3.78-40.37,40.37-3.78-3.78Z"/>
  <path id="ID0.15036012744531035" class="st7" d="M109.99,211.44l-1.27-1.41-14.06,14.06-26.3,26.16v.28l1.27,1.27,40.36-40.36"/>
  <path id="ID0.6750586270354688" class="st7" d="M122.42,199.01l-4.47,4.47-1.39-1.39,4.47-4.47,1.39,1.39Z"/>
  <path id="ID0.10937762865796685" class="st5" d="M121.8,207.36l-3.8-3.8-1.41-1.41-7.87,7.87,1.27,1.41,3.94,3.8,7.87-7.87"/>
  <path id="ID0.3612361471168697" class="st9" d="M128.69,217.35c2.39,2.39,6.33,2.39,8.72,0,2.39-2.39,2.39-6.33,0-8.72-2.39-2.39-6.33-2.39-8.72,0-2.39,2.39-2.39,6.33,0,8.72ZM135.72,211.3c.42-.42,1.12-.42,1.69,0,.42.42.42,1.12,0,1.69-.42.42-1.12.42-1.69,0-.42-.56-.42-1.27,0-1.69ZM133.19,215.52c.42.42.42,1.12,0,1.69-.42.42-1.12.42-1.69,0-.42-.42-.42-1.12,0-1.69.42-.56,1.12-.56,1.69,0ZM130.52,210.18c.42-.42,1.12-.42,1.69,0,.42.42.42,1.12,0,1.69-.42.42-1.12.42-1.69,0-.56-.42-.56-1.12,0-1.69Z"/>
  <path id="ID0.22348357504233718" class="st21" d="M131.22,209.9c.31,0,.59.13.8.33.2.2.33.49.33.8s-.13.59-.33.8c-.2.2-.49.33-.8.33s-.59-.13-.8-.33c-.2-.2-.33-.49-.33-.8s.13-.59.33-.8c.2-.2.49-.33.8-.33Z"/>
  <path id="ID0.9297930677421391" class="st21" d="M136.56,211.02c.31,0,.59.13.8.33.2.2.33.49.33.8s-.13.59-.33.8c-.2.2-.49.33-.8.33s-.59-.13-.8-.33c-.2-.2-.33-.49-.33-.8s.13-.59.33-.8c.2-.2.49-.33.8-.33Z"/>
  <path id="ID0.6898543536663055" class="st21" d="M132.35,215.24c.31,0,.59.13.8.33.2.2.33.49.33.8s-.13.59-.33.8c-.2.2-.49.33-.8.33s-.59-.13-.8-.33c-.2-.2-.33-.49-.33-.8s.13-.59.33-.8c.2-.2.49-.33.8-.33Z"/>
  <path id="ID0.14569735154509544" class="st9" d="M120.96,233.8c2.39-2.39,2.39-6.33,0-8.72s-6.33-2.39-8.72,0-2.39,6.33,0,8.72,6.33,2.39,8.72,0ZM119.27,227.75c.42-.42,1.12-.42,1.69,0,.42.42.42,1.12,0,1.69-.42.42-1.12.42-1.69,0-.42-.56-.42-1.27,0-1.69ZM116.6,231.97c.42.42.42,1.12,0,1.69-.42.42-1.12.42-1.69,0-.42-.42-.42-1.12,0-1.69.56-.42,1.27-.42,1.69,0ZM114.07,226.77c.42-.42,1.12-.42,1.69,0,.42.42.42,1.12,0,1.69-.42.42-1.12.42-1.69,0-.56-.56-.56-1.27,0-1.69Z"/>
  <path id="ID0.18326263688504696" class="st21" d="M114.77,226.35c.31,0,.59.13.8.33.2.2.33.49.33.8s-.13.59-.33.8c-.2.2-.49.33-.8.33s-.59-.13-.8-.33c-.2-.2-.33-.49-.33-.8s.13-.59.33-.8c.2-.2.49-.33.8-.33Z"/>
  <path id="ID0.48527401173487306" class="st21" d="M120.11,227.47c.31,0,.59.13.8.33.2.2.33.49.33.8s-.13.59-.33.8c-.2.2-.49.33-.8.33s-.59-.13-.8-.33c-.2-.2-.33-.49-.33-.8s.13-.59.33-.8c.2-.2.49-.33.8-.33Z"/>
  <path id="ID0.5534539958462119" class="st21" d="M115.89,231.69c.31,0,.59.13.8.33.2.2.33.49.33.8s-.13.59-.33.8c-.2.2-.49.33-.8.33s-.59-.13-.8-.33c-.2-.2-.33-.49-.33-.8s.13-.59.33-.8c.2-.2.49-.33.8-.33Z"/>
  <path id="ID0.8501526066102087" class="st9" d="M104.5,250.39c2.39-2.39,2.39-6.33,0-8.72s-6.33-2.39-8.72,0c-2.39,2.39-2.39,6.33,0,8.72,2.39,2.39,6.33,2.39,8.72,0ZM102.82,244.21c.42-.42,1.12-.42,1.69,0,.42.42.42,1.12,0,1.69-.42.42-1.12.42-1.69,0-.56-.42-.56-1.27,0-1.69ZM100.14,248.43c.42.42.42,1.12,0,1.69-.42.42-1.12.42-1.69,0-.42-.42-.42-1.12,0-1.69.56-.42,1.27-.42,1.69,0ZM97.47,243.22c.42-.42,1.12-.42,1.69,0,.42.42.42,1.12,0,1.69-.42.42-1.12.42-1.69,0-.42-.56-.42-1.27,0-1.69Z"/>
  <path id="ID0.3344763363711536" class="st21" d="M98.32,242.94c.31,0,.59.13.8.33.2.2.33.49.33.8s-.13.59-.33.8c-.2.2-.49.33-.8.33s-.59-.13-.8-.33c-.2-.2-.33-.49-.33-.8s.13-.59.33-.8c.2-.2.49-.33.8-.33Z"/>
  <path id="ID0.8346916679292917" class="st21" d="M103.52,243.93c.31,0,.59.13.8.33.2.2.33.49.33.8s-.13.59-.33.8c-.2.2-.49.33-.8.33s-.59-.13-.8-.33c-.2-.2-.33-.49-.33-.8s.13-.59.33-.8c.2-.2.49-.33.8-.33Z"/>
  <path id="ID0.9765040557831526" class="st21" d="M99.3,248.14c.31,0,.59.13.8.33.2.2.33.49.33.8s-.13.59-.33.8c-.2.2-.49.33-.8.33s-.59-.13-.8-.33c-.2-.2-.33-.49-.33-.8s.13-.59.33-.8c.2-.2.49-.33.8-.33Z"/>
  <path id="ID0.30987263889983296" class="st9" d="M88.05,258.13c-2.39-2.39-6.33-2.39-8.72,0-2.39,2.39-2.39,6.33,0,8.72,2.39,2.39,6.33,2.39,8.72,0s2.39-6.33,0-8.72ZM81.02,259.68c.42-.42,1.12-.42,1.69,0,.42.42.42,1.12,0,1.69-.42.42-1.12.42-1.69,0-.42-.56-.42-1.27,0-1.69ZM83.69,266.57c-.42.42-1.12.42-1.69,0-.42-.42-.42-1.12,0-1.69.42-.42,1.12-.42,1.69,0,.42.42.42,1.27,0,1.69ZM86.22,262.35c-.42-.42-.42-1.12,0-1.69.42-.42,1.12-.42,1.69,0,.42.42.42,1.12,0,1.69-.42.42-1.12.42-1.69,0Z"/>
  <path id="ID0.33822216652333736" class="st21" d="M81.86,259.39c.31,0,.59.13.8.33.2.2.33.49.33.8s-.13.59-.33.8c-.2.2-.49.33-.8.33s-.59-.13-.8-.33c-.2-.2-.33-.49-.33-.8s.13-.59.33-.8c.2-.2.49-.33.8-.33Z"/>
  <path id="ID0.5217347941361368" class="st21" d="M87.07,260.38c.31,0,.59.13.8.33.2.2.33.49.33.8s-.13.59-.33.8c-.2.2-.49.33-.8.33s-.59-.13-.8-.33c-.2-.2-.33-.49-.33-.8s.13-.59.33-.8c.2-.2.49-.33.8-.33Z"/>
  <path id="ID0.2019367371685803" class="st21" d="M82.85,264.6c.31,0,.59.13.8.33.2.2.33.49.33.8s-.13.59-.33.8c-.2.2-.49.33-.8.33s-.59-.13-.8-.33c-.2-.2-.33-.49-.33-.8s.13-.59.33-.8c.2-.2.49-.33.8-.33Z"/>
  <path id="ID0.25450160820037127" class="st23" d="M113.92,215.24l-40.5,40.36,1.12.98,52.73-52.73-1.12-.98-4.36,4.5-7.87,7.87"/>
  <path id="ID0.21534416172653437" class="st12" d="M507.53,275.57c-2.25-2.25-3.52-5.2-3.66-8.16-3.09-1.41-6.89-.84-9.42,1.69-3.37,3.37-3.37,8.72,0,12.09,3.37,3.37,8.72,3.37,12.09,0,1.27-1.27,2.11-2.81,2.39-4.5-.56-.42-.98-.84-1.41-1.12Z"/>
  <path id="ID0.10846364544704556" class="st12" d="M508.79,276.55c4.92,3.8,12.09,3.52,16.59-1.12,4.92-4.92,4.92-12.94,0-17.86s-12.94-4.92-17.86,0c-2.67,2.67-3.94,6.19-3.66,9.7.14,2.95,1.41,5.91,3.66,8.16.42.42.84.84,1.27,1.12Z"/>
  <path id="ID0.14515789970755577" class="st31" d="M68.36,500h90.42l-90.42-90.42v90.42"/>
  <path id="ID0.35617157397791743" class="st31" d="M592.32,418.44l59.62,59.62-21.94,21.94h113.2v-142.03l-34.31-34.31,2.67-2.67,31.64,31.64v-39.8l-22.64-22.64-128.25,128.25ZM643.37,495.5l-2.67-2.67,51.05-51.05,2.67,2.67-51.05,51.05ZM722.26,368.8l-9.28,18-3.09-3.09-17.16,17.16h0l-16.59,16.59-2.95-2.95,15.89-15.89h0s4.78-4.08,4.92-9.28c.14-2.39-.7-4.64-2.39-7.03l-2.95,2.95-9.28-18,18.56,8.72-3.23,3.23c2.53,3.23,3.8,6.61,3.52,10.12l8.72-8.72-3.09-3.09,18.42-8.72Z"/>
  <path id="ID0.2685381849296391" class="st31" d="M577.3,62.68l-47.03-47.03,4.18-4.18,47.03,47.03-4.18,4.18Z"/>
  <path id="ID0.3948401249945164" class="st31" d="M662.35-6.66l-49.64,49.64-49.64-49.64h-139.22l3.23,3.23,293.62,293.62,22.64,22.64v-45.28l-7.87,7.87-51.05-51.05,10.55-10.55,48.51,48.51v-19.27l-38.81-38.81,10.55-10.55,28.41,28.41v-19.27l-18.7-18.7,10.55-10.55,8.3,8.3v-63.28l-3.37,3.37-2.67-2.67,6.05-6.05v-46.83c-1.27.28-2.39.56-3.66.56h-.7c-1.27,0-2.39-.28-3.52-.7.28,1.12.56,2.25.7,3.52.14,3.52-.98,7.03-3.52,10.27l3.23,3.23-18.56,8.72,9.28-18,2.95,2.95c1.69-2.25,2.53-4.64,2.39-7.03-.14-3.66-2.39-6.61-3.8-8.16-.56-.42-.84-.84-1.12-1.12h-.14q-.14-.14-.14-.28l-27.14-26.44,2.95-2.95,26.58,26.58h0l.14.14h0l.14.14c.28.28.7.56,1.12,1.12,1.55,1.41,4.5,3.66,8.16,3.8,1.41,0,2.81-.14,4.08-.7v-4.5l-.14-.14.14-.14V-5.4l-1.27-1.27h-79.59ZM576.01,80.38l-11.95-11.95-6.89,6.89-5.62-5.62-40.5-51.05,3.23-3.23.42.42,38.11,47.81,3.37-3.37-19.27-18.98,2.95-2.95,19.12,19.12,1.55-1.55,8.02,8.02-1.55,1.55,11.95,11.95-2.95,2.95ZM590.92,65.48l-6.61,6.61c-1.27,1.27-3.8,0-7.59-3.94l-51.75-51.75c-3.94-3.94-5.2-6.47-3.94-7.73l6.47-6.47c1.27-1.27,3.8,0,7.73,3.94l51.75,51.75c3.8,3.8,5.2,6.33,3.94,7.59ZM673.32,86.43l-51.05-51.05,2.67-2.67,51.05,51.05-2.67,2.67Z"/>
  <path id="ID0.906119822524488" class="st31" d="M612.71,42.98l49.64-49.64h-99.28l49.64,49.64"/>
  <path id="ID0.8688653693534434" class="st31" d="M592.32,418.44L247.8,73.91,325.14-3.43l3.23-3.23H90.16c-.84.98-1.83,2.11-2.67,3.23-8.3,10.41-14.62,21.94-19.12,33.89v86.62c6.05,16.17,15.47,31.5,28.55,44.44l338.34,338.48h194.76l21.94-21.94-59.62-59.62Z"/>
  <path id="ID0.2097423835657537" class="st31" d="M199.14,185.85l-2.53-2.67v32.62h-4.22v-32.62l-2.25,2.25-2.95-2.95,7.31-7.31,7.73,7.73-3.09,2.95"/>
  <path id="ID0.040772744454443455" class="st31" d="M253.7,240.27l-2.67-2.53v32.62h-4.22v-32.62l-2.11,2.25-3.09-3.09,7.31-7.17,7.73,7.59-2.95,2.95"/>
  <path id="ID0.7570396973751485" class="st31" d="M560.2,414.83l-51.01,51.01-2.68-2.68,51.01-51.01,2.68,2.68Z"/>
  <path id="ID0.32755549997091293" class="st22" d="M739.84,121.87l3.37-3.37v-5.34l-6.05,6.05,2.67,2.67"/>
  <path id="ID0.06730279559269547" class="st22" d="M506.53,463.18l51.01-51.01,2.68,2.68-51.01,51.01-2.68-2.68Z"/>
  <path id="ID0.5986290071159601" class="st22" d="M724.51,184.02l18.7,18.7v-20.95l-8.16-8.16-10.55,10.41"/>
  <path id="ID0.3517740909010172" class="st22" d="M704.4,204.13l38.81,38.95v-20.95l-28.27-28.41-10.55,10.41"/>
  <path id="ID0.10119903739541769" class="st22" d="M684.29,224.24l51.05,51.05,7.87-7.87v-5.06l-48.51-48.51-10.41,10.41"/>
  <path id="ID0.23458957020193338" class="st22" d="M673.22,86.3l-51.01-51.01,2.68-2.68,51.01,51.01-2.68,2.68Z"/>
  <path id="ID0.26696112006902695" class="st22" d="M708.9,323.66l34.31,34.17v-5.34l-31.64-31.5-2.67,2.67"/>
  <path id="ID0.29154032189399004" class="st22" d="M643.32,495.54l-2.68-2.68,51.01-51.01,2.68,2.68-51.01,51.01Z"/>
  <path id="ID0.5756808910518885" class="st22" d="M726.76,60.69s0,.14,0,0c.14.14,0,0,0,0h0Z"/>
  <path id="ID0.5160073805600405" class="st22" d="M731.82,70.12c.14,2.39-.7,4.64-2.39,7.03l2.95,2.95c2.53-3.23,3.8-6.61,3.52-10.27,0-1.27-.28-2.39-.7-3.52-3.23-.98-5.91-2.95-7.31-4.36,1.55,1.55,3.8,4.5,3.94,8.16Z"/>
  <path id="ID0.8713974640704691" class="st22" d="M730.98,58.87c-.42-.42-.84-.84-1.12-1.12.14.28.56.7,1.12,1.12Z"/>
  <path id="ID0.12643125467002392" class="st22" d="M729.71,57.74l-.14-.14-1.41,1.41,1.55-1.27Z"/>
  <path id="ID0.15166531410068274" class="st22" d="M726.34,74.05l-9.28,18,18.7-8.72-3.37-3.23-2.95-3.09-3.09-2.95"/>
  <path id="ID0.6498904591426253" class="st22" d="M730.98,58.87c-.56-.56-.98-.98-1.12-1.12l-.14-.14h0l-1.55,1.27-1.55,1.55h0s.14.14.14.28l.14.14c.28.28.56.7,1.12,1.12,1.55,1.41,4.08,3.37,7.31,4.36,1.12.28,2.25.56,3.52.7h.7c1.27,0,2.53-.14,3.66-.56v-4.5c-1.41.56-2.81.84-4.08.7-3.66-.14-6.61-2.25-8.16-3.8Z"/>
  <path id="ID0.593016326893121" class="st22" d="M728.16,59.01l1.41-1.41h.14l-26.72-26.72-2.95,3.09,26.58,26.58h0l1.55-1.55"/>
  <path id="ID0.1088701132684946" class="st22" d="M743.21,57.46v-.14h-.14l.14.14"/>
  <path id="ID0.5154032823629677" class="st22" d="M694.42,379.21l-2.95,2.95c1.69,2.25,2.53,4.64,2.39,7.03-.28,5.34-4.92,9.28-4.92,9.28h0l9.14-9.14c.14-3.52-1.13-6.89-3.66-10.12Z"/>
  <path id="ID0.5937854307703674" class="st22" d="M692.59,400.72h0c-.14,0,0,0,0,0Z"/>
  <path id="ID0.4558535502292216" class="st22" d="M697.65,375.83l-18.56-8.58,9.28,17.86,3.09-2.95,2.95-2.95,3.23-3.37"/>
  <path id="ID0.9474169574677944" class="st22" d="M697.93,389.33l-9.14,9.14-15.89,15.89,3.09,2.95,16.45-16.45.14-.14,17.16-17.16-2.95-2.95-8.86,8.72"/>
  <path id="ID0.26533564645797014" class="st22" d="M706.79,380.61l2.95,2.95,3.09,3.23,9.42-18-18.7,8.58,3.23,3.23"/>
  <path id="ID0.5940071018412709" class="st22" d="M187.19,182.47l2.95,2.95,2.25-2.25v-5.06h4.22v5.06l2.53,2.67,3.09-2.95-7.73-7.73-7.31,7.31"/>
  <path id="ID0.8080326681956649" class="st22" d="M192.39,178.11v37.69h4.22v-37.69h-4.22"/>
  <path id="ID0.4900845726951957" class="st22" d="M241.61,236.89l3.09,3.09,2.11-2.25v-5.06h4.22v5.06l2.67,2.53,2.95-2.95-7.73-7.59-7.31,7.17"/>
  <path id="ID0.9313995740376413" class="st22" d="M246.81,232.68v37.69h4.22v-37.69h-4.22"/>
  <path id="ID0.3099167561158538" class="st22" d="M568.7,63.79l-8.02-8.02-1.55,1.55-19.12-19.12-2.95,2.95,19.12,19.12-3.37,3.37-38.11-47.81-.42-.42-3.23,3.23,40.5,51.05,5.62,5.62,6.89-6.89,11.95,11.95,2.95-2.95-11.95-11.95,1.69-1.69Z"/>
  <path id="ID0.9408982051536441" class="st22" d="M535.23,6.13c-3.94-3.94-6.47-5.2-7.73-3.94l-6.47,6.47c-1.27,1.27,0,3.8,3.94,7.73l51.75,51.75c3.8,3.8,6.47,5.2,7.59,3.94l6.61-6.61c1.27-1.27,0-3.8-3.94-7.73l-51.75-51.61ZM577.42,62.66l-47.11-47.11,4.22-4.22,47.11,47.11-4.22,4.22Z"/>
  <path id="ID0.6515712952241302" class="st4" d="M456.76,439.39c4.08-4.08,4.08-10.69,0-14.91l-25.03-25.03c-4.08-4.08-10.69-4.08-14.91,0l-1.97,1.97,39.8,39.8,2.11-1.83Z"/>
  <path id="ID0.755599177442491" class="st16" d="M412.89,418.3l25.03,25.03c4.08,4.08,10.83,4.08,14.91-.14l1.83-1.83-39.8-39.8-1.83,1.83c-4.22,4.08-4.22,10.83-.14,14.91Z"/>
  <path id="ID0.2783210715278983" class="st24" d="M438.62,413.66l-1.97-6.19,14.91,14.91-2.11,2.11-10.83-10.83"/>
  <path id="ID0.1127717923372984" class="st24" d="M427.09,425.19l-6.19-1.97,14.91,14.91,2.11-2.11-10.83-10.83"/>
  <path id="ID0.11042927904054523" class="st24" d="M418.51,420.83l15.89-15.89,3.52,8.58-10.83,10.83-8.58-3.52"/>
  <path id="ID0.04779583914205432" class="st24" d="M447.2,440.52l6.75-6.75-.28-9.42-15.75,15.75,9.28.42"/>
  <path id="ID0.8961320458911359" class="st24" d="M411.9,404.52l5.91-5.91c.28-.28.84-.28,1.12,0h0c.28.28.28.84,0,1.13l-5.91,5.91c-.42.14-.84.28-1.12,0h0c-.42-.42-.28-.84,0-1.12Z"/>
  <path id="ID0.9723921809345484" class="st24" d="M422.59,399.03c-.7.28-1.12.28-1.69.28-.42-.14-.7-.14-.84-.42-.14-.28.14-.56.42-.84.42-.42.98-.56,1.55-.84.7-.28,1.12-.28,1.69-.28.42.14.7.14.84.42.14.28-.14.56-.42.84-.42.28-.98.7-1.55.84Z"/>
  <path id="ID0.7810433045960963" class="st24" d="M410.5,408.88c.28-.7.42-1.13.84-1.55.42-.42.56-.56.84-.42.28.14.42.42.42.84-.14.42-.14,1.13-.42,1.69-.28.7-.42,1.12-.84,1.55-.42.42-.56.56-.84.42-.28-.14-.42-.42-.42-.84s.14-1.12.42-1.69Z"/>
  <path id="ID0.430691946297884" class="st24" d="M436.93,407.47c-.42-.42-.42-1.13,0-1.41l1.41-1.41c.42-.42,1.13-.42,1.41,0h0c.42.42.42,1.12,0,1.41l-1.41,1.41c-.42.42-.98.42-1.41,0h0Z"/>
  <path id="ID0.38434313191100955" class="st24" d="M418.09,426.31c-.42-.42-.42-1.13,0-1.41l1.41-1.41c.42-.42,1.12-.42,1.41,0h0c.42.42.42,1.12,0,1.41l-1.41,1.41c-.42.42-.98.56-1.41,0h0Z"/>
  <path id="ID0.5946205109357834" class="st24" d="M451.14,441.5c-.14-.14-.14-.42,0-.56l3.23-3.23c.14-.14.42-.14.56,0h0c.14.14.14.42,0,.56l-3.23,3.23c0,.14-.42.14-.56,0h0Z"/>
  <path id="ID0.07256953371688724" class="st24" d="M459.15,433.63c-.14.7-.28,1.13-.42,1.55-.14.42-.42.56-.56.56s-.28-.28-.42-.7c-.14-.42,0-.98.14-1.55.14-.7.28-1.13.42-1.55.14-.42.42-.56.56-.56s.28.28.42.7c0,.28,0,.84-.14,1.55Z"/>
  <path id="ID0.6484085442498326" class="st24" d="M446.92,444.45c.56,0,1.12-.14,1.41,0,.42.14.7.14.7.42s-.14.42-.56.56c-.42.14-.84.28-1.41.42-.7.14-1.13.14-1.55.14-.42-.14-.7-.14-.7-.42,0-.14.14-.42.56-.56.28-.28.84-.56,1.55-.56Z"/>
  <path id="ID0.12918906286358833" class="st25" d="M439.04,453.74l-1.55-1.55,2.95-2.95,1.55,1.55-2.95,2.95Z"/>
  <path id="ID0.44722306448966265" class="st43" d="M178.75,99.08c-1.97,1.97-1.97,5.2,0,7.17l57.51,57.51c1.97,1.97,5.2,1.97,7.17,0l6.61-6.61-64.69-64.69-6.61,6.61Z"/>
  <path id="ID0.901357201859355" class="st45" d="M256.52,143.38l-57.37-57.51c-1.97-1.97-5.2-1.97-7.17,0l-6.61,6.61,64.69,64.69,6.61-6.61c1.97-1.97,1.83-5.2-.14-7.17Z"/>
  <path id="ID0.072569533716887241" data-name="ID0.07256953371688724" class="st24" d="M178.05,102.32c.14-.7.28-1.27.56-1.69.14-.42.42-.56.56-.56s.28.28.42.84c.14.56,0,.98-.14,1.69-.14.7-.28,1.27-.56,1.69-.14.42-.42.56-.56.56s-.28-.28-.42-.84c-.14-.42-.14-.98.14-1.69Z"/>
  <path id="ID0.047795839142054321" data-name="ID0.04779583914205432" class="st24" d="M190.28,90.08l-7.31,7.31-1.27,8.72,17.16-17.16-8.58,1.12"/>
  <path id="ID0.27832107152789831" data-name="ID0.2783210715278983" class="st24" d="M233.59,155.76l3.23,5.62-16.17-16.17,1.12-1.12,11.81,11.67"/>
  <path id="ID0.11277179233729841" data-name="ID0.1127717923372984" class="st24" d="M248.5,140.85l5.62,3.23-16.17-16.17-1.12,1.12,11.67,11.81"/>
  <path id="ID0.110429279040545231" data-name="ID0.11042927904054523" class="st24" d="M255.53,145.49l-17.16,17.16-2.53-8.16,11.67-11.67,8.02,2.67"/>
  <path id="ID0.5550135290250182" class="st24" d="M235.7,128.06l-17.7-17.7,1.19-1.19,17.7,17.7-1.19,1.19Z"/>
  <path id="ID0.6898050247691572" class="st24" d="M219.62,144.23l-17.7-17.7,1.19-1.19,17.7,17.7-1.19,1.19Z"/>
  <path id="ID0.2737843613140285" class="st24" d="M216.65,109.06l-17.7-17.7,1.19-1.19,17.7,17.7-1.19,1.19Z"/>
  <path id="ID0.11654717847704887" class="st24" d="M200.64,125.16l-17.7-17.7,1.19-1.19,17.7,17.7-1.19,1.19Z"/>
  <path id="ID0.13953158911317587" class="st24" d="M199,104.15c.58,0,1.11.24,1.49.62.38.38.62.91.62,1.49s-.24,1.11-.62,1.49c-.38.38-.91.62-1.49.62s-1.11-.24-1.49-.62c-.38-.38-.62-.91-.62-1.49s.24-1.11.62-1.49c.38-.38.91-.62,1.49-.62Z"/>
  <path id="ID0.9931300091557205" class="st24" d="M217.7,122.85c.58,0,1.11.24,1.49.62.38.38.62.91.62,1.49s-.24,1.11-.62,1.49c-.38.38-.91.62-1.49.62s-1.11-.24-1.49-.62c-.38-.38-.62-.91-.62-1.49s.24-1.11.62-1.49c.38-.38.91-.62,1.49-.62Z"/>
  <path id="ID0.7939607677981257" class="st24" d="M236.41,141.55c.58,0,1.11.24,1.49.62.38.38.62.91.62,1.49s-.24,1.11-.62,1.49c-.38.38-.91.62-1.49.62s-1.11-.24-1.49-.62c-.38-.38-.62-.91-.62-1.49s.24-1.11.62-1.49c.38-.38.91-.62,1.49-.62Z"/>
  <path id="ID0.72007498703897" class="st24" d="M255,150.34c.41-.41.84-.73,1.2-.91.36-.18.65-.22.79-.09.14.14.09.43-.09.79-.18.36-.5.79-.91,1.2-.41.41-.84.73-1.2.91-.36.18-.65.22-.79.09-.14-.14-.09-.43.09-.79.18-.36.5-.79.91-1.2Z"/>
  <path id="ID0.335404512938112" class="st24" d="M243.29,162.22c.41-.41.84-.73,1.2-.91.36-.18.65-.22.79-.09s.09.43-.09.79c-.18.36-.5.79-.91,1.2-.41.41-.84.73-1.2.91-.36.18-.65.22-.79.09s-.09-.43.09-.79c.18-.36.5-.79.91-1.2Z"/>
  <path id="ID0.89613204589113591" data-name="ID0.8961320458911359" class="st24" d="M253.28,154.21l-6.33,6.33c-.28.28-.84.28-1.12,0h0c-.28-.28-.28-.84,0-1.12l6.33-6.33c.28-.28.84-.28,1.12,0h0c.42.28.42.7,0,1.12Z"/>
  <path id="ID0.64840854424983261" data-name="ID0.6484085442498326" class="st24" d="M195.06,86.71c-.56.14-1.12.14-1.69.14-.42,0-.7-.14-.7-.28s.14-.42.56-.56c.42-.14.98-.42,1.69-.56.7-.14,1.12-.14,1.55,0,.56.14.84.14.84.42,0,.14-.14.42-.56.56-.42,0-.98.14-1.69.28Z"/>
  <path id="ID0.5174551927484572" class="st1" d="M621.43,108.23c4.5-4.5,5.77-10.41,2.95-13.08l-17.16-17.16c-2.81-2.81-8.72-1.55-13.08,2.95l-2.11,2.11,27.28,27.28,2.11-2.11Z"/>
  <path id="ID0.621414109133184" class="st15" d="M586.84,98.24l17.16,17.16c2.81,2.81,8.72,1.55,13.08-2.95l1.97-1.97-27.28-27.42-1.97,1.97c-4.36,4.5-5.77,10.41-2.95,13.22Z"/>
  <path id="ID0.27832107152789832" data-name="ID0.2783210715278983" class="st24" d="M610.04,88.4l-2.25-6.75,16.17,16.17-2.25,2.25-11.67-11.67"/>
  <path id="ID0.11277179233729842" data-name="ID0.1127717923372984" class="st24" d="M597.53,100.91l-6.75-2.25,16.17,16.17,2.25-2.25-11.67-11.67"/>
  <path id="ID0.110429279040545232" data-name="ID0.11042927904054523" class="st24" d="M588.1,96.13l17.16-17.16,3.8,9.28-11.67,11.67-9.28-3.8"/>
  <path id="ID0.89613204589113592" data-name="ID0.8961320458911359" class="st24" d="M588.95,86.43l6.33-6.33c.28-.28.84-.28,1.12,0h0c.28.28.28.84,0,1.12l-6.33,6.33c-.28.28-.84.28-1.12,0h0c-.42-.42-.28-.84,0-1.12Z"/>
  <path id="ID0.97239218093454841" data-name="ID0.9723921809345484" class="st24" d="M600.48,80.38c-.7.28-1.27.28-1.83.28-.56-.14-.84-.14-.84-.56s.14-.56.56-.84c.42-.42.98-.56,1.69-.84s1.27-.28,1.83-.28c.56.14.84.14.84.56.14.28-.14.56-.56.84-.42.42-.98.84-1.69.84Z"/>
  <path id="ID0.78104330459609631" data-name="ID0.7810433045960963" class="st24" d="M587.4,91.21c.28-.7.56-1.27.84-1.69.28-.42.56-.56.84-.56s.42.42.56.84c-.14.56-.14,1.12-.56,1.83-.42.7-.56,1.27-.84,1.69-.42.42-.56.56-.84.56-.28-.14-.42-.42-.56-.84.14-.42.14-1.12.56-1.83Z"/>
  <path id="ID0.4306919462978841" data-name="ID0.430691946297884" class="st24" d="M608.07,81.79c-.56-.56-.42-1.12,0-1.55l1.55-1.55c.56-.56,1.12-.42,1.55,0h0c.56.56.42,1.12,0,1.55l-1.55,1.55c-.42.42-.98.42-1.55,0h0Z"/>
  <path id="ID0.384343131911009551" data-name="ID0.38434313191100955" class="st24" d="M587.68,102.18c-.56-.56-.42-1.12,0-1.55l1.55-1.55c.56-.56,1.12-.42,1.55,0h0c.56.56.42,1.12,0,1.55l-1.55,1.55c-.42.42-1.13.56-1.55,0h0Z"/>
  <path id="ID0.620577419642359" class="st10" d="M692.45,169.4c1.83-1.83,1.69-4.64,0-6.33l-60.61-60.61c-1.83-1.83-4.64-1.69-6.33,0l-7.03,7.03,67.08,67.08,6.89-7.17Z"/>
  <path id="ID0.3255284954793751" class="st37" d="M611.31,122.71l60.61,60.61c1.83,1.83,4.78,1.83,6.61,0l6.89-6.89-67.08-67.08-6.89,6.89c-1.83,1.83-1.97,4.64-.14,6.47Z"/>
  <path id="ID0.9209238677285612" class="st44" d="M271.56,105.41c1.24,0,2.37.33,3.18.86.81.54,1.32,1.27,1.32,2.09s-.5,1.55-1.32,2.09c-.81.53-1.94.86-3.18.86s-2.37-.33-3.18-.86c-.81-.54-1.32-1.27-1.32-2.09s.5-1.55,1.32-2.09c.81-.53,1.94-.86,3.18-.86Z"/>
  <path id="ID0.45282488549128175" class="st28" d="M271.56,101.48c0,2.81-.98,7.59-2.25,7.59s-2.25-4.78-2.25-7.59.98-2.53,2.25-2.53c1.12,0,2.25-.28,2.25,2.53Z"/>
  <path id="ID0.10968529572710395" class="st27" d="M276.2,101.48c0,2.81-.98,7.59-2.25,7.59s-2.25-4.78-2.25-7.59.98-2.53,2.25-2.53c1.12,0,2.25-.28,2.25,2.53Z"/>
  <path id="ID0.9086349802091718" class="st28" d="M263.83,89.1c0,4.92,3.52,13.92,7.87,14.34v-18.42c-4.36,0-7.87-.98-7.87,4.08Z"/>
  <path id="ID0.2616249886341393" class="st27" d="M280.14,89.1c0-5.06-3.66-4.08-8.16-4.08h-.28v18.42h.28c4.5,0,8.16-9.28,8.16-14.34Z"/>
  <path id="ID0.6283466508612037" class="st46" d="M271.84,99.51h0c-.42,0-.7-.28-.7-.7v-4.5c0-.42.28-.7.7-.7h0c.42,0,.7.28.7.7v4.5c0,.42-.42.7-.7.7Z"/>
  <path id="ID0.19335126085206866" class="st36" d="M278.45,86.01c0-3.37-2.95-6.19-6.61-6.19s-6.61,2.81-6.61,6.19c0,3.09,2.39,5.62,5.34,6.05v.14c0,.84.56,1.41,1.12,1.41s1.12-.7,1.12-1.41v-.14c3.23-.42,5.62-2.95,5.62-6.05Z"/>
  <path id="ID0.35699908761307597" class="st36" d="M265.8,95.99c.39,0,.74.19.99.49.25.31.41.73.41,1.19s-.16.89-.41,1.19c-.25.31-.61.49-.99.49s-.74-.19-.99-.49c-.25-.31-.41-.73-.41-1.19s.16-.89.41-1.19c.25-.31.61-.49.99-.49Z"/>
  <path id="ID0.6324343467131257" class="st36" d="M278.03,95.99c.39,0,.74.19.99.49.25.31.41.73.41,1.19s-.16.89-.41,1.19c-.25.31-.61.49-.99.49s-.74-.19-.99-.49c-.25-.31-.41-.73-.41-1.19s.16-.89.41-1.19c.25-.31.61-.49.99-.49Z"/>
  <path id="ID0.7076939158141613" class="st8" d="M277.89,80.66c-4.92.98-9.98,1.41-14.77,1.55l.98,1.12-3.23.14,9.28,4.36,6.75-.98,2.11-2.25-.7-3.37-.42-.56Z"/>
  <path id="ID0.9549179952591658" class="st35" d="M276.34,78.98l-11.11-2.25,1.27,2.95-5.06.7,1.69,1.97c4.78-.14,9.84-.7,14.77-1.55l-1.55-1.83Z"/>
</svg>