<?xml version="1.0" encoding="utf-8"?>
<!-- Generator: Adobe Illustrator 17.1.0, SVG Export Plug-In . SVG Version: 6.00 Build 0)  -->
<!DOCTYPE svg PUBLIC "-//W3C//DTD SVG 1.1//EN" "http://www.w3.org/Graphics/SVG/1.1/DTD/svg11.dtd">
<svg version="1.1" id="レイヤー_1" xmlns="http://www.w3.org/2000/svg" xmlns:xlink="http://www.w3.org/1999/xlink" x="0px"
	 y="0px" viewBox="0 0 800 494" enable-background="new 0 0 800 494" xml:space="preserve">
<g id="ID0.08962889574468136">
	
		<radialGradient id="ID0.6642124829813838_1_" cx="227.1238" cy="646.5799" r="1.3105" gradientTransform="matrix(790.2834 0 0 -291 -178695.5156 188408.8281)" gradientUnits="userSpaceOnUse">
		<stop  offset="0" style="stop-color:#945924"/>
		<stop  offset="1" style="stop-color:#1C2A52"/>
	</radialGradient>
	<path id="ID0.6642124829813838" fill="url(#ID0.6642124829813838_1_)" d="M0,0h800v294.6H0V0z"/>
	
		<radialGradient id="ID0.4785624351352453_1_" cx="226.1578" cy="642.2993" r="1.2612" gradientTransform="matrix(790.2834 0 0 -59.6 -178695.5156 38551.3242)" gradientUnits="userSpaceOnUse">
		<stop  offset="0" style="stop-color:#006464"/>
		<stop  offset="1" style="stop-color:#5F1E4B"/>
	</radialGradient>
	<path id="ID0.4785624351352453" fill="url(#ID0.4785624351352453_1_)" d="M398.8,293.1c153,0,293,4.9,401.2,12.8v-47.6
		c-108.2-8-248.2-12.8-401.2-12.8c-152,0-291,4.8-398.8,12.7v47.6C107.8,297.8,247,293.1,398.8,293.1z"/>
	<path id="ID0.510279668495059" fill="#172349" d="M398.8,282.4c-152,0-291,5.3-398.8,14.1v39v49.2h800v-49.3v-38.7
		C691.8,287.8,551.8,282.4,398.8,282.4z"/>
</g>
<path id="ID0.07754173967987299" fill="#172349" stroke="#172349" stroke-width="2" d="M0,362.4h800V494H0V362.4z"/>
<polygon points="433.9,494 366.1,494 366.1,410.6 433.9,435 "/>
<path id="ID0.4312800830230117" fill="#0C9393" d="M433.9,431.2l-66.5-24.4l-1.4,3.8l66.5,24.4L433.9,431.2z"/>
<path id="ID0.5325270681641996" fill="#0C9393" d="M400.1,421.1c-1.5,0-2.8,0.6-3.8,1.6c-1,1-1.6,2.3-1.6,3.8s0.6,2.8,1.6,3.8
	s2.3,1.6,3.8,1.6s2.8-0.6,3.8-1.6c1-1,1.6-2.3,1.6-3.8s-0.6-2.8-1.6-3.8C402.9,421.7,401.6,421.1,400.1,421.1z"/>
<g>
	<rect x="276.2" y="213.8" fill="#1D2A75" width="2.2" height="11.7"/>
	<rect x="280.5" y="213.8" fill="#1D2A75" width="2.2" height="11.7"/>
	<rect x="276.2" y="206.1" fill="#1D2A75" width="6.5" height="11.7"/>
	<rect x="277.3" y="200.4" fill="#EBA116" width="4.1" height="4.1"/>
	<rect x="282.7" y="206.1" fill="#EBA116" width="10" height="1.6"/>
	<rect x="266.2" y="206.1" fill="#EBA116" width="10" height="1.6"/>
</g>
<polygon fill="#FFFFFF" points="379.1,173.7 381.7,178.5 386.4,181.1 381.7,183.7 379.1,188.4 376.5,183.7 371.7,181.1 376.5,178.5 
	"/>
<polygon fill="#FFFFFF" points="449.4,219 452,223.8 456.7,226.4 452,229 449.4,233.7 446.8,229 442,226.4 446.8,223.8 "/>
<polygon fill="#FFFFFF" points="349.4,199 352,203.8 356.7,206.4 352,209 349.4,213.7 346.8,209 342,206.4 346.8,203.8 "/>
<g id="ID0.5846970123238862">
	<path id="ID0.00692162336781621" fill="#66C5DC" d="M79.5,26.7c-1,0-9.1,0.5-9.1,9.1c0,9.1,9.1,12.1,9.1,12.1s9.1-3,9.1-12.1
		C88.6,27.2,80.4,26.7,79.5,26.7z"/>
	<path id="ID0.6573149715550244" fill="#FFFFFF" d="M76.7,30c0.6,0,1.2,0.2,1.6,0.6c0.4,0.4,0.6,0.9,0.6,1.6c0,0.6-0.2,1.2-0.6,1.6
		c-0.4,0.4-0.9,0.6-1.6,0.6c-0.6,0-1.2-0.2-1.6-0.6c-0.4-0.4-0.6-0.9-0.6-1.6c0-0.6,0.2-1.2,0.6-1.6C75.6,30.2,76.1,30,76.7,30z"/>
</g>
<g id="ID0.5846970123238862_1_">
	<path id="ID0.00692162336781621_1_" fill="#66C5DC" d="M119.5,26.7c-1,0-9.1,0.5-9.1,9.1c0,9.1,9.1,12.1,9.1,12.1s9.1-3,9.1-12.1
		C128.6,27.2,120.4,26.7,119.5,26.7z"/>
	<path id="ID0.6573149715550244_1_" fill="#FFFFFF" d="M116.7,30c0.6,0,1.2,0.2,1.6,0.6c0.4,0.4,0.6,0.9,0.6,1.6
		c0,0.6-0.2,1.2-0.6,1.6c-0.4,0.4-0.9,0.6-1.6,0.6c-0.6,0-1.2-0.2-1.6-0.6c-0.4-0.4-0.6-0.9-0.6-1.6c0-0.6,0.2-1.2,0.6-1.6
		C115.6,30.2,116.1,30,116.7,30z"/>
</g>
<g id="ID0.5846970123238862_3_">
	<path id="ID0.00692162336781621_3_" fill="#66C5DC" d="M160.5,26.7c-1,0-9.1,0.5-9.1,9.1c0,9.1,9.1,12.1,9.1,12.1s9.1-3,9.1-12.1
		C169.6,27.2,161.4,26.7,160.5,26.7z"/>
	<path id="ID0.6573149715550244_3_" fill="#FFFFFF" d="M157.7,30c0.6,0,1.2,0.2,1.6,0.6c0.4,0.4,0.6,0.9,0.6,1.6
		c0,0.6-0.2,1.2-0.6,1.6c-0.4,0.4-0.9,0.6-1.6,0.6s-1.2-0.2-1.6-0.6c-0.4-0.4-0.6-0.9-0.6-1.6c0-0.6,0.2-1.2,0.6-1.6
		C156.6,30.2,157.1,30,157.7,30z"/>
</g>
<g id="ID0.5846970123238862_2_">
	<path id="ID0.00692162336781621_2_" fill="#66C5DC" d="M200.5,26.7c-1,0-9.1,0.5-9.1,9.1c0,9.1,9.1,12.1,9.1,12.1s9.1-3,9.1-12.1
		C209.6,27.2,201.4,26.7,200.5,26.7z"/>
	<path id="ID0.6573149715550244_2_" fill="#FFFFFF" d="M197.7,30c0.6,0,1.2,0.2,1.6,0.6c0.4,0.4,0.6,0.9,0.6,1.6
		c0,0.6-0.2,1.2-0.6,1.6c-0.4,0.4-0.9,0.6-1.6,0.6s-1.2-0.2-1.6-0.6c-0.4-0.4-0.6-0.9-0.6-1.6c0-0.6,0.2-1.2,0.6-1.6
		C196.6,30.2,197.1,30,197.7,30z"/>
</g>
<g id="ID0.5846970123238862_5_">
	<path id="ID0.00692162336781621_5_" fill="#66C5DC" d="M240.5,26.7c-1,0-9.1,0.5-9.1,9.1c0,9.1,9.1,12.1,9.1,12.1s9.1-3,9.1-12.1
		C249.6,27.2,241.4,26.7,240.5,26.7z"/>
	<path id="ID0.6573149715550244_5_" fill="#FFFFFF" d="M237.7,30c0.6,0,1.2,0.2,1.6,0.6c0.4,0.4,0.6,0.9,0.6,1.6
		c0,0.6-0.2,1.2-0.6,1.6c-0.4,0.4-0.9,0.6-1.6,0.6s-1.2-0.2-1.6-0.6c-0.4-0.4-0.6-0.9-0.6-1.6c0-0.6,0.2-1.2,0.6-1.6
		C236.6,30.2,237.1,30,237.7,30z"/>
</g>
<g id="ID0.5846970123238862_4_">
	<path id="ID0.00692162336781621_4_" fill="#66C5DC" d="M280.5,26.7c-1,0-9.1,0.5-9.1,9.1c0,9.1,9.1,12.1,9.1,12.1s9.1-3,9.1-12.1
		C289.6,27.2,281.4,26.7,280.5,26.7z"/>
	<path id="ID0.6573149715550244_4_" fill="#FFFFFF" d="M277.7,30c0.6,0,1.2,0.2,1.6,0.6c0.4,0.4,0.6,0.9,0.6,1.6
		c0,0.6-0.2,1.2-0.6,1.6c-0.4,0.4-0.9,0.6-1.6,0.6c-0.6,0-1.2-0.2-1.6-0.6c-0.4-0.4-0.6-0.9-0.6-1.6c0-0.6,0.2-1.2,0.6-1.6
		C276.6,30.2,277.1,30,277.7,30z"/>
</g>
<g id="ID0.5846970123238862_7_">
	<path id="ID0.00692162336781621_7_" fill="#66C5DC" d="M320.5,26.7c-1,0-9.1,0.5-9.1,9.1c0,9.1,9.1,12.1,9.1,12.1s9.1-3,9.1-12.1
		C329.6,27.2,321.4,26.7,320.5,26.7z"/>
	<path id="ID0.6573149715550244_7_" fill="#FFFFFF" d="M317.7,30c0.6,0,1.2,0.2,1.6,0.6c0.4,0.4,0.6,0.9,0.6,1.6
		c0,0.6-0.2,1.2-0.6,1.6c-0.4,0.4-0.9,0.6-1.6,0.6c-0.6,0-1.2-0.2-1.6-0.6c-0.4-0.4-0.6-0.9-0.6-1.6c0-0.6,0.2-1.2,0.6-1.6
		C316.6,30.2,317.1,30,317.7,30z"/>
</g>
<g id="ID0.5846970123238862_6_">
	<path id="ID0.00692162336781621_6_" fill="#66C5DC" d="M360.5,26.7c-1,0-9.1,0.5-9.1,9.1c0,9.1,9.1,12.1,9.1,12.1s9.1-3,9.1-12.1
		C369.6,27.2,361.4,26.7,360.5,26.7z"/>
	<path id="ID0.6573149715550244_6_" fill="#FFFFFF" d="M357.7,30c0.6,0,1.2,0.2,1.6,0.6c0.4,0.4,0.6,0.9,0.6,1.6
		c0,0.6-0.2,1.2-0.6,1.6c-0.4,0.4-0.9,0.6-1.6,0.6c-0.6,0-1.2-0.2-1.6-0.6c-0.4-0.4-0.6-0.9-0.6-1.6c0-0.6,0.2-1.2,0.6-1.6
		C356.6,30.2,357.1,30,357.7,30z"/>
</g>
<g id="ID0.5846970123238862_9_">
	<path id="ID0.00692162336781621_9_" fill="#66C5DC" d="M400.5,26.7c-1,0-9.1,0.5-9.1,9.1c0,9.1,9.1,12.1,9.1,12.1s9.1-3,9.1-12.1
		C409.6,27.2,401.4,26.7,400.5,26.7z"/>
	<path id="ID0.6573149715550244_9_" fill="#FFFFFF" d="M397.7,30c0.6,0,1.2,0.2,1.6,0.6c0.4,0.4,0.6,0.9,0.6,1.6
		c0,0.6-0.2,1.2-0.6,1.6c-0.4,0.4-0.9,0.6-1.6,0.6c-0.6,0-1.2-0.2-1.6-0.6c-0.4-0.4-0.6-0.9-0.6-1.6c0-0.6,0.2-1.2,0.6-1.6
		C396.6,30.2,397.1,30,397.7,30z"/>
</g>
<g id="ID0.5846970123238862_8_">
	<path id="ID0.00692162336781621_8_" fill="#66C5DC" d="M440.5,26.7c-1,0-9.1,0.5-9.1,9.1c0,9.1,9.1,12.1,9.1,12.1s9.1-3,9.1-12.1
		C449.6,27.2,441.4,26.7,440.5,26.7z"/>
	<path id="ID0.6573149715550244_8_" fill="#FFFFFF" d="M437.7,30c0.6,0,1.2,0.2,1.6,0.6c0.4,0.4,0.6,0.9,0.6,1.6
		c0,0.6-0.2,1.2-0.6,1.6c-0.4,0.4-0.9,0.6-1.6,0.6c-0.6,0-1.2-0.2-1.6-0.6c-0.4-0.4-0.6-0.9-0.6-1.6c0-0.6,0.2-1.2,0.6-1.6
		C436.6,30.2,437.1,30,437.7,30z"/>
</g>
<g id="ID0.5846970123238862_11_">
	<path id="ID0.00692162336781621_11_" fill="#66C5DC" d="M480.5,26.7c-1,0-9.1,0.5-9.1,9.1c0,9.1,9.1,12.1,9.1,12.1s9.1-3,9.1-12.1
		C489.6,27.2,481.4,26.7,480.5,26.7z"/>
	<path id="ID0.6573149715550244_11_" fill="#FFFFFF" d="M477.7,30c0.6,0,1.2,0.2,1.6,0.6c0.4,0.4,0.6,0.9,0.6,1.6
		c0,0.6-0.2,1.2-0.6,1.6c-0.4,0.4-0.9,0.6-1.6,0.6c-0.6,0-1.2-0.2-1.6-0.6c-0.4-0.4-0.6-0.9-0.6-1.6c0-0.6,0.2-1.2,0.6-1.6
		C476.6,30.2,477.1,30,477.7,30z"/>
</g>
<g id="ID0.5846970123238862_10_">
	<path id="ID0.00692162336781621_10_" fill="#66C5DC" d="M520.5,26.7c-1,0-9.1,0.5-9.1,9.1c0,9.1,9.1,12.1,9.1,12.1s9.1-3,9.1-12.1
		C529.6,27.2,521.4,26.7,520.5,26.7z"/>
	<path id="ID0.6573149715550244_10_" fill="#FFFFFF" d="M517.7,30c0.6,0,1.2,0.2,1.6,0.6s0.6,0.9,0.6,1.6c0,0.6-0.2,1.2-0.6,1.6
		s-0.9,0.6-1.6,0.6s-1.2-0.2-1.6-0.6c-0.4-0.4-0.6-0.9-0.6-1.6c0-0.6,0.2-1.2,0.6-1.6C516.6,30.2,517.1,30,517.7,30z"/>
</g>
<g id="ID0.5846970123238862_13_">
	<path id="ID0.00692162336781621_13_" fill="#66C5DC" d="M560.5,26.7c-1,0-9.1,0.5-9.1,9.1c0,9.1,9.1,12.1,9.1,12.1s9.1-3,9.1-12.1
		C569.6,27.2,561.4,26.7,560.5,26.7z"/>
	<path id="ID0.6573149715550244_13_" fill="#FFFFFF" d="M557.7,30c0.6,0,1.2,0.2,1.6,0.6s0.6,0.9,0.6,1.6c0,0.6-0.2,1.2-0.6,1.6
		s-0.9,0.6-1.6,0.6s-1.2-0.2-1.6-0.6c-0.4-0.4-0.6-0.9-0.6-1.6c0-0.6,0.2-1.2,0.6-1.6C556.6,30.2,557.1,30,557.7,30z"/>
</g>
<g id="ID0.5846970123238862_12_">
	<path id="ID0.00692162336781621_12_" fill="#66C5DC" d="M600.5,26.7c-1,0-9.1,0.5-9.1,9.1c0,9.1,9.1,12.1,9.1,12.1s9.1-3,9.1-12.1
		C609.6,27.2,601.4,26.7,600.5,26.7z"/>
	<path id="ID0.6573149715550244_12_" fill="#FFFFFF" d="M597.7,30c0.6,0,1.2,0.2,1.6,0.6s0.6,0.9,0.6,1.6c0,0.6-0.2,1.2-0.6,1.6
		s-0.9,0.6-1.6,0.6s-1.2-0.2-1.6-0.6c-0.4-0.4-0.6-0.9-0.6-1.6c0-0.6,0.2-1.2,0.6-1.6C596.6,30.2,597.1,30,597.7,30z"/>
</g>
<g id="ID0.5846970123238862_15_">
	<path id="ID0.00692162336781621_15_" fill="#66C5DC" d="M640.5,26.7c-1,0-9.1,0.5-9.1,9.1c0,9.1,9.1,12.1,9.1,12.1s9.1-3,9.1-12.1
		C649.6,27.2,641.4,26.7,640.5,26.7z"/>
	<path id="ID0.6573149715550244_15_" fill="#FFFFFF" d="M637.7,30c0.6,0,1.2,0.2,1.6,0.6s0.6,0.9,0.6,1.6c0,0.6-0.2,1.2-0.6,1.6
		s-0.9,0.6-1.6,0.6s-1.2-0.2-1.6-0.6c-0.4-0.4-0.6-0.9-0.6-1.6c0-0.6,0.2-1.2,0.6-1.6C636.6,30.2,637.1,30,637.7,30z"/>
</g>
<g id="ID0.5846970123238862_14_">
	<path id="ID0.00692162336781621_14_" fill="#66C5DC" d="M680.5,26.7c-1,0-9.1,0.5-9.1,9.1c0,9.1,9.1,12.1,9.1,12.1s9.1-3,9.1-12.1
		C689.6,27.2,681.4,26.7,680.5,26.7z"/>
	<path id="ID0.6573149715550244_14_" fill="#FFFFFF" d="M677.7,30c0.6,0,1.2,0.2,1.6,0.6s0.6,0.9,0.6,1.6c0,0.6-0.2,1.2-0.6,1.6
		s-0.9,0.6-1.6,0.6s-1.2-0.2-1.6-0.6c-0.4-0.4-0.6-0.9-0.6-1.6c0-0.6,0.2-1.2,0.6-1.6C676.6,30.2,677.1,30,677.7,30z"/>
</g>
<g id="ID0.5846970123238862_17_">
	<path id="ID0.00692162336781621_17_" fill="#66C5DC" d="M720.5,26.7c-1,0-9.1,0.5-9.1,9.1c0,9.1,9.1,12.1,9.1,12.1s9.1-3,9.1-12.1
		C729.6,27.2,721.4,26.7,720.5,26.7z"/>
	<path id="ID0.6573149715550244_17_" fill="#FFFFFF" d="M717.7,30c0.6,0,1.2,0.2,1.6,0.6s0.6,0.9,0.6,1.6c0,0.6-0.2,1.2-0.6,1.6
		s-0.9,0.6-1.6,0.6s-1.2-0.2-1.6-0.6c-0.4-0.4-0.6-0.9-0.6-1.6c0-0.6,0.2-1.2,0.6-1.6C716.6,30.2,717.1,30,717.7,30z"/>
</g>
<g id="ID0.5846970123238862_16_">
	<path id="ID0.00692162336781621_16_" fill="#66C5DC" d="M760.5,26.7c-1,0-9.1,0.5-9.1,9.1c0,9.1,9.1,12.1,9.1,12.1s9.1-3,9.1-12.1
		C769.6,27.2,761.4,26.7,760.5,26.7z"/>
	<path id="ID0.6573149715550244_16_" fill="#FFFFFF" d="M757.7,30c0.6,0,1.2,0.2,1.6,0.6s0.6,0.9,0.6,1.6c0,0.6-0.2,1.2-0.6,1.6
		s-0.9,0.6-1.6,0.6s-1.2-0.2-1.6-0.6c-0.4-0.4-0.6-0.9-0.6-1.6c0-0.6,0.2-1.2,0.6-1.6C756.6,30.2,757.1,30,757.7,30z"/>
</g>
<g id="ID0.5846970123238862_35_">
	<path id="ID0.00692162336781621_35_" fill="#EC621A" d="M59.5,56.7c-1,0-9.1,0.5-9.1,9.1c0,9.1,9.1,12.1,9.1,12.1s9.1-3,9.1-12.1
		C68.6,57.2,60.4,56.7,59.5,56.7z"/>
	<path id="ID0.6573149715550244_35_" fill="#FFFFFF" d="M56.7,60c0.6,0,1.2,0.2,1.6,0.6c0.4,0.4,0.6,0.9,0.6,1.6s-0.2,1.2-0.6,1.6
		c-0.4,0.4-0.9,0.6-1.6,0.6c-0.6,0-1.2-0.2-1.6-0.6c-0.4-0.4-0.6-0.9-0.6-1.6s0.2-1.2,0.6-1.6C55.6,60.2,56.1,60,56.7,60z"/>
</g>
<g id="ID0.5846970123238862_34_">
	<path id="ID0.00692162336781621_34_" fill="#EC621A" d="M99.5,56.7c-1,0-9.1,0.5-9.1,9.1c0,9.1,9.1,12.1,9.1,12.1s9.1-3,9.1-12.1
		C108.6,57.2,100.4,56.7,99.5,56.7z"/>
	<path id="ID0.6573149715550244_34_" fill="#FFFFFF" d="M96.7,60c0.6,0,1.2,0.2,1.6,0.6c0.4,0.4,0.6,0.9,0.6,1.6s-0.2,1.2-0.6,1.6
		c-0.4,0.4-0.9,0.6-1.6,0.6c-0.6,0-1.2-0.2-1.6-0.6c-0.4-0.4-0.6-0.9-0.6-1.6s0.2-1.2,0.6-1.6C95.6,60.2,96.1,60,96.7,60z"/>
</g>
<g id="ID0.5846970123238862_33_">
	<path id="ID0.00692162336781621_33_" fill="#EC621A" d="M140.5,56.7c-1,0-9.1,0.5-9.1,9.1c0,9.1,9.1,12.1,9.1,12.1s9.1-3,9.1-12.1
		C149.6,57.2,141.4,56.7,140.5,56.7z"/>
	<path id="ID0.6573149715550244_33_" fill="#FFFFFF" d="M137.7,60c0.6,0,1.2,0.2,1.6,0.6c0.4,0.4,0.6,0.9,0.6,1.6s-0.2,1.2-0.6,1.6
		c-0.4,0.4-0.9,0.6-1.6,0.6s-1.2-0.2-1.6-0.6c-0.4-0.4-0.6-0.9-0.6-1.6s0.2-1.2,0.6-1.6C136.6,60.2,137.1,60,137.7,60z"/>
</g>
<g id="ID0.5846970123238862_32_">
	<path id="ID0.00692162336781621_32_" fill="#EC621A" d="M180.5,56.7c-1,0-9.1,0.5-9.1,9.1c0,9.1,9.1,12.1,9.1,12.1s9.1-3,9.1-12.1
		C189.6,57.2,181.4,56.7,180.5,56.7z"/>
	<path id="ID0.6573149715550244_32_" fill="#FFFFFF" d="M177.7,60c0.6,0,1.2,0.2,1.6,0.6c0.4,0.4,0.6,0.9,0.6,1.6s-0.2,1.2-0.6,1.6
		c-0.4,0.4-0.9,0.6-1.6,0.6s-1.2-0.2-1.6-0.6c-0.4-0.4-0.6-0.9-0.6-1.6s0.2-1.2,0.6-1.6C176.6,60.2,177.1,60,177.7,60z"/>
</g>
<g id="ID0.5846970123238862_31_">
	<path id="ID0.00692162336781621_31_" fill="#EC621A" d="M220.5,56.7c-1,0-9.1,0.5-9.1,9.1c0,9.1,9.1,12.1,9.1,12.1s9.1-3,9.1-12.1
		C229.6,57.2,221.4,56.7,220.5,56.7z"/>
	<path id="ID0.6573149715550244_31_" fill="#FFFFFF" d="M217.7,60c0.6,0,1.2,0.2,1.6,0.6c0.4,0.4,0.6,0.9,0.6,1.6s-0.2,1.2-0.6,1.6
		c-0.4,0.4-0.9,0.6-1.6,0.6s-1.2-0.2-1.6-0.6c-0.4-0.4-0.6-0.9-0.6-1.6s0.2-1.2,0.6-1.6C216.6,60.2,217.1,60,217.7,60z"/>
</g>
<g id="ID0.5846970123238862_30_">
	<path id="ID0.00692162336781621_30_" fill="#EC621A" d="M260.5,56.7c-1,0-9.1,0.5-9.1,9.1c0,9.1,9.1,12.1,9.1,12.1s9.1-3,9.1-12.1
		C269.6,57.2,261.4,56.7,260.5,56.7z"/>
	<path id="ID0.6573149715550244_30_" fill="#FFFFFF" d="M257.7,60c0.6,0,1.2,0.2,1.6,0.6c0.4,0.4,0.6,0.9,0.6,1.6s-0.2,1.2-0.6,1.6
		c-0.4,0.4-0.9,0.6-1.6,0.6c-0.6,0-1.2-0.2-1.6-0.6c-0.4-0.4-0.6-0.9-0.6-1.6s0.2-1.2,0.6-1.6C256.6,60.2,257.1,60,257.7,60z"/>
</g>
<g id="ID0.5846970123238862_29_">
	<path id="ID0.00692162336781621_29_" fill="#EC621A" d="M300.5,56.7c-1,0-9.1,0.5-9.1,9.1c0,9.1,9.1,12.1,9.1,12.1s9.1-3,9.1-12.1
		C309.6,57.2,301.4,56.7,300.5,56.7z"/>
	<path id="ID0.6573149715550244_29_" fill="#FFFFFF" d="M297.7,60c0.6,0,1.2,0.2,1.6,0.6c0.4,0.4,0.6,0.9,0.6,1.6s-0.2,1.2-0.6,1.6
		c-0.4,0.4-0.9,0.6-1.6,0.6c-0.6,0-1.2-0.2-1.6-0.6c-0.4-0.4-0.6-0.9-0.6-1.6s0.2-1.2,0.6-1.6C296.6,60.2,297.1,60,297.7,60z"/>
</g>
<g id="ID0.5846970123238862_28_">
	<path id="ID0.00692162336781621_28_" fill="#EC621A" d="M340.5,56.7c-1,0-9.1,0.5-9.1,9.1c0,9.1,9.1,12.1,9.1,12.1s9.1-3,9.1-12.1
		C349.6,57.2,341.4,56.7,340.5,56.7z"/>
	<path id="ID0.6573149715550244_28_" fill="#FFFFFF" d="M337.7,60c0.6,0,1.2,0.2,1.6,0.6c0.4,0.4,0.6,0.9,0.6,1.6s-0.2,1.2-0.6,1.6
		c-0.4,0.4-0.9,0.6-1.6,0.6c-0.6,0-1.2-0.2-1.6-0.6c-0.4-0.4-0.6-0.9-0.6-1.6s0.2-1.2,0.6-1.6C336.6,60.2,337.1,60,337.7,60z"/>
</g>
<g id="ID0.5846970123238862_27_">
	<path id="ID0.00692162336781621_27_" fill="#EC621A" d="M380.5,56.7c-1,0-9.1,0.5-9.1,9.1c0,9.1,9.1,12.1,9.1,12.1s9.1-3,9.1-12.1
		C389.6,57.2,381.4,56.7,380.5,56.7z"/>
	<path id="ID0.6573149715550244_27_" fill="#FFFFFF" d="M377.7,60c0.6,0,1.2,0.2,1.6,0.6c0.4,0.4,0.6,0.9,0.6,1.6s-0.2,1.2-0.6,1.6
		c-0.4,0.4-0.9,0.6-1.6,0.6c-0.6,0-1.2-0.2-1.6-0.6c-0.4-0.4-0.6-0.9-0.6-1.6s0.2-1.2,0.6-1.6C376.6,60.2,377.1,60,377.7,60z"/>
</g>
<g id="ID0.5846970123238862_26_">
	<path id="ID0.00692162336781621_26_" fill="#EC621A" d="M420.5,56.7c-1,0-9.1,0.5-9.1,9.1c0,9.1,9.1,12.1,9.1,12.1s9.1-3,9.1-12.1
		C429.6,57.2,421.4,56.7,420.5,56.7z"/>
	<path id="ID0.6573149715550244_26_" fill="#FFFFFF" d="M417.7,60c0.6,0,1.2,0.2,1.6,0.6c0.4,0.4,0.6,0.9,0.6,1.6s-0.2,1.2-0.6,1.6
		c-0.4,0.4-0.9,0.6-1.6,0.6c-0.6,0-1.2-0.2-1.6-0.6c-0.4-0.4-0.6-0.9-0.6-1.6s0.2-1.2,0.6-1.6C416.6,60.2,417.1,60,417.7,60z"/>
</g>
<g id="ID0.5846970123238862_25_">
	<path id="ID0.00692162336781621_25_" fill="#EC621A" d="M460.5,56.7c-1,0-9.1,0.5-9.1,9.1c0,9.1,9.1,12.1,9.1,12.1s9.1-3,9.1-12.1
		C469.6,57.2,461.4,56.7,460.5,56.7z"/>
	<path id="ID0.6573149715550244_25_" fill="#FFFFFF" d="M457.7,60c0.6,0,1.2,0.2,1.6,0.6c0.4,0.4,0.6,0.9,0.6,1.6s-0.2,1.2-0.6,1.6
		c-0.4,0.4-0.9,0.6-1.6,0.6c-0.6,0-1.2-0.2-1.6-0.6c-0.4-0.4-0.6-0.9-0.6-1.6s0.2-1.2,0.6-1.6C456.6,60.2,457.1,60,457.7,60z"/>
</g>
<g id="ID0.5846970123238862_24_">
	<path id="ID0.00692162336781621_24_" fill="#EC621A" d="M500.5,56.7c-1,0-9.1,0.5-9.1,9.1c0,9.1,9.1,12.1,9.1,12.1s9.1-3,9.1-12.1
		C509.6,57.2,501.4,56.7,500.5,56.7z"/>
	<path id="ID0.6573149715550244_24_" fill="#FFFFFF" d="M497.7,60c0.6,0,1.2,0.2,1.6,0.6c0.4,0.4,0.6,0.9,0.6,1.6s-0.2,1.2-0.6,1.6
		c-0.4,0.4-0.9,0.6-1.6,0.6c-0.6,0-1.2-0.2-1.6-0.6c-0.4-0.4-0.6-0.9-0.6-1.6s0.2-1.2,0.6-1.6C496.6,60.2,497.1,60,497.7,60z"/>
</g>
<g id="ID0.5846970123238862_23_">
	<path id="ID0.00692162336781621_23_" fill="#EC621A" d="M540.5,56.7c-1,0-9.1,0.5-9.1,9.1c0,9.1,9.1,12.1,9.1,12.1s9.1-3,9.1-12.1
		C549.6,57.2,541.4,56.7,540.5,56.7z"/>
	<path id="ID0.6573149715550244_23_" fill="#FFFFFF" d="M537.7,60c0.6,0,1.2,0.2,1.6,0.6s0.6,0.9,0.6,1.6s-0.2,1.2-0.6,1.6
		c-0.4,0.4-0.9,0.6-1.6,0.6s-1.2-0.2-1.6-0.6c-0.4-0.4-0.6-0.9-0.6-1.6s0.2-1.2,0.6-1.6C536.6,60.2,537.1,60,537.7,60z"/>
</g>
<g id="ID0.5846970123238862_22_">
	<path id="ID0.00692162336781621_22_" fill="#EC621A" d="M580.5,56.7c-1,0-9.1,0.5-9.1,9.1c0,9.1,9.1,12.1,9.1,12.1s9.1-3,9.1-12.1
		C589.6,57.2,581.4,56.7,580.5,56.7z"/>
	<path id="ID0.6573149715550244_22_" fill="#FFFFFF" d="M577.7,60c0.6,0,1.2,0.2,1.6,0.6s0.6,0.9,0.6,1.6s-0.2,1.2-0.6,1.6
		c-0.4,0.4-0.9,0.6-1.6,0.6s-1.2-0.2-1.6-0.6c-0.4-0.4-0.6-0.9-0.6-1.6s0.2-1.2,0.6-1.6C576.6,60.2,577.1,60,577.7,60z"/>
</g>
<g id="ID0.5846970123238862_21_">
	<path id="ID0.00692162336781621_21_" fill="#EC621A" d="M620.5,56.7c-1,0-9.1,0.5-9.1,9.1c0,9.1,9.1,12.1,9.1,12.1s9.1-3,9.1-12.1
		C629.6,57.2,621.4,56.7,620.5,56.7z"/>
	<path id="ID0.6573149715550244_21_" fill="#FFFFFF" d="M617.7,60c0.6,0,1.2,0.2,1.6,0.6s0.6,0.9,0.6,1.6s-0.2,1.2-0.6,1.6
		c-0.4,0.4-0.9,0.6-1.6,0.6s-1.2-0.2-1.6-0.6c-0.4-0.4-0.6-0.9-0.6-1.6s0.2-1.2,0.6-1.6C616.6,60.2,617.1,60,617.7,60z"/>
</g>
<g id="ID0.5846970123238862_20_">
	<path id="ID0.00692162336781621_20_" fill="#EC621A" d="M660.5,56.7c-1,0-9.1,0.5-9.1,9.1c0,9.1,9.1,12.1,9.1,12.1s9.1-3,9.1-12.1
		C669.6,57.2,661.4,56.7,660.5,56.7z"/>
	<path id="ID0.6573149715550244_20_" fill="#FFFFFF" d="M657.7,60c0.6,0,1.2,0.2,1.6,0.6s0.6,0.9,0.6,1.6s-0.2,1.2-0.6,1.6
		c-0.4,0.4-0.9,0.6-1.6,0.6s-1.2-0.2-1.6-0.6c-0.4-0.4-0.6-0.9-0.6-1.6s0.2-1.2,0.6-1.6C656.6,60.2,657.1,60,657.7,60z"/>
</g>
<g id="ID0.5846970123238862_19_">
	<path id="ID0.00692162336781621_19_" fill="#EC621A" d="M700.5,56.7c-1,0-9.1,0.5-9.1,9.1c0,9.1,9.1,12.1,9.1,12.1s9.1-3,9.1-12.1
		C709.6,57.2,701.4,56.7,700.5,56.7z"/>
	<path id="ID0.6573149715550244_19_" fill="#FFFFFF" d="M697.7,60c0.6,0,1.2,0.2,1.6,0.6s0.6,0.9,0.6,1.6s-0.2,1.2-0.6,1.6
		c-0.4,0.4-0.9,0.6-1.6,0.6s-1.2-0.2-1.6-0.6c-0.4-0.4-0.6-0.9-0.6-1.6s0.2-1.2,0.6-1.6C696.6,60.2,697.1,60,697.7,60z"/>
</g>
<g id="ID0.5846970123238862_18_">
	<path id="ID0.00692162336781621_18_" fill="#EC621A" d="M740.5,56.7c-1,0-9.1,0.5-9.1,9.1c0,9.1,9.1,12.1,9.1,12.1s9.1-3,9.1-12.1
		C749.6,57.2,741.4,56.7,740.5,56.7z"/>
	<path id="ID0.6573149715550244_18_" fill="#FFFFFF" d="M737.7,60c0.6,0,1.2,0.2,1.6,0.6s0.6,0.9,0.6,1.6s-0.2,1.2-0.6,1.6
		c-0.4,0.4-0.9,0.6-1.6,0.6s-1.2-0.2-1.6-0.6c-0.4-0.4-0.6-0.9-0.6-1.6s0.2-1.2,0.6-1.6C736.6,60.2,737.1,60,737.7,60z"/>
</g>
<g id="ID0.5846970123238862_53_">
	<path id="ID0.00692162336781621_53_" fill="#D31577" d="M79.5,86.7c-1,0-9.1,0.5-9.1,9.1c0,9.1,9.1,12.1,9.1,12.1s9.1-3,9.1-12.1
		C88.6,87.2,80.4,86.7,79.5,86.7z"/>
	<path id="ID0.6573149715550244_53_" fill="#FFFFFF" d="M76.7,90c0.6,0,1.2,0.2,1.6,0.6c0.4,0.4,0.6,0.9,0.6,1.6s-0.2,1.2-0.6,1.6
		c-0.4,0.4-0.9,0.6-1.6,0.6c-0.6,0-1.2-0.2-1.6-0.6c-0.4-0.4-0.6-0.9-0.6-1.6s0.2-1.2,0.6-1.6C75.6,90.2,76.1,90,76.7,90z"/>
</g>
<g id="ID0.5846970123238862_55_">
	<path id="ID0.00692162336781621_55_" fill="#66C5DC" d="M39.5,26.7c-1,0-9.1,0.5-9.1,9.1c0,9.1,9.1,12.1,9.1,12.1s9.1-3,9.1-12.1
		C48.6,27.2,40.4,26.7,39.5,26.7z"/>
	<path id="ID0.6573149715550244_55_" fill="#FFFFFF" d="M36.7,30c0.6,0,1.2,0.2,1.6,0.6c0.4,0.4,0.6,0.9,0.6,1.6
		c0,0.6-0.2,1.2-0.6,1.6c-0.4,0.4-0.9,0.6-1.6,0.6c-0.6,0-1.2-0.2-1.6-0.6c-0.4-0.4-0.6-0.9-0.6-1.6c0-0.6,0.2-1.2,0.6-1.6
		C35.6,30.2,36.1,30,36.7,30z"/>
</g>
<g id="ID0.5846970123238862_54_">
	<path id="ID0.00692162336781621_54_" fill="#D31577" d="M39.5,86.7c-1,0-9.1,0.5-9.1,9.1c0,9.1,9.1,12.1,9.1,12.1s9.1-3,9.1-12.1
		C48.6,87.2,40.4,86.7,39.5,86.7z"/>
	<path id="ID0.6573149715550244_54_" fill="#FFFFFF" d="M36.7,90c0.6,0,1.2,0.2,1.6,0.6c0.4,0.4,0.6,0.9,0.6,1.6s-0.2,1.2-0.6,1.6
		c-0.4,0.4-0.9,0.6-1.6,0.6c-0.6,0-1.2-0.2-1.6-0.6c-0.4-0.4-0.6-0.9-0.6-1.6s0.2-1.2,0.6-1.6C35.6,90.2,36.1,90,36.7,90z"/>
</g>
<g id="ID0.5846970123238862_52_">
	<path id="ID0.00692162336781621_52_" fill="#D31577" d="M119.5,86.7c-1,0-9.1,0.5-9.1,9.1c0,9.1,9.1,12.1,9.1,12.1s9.1-3,9.1-12.1
		C128.6,87.2,120.4,86.7,119.5,86.7z"/>
	<path id="ID0.6573149715550244_52_" fill="#FFFFFF" d="M116.7,90c0.6,0,1.2,0.2,1.6,0.6c0.4,0.4,0.6,0.9,0.6,1.6s-0.2,1.2-0.6,1.6
		c-0.4,0.4-0.9,0.6-1.6,0.6c-0.6,0-1.2-0.2-1.6-0.6c-0.4-0.4-0.6-0.9-0.6-1.6s0.2-1.2,0.6-1.6C115.6,90.2,116.1,90,116.7,90z"/>
</g>
<g id="ID0.5846970123238862_51_">
	<path id="ID0.00692162336781621_51_" fill="#D31577" d="M160.5,86.7c-1,0-9.1,0.5-9.1,9.1c0,9.1,9.1,12.1,9.1,12.1s9.1-3,9.1-12.1
		C169.6,87.2,161.4,86.7,160.5,86.7z"/>
	<path id="ID0.6573149715550244_51_" fill="#FFFFFF" d="M157.7,90c0.6,0,1.2,0.2,1.6,0.6c0.4,0.4,0.6,0.9,0.6,1.6s-0.2,1.2-0.6,1.6
		c-0.4,0.4-0.9,0.6-1.6,0.6s-1.2-0.2-1.6-0.6c-0.4-0.4-0.6-0.9-0.6-1.6s0.2-1.2,0.6-1.6C156.6,90.2,157.1,90,157.7,90z"/>
</g>
<g id="ID0.5846970123238862_50_">
	<path id="ID0.00692162336781621_50_" fill="#D31577" d="M200.5,86.7c-1,0-9.1,0.5-9.1,9.1c0,9.1,9.1,12.1,9.1,12.1s9.1-3,9.1-12.1
		C209.6,87.2,201.4,86.7,200.5,86.7z"/>
	<path id="ID0.6573149715550244_50_" fill="#FFFFFF" d="M197.7,90c0.6,0,1.2,0.2,1.6,0.6c0.4,0.4,0.6,0.9,0.6,1.6s-0.2,1.2-0.6,1.6
		c-0.4,0.4-0.9,0.6-1.6,0.6s-1.2-0.2-1.6-0.6c-0.4-0.4-0.6-0.9-0.6-1.6s0.2-1.2,0.6-1.6C196.6,90.2,197.1,90,197.7,90z"/>
</g>
<g id="ID0.5846970123238862_49_">
	<path id="ID0.00692162336781621_49_" fill="#D31577" d="M240.5,86.7c-1,0-9.1,0.5-9.1,9.1c0,9.1,9.1,12.1,9.1,12.1s9.1-3,9.1-12.1
		C249.6,87.2,241.4,86.7,240.5,86.7z"/>
	<path id="ID0.6573149715550244_49_" fill="#FFFFFF" d="M237.7,90c0.6,0,1.2,0.2,1.6,0.6c0.4,0.4,0.6,0.9,0.6,1.6s-0.2,1.2-0.6,1.6
		c-0.4,0.4-0.9,0.6-1.6,0.6s-1.2-0.2-1.6-0.6c-0.4-0.4-0.6-0.9-0.6-1.6s0.2-1.2,0.6-1.6C236.6,90.2,237.1,90,237.7,90z"/>
</g>
<g id="ID0.5846970123238862_48_">
	<path id="ID0.00692162336781621_48_" fill="#D31577" d="M280.5,86.7c-1,0-9.1,0.5-9.1,9.1c0,9.1,9.1,12.1,9.1,12.1s9.1-3,9.1-12.1
		C289.6,87.2,281.4,86.7,280.5,86.7z"/>
	<path id="ID0.6573149715550244_48_" fill="#FFFFFF" d="M277.7,90c0.6,0,1.2,0.2,1.6,0.6c0.4,0.4,0.6,0.9,0.6,1.6s-0.2,1.2-0.6,1.6
		c-0.4,0.4-0.9,0.6-1.6,0.6c-0.6,0-1.2-0.2-1.6-0.6c-0.4-0.4-0.6-0.9-0.6-1.6s0.2-1.2,0.6-1.6C276.6,90.2,277.1,90,277.7,90z"/>
</g>
<g id="ID0.5846970123238862_47_">
	<path id="ID0.00692162336781621_47_" fill="#D31577" d="M320.5,86.7c-1,0-9.1,0.5-9.1,9.1c0,9.1,9.1,12.1,9.1,12.1s9.1-3,9.1-12.1
		C329.6,87.2,321.4,86.7,320.5,86.7z"/>
	<path id="ID0.6573149715550244_47_" fill="#FFFFFF" d="M317.7,90c0.6,0,1.2,0.2,1.6,0.6c0.4,0.4,0.6,0.9,0.6,1.6s-0.2,1.2-0.6,1.6
		c-0.4,0.4-0.9,0.6-1.6,0.6c-0.6,0-1.2-0.2-1.6-0.6c-0.4-0.4-0.6-0.9-0.6-1.6s0.2-1.2,0.6-1.6C316.6,90.2,317.1,90,317.7,90z"/>
</g>
<g id="ID0.5846970123238862_46_">
	<path id="ID0.00692162336781621_46_" fill="#D31577" d="M360.5,86.7c-1,0-9.1,0.5-9.1,9.1c0,9.1,9.1,12.1,9.1,12.1s9.1-3,9.1-12.1
		C369.6,87.2,361.4,86.7,360.5,86.7z"/>
	<path id="ID0.6573149715550244_46_" fill="#FFFFFF" d="M357.7,90c0.6,0,1.2,0.2,1.6,0.6c0.4,0.4,0.6,0.9,0.6,1.6s-0.2,1.2-0.6,1.6
		c-0.4,0.4-0.9,0.6-1.6,0.6c-0.6,0-1.2-0.2-1.6-0.6c-0.4-0.4-0.6-0.9-0.6-1.6s0.2-1.2,0.6-1.6C356.6,90.2,357.1,90,357.7,90z"/>
</g>
<g id="ID0.5846970123238862_45_">
	<path id="ID0.00692162336781621_45_" fill="#D31577" d="M400.5,86.7c-1,0-9.1,0.5-9.1,9.1c0,9.1,9.1,12.1,9.1,12.1s9.1-3,9.1-12.1
		C409.6,87.2,401.4,86.7,400.5,86.7z"/>
	<path id="ID0.6573149715550244_45_" fill="#FFFFFF" d="M397.7,90c0.6,0,1.2,0.2,1.6,0.6c0.4,0.4,0.6,0.9,0.6,1.6s-0.2,1.2-0.6,1.6
		c-0.4,0.4-0.9,0.6-1.6,0.6c-0.6,0-1.2-0.2-1.6-0.6c-0.4-0.4-0.6-0.9-0.6-1.6s0.2-1.2,0.6-1.6C396.6,90.2,397.1,90,397.7,90z"/>
</g>
<g id="ID0.5846970123238862_44_">
	<path id="ID0.00692162336781621_44_" fill="#D31577" d="M440.5,86.7c-1,0-9.1,0.5-9.1,9.1c0,9.1,9.1,12.1,9.1,12.1s9.1-3,9.1-12.1
		C449.6,87.2,441.4,86.7,440.5,86.7z"/>
	<path id="ID0.6573149715550244_44_" fill="#FFFFFF" d="M437.7,90c0.6,0,1.2,0.2,1.6,0.6c0.4,0.4,0.6,0.9,0.6,1.6s-0.2,1.2-0.6,1.6
		c-0.4,0.4-0.9,0.6-1.6,0.6c-0.6,0-1.2-0.2-1.6-0.6c-0.4-0.4-0.6-0.9-0.6-1.6s0.2-1.2,0.6-1.6C436.6,90.2,437.1,90,437.7,90z"/>
</g>
<g id="ID0.5846970123238862_43_">
	<path id="ID0.00692162336781621_43_" fill="#D31577" d="M480.5,86.7c-1,0-9.1,0.5-9.1,9.1c0,9.1,9.1,12.1,9.1,12.1s9.1-3,9.1-12.1
		C489.6,87.2,481.4,86.7,480.5,86.7z"/>
	<path id="ID0.6573149715550244_43_" fill="#FFFFFF" d="M477.7,90c0.6,0,1.2,0.2,1.6,0.6c0.4,0.4,0.6,0.9,0.6,1.6s-0.2,1.2-0.6,1.6
		c-0.4,0.4-0.9,0.6-1.6,0.6c-0.6,0-1.2-0.2-1.6-0.6c-0.4-0.4-0.6-0.9-0.6-1.6s0.2-1.2,0.6-1.6C476.6,90.2,477.1,90,477.7,90z"/>
</g>
<g id="ID0.5846970123238862_42_">
	<path id="ID0.00692162336781621_42_" fill="#D31577" d="M520.5,86.7c-1,0-9.1,0.5-9.1,9.1c0,9.1,9.1,12.1,9.1,12.1s9.1-3,9.1-12.1
		C529.6,87.2,521.4,86.7,520.5,86.7z"/>
	<path id="ID0.6573149715550244_42_" fill="#FFFFFF" d="M517.7,90c0.6,0,1.2,0.2,1.6,0.6s0.6,0.9,0.6,1.6s-0.2,1.2-0.6,1.6
		s-0.9,0.6-1.6,0.6s-1.2-0.2-1.6-0.6c-0.4-0.4-0.6-0.9-0.6-1.6s0.2-1.2,0.6-1.6C516.6,90.2,517.1,90,517.7,90z"/>
</g>
<g id="ID0.5846970123238862_41_">
	<path id="ID0.00692162336781621_41_" fill="#D31577" d="M560.5,86.7c-1,0-9.1,0.5-9.1,9.1c0,9.1,9.1,12.1,9.1,12.1s9.1-3,9.1-12.1
		C569.6,87.2,561.4,86.7,560.5,86.7z"/>
	<path id="ID0.6573149715550244_41_" fill="#FFFFFF" d="M557.7,90c0.6,0,1.2,0.2,1.6,0.6s0.6,0.9,0.6,1.6s-0.2,1.2-0.6,1.6
		s-0.9,0.6-1.6,0.6s-1.2-0.2-1.6-0.6c-0.4-0.4-0.6-0.9-0.6-1.6s0.2-1.2,0.6-1.6C556.6,90.2,557.1,90,557.7,90z"/>
</g>
<g id="ID0.5846970123238862_40_">
	<path id="ID0.00692162336781621_40_" fill="#D31577" d="M600.5,86.7c-1,0-9.1,0.5-9.1,9.1c0,9.1,9.1,12.1,9.1,12.1s9.1-3,9.1-12.1
		C609.6,87.2,601.4,86.7,600.5,86.7z"/>
	<path id="ID0.6573149715550244_40_" fill="#FFFFFF" d="M597.7,90c0.6,0,1.2,0.2,1.6,0.6s0.6,0.9,0.6,1.6s-0.2,1.2-0.6,1.6
		s-0.9,0.6-1.6,0.6s-1.2-0.2-1.6-0.6c-0.4-0.4-0.6-0.9-0.6-1.6s0.2-1.2,0.6-1.6C596.6,90.2,597.1,90,597.7,90z"/>
</g>
<g id="ID0.5846970123238862_39_">
	<path id="ID0.00692162336781621_39_" fill="#D31577" d="M640.5,86.7c-1,0-9.1,0.5-9.1,9.1c0,9.1,9.1,12.1,9.1,12.1s9.1-3,9.1-12.1
		C649.6,87.2,641.4,86.7,640.5,86.7z"/>
	<path id="ID0.6573149715550244_39_" fill="#FFFFFF" d="M637.7,90c0.6,0,1.2,0.2,1.6,0.6s0.6,0.9,0.6,1.6s-0.2,1.2-0.6,1.6
		s-0.9,0.6-1.6,0.6s-1.2-0.2-1.6-0.6c-0.4-0.4-0.6-0.9-0.6-1.6s0.2-1.2,0.6-1.6C636.6,90.2,637.1,90,637.7,90z"/>
</g>
<g id="ID0.5846970123238862_38_">
	<path id="ID0.00692162336781621_38_" fill="#D31577" d="M680.5,86.7c-1,0-9.1,0.5-9.1,9.1c0,9.1,9.1,12.1,9.1,12.1s9.1-3,9.1-12.1
		C689.6,87.2,681.4,86.7,680.5,86.7z"/>
	<path id="ID0.6573149715550244_38_" fill="#FFFFFF" d="M677.7,90c0.6,0,1.2,0.2,1.6,0.6s0.6,0.9,0.6,1.6s-0.2,1.2-0.6,1.6
		s-0.9,0.6-1.6,0.6s-1.2-0.2-1.6-0.6c-0.4-0.4-0.6-0.9-0.6-1.6s0.2-1.2,0.6-1.6C676.6,90.2,677.1,90,677.7,90z"/>
</g>
<g id="ID0.5846970123238862_37_">
	<path id="ID0.00692162336781621_37_" fill="#D31577" d="M720.5,86.7c-1,0-9.1,0.5-9.1,9.1c0,9.1,9.1,12.1,9.1,12.1s9.1-3,9.1-12.1
		C729.6,87.2,721.4,86.7,720.5,86.7z"/>
	<path id="ID0.6573149715550244_37_" fill="#FFFFFF" d="M717.7,90c0.6,0,1.2,0.2,1.6,0.6s0.6,0.9,0.6,1.6s-0.2,1.2-0.6,1.6
		s-0.9,0.6-1.6,0.6s-1.2-0.2-1.6-0.6c-0.4-0.4-0.6-0.9-0.6-1.6s0.2-1.2,0.6-1.6C716.6,90.2,717.1,90,717.7,90z"/>
</g>
<g id="ID0.5846970123238862_36_">
	<path id="ID0.00692162336781621_36_" fill="#D31577" d="M760.5,86.7c-1,0-9.1,0.5-9.1,9.1c0,9.1,9.1,12.1,9.1,12.1s9.1-3,9.1-12.1
		C769.6,87.2,761.4,86.7,760.5,86.7z"/>
	<path id="ID0.6573149715550244_36_" fill="#FFFFFF" d="M757.7,90c0.6,0,1.2,0.2,1.6,0.6s0.6,0.9,0.6,1.6s-0.2,1.2-0.6,1.6
		s-0.9,0.6-1.6,0.6s-1.2-0.2-1.6-0.6c-0.4-0.4-0.6-0.9-0.6-1.6s0.2-1.2,0.6-1.6C756.6,90.2,757.1,90,757.7,90z"/>
</g>
<defs>
	<filter id="Adobe_OpacityMaskFilter" filterUnits="userSpaceOnUse" x="71.2" y="363.3" width="125.5" height="131.7">
		<feColorMatrix  type="matrix" values="1 0 0 0 0  0 1 0 0 0  0 0 1 0 0  0 0 0 1 0"/>
	</filter>
</defs>
<mask maskUnits="userSpaceOnUse" x="71.2" y="363.3" width="125.5" height="131.7" id="SVGID_1_">
	<g filter="url(#Adobe_OpacityMaskFilter)">
		
			<linearGradient id="SVGID_2_" gradientUnits="userSpaceOnUse" x1="678.1345" y1="-230.1263" x2="678.1345" y2="-86.7798" gradientTransform="matrix(-1 0 0 -1 812.1528 329.6604)">
			<stop  offset="0" style="stop-color:#FFFFFF"/>
			<stop  offset="1" style="stop-color:#000000"/>
		</linearGradient>
		<polygon fill="url(#SVGID_2_)" points="71.2,363.3 196.8,363.3 183.2,495 84.8,495 		"/>
	</g>
</mask>
<polygon mask="url(#SVGID_1_)" fill="#FFFFFF" points="71.2,363.3 196.8,363.3 183.2,495 84.8,495 "/>
<defs>
	<filter id="Adobe_OpacityMaskFilter_1_" filterUnits="userSpaceOnUse" x="247.8" y="363.3" width="125.5" height="131.7">
		<feColorMatrix  type="matrix" values="1 0 0 0 0  0 1 0 0 0  0 0 1 0 0  0 0 0 1 0"/>
	</filter>
</defs>
<mask maskUnits="userSpaceOnUse" x="247.8" y="363.3" width="125.5" height="131.7" id="SVGID_3_">
	<g filter="url(#Adobe_OpacityMaskFilter_1_)">
		
			<linearGradient id="SVGID_4_" gradientUnits="userSpaceOnUse" x1="501.5471" y1="-230.1263" x2="501.5471" y2="-86.7798" gradientTransform="matrix(-1 0 0 -1 812.1528 329.6604)">
			<stop  offset="0" style="stop-color:#FFFFFF"/>
			<stop  offset="1" style="stop-color:#000000"/>
		</linearGradient>
		<polygon fill="url(#SVGID_4_)" points="247.8,363.3 373.4,363.3 359.8,495 261.4,495 		"/>
	</g>
</mask>
<polygon mask="url(#SVGID_3_)" fill="#FFFFFF" points="247.8,363.3 373.4,363.3 359.8,495 261.4,495 "/>
<defs>
	<filter id="Adobe_OpacityMaskFilter_2_" filterUnits="userSpaceOnUse" x="424.4" y="363.3" width="125.5" height="131.7">
		<feColorMatrix  type="matrix" values="1 0 0 0 0  0 1 0 0 0  0 0 1 0 0  0 0 0 1 0"/>
	</filter>
</defs>
<mask maskUnits="userSpaceOnUse" x="424.4" y="363.3" width="125.5" height="131.7" id="SVGID_5_">
	<g filter="url(#Adobe_OpacityMaskFilter_2_)">
		
			<linearGradient id="SVGID_6_" gradientUnits="userSpaceOnUse" x1="324.9598" y1="-230.1263" x2="324.9598" y2="-86.7798" gradientTransform="matrix(-1 0 0 -1 812.1528 329.6604)">
			<stop  offset="0" style="stop-color:#FFFFFF"/>
			<stop  offset="1" style="stop-color:#000000"/>
		</linearGradient>
		<polygon fill="url(#SVGID_6_)" points="424.4,363.3 550,363.3 536.4,495 438,495 		"/>
	</g>
</mask>
<polygon mask="url(#SVGID_5_)" fill="#FFFFFF" points="424.4,363.3 550,363.3 536.4,495 438,495 "/>
<defs>
	<filter id="Adobe_OpacityMaskFilter_3_" filterUnits="userSpaceOnUse" x="601" y="363.3" width="125.5" height="131.7">
		<feColorMatrix  type="matrix" values="1 0 0 0 0  0 1 0 0 0  0 0 1 0 0  0 0 0 1 0"/>
	</filter>
</defs>
<mask maskUnits="userSpaceOnUse" x="601" y="363.3" width="125.5" height="131.7" id="SVGID_7_">
	<g filter="url(#Adobe_OpacityMaskFilter_3_)">
		
			<linearGradient id="SVGID_8_" gradientUnits="userSpaceOnUse" x1="148.3725" y1="-230.1263" x2="148.3725" y2="-86.7798" gradientTransform="matrix(-1 0 0 -1 812.1528 329.6604)">
			<stop  offset="0" style="stop-color:#FFFFFF"/>
			<stop  offset="1" style="stop-color:#000000"/>
		</linearGradient>
		<polygon fill="url(#SVGID_8_)" points="601,363.3 726.6,363.3 713,495 614.6,495 		"/>
	</g>
</mask>
<polygon mask="url(#SVGID_7_)" fill="#FFFFFF" points="601,363.3 726.6,363.3 713,495 614.6,495 "/>
<polygon fill="#FFFFFF" points="402.1,222.7 404.7,227.5 409.4,230.1 404.7,232.7 402.1,237.4 399.5,232.7 394.7,230.1 399.5,227.5 
	"/>
<polygon fill="#FFFFFF" points="549.1,173.7 551.7,178.5 556.4,181.1 551.7,183.7 549.1,188.4 546.5,183.7 541.7,181.1 546.5,178.5 
	"/>
<polygon fill="#FFFFFF" points="37,229.1 39.6,233.9 44.3,236.5 39.6,239.1 37,243.8 34.4,239.1 29.6,236.5 34.4,233.9 "/>
<polygon fill="#FFFFFF" points="184,180.1 186.6,184.9 191.3,187.5 186.6,190.1 184,194.8 181.4,190.1 176.6,187.5 181.4,184.9 "/>
<polygon fill="#FFFFFF" points="572.1,222.7 574.7,227.5 579.4,230.1 574.7,232.7 572.1,237.4 569.5,232.7 564.7,230.1 569.5,227.5 
	"/>
<polygon fill="#FFFFFF" points="635.6,173.7 638.2,178.5 642.9,181.1 638.2,183.7 635.6,188.4 633,183.7 628.2,181.1 633,178.5 "/>
<polygon fill="#FFFFFF" points="712.1,212.7 714.7,217.5 719.4,220.1 714.7,222.7 712.1,227.4 709.5,222.7 704.7,220.1 709.5,217.5 
	"/>
<polygon fill="#FFFFFF" points="200.1,199.7 202.7,204.5 207.4,207.1 202.7,209.7 200.1,214.4 197.5,209.7 192.7,207.1 197.5,204.5 
	"/>
<polygon fill="#FFFFFF" points="74,190.1 76.6,194.9 81.3,197.5 76.6,200.1 74,204.8 71.4,200.1 66.6,197.5 71.4,194.9 "/>
<polygon fill="#FFFFFF" points="90.1,209.7 92.7,214.5 97.4,217.1 92.7,219.7 90.1,224.4 87.5,219.7 82.7,217.1 87.5,214.5 "/>
<g>
	<rect x="427.3" y="420.2" fill="#7E227B" width="2.2" height="11.7"/>
	<rect x="431.6" y="420.2" fill="#7E227B" width="2.2" height="11.7"/>
	<rect x="427.3" y="412.5" fill="#7E227B" width="6.5" height="11.7"/>
	<rect x="428.4" y="406.8" fill="#EBA116" width="4.1" height="4.1"/>
	<rect x="433.8" y="412.5" fill="#EBA116" width="10" height="1.6"/>
	<rect x="417.3" y="412.5" fill="#EBA116" width="10" height="1.6"/>
</g>
<defs>
	<filter id="Adobe_OpacityMaskFilter_4_" filterUnits="userSpaceOnUse" x="77.1" y="0" width="646.9" height="269.7">
		<feColorMatrix  type="matrix" values="1 0 0 0 0  0 1 0 0 0  0 0 1 0 0  0 0 0 1 0"/>
	</filter>
</defs>
<mask maskUnits="userSpaceOnUse" x="77.1" y="0" width="646.9" height="269.7" id="SVGID_9_">
	<g filter="url(#Adobe_OpacityMaskFilter_4_)">
		<linearGradient id="SVGID_10_" gradientUnits="userSpaceOnUse" x1="400.5264" y1="-132.5885" x2="400.5264" y2="160.9055">
			<stop  offset="0" style="stop-color:#FFFFFF"/>
			<stop  offset="1" style="stop-color:#000000"/>
		</linearGradient>
		<polygon fill="url(#SVGID_10_)" points="724,269.7 77.1,269.7 147.1,0 654,0 		"/>
	</g>
</mask>
<polygon mask="url(#SVGID_9_)" fill="#FFFFFF" points="724,269.7 77.1,269.7 147.1,0 654,0 "/>
</svg>
