<?xml version="1.0" encoding="utf-8"?>
<!-- Generator: Adobe Illustrator 17.1.0, SVG Export Plug-In . SVG Version: 6.00 Build 0)  -->
<!DOCTYPE svg PUBLIC "-//W3C//DTD SVG 1.1//EN" "http://www.w3.org/Graphics/SVG/1.1/DTD/svg11.dtd">
<svg version="1.1" id="レイヤー_1" xmlns="http://www.w3.org/2000/svg" xmlns:xlink="http://www.w3.org/1999/xlink" x="0px"
	 y="0px" viewBox="0 0 277.8 36" enable-background="new 0 0 277.8 36" xml:space="preserve">
<g>
	<path fill="#FFFFFF" d="M0.1,30.7L5.1,7.8c0.7-3.5,2.9-5,6.1-5h7.4c8.4,0,13,3.3,13,9.9c0,7.8-4.7,13.4-15.4,13.4h-5l-1,4.7
		c-0.7,3.1-2.1,4.7-5,4.7H3.8C1.1,35.5-0.5,33.8,0.1,30.7z M16.8,18.8c3.1,0,5.1-1.8,5.1-5.1c0-2.2-1.5-3.4-4.4-3.4h-3.1l-1.8,8.4
		H16.8z"/>
	<path fill="#FFFFFF" d="M44.8,9.8c3.2,0,6.2,1.5,7.6,4.4c1.3-2.8,3.3-4,6.5-4c1.9,0,3.4,0.8,3.3,1.2l-3.7,17.1
		c-0.7,3-0.2,4.1,1.6,4.7c0.1,0.1-0.7,2.7-5.1,2.7c-4,0-5.8-2.1-6-5.2c-1.7,3.1-4.8,5.2-8.7,5.2c-5.3,0-9-3.9-9-9.9
		C31.4,17.8,36.8,9.8,44.8,9.8z M44.4,28.4c2.7,0,5-2,5.7-5.2l0.7-3c-0.8-1.9-2.1-3.1-4.3-3.1c-3.6,0-5.9,3.5-5.9,7.2
		C40.6,26.7,42.2,28.4,44.4,28.4z"/>
	<path fill="#FFFFFF" d="M67.1,10.8c0.1-0.2,1.3-0.6,2.8-0.6c2.5,0,4.9,1.3,5.2,4.7c2.2-3.1,5-5.1,9-5.1c4.8,0,7.6,3.2,7.6,7.8
		c0,1.8-0.5,4-1.4,7.2C89.5,27.1,89,29,89,30c0,1.5,0.7,2.1,2,2.4c0.1,0-0.8,3.4-5.7,3.4c-4.2,0-5.9-2-5.9-4.9
		c0-1.5,0.4-2.9,1.2-5.8c0.6-2.2,1-3.8,1-4.6c0-1.9-1-3-2.9-3c-1.7,0-2.7,0.7-3.8,2.2l-2.4,11.1c-0.7,3.5-2,4.7-4.4,4.7h-1
		c-2.6,0-5-1.1-4.2-4.7L67.1,10.8z"/>
	<path fill="#FFFFFF" d="M106.8,9.8c3.1,0,6.2,1.4,7.9,4.1l2-9.3c0.8-3.5,2-4.6,4.5-4.6h1c2.6,0,4.9,1.1,4.2,4.6l-5.1,23.9
		c-0.7,3-0.2,4.1,1.6,4.7c0.1,0.1-0.7,2.7-5.1,2.7c-4,0-5.7-2.1-5.9-5.1c-1.6,3-4.4,5.1-8.1,5.1c-5.4,0-9.5-3.9-9.5-10.5
		C94.2,17.4,99.1,9.8,106.8,9.8z M107.4,28.4c2.5,0,4.7-1.9,5.3-5.1l0.7-3.1c-0.8-1.9-2-3.2-4.5-3.2c-3.6,0-5.5,3.4-5.5,6.9
		C103.4,26.6,104.9,28.4,107.4,28.4z"/>
	<path fill="#FFFFFF" d="M139.5,9.8c3.2,0,6.2,1.5,7.6,4.4c1.3-2.8,3.3-4,6.5-4c1.9,0,3.4,0.8,3.3,1.2l-3.7,17.1
		c-0.7,3-0.2,4.1,1.6,4.7c0.1,0.1-0.7,2.7-5.1,2.7c-4,0-5.8-2.1-6-5.2c-1.7,3.1-4.8,5.2-8.7,5.2c-5.3,0-9-3.9-9-9.9
		C126.1,17.8,131.5,9.8,139.5,9.8z M139.1,28.4c2.7,0,5-2,5.7-5.2l0.7-3c-0.8-1.9-2.1-3.1-4.3-3.1c-3.6,0-5.9,3.5-5.9,7.2
		C135.3,26.7,136.9,28.4,139.1,28.4z"/>
	<path fill="#FFFFFF" d="M166.2,30.7l5-23.4c0.7-3.2,2.2-4.8,5.1-4.8h0.9c2.1,0,3.2,0.7,4.5,2.8l8.1,14.6l2.7-12.8
		c0.7-3.1,1.9-4.7,4.8-4.7h1.2c2.7,0,4.1,1.7,3.4,4.8l-5,23.4c-0.7,3.2-2.2,4.7-5.1,4.7h-0.6c-2.1,0-3.2-0.7-4.4-2.8l-8.4-15.2
		l-2.8,13.3c-0.7,3.1-1.9,4.7-4.8,4.7h-1.2C166.9,35.5,165.5,33.8,166.2,30.7z"/>
	<path fill="#FFFFFF" d="M215.9,9.8c8.2,0,12.2,5.1,12.2,11.4c0,7.5-5,14.7-14.1,14.7c-8.1,0-12.2-5.2-12.2-11.4
		C201.9,17,206.8,9.8,215.9,9.8z M214.2,28.8c3.6,0,5.9-3.6,5.9-7.3c0-2.7-1.8-4.7-4.4-4.7c-3.6,0-5.9,3.6-5.9,7.3
		C209.9,26.8,211.7,28.8,214.2,28.8z"/>
	<path fill="#FFFFFF" d="M234.7,17.7h-0.6c-2.1,0-3.4-1.1-3.4-2.6c0-0.8,0.4-2.8,1.3-3.7c0.7-0.6,1.4-1,3.3-1h0.9l0.2-0.8
		c0.9-4.4,2.8-6.3,7-6.3c2.1,0,3.6,0.8,3.5,1.2l-1.3,5.9h2.8c2.3,0,3.5,1.1,3.5,2.6c0,0.8-0.4,2.8-1.3,3.7c-0.7,0.6-1.4,1-3.3,1H244
		l-1.7,8.1c-0.5,2.1,0.4,3.1,1.8,3.1c1.1,0,2.1-0.5,2.8-1.1c0.2-0.2,1.4,0.8,1.4,2.6c0,1.5-0.6,2.6-1.6,3.6
		c-1.3,1.4-3.4,2.1-6.1,2.1c-6.4,0-9-3.7-7.7-9.7L234.7,17.7z"/>
	<path fill="#FFFFFF" d="M267.4,9.8c6.8,0,10.4,3.1,10.4,7.8c0,5.1-3.3,8.2-14.2,8.2c-1.3,0-2.6,0-4-0.1c0.3,2.4,2.1,3.7,5.1,3.7
		c2.9,0,5.3-1.5,6.7-3.3c0.1,0,3.8,0.5,3.8,3.4c0,1.7-0.5,2.6-1.6,3.6c-1.6,1.6-4.7,2.9-9.1,2.9c-8.8,0-12.8-4.7-12.8-10.9
		C251.8,15.9,258.7,9.8,267.4,9.8z M262.8,20.4c5.6,0,7.3-1.1,7.3-2.6c0-1-1-2-3.1-2c-2.9,0-5.1,2-6.4,4.6
		C261.4,20.4,262.1,20.4,262.8,20.4z"/>
</g>
</svg>
