<?xml version="1.0" encoding="UTF-8"?>
<svg id="_レイヤー_1" data-name="レイヤー_1" xmlns="http://www.w3.org/2000/svg" version="1.1" viewBox="0 0 800 500">
  <!-- Generator: Adobe Illustrator 30.1.0, SVG Export Plug-In . SVG Version: 2.1.1 Build 136)  -->
  <defs>
    <style>
      .st0 {
        fill: #8e8e8e;
      }

      .st1 {
        fill: #bbbaba;
      }

      .st2 {
        fill: #c4c3b6;
      }

      .st3 {
        fill: #5a5b5b;
      }

      .st4 {
        fill: #686767;
      }

      .st5 {
        fill: #d3d3d4;
      }

      .st6 {
        fill: #f1ede3;
      }

      .st7 {
        fill: #8f9c9d;
      }

      .st8 {
        fill: none;
        stroke: #8f9c9d;
        stroke-miterlimit: 10;
      }

      .st9 {
        fill: #e3b13f;
      }

      .st10 {
        fill: #343535;
      }

      .st11 {
        fill: #cd916d;
      }
    </style>
  </defs>
  <rect class="st0" width="800" height="500"/>
  <polygon class="st5" points="800 340.28 0 398.61 0 304.17 800 304.17 800 340.28"/>
  <polygon class="st2" points="800 304.17 0 304.17 0 172.92 800 120.83 800 304.17"/>
  <rect class="st7" x="194.57" y="120.83" width="58.61" height="183.33"/>
  <path class="st7" d="M305.4,296.94h-18.75c-2.92,0-5.28-2.36-5.28-5.28v-18.75c0-2.92,2.36-5.28,5.28-5.28h18.75c2.92,0,5.28,2.36,5.28,5.28v18.75c0,2.92-2.36,5.28-5.28,5.28Z"/>
  <rect class="st7" x="293.04" y="296.94" width="5.97" height="7.22"/>
  <path class="st7" d="M344.15,296.94h-18.61c-2.92,0-5.28-2.36-5.28-5.28v-18.75c0-2.92,2.36-5.28,5.28-5.28h18.75c2.92,0,5.28,2.36,5.28,5.28v18.75c0,2.92-2.36,5.28-5.42,5.28Z"/>
  <rect class="st7" x="331.93" y="296.94" width="5.97" height="7.22"/>
  <path class="st7" d="M383.04,296.94h-18.75c-2.92,0-5.28-2.36-5.28-5.28v-18.75c0-2.92,2.36-5.28,5.28-5.28h18.75c2.92,0,5.28,2.36,5.28,5.28v18.75c0,2.92-2.36,5.28-5.28,5.28Z"/>
  <rect class="st7" x="370.68" y="296.94" width="5.97" height="7.22"/>
  <path class="st7" d="M421.79,296.94h-18.75c-2.92,0-5.28-2.36-5.28-5.28v-18.75c0-2.92,2.36-5.28,5.28-5.28h18.75c2.92,0,5.28,2.36,5.28,5.28v18.75c0,2.92-2.36,5.28-5.28,5.28Z"/>
  <rect class="st7" x="409.43" y="296.94" width="5.97" height="7.22"/>
  <ellipse class="st7" cx="99.43" cy="233.33" rx="4.31" ry="5.83"/>
  <polygon class="st7" points="91.93 239.17 106.79 236.11 105.12 255.69 110.54 281.81 107.76 281.81 103.73 296.39 103.73 304.17 99.43 304.17 102.07 282.92 95.82 281.53 95.4 290.83 94.71 304.17 89.71 304.17 89.71 279.03 84.15 279.31 92.35 250.83 91.93 239.17"/>
  <polyline class="st7" points="105.12 238.19 110.54 251.81 105.12 260.69"/>
  <polygon class="st7" points="127.35 233.33 137.9 230.14 147.07 233.33 145.96 251.81 142.35 263.75 144.01 266.53 141.79 266.53 142.35 286.25 141.79 304.17 137.21 304.17 137.21 276.53 134.01 272.22 132.62 283.61 132.62 304.17 127.35 304.17 124.29 279.58 126.51 263.75 122.62 258.06 122.62 246.39 127.35 233.33"/>
  <ellipse class="st7" cx="134.85" cy="228.06" rx="3.47" ry="5.28"/>
  <polygon class="st7" points="156.23 267.5 156.23 281.94 156.23 285.56 156.23 294.44 156.23 304.17 158.73 304.17 158.73 297.5 158.73 294.44 161.1 297.22 161.1 304.17 164.71 304.17 164.71 295.14 164.71 287.36 164.71 280.97 166.51 275.97 166.51 269.03 161.37 267.5 156.23 267.5"/>
  <ellipse class="st7" cx="161.37" cy="265.69" rx="2.5" ry="4.31"/>
  <ellipse class="st7" cx="424.29" cy="235" rx="4.17" ry="5.69"/>
  <polygon class="st7" points="416.93 240.69 431.51 237.78 429.85 256.81 435.12 282.36 432.35 282.36 428.6 296.53 428.6 304.17 424.29 304.17 426.93 283.47 420.82 282.08 420.4 291.25 419.71 304.17 414.85 304.17 414.85 279.58 409.43 279.86 417.35 252.08 416.93 240.69"/>
  <polyline class="st7" points="429.98 239.72 435.12 253.06 429.98 261.67"/>
  <polygon class="st7" points="451.65 235 461.93 231.81 470.96 235 469.71 252.92 466.23 264.58 467.9 267.36 465.82 267.36 466.23 286.67 465.82 304.17 461.23 304.17 461.23 277.22 458.04 272.92 456.79 284.03 456.79 304.17 451.65 304.17 448.73 280.14 450.82 264.58 446.93 259.03 446.93 247.64 451.65 235"/>
  <ellipse class="st7" cx="458.87" cy="229.72" rx="3.47" ry="5.28"/>
  <polygon class="st7" points="546.51 252.78 546.51 272.92 546.51 277.92 546.51 290.56 546.51 304.17 549.85 304.17 549.85 294.86 549.85 290.56 553.32 294.44 553.32 304.17 558.32 304.17 558.32 291.39 558.32 280.56 558.32 271.67 560.82 264.58 560.82 254.86 553.73 252.78 546.51 252.78"/>
  <ellipse class="st7" cx="553.73" cy="250.14" rx="3.61" ry="5.97"/>
  <ellipse class="st7" cx="592.35" cy="234.03" rx="4.17" ry="5.69"/>
  <polygon class="st7" points="584.85 239.58 599.43 236.67 597.76 255.69 603.04 281.11 600.26 281.11 596.51 295.14 596.51 302.78 592.35 302.78 594.85 282.22 588.73 280.83 588.32 289.86 587.62 302.78 582.9 302.78 582.9 278.33 577.48 278.61 585.4 250.97 584.85 239.58"/>
  <polyline class="st7" points="597.76 238.75 603.04 251.94 597.76 260.56"/>
  <polygon class="st7" points="619.43 234.03 629.71 230.83 638.6 234.03 637.48 251.81 633.87 263.47 635.54 266.11 633.46 266.11 633.87 285.28 633.46 302.78 629.01 302.78 629.01 275.97 625.82 271.67 624.57 282.78 624.57 302.78 619.43 302.78 616.51 278.89 618.6 263.47 614.71 257.92 614.71 246.53 619.43 234.03"/>
  <ellipse class="st7" cx="626.65" cy="228.75" rx="3.47" ry="5.14"/>
  <polygon class="st7" points="647.48 267.22 647.48 281.11 647.48 284.58 647.48 293.33 647.48 302.78 649.85 302.78 649.85 296.25 649.85 293.33 652.21 295.97 652.21 302.78 655.68 302.78 655.68 294.03 655.68 286.39 655.68 280.28 657.35 275.28 657.35 268.61 652.48 267.22 647.48 267.22"/>
  <ellipse class="st7" cx="652.48" cy="265.42" rx="2.5" ry="4.17"/>
  <rect class="st7" x="281.51" y="147.22" width="89.17" height="51.39"/>
  <rect class="st7" x="289.01" y="120.83" width="4.03" height="26.39"/>
  <rect class="st7" x="360.54" y="120.83" width="4.03" height="26.39"/>
  <line class="st8" x1="510.26" y1="120.83" x2="510.26" y2="304.17"/>
  <line class="st8" x1="166.51" y1="120.83" x2="166.51" y2="304.17"/>
  <line class="st8" y1="172.92" x2="800" y2="172.92"/>
  <polygon class="st11" points="549.01 190.42 519.15 219.31 519.15 219.31 549.01 190.42"/>
  <polygon class="st6" points="392.76 341.39 425.26 286.53 425.26 286.53 392.76 341.39"/>
  <rect class="st9" x="178.6" y="322.92" width="22.5" height="22.5"/>
  <polygon class="st10" points="226.65 399.72 214.15 399.72 214.15 366.94 235.82 388.61 246.37 378.06 214.15 345.83 214.15 345.56 213.87 345.56 213.04 344.58 212.21 345.56 168.6 345.56 168.6 372.5 142.9 372.5 142.9 387.5 168.6 387.5 168.6 399.72 153.87 399.72 153.87 425 142.76 425 142.76 450.28 168.04 450.28 168.04 425 179.15 425 179.15 412.36 201.37 412.36 201.37 425 214.01 425 214.01 450.28 239.29 450.28 239.29 425 226.65 425 226.65 399.72"/>
  <polygon class="st3" points="196.65 500 171.37 500 142.76 450.28 168.04 450.28 196.65 500"/>
  <polygon class="st3" points="268.04 500 242.9 500 214.15 450.28 239.43 450.28 268.04 500"/>
  <polygon class="st4" points="0 60.42 800 17.92 800 0 0 0 0 60.42"/>
  <polygon class="st1" points="286 500 800 422.08 800 500 286 500"/>
</svg>