<?xml version="1.0" encoding="UTF-8"?>
<svg id="_レイヤー_1" data-name="レイヤー_1" xmlns="http://www.w3.org/2000/svg" version="1.1" viewBox="0 0 800 500">
  <!-- Generator: Adobe Illustrator 30.1.0, SVG Export Plug-In . SVG Version: 2.1.1 Build 136)  -->
  <defs>
    <style>
      .st0 {
        fill: #ff9d66;
      }

      .st1 {
        fill: #18863b;
      }

      .st2 {
        fill: #6c7c52;
      }

      .st3 {
        fill: #bdd19f;
      }

      .st4 {
        fill: #4fc957;
      }

      .st5 {
        fill: #025fce;
      }

      .st6 {
        fill: #231815;
      }

      .st7 {
        fill: #fff;
      }

      .st8 {
        fill: #7c794e;
      }

      .st9 {
        fill: #819364;
      }

      .st10 {
        fill: #5b6b45;
      }

      .st11 {
        fill: #99ad7f;
      }

      .st12 {
        fill: #d3ce94;
      }

      .st13 {
        fill: #8b9e6c;
      }

      .st14 {
        fill: none;
        stroke: #fff;
        stroke-width: 1.45px;
      }

      .st15 {
        fill: #819167;
      }

      .st16 {
        fill: #758c56;
      }
    </style>
  </defs>
  <path id="ID0.606279572006315" class="st5" d="M0,0h800v500H0V0Z"/>
  <path id="ID0.22172754677012563" class="st6" d="M530.12,120.56s1.53-1.53,8.75-9.31c7.22-7.78,10.42-18.47,10.42-18.47h0l-.69-.69h0s-10.69,3.19-18.47,10.42-9.31,8.75-9.31,8.75c0,0-3.61,3.33-9.58,18.06h0l.69.69h0c14.86-5.97,18.19-9.44,18.19-9.44Z"/>
  <path id="ID0.2871811897493899" class="st10" d="M530.12,119.03s1.53-1.53,8.75-9.31c7.22-7.78,10.42-18.47,10.42-18.47h0l-.69-.69h0s-10.69,3.19-18.47,10.42-9.31,8.75-9.31,8.75c0,0-3.61,3.33-9.58,18.06h0l.69.69h0c14.86-5.83,18.19-9.44,18.19-9.44Z"/>
  <path id="ID0.017777226399630308" class="st16" d="M525.4,111.39l2.92,2.92-6.94,6.94-2.92-2.92,6.94-6.94Z"/>
  <path id="ID0.02509103436022997" class="st13" d="M532.35,104.44l2.92,2.92-6.94,6.94-2.92-2.92,6.94-6.94Z"/>
  <path id="ID0.18562326254323125" class="st13" d="M536.51,100.28l2.92,2.92-2.5,2.5-2.92-2.92,2.5-2.5Z"/>
  <path id="ID0.7737629180774093" class="st6" d="M356.1,362.92l-1.25-1.25-.42-.42-1.25-1.25s-40.69,24.86-66.94,51.11-33.06,48.89-33.06,48.89l1.25,1.25.42.42,1.25,1.25s22.64-6.94,48.89-33.06c26.11-26.25,51.11-66.94,51.11-66.94Z"/>
  <path id="ID0.23939003981649876" class="st8" d="M356.1,359.72l-1.25-1.25-.42-.42-1.25-1.25s-40.69,24.86-66.94,51.11c-26.25,26.25-33.06,48.89-33.06,48.89l1.25,1.25.42.42,1.25,1.25s22.64-6.94,48.89-33.06c26.11-26.39,51.11-66.94,51.11-66.94Z"/>
  <path id="ID0.48337819846346974" class="st16" d="M275.26,433.75l3.75,3.75-8.89,8.89-3.75-3.75,8.89-8.89Z"/>
  <path id="ID0.7555809342302382" class="st13" d="M284.01,424.86l3.75,3.75-8.89,8.89-3.75-3.75,8.89-8.89Z"/>
  <path id="ID0.9415262462571263" class="st13" d="M289.15,419.72l3.75,3.75-3.06,3.06-3.75-3.75,3.06-3.06Z"/>
  <path id="ID0.9456713385879993" class="st16" d="M313.32,395.69l3.75,3.75-8.89,8.89-3.75-3.75,8.89-8.89Z"/>
  <path id="ID0.6705452995374799" class="st13" d="M322.07,386.81l3.75,3.75-8.89,8.89-3.75-3.75,8.89-8.89Z"/>
  <path id="ID0.9189133737236261" class="st13" d="M327.21,381.67l3.75,3.75-3.06,3.06-3.75-3.75,3.06-3.06Z"/>
  <path id="ID0.19736282527446747" class="st16" d="M296.51,412.5l3.75,3.75-8.89,8.89-3.75-3.75,8.89-8.89Z"/>
  <path id="ID0.8186016594991088" class="st13" d="M305.26,403.75l3.75,3.75-8.89,8.89-3.75-3.75,8.89-8.89Z"/>
  <path id="ID0.893851958680898" class="st13" d="M310.54,398.47l3.75,3.75-3.06,3.06-3.75-3.75,3.06-3.06Z"/>
  <path id="ID0.9587239916436374" class="st12" d="M185.54,217.22l-40.97-29.86-15.69-48.19,15.69-48.33,40.97-29.72h50.69l41.11,29.72,15.56,48.33-15.56,48.19-41.11,29.86h-50.69"/>
  <path id="ID0.35315536614507437" class="st11" d="M187.62,210.83l-37.64-27.36-14.44-44.31,14.44-44.31,37.64-27.36h46.53l37.78,27.36,14.31,44.31-14.31,44.31-37.78,27.36h-46.53"/>
  <path id="ID0.22386636259034276" class="st3" d="M149.98,94.86l38.47,5.83,44.03-7.08,25.97,3.61,9.58-5.14-33.89-24.58h-46.53l-37.64,27.36"/>
  <path id="ID0.23571957368403673" class="st2" d="M283.32,148.06l-39.17,1.81-15.69,14.03-26.94,19.86-39.03,8.75,25.14,18.33h46.53l37.78-27.36,11.39-35.42"/>
  <path id="ID0.26323508517816663" class="st9" d="M258.46,97.22l-18.06,41.94,3.75,10.69,39.17-1.81,2.92-8.89-14.31-44.31-3.89-2.78-9.58,5.14"/>
  <path id="ID0.7279615919105709" class="st15" d="M135.54,139.17l36.11,8.89,14.72,23.19,15.14,12.5-39.03,8.75-12.5-9.03-14.44-44.31"/>
  <path id="ID0.9383665965870023" class="st6" d="M461.23,145.14s1.53-1.53,8.75-9.31,10.42-18.47,10.42-18.47h0l-.69-.69h0s-10.69,3.19-18.47,10.42c-7.78,7.22-9.31,8.75-9.31,8.75,0,0-3.61,3.33-9.58,18.06h0l.69.69h0c15-5.83,18.19-9.44,18.19-9.44Z"/>
  <path id="ID0.12489623948931694" class="st10" d="M461.23,143.75s1.53-1.53,8.75-9.31,10.42-18.47,10.42-18.47h0l-.69-.69h0s-10.69,3.19-18.47,10.42-9.31,8.75-9.31,8.75c0,0-3.61,3.33-9.58,18.06h0l.69.69h0c15-5.83,18.19-9.44,18.19-9.44Z"/>
  <path id="ID0.2654515444301069" class="st16" d="M456.51,135.97l2.92,2.92-6.94,6.94-2.92-2.92,6.94-6.94Z"/>
  <path id="ID0.5058324025012553" class="st13" d="M463.6,129.17l2.92,2.92-6.94,6.94-2.92-2.92,6.94-6.94Z"/>
  <path id="ID0.48493798449635506" class="st13" d="M467.62,125l2.92,2.92-2.5,2.5-2.92-2.92,2.5-2.5Z"/>
  <path id="ID0.5791848618537188" class="st6" d="M686.1,54.17s1.53-1.53,8.75-9.31c7.22-7.78,10.42-18.47,10.42-18.47h0l-.69-.69h0s-10.69,3.19-18.47,10.42-9.31,8.75-9.31,8.75c0,0-3.61,3.33-9.58,18.06h0l.69.69h0c15-5.83,18.19-9.44,18.19-9.44Z"/>
  <path id="ID0.960686307400465" class="st10" d="M686.1,52.78s1.53-1.53,8.75-9.31c7.22-7.78,10.42-18.47,10.42-18.47h0l-.69-.69h0s-10.69,3.19-18.47,10.42-9.31,8.75-9.31,8.75c0,0-3.61,3.33-9.58,18.06h0l.69.69h0c15-5.83,18.19-9.44,18.19-9.44Z"/>
  <path id="ID0.2159148915670812" class="st16" d="M681.51,45.14l2.92,2.92-6.94,6.94-2.92-2.92,6.94-6.94Z"/>
  <path id="ID0.21593609172850847" class="st13" d="M688.46,38.19l2.92,2.92-6.94,6.94-2.92-2.92,6.94-6.94Z"/>
  <path id="ID0.3217271692119539" class="st13" d="M692.48,34.03l2.92,2.92-2.5,2.5-2.92-2.92,2.5-2.5Z"/>
  <path id="ID0.5174560234881938" class="st6" d="M472.9,58.75s1.53-1.53,8.75-9.31c7.22-7.78,10.42-18.47,10.42-18.47h0l-.69-.69h0s-10.69,3.19-18.47,10.42c-7.78,7.22-9.31,8.75-9.31,8.75,0,0-3.61,3.33-9.58,18.06h0l.69.69h0c15-5.83,18.19-9.44,18.19-9.44Z"/>
  <path id="ID0.6125934245064855" class="st10" d="M472.9,57.36s1.53-1.53,8.75-9.31,10.42-18.47,10.42-18.47h0l-.69-.69h0s-10.69,3.19-18.47,10.42-9.31,8.75-9.31,8.75c0,0-3.61,3.33-9.58,18.06h0l.69.69h0c15-5.97,18.19-9.44,18.19-9.44Z"/>
  <path id="ID0.31405420741066337" class="st16" d="M468.32,49.72l2.92,2.92-6.94,6.94-2.92-2.92,6.94-6.94Z"/>
  <path id="ID0.372568994294852" class="st13" d="M475.26,42.64l2.92,2.92-6.94,6.94-2.92-2.92,6.94-6.94Z"/>
  <path id="ID0.4230118356645107" class="st13" d="M479.29,38.61l2.92,2.92-2.5,2.5-2.92-2.92,2.5-2.5Z"/>
  <path id="ID0.7797435731627047" class="st6" d="M415.26,58.19s1.53-1.53,8.75-9.31,10.42-18.47,10.42-18.47h0l-.69-.69h0s-10.69,3.19-18.47,10.42-9.31,8.75-9.31,8.75c0,0-3.61,3.33-9.58,18.06h0l.69.69h0c14.86-5.83,18.19-9.44,18.19-9.44Z"/>
  <path id="ID0.2003750423900783" class="st10" d="M415.26,56.81s1.53-1.53,8.75-9.31c7.22-7.78,10.42-18.47,10.42-18.47h0l-.69-.69h0s-10.69,3.19-18.47,10.42c-7.78,7.22-9.31,8.75-9.31,8.75,0,0-3.61,3.33-9.58,18.06h0l.69.69h0c14.86-5.83,18.19-9.44,18.19-9.44Z"/>
  <path id="ID0.1216950323432684" class="st16" d="M410.54,49.17l2.92,2.92-6.94,6.94-2.92-2.92,6.94-6.94Z"/>
  <path id="ID0.35691430885344744" class="st13" d="M417.48,42.22l2.92,2.92-6.94,6.94-2.92-2.92,6.94-6.94Z"/>
  <path id="ID0.5698963054455817" class="st13" d="M421.65,38.06l2.92,2.92-2.5,2.5-2.92-2.92,2.5-2.5Z"/>
  <path id="ID0.7796471230685711" class="st6" d="M363.6,165s1.53-1.53,8.75-9.31c7.22-7.78,10.42-18.47,10.42-18.47h0l-.69-.69h0s-10.69,3.19-18.47,10.42c-7.78,7.22-9.31,8.75-9.31,8.75,0,0-3.61,3.33-9.58,18.06h0l.69.69h0c15-5.97,18.19-9.44,18.19-9.44Z"/>
  <path id="ID0.22844699351117015" class="st10" d="M363.6,163.47s1.53-1.53,8.75-9.31,10.42-18.47,10.42-18.47h0l-.69-.69h0s-10.69,3.19-18.47,10.42c-7.78,7.22-9.31,8.75-9.31,8.75,0,0-3.61,3.33-9.58,18.06h0l.69.69h0c15-5.83,18.19-9.44,18.19-9.44Z"/>
  <path id="ID0.8519572271034122" class="st16" d="M359.01,155.83l2.92,2.92-6.94,6.94-2.92-2.92,6.94-6.94Z"/>
  <path id="ID0.6565716252662241" class="st13" d="M365.96,148.89l2.92,2.92-6.94,6.94-2.92-2.92,6.94-6.94Z"/>
  <path id="ID0.06260419823229313" class="st13" d="M369.98,144.86l2.92,2.92-2.5,2.5-2.92-2.92,2.5-2.5Z"/>
  <path id="ID0.8110218569636345" class="st6" d="M354.43,77.08s1.53-1.53,8.75-9.31c7.22-7.78,10.42-18.47,10.42-18.47h0l-.83-.69h0s-10.69,3.19-18.47,10.42c-7.78,7.22-9.31,8.75-9.31,8.75,0,0-3.61,3.33-9.58,18.06h0l.69.69h0c15-5.97,18.33-9.44,18.33-9.44Z"/>
  <path id="ID0.7164991763420403" class="st10" d="M354.43,75.56s1.53-1.53,8.75-9.31c7.22-7.78,10.42-18.47,10.42-18.47h0l-.83-.56h0s-10.69,3.19-18.47,10.42c-7.78,7.22-9.31,8.75-9.31,8.75,0,0-3.61,3.33-9.58,18.06h0l.69.69h0c15-5.97,18.33-9.58,18.33-9.58Z"/>
  <path id="ID0.548492344096303" class="st16" d="M349.71,67.92l2.92,2.92-6.94,6.94-2.92-2.92,6.94-6.94Z"/>
  <path id="ID0.44299490842968225" class="st13" d="M356.65,60.97l2.92,2.92-6.94,6.94-2.92-2.92,6.94-6.94Z"/>
  <path id="ID0.00915516633540392" class="st13" d="M360.68,56.94l2.92,2.92-2.5,2.5-2.92-2.92,2.5-2.5Z"/>
  <path id="ID0.6607686993665993" class="st7" d="M469.01,90.42c4.44,0,8.47,1.81,11.39,4.72s4.72,6.94,4.72,11.39-1.81,8.47-4.72,11.39-6.94,4.72-11.39,4.72-8.47-1.81-11.39-4.72-4.72-6.94-4.72-11.39,1.81-8.47,4.72-11.39,6.94-4.72,11.39-4.72Z"/>
  <path id="ID0.4073563786223531" class="st7" d="M653.46,91.94c4.03,0,7.64,1.67,10.28,4.31s4.31,6.25,4.31,10.28-1.67,7.64-4.31,10.28-6.25,4.31-10.28,4.31-7.64-1.67-10.28-4.31-4.31-6.25-4.31-10.28,1.67-7.64,4.31-10.28c2.64-2.64,6.25-4.31,10.28-4.31Z"/>
  <path id="ID0.9655676251277328" class="st7" d="M481.1,76.25c3.33,0,6.39,1.39,8.47,3.61,2.22,2.22,3.61,5.28,3.61,8.47s-1.39,6.39-3.61,8.47c-2.22,2.22-5.28,3.47-8.47,3.47s-6.39-1.39-8.47-3.47c-2.22-2.22-3.61-5.28-3.61-8.47s1.39-6.39,3.61-8.47c2.08-2.22,5.14-3.61,8.47-3.61Z"/>
  <path id="ID0.47981860022991896" class="st7" d="M379.01,56.11c3.33,0,6.39,1.39,8.47,3.61,2.22,2.22,3.61,5.28,3.61,8.47s-1.39,6.39-3.61,8.47c-2.22,2.22-5.28,3.47-8.47,3.47s-6.39-1.39-8.47-3.47c-2.22-2.22-3.61-5.28-3.61-8.47s1.39-6.39,3.61-8.47c2.08-2.22,5.14-3.61,8.47-3.61Z"/>
  <path id="ID0.32444718526676297" class="st7" d="M543.6,62.22c3.61,0,6.81,1.53,9.17,3.89s3.89,5.69,3.89,9.17-1.53,6.81-3.89,9.17-5.69,3.89-9.17,3.89-6.81-1.53-9.17-3.89-3.89-5.69-3.89-9.17,1.53-6.81,3.89-9.17,5.56-3.89,9.17-3.89Z"/>
  <path id="ID0.8284318414516747" class="st7" d="M571.37,103.89c3.61,0,6.81,1.53,9.17,3.89,2.36,2.36,3.89,5.69,3.89,9.17s-1.53,6.81-3.89,9.17-5.69,3.89-9.17,3.89-6.81-1.53-9.17-3.89-3.89-5.69-3.89-9.17,1.53-6.81,3.89-9.17c2.36-2.5,5.56-3.89,9.17-3.89Z"/>
  <path id="ID0.7593323811888695" class="st7" d="M395.4,390.42c3.33,0,6.39,1.39,8.47,3.61,2.22,2.22,3.61,5.28,3.61,8.47s-1.39,6.39-3.61,8.61-5.28,3.47-8.47,3.47-6.39-1.39-8.61-3.47c-2.22-2.22-3.47-5.28-3.47-8.61s1.39-6.39,3.47-8.47c2.22-2.22,5.28-3.61,8.61-3.61Z"/>
  <path id="ID0.38129133405163884" class="st7" d="M293.32,370.28c3.33,0,6.39,1.39,8.47,3.61,2.22,2.22,3.61,5.28,3.61,8.47s-1.39,6.39-3.61,8.61-5.28,3.47-8.47,3.47-6.39-1.39-8.61-3.47c-2.22-2.22-3.47-5.28-3.47-8.61s1.39-6.39,3.47-8.47c2.22-2.22,5.28-3.61,8.61-3.61Z"/>
  <path id="ID0.5018413444049656" class="st7" d="M457.9,376.39c3.61,0,6.81,1.53,9.17,3.89s3.89,5.69,3.89,9.17-1.53,6.81-3.89,9.17c-2.36,2.36-5.69,3.89-9.17,3.89s-6.81-1.53-9.17-3.89c-2.36-2.36-3.89-5.69-3.89-9.17s1.53-6.81,3.89-9.17,5.56-3.89,9.17-3.89Z"/>
  <path id="ID0.08762572193518281" class="st0" d="M419.29,109.44c5.28,0,10.14,2.08,13.61,5.56s5.56,8.19,5.56,13.61-2.08,10.14-5.56,13.61-8.19,5.56-13.61,5.56-10.14-2.08-13.61-5.56-5.56-8.19-5.56-13.61,2.08-10.14,5.56-13.61,8.33-5.56,13.61-5.56Z"/>
  <path id="ID0.9442542395554483" class="st0" d="M260.96,306.81c3.19,0,6.11,1.25,8.19,3.33s3.33,5,3.33,8.19-1.25,6.11-3.33,8.19-5,3.33-8.19,3.33-6.11-1.25-8.19-3.33-3.33-5-3.33-8.19,1.25-6.11,3.33-8.19c2.08-2.08,5-3.33,8.19-3.33Z"/>
  <path id="ID0.5872688540257514" class="st7" d="M272.48,337.92c6.39,0,12.22,2.64,16.39,6.81s6.81,10,6.81,16.39-2.64,12.22-6.81,16.39-10,6.81-16.39,6.81-12.22-2.64-16.39-6.81c-4.17-4.17-6.81-10-6.81-16.39s2.64-12.22,6.81-16.39c4.17-4.17,10-6.81,16.39-6.81Z"/>
  <path id="ID0.24729210324585438" class="st0" d="M215.82,384.31c5.28,0,10.14,2.08,13.61,5.56s5.56,8.19,5.56,13.61-2.08,10.14-5.56,13.61-8.19,5.56-13.61,5.56-10.14-2.08-13.61-5.56-5.56-8.19-5.56-13.61,2.08-10.14,5.56-13.61c3.47-3.47,8.33-5.56,13.61-5.56Z"/>
  <path id="ID0.42956255935132504" class="st7" d="M303.73,44.03c3.33,0,6.39,1.39,8.47,3.47s3.61,5.28,3.61,8.47-1.39,6.39-3.61,8.47c-2.22,2.22-5.28,3.61-8.47,3.61s-6.39-1.39-8.61-3.61-3.47-5.28-3.47-8.47,1.39-6.39,3.47-8.47c2.22-2.08,5.28-3.47,8.61-3.47Z"/>
  <path id="ID0.4102535704150796" class="st7" d="M366.23,30c3.61,0,6.81,1.53,9.17,3.89,2.36,2.36,3.89,5.69,3.89,9.17s-1.53,6.81-3.89,9.17-5.69,3.89-9.17,3.89-6.81-1.53-9.17-3.89-3.89-5.69-3.89-9.17,1.53-6.81,3.89-9.17,5.56-3.89,9.17-3.89Z"/>
  <path id="ID0.9665787280537188" class="st14" d="M335.4,371.53L469.01,106.53"/>
  <path id="ID0.44729172391816974" class="st4" d="M604.29,375.42l-7.22,8.33s-.97,1.25-.14,2.08,2.5-.14,2.5-.14l7.64-5.42,2.64.83"/>
  <path id="ID0.10403417842462659" class="st4" d="M615.4,386.53h0c-.42-.28-3.33-2.36-5.97-4.44-2.78-2.36-6.25-5.97-6.25-5.97,0,0-1.67-1.25-1.25-1.67.42-.42.56-.56.56-.56"/>
  <path id="ID0.4636030443944037" class="st4" d="M602.62,373.75l-.42.42s-.69-.56-.28-1.11l.69.69Z"/>
  <path id="ID0.07517143059521914" class="st4" d="M614.15,385.56h-.56l-2.92,2.36s-.56.28-.83,0-.14-.97-.14-.97l1.67-3.33-.14-.42"/>
  <path id="ID0.51359400479123" class="st4" d="M600.82,375.56h0l1.25-1.39.14.14-1.39,1.25Z"/>
  <path id="ID0.0005136812105774879" class="st1" d="M604.29,375.56l8.33-7.22s1.25-.97,2.08-.14c.83.83-.14,2.5-.14,2.5l-5.42,7.64.83,2.64"/>
  <path id="ID0.28061793092638254" class="st1" d="M615.4,386.53s-.14,0,0,0c-.28-.42-2.36-3.33-4.44-5.97-2.36-2.78-5.97-6.25-5.97-6.25,0,0-1.25-1.67-1.67-1.25-.42.42-.56.56-.56.56"/>
  <path id="ID0.23902824940159917" class="st1" d="M602.62,373.75l.42-.42s-.56-.69-1.11-.28l.69.69Z"/>
  <path id="ID0.12657167157158256" class="st1" d="M614.43,385.28v-.56l2.36-2.92s.28-.56,0-.83c-.28-.28-.97-.14-.97-.14l-3.33,1.67-.42-.14"/>
  <path id="ID0.24291260913014412" class="st1" d="M603.04,373.19h0l1.25-1.39.14.14-1.39,1.25Z"/>
  <path id="ID0.447291723918169741" data-name="ID0.44729172391816974" class="st4" d="M621.51,326.11l-7.22,8.33s-.97,1.25-.14,2.08,2.5-.14,2.5-.14l7.64-5.42,2.64.83"/>
  <path id="ID0.104034178424626591" data-name="ID0.10403417842462659" class="st4" d="M632.48,337.08h0c-.42-.28-3.33-2.36-5.97-4.44-2.78-2.36-6.25-5.97-6.25-5.97,0,0-1.67-1.25-1.25-1.67l.56-.56"/>
  <path id="ID0.46360304439440371" data-name="ID0.4636030443944037" class="st4" d="M619.71,324.31l-.42.42s-.69-.56-.28-1.11l.69.69Z"/>
  <path id="ID0.075171430595219141" data-name="ID0.07517143059521914" class="st4" d="M631.23,336.25h-.56l-2.92,2.36s-.56.28-.83,0-.14-.97-.14-.97l1.67-3.33-.14-.42"/>
  <path id="ID0.513594004791231" data-name="ID0.51359400479123" class="st4" d="M617.9,326.11h0l1.25-1.39.14.14-1.39,1.25Z"/>
  <path id="ID0.00051368121057748791" data-name="ID0.0005136812105774879" class="st1" d="M621.51,326.11l8.33-7.22s1.25-.97,2.08-.14-.14,2.5-.14,2.5l-5.42,7.64.83,2.64"/>
  <path id="ID0.280617930926382541" data-name="ID0.28061793092638254" class="st1" d="M632.48,337.08h0c-.28-.42-2.36-3.33-4.44-5.97-2.36-2.78-5.97-6.25-5.97-6.25,0,0-1.25-1.67-1.67-1.25l-.56.56"/>
  <path id="ID0.239028249401599171" data-name="ID0.23902824940159917" class="st1" d="M619.71,324.31l.42-.42s-.56-.69-1.11-.28l.69.69Z"/>
  <path id="ID0.126571671571582561" data-name="ID0.12657167157158256" class="st1" d="M631.51,335.97v-.56l2.36-2.92s.28-.56,0-.83-.97-.14-.97-.14l-3.33,1.67-.42-.14"/>
  <path id="ID0.242912609130144121" data-name="ID0.24291260913014412" class="st1" d="M620.12,323.89h0l1.25-1.39.14.14-1.39,1.25Z"/>
  <path id="ID0.447291723918169742" data-name="ID0.44729172391816974" class="st4" d="M681.93,346.25l-7.22,8.33s-.97,1.25-.14,2.08,2.5-.14,2.5-.14l7.64-5.42,2.64.83"/>
  <path id="ID0.104034178424626592" data-name="ID0.10403417842462659" class="st4" d="M692.9,357.22h0c-.42-.28-3.33-2.36-5.97-4.44-2.78-2.36-6.25-5.97-6.25-5.97,0,0-1.67-1.25-1.25-1.67l.56-.56"/>
  <path id="ID0.46360304439440372" data-name="ID0.4636030443944037" class="st4" d="M680.12,344.44l-.42.42s-.69-.56-.28-1.11l.69.69Z"/>
  <path id="ID0.075171430595219142" data-name="ID0.07517143059521914" class="st4" d="M691.79,356.39h-.56l-2.92,2.36s-.56.28-.83,0-.14-.97-.14-.97l1.67-3.33-.14-.42"/>
  <path id="ID0.513594004791232" data-name="ID0.51359400479123" class="st4" d="M678.32,346.39h0l1.25-1.39.14.14-1.39,1.25Z"/>
  <path id="ID0.00051368121057748792" data-name="ID0.0005136812105774879" class="st1" d="M681.93,346.25l8.33-7.22s1.25-.97,2.08-.14-.14,2.5-.14,2.5l-5.42,7.64.83,2.64"/>
  <path id="ID0.280617930926382542" data-name="ID0.28061793092638254" class="st1" d="M692.9,357.22h0c-.28-.42-2.36-3.33-4.44-5.97-2.36-2.78-5.97-6.25-5.97-6.25,0,0-1.25-1.67-1.67-1.25l-.56.56"/>
  <path id="ID0.239028249401599172" data-name="ID0.23902824940159917" class="st1" d="M680.12,344.58l.42-.42s-.56-.69-1.11-.28l.69.69Z"/>
  <path id="ID0.126571671571582562" data-name="ID0.12657167157158256" class="st1" d="M691.93,356.11v-.56l2.36-2.92s.28-.56,0-.83-.97-.14-.97-.14l-3.33,1.67-.42-.14"/>
  <path id="ID0.242912609130144122" data-name="ID0.24291260913014412" class="st1" d="M680.68,344.03h0l1.25-1.39.14.14-1.39,1.25Z"/>
  <path id="ID0.447291723918169743" data-name="ID0.44729172391816974" class="st4" d="M604.29,261.25l-7.22,8.33s-.97,1.25-.14,2.08,2.5-.14,2.5-.14l7.64-5.42,2.64.83"/>
  <path id="ID0.104034178424626593" data-name="ID0.10403417842462659" class="st4" d="M615.4,272.22h0c-.42-.28-3.33-2.36-5.97-4.44-2.78-2.36-6.25-5.97-6.25-5.97,0,0-1.67-1.25-1.25-1.67l.56-.56"/>
  <path id="ID0.46360304439440373" data-name="ID0.4636030443944037" class="st4" d="M602.62,259.44l-.42.42s-.69-.56-.28-1.11l.69.69Z"/>
  <path id="ID0.075171430595219143" data-name="ID0.07517143059521914" class="st4" d="M614.15,271.39h-.56l-2.92,2.36s-.56.28-.83,0-.14-.97-.14-.97l1.67-3.33-.14-.42"/>
  <path id="ID0.513594004791233" data-name="ID0.51359400479123" class="st4" d="M600.82,261.25h0l1.25-1.39.14.14-1.39,1.25Z"/>
  <path id="ID0.00051368121057748793" data-name="ID0.0005136812105774879" class="st1" d="M604.29,261.25l8.33-7.22s1.25-.97,2.08-.14-.14,2.5-.14,2.5l-5.42,7.64.83,2.64"/>
  <path id="ID0.280617930926382543" data-name="ID0.28061793092638254" class="st1" d="M615.4,272.22s-.14,0,0,0c-.28-.42-2.36-3.33-4.44-5.97-2.36-2.78-5.97-6.25-5.97-6.25,0,0-1.25-1.67-1.67-1.25l-.56.56"/>
  <path id="ID0.239028249401599173" data-name="ID0.23902824940159917" class="st1" d="M602.62,259.44l.42-.42s-.56-.69-1.11-.28l.69.69Z"/>
  <path id="ID0.126571671571582563" data-name="ID0.12657167157158256" class="st1" d="M614.43,271.11v-.56l2.36-2.92s.28-.56,0-.83-.97-.14-.97-.14l-3.33,1.67-.42-.14"/>
  <path id="ID0.242912609130144123" data-name="ID0.24291260913014412" class="st1" d="M603.04,259.03h0l1.25-1.39.14.14-1.39,1.25Z"/>
  <path id="ID0.447291723918169744" data-name="ID0.44729172391816974" class="st4" d="M621.51,211.94l-7.22,8.33s-.97,1.25-.14,2.08,2.5-.14,2.5-.14l7.64-5.42,2.64.83"/>
  <path id="ID0.104034178424626594" data-name="ID0.10403417842462659" class="st4" d="M632.48,222.92h0c-.42-.28-3.33-2.36-5.97-4.44-2.78-2.36-6.25-5.97-6.25-5.97,0,0-1.67-1.25-1.25-1.67l.56-.56"/>
  <path id="ID0.46360304439440374" data-name="ID0.4636030443944037" class="st4" d="M619.71,210.14l-.42.42s-.69-.56-.28-1.11l.69.69Z"/>
  <path id="ID0.075171430595219144" data-name="ID0.07517143059521914" class="st4" d="M631.23,221.94h-.56l-2.92,2.36s-.56.28-.83,0-.14-.97-.14-.97l1.67-3.33-.14-.42"/>
  <path id="ID0.513594004791234" data-name="ID0.51359400479123" class="st4" d="M617.9,211.94h0l1.25-1.39.14.14-1.39,1.25Z"/>
  <path id="ID0.00051368121057748794" data-name="ID0.0005136812105774879" class="st1" d="M621.51,211.94l8.33-7.22s1.25-.97,2.08-.14-.14,2.5-.14,2.5l-5.42,7.64.83,2.64"/>
  <path id="ID0.280617930926382544" data-name="ID0.28061793092638254" class="st1" d="M632.48,222.92h0c-.28-.42-2.36-3.33-4.44-5.97-2.36-2.78-5.97-6.25-5.97-6.25,0,0-1.25-1.67-1.67-1.25l-.56.56"/>
  <path id="ID0.239028249401599174" data-name="ID0.23902824940159917" class="st1" d="M619.71,210.14l.42-.42s-.56-.69-1.11-.28l.69.69Z"/>
  <path id="ID0.126571671571582564" data-name="ID0.12657167157158256" class="st1" d="M631.51,221.67v-.56l2.36-2.92s.28-.56,0-.83-.97-.14-.97-.14l-3.33,1.67-.42-.14"/>
  <path id="ID0.242912609130144124" data-name="ID0.24291260913014412" class="st1" d="M620.12,209.58h0l1.25-1.39.14.14-1.39,1.25Z"/>
  <path id="ID0.447291723918169745" data-name="ID0.44729172391816974" class="st4" d="M681.93,232.08l-7.22,8.33s-.97,1.25-.14,2.08,2.5-.14,2.5-.14l7.64-5.42,2.64.83"/>
  <path id="ID0.104034178424626595" data-name="ID0.10403417842462659" class="st4" d="M692.9,243.06h0c-.42-.28-3.33-2.36-5.97-4.44-2.78-2.36-6.25-5.97-6.25-5.97,0,0-1.67-1.25-1.25-1.67l.56-.56"/>
  <path id="ID0.46360304439440375" data-name="ID0.4636030443944037" class="st4" d="M680.12,230.28l-.42.42s-.69-.56-.28-1.11l.69.69Z"/>
  <path id="ID0.075171430595219145" data-name="ID0.07517143059521914" class="st4" d="M691.79,242.08h-.56l-2.92,2.36s-.56.28-.83,0-.14-.97-.14-.97l1.67-3.33-.14-.42"/>
  <path id="ID0.513594004791235" data-name="ID0.51359400479123" class="st4" d="M678.32,232.08h0l1.25-1.39.14.14-1.39,1.25Z"/>
  <path id="ID0.00051368121057748795" data-name="ID0.0005136812105774879" class="st1" d="M681.93,232.08l8.33-7.22s1.25-.97,2.08-.14-.14,2.5-.14,2.5l-5.42,7.64.83,2.64"/>
  <path id="ID0.280617930926382545" data-name="ID0.28061793092638254" class="st1" d="M692.9,243.06h0c-.28-.42-2.36-3.33-4.44-5.97-2.36-2.78-5.97-6.25-5.97-6.25,0,0-1.25-1.67-1.67-1.25l-.56.56"/>
  <path id="ID0.239028249401599175" data-name="ID0.23902824940159917" class="st1" d="M680.12,230.28l.42-.42s-.56-.69-1.11-.28l.69.69Z"/>
  <path id="ID0.126571671571582565" data-name="ID0.12657167157158256" class="st1" d="M691.93,241.81v-.56l2.36-2.92s.28-.56,0-.83-.97-.14-.97-.14l-3.33,1.67-.42-.14"/>
  <path id="ID0.242912609130144125" data-name="ID0.24291260913014412" class="st1" d="M680.68,229.86h0l1.25-1.39.14.14-1.39,1.25Z"/>
  <path id="ID0.6012597256340086" class="st6" d="M623.18,84.44s1.53-1.53,8.75-9.31c7.22-7.78,10.42-18.47,10.42-18.47h0l-.69-.69h0s-10.69,3.19-18.47,10.42c-7.78,7.22-9.31,8.75-9.31,8.75,0,0-3.61,3.33-9.58,18.06h0l.69.69h0c14.86-5.97,18.19-9.44,18.19-9.44Z"/>
  <path id="ID0.7044607177376747" class="st10" d="M623.18,82.92s1.53-1.53,8.75-9.31c7.22-7.78,10.42-18.47,10.42-18.47h0l-.69-.69h0s-10.69,3.19-18.47,10.42c-7.78,7.22-9.31,8.75-9.31,8.75,0,0-3.61,3.33-9.58,18.06h0l.69.69h0c14.86-5.83,18.19-9.44,18.19-9.44Z"/>
  <path id="ID0.5243358798325062" class="st16" d="M618.46,75.28l2.92,2.92-6.94,6.94-2.92-2.92,6.94-6.94Z"/>
  <path id="ID0.21552344597876072" class="st13" d="M625.4,68.33l2.92,2.92-6.94,6.94-2.92-2.92,6.94-6.94Z"/>
  <path id="ID0.19640581775456667" class="st13" d="M629.57,64.17l2.92,2.92-2.5,2.5-2.92-2.92,2.5-2.5Z"/>
</svg>