<?xml version="1.0" encoding="UTF-8"?>
<svg id="_レイヤー_1" data-name="レイヤー_1" xmlns="http://www.w3.org/2000/svg" version="1.1" viewBox="0 0 800 500">
  <!-- Generator: Adobe Illustrator 30.1.0, SVG Export Plug-In . SVG Version: 2.1.1 Build 136)  -->
  <defs>
    <style>
      .st0 {
        fill: #f2f5c6;
      }

      .st1 {
        fill: #373c46;
      }

      .st2 {
        fill: #e1f2f5;
      }

      .st3 {
        fill: #f9d09e;
      }

      .st4 {
        fill: #fce6d7;
      }

      .st5 {
        stroke: #000;
        stroke-miterlimit: 10;
      }

      .st5, .st6 {
        fill: #fff;
      }

      .st7 {
        fill: #e8427e;
      }

      .st8 {
        fill: #502554;
      }

      .st9 {
        fill: #202126;
      }

      .st10 {
        fill: #221f20;
      }

      .st11 {
        fill: #b3abd4;
      }

      .st12 {
        fill: #1d234e;
      }

      .st13 {
        fill: #2a2c33;
      }

      .st14 {
        fill: #483f51;
      }

      .st15 {
        fill: #6f4075;
      }

      .st16 {
        fill: #8985a1;
      }

      .st17 {
        fill: #956525;
      }

      .st18 {
        fill: #776787;
      }

      .st19 {
        fill: #dd262d;
      }

      .st20 {
        fill: #585b69;
      }
    </style>
  </defs>
  <rect class="st12" x="-21.98" y="-11.12" width="840.69" height="520.57"/>
  <rect class="st5" x="57.61" y="-4.77" width="677.7" height="508.28"/>
  <path id="ID0.6957808416336775" class="st18" d="M-21.98,90.67h840.69v413.54H-21.98V90.67Z"/>
  <path id="ID0.69578084163367751" data-name="ID0.6957808416336775" class="st14" d="M-21.98,465.95h840.69v38.26H-21.98v-38.26Z"/>
  <path id="ID0.69578084163367752" data-name="ID0.6957808416336775" class="st12" d="M48.43-11.12l693.23,2.82-5.65,168.44H55.49L48.43-11.12Z"/>
  <path id="ID0.8751546945422888" class="st12" d="M-21.98,90.53l202.56.14L-21.98,279.16V90.53Z"/>
  <path id="ID0.87515469454228881" data-name="ID0.8751546945422888" class="st12" d="M818.71,90.67l-208.78-.14,208.78,190.32V90.67Z"/>
  <path id="ID0.8064128099940717" class="st0" d="M215.17-5.47h358.19l109,320.21-574.64-1.41L215.17-5.47Z"/>
  <path id="ID0.1953359399922192" class="st11" d="M394.48,210.68c79.49,0,151.49,11.3,203.59,29.37,52.1,18.21,84.43,43.2,84.43,70.88s-32.33,52.8-84.43,70.88c-52.1,18.21-124.1,29.37-203.59,29.37s-151.49-11.3-203.59-29.37c-52.1-18.21-84.43-43.2-84.43-70.88s32.33-52.8,84.43-70.88c52.1-18.21,124.1-29.37,203.59-29.37Z"/>
  <ellipse class="st16" cx="308.21" cy="339.31" rx="132.29" ry="51.96"/>
  <ellipse class="st16" cx="470.02" cy="353.14" rx="50.4" ry="19.77"/>
  <path id="ID0.05544506059959531" class="st1" d="M277.29,235.39c36-13.41,70.88-19.63,98.13-18.64,27.25.99,46.87,9.04,52.52,24,5.65,14.97-3.95,33.89-23.86,52.52-19.91,18.64-50.26,36.85-86.27,50.4-36,13.41-70.88,19.63-98.13,18.64-27.25-.99-46.87-9.04-52.52-24s3.95-33.89,23.86-52.52c20.05-18.64,50.4-36.85,86.27-50.4Z"/>
  <path id="ID0.2695108721964061" class="st13" d="M272.07,221.13c36-13.41,70.88-19.63,98.13-18.64,27.25.99,46.87,9.04,52.52,24,5.65,14.97-3.95,33.89-23.86,52.52-19.91,18.64-50.26,36.85-86.27,50.4-36,13.55-70.88,19.63-98.13,18.64-27.25-.99-46.87-9.04-52.52-24-5.65-14.97,3.95-33.89,23.86-52.52,19.91-18.64,50.26-36.85,86.27-50.4Z"/>
  <path id="ID0.3238772442564368" class="st9" d="M365.25,241.46l-150.79,56.48-76.81-170.98,173.38-64.95,54.22,179.45"/>
  <path id="ID0.18513330770656466" class="st9" d="M279.27,242.88c20.9-7.77,40.94-11.86,56.48-12.14,15.53-.28,26.54,3.39,29.37,10.87,2.82,7.48-3.11,17.37-14.97,27.39-11.86,10.02-29.65,20.19-50.55,27.96-20.9,7.77-40.94,11.86-56.48,12.14-15.53.28-26.54-3.39-29.37-10.87s3.11-17.37,14.97-27.39c11.86-10.02,29.65-20.19,50.55-27.96Z"/>
  <path id="ID0.2403678810223937" class="st20" d="M212.63,63.14c23.86-8.89,46.87-13.55,64.81-13.7,17.79-.14,30.5,3.95,33.74,12.71,3.25,8.61-3.53,20.19-17.08,31.63-13.55,11.58-33.89,23.15-57.89,32.19-23.86,8.89-46.87,13.55-64.81,13.7-17.79.14-30.5-3.95-33.74-12.71-3.25-8.61,3.53-20.19,17.08-31.63,13.55-11.58,33.89-23.3,57.89-32.19Z"/>
  <path id="ID0.22228062385693192" class="st7" d="M213.76,298.22c5.65,14.97,44.05,14.4,85.84-1.27s71.16-40.52,65.65-55.49l-9.46-32.19c5.65,14.97-24.71,40.1-67.49,56.19-42.92,16.1-82.17,16.94-87.82,1.98l13.27,30.78Z"/>
  <path id="Fill" class="st19" d="M509.55,334.08c-7.77,18.92-30.5,27.67-50.69,19.34-20.19-8.33-30.21-30.36-22.45-49.42,7.77-18.92,27.81-21.04,48-12.85,20.19,8.33,32.9,23.86,25.13,42.92Z"/>
  <path id="Outline" class="st10" d="M489.08,291.44c-5.79-2.96-12-4.66-12-4.66-19.48-5.93-36.99-3.39-44.62,15.25-8.61,21.04,2.54,45.74,24.99,54.92,22.45,9.18,47.72-.42,56.33-21.6,8.05-19.77-4.52-34.59-24.71-43.91ZM459.57,351.59c-19.06-7.77-28.52-28.66-21.18-46.45,6.49-15.81,21.88-19.2,38.4-14.4.28.14,11.15,4.38,11.15,4.38,16.38,8.19,26.12,21.88,19.34,38.26-7.34,17.93-28.66,26.12-47.72,18.21Z"/>
  <path id="Line" class="st10" d="M493.17,304.01c-2.54-2.26-5.93-2.82-9.32-3.25-2.82-.28-8.61-1.69-8.61-1.84-1.55-.71-2.96-1.69-4.09-3.39-.42-.71-1.55,0-1.13.71,1.41,3.25,4.38,4.52,7.62,5.37,4.94,1.41,9.46,3.11,14.12,4.8,1.55.56,2.68-1.41,1.41-2.4Z"/>
  <path id="Shine" class="st6" d="M448.84,308.95c-1.84,4.52-.85,9.04-3.39,8.05s-3.11-5.51-1.27-10.02c1.84-4.52,5.37-7.34,7.91-6.21,2.4,1.13-1.41,3.67-3.25,8.19Z"/>
  <path id="Fill1" data-name="Fill" class="st17" d="M478.2,300.34c.56.14,1.27.28,1.84.42,2.68-6.21,5.93-12.28,5.51-19.48-.14-1.98-.42-3.81-.85-5.65-1.69.28-3.25.56-4.94.71,3.11,8.05,2.12,16.24-1.55,24Z"/>
  <path id="Outline1" data-name="Outline" class="st10" d="M487.81,273.51c-.28-.85-.99-1.55-1.98-1.41-2.96.42-5.93.85-8.75,1.41-.99.14-1.84,1.41-1.27,2.4,2.82,5.93,2.82,10.31,2.82,11.15.14,1.69-.28,6.78-2.12,11.01l-.85,2.12c1.69,1.55,7.2,2.12,7.2,2.12.28-.42,1.55-2.82,1.55-2.82.56-.99,6.64-13.41,3.39-25.98ZM480.04,300.62l-1.55-.42.56-1.55c3.11-7.48,3.67-14.68.71-22.17,1.69-.28,3.39-.56,4.94-.71.42,1.84.71,3.67.85,5.65.42,6.64-2.4,11.86-4.94,17.51l-.56,1.69Z"/>
  <path class="st3" d="M658.22,406.79l1.98-30.07s-13.55-31.06-18.35-40.8-18.07-2.96-18.07-2.96c-10.87-7.48-22.59,2.68-22.59,2.68-10.31-4.24-19.48,4.8-19.48,4.8l-21.88-48.71s-4.94-14.97-18.21-9.04c-13.27,5.93-5.22,18.78-5.22,18.78l25.13,56.05-5.22,18.78,11.44,25.41,35.72,30.36,4.94,11.01,54.5-24.43-4.66-11.86ZM549.5,300.2c-5.22,2.26-8.75,5.51-11.44-.42s-.56-12.57,4.52-14.82c5.22-2.26,11.44.56,14.12,6.49,2.68,5.93-2.12,6.49-7.2,8.75Z"/>
  <path class="st4" d="M542.59,284.95c-5.22,2.26-7.2,8.89-4.52,14.82s6.21,2.68,11.44.42c5.22-2.26,9.88-2.96,7.2-8.75-2.68-5.93-8.89-8.75-14.12-6.49Z"/>
  <polygon class="st2" points="665.84 417.1 662.6 418.51 665.28 425.71 611.35 449.86 608.24 442.94 603.44 445.06 607.25 453.53 669.51 425.57 665.84 417.1"/>
  <polygon class="st2" points="665.28 425.71 662.6 418.51 608.24 442.94 611.35 449.86 665.28 425.71"/>
  <polygon class="st8" points="709.47 504.21 673.47 423.88 669.51 425.57 704.81 504.21 709.47 504.21"/>
  <path class="st8" d="M607.25,453.53l-3.95,1.84,3.95-1.84Z"/>
  <polygon class="st8" points="625.75 445.2 652.15 504.21 704.81 504.21 669.51 425.57 607.25 453.53 607.25 453.53 625.75 445.2"/>
  <polygon class="st15" points="607.25 453.53 603.3 455.36 625.32 504.21 629.98 504.21 607.25 453.53"/>
  <polygon class="st15" points="625.75 445.2 607.25 453.53 629.98 504.21 652.15 504.21 625.75 445.2"/>
</svg>