<?xml version="1.0" encoding="UTF-8"?>
<svg id="_レイヤー_1" data-name="レイヤー_1" xmlns="http://www.w3.org/2000/svg" version="1.1" viewBox="0 0 800 500">
  <!-- Generator: Adobe Illustrator 30.1.0, SVG Export Plug-In . SVG Version: 2.1.1 Build 136)  -->
  <defs>
    <style>
      .st0 {
        fill: #826b4e;
      }

      .st1 {
        fill: #e9e9ea;
      }

      .st2 {
        fill: #0d3d8d;
      }

      .st3 {
        fill: #424f3b;
      }

      .st4 {
        fill: #f5a617;
      }

      .st5 {
        fill: #ab9372;
      }

      .st6 {
        fill: none;
        stroke: #ccc;
        stroke-miterlimit: 10;
      }

      .st7 {
        fill: #c5b5b2;
      }

      .st8 {
        fill: #22281e;
      }

      .st9 {
        fill: #675848;
      }

      .st10 {
        fill: #cdaf7e;
      }

      .st11 {
        fill: #37230d;
      }

      .st12 {
        fill: #231815;
      }

      .st13 {
        fill: #e4cba5;
      }

      .st14 {
        fill: #fff;
      }

      .st15 {
        fill: #024424;
      }

      .st16 {
        fill: #a48a65;
      }

      .st17 {
        fill: #b9986e;
      }

      .st18 {
        fill: #004425;
      }

      .st19 {
        fill: #150c06;
      }

      .st20 {
        fill: #f4cc95;
      }

      .st21 {
        fill: #996e25;
      }
    </style>
  </defs>
  <rect class="st14" width="800" height="500"/>
  <rect class="st14" x="66.56" width="666.67" height="500"/>
  <line class="st6" x1="66.56" x2="600.17" y2="500"/>
  <polyline class="st6" points="66.56 500 600.17 0 733.22 125.42"/>
  <polygon class="st6" points="333.36 0 600.17 250 333.36 500 66.56 250 333.36 0"/>
  <line class="st6" x1="66.56" y1="127.08" x2="466.97" y2="500"/>
  <line class="st6" x1="66.56" y1="127.08" x2="197.67"/>
  <line class="st6" x1="466.97" x2="600.17" y2="127.08"/>
  <line class="st6" x1="466.97" y1="500" x2="600.17" y2="374.03"/>
  <line class="st6" x1="66.56" y1="374.03" x2="466.97"/>
  <line class="st6" x1="197.67" x2="600.17" y2="374.03"/>
  <line class="st6" x1="600.17" y1="127.08" x2="197.67" y2="500"/>
  <line class="st6" x1="197.67" y1="500" x2="66.56" y2="374.03"/>
  <polyline class="st6" points="733.22 0 600.17 127.08 666 188.33"/>
  <polyline class="st6" points="733.22 500 600.17 374.03 666.42 312.08"/>
  <polyline class="st6" points="733.22 125.42 666 188.33 732.53 250.42"/>
  <polygon class="st6" points="666 188.33 600.17 250 666.42 312.08 732.53 250.42 666 188.33"/>
  <polyline class="st6" points="732.53 250.42 666.42 312.08 733.22 374.58"/>
  <line class="st6" x1="733.22" y1="375.42" x2="600.17" y2="500"/>
  <rect class="st1" x="519.27" y="116.39" width="3.47" height="3.47" transform="translate(69.07 403.01) rotate(-45)"/>
  <rect class="st1" x="502.75" y="141.6" width="3.47" height="3.47" transform="translate(46.41 398.71) rotate(-45)"/>
  <rect class="st1" x="466.31" y="130.38" width="3.47" height="3.47" transform="translate(43.67 369.66) rotate(-45)"/>
  <rect class="st1" x="449.79" y="155.45" width="3.47" height="3.47" transform="translate(21.1 365.31) rotate(-45)"/>
  <rect class="st1" x="370.36" y="288.32" width="3.47" height="3.47" transform="translate(-96.12 348.07) rotate(-45)"/>
  <rect class="st1" x="353.84" y="313.53" width="3.47" height="3.47" transform="translate(-118.78 343.77) rotate(-45)"/>
  <rect class="st1" x="317.4" y="302.31" width="3.47" height="3.47" transform="translate(-121.52 314.72) rotate(-45)"/>
  <rect class="st1" x="300.78" y="327.42" width="3.47" height="3.47" transform="translate(-144.14 310.32) rotate(-45)"/>
  <rect class="st1" x="512.07" y="408.03" width="3.47" height="3.47" transform="translate(-139.26 483.33) rotate(-45)"/>
  <rect class="st1" x="486.93" y="391.57" width="3.47" height="3.47" transform="translate(-134.98 460.74) rotate(-45)"/>
  <rect class="st1" x="498.13" y="355.21" width="3.47" height="3.47" transform="translate(-105.99 458.01) rotate(-45)"/>
  <rect class="st1" x="472.86" y="338.75" width="3.47" height="3.47" transform="translate(-101.76 435.32) rotate(-45)"/>
  <rect class="st1" x="340.1" y="259.13" width="3.47" height="3.47" transform="translate(-84.34 318.12) rotate(-45)"/>
  <rect class="st1" x="314.97" y="242.67" width="3.47" height="3.47" transform="translate(-80.06 295.53) rotate(-45)"/>
  <rect class="st1" x="326.17" y="206.32" width="3.47" height="3.47" transform="translate(-51.07 292.8) rotate(-45)"/>
  <rect class="st1" x="300.93" y="189.62" width="3.47" height="3.47" transform="translate(-46.66 270.07) rotate(-45)"/>
  <rect class="st1" x="389.06" y="154.44" width="3.47" height="3.47"/>
  <rect class="st1" x="359.61" y="160.56" width="3.47" height="3.47"/>
  <rect class="st1" x="341.83" y="126.94" width="3.47" height="3.47"/>
  <rect class="st1" x="312.39" y="133.06" width="3.47" height="3.47"/>
  <rect class="st1" x="162.25" y="170.69" width="3.47" height="3.47"/>
  <rect class="st1" x="132.67" y="176.81" width="3.47" height="3.47"/>
  <rect class="st1" x="114.89" y="143.19" width="3.47" height="3.47"/>
  <rect class="st1" x="85.44" y="149.31" width="3.47" height="3.47"/>
  <rect class="st1" x="177.67" y="355.56" width="3.47" height="3.47"/>
  <rect class="st1" x="171.56" y="326.11" width="3.47" height="3.47"/>
  <rect class="st1" x="205.17" y="308.33" width="3.47" height="3.47"/>
  <rect class="st1" x="199.06" y="278.89" width="3.47" height="3.47"/>
  <rect class="st1" x="161.42" y="128.75" width="3.47" height="3.47"/>
  <rect class="st1" x="155.31" y="99.31" width="3.47" height="3.47"/>
  <rect class="st1" x="188.92" y="81.39" width="3.47" height="3.47"/>
  <rect class="st1" x="182.81" y="51.94" width="3.47" height="3.47"/>
  <rect class="st1" x="623.64" y="461.71" width="3.47" height="3.47" transform="translate(-144.54 577.95) rotate(-45)"/>
  <rect class="st1" x="598.51" y="445.11" width="3.47" height="3.47" transform="translate(-140.16 555.32) rotate(-45)"/>
  <rect class="st1" x="609.71" y="408.76" width="3.47" height="3.47" transform="translate(-111.17 552.59) rotate(-45)"/>
  <rect class="st1" x="584.43" y="392.3" width="3.47" height="3.47" transform="translate(-106.94 529.9) rotate(-45)"/>
  <rect class="st1" x="451.68" y="312.81" width="3.47" height="3.47" transform="translate(-89.62 412.74) rotate(-45)"/>
  <rect class="st1" x="426.54" y="296.22" width="3.47" height="3.47" transform="translate(-85.24 390.11) rotate(-45)"/>
  <rect class="st1" x="437.74" y="259.86" width="3.47" height="3.47" transform="translate(-56.26 387.38) rotate(-45)"/>
  <rect class="st1" x="412.61" y="243.4" width="3.47" height="3.47" transform="translate(-51.98 364.78) rotate(-45)"/>
  <rect class="st1" x="331.92" y="454.43" width="3.47" height="3.47" transform="translate(-224.83 369.54) rotate(-45)"/>
  <rect class="st1" x="348.35" y="429.32" width="3.47" height="3.47" transform="translate(-202.27 373.8) rotate(-45)"/>
  <rect class="st1" x="384.78" y="440.54" width="3.47" height="3.47" transform="translate(-199.53 402.85) rotate(-45)"/>
  <rect class="st1" x="401.27" y="415.43" width="3.47" height="3.47" transform="translate(-176.94 407.15) rotate(-45)"/>
  <rect class="st1" x="480.83" y="282.5" width="3.47" height="3.47" transform="translate(-59.64 424.48) rotate(-45)"/>
  <rect class="st1" x="497.26" y="257.39" width="3.47" height="3.47" transform="translate(-37.08 428.74) rotate(-45)"/>
  <rect class="st1" x="533.6" y="268.51" width="3.47" height="3.47" transform="translate(-34.3 457.69) rotate(-45)"/>
  <rect class="st1" x="550.18" y="243.5" width="3.47" height="3.47" transform="translate(-11.75 462.09) rotate(-45)"/>
  <rect class="st1" x="585.58" y="331.53" width="3.47" height="3.47"/>
  <rect class="st1" x="579.33" y="302.08" width="3.47" height="3.47"/>
  <rect class="st1" x="613.08" y="284.31" width="3.47" height="3.47"/>
  <rect class="st1" x="606.97" y="254.72" width="3.47" height="3.47"/>
  <rect class="st1" x="569.19" y="104.58" width="3.47" height="3.47"/>
  <rect class="st1" x="563.08" y="75.14" width="3.47" height="3.47"/>
  <rect class="st1" x="596.69" y="57.36" width="3.47" height="3.47"/>
  <rect class="st1" x="590.58" y="27.92" width="3.47" height="3.47"/>
  <rect class="st1" x="384.33" y="120.14" width="3.47" height="3.47"/>
  <rect class="st1" x="413.78" y="114.03" width="3.47" height="3.47"/>
  <rect class="st1" x="431.56" y="147.64" width="3.47" height="3.47"/>
  <rect class="st1" x="461" y="141.53" width="3.47" height="3.47"/>
  <rect class="st1" x="611.14" y="103.89" width="3.47" height="3.47"/>
  <rect class="st1" x="640.72" y="97.64" width="3.47" height="3.47"/>
  <rect class="st1" x="658.5" y="131.39" width="3.47" height="3.47"/>
  <rect class="st1" x="687.94" y="125.28" width="3.47" height="3.47"/>
  <rect class="st1" x="105.15" y="479.43" width="3.47" height="3.47" transform="translate(-308.93 216.51) rotate(-45)"/>
  <rect class="st1" x="121.73" y="454.42" width="3.47" height="3.47" transform="translate(-286.39 220.91) rotate(-45)"/>
  <rect class="st1" x="158.07" y="465.54" width="3.47" height="3.47" transform="translate(-283.61 249.86) rotate(-45)"/>
  <rect class="st1" x="174.5" y="440.43" width="3.47" height="3.47" transform="translate(-261.04 254.12) rotate(-45)"/>
  <path id="ID0.9358860021457076" class="st4" d="M575.44,88.33s10.28,3.89,8.06,13.47c-2.22,9.44-23.19,29.72-28.33,28.19,0,0-5.28-5.69-.28-9.58,4.86-3.89,14.86-14.31,15.69-21.81"/>
  <path id="ID0.37323483312502503" class="st21" d="M560.58,75.83s-4.86-10-14.03-6.94c-9.17,3.06-27.64,25.69-25.69,30.69,0,0,6.11,4.72,9.58-.56s12.92-15.97,20.28-17.64"/>
  <path id="ID0.9077981454320252" class="st4" d="M569.75,80s21.94,15.42,12.92,26.25c-9.17,10.83-28.19-8.06-28.19-8.06"/>
  <path id="ID0.15716829942539334" class="st21" d="M569.75,80s-18.89-19.03-28.06-8.19c-9.17,10.83,12.64,26.39,12.64,26.39"/>
  <path id="ID0.147848563734442" class="st3" d="M557.39,128.47c-.42,1.39-1.25,2.78-2.5,3.47s-2.78.97-4.17.69c-1.39-.42-2.78-1.25-3.47-2.5-.83-1.11-.97-2.78-.69-4.17.42-1.39,1.25-2.78,2.5-3.47,1.11-.83,2.78-.97,4.17-.69,1.39.42,2.78,1.25,3.47,2.5s1.11,2.64.69,4.17Z"/>
  <path id="ID0.3762378222309053" class="st3" d="M529.89,106.25c-.97,1.25-2.36,1.81-3.75,2.08-1.53.14-2.92-.28-4.17-1.39-1.25-.97-1.81-2.36-2.08-3.75-.14-1.53.28-2.92,1.39-4.17.97-1.25,2.36-1.81,3.75-2.08,1.53-.14,2.92.28,4.17,1.39,1.25.97,1.81,2.36,2.08,3.75.14,1.53-.42,3.06-1.39,4.17Z"/>
  <path id="ID0.4208619496785104" class="st3" d="M572.94,101.67c-3.33,3.89-7.5,6.25-11.81,6.81-4.44.69-8.75-.42-12.08-3.19s-5.14-6.94-5.28-11.39,1.53-9.03,4.72-12.78,7.5-6.25,11.81-6.81c4.44-.69,8.75.42,12.08,3.19s5.14,6.94,5.28,11.39c.14,4.31-1.53,8.89-4.72,12.78Z"/>
  <path id="ID0.9302381505258381" class="st8" d="M548.92,105.28c-6.81-5.69-7.08-16.53-.56-24.31s17.22-9.31,24.03-3.61"/>
  <path id="ID0.036668731831014156" class="st3" d="M552.25,107.5c-.69.83-1.67,1.25-2.64,1.25-.97.14-2.08-.14-2.92-.83s-1.25-1.67-1.25-2.64c-.14-.97.14-2.08.83-2.78.69-.83,1.67-1.25,2.78-1.39.97-.14,2.08.14,2.78.83.83.69,1.25,1.67,1.39,2.78,0,.97-.28,1.94-.97,2.78Z"/>
  <path id="ID0.4924301630817354" class="st8" d="M546.69,108.06c-1.67-1.39-1.81-3.89-.42-5.42,1.39-1.67,3.89-1.81,5.42-.42"/>
  <path id="ID0.5951706999912858" class="st11" d="M577.67,100.69c-3.33,3.89-7.78,6.11-12.36,6.39-4.72.42-9.44-.97-13.19-4.17-3.89-3.33-6.11-7.78-6.39-12.36-.42-4.72.97-9.44,4.17-13.19,3.33-3.89,7.78-6.11,12.36-6.39,4.72-.42,9.44.97,13.19,4.17,3.89,3.33,6.11,7.78,6.39,12.36.42,4.44-.97,9.31-4.17,13.19Z"/>
  <path id="ID0.7435610191896558" class="st19" d="M551.97,102.78c-7.64-6.53-8.61-17.92-2.22-25.56s17.92-8.61,25.56-2.22"/>
  <path id="ID0.93588600214570761" data-name="ID0.9358860021457076" class="st4" d="M412.67,54.72s8.19-7.36,15.69-1.11,15.97,34.17,12.22,38.06c0,0-7.36,2.08-8.61-4.03s-5.97-19.72-12.22-23.89"/>
  <path id="ID0.373234833125025031" data-name="ID0.37323483312502503" class="st21" d="M394.75,62.22s-11.11-.28-12.64,9.44c-1.53,9.72,10.42,36.25,15.69,36.81,0,0,7.08-3.33,3.89-8.75s-8.33-18.75-6.53-25.97"/>
  <path id="ID0.90779814543202521" data-name="ID0.9077981454320252" class="st4" d="M402.53,56.11s23.75-12.64,29.17.42c5.56,13.06-20,21.53-20,21.53"/>
  <path id="ID0.157168299425393341" data-name="ID0.15716829942539334" class="st21" d="M402.53,56.11s-25.56,8.19-20,21.25c5.56,13.06,29.31.69,29.31.69"/>
  <path id="ID0.1478485637344421" data-name="ID0.147848563734442" class="st3" d="M440.17,89.03c1.11.97,1.94,2.36,1.94,3.89,0,1.39-.42,2.92-1.39,4.03s-2.36,1.94-3.89,1.94c-1.39.14-2.92-.42-4.03-1.39s-1.94-2.36-1.94-3.89c-.14-1.39.42-2.92,1.39-4.03s2.36-1.94,3.89-1.94,2.92.28,4.03,1.39Z"/>
  <path id="ID0.37623782223090531" data-name="ID0.3762378222309053" class="st3" d="M407.94,103.47c.56,1.53.56,2.92.14,4.31-.56,1.39-1.53,2.36-3.06,3.06-1.53.56-2.92.56-4.31.14-1.39-.56-2.36-1.53-3.06-3.06s-.56-2.92-.14-4.31c.56-1.39,1.53-2.36,3.06-3.06,1.53-.56,2.92-.56,4.31-.14,1.39.56,2.5,1.67,3.06,3.06Z"/>
  <path id="ID0.42086194967851041" data-name="ID0.4208619496785104" class="st3" d="M423.36,63.06c1.94,4.72,2.08,9.58.69,13.61-1.39,4.17-4.31,7.64-8.33,9.31-4.03,1.67-8.47,1.39-12.5-.56s-7.36-5.42-9.31-10-2.08-9.58-.69-13.61c1.39-4.17,4.31-7.64,8.33-9.31s8.47-1.39,12.5.56c4.03,1.81,7.36,5.28,9.31,10Z"/>
  <path id="ID0.93023815052583811" data-name="ID0.9302381505258381" class="st8" d="M415.72,86.11c-8.19,3.47-17.92-1.25-21.81-10.56-3.89-9.31-.42-19.58,7.64-23.06"/>
  <path id="ID0.0366687318310141561" data-name="ID0.036668731831014156" class="st3" d="M419.19,84.17c.42.97.42,1.94,0,2.92-.42.83-1.11,1.81-2.08,2.22-.97.42-1.94.42-2.92,0-.83-.42-1.81-1.11-2.08-1.94-.42-.97-.42-1.94,0-3.06.42-.83,1.11-1.81,1.94-2.08.97-.42,1.94-.42,3.06,0,.97.28,1.67.97,2.08,1.94Z"/>
  <path id="ID0.49243016308173541" data-name="ID0.4924301630817354" class="st8" d="M417.25,89.17c-1.94.83-4.31-.14-5.14-2.08-.83-1.94.14-4.31,2.08-5.14"/>
  <path id="ID0.59517069999128581" data-name="ID0.5951706999912858" class="st11" d="M424.61,58.33c1.94,4.72,1.94,9.58.14,13.89-1.81,4.44-5.14,8.06-9.72,9.86-4.72,1.94-9.58,1.94-13.89.14-4.44-1.81-8.06-5.14-9.86-9.72-1.94-4.72-1.94-9.58-.14-13.89,1.81-4.44,5.14-8.06,9.72-9.86,4.72-1.94,9.58-1.94,13.89-.14,4.31,1.67,7.92,5,9.86,9.72Z"/>
  <path id="ID0.74356101918965581" data-name="ID0.7435610191896558" class="st19" d="M414.89,82.22c-9.31,3.89-19.86-.42-23.89-9.72-3.89-9.31.42-19.86,9.72-23.89"/>
  <path id="ID0.93588600214570762" data-name="ID0.9358860021457076" class="st4" d="M486.83,102.22s10.83-2.36,14.17,6.81-2.92,37.64-8.06,39.17c0,0-7.5-1.81-5.56-7.78,1.94-5.97,4.58-20,1.11-26.81"/>
  <path id="ID0.373234833125025032" data-name="ID0.37323483312502503" class="st21" d="M467.53,99.86s-9.58-5.69-15.56,1.94c-5.97,7.64-8.89,36.67-4.58,39.72,0,0,7.78.69,7.64-5.69,0-6.39,1.94-20.42,7.22-25.83"/>
  <path id="ID0.90779814543202522" data-name="ID0.9077981454320252" class="st4" d="M477.39,98.33s26.81.69,25.14,14.86c-1.67,14.03-27.92,8.75-27.92,8.75"/>
  <path id="ID0.157168299425393342" data-name="ID0.15716829942539334" class="st21" d="M477.39,98.33s-26.25-5.56-27.92,8.61c-1.67,14.03,25.14,15.14,25.14,15.14"/>
  <path id="ID0.1478485637344422" data-name="ID0.147848563734442" class="st3" d="M493.78,145.69c.56,1.39.42,3.06-.28,4.31s-1.81,2.36-3.19,2.92-3.06.42-4.31-.28c-1.25-.56-2.36-1.81-2.92-3.19s-.42-3.06.28-4.31c.56-1.25,1.81-2.36,3.19-2.92s3.06-.42,4.31.28c1.39.69,2.5,1.67,2.92,3.19Z"/>
  <path id="ID0.37623782223090532" data-name="ID0.3762378222309053" class="st3" d="M458.64,142.22c-.14,1.53-.97,2.78-2.08,3.75-1.25.97-2.64,1.25-4.17,1.11s-2.78-.97-3.75-2.08c-.97-1.25-1.25-2.64-1.11-4.17s.97-2.78,2.08-3.75c1.25-.97,2.64-1.25,4.17-1.11s2.78.97,3.75,2.08c.97,1.25,1.39,2.64,1.11,4.17Z"/>
  <path id="ID0.42086194967851042" data-name="ID0.4208619496785104" class="st3" d="M492.11,114.86c-.56,5-2.92,9.31-6.11,12.22-3.33,2.92-7.5,4.44-11.94,4.03s-8.19-2.92-10.69-6.67c-2.5-3.61-3.75-8.33-3.19-13.33.56-4.86,2.92-9.31,6.11-12.22,3.33-2.92,7.5-4.44,11.94-4.03,4.44.56,8.19,2.92,10.69,6.67,2.5,3.47,3.75,8.19,3.19,13.33Z"/>
  <path id="ID0.93023815052583812" data-name="ID0.9302381505258381" class="st8" d="M474.06,130.97c-8.75-.97-15-10-13.75-20,1.25-10,9.31-17.22,18.06-16.11"/>
  <path id="ID0.0366687318310141562" data-name="ID0.036668731831014156" class="st3" d="M478.08,131.11c-.14,1.11-.69,1.94-1.53,2.5-.69.56-1.81.97-2.92.83s-1.94-.69-2.5-1.53c-.56-.69-.97-1.81-.83-2.78.14-1.11.69-1.94,1.53-2.64.69-.56,1.81-.97,2.78-.83,1.11.14,1.94.69,2.64,1.53.69.83.97,1.81.83,2.92Z"/>
  <path id="ID0.49243016308173542" data-name="ID0.4924301630817354" class="st8" d="M473.78,134.44c-2.08-.28-3.61-2.22-3.33-4.31s2.22-3.61,4.31-3.33"/>
  <path id="ID0.59517069999128582" data-name="ID0.5951706999912858" class="st11" d="M495.44,111.25c-.56,5-3.06,9.31-6.81,12.08-3.75,2.92-8.47,4.44-13.33,3.75-5-.56-9.31-3.06-12.08-6.81-2.92-3.75-4.44-8.47-3.75-13.33.56-5,3.06-9.31,6.81-12.08,3.75-2.92,8.47-4.44,13.33-3.75,5,.56,9.31,3.06,12.08,6.81,2.92,3.61,4.31,8.33,3.75,13.33Z"/>
  <path id="ID0.74356101918965582" data-name="ID0.7435610191896558" class="st19" d="M475.31,127.22c-10-1.11-17.08-10.28-15.97-20.14,1.11-10,10.28-17.08,20.14-15.97"/>
  <path id="ID0.93588600214570763" data-name="ID0.9358860021457076" class="st4" d="M637.94,143.06s6.94,8.61.28,15.69c-6.67,7.08-35,14.31-38.61,10.28,0,0-1.67-7.5,4.44-8.47,6.25-.97,20-5,24.44-10.97"/>
  <path id="ID0.373234833125025033" data-name="ID0.37323483312502503" class="st21" d="M631.28,124.86s.83-11.11-8.75-13.06c-9.58-1.94-36.81,8.47-37.5,13.75,0,0,2.92,7.22,8.47,4.31,5.69-2.92,19.03-7.36,26.25-5.14"/>
  <path id="ID0.90779814543202523" data-name="ID0.9077981454320252" class="st4" d="M637.11,132.92s11.39,24.31-1.94,29.17c-13.33,4.86-20.42-20.97-20.42-20.97"/>
  <path id="ID0.157168299425393343" data-name="ID0.15716829942539334" class="st21" d="M637.11,132.92s-6.81-25.97-20.14-21.11c-13.33,4.86-2.22,29.31-2.22,29.31"/>
  <path id="ID0.1478485637344423" data-name="ID0.147848563734442" class="st3" d="M602.25,168.75c-.97,1.11-2.5,1.81-3.89,1.67-1.39,0-2.92-.56-4.03-1.53s-1.81-2.5-1.67-3.89c-.14-1.39.56-2.92,1.53-4.03s2.5-1.81,3.89-1.67c1.39-.14,2.92.56,4.03,1.53s1.81,2.5,1.67,3.89c-.14,1.53-.42,2.92-1.53,4.03Z"/>
  <path id="ID0.37623782223090533" data-name="ID0.3762378222309053" class="st3" d="M589.47,135.83c-1.53.56-3.06.42-4.31-.14-1.39-.69-2.36-1.67-2.92-3.19-.56-1.53-.42-3.06.14-4.31.69-1.39,1.67-2.36,3.19-2.92s3.06-.42,4.31.14c1.39.69,2.36,1.67,2.92,3.19.56,1.53.42,3.06-.14,4.31-.56,1.39-1.81,2.36-3.19,2.92Z"/>
  <path id="ID0.42086194967851043" data-name="ID0.4208619496785104" class="st3" d="M629.06,153.33c-4.72,1.67-9.58,1.67-13.61,0-4.17-1.67-7.36-4.72-8.89-8.89-1.53-4.17-.97-8.61,1.11-12.5s5.83-7.08,10.42-8.75c4.58-1.67,9.58-1.67,13.61,0,4.17,1.67,7.36,4.72,8.89,8.89s.97,8.61-1.11,12.5c-1.94,3.89-5.69,7.08-10.42,8.75Z"/>
  <path id="ID0.93023815052583813" data-name="ID0.9302381505258381" class="st8" d="M606.42,144.44c-3.06-8.33,2.22-17.92,11.67-21.25,9.44-3.47,19.58.56,22.5,8.89"/>
  <path id="ID0.0366687318310141563" data-name="ID0.036668731831014156" class="st3" d="M608.22,148.06c-.97.42-2.08.28-2.92-.28-.83-.42-1.67-1.25-2.08-2.22s-.28-2.08.28-2.92c.42-.83,1.25-1.67,2.08-2.08.97-.42,2.08-.28,3.06.14.83.42,1.67,1.25,2.08,2.08.42.97.28,2.08-.14,3.06-.69,1.25-1.39,1.94-2.36,2.22Z"/>
  <path id="ID0.49243016308173543" data-name="ID0.4924301630817354" class="st8" d="M603.22,145.83c-.69-1.94.28-4.31,2.36-5,1.94-.69,4.31.28,5,2.36"/>
  <path id="ID0.59517069999128583" data-name="ID0.5951706999912858" class="st11" d="M633.64,154.86c-4.72,1.67-9.72,1.39-13.89-.69-4.31-1.94-7.78-5.56-9.44-10.28-1.67-4.72-1.39-9.72.69-13.89,1.94-4.31,5.56-7.78,10.28-9.44,4.72-1.67,9.72-1.39,13.89.69,4.31,1.94,7.78,5.56,9.44,10.28,1.67,4.72,1.39,9.72-.69,13.89-1.94,4.17-5.42,7.64-10.28,9.44Z"/>
  <path id="ID0.74356101918965583" data-name="ID0.7435610191896558" class="st19" d="M610.31,143.89c-3.47-9.44,1.53-19.86,10.83-23.33,9.44-3.47,19.86,1.53,23.33,10.83"/>
  <path id="ID0.93588600214570764" data-name="ID0.9358860021457076" class="st4" d="M349.61,78.33s10-4.58,15.28,3.61c5.28,8.19,5.14,37.36.42,40,0,0-7.64-.14-7.08-6.39.56-6.25.14-20.56-4.58-26.39"/>
  <path id="ID0.373234833125025034" data-name="ID0.37323483312502503" class="st21" d="M330.31,80.28s-10.56-3.47-14.86,5.28c-4.31,8.75-.83,37.64,4.03,39.72,0,0,7.64-.97,6.25-7.22-1.39-6.11-2.36-20.28,1.53-26.81"/>
  <path id="ID0.90779814543202524" data-name="ID0.9077981454320252" class="st4" d="M339.61,76.67s26.39-5,27.78,9.03c1.39,14.03-25.42,14.58-25.42,14.58"/>
  <path id="ID0.157168299425393344" data-name="ID0.15716829942539334" class="st21" d="M339.61,76.67s-26.81.28-25.42,14.31c1.39,14.03,27.78,9.31,27.78,9.31"/>
  <path id="ID0.1478485637344424" data-name="ID0.147848563734442" class="st3" d="M365.72,119.31c.83,1.25,1.11,2.92.69,4.17-.42,1.39-1.25,2.64-2.5,3.47-1.25.83-2.92,1.11-4.17.69-1.39-.28-2.64-1.25-3.47-2.5s-1.11-2.92-.69-4.17c.28-1.39,1.25-2.64,2.5-3.47s2.92-1.11,4.17-.69c1.39.42,2.64,1.11,3.47,2.5Z"/>
  <path id="ID0.37623782223090534" data-name="ID0.3762378222309053" class="st3" d="M330.58,123.47c.14,1.53-.42,3.06-1.25,4.17-.97,1.11-2.22,1.81-3.89,1.94-1.53.14-3.06-.42-4.17-1.25-1.11-.97-1.81-2.22-1.94-3.89s.42-3.06,1.25-4.17c.97-1.11,2.22-1.81,3.89-1.94,1.53-.14,3.06.42,4.17,1.25,1.11.97,1.81,2.36,1.94,3.89Z"/>
  <path id="ID0.42086194967851044" data-name="ID0.4208619496785104" class="st3" d="M357.39,89.44c.56,5-.83,9.72-3.33,13.19-2.64,3.61-6.39,5.97-10.83,6.39-4.44.42-8.61-1.11-11.81-4.17s-5.42-7.36-5.97-12.36.83-9.72,3.33-13.19c2.64-3.61,6.39-5.97,10.83-6.39s8.61,1.11,11.81,4.17c3.33,3.06,5.42,7.36,5.97,12.36Z"/>
  <path id="ID0.93023815052583814" data-name="ID0.9302381505258381" class="st8" d="M343.22,109.17c-8.75.83-16.81-6.53-17.78-16.53s5.42-18.75,14.17-19.72"/>
  <path id="ID0.0366687318310141564" data-name="ID0.036668731831014156" class="st3" d="M347.11,108.33c.14,1.11-.14,2.08-.97,2.78-.56.69-1.67,1.39-2.64,1.53s-2.08-.14-2.78-.97c-.69-.56-1.39-1.67-1.53-2.5-.14-1.11.14-2.08.97-2.92.56-.69,1.67-1.39,2.5-1.53,1.11-.14,2.08.14,2.92.97.97.69,1.53,1.67,1.53,2.64Z"/>
  <path id="ID0.49243016308173544" data-name="ID0.4924301630817354" class="st8" d="M343.64,112.64c-2.08.28-4.03-1.39-4.31-3.47-.28-2.08,1.39-4.03,3.47-4.31"/>
  <path id="ID0.59517069999128584" data-name="ID0.5951706999912858" class="st11" d="M359.89,85.28c.56,5-1.11,9.72-4.03,13.33-3.06,3.61-7.36,6.11-12.22,6.53-5,.56-9.72-1.11-13.33-4.03-3.61-3.06-6.11-7.36-6.53-12.22-.56-5,1.11-9.72,4.03-13.33,3.06-3.61,7.36-6.11,12.22-6.53,5-.56,9.72,1.11,13.33,4.03,3.61,2.92,6.11,7.22,6.53,12.22Z"/>
  <path id="ID0.74356101918965584" data-name="ID0.7435610191896558" class="st19" d="M343.64,105.28c-10,.97-18.89-6.39-19.86-16.25-.97-10,6.39-18.89,16.25-19.86"/>
  <path id="ID0.93588600214570765" data-name="ID0.9358860021457076" class="st4" d="M209.47,47.08s5.69-9.44,14.58-5.69,25.42,27.92,22.92,32.78c0,0-6.39,4.17-9.44-1.25-3.06-5.42-11.53-17.08-18.75-19.17"/>
  <path id="ID0.373234833125025035" data-name="ID0.37323483312502503" class="st21" d="M194.75,59.44s-10.69,3.06-9.31,12.64,20.56,31.67,25.83,30.56c0,0,5.83-5.14,1.11-9.44-4.72-4.31-13.47-15.42-13.89-22.92"/>
  <path id="ID0.90779814543202525" data-name="ID0.9077981454320252" class="st4" d="M200.31,51.25s18.89-19.03,28.06-8.19-12.78,26.39-12.78,26.39"/>
  <path id="ID0.157168299425393345" data-name="ID0.15716829942539334" class="st21" d="M200.31,51.25s-22.08,15.28-12.92,26.25c9.17,10.97,28.19-7.92,28.19-7.92"/>
  <path id="ID0.1478485637344425" data-name="ID0.147848563734442" class="st3" d="M246,71.81c1.39.56,2.5,1.81,2.92,3.06.42,1.39.56,2.92-.14,4.31s-1.81,2.5-3.06,2.92c-1.25.56-2.92.56-4.31-.14s-2.5-1.81-2.92-3.06c-.56-1.25-.56-2.92.14-4.31.56-1.39,1.81-2.5,3.06-2.92s2.78-.56,4.31.14Z"/>
  <path id="ID0.37623782223090535" data-name="ID0.3762378222309053" class="st3" d="M219.33,95c.97,1.25,1.39,2.64,1.39,4.17-.14,1.53-.83,2.78-2.08,3.75s-2.64,1.39-4.17,1.39c-1.53-.14-2.78-.83-3.75-2.08s-1.39-2.64-1.39-4.17c.14-1.53.83-2.78,2.08-3.75s2.64-1.39,4.17-1.39c1.53.14,2.92.97,3.75,2.08Z"/>
  <path id="ID0.42086194967851045" data-name="ID0.4208619496785104" class="st3" d="M222.25,51.81c3.33,3.89,4.86,8.47,4.72,12.78-.14,4.44-1.94,8.61-5.28,11.39s-7.78,3.89-12.08,3.19c-4.44-.69-8.61-3.06-11.81-6.81-3.19-3.75-4.86-8.47-4.72-12.78.14-4.44,1.94-8.61,5.28-11.39s7.78-3.89,12.08-3.19c4.31.56,8.61,2.92,11.81,6.81Z"/>
  <path id="ID0.93023815052583815" data-name="ID0.9302381505258381" class="st8" d="M221.69,76.11c-6.81,5.69-17.5,4.03-24.03-3.61s-6.11-18.61.69-24.31"/>
  <path id="ID0.0366687318310141565" data-name="ID0.036668731831014156" class="st3" d="M224.47,73.19c.69.83.97,1.81.83,2.78s-.56,2.08-1.39,2.78-1.81.97-2.78.83c-.97-.14-2.08-.56-2.64-1.25-.69-.83-.97-1.81-.83-2.92.14-.97.56-2.08,1.25-2.64.83-.69,1.81-.97,2.92-.83,1.11,0,1.94.42,2.64,1.25Z"/>
  <path id="ID0.49243016308173545" data-name="ID0.4924301630817354" class="st8" d="M224.06,78.61c-1.67,1.39-4.03,1.11-5.42-.42-1.39-1.67-1.11-4.03.42-5.42"/>
  <path id="ID0.59517069999128585" data-name="ID0.5951706999912858" class="st11" d="M222.11,46.94c3.33,3.89,4.58,8.61,4.17,13.33s-2.64,9.17-6.39,12.36c-3.89,3.33-8.61,4.58-13.33,4.17s-9.17-2.64-12.36-6.39c-3.33-3.89-4.58-8.61-4.17-13.33.42-4.72,2.64-9.17,6.39-12.36,3.89-3.33,8.61-4.58,13.33-4.17,4.58.42,9.03,2.5,12.36,6.39Z"/>
  <path id="ID0.74356101918965585" data-name="ID0.7435610191896558" class="st19" d="M219.89,72.64c-7.64,6.39-19.17,5.42-25.56-2.22s-5.56-19.17,2.08-25.69"/>
  <path id="ID0.93588600214570766" data-name="ID0.9358860021457076" class="st4" d="M277.94,124.31s9.58-5.42,15.56,2.36c5.83,7.78,8.19,36.81,3.75,39.86,0,0-7.64.42-7.64-5.83s-1.53-20.56-6.81-25.97"/>
  <path id="ID0.373234833125025036" data-name="ID0.37323483312502503" class="st21" d="M258.92,127.78s-10.83-2.64-14.31,6.39c-3.47,9.03,2.22,37.64,7.36,39.31,0,0,7.64-1.67,5.69-7.64-1.94-5.97-4.03-20-.69-26.81"/>
  <path id="ID0.90779814543202526" data-name="ID0.9077981454320252" class="st4" d="M267.94,123.47s25.83-7.22,28.47,6.81c2.5,13.89-24.17,16.67-24.17,16.67"/>
  <path id="ID0.157168299425393346" data-name="ID0.15716829942539334" class="st21" d="M267.94,123.47s-26.81,2.5-24.17,16.39c2.5,13.89,28.47,7.08,28.47,7.08"/>
  <path id="ID0.1478485637344426" data-name="ID0.147848563734442" class="st3" d="M297.53,163.89c.83,1.25,1.25,2.78.97,4.17s-.97,2.78-2.22,3.61-2.78,1.25-4.17.97c-1.39-.14-2.78-.97-3.61-2.22s-1.25-2.78-.97-4.17c.14-1.39.97-2.78,2.22-3.61,1.25-.83,2.78-1.25,4.17-.97,1.25.28,2.64.83,3.61,2.22Z"/>
  <path id="ID0.37623782223090536" data-name="ID0.3762378222309053" class="st3" d="M262.81,170.83c.28,1.53-.14,3.06-.83,4.17-.83,1.25-2.08,1.94-3.61,2.36-1.53.28-3.06-.14-4.17-.83-1.25-.83-1.94-2.08-2.36-3.61-.28-1.53.14-3.06.83-4.17.83-1.25,2.08-1.94,3.61-2.36s3.06.14,4.17.83c1.39.83,2.08,2.22,2.36,3.61Z"/>
  <path id="ID0.42086194967851046" data-name="ID0.4208619496785104" class="st3" d="M286.69,134.86c.97,5,0,9.72-2.36,13.47-2.36,3.75-5.83,6.53-10.28,7.36s-8.61-.42-12.08-3.19-5.97-6.94-6.94-11.81c-.83-4.86,0-9.72,2.36-13.47s5.83-6.53,10.28-7.36,8.61.42,12.08,3.19c3.47,2.64,6.11,6.81,6.94,11.81Z"/>
  <path id="ID0.93023815052583816" data-name="ID0.9302381505258381" class="st8" d="M274.19,155.56c-8.75,1.53-17.22-5.14-19.03-15-1.81-9.86,3.89-19.17,12.5-20.83"/>
  <path id="ID0.0366687318310141566" data-name="ID0.036668731831014156" class="st3" d="M278.08,154.44c.14,1.11,0,2.08-.69,2.78-.56.83-1.53,1.53-2.5,1.67-1.11.14-2.08,0-2.78-.69-.83-.56-1.53-1.53-1.67-2.36-.14-1.11,0-2.08.69-2.92.56-.83,1.53-1.53,2.36-1.67,1.11-.14,2.08,0,2.92.69.97.56,1.53,1.53,1.67,2.5Z"/>
  <path id="ID0.49243016308173546" data-name="ID0.4924301630817354" class="st8" d="M275.03,159.03c-2.08.42-4.17-.97-4.44-3.06-.42-2.08.97-4.17,3.06-4.44"/>
  <path id="ID0.59517069999128586" data-name="ID0.5951706999912858" class="st11" d="M288.92,130.42c.97,5-.28,9.86-2.92,13.61-2.64,3.89-6.81,6.67-11.67,7.5-5,.97-9.86-.28-13.61-2.92-3.89-2.64-6.67-6.81-7.5-11.67-.97-5,.28-9.86,2.92-13.61,2.64-3.89,6.81-6.67,11.67-7.5,5-.97,9.86.28,13.61,2.92,3.75,2.64,6.53,6.67,7.5,11.67Z"/>
  <path id="ID0.74356101918965586" data-name="ID0.7435610191896558" class="st19" d="M274.33,151.67c-9.86,1.81-19.31-4.72-21.11-14.58s4.72-19.31,14.58-21.11"/>
  <path id="ID0.93588600214570767" data-name="ID0.9358860021457076" class="st4" d="M406.83,141.39s10.56-3.33,14.72,5.42c4.17,8.75.69,37.78-4.31,39.72,0,0-7.64-1.11-6.25-7.22,1.39-6.11,2.64-20.42-1.39-26.81"/>
  <path id="ID0.373234833125025037" data-name="ID0.37323483312502503" class="st21" d="M387.39,140.97s-10-4.72-15.28,3.47c-5.28,8.19-5.28,37.36-.69,40,0,0,7.78-.14,7.08-6.39s0-20.42,4.72-26.39"/>
  <path id="ID0.90779814543202527" data-name="ID0.9077981454320252" class="st4" d="M397.11,138.61s26.81-1.81,26.53,12.36c-.28,14.17-26.94,11.53-26.94,11.53"/>
  <path id="ID0.157168299425393347" data-name="ID0.15716829942539334" class="st21" d="M397.11,138.61s-26.67-2.92-26.94,11.25c-.28,14.17,26.53,12.64,26.53,12.64"/>
  <path id="ID0.1478485637344427" data-name="ID0.147848563734442" class="st3" d="M417.94,184.03c.69,1.39.69,2.92.14,4.31s-1.53,2.5-2.92,3.19-2.92.69-4.31.14c-1.39-.42-2.5-1.53-3.19-2.92s-.69-2.92-.14-4.31c.42-1.39,1.53-2.5,2.92-3.19s2.92-.69,4.31-.14c1.39.69,2.5,1.53,3.19,2.92Z"/>
  <path id="ID0.37623782223090537" data-name="ID0.3762378222309053" class="st3" d="M382.53,184.03c0,1.67-.69,2.92-1.67,4.03-1.11,1.11-2.5,1.53-4.03,1.53s-2.92-.69-4.03-1.67c-1.11-1.11-1.53-2.5-1.53-4.03s.69-2.92,1.67-4.03c1.11-1.11,2.5-1.53,4.03-1.53,1.67,0,2.92.69,4.03,1.67,1.11.97,1.67,2.5,1.53,4.03Z"/>
  <path id="ID0.42086194967851047" data-name="ID0.4208619496785104" class="st3" d="M413.22,153.47c-.14,5.14-1.94,9.58-5,12.78-3.06,3.33-7.08,5.14-11.53,5.14-4.44-.14-8.33-2.22-11.25-5.56s-4.44-8.06-4.44-12.92c.14-5,1.94-9.58,5-12.78,3.06-3.33,7.08-5.14,11.53-5.14,4.44.14,8.33,2.22,11.25,5.56,2.92,3.19,4.58,7.78,4.44,12.92Z"/>
  <path id="ID0.93023815052583817" data-name="ID0.9302381505258381" class="st8" d="M396.83,171.25c-8.89-.14-15.83-8.47-15.69-18.47.14-10,7.64-18.06,16.39-17.78"/>
  <path id="ID0.0366687318310141567" data-name="ID0.036668731831014156" class="st3" d="M400.86,170.97c0,1.11-.42,1.94-1.25,2.64-.69.69-1.81,1.11-2.78,1.11-1.11,0-1.94-.42-2.64-1.25-.69-.69-1.11-1.81-1.11-2.64,0-1.11.42-1.94,1.25-2.78.69-.69,1.81-1.11,2.64-1.11,1.11,0,1.94.42,2.78,1.25.69.83,1.11,1.67,1.11,2.78Z"/>
  <path id="ID0.49243016308173547" data-name="ID0.4924301630817354" class="st8" d="M396.83,174.72c-2.08,0-3.89-1.81-3.75-4.03,0-2.08,1.81-3.89,4.03-3.75"/>
  <path id="ID0.59517069999128587" data-name="ID0.5951706999912858" class="st11" d="M416.28,149.72c-.14,5.14-2.22,9.58-5.56,12.78-3.47,3.33-8.06,5.14-12.92,5.14-5.14-.14-9.58-2.22-12.78-5.56-3.33-3.47-5.14-8.06-5.14-12.92.14-5.14,2.22-9.58,5.56-12.78,3.47-3.33,8.06-5.14,12.92-5.14,5.14.14,9.58,2.22,12.78,5.56,3.33,3.19,5.14,7.78,5.14,12.92Z"/>
  <path id="ID0.74356101918965587" data-name="ID0.7435610191896558" class="st19" d="M397.67,167.5c-10-.28-18.06-8.61-17.78-18.61.28-10,8.61-18.06,18.61-17.78"/>
  <polygon class="st10" points="174.06 295.42 128.64 314.44 106.14 280.83 156.69 259.58 174.06 295.42"/>
  <polygon class="st13" points="156.69 259.58 106.14 280.83 83.78 247.08 139.19 223.89 156.69 259.58"/>
  <polygon class="st5" points="143.08 278.33 131.83 283.06 105.17 238.19 117.81 232.78 143.08 278.33"/>
  <polygon class="st10" points="221.97 277.64 176.83 296.53 159.61 260.69 209.75 239.72 221.97 277.64"/>
  <polygon class="st13" points="209.75 239.72 159.61 260.69 142.25 224.86 197.53 201.81 209.75 239.72"/>
  <polygon class="st5" points="194.61 259.03 183.5 263.75 163.64 215.97 176.14 210.69 194.61 259.03"/>
  <polygon class="st10" points="266 256.81 220.58 275.83 208.22 237.92 258.78 216.81 266 256.81"/>
  <polygon class="st13" points="258.78 216.81 208.22 237.92 196 200.14 251.42 176.81 258.78 216.81"/>
  <polygon class="st5" points="242.11 236.81 230.86 241.53 217.39 191.11 230.03 185.83 242.11 236.81"/>
  <polygon class="st10" points="182.94 247.5 132.39 268.61 112.67 233.89 168.22 210.56 182.94 247.5"/>
  <polygon class="st13" points="168.22 210.56 112.67 233.89 92.81 199.17 153.36 173.75 168.22 210.56"/>
  <polygon class="st5" points="151.83 230.56 139.47 235.69 116.28 189.31 130.03 183.47 151.83 230.56"/>
  <polygon class="st10" points="233.92 223.75 183.08 245.14 168.36 208.19 224.33 184.72 233.92 223.75"/>
  <polygon class="st13" points="224.33 184.72 168.36 208.19 153.78 171.25 214.61 145.69 224.33 184.72"/>
  <polygon class="st5" points="206.28 205.42 193.78 210.56 177.25 161.39 191.14 155.56 206.28 205.42"/>
  <polygon class="st10" points="195.31 196.94 139.47 220.28 122.25 184.44 183.08 159.03 195.31 196.94"/>
  <polygon class="st13" points="183.08 159.03 122.25 184.44 104.89 148.61 170.72 121.11 183.08 159.03"/>
  <polygon class="st5" points="163.92 180 150.31 185.69 130.31 138.06 145.31 131.67 163.92 180"/>
  <path id="ID0.93588600214570768" data-name="ID0.9358860021457076" class="st2" d="M267.39,431.81s-12.22-8.06-6.67-19.72c5.56-11.67,38.33-31.94,44.58-28.61,0,0,5.28,8.75-2.22,12.5-7.5,3.75-23.06,14.31-26.39,23.75"/>
  <path id="ID0.373234833125025038" data-name="ID0.37323483312502503" class="st2" d="M305.17,449.86s14.03,4.44,19.58-7.22c5.56-11.67.56-50-5.97-52.64,0,0-10.14,1.53-8.33,9.58,1.81,8.19,3.47,26.94-1.81,35.42"/>
  <path id="ID0.90779814543202528" data-name="ID0.9077981454320252" class="st2" d="M285.17,443.19s-33.33-12.36-25.28-29.31c8.06-16.94,38.89.83,38.89.83"/>
  <path id="ID0.157168299425393348" data-name="ID0.15716829942539334" class="st2" d="M285.17,443.19s30.69,18.06,38.75,1.11c8.06-16.94-25.14-29.58-25.14-29.58"/>
  <path id="ID0.1478485637344428" data-name="ID0.147848563734442" class="st20" d="M302.11,385c.83-1.81,2.5-3.19,4.17-3.75,1.81-.69,3.89-.56,5.69.28,1.81.83,3.19,2.5,3.75,4.17.69,1.81.56,3.89-.28,5.69-.83,1.81-2.5,3.19-4.17,3.75-1.81.69-3.89.56-5.69-.28-1.81-.83-3.19-2.5-3.75-4.17-.69-1.81-.69-3.89.28-5.69Z"/>
  <path id="ID0.37623782223090538" data-name="ID0.3762378222309053" class="st20" d="M308.78,385.28c.83-1.81,2.5-3.19,4.17-3.75,1.81-.69,3.89-.56,5.69.28s3.19,2.5,3.75,4.17c.69,1.81.56,3.89-.28,5.69s-2.5,3.19-4.17,3.75c-1.81.69-3.89.56-5.69-.28-1.81-.83-3.19-2.5-3.75-4.17-.56-1.81-.56-3.89.28-5.69Z"/>
  <path id="ID0.3115855222567916" class="st12" d="M304.61,391.53l15.97-33.61,7.5,3.61-15.97,33.61-7.5-3.61Z"/>
  <path id="ID0.42086194967851048" data-name="ID0.4208619496785104" class="st20" d="M273.78,416.39c2.92-5.97,7.64-10.42,12.92-12.78,5.42-2.22,11.25-2.5,16.67.14,5.28,2.5,8.89,7.22,10.56,12.78,1.67,5.56,1.11,12.08-1.67,18.06-2.92,5.97-7.64,10.42-12.92,12.78-5.28,2.36-11.25,2.5-16.67-.14-5.28-2.5-8.89-7.22-10.56-12.78s-1.25-11.94,1.67-18.06Z"/>
  <path id="ID0.93023815052583818" data-name="ID0.9302381505258381" class="st17" d="M303.36,403.75c10.56,5,14.58,18.89,8.89,30.83-5.69,11.94-19.03,17.64-29.58,12.64"/>
  <path id="ID0.0366687318310141568" data-name="ID0.036668731831014156" class="st20" d="M298.22,401.94c.56-1.25,1.67-2.22,2.92-2.64,1.25-.42,2.64-.42,3.89.14,1.25.56,2.22,1.67,2.64,2.92.42,1.25.42,2.64-.14,3.89s-1.67,2.22-2.92,2.64c-1.25.42-2.64.42-3.89-.14-1.25-.56-2.22-1.67-2.64-2.92-.42-1.11-.42-2.5.14-3.89Z"/>
  <path id="ID0.49243016308173548" data-name="ID0.4924301630817354" class="st17" d="M305.17,399.58c2.5,1.25,3.61,4.31,2.5,6.81-1.11,2.5-4.31,3.61-6.81,2.5"/>
  <path id="ID0.59517069999128588" data-name="ID0.5951706999912858" class="st11" d="M268.08,419.44c2.92-5.97,7.92-10.28,13.75-12.36,5.83-2.08,12.36-1.94,18.47.97,6.11,2.92,10.28,7.92,12.36,13.75,2.08,5.83,1.94,12.36-.97,18.47-2.92,5.97-7.92,10.28-13.75,12.36-5.83,2.08-12.36,1.94-18.47-.97-5.97-2.92-10.28-7.92-12.36-13.75-2.08-5.83-1.94-12.5.97-18.47Z"/>
  <path id="ID0.74356101918965588" data-name="ID0.7435610191896558" class="st19" d="M300.17,407.92c11.94,5.69,17.08,20.14,11.39,32.08-5.69,11.94-20.14,17.08-32.08,11.39"/>
  <polygon class="st10" points="546.14 412.36 497.67 379.31 516.83 335 570.72 371.81 546.14 412.36"/>
  <polygon class="st13" points="570.72 371.81 516.83 335 536 290.83 595.17 331.25 570.72 371.81"/>
  <polygon class="st5" points="543.08 370.42 531.14 362.22 558.92 306.39 572.39 315.56 543.08 370.42"/>
  <polygon class="st10" points="594.89 448.89 546.69 415.97 571.42 375.42 624.89 412.08 594.89 448.89"/>
  <polygon class="st13" points="624.89 412.08 571.42 375.42 596.14 335 655.03 375.28 624.89 412.08"/>
  <polygon class="st5" points="595.86 409.58 583.92 401.39 618.92 350.56 632.25 359.72 595.86 409.58"/>
  <polygon class="st10" points="644.19 479.58 595.72 446.39 625.72 409.44 679.47 446.25 644.19 479.58"/>
  <polygon class="st13" points="679.47 446.25 625.72 409.44 655.72 372.64 714.75 413.06 679.47 446.25"/>
  <polygon class="st5" points="648.64 442.64 636.83 434.44 678.5 388.19 691.97 397.5 648.64 442.64"/>
  <polygon class="st10" points="599.89 390.28 546 353.47 567.94 311.11 627.25 351.67 599.89 390.28"/>
  <polygon class="st13" points="627.25 351.67 567.94 311.11 590.03 268.75 654.61 313.06 627.25 351.67"/>
  <polygon class="st5" points="596.69 348.19 583.5 339.17 614.89 285.83 629.61 295.97 596.69 348.19"/>
  <polygon class="st10" points="656.56 425.97 602.39 388.89 629.75 350.28 689.33 391.11 656.56 425.97"/>
  <polygon class="st13" points="689.33 391.11 629.75 350.28 657.25 311.81 722.11 356.11 689.33 391.11"/>
  <polygon class="st5" points="657.11 386.39 643.78 377.36 682.25 328.89 697.11 339.03 657.11 386.39"/>
  <polygon class="st10" points="658.5 370 598.92 329.17 623.64 288.75 688.5 333.06 658.5 370"/>
  <polygon class="st13" points="688.5 333.06 623.64 288.75 648.22 248.19 718.5 296.25 688.5 333.06"/>
  <polygon class="st5" points="655.03 327.64 640.58 317.64 675.31 266.81 691.42 277.78 655.03 327.64"/>
  <path class="st7" d="M378.78,364.31c-.28-.14-.56-.28-.97-.42,3.75-1.53,7.08-4.17,9.17-8.06,5-8.75,1.81-19.86-6.94-24.86-8.75-5-19.86-1.81-24.86,6.94-.83,1.67-1.53,3.33-1.94,5-4.86.69-9.31,3.61-11.94,8.19-4.44,7.92-1.67,18.06,6.25,22.5,4.31,2.5,9.31,2.64,13.75,1.11.14,4.03,2.22,7.92,5.97,10,5.56,3.19,12.64,1.11,15.83-4.44,3.19-5.83,1.25-12.92-4.31-15.97Z"/>
  <circle class="st7" cx="355.31" cy="396.94" r="9.31"/>
  <circle class="st7" cx="366.69" cy="417.5" r="4.86"/>
  <polygon class="st15" points="507.39 431.11 605.31 417.5 556.28 433.19 611.42 433.47 564.47 444.31 629.61 453.75 506.14 449.31 507.39 431.11"/>
  <polygon class="st16" points="520.31 465.83 475.17 460.42 472.67 434.44 517.81 419.58 520.31 465.83"/>
  <ellipse class="st16" cx="154.47" cy="357.22" rx="27.5" ry="21.94"/>
  <polyline class="st16" points="126.97 359.58 138.36 397.64 157.39 400.97 177.25 392.5 181.83 359.58"/>
  <ellipse class="st9" cx="154.75" cy="355.42" rx="23.19" ry="15.97"/>
  <polygon class="st18" points="138.64 359.58 116.97 313.75 141.56 318.33 148.92 269.03 154.47 300.42 172.81 269.03 171.69 304.31 193.64 290 181.83 327.64 193.64 324.72 166.69 359.58 159.47 367.64 154.33 365.69 138.64 359.58"/>
  <polygon class="st0" points="474.06 449.31 519.75 454.86 520.31 465.83 475.17 460.42 474.06 449.31"/>
  <polygon class="st0" points="166 397.22 181 365.28 177.25 392.5 166 397.22"/>
  <path id="ID0.93588600214570769" data-name="ID0.9358860021457076" class="st4" d="M676.28,47.92s10.69,2.92,9.44,12.5c-1.25,9.72-20,31.94-25.28,30.97,0,0-5.83-5-1.25-9.44,4.44-4.44,13.33-15.69,13.47-23.19"/>
  <path id="ID0.373234833125025039" data-name="ID0.37323483312502503" class="st21" d="M660.17,36.94s-5.83-9.44-14.72-5.56c-8.89,4.03-24.86,28.33-22.36,33.06,0,0,6.53,4.17,9.44-1.53s11.25-17.08,18.33-19.58"/>
  <path id="ID0.90779814543202529" data-name="ID0.9077981454320252" class="st4" d="M669.61,40.14s23.47,13.06,15.42,24.72c-7.92,11.67-28.89-5.14-28.89-5.14"/>
  <path id="ID0.157168299425393349" data-name="ID0.15716829942539334" class="st21" d="M669.61,40.14s-20.69-17.08-28.75-5.28c-7.92,11.67,15.28,25,15.28,25"/>
  <path id="ID0.1478485637344429" data-name="ID0.147848563734442" class="st3" d="M662.25,89.72c-.14,1.53-.97,2.92-2.22,3.75s-2.64,1.25-4.17,1.11-2.92-.97-3.75-2.22c-.83-1.11-1.25-2.64-1.11-4.17s.97-2.92,2.22-3.75c1.11-.83,2.64-1.25,4.17-1.11,1.53.14,2.92.97,3.75,2.22s1.39,2.5,1.11,4.17Z"/>
  <path id="ID0.37623782223090539" data-name="ID0.3762378222309053" class="st3" d="M632.81,70.42c-.97,1.39-2.22,2.08-3.61,2.36-1.53.28-2.92,0-4.17-.97s-2.08-2.22-2.36-3.61c-.28-1.53,0-2.92.97-4.17.97-1.39,2.22-2.08,3.61-2.36,1.53-.28,2.92,0,4.17.97s2.08,2.22,2.36,3.61c.14,1.39-.14,2.92-.97,4.17Z"/>
  <path id="ID0.42086194967851049" data-name="ID0.4208619496785104" class="st3" d="M675.03,61.53c-2.92,4.17-6.81,6.94-11.11,7.92-4.31,1.11-8.75.56-12.36-1.94-3.61-2.5-5.83-6.39-6.39-10.83s.56-9.17,3.33-13.19c2.78-4.03,6.81-6.94,11.11-7.92,4.31-1.11,8.75-.56,12.36,1.94s5.83,6.39,6.39,10.83c.69,4.17-.42,8.89-3.33,13.19Z"/>
  <path id="ID0.93023815052583819" data-name="ID0.9302381505258381" class="st8" d="M651.56,67.5c-7.36-5-8.61-15.83-3.06-24.03s16.25-10.97,23.47-5.97"/>
  <path id="ID0.0366687318310141569" data-name="ID0.036668731831014156" class="st3" d="M655.03,69.44c-.56.83-1.53,1.39-2.5,1.53-.97.14-2.08,0-3.06-.56-.83-.56-1.39-1.53-1.53-2.5s0-2.08.56-2.92,1.53-1.39,2.64-1.67c.97-.14,2.08,0,2.92.56s1.39,1.53,1.67,2.64c.14.97,0,1.94-.69,2.92Z"/>
  <path id="ID0.49243016308173549" data-name="ID0.4924301630817354" class="st8" d="M649.75,70.42c-1.81-1.25-2.22-3.61-.97-5.42,1.25-1.81,3.61-2.22,5.42-.97"/>
  <path id="ID0.59517069999128589" data-name="ID0.5951706999912858" class="st11" d="M679.61,59.86c-2.92,4.17-7.08,6.81-11.67,7.64s-9.58,0-13.61-2.78c-4.17-2.92-6.81-7.08-7.64-11.67-.83-4.58,0-9.58,2.78-13.61,2.92-4.17,7.08-6.81,11.67-7.64s9.58,0,13.61,2.78c4.17,2.92,6.81,7.08,7.64,11.67.97,4.58.14,9.44-2.78,13.61Z"/>
  <path id="ID0.74356101918965589" data-name="ID0.7435610191896558" class="st19" d="M654.33,64.72c-8.33-5.69-10.42-16.94-4.72-25.28s16.94-10.42,25.28-4.72"/>
</svg>